/* XPM */
static char *maitreya64x64_xpm[] = {
/* columns rows colors chars-per-pixel */
"64 64 256 2 ",
"   c #2E2E2B",
".  c #302F2D",
"X  c #32332E",
"o  c #38352F",
"O  c #343532",
"+  c #383734",
"@  c #3C3B35",
"#  c #3D3C3A",
"$  c #433E3B",
"%  c #443E38",
"&  c #3E423A",
"*  c #44423C",
"=  c #4B433D",
"-  c #46493C",
";  c #53463D",
":  c #3D3E45",
">  c #413E42",
",  c #4B4442",
"<  c #474845",
"1  c #534A44",
"2  c #564A47",
"3  c #5A4C45",
"4  c #4A5545",
"5  c #575748",
"6  c #4F4C50",
"7  c #5A5856",
"8  c #654D49",
"9  c #66564A",
"0  c #6B544D",
"q  c #74574D",
"w  c #614D53",
"e  c #685955",
"r  c #775B54",
"t  c #59664D",
"y  c #5B6755",
"u  c #5A715B",
"i  c #636A4D",
"p  c #676757",
"a  c #786557",
"s  c #667658",
"d  c #76775B",
"f  c #5C5866",
"g  c #695462",
"h  c #5B7474",
"j  c #696766",
"k  c #776A69",
"l  c #697867",
"z  c #777769",
"x  c #7A7979",
"c  c #885D4F",
"v  c #8E624E",
"b  c #886658",
"n  c #8C6B5D",
"m  c #96695A",
"M  c #87775B",
"N  c #95745D",
"B  c #A86A5B",
"V  c #A7775C",
"C  c #B7785C",
"Z  c #895C63",
"A  c #8A6963",
"S  c #976B64",
"D  c #867967",
"F  c #997764",
"G  c #857C77",
"H  c #957374",
"J  c #A86C66",
"K  c #A67B66",
"L  c #B77665",
"P  c #AE7677",
"I  c #C9785D",
"U  c #C87B66",
"Y  c #D67C67",
"T  c #D17B76",
"R  c #E57D66",
"E  c #5F835E",
"W  c #71835D",
"Q  c #788767",
"!  c #728E6E",
"~  c #678878",
"^  c #7CA577",
"/  c #898868",
"(  c #97886A",
")  c #88946B",
"_  c #878876",
"`  c #968878",
"'  c #8D9674",
"]  c #979678",
"[  c #A98669",
"{  c #B98868",
"}  c #AD946C",
"|  c #A78875",
" . c #B88876",
".. c #A3967A",
"X. c #B99675",
"o. c #8EA670",
"O. c #B8A57A",
"+. c #B0B075",
"@. c #C78666",
"#. c #D88669",
"$. c #D9966C",
"%. c #CF8C70",
"&. c #C89876",
"*. c #D99875",
"=. c #E78969",
"-. c #E48C6B",
";. c #E6966A",
":. c #EB936D",
">. c #EC9B6C",
",. c #F4986B",
"<. c #E68A72",
"1. c #F38B71",
"2. c #E89A74",
"3. c #F39A74",
"4. c #C7A37A",
"5. c #D8A779",
"6. c #CEB178",
"7. c #E9A36E",
"8. c #F6A56C",
"9. c #EDA474",
"0. c #E9A978",
"q. c #F3A373",
"w. c #F3AB75",
"e. c #FBAC74",
"r. c #F4A979",
"t. c #F1B376",
"y. c #FBB474",
"u. c #F7B678",
"i. c #FBBC7B",
"p. c #CFC47A",
"a. c #FBC57C",
"s. c #F2CC7E",
"d. c #687880",
"f. c #9F7D84",
"g. c #D87C8A",
"h. c #E67E88",
"j. c #E57E94",
"k. c #6D8E8F",
"l. c #7A8887",
"z. c #789A98",
"x. c #78AA94",
"c. c #6C98AA",
"v. c #76ABB1",
"b. c #7AB9C5",
"n. c #77B3D1",
"m. c #7BBFE3",
"M. c #7AC2CC",
"N. c #7DC4DA",
"B. c #7BC8E5",
"V. c #79CFF5",
"C. c #7BD1F7",
"Z. c #7CD4FB",
"A. c #868889",
"S. c #8D8F8D",
"D. c #999985",
"F. c #959795",
"G. c #B58E8C",
"H. c #AB9582",
"J. c #A49595",
"K. c #92A98E",
"L. c #A7A487",
"P. c #B8A585",
"I. c #AFAF97",
"U. c #B5A998",
"Y. c #929DA7",
"T. c #BF91AA",
"R. c #88ACAC",
"E. c #99A6A6",
"W. c #97B5B8",
"Q. c #ACB4AE",
"!. c #CF8F8D",
"~. c #DE8398",
"^. c #E7848A",
"/. c #F68B88",
"(. c #E88798",
"). c #F38B97",
"_. c #F49395",
"`. c #C9A784",
"'. c #D7A985",
"]. c #CCB486",
"[. c #D7B688",
"{. c #C9A894",
"}. c #CAB69A",
"|. c #D6B996",
" X c #E8AA85",
".X c #EEB18D",
"XX c #E7B988",
"oX c #F5BB84",
"OX c #E8BB95",
"+X c #D694A8",
"@X c #E889A7",
"#X c #F38EA9",
"$X c #E995A8",
"%X c #F697A8",
"&X c #EB8EB3",
"*X c #E899B7",
"=X c #F499B5",
"-X c #CDAFAA",
";X c #EBA6BB",
":X c #F6A6B8",
">X c #EFB1B3",
",X c #A6C68E",
"<X c #87C5B7",
"1X c #B9C5B4",
"2X c #DBC19A",
"3X c #E9C38C",
"4X c #F8C786",
"5X c #F9D38C",
"6X c #E9C697",
"7X c #F3C996",
"8X c #F8D599",
"9X c #DAC7A7",
"0X c #D2CCB4",
"qX c #E9CBA7",
"wX c #F3CDA5",
"eX c #EDD1AA",
"rX c #F6D5A9",
"tX c #E7CCB5",
"yX c #EAD5B9",
"uX c #F4D4B3",
"iX c #FADAB7",
"pX c #FCE5A8",
"aX c #FBE5B7",
"sX c #FEF3BA",
"dX c #92BAC6",
"fX c #A8B9C4",
"gX c #E9AAC4",
"hX c #E9B4C9",
"jX c #F6B5C7",
"kX c #F1B0C9",
"lX c #8FC7CD",
"zX c #87C9D6",
"xX c #AFC7CF",
"cX c #86CEE8",
"vX c #84D5F5",
"bX c #81D6FB",
"nX c #B8D7E3",
"mX c #B7E2EE",
"MX c #B9E9FD",
"NX c #CFCFCE",
"BX c #E8D9C8",
"VX c #F2D0CC",
"CX c #D7E3CC",
"ZX c #FCE7C6",
"AX c #FFF6CA",
"SX c #E5E2D3",
"DX c #F6E9D6",
"FX c #FFF9D8",
"GX c #CCDCE6",
"HX c #EFDEE2",
"JX c #D6E4EB",
"KX c #C9EAF7",
"LX c #EBECEC",
"PX c #FCF9E9",
"IX c #FEFDF5",
"UX c #FFFFFE",
/* pixels */
"MX<Xx.~ E +.+.p.4.n p l + > A = 3 + ( 6.6.; q S J B J m N n m b S n S e 0 3 2 2 $ , # # + 7 + h S.H p * h V.dX` 7 v.K.^ ^ ,X,XsX",
"nXK.^ E ! ) M } K M 7 g , $ a % > O } N b b A S A S J F [ N V [ K F K F n a 9 w = , 2 * # + < d.D F 9 # n.V.M.x y N.vXx.+.K.^ CX",
",X+.+.^ o.K.x.d K 5 # 2 2 , g $ > ; 0 r b A S S S K [ K X.&.&.&.4.4.4.} K N n a 5 = 2 * $ $ , Q p b b < n.Z.M.x l B.bXb.<XM.<XCX",
"0Xo.i +.p.+.v._ ..2 $ $ $ , q = , 8 r q n n n b K [ X.`.2X6XrXrX8X7X6XXX5.X.[ F m 3 3 2 < , * 7 1 b r 9 N.Z.N._ l cXbXbXZ.<X^ CX",
"1Xp.s ,XW +.~ ] D.' M * $ $ w % , 8 r r b S F F 4.|.aXaXsXZXeXP.[ }.sXaXpX7X[.4.| m a 9 , , , , , F r x cXV.N.S.! M.bXbXvX^ ,XCX",
"0X+.p.lXM.! v.1X` v.P.1 $ $ 8 $ = 8 r c n ( { ].iXAXPXPXIXJ.* o + # }.PXFXsXpX8X`.[ b r 3 , $ , 3 n q k.cXV.zXL.p b.Z.Z.vX<X^ CX",
",X+.s.xXV.M.M.xXL.c.1Xr # @ 1 , $ 0 a S K X.[.aXFXPXIXUXPX@ 3 = O + < LXUXPXAXsX5X6.F A e , * , , a e x.m.Z.zXD.Q S.Z.Z.vXvX<XCX",
"0X! ,XvXV.V.M.lXF.h zX..$ $ * , 2 0 b N [ ].rXFXIXUXUXPX` @ * - O # + k HXUXUXFXpX3X`.F A w 2 $ $ r 0 z.zXZ.zX` z.l.B.bXZ.vXx.CX",
"1X! c.v.N.C.cXW.Y.h v.zXt @ * = 1 0 F { `.eXFXIXUXUXSX7 $ X ; 3 9 = % X 2 NXUXUXFXpX3XX.n r 2 $ @ 9 7 z.m.Z.zX_ K.v.b.bXZ.bX<XCX",
"mXx.! E x.C.cXR.z.u x.Z.k.@ @ * 2 0 N | 3XZXPXUXUXPX6 + $ ; ; ; 3 @ 1 @ . w HXUXIXAX8X6.N a 9 * @ 2 g R.N.Z.v.K.! z.b.bXZ.Z.vXmX",
"fXM.! o.! v.cXz.l.! c.C.<X= + # , 0 A `.yXPXUXUXUXD.# < 2 r ( M M M q * @ O -XUXUXPXaX7XX.r 3 , % * j zXN.Z.c.K.z z.b.Z.Z.Z.bXMX",
"E.c.V.M.M.N.V.x.l.~ c.Z.lXa + @ > q K |.AXPXUXUXUXl + + b 2XqXwX8X6X3X; . . F.UXUXIXAXpX`.n 0 * # 8 l.zXB.Z.c.K.z R.B.Z.Z.Z.Z.KX",
"MXC.Z.Z.bXbXbXR.~ x.c.Z.zXV + O , b } 6XFXIXUXUXUXz o + `.qXuXuXrXrX4XN . o hXUXUXUXFXeX`.M 9 , % 0 l.cXm.Z.<XY.k.R.N.Z.Z.bXZ.MX",
"MXC.vXbXbXbXvX<X~ c.c.Z.zXK # O @ 0 X.qXFXIXUXUXUX1X, D H.( | qX2XN [ N 9 9 LXUXUXUXFXpX`.n 2 $ @ 9 k.cXcXbXn.K.x.R.b.C.bXbXbXKX",
"MXbXbXbXbXZ.C.b.h v.c.Z.B.a + . $ 0 [ OXAXIXUXUXUXDX..}.'.XX5.qX4.&.&.X.K @.PXUXUXUXFXpX4.n 1 % # 2 d.cXcXbXM.K.K.R.b.C.bXbXbXKX",
"MXbXbXZ.Z.C.C.lXh b.v.Z.B.5 + O # 8 [ |.AXPXUXUXUXDXeXyX` b } eX5.[ M V 4.*.IXUXUXUXFXiXX.n 1 @ + a S.xXcXvXb.~ R.z.zXbXbXbXbXMX",
"MXbXbXbXZ.Z.Z.cXh v.v.Z.B.4 O O O 4 n '.aXFXUXUXUXPXwXyXuXeX6XeXXXXXwX X*.OXUXUXUXIXAXwXX.r $ @ 1 O.4.NXSXS.A.l R.k.W.bXbXbXZ.MX",
"MXbXZ.Z.Z.Z.Z.cX~ v.v.Z.B.& O   X 4 9  .qXAXIXUXUXUXrXeXeXwXXX'.%.5.3X2.*.VXUXUXUXPXAX3XK q % @ H P.`.NXNX}.H a _ e z c.bXbXbXMX",
"MXZ.bXZ.Z.Z.Z.vX~ c.c.Z.V.4 X O   & 5 F '.aXFXIXUXUXFXOXqX6X X-.<.2.0.*.*.PXUXUXPXAXrX4.m 2 % % P.}.'.-X}.}.P.D ..a e 1 v.Z.vXGX",
"MXbXZ.Z.Z.C.C.C.h c.v.Z.V.h X X   O , a { 6XaXFXUXUXPXyX6X3X6XOXXX0.#. XtXUXUXPXAXpXXXK q $ @ % P.|.[.2X[.'.O.....H a q f Y.U.{.",
"MXbXV.V.Z.V.Z.V.h k.n.Z.Z.k.O O X o = 3 n `.XXaXFXIXUXIXqX3X'..X5.$.*.[.tXPXPXsXpX X{ n = @ o % P.|.|.9X2X[.4.| ..F N S -X9X!.{.",
"MXbXbXvXZ.Z.V.B.h k.m.V.nXL.O X o + @ - 8 N 5.6XpXAXZXyXtXuXOX5.@.#.;.#.=.<..X.X4.F r 1 * % o % P.|.].2X[.p.X.n K V { P X.L m ` ",
"JXNXJX-Xn.V.Z.B.k.K.1XyXeX+.O     . X o * 8 &.[.7X3X7X6XeXiXwX7XXX0.#.=.Y =.R #.1.@.K 5 % o o % X.].O.6.P.4.( b A B X.&.K 1 w p ",
"DXtXtXU.H.R.B.N.Q.9XeXDX9XL.+       o - [ OX8X8X8X7XwXwXuXuXwX7X3X*.:.-.1.1.1.e.:.,.Y *.M * o @ } 6.4.6.p.6.6.( [  .}.O.D + & j ",
"DXyXtX}.}.H.-XBXBX9XtX2XyX..+ O   X 5 2XiXiXrXrX8XrXrXiXiXuX6XOX X1.<.q.>.:.q.r.3.R <.e.r.[ o @ M [.6.OX].}.]...( L.I.4 5 O O j ",
"HXVXtX9X{.P.PXtX9X].|.BX0X..O X X * 2XiXiXiXiXpXiXiXiXiXuXrX6X X<.q.w.,.w.>.u.3.,.:.:.oXe.q.a * e O.( / 0 d z _ 7 D i @ & O O y ",
"HXBX9X0X9XSXSXpX2X|.2XBXyXL..   X D iXiXZXZXiXiXiXiXiXiXiX.X2.3.i.t.w.w.w.q.oX3.<.q.3.u.oXe.&.@ = b 9 - ; 5 ; - & 5 & @ X o O k ",
"0XJ.VXPXDXDXaXqX|.9X2X}.I...@   O |.iXiXiXuXrXuXiXZXiXrX.XoXu.4X4X4Xt.a.9.oX4Xr.<.9.3.2.i.y.:.< * } O.O.( O...M 9 M d / b d e [.",
"F.G BXLXDXBXtX|.0X9XO.P.( ( - . $ tXrXwX7X.XXXuXiXiX7XoX8X4X8X4X5X5Xa.e.9.oXoXr.<.r.q.-.y.y.8.9 o H.'.>X'.XX'.'.L '.'.!.H.f.H OX",
"F.e 1XDXDXtX-X}.yX0XM / ( ' * + 9 uXuXqX X$.%.OXwX.X5XpX5XpX8X5Xa.a.a.q.=.4Xy.r.:.w.3.=.i.i.8.d @ G S.J.J.J.J.J.r A.A.G ` x G J.",
"F.5 7 0XBX}.I.I.I.o.l L.D.' & O G yXrX7X3X5.S $.r.i.4Xa.aX8Xi.5X8.a.i.:.#.8Xy.3.>.w.1.R i.y.>.M @ g A.A.x x A.l.j l.A.&.#.a f D ",
"F.< : j J.ZXCX1XI.}...I.}.L.@ o {.uXiXiXuX0.m Y ,.q.,.4XoX8.4Xw.w.y.oX3..X5XoX2.r.r.:.#.i.y.;.{ + 6 E.Y.W.Q.W.fXW.fXF.L L r d x ",
"1XF.Y.Y.F.hXGXVXSXSXCXLXLX` + & qXiXiXZXrX%.B R =.Y :.3.,.q.oX9.8.a.w.2.OX4Xi.<. Xu.<.-.t.r.1.*., , Q.fX1X1XxXNXW.fXfXl.F._ k 1X",
"NXY.S.Y.Y.fXfXnXGXJXKXLXLXp + a uXVXZXZXrX@.v Y Y Y :.:.=.r.q.q.w.i.2.:.9.2.2.<. X<.T 2.t.t. X X5 % A.LXGXGXGXQ.j A.xXz.nXE.Y.Q.",
"Q.d.d.l.z.R.dXdXxXnXJXLXNX- X H.iXZXZXZX3Xb N L C I :.=.2.:.:.:.y.oX<.-.s.<.<.<. XY Y 7X4X3. X2.D $ w GXLXKXfX~ ! S.1XE.JXQ.F.Q ",
"xXY.R.R.W.dXdXxXnXGXLXJXE.O O {.iXZXZXiX0.; | D C R =.#.-.:.:.;.w.t.-.-.w.%.T <.<.L 2.oX#.%.oX3.X.> > Q.JX1Xu W ! E y 1XK.I.K.Q.",
"NXW.dXfXxXnXnXnXGXKXKXJXS.O $ qXiXZXiX7XK % ` M I I I 1.-.=.#.w.0.0.<.Y Y .X*.Y <.L 3.2.oX4XoXoX Xz 6 D.D.I.! E u y Q o.s s y ' ",
"GX1XxXxXdXxXxXnXGXLXJXnXl X 2 qXtXwXOX!.0 @ p M B B R Y R <.=.9.r.#.1.'.7X<.T 9.U I <.{ %.r.i.oX3.`.- w / k L.d E 4 t u < j ! ~ ",
"NX] H.E.W.W.xXl T.GXLXnX7 O e OXqX6XwX7X'.9 # F c J U R <.-.3.-.e.2.<.0.T Y T 2.J L  .XXoXq.#.#.<.'.$ 5 u W s ) t s s 4 u L._ Q ",
"J.- r H x < 4 4 p GXGX1X& O * ].qXeXuXuXuX6Xd = V L U U <.:.>.:.3.3.2.3.#.U Y m r C L { @.3.oX3. X'.5 y s s y s ) / +.Q E & t D.",
"K.* < 4 < 5 W s t e A.M o O X n '.6XuXuXiXrX6XD / r B 1.#.3.#.:.:.q.<.#.#.c L r q @.0.4Xt.r.u.u.0. .p # 5 # = s Q s u s t j G J.",
"JX0XQ.t & / C W 4 & 9 ; X O . o N &..XqXyXiXrX6XP.q L Y Y ,.Y 9.-.2.<.U L 8 q K 0.t.u.u.t.i.0.r.*.K 2 $ 1 * * 4 p W t E 4 +X=X:X",
"UXIXJXF.- t t Q & - ; X O X X   . a @.&.OXuXiXuXwX].K V Y #.&.OX2XOX5.4.X.( V q.0.i.w.a.0.7.9.*.V S p $ + @ & 5 o * 4 s p P %X:X",
"UXSX' 7 4 o.E W @ # - o * M } &.&.5.5.[.@.#.oXwXrXwX7X&.`.OXwXOX*.*.5.OXOX3X4.XXt.u.0.t.u.7.;.2.$.*.X.D @ @ @ & % N % q , d T.G.",
"PXd o & i 4 t t @ @ & M $.>.;.7.>.>.8.oXXX{ K @.5.6X6X X[.6XeX8X7XXXXX5.5.[.5.@.t.e.w.w.2.>.-.#.L a v ( d @ o % % 9 G._.L Q 1 p ",
"LX! - i & 4 4 E 4 & N #.,.8.y.y.i.w.7.-.-.;.,.{ b $.5.&.K &.[.3X6X5X3X[.wX8XXX[ @.9.%.$.:.@.S V X.XXoXi.4XP.- @ % s P ^.m , t x ",
"1Xs W i s - 4 4 & a I ,.y.i.y.8.7.$.#.#.$.$.@.U 9 9 { 5.XXOXs.3X3X3X3X3Xt.6.@.N r C N v S V 5.5X5X4Xa.4Xy. X( 5 W D (.9 - * i K.",
"J.o.4 i ) ( i o o v R 8.e.y.e.y.y.a.5XoX-.@.@.*.$.C @.@.{ %.{ C L 3XwX7X2X3X8X8X7X5.[ *.5.t.u.oXa.y.i.i.i.w.{ d ) 9 9 o W K I z ",
"F.1 ) W U.K ) a 8 B Y ,.8.y.y.y.a.y.y.a.s.s.a.y.s.s.t.7.s.7.6.$.{ XXwX8XwX8X8XrX8X8X8X X0.XX9.e.y.y.y.y.e.>.L >Xq % s W 5 b v -X",
"I.i i s E o.p G.!.B I ,.8.y.y.y.y.y.a.y.a.a.y.8.s.8.y.s.y.8.8.C @.$.'.s.XXOX7X7XoX3XXXt. XoX0.u.y.y.y.8.,.Y !.%XP ; M s U S 2 A ",
"Q..XN 5 5 s = (._.G.C Y ;.8.8.y.8.y.y.y.8.8.8.8.7.8.y.y.>.I I v v v N m { L { @.L %.5.#.2.0.r.e.e.e.8.=.Y P =X/./.3 9 d P q s j ",
"I.W s Q * % 0 ).%X;XL C #.>.;.;.;.;.8.;.8.8.8.;.8.8.8.8.I $.N @.@.v 8.#.#.w.*.w.7.$.2.w.w.w.e.u.e.,.=.I K (.%X).).0 * d W s W k ",
"F.s W t % m <./.%X_.$XC I ;.8.;.;.>.8.8.,.R ,.,.;.;.=.I I q v N { c V 7.3.;.7.q.t.e.w.0.7.2.9.2.=.U V J *X#X).$X/.@Xg.H a 1 7 x ",
"J.- - ; !.>X%X1._./.%X>XV &.I #.#.R I I R ,.=.I I I I C v C 7.t.4X7.@.C :.q.;.7.2.>.2.:.-.-.-.U L P (.@X*X%X^.(.^.%X$XL 2 5 g A.",
"D.= * @ c %./.3._.3._.:X_.:X|.| 9 8 v v v v c m v v v v I I 8.y.7.t.@.;.B I :.,.:.=.Y C  .!.Z  .;X:X=X(.#X#X^.^.).$XA 1 5 j x H.",
"I.4 % * o  .:X%X_.1.).%X/.%X:X:X!.-XOX} v ; 3  .V 9 ; C C 7.7.$.;.7.m ;.I 3 q P c r F +X;X;X:X#X:X#X=X).@X^.h.#X:X:X~.a d / p k ",
"0X5 $ * - J ^.#X)./.1.).h.#X%X=X).=X:XjXjX{.S -XVX-XG 0 c  .qXhX>X0.A Z H.T.>XhXG.P gXgXgX*X:X(.=X#X(.^.h.^.@X).P Z 7 a ) ] Q d ",
"J.$ * 5 6 # * w $X:X%X).h.h.h.#X).#X#X=X;X(.*XgXgXhXgXG.T.hXkXgXjXhX!.+XgXkXhXkXgX+X*XgX=X&X=Xh.@X(.T (.@X>XjX:XP A ( ] ] ../ G ",
"F.& 5 t t 5 , g.>X;X=X&X).h.j.h.j.@Xj.@X&Xh.&X@X+X*X*X+X*XgX*X$XjXkX;X#X:X;X$X*X&X~.@X&X&X@X^.h.j.j.(.(.!.g.P G.-X] / ..] ) / Q ",
"F.6 ` ..) Q p 6 8 Z Z P $X=X#X#Xj.g.h.g.j.h.@X@X~.&X&X@X&X=X&X@X:X=X=X#X&X&X~.@X@Xg.j.j.j.g.(.@X&X=XgXgX .2 / -XH.k / ' ) M k j ",
"F.6 6 x D._ j l.x A.j T.*X*X&X@X@X$X&X@X@X(.j.~.~.~.@X@Xj.@X&X(.&X@X).j.j.g.j.~.g.g.@X+X*X=X$XJ P G.G.!.e z ..] ` ' ' ` p 7 , f ",
"F.: : 6 f k j f f S.j f f f g f T.hXgXgX&X@X@X&X&X&X@Xj.j.@X~.h.).@X(.h.@X&X&X&X*X@X~.gXhXVXjXT.6 U.0Xn _ ] L.D.U.] ) p 2 w : 7 ",
"S.: : O # : : > g a D l j 6 : g ;X*X%X~.J S jXjXjXjX*Xj.&X;XkX=X:X:X=Xg.*XkXhXhXhXhXw g A S A A z x A.H.L.D.D.D._ G j 6 a : < 7 ",
"S.O O O O O + $ : e ..] 1Xe < 2 | jX=Xg.Z g jXjXjX&XH w J +XkXkXkX(.L A.{.P +XgXVX+X7 l x ! L._ _ ' z e 4 6 7 _ _ e 6 6 < : # 7 "
};
