/* XPM */
static char * maitreya_xpm_xpm[] = {
"32 32 1000 2",
"  	c None",
". 	c #AD3442",
"+ 	c #B03241",
"@ 	c #AF2F3E",
"# 	c #AF2D3D",
"$ 	c #AE2B3C",
"% 	c #B12B3B",
"& 	c #B22F3C",
"* 	c #B3323E",
"= 	c #B33640",
"- 	c #B63B3F",
"; 	c #B64240",
"> 	c #B6473F",
", 	c #B54D3F",
"' 	c #B5503E",
") 	c #B2523C",
"! 	c #B1543D",
"~ 	c #B1543E",
"{ 	c #AF533D",
"] 	c #AE4F3B",
"^ 	c #AC4B3C",
"/ 	c #AC463E",
"( 	c #AC413D",
"_ 	c #AA3C3F",
": 	c #A7383F",
"< 	c #A73440",
"[ 	c #A1303F",
"} 	c #9F2B3D",
"| 	c #9B2A3B",
"1 	c #99293B",
"2 	c #992439",
"3 	c #9A2237",
"4 	c #972337",
"5 	c #B23041",
"6 	c #B22F3E",
"7 	c #B32E3F",
"8 	c #B22B3C",
"9 	c #B52B3B",
"0 	c #B72F3B",
"a 	c #B9313F",
"b 	c #B9363D",
"c 	c #BA3E3E",
"d 	c #BB4541",
"e 	c #B84C3F",
"f 	c #BA543E",
"g 	c #B85C3B",
"h 	c #B7603B",
"i 	c #B5653C",
"j 	c #A56040",
"k 	c #A86753",
"l 	c #B4653B",
"m 	c #B3613B",
"n 	c #B25B3B",
"o 	c #B2553A",
"p 	c #B34E3D",
"q 	c #B2463E",
"r 	c #B1403C",
"s 	c #AF3A3D",
"t 	c #AC343E",
"u 	c #A82E3D",
"v 	c #A32C3C",
"w 	c #A1293D",
"x 	c #A02539",
"y 	c #9F2238",
"z 	c #9D2035",
"A 	c #B53040",
"B 	c #B62F40",
"C 	c #B62F3F",
"D 	c #B82D3C",
"E 	c #BA2E3A",
"F 	c #BD313D",
"G 	c #BE363F",
"H 	c #BF3D40",
"I 	c #C04740",
"J 	c #BD513E",
"K 	c #BD5A3C",
"L 	c #BB643D",
"M 	c #B96C3B",
"N 	c #B26E3D",
"O 	c #A2643B",
"P 	c #835647",
"Q 	c #8C6256",
"R 	c #A2653B",
"S 	c #B47139",
"T 	c #B56D39",
"U 	c #B4663A",
"V 	c #B55C3A",
"W 	c #B6543C",
"X 	c #B54B3E",
"Y 	c #B24140",
"Z 	c #B23940",
"` 	c #AF333B",
" .	c #AC2D3A",
"..	c #A72938",
"+.	c #A42538",
"@.	c #A02537",
"#.	c #A02135",
"$.	c #B73041",
"%.	c #B93141",
"&.	c #B82F40",
"*.	c #BC2F3F",
"=.	c #BF313F",
"-.	c #C03540",
";.	c #BF3C3F",
">.	c #C24540",
",.	c #BF533F",
"'.	c #BF5E3E",
").	c #BD693F",
"!.	c #BB743D",
"~.	c #AB6F44",
"{.	c #945D4F",
"].	c #864937",
"^.	c #795047",
"/.	c #836258",
"(.	c #7A4037",
"_.	c #935947",
":.	c #B27941",
"<.	c #B4763A",
"[.	c #B46D39",
"}.	c #B65F3B",
"|.	c #B6553D",
"1.	c #B64A3E",
"2.	c #B33F3E",
"3.	c #B2363C",
"4.	c #AF2F3B",
"5.	c #AA2C3B",
"6.	c #A7263B",
"7.	c #A32537",
"8.	c #A32236",
"9.	c #B83143",
"0.	c #BA3040",
"a.	c #BA313F",
"b.	c #BE323F",
"c.	c #C0343F",
"d.	c #C13A40",
"e.	c #C2433E",
"f.	c #C14E40",
"g.	c #C15C3F",
"h.	c #BD6B3C",
"i.	c #BA783D",
"j.	c #AB7647",
"k.	c #916150",
"l.	c #624C48",
"m.	c #5E3A3B",
"n.	c #76504A",
"o.	c #7A5C55",
"p.	c #5B3E3C",
"q.	c #624D4D",
"r.	c #916657",
"s.	c #AB7E47",
"t.	c #B47A3B",
"u.	c #B56E39",
"v.	c #B6613B",
"w.	c #B6523D",
"x.	c #B4473D",
"y.	c #B43B3E",
"z.	c #B2333C",
"A.	c #AC2D39",
"B.	c #AA2637",
"C.	c #A42338",
"D.	c #A22238",
"E.	c #BB3143",
"F.	c #BB3141",
"G.	c #BE313F",
"H.	c #C03340",
"I.	c #C13840",
"J.	c #C34042",
"K.	c #C44B3E",
"L.	c #C2583F",
"M.	c #C0673E",
"N.	c #BD763F",
"O.	c #BB8743",
"P.	c #915B42",
"Q.	c #6C554B",
"R.	c #3B394B",
"S.	c #654344",
"T.	c #956E5A",
"U.	c #917360",
"V.	c #684540",
"W.	c #373B50",
"X.	c #6D5653",
"Y.	c #99684C",
"Z.	c #B48C48",
"`.	c #B57B3E",
" +	c #B56C39",
".+	c #B65D3D",
"++	c #B64F3D",
"@+	c #B5403E",
"#+	c #B3373C",
"$+	c #AF3039",
"%+	c #AC2838",
"&+	c #A72536",
"*+	c #A42237",
"=+	c #BB3242",
"-+	c #BD3142",
";+	c #BD3544",
">+	c #C03A43",
",+	c #C23E43",
"'+	c #C34642",
")+	c #C3513F",
"!+	c #C2603F",
"~+	c #BF713D",
"{+	c #BB8342",
"]+	c #AF864A",
"^+	c #74413B",
"/+	c #433940",
"(+	c #5C3939",
"_+	c #875A46",
":+	c #8A5A44",
"<+	c #7E5346",
"[+	c #835A4A",
"}+	c #573933",
"|+	c #3A353F",
"1+	c #82493D",
"2+	c #B3975B",
"3+	c #B28A49",
"4+	c #B5773D",
"5+	c #B7653A",
"6+	c #B7563B",
"7+	c #B7473D",
"8+	c #B5393B",
"9+	c #B2313B",
"0+	c #AF2939",
"a+	c #A92637",
"b+	c #A52538",
"c+	c #BD3141",
"d+	c #BC3542",
"e+	c #BF3A45",
"f+	c #BF4045",
"g+	c #C24646",
"h+	c #C34D47",
"i+	c #C45943",
"j+	c #C1673F",
"k+	c #BE7940",
"l+	c #BB9147",
"m+	c #99754B",
"n+	c #683B38",
"o+	c #64423F",
"p+	c #7D5143",
"q+	c #946E51",
"r+	c #8E6750",
"s+	c #856051",
"t+	c #92725C",
"u+	c #754639",
"v+	c #6A423B",
"w+	c #643432",
"x+	c #AE946A",
"y+	c #B29457",
"z+	c #B38342",
"A+	c #B46E38",
"B+	c #B85A3C",
"C+	c #B54C3C",
"D+	c #B63D3B",
"E+	c #B4333B",
"F+	c #AF2B37",
"G+	c #AB2739",
"H+	c #A42337",
"I+	c #BD3342",
"J+	c #BD3846",
"K+	c #BF3D47",
"L+	c #C24147",
"M+	c #C44747",
"N+	c #C35147",
"O+	c #C35E45",
"P+	c #C26E41",
"Q+	c #BF8444",
"R+	c #BA9854",
"S+	c #A5885D",
"T+	c #633736",
"U+	c #744C45",
"V+	c #7C5549",
"W+	c #936149",
"X+	c #8E6A5B",
"Y+	c #8F6451",
"Z+	c #895B46",
"`+	c #6D4C42",
" @	c #734C41",
".@	c #573534",
"+@	c #A2876D",
"@@	c #B29B65",
"#@	c #B48B4C",
"$@	c #B5753C",
"%@	c #B7603A",
"&@	c #B74F3B",
"*@	c #B53F3A",
"=@	c #B5343A",
"-@	c #B12D3A",
";@	c #AB2737",
">@	c #A62437",
",@	c #BD3343",
"'@	c #BF3845",
")@	c #C13C48",
"!@	c #C24247",
"~@	c #C54848",
"{@	c #C45347",
"]@	c #C46245",
"^@	c #C17344",
"/@	c #BD8B48",
"(@	c #BB9C5F",
"_@	c #BAA379",
":@	c #603E3A",
"<@	c #68463F",
"[@	c #815748",
"}@	c #977165",
"|@	c #96716C",
"1@	c #9B766E",
"2@	c #997369",
"3@	c #724B3F",
"4@	c #613F38",
"5@	c #61413D",
"6@	c #B2A189",
"7@	c #B49E70",
"8@	c #B49152",
"9@	c #B77A40",
"0@	c #B7633A",
"a@	c #B8523B",
"b@	c #B7413C",
"c@	c #B7343C",
"d@	c #B22B39",
"e@	c #AE2736",
"f@	c #A82336",
"g@	c #BE3343",
"h@	c #C13746",
"i@	c #C13B46",
"j@	c #C34147",
"k@	c #C54847",
"l@	c #C4584A",
"m@	c #C46445",
"n@	c #C27646",
"o@	c #BE8F4F",
"p@	c #BC9F65",
"q@	c #BBA986",
"r@	c #81665F",
"s@	c #7B5349",
"t@	c #7C5752",
"u@	c #AA8889",
"v@	c #A88086",
"w@	c #AA8C90",
"x@	c #A17F81",
"y@	c #724D49",
"z@	c #724840",
"A@	c #91807D",
"B@	c #B2A894",
"C@	c #B59F7A",
"D@	c #B3935B",
"E@	c #B67D48",
"F@	c #B86539",
"G@	c #B9513B",
"H@	c #B9423C",
"I@	c #B6363B",
"J@	c #B32C3A",
"K@	c #AE2636",
"L@	c #AA2335",
"M@	c #C03240",
"N@	c #C03745",
"O@	c #C33A46",
"P@	c #C54147",
"Q@	c #C94647",
"R@	c #995B4E",
"S@	c #C06044",
"T@	c #C17644",
"U@	c #BF904E",
"V@	c #BEA169",
"W@	c #BBAB87",
"X@	c #A6857D",
"Y@	c #7C686C",
"Z@	c #7F5351",
"`@	c #724D51",
" #	c #AD5E64",
".#	c #A27778",
"+#	c #654549",
"@#	c #7C5050",
"##	c #825151",
"$#	c #B19797",
"%#	c #B6A897",
"&#	c #B5A17C",
"*#	c #B4945D",
"=#	c #B77D46",
"-#	c #B8623B",
";#	c #B9503C",
">#	c #B9423B",
",#	c #B7363E",
"'#	c #B42D3B",
")#	c #AD2738",
"!#	c #A92338",
"~#	c #C12E3F",
"{#	c #C13544",
"]#	c #C3434A",
"^#	c #C54F4B",
"/#	c #A77A58",
"(#	c #B96348",
"_#	c #C17141",
":#	c #C18D4E",
"<#	c #BEA067",
"[#	c #BAA684",
"}#	c #AB7072",
"|#	c #A08A93",
"1#	c #A2716B",
"2#	c #936261",
"3#	c #AF7D72",
"4#	c #AA7C77",
"5#	c #8D686B",
"6#	c #A36C6B",
"7#	c #9E6B65",
"8#	c #B09594",
"9#	c #B5A077",
"0#	c #B5925A",
"a#	c #B67748",
"b#	c #B7634A",
"c#	c #B75449",
"d#	c #B8403D",
"e#	c #B5363E",
"f#	c #AE2939",
"g#	c #A92537",
"h#	c #C42D3F",
"i#	c #C33040",
"j#	c #BF434D",
"k#	c #A5979E",
"l#	c #9E6A58",
"m#	c #9B6146",
"n#	c #96563F",
"o#	c #B86F47",
"p#	c #C3874A",
"q#	c #BF9C60",
"r#	c #BEA783",
"s#	c #A6736B",
"t#	c #A58D97",
"u#	c #B37C78",
"v#	c #B77E74",
"w#	c #AD837F",
"x#	c #B08783",
"y#	c #B0817F",
"z#	c #A66166",
"A#	c #9C6154",
"B#	c #B2A29F",
"C#	c #B6A68D",
"D#	c #B69C70",
"E#	c #B2885D",
"F#	c #AD6081",
"G#	c #AF638B",
"H#	c #AA5F87",
"I#	c #AA6382",
"J#	c #B23D4A",
"K#	c #B42C3B",
"L#	c #AD2938",
"M#	c #A92737",
"N#	c #C42D3D",
"O#	c #C32E3C",
"P#	c #C33944",
"Q#	c #9B8997",
"R#	c #AA4243",
"S#	c #8E5040",
"T#	c #A14B3E",
"U#	c #AC5C3F",
"V#	c #C57C45",
"W#	c #C19658",
"X#	c #B99E7F",
"Y#	c #AD686B",
"Z#	c #935061",
"`#	c #AB5B5B",
" $	c #B06A64",
".$	c #B07977",
"+$	c #B07A78",
"@$	c #AD6062",
"#$	c #9E5458",
"$$	c #A96C6D",
"%$	c #AD9D92",
"&$	c #B7A382",
"*$	c #B79666",
"=$	c #B47F4F",
"-$	c #A85471",
";$	c #AD496F",
">$	c #AB4669",
",$	c #A84A6C",
"'$	c #B53441",
")$	c #A9263A",
"!$	c #C62D3E",
"~$	c #C52E3D",
"{$	c #C62E3D",
"]$	c #C43844",
"^$	c #B53E44",
"/$	c #995947",
"($	c #C14D3E",
"_$	c #C95D40",
":$	c #C86F41",
"<$	c #B8804B",
"[$	c #A17F73",
"}$	c #BA6F72",
"|$	c #976769",
"1$	c #947070",
"2$	c #AC6660",
"3$	c #B27C7A",
"4$	c #B3847A",
"5$	c #A06F72",
"6$	c #6D4445",
"7$	c #AD6F71",
"8$	c #9F7E7D",
"9$	c #816A56",
"0$	c #B48A58",
"a$	c #BB7546",
"b$	c #A75C3F",
"c$	c #8A5144",
"d$	c #AB575A",
"e$	c #B53C45",
"f$	c #B53340",
"g$	c #B22B3A",
"h$	c #AE2839",
"i$	c #AB2638",
"j$	c #C72D3E",
"k$	c #C82C3C",
"l$	c #C62D3F",
"m$	c #C83642",
"n$	c #905457",
"o$	c #86413A",
"p$	c #C84C44",
"q$	c #CD5340",
"r$	c #B45C3C",
"s$	c #3F3033",
"t$	c #AA7572",
"u$	c #AD8D92",
"v$	c #86595D",
"w$	c #96655A",
"x$	c #AB6360",
"y$	c #B28380",
"z$	c #AB7C77",
"A$	c #9F9497",
"B$	c #6F4C4D",
"C$	c #978E8F",
"D$	c #A57D83",
"E$	c #5A4446",
"F$	c #865841",
"G$	c #A4653D",
"H$	c #A4543C",
"I$	c #8F4A42",
"J$	c #965A64",
"K$	c #AF4B53",
"L$	c #B4323F",
"M$	c #B1293B",
"N$	c #AD2839",
"O$	c #AD263B",
"P$	c #C72C3D",
"Q$	c #C72C3C",
"R$	c #C62D3C",
"S$	c #B46365",
"T$	c #9A4C51",
"U$	c #9F5A4F",
"V$	c #C94B46",
"W$	c #CA4C40",
"X$	c #87493C",
"Y$	c #98523E",
"Z$	c #AC6D5A",
"`$	c #84836B",
" %	c #864C3B",
".%	c #AC6546",
"+%	c #B7716A",
"@%	c #B18782",
"#%	c #AD786E",
"$%	c #9D634B",
"%%	c #965349",
"&%	c #A25A67",
"*%	c #9B6766",
"=%	c #975544",
"-%	c #915843",
";%	c #A05237",
">%	c #844534",
",%	c #9C5A53",
"'%	c #914E54",
")%	c #98555F",
"!%	c #B23040",
"~%	c #B02739",
"{%	c #AE273A",
"]%	c #AC2638",
"^%	c #C72D3C",
"/%	c #C82D3D",
"(%	c #BF2C3C",
"_%	c #814947",
":%	c #AC675F",
"<%	c #B77B6F",
"[%	c #CD3940",
"}%	c #A16B4C",
"|%	c #B77651",
"1%	c #B37574",
"2%	c #A4616D",
"3%	c #985045",
"4%	c #AA694A",
"5%	c #B8736B",
"6%	c #B18480",
"7%	c #AF6F62",
"8%	c #A87054",
"9%	c #9B6755",
"0%	c #926A61",
"a%	c #AA8A8A",
"b%	c #A76549",
"c%	c #925F4A",
"d%	c #B85641",
"e%	c #C2423D",
"f%	c #AE4E4F",
"g%	c #A5656B",
"h%	c #864542",
"i%	c #B12D3C",
"j%	c #B02638",
"k%	c #AD2637",
"l%	c #AC2637",
"m%	c #C92C3F",
"n%	c #C92E3C",
"o%	c #A12D37",
"p%	c #834A3E",
"q%	c #B1726A",
"r%	c #C24146",
"s%	c #C43A3D",
"t%	c #A86C55",
"u%	c #B07C71",
"v%	c #B97B7E",
"w%	c #B95A5F",
"x%	c #9F8880",
"y%	c #9F8B8D",
"z%	c #AA604D",
"A%	c #B86C6A",
"B%	c #B18381",
"C%	c #B06E66",
"D%	c #AF6F59",
"E%	c #A18079",
"F%	c #A18E98",
"G%	c #AC8380",
"H%	c #AB7D73",
"I%	c #976C5F",
"J%	c #AF5644",
"K%	c #BC393E",
"L%	c #B7353D",
"M%	c #A2615D",
"N%	c #814E3E",
"O%	c #AC2C3B",
"P%	c #B12536",
"Q%	c #AE2537",
"R%	c #AC2537",
"S%	c #CA2D3C",
"T%	c #C92D3E",
"U%	c #B72D3B",
"V%	c #95393A",
"W%	c #A76253",
"X%	c #B16849",
"Y%	c #C04F3D",
"Z%	c #A28775",
"`%	c #B88681",
" &	c #B97B7F",
".&	c #BC666D",
"+&	c #AF777A",
"@&	c #A4A1AC",
"#&	c #AB654E",
"$&	c #B7675C",
"%&	c #B5706F",
"&&	c #B27B7E",
"*&	c #B26D5A",
"=&	c #AA8A8B",
"-&	c #A78188",
";&	c #AC7F7F",
">&	c #AC8688",
",&	c #97705F",
"'&	c #9F6653",
")&	c #BA2E39",
"!&	c #AA5044",
"~&	c #915346",
"{&	c #773A34",
"]&	c #9B2C37",
"^&	c #B12438",
"/&	c #AF2336",
"(&	c #AD2236",
"_&	c #CB2D3D",
":&	c #CA2D3E",
"<&	c #CB2E3E",
"[&	c #BB2E3C",
"}&	c #8E4137",
"|&	c #B6734C",
"1&	c #B1755D",
"2&	c #9A6D59",
"3&	c #B47968",
"4&	c #B7898F",
"5&	c #BC6B6B",
"6&	c #B36562",
"7&	c #A19EA5",
"8&	c #AE6355",
"9&	c #A15744",
"0&	c #B96C68",
"a&	c #B76F6E",
"b&	c #B46D6F",
"c&	c #B26B6D",
"d&	c #B35E60",
"e&	c #AE5752",
"f&	c #AB645B",
"g&	c #AA7465",
"h&	c #764035",
"i&	c #AC6252",
"j&	c #A2694A",
"k&	c #874337",
"l&	c #9D2735",
"m&	c #B32539",
"n&	c #B22236",
"o&	c #B02134",
"p&	c #AC2234",
"q&	c #CB2C3E",
"r&	c #CA2D3D",
"s&	c #CA2E40",
"t&	c #CA2E3E",
"u&	c #A94A49",
"v&	c #B4857C",
"w&	c #A67065",
"x&	c #AA734E",
"y&	c #97573E",
"z&	c #B87A7D",
"A&	c #B97371",
"B&	c #AD6261",
"C&	c #995957",
"D&	c #AC5A4F",
"E&	c #A8553E",
"F&	c #AD6244",
"G&	c #B56952",
"H&	c #B0594D",
"I&	c #955459",
"J&	c #A05550",
"K&	c #884943",
"L&	c #A85B3A",
"M&	c #AC5A3F",
"N&	c #AF5838",
"O&	c #AD5B37",
"P&	c #AF5836",
"Q&	c #A15535",
"R&	c #A9584C",
"S&	c #B22538",
"T&	c #B22234",
"U&	c #B02034",
"V&	c #AE2133",
"W&	c #CA2C3E",
"X&	c #CB2C3D",
"Y&	c #CB2E3D",
"Z&	c #C0454C",
"`&	c #B57D74",
" *	c #9E6659",
".*	c #AE6F5C",
"+*	c #A75D4E",
"@*	c #B36E66",
"#*	c #BD6563",
"$*	c #A6524C",
"%*	c #905256",
"&*	c #A07063",
"**	c #B27A65",
"=*	c #B4795B",
"-*	c #AF715A",
";*	c #9F5842",
">*	c #915C50",
",*	c #A1554F",
"'*	c #8C4641",
")*	c #A96858",
"!*	c #966149",
"~*	c #A56046",
"{*	c #AE6444",
"]*	c #A37055",
"^*	c #966855",
"/*	c #AF2638",
"(*	c #B42234",
"_*	c #B12335",
":*	c #AE2034",
"<*	c #CA2D3F",
"[*	c #CB2D3E",
"}*	c #CA2F3F",
"|*	c #B85150",
"1*	c #AA716F",
"2*	c #B5978D",
"3*	c #AE8C6B",
"4*	c #AF7759",
"5*	c #8F4642",
"6*	c #B36152",
"7*	c #A19695",
"8*	c #AC9290",
"9*	c #A77151",
"0*	c #A57B64",
"a*	c #A27757",
"b*	c #9F674C",
"c*	c #A19C9D",
"d*	c #B37E6C",
"e*	c #A75E55",
"f*	c #A96158",
"g*	c #977563",
"h*	c #8E5A51",
"i*	c #AC736D",
"j*	c #AC7D77",
"k*	c #A2353C",
"l*	c #B52336",
"m*	c #B32333",
"n*	c #B22134",
"o*	c #B12135",
"p*	c #AC2133",
"q*	c #CA2E3D",
"r*	c #CB2D3F",
"s*	c #C5313F",
"t*	c #AB726D",
"u*	c #B39487",
"v*	c #B58067",
"w*	c #954A37",
"x*	c #8C483D",
"y*	c #BD8D79",
"z*	c #AB9E9D",
"A*	c #AEA1A3",
"B*	c #B37B55",
"C*	c #9F7046",
"D*	c #B5804B",
"E*	c #A4796B",
"F*	c #ABA3A8",
"G*	c #BA8F7C",
"H*	c #B17161",
"I*	c #AE6E63",
"J*	c #AD8761",
"K*	c #AC6B5A",
"L*	c #A7624E",
"M*	c #984F49",
"N*	c #B52438",
"O*	c #B52237",
"P*	c #B32236",
"Q*	c #B22035",
"R*	c #AE2032",
"S*	c #AD2033",
"T*	c #C82F3D",
"U*	c #CB2D3C",
"V*	c #C63541",
"W*	c #9D5F58",
"X*	c #B67A68",
"Y*	c #B3695E",
"Z*	c #954A47",
"`*	c #B76652",
" =	c #BC8D7D",
".=	c #AD999C",
"+=	c #B0A09F",
"@=	c #B8978F",
"#=	c #B28566",
"$=	c #B68A6A",
"%=	c #AC9C99",
"&=	c #A79F98",
"*=	c #B88B79",
"==	c #B36E60",
"-=	c #A96C6A",
";=	c #AC6149",
">=	c #9F5F45",
",=	c #965447",
"'=	c #882A33",
")=	c #B42536",
"!=	c #B42336",
"~=	c #B32234",
"{=	c #B02233",
"]=	c #B01F35",
"^=	c #AB2132",
"/=	c #C92E3F",
"(=	c #CC2D3E",
"_=	c #C92D3D",
":=	c #C5353F",
"<=	c #6F3635",
"[=	c #9C524D",
"}=	c #8C6361",
"|=	c #735962",
"1=	c #B46354",
"2=	c #C0836C",
"3=	c #A15A5D",
"4=	c #AB7A77",
"5=	c #BAA29B",
"6=	c #B27556",
"7=	c #B99B85",
"8=	c #A37F7E",
"9=	c #A56461",
"0=	c #B77E6D",
"a=	c #B06B61",
"b=	c #6D6A74",
"c=	c #86808A",
"d=	c #8B544B",
"e=	c #985547",
"f=	c #A82F36",
"g=	c #B42437",
"h=	c #B32436",
"i=	c #B12334",
"j=	c #B02234",
"k=	c #AD2234",
"l=	c #AB2333",
"m=	c #CA2D40",
"n=	c #CA2C3D",
"o=	c #C24E4B",
"p=	c #B9934A",
"q=	c #C1923C",
"r=	c #BB7543",
"s=	c #666C74",
"t=	c #99625E",
"u=	c #B96C61",
"v=	c #8B634D",
"w=	c #AC8D6F",
"x=	c #B69D96",
"y=	c #B69085",
"z=	c #B89B90",
"A=	c #A38D82",
"B=	c #9D8A7A",
"C=	c #AE665E",
"D=	c #8F645E",
"E=	c #4A677F",
"F=	c #7E5D59",
"G=	c #A66D3B",
"H=	c #B4743C",
"I=	c #AE5733",
"J=	c #B02B33",
"K=	c #B12336",
"L=	c #AF2436",
"M=	c #AF2235",
"N=	c #AC2335",
"O=	c #C92E3E",
"P=	c #C82D3C",
"Q=	c #C92D3C",
"R=	c #C54745",
"S=	c #B6AB8F",
"T=	c #B7A582",
"U=	c #BF973E",
"V=	c #C19137",
"W=	c #B57B40",
"X=	c #5E5F67",
"Y=	c #A9766A",
"Z=	c #AB726F",
"`=	c #B1ABAF",
" -	c #B88779",
".-	c #B58E86",
"+-	c #B48B81",
"@-	c #AF9B9B",
"#-	c #A79095",
"$-	c #A2645A",
"%-	c #66544A",
"&-	c #847152",
"*-	c #AB8548",
"=-	c #B38D44",
"--	c #B47F32",
";-	c #B26D31",
">-	c #B05134",
",-	c #B12434",
"'-	c #AF2337",
")-	c #AD2434",
"!-	c #AD2235",
"~-	c #AA2132",
"{-	c #C72E3C",
"]-	c #CA2C40",
"^-	c #C82C3E",
"/-	c #C72D3D",
"(-	c #C35C3B",
"_-	c #B79751",
":-	c #B5A487",
"<-	c #BE9B4C",
"[-	c #C18F38",
"}-	c #C28337",
"|-	c #AE885C",
"1-	c #696E7C",
"2-	c #935843",
"3-	c #9F9093",
"4-	c #B0A7A9",
"5-	c #B08869",
"6-	c #A87E5C",
"7-	c #ABAAAA",
"8-	c #946F68",
"9-	c #A47644",
"0-	c #B69248",
"a-	c #B5863D",
"b-	c #B58635",
"c-	c #B28737",
"d-	c #B37D34",
"e-	c #B16A32",
"f-	c #B05B34",
"g-	c #AB2835",
"h-	c #B02334",
"i-	c #AC2334",
"j-	c #AB2335",
"k-	c #A82233",
"l-	c #C82E3F",
"m-	c #C72C3E",
"n-	c #BD433A",
"o-	c #B46E39",
"p-	c #BC883E",
"q-	c #BE913A",
"r-	c #BF9339",
"s-	c #BF9439",
"t-	c #BE933C",
"u-	c #9E8462",
"v-	c #5E6C79",
"w-	c #907B83",
"x-	c #A59293",
"y-	c #ACA1A2",
"z-	c #A9907E",
"A-	c #A2959E",
"B-	c #B16A3A",
"C-	c #B5783B",
"D-	c #B38040",
"E-	c #B48138",
"F-	c #B17432",
"G-	c #B27233",
"H-	c #B35F34",
"I-	c #AC5635",
"J-	c #AF3D35",
"K-	c #AD2435",
"L-	c #AD2335",
"M-	c #AB2234",
"N-	c #A82237",
"O-	c #A52233",
". + @ # $ % & * = - ; > , ' ) ! ~ { ] ^ / ( _ : < [ } | 1 2 3 4 ",
"5 6 7 8 9 0 a b c d e f g h i j k l m n o p q r s t u v w x y z ",
"A B C D E F G H I J K L M N O P Q R S T U V W X Y Z `  ...+.@.#.",
"$.%.&.*.=.-.;.>.,.'.).!.~.{.].^./.(._.:.<.[.}.|.1.2.3.4.5.6.7.8.",
"9.0.a.b.c.d.e.f.g.h.i.j.k.l.m.n.o.p.q.r.s.t.u.v.w.x.y.z.A.B.C.D.",
"E.F.G.H.I.J.K.L.M.N.O.P.Q.R.S.T.U.V.W.X.Y.Z.`. +.+++@+#+$+%+&+*+",
"=+-+;+>+,+'+)+!+~+{+]+^+/+(+_+:+<+[+}+|+1+2+3+4+5+6+7+8+9+0+a+b+",
"c+d+e+f+g+h+i+j+k+l+m+n+o+p+q+r+s+t+u+v+w+x+y+z+A+B+C+D+E+F+G+H+",
"I+J+K+L+M+N+O+P+Q+R+S+T+U+V+W+X+Y+Z+`+ @.@+@@@#@$@%@&@*@=@-@;@>@",
",@'@)@!@~@{@]@^@/@(@_@:@<@[@}@|@1@2@3@4@5@6@7@8@9@0@a@b@c@d@e@f@",
"g@h@i@j@k@l@m@n@o@p@q@r@s@t@u@v@w@x@y@z@A@B@C@D@E@F@G@H@I@J@K@L@",
"M@N@O@P@Q@R@S@T@U@V@W@X@Y@Z@`@ #.#+#@###$#%#&#*#=#-#;#>#,#'#)#!#",
"~#{#O@]#^#/#(#_#:#<#[#}#|#1#2#3#4#5#6#7#8#%#9#0#a#b#c#d#e#J@f#g#",
"h#i#j#k#l#m#n#o#p#q#r#s#t#u#v#w#x#y#z#A#B#C#D#E#F#G#H#I#J#K#L#M#",
"N#O#P#Q#R#S#T#U#V#W#X#Y#Z#`# $.$+$@$#$$$%$&$*$=$-$;$>$,$'$K#L#)$",
"!$~${$]$^$/$($_$:$<$[$}$|$1$2$3$4$5$6$7$8$9$0$a$b$c$d$e$f$g$h$i$",
"j$k$l$m$n$o$p$q$r$s$t$u$v$w$x$y$z$A$B$C$D$E$F$G$H$I$J$K$L$M$N$O$",
"P$Q$R$S$T$U$V$W$X$Y$Z$`$ %.%+%@%#%$%%%&%*%=%-%;%>%,%'%)%!%~%{%]%",
"^%/%(%_%:%<%[%{ }%|%1%2%3%4%5%6%7%8%9%0%a%b%c%d%e%f%g%h%i%j%k%l%",
"m%n%o%p%q%r%s%t%u%v%w%x%y%z%A%B%C%D%E%F%G%H%I%J%K%L%M%N%O%P%Q%R%",
"S%T%U%V%W%X%Y%Z%`% &.&+&@&#&$&%&&&*&=&-&;&>&,&'&)&!&~&{&]&^&/&(&",
"_&:&<&[&}&|&1&2&3&4&5&6&7&8&9&0&a&b&c&d&e&f&g&h&i&j&k&l&m&n&o&p&",
"q&r&s&t&u&v&w&x&y&z&A&B&C&D&E&F&G&H&I&J&K&L&M&N&O&P&Q&R&S&T&U&V&",
"W&X&Y&:&Z&`& *.*+*@*#*$*%*&***=*-*;*>*,*'*)*!*~*{*]*^*/*(*_*o&:*",
":&<*[*<&}*|*1*2*3*4*5*6*7*8*9*0*a*b*c*d*e*f*g*h*i*j*k*l*m*n*o*p*",
"q*X&r*r*t&s*t*u*v*w*x*y*z*A*B*C*D*E*F*G*H*I*J*K*L*M*N*O*P*Q*R*S*",
"T*_&_&:&U*V*W*X*Y*Z*`* =.=+=@=#=$=%=&=*===-=;=>=,='=)=!=~={=]=^=",
"/=t&(=<&_=:=<=[=}=|=1=2=3=4=5=6=7=8=9=0=a=b=c=d=e=f=g=h=i=j=k=l=",
"m=_&<*n=T%o=p=q=r=s=t=u=v=w=x=y=z=A=B=C=D=E=F=G=H=I=J=K=L=M=N=L@",
"O=P=Q=_=R=S=T=U=V=W=X=Y=Z=`= -.-+-@-#-$-%-&-*-=---;->-,-'-)-!-~-",
"{-]-^-/-(-_-:-<-[-}-|-1-2-3-4-5-6-7-8-9-0-a-b-c-d-e-f-g-h-i-j-k-",
"l-m-Q$Q$n-o-p-q-r-s-t-u-v-w-x-y-z-A-B-C-D-E-F-G-H-I-J-K-L-M-N-O-"};
