/* XPM */
static char *maitreya_xpm[] = {
/* columns rows colors chars-per-pixel */
"32 32 253 2 ",
"   c #302F2C",
".  c #32332F",
"X  c #343431",
"o  c #3C3A35",
"O  c #393939",
"+  c #413C36",
"@  c #433E3A",
"#  c #3E433A",
"$  c #47473B",
"%  c #44423D",
"&  c #4B443E",
"*  c #524A3F",
"=  c #4B4441",
"-  c #4C4B47",
";  c #534642",
":  c #544B44",
">  c #5A4B48",
",  c #4D5443",
"<  c #585748",
"1  c #514F51",
"2  c #565756",
"3  c #604F4A",
"4  c #66564B",
"5  c #7C5C4C",
"6  c #6A5A54",
"7  c #725B52",
"8  c #775D58",
"9  c #5A6B53",
"0  c #65634D",
"q  c #76634D",
"w  c #67665A",
"e  c #746755",
"r  c #7B6C5D",
"t  c #6D735D",
"y  c #697959",
"u  c #747859",
"i  c #666A66",
"p  c #746B65",
"a  c #777668",
"s  c #6B6B71",
"d  c #776D77",
"f  c #6B7972",
"g  c #797A74",
"h  c #855E4D",
"j  c #8A6858",
"k  c #956B5B",
"l  c #89785C",
"z  c #93755A",
"x  c #A26C5C",
"c  c #B7735C",
"v  c #8C6564",
"b  c #9C6E66",
"n  c #887867",
"m  c #957261",
"M  c #9C7665",
"N  c #817A71",
"B  c #9A7879",
"V  c #A56B6E",
"C  c #A47966",
"Z  c #BB7561",
"A  c #B07976",
"S  c #C77C66",
"D  c #D57D68",
"F  c #C97B76",
"G  c #73825F",
"H  c #7A856B",
"J  c #74897B",
"K  c #708F7A",
"L  c #8B866B",
"P  c #98866C",
"I  c #92986C",
"U  c #838272",
"Y  c #898078",
"T  c #9A8774",
"R  c #999477",
"E  c #A3836A",
"W  c #AE8668",
"Q  c #AC8B6E",
"!  c #B88969",
"~  c #AE966D",
"^  c #A58777",
"/  c #B48D78",
"(  c #B59678",
")  c #B5A97C",
"_  c #C0855E",
"`  c #C98966",
"'  c #DA8867",
"]  c #C8956D",
"[  c #D3956B",
"{  c #C78F72",
"}  c #DB8C73",
"|  c #C89977",
" . c #D99974",
".. c #E78A67",
"X. c #E38C6D",
"o. c #E29269",
"O. c #EB946E",
"+. c #EB9A6D",
"@. c #E99071",
"#. c #E59C74",
"$. c #ED9B73",
"%. c #E99A75",
"&. c #F09E72",
"*. c #C4A67C",
"=. c #D7A77D",
"-. c #C8B27C",
";. c #ECA16D",
":. c #F3A56B",
">. c #F2A86F",
",. c #E5A274",
"<. c #EBA273",
"1. c #EAA57D",
"2. c #E9A87A",
"3. c #F0A475",
"4. c #F2AB75",
"5. c #FAAB73",
"6. c #F5A978",
"7. c #F4B576",
"8. c #FBB474",
"9. c #F5B27B",
"0. c #FAB378",
"q. c #F3BC7D",
"w. c #FABD7D",
"e. c #FDC77F",
"r. c #9F778C",
"t. c #A66F87",
"y. c #B37C84",
"u. c #C67F83",
"i. c #C97F91",
"p. c #E27F96",
"a. c #5E8B91",
"s. c #668589",
"d. c #7A8C83",
"f. c #6A928D",
"g. c #749387",
"h. c #6D9695",
"j. c #799899",
"k. c #7FA591",
"l. c #709CAA",
"z. c #7DA4A7",
"x. c #7DB3A6",
"c. c #7AAEB4",
"v. c #7AB8C9",
"b. c #73B8D6",
"n. c #7CC4DC",
"m. c #7DC7E5",
"M. c #7DCBEB",
"N. c #7DCFF3",
"B. c #7FD1F6",
"V. c #7DD4FB",
"C. c #918387",
"Z. c #87938E",
"A. c #999783",
"S. c #8B9998",
"D. c #959B98",
"F. c #A68B85",
"G. c #B38E88",
"H. c #BB9A8C",
"J. c #97A789",
"K. c #89A992",
"L. c #98A198",
"P. c #ABA98B",
"I. c #BFA485",
"U. c #AEB88F",
"Y. c #A5A798",
"T. c #BCA694",
"R. c #89ADA4",
"E. c #96A5A6",
"W. c #8BB2AC",
"Q. c #87AAB6",
"!. c #8DB4B7",
"~. c #AFB3B0",
"^. c #CA8E90",
"/. c #DA9499",
"(. c #F28A89",
"). c #E58496",
"_. c #EA8B95",
"`. c #E88899",
"'. c #F69698",
"]. c #C8A987",
"[. c #D7AC83",
"{. c #DAB78A",
"}. c #C5A990",
"|. c #C8B79A",
" X c #D4BA96",
".X c #E7AE85",
"XX c #E8B888",
"oX c #EBB793",
"OX c #E7BA93",
"+X c #D397A3",
"@X c #DA93AA",
"#X c #E485A1",
"$X c #E88BA5",
"%X c #E893AB",
"&X c #F494A4",
"*X c #EC96B2",
"=X c #F19AB9",
"-X c #DDA2A8",
";X c #CDB3A9",
":X c #E9A8AF",
">X c #F3A3B8",
",X c #EDB3B8",
"<X c #BDC391",
"1X c #AECDB1",
"2X c #DCC19C",
"3X c #F8C785",
"4X c #E9C696",
"5X c #F3CA98",
"6X c #FCD392",
"7X c #C2C7AD",
"8X c #D8C4A9",
"9X c #D5C7B5",
"0X c #E9CAA6",
"qX c #F3CDA5",
"wX c #F4CCAA",
"eX c #F3D3AE",
"rX c #FAD8AC",
"tX c #E4D2B7",
"yX c #F8D9B5",
"uX c #F7E4B2",
"iX c #F3E2B5",
"pX c #9BB9CA",
"aX c #DDB2C8",
"sX c #EBA8C0",
"dX c #F3ADC3",
"fX c #E6B3C3",
"gX c #F4B7C9",
"hX c #87C6CE",
"jX c #9FC8C9",
"kX c #B7C6C7",
"lX c #A6D0D5",
"zX c #81CEED",
"xX c #88D2F2",
"cX c #81D5FB",
"vX c #9CDEFC",
"bX c #BAD2E0",
"nX c #9EE0FC",
"mX c #A1E1FD",
"MX c #C9D2D5",
"NX c #D4D3D1",
"BX c #E7DBC8",
"VX c #F2D9C3",
"CX c #F0DFD0",
"ZX c #FBE6C2",
"AX c #FDF2CD",
"SX c #F9EFDD",
"DX c #FEF6D6",
"FX c #D0DFE4",
"GX c #D3E5EE",
"HX c #EAEAEA",
"JX c #FEFAE9",
"KX c #FCF8F5",
"LX c #FFFEFD",
/* pixels */
"jXK I I E w @ 4 @ ~ j v b x M M m z 7 < % % % 2 L > b.S.s.R.J.7X",
"<XI ) g.u $ @ > ; 7 j k M / [.{.{.=.Q m 4 ; % 2 7 6 m.z.l.zXn.1X",
"<XJ.k.K.Z.e @ > ; 8 j Q 0XAXBXn r iXuX4XQ 8 = & 7 a zX!.k.cXhX<X",
"U.1Xm.hXZ.L.@ & 3 j ( iXJXLXN $ O g KXDX4XE 4 = 3 f zXW.K V.cX1X",
"W.g.n.hXJ v.1 % 3 C 0XJXKXa @ ; ; + p KXAX{.j = = f m.R.k.n.V.lX",
"Q.x.c.v.g.v.g.o > / DXLXkXO n I.*.e o NXKXuXE : = z.M.z.g.M.V.mX",
"nXcXcXhXg.b.D.X > [.JXLX9X- I.2X{.Q & HXLXAXQ ; ; c.M.W.k.M.cXmX",
"nXcXB.zXh.b.h.X ; *.SXLXJX8X( [.| W { KXLXZXE & ; Q.xXx.x.M.cXmX",
"nXV.V.zXf.n.a.. # M ZXLXLXeXeX4X[.XXOXLXJXiXm + P ;X;Xg J Q.V.vX",
"vXB.V.B.f.b.l.. . 6  XDXLXVX4X.X%. .VXKXAX[.4 o }. X XR T 4 l.kX",
"vXV.V.N.s.M.!.X X & m 4XAXSX0X.X . .:XrX[.j % + ]. X{.~ C C H./ ",
"BX9XQ.m.Y.tX|..   o n XX5XqXeXqX.X....@...C * o *.-.-.E C | 6 6 ",
"CX9XT.BX8X8X<XX X ].yXrXrXyXyXoXO.+.+.6.@.&.#.& Q ( T R U w # - ",
"9XBXBXiX2X8XT.  e yXyXyXuXyXoX6.3X0.5..X$.3.0.k 0 l u e 0 < < r ",
"r.BXBX|.8XR P o R qX.XOXwX5X6X6X3X0.6.0.$.O.0.W 6 }.}.H.E G.C.G.",
"i f 9X7XU.A.P.o ;XrXOXZ 5.3X3X3X8.6.XX6.6...0.` - S.Z.E.S.^ M p ",
"~.D.~.MXFXGX~.$ eXZX.Xc D O.&.3.8.<..X&.%.X.9.%.= ~.MXkXS.E.E.L.",
"E.j.Q.pXMXHXg r VXZXQ M S X.O.O.9.X.,.X.} .X#..Xw C.FXg.K L.~.J.",
"kXpXlXbXGXGX2 T yXoX4 l c D X.O.%.X..X} S #.2.w.I.6 T H 9 G 9 H ",
"A.C.d.f ~.MX@ P wXwX].4 x D X.O.&.%.D S x { ,.%..X- y t G H t H ",
"Y.w < l , e X & I.wXeX Xn S O.X.$.} z k ` q.7.6.] - - , y 9 a +X",
"KXD.9 G # % $ q z  .[.qX4X|  .OX[.[.*. .7.7.4.%.! r o $ : < p +X",
"~.$ , 9 # j $.:.:.3. .` ] =.| 4X5X{.OX| <.#.o._ ! ] P o > ^.j 9 ",
"R 9 y , 3 ..8.7.4.1.' ` k ] =.=.2.4XXX=.! W ! XX3Xw.0.z u 8 0 n ",
"H G R n M ..5.8.8.e.e.8.7.7.7.] [ 4X5X5X5XXX.X4.8.5.O._.4 u k m ",
"P.u , V /.S +.;.:.:.:.:.:.>.' c x _ ` [ [ #.3.0.5...F &XV 0 p t ",
"g < A (.'./._ o.o.o.....' _ x _ ] _ ;.<.:.<.O.X.S u.*X_._.u.4 s ",
"a + j '.(.'.'.-XM Q 5 j j h ' ;.<.` x Z c F +X^.>X&X`._.&Xv t N ",
"U = < V '._.(.&X&X=X:X@XfXr.G.fX,X/ +XfX+XsX*X$X$X).`.:XB a R n ",
"s a t 8 G.i.$X#X).p.p.$X%X%X=X%X>X*X=X%X#X#X).).`.*XA G.F.I I a ",
"s 2 g s r.d t.t.@X*X$X#X#X#Xp.).#Xp.#X#X).@X>X+XB H.n A.A.N < 1 ",
"i O O O , Y g > -X$Xv gXdXy.@XdX>X^.+XsXaXw n Y U U a U N 2 - - "
};
