/* XPM */
static char *about_xpm[] = {
/* columns rows colors chars-per-pixel */
"24 24 158 2 ",
"   c #395E99",
".  c #2A5AA0",
"X  c #255DAE",
"o  c #265FB0",
"O  c #1E68AF",
"+  c #1D66B4",
"@  c #1D6AB5",
"#  c #2C60AE",
"$  c #3F68A5",
"%  c #3971AE",
"&  c #2663B3",
"*  c #2865B5",
"=  c #2C68B7",
"-  c #2867B8",
";  c #2A6CBC",
":  c #3C6CB4",
">  c #306FBC",
",  c #2A70BF",
"<  c #3576B4",
"1  c #3071BE",
"2  c #3B72BA",
"3  c #52688F",
"4  c #4B6897",
"5  c #43659B",
"6  c #47689E",
"7  c #4B6998",
"8  c #536F9B",
"9  c #55709C",
"0  c #4367A0",
"q  c #426AA2",
"w  c #486CA6",
"e  c #4E71A4",
"r  c #4475AC",
"t  c #4F73AA",
"y  c #5A7BAA",
"u  c #4D76B7",
"i  c #457DB7",
"p  c #4477BD",
"a  c #4478BD",
"s  c #4E7EBC",
"d  c #507BB7",
"f  c #5A7CB1",
"g  c #557EBC",
"h  c #657DA4",
"j  c #2C72C2",
"k  c #3176C5",
"l  c #3379C4",
"z  c #397AC6",
"x  c #3C7DC8",
"c  c #437AC1",
"v  c #417FC9",
"b  c #4683BE",
"n  c #5682B2",
"m  c #5784B9",
"M  c #6380AF",
"N  c #6A83AC",
"B  c #7187AB",
"V  c #748BAF",
"C  c #6F8CB6",
"Z  c #638CBA",
"A  c #698CBB",
"S  c #758CB1",
"D  c #6D92BC",
"F  c #7691B7",
"G  c #7091BB",
"H  c #7498BE",
"J  c #7E98BD",
"K  c #3D80CB",
"L  c #4680C7",
"P  c #4D81C1",
"I  c #4E89C7",
"U  c #4582CA",
"Y  c #4C86CC",
"T  c #4E88CE",
"R  c #5584C3",
"E  c #5985C3",
"W  c #5A8AC6",
"Q  c #5189CF",
"!  c #5A8DCA",
"~  c #558DD1",
"^  c #598FD1",
"/  c #5E91D3",
"(  c #658DC6",
")  c #6C8EC1",
"_  c #668FC8",
"`  c #6692CB",
"'  c #6D95CB",
"]  c #7292C3",
"[  c #7F9EC2",
"{  c #7596CA",
"}  c #769ACD",
"|  c #7C9CCD",
" . c #6294D4",
".. c #6B9AD6",
"X. c #6E9CD9",
"o. c #739DD7",
"O. c #749ED9",
"+. c #7BA1D2",
"@. c #77A0DA",
"#. c #7CA7DE",
"$. c #7AA8E1",
"%. c #8196BA",
"&. c #90A2BE",
"*. c #839EC7",
"=. c #8A9FC1",
"-. c #819ED3",
";. c #86A2C2",
":. c #8FA2C2",
">. c #85A2CF",
",. c #8AA3CC",
"<. c #92A6C6",
"1. c #9BABC5",
"2. c #95A8C8",
"3. c #9DACC8",
"4. c #8DAAD3",
"5. c #86A7D9",
"6. c #8BA7DA",
"7. c #8BABDC",
"8. c #92ADD3",
"9. c #8FB0D6",
"0. c #93B2D7",
"q. c #9EB4D7",
"w. c #9DB5D8",
"e. c #9EB9DB",
"r. c #A3B2CD",
"t. c #ACB8CF",
"y. c #A1B6D9",
"u. c #A3BCDD",
"i. c #AEBFD9",
"p. c #8AADE2",
"a. c #90B2E3",
"s. c #A7C0DD",
"d. c #ACC0DD",
"f. c #B2C3DF",
"g. c #B8C6DD",
"h. c #ABC3E3",
"j. c #B4C5E1",
"k. c #BECEE5",
"l. c #C5D2E6",
"z. c #CAD6E7",
"x. c #C9D5E9",
"c. c #CCD9EB",
"v. c #D3DDED",
"b. c #CCDBF0",
"n. c #D7E0EE",
"m. c #D9E1EE",
"M. c #DCE5F1",
"N. c #DDE9F5",
"B. c #E1E7F2",
"V. c #E4EBF5",
"C. c #E9EFF6",
"Z. c #E4EDF8",
"A. c #E8EDF8",
"S. c #EBF0F7",
"D. c #EEF2F9",
"F. c #F3F6FA",
"G. c #FDFEFE",
"H. c None",
/* pixels */
"H.H.H.H.H.H.H.H.:.C 8 7 7 9 S :.H.H.H.H.H.H.H.H.",
"H.H.H.H.H.H.N h *.g.z.m.v.z.i.] y h H.H.H.H.H.H.",
"H.H.H.H.h 5 8.v.A.D.D.D.D.D.D.A.x.|   H.H.H.H.H.",
"H.H.H.N f j.B.m.m.m.V.S.B.m.m.m.m.M.y.w S H.H.H.",
"H.H.H.f i.x.l.l.l.M.G.G.F.v.l.l.l.l.x.4.q H.H.H.",
"H.H.0 q.j.j.f.j.f.V.G.G.G.n.f.f.j.f.j.j.| 5 H.H.",
"H.y ] y.w.w.y.w.w.k.F.G.A.i.q.q.y.q.w.y.y.u 6 H.",
"H.t | 4.4.4.4.4.4.4.i.k.q.,.4.4.4.4.4.>.{ g $ H.",
"H.d { | | | | +.} } +.| +.+.| -.| { E : o X . H.",
"F g _ ( _ _ _ ' h.v.m.V.C.u._ W 2 & X X X X X J ",
"e a R R R R E W +.c.G.G.G.y.2 = * & & & o o & G ",
"5 2 p p c c c c z ` Z.G.G.9.- - - - * - * o + A ",
"q & > > > > j > 1 I N.G.G.4.- , ; ; - - - * + D ",
"n + ; - ; ; , , j U N.G.G.9., , , , ; ; - - @ [ ",
"H @ ; , , , j k j Y N.G.G.9.1 , j j , ; ; ; O ;.",
"H.< , , j k l z z ^ N.G.G.e.2 K z k j j j j % H.",
"H.r l k l z K L K  .Z.G.G.w.L U U x z k k l Z H.",
"H.C b K x U Y T T ..Z.G.G.s.Y T Y Y v z x i H.H.",
"H.H.y I T T ~ ^ 5.b.F.F.F.A.h./ ~ ~ P m n 3 H.H.",
"H.H.H.A !  ./  .p.u.u.y.e.u.w.`  ./ ! W m H.H.H.",
"H.H.H.H.A ` $.X.X.O.O.@.@.o.o.X.X.$.( g H.H.H.H.",
"H.H.H.H.H.%.) 7.a.7.p.p.p.p.p.a.5.) B H.H.H.H.H.",
"H.H.H.H.H.H.&.2.,.| -.6.6.-.| ,.<.1.H.H.H.H.H.H.",
"H.H.H.H.H.H.H.H.H.3.r.r.r.r.t.H.H.H.H.H.H.H.H.H."
};
