/* XPM */
static char *arrow_up_xpm[] = {
/* columns rows colors chars-per-pixel */
"24 24 139 2 ",
"   c #074B07",
".  c #055205",
"X  c #045C04",
"o  c #0C590C",
"O  c #135B13",
"+  c #006000",
"@  c #076107",
"#  c #046306",
"$  c #036705",
"%  c #006E00",
"&  c #006E01",
"*  c #096F09",
"=  c #007100",
"-  c #007602",
";  c #047007",
":  c #007B00",
">  c #007F00",
",  c #037905",
"<  c #047D07",
"1  c #057C08",
"2  c #087B08",
"3  c #106010",
"4  c #136614",
"5  c #1D631D",
"6  c #186819",
"7  c #1E711F",
"8  c #1E771E",
"9  c #1A7C1A",
"0  c #236B23",
"q  c #266C26",
"w  c #276E28",
"e  c #2D6D2D",
"r  c #227222",
"t  c #277027",
"y  c #2B732B",
"u  c #2D732D",
"i  c #2E7E2E",
"p  c #317731",
"a  c #337B33",
"s  c #367D37",
"d  c #038303",
"f  c #068506",
"g  c #008900",
"h  c #008E00",
"j  c #028A05",
"k  c #048F04",
"l  c #058C06",
"z  c #08850A",
"x  c #068A0B",
"c  c #058E09",
"v  c #0A8B0C",
"b  c #098D0D",
"n  c #009100",
"m  c #009500",
"M  c #059105",
"N  c #049306",
"B  c #039903",
"V  c #009C00",
"C  c #009F00",
"Z  c #059A07",
"A  c #069B07",
"S  c #0B970E",
"D  c #0B9A0D",
"F  c #0A9C0D",
"G  c #128613",
"H  c #168117",
"J  c #108C12",
"K  c #149817",
"L  c #189718",
"P  c #00A000",
"I  c #00A100",
"U  c #03A103",
"Y  c #06A606",
"T  c #00A900",
"R  c #00AB00",
"E  c #03AB02",
"W  c #00AE00",
"Q  c #06A009",
"!  c #08A00B",
"~  c #08A30A",
"^  c #0AA40A",
"/  c #02B202",
"(  c #00B500",
")  c #00B700",
"_  c #05B405",
"`  c #00BD00",
"'  c #02BE02",
"]  c #2C852C",
"[  c #2A8D2A",
"{  c #299529",
"}  c #289C28",
"|  c #388138",
" . c #3A823A",
".. c #3E8F3E",
"X. c #379937",
"o. c #349D34",
"O. c #3B943B",
"+. c #26A126",
"@. c #24A524",
"#. c #2DA22D",
"$. c #2BAB2B",
"%. c #31A131",
"&. c #33A733",
"*. c #3EA43E",
"=. c #04C304",
"-. c #03CA03",
";. c #04CD04",
":. c #408A40",
">. c #4E844E",
",. c #4C904E",
"<. c #4D974D",
"1. c #489F48",
"2. c #4B9C4B",
"3. c #588E58",
"4. c #579257",
"5. c #5D9A5D",
"6. c #41A341",
"7. c #43A743",
"8. c #45A145",
"9. c #4FA84F",
"0. c #56A756",
"q. c #52A852",
"w. c #53AA53",
"e. c #58A158",
"r. c #59A759",
"t. c #62A262",
"y. c #60A560",
"u. c #64A664",
"i. c #60AE60",
"p. c #61AF61",
"a. c #63AF63",
"s. c #66AF66",
"d. c #70B770",
"f. c #71B671",
"g. c #75B975",
"h. c #81C181",
"j. c #82C182",
"k. c #8DC68D",
"l. c None",
/* pixels */
"l.l.l.l.l.l.l.l.l.l.l.l.l.l.l.l.l.l.l.l.l.l.l.l.",
"l.l.l.l.l.l.l.l.l.l.l.l.l.l.l.l.l.l.l.l.l.l.l.l.",
"l.l.l.l.l.l.l.l.l.l.l.l.l.l.l.l.l.l.l.l.l.l.l.l.",
"l.l.l.l.l.l.l.l.l.l.l.l.l.l.l.l.l.l.l.l.l.l.l.l.",
"l.l.l.l.l.l.l.l.l.l.l.l.l.l.l.l.l.l.l.l.l.l.l.l.",
"l.l.l.l.l.l.l.l.l.l.l.7 ,.l.l.l.l.l.l.l.l.l.l.l.",
"l.l.l.l.l.l.l.l.l.l.l.0 w $ l.l.l.l.l.l.l.l.l.l.",
"l.l.l.l.l.l.l.l.l.l.6 e   # l.l.l.l.l.l.l.l.l.l.",
"l.l.l.l.l.l.l.l.l.4 s p . X ; l.l.l.l.l.l.l.l.l.",
"l.l.l.l.l.l.l.l.3  .:.i # X % - l.l.l.l.l.l.l.l.",
"l.l.l.l.l.l.l.o  .<...] * % = , 1 l.l.l.l.l.l.l.",
"l.l.l.l.l.l.l.a e.2.O.[ 2 : d d z < l.l.l.l.l.l.",
"l.l.l.l.l.l.u y.r.1.X.{ f g k k N v l.l.l.l.l.l.",
"l.l.l.l.l.q u.s.0.8.o.} k m V C C A j l.l.l.l.l.",
"l.l.l.l.5 t.g.a.w.6.%.+.V I T W / T A b l.l.l.l.",
"l.l.l.O 5.h.d.i.9.*.#.@.A T ( ` ` ) T D b l.l.l.",
"l.l.l.4.k.h.d.p.w.7.&.$.Y / ` -.;.=._ ^ K l.l.l.",
"l.l.>.3.y t r 8 9 H G J l N Z Q ! ! F S L c l.l.",
"l.l.l.l.l.l.l.l.l.l.l.l.l.l.l.l.l.l.l.l.l.l.l.l.",
"l.l.l.l.l.l.l.l.l.l.l.l.l.l.l.l.l.l.l.l.l.l.l.l.",
"l.l.l.l.l.l.l.l.l.l.l.l.l.l.l.l.l.l.l.l.l.l.l.l.",
"l.l.l.l.l.l.l.l.l.l.l.l.l.l.l.l.l.l.l.l.l.l.l.l.",
"l.l.l.l.l.l.l.l.l.l.l.l.l.l.l.l.l.l.l.l.l.l.l.l.",
"l.l.l.l.l.l.l.l.l.l.l.l.l.l.l.l.l.l.l.l.l.l.l.l."
};
