/* XPM */
static char *arrow_right_xpm[] = {
/* columns rows colors chars-per-pixel */
"32 32 233 2 ",
"   c #034703",
".  c #004D00",
"X  c #004E00",
"o  c #004F00",
"O  c #014F01",
"+  c #005500",
"@  c #005701",
"#  c #055105",
"$  c #005B01",
"%  c #025B02",
"&  c #005C00",
"*  c #075B07",
"=  c #045C05",
"-  c #0A540A",
";  c #105910",
":  c #006300",
">  c #006700",
",  c #016703",
"<  c #056705",
"1  c #006801",
"2  c #006A00",
"3  c #006902",
"4  c #0B630C",
"5  c #0B6D0D",
"6  c #0C6D0D",
"7  c #007100",
"8  c #017002",
"9  c #007500",
"0  c #007700",
"q  c #027403",
"w  c #007702",
"e  c #047707",
"r  c #007B00",
"t  c #007803",
"y  c #007A02",
"u  c #027B03",
"i  c #007D01",
"p  c #007F00",
"a  c #007904",
"s  c #037E05",
"d  c #087208",
"f  c #08750B",
"g  c #097C09",
"h  c #156A15",
"j  c #1B611B",
"k  c #176D18",
"l  c #1C691C",
"z  c #29742A",
"x  c #2A772A",
"c  c #2E712E",
"v  c #357635",
"b  c #337B33",
"n  c #3B7E3C",
"m  c #487F48",
"M  c #008200",
"N  c #008500",
"B  c #008304",
"V  c #048206",
"C  c #078307",
"Z  c #008505",
"A  c #018505",
"S  c #008604",
"D  c #058605",
"F  c #058507",
"G  c #008A00",
"H  c #038903",
"J  c #008D00",
"K  c #008E00",
"L  c #008F00",
"P  c #018E06",
"I  c #07850B",
"U  c #068809",
"Y  c #068B09",
"T  c #078C0A",
"R  c #088F0C",
"E  c #088E0D",
"W  c #098F0D",
"Q  c #009000",
"!  c #009400",
"~  c #009700",
"^  c #009800",
"/  c #009A00",
"(  c #009D00",
")  c #009F00",
"_  c #0B930B",
"`  c #0A900E",
"'  c #0C8810",
"]  c #0D8F13",
"[  c #118814",
"{  c #0B9110",
"}  c #0C9111",
"|  c #0D9112",
" . c #109215",
".. c #129C13",
"X. c #17981B",
"o. c #1C9F1F",
"O. c #289F1A",
"+. c #00A100",
"@. c #00A200",
"#. c #00A300",
"$. c #00A400",
"%. c #00A500",
"&. c #00A600",
"*. c #04A604",
"=. c #00A900",
"-. c #00AB00",
";. c #01AA01",
":. c #00AC00",
">. c #00AE00",
",. c #00AF00",
"<. c #07AD07",
"1. c #0DA10D",
"2. c #0FA90F",
"3. c #0CAF0C",
"4. c #00B000",
"5. c #00B100",
"6. c #00B200",
"7. c #00B400",
"8. c #00B500",
"9. c #00B700",
"0. c #05B105",
"q. c #00B800",
"w. c #00BA00",
"e. c #00BB00",
"r. c #00BD00",
"t. c #06BB06",
"y. c #0BBC0B",
"u. c #18A219",
"i. c #1AA11C",
"p. c #2F852F",
"a. c #2A8F2A",
"s. c #2D8B2D",
"d. c #2A952A",
"f. c #2C9C2C",
"g. c #2F9F2F",
"h. c #328032",
"j. c #358135",
"k. c #3D823D",
"l. c #3D853D",
"z. c #3D873D",
"x. c #388F38",
"c. c #3A8C3A",
"v. c #369436",
"b. c #319C31",
"n. c #349834",
"m. c #3D9F3D",
"M. c #25A525",
"N. c #27AC27",
"B. c #28A528",
"V. c #2AA42A",
"C. c #2AA52A",
"Z. c #2CA22C",
"A. c #2DA22D",
"S. c #29A829",
"D. c #28AA28",
"F. c #32A432",
"G. c #34A434",
"H. c #37A437",
"J. c #36AB36",
"K. c #3BA935",
"L. c #39A339",
"P. c #3BA13B",
"I. c #3FA63F",
"U. c #38B338",
"Y. c #00C200",
"T. c #00C400",
"R. c #00C500",
"E. c #06C606",
"W. c #00C800",
"Q. c #00CC00",
"!. c #0AC90A",
"~. c #00D000",
"^. c #00D300",
"/. c #07D007",
"(. c #09D509",
"). c #08DA08",
"_. c #448444",
"`. c #479247",
"'. c #459645",
"]. c #429942",
"[. c #409C40",
"{. c #4F9F4F",
"}. c #559655",
"|. c #519C51",
" X c #41A641",
".X c #43A643",
"XX c #46A546",
"oX c #42AC42",
"OX c #4AA34A",
"+X c #48A448",
"@X c #4BA74B",
"#X c #4CA14C",
"$X c #4DA94D",
"%X c #4CAB4C",
"&X c #4FA94F",
"*X c #52A952",
"=X c #54A854",
"-X c #57A857",
";X c #57AC57",
":X c #59A659",
">X c #5AA45A",
",X c #5DA15D",
"<X c #5FA55F",
"1X c #58AC58",
"2X c #5AAD5A",
"3X c #5CAD5C",
"4X c #5EAE5E",
"5X c #61AD61",
"6X c #60AF60",
"7X c #63AD63",
"8X c #6AA46C",
"9X c #64B064",
"0X c #66B266",
"qX c #69B369",
"wX c #6AB36A",
"eX c #6BB46B",
"rX c #6DB56D",
"tX c #70B770",
"yX c #73B973",
"uX c #75BA75",
"iX c #77B977",
"pX c #78BB78",
"aX c #7DBF7D",
"sX c #7FC17F",
"dX c #83B883",
"fX c #82C082",
"gX c #83C283",
"hX c #85C085",
"jX c #89C889",
"kX c #8DC88D",
"lX c #9BD49B",
"zX c #A1CAA1",
"xX c None",
/* pixels */
"xXxXxXxXxXxXxXxXxXxXxXxXxXxXxXxXxXxXxXxXxXxXxXxXxXxXxXxXxXxXxXxX",
"xXxXxXxXxXxXxXxXxXxXxXxXxXxXxXxXxXxXxXxXxXxXxXxXxXxXxXxXxXxXxXxX",
"xXxXxXxXxXxXxXxXxXxXxXxXxXxXxXxXxXxXxXxXxXxXxXxXxXxXxXxXxXxXxXxX",
"xXxXxXxXxXxXxXxXxXX m xXxXxXxXxXxXxXxXxXxXxXxXxXxXxXxXxXxXxXxXxX",
"xXxXxXxXxXxXxXxXxXX zX- xXxXxXxXxXxXxXxXxXxXxXxXxXxXxXxXxXxXxXxX",
"xXxXxXxXxXxXxXxXxXX lXdXj X xXxXxXxXxXxXxXxXxXxXxXxXxXxXxXxXxXxX",
"xXxXxXxXxXxXxXxXxXX kXjXhXc X xXxXxXxXxXxXxXxXxXxXxXxXxXxXxXxXxX",
"xXxXxXxXxXxXxXxXxXX gXaXsXgX_.X xXxXxXxXxXxXxXxXxXxXxXxXxXxXxXxX",
"xXxXxXxXxXxXxXxXxX+ iXtXiXyXpX}.# xXxXxXxXxXxXxXxXxXxXxXxXxXxXxX",
"xXxXxXxXxXxXxXxXxX& wX9X9XwXeXrX,X; X xXxXxXxXxXxXxXxXxXxXxXxXxX",
"xXxXxXxXxXxXxXxXxX: 6X1X1X4X4X6X7X<Xl o xXxXxXxXxXxXxXxXxXxXxXxX",
"xXxXxXxXxXxXxXxXxX2 ;X@X@X*X*X=X-X>X>Xx + xXxXxXxXxXxXxXxXxXxXxX",
"xXxXxXxXxXxXxXxXxX8 %XI. X XXXXX@X{.{.|.j.= xXxXxXxXxXxXxXxXxXxX",
"xXxXxXxXxXxXxXxXxXq oXF.G.H.P.P.m.m.].'.`.z.4 + xXxXxXxXxXxXxXxX",
"xXxXxXxXxXxXxXxXxXu J.M.C.V.A.g.b.n.v.x.c.z.k.h $ xXxXxXxXxXxXxX",
"xXxXxXxXxXxXxXxXxXs U.N.D.D.C.A.f.d.a.s.p.h.b v z k xXxXxXxXxXxX",
"xXxXxXxXxXxXxXxXxXV *.#.#./ ~ ! H V g d < $ X   n 8XxXxXxXxXxXxX",
"xXxXxXxXxXxXxXxXxXI 0.>.=.%.) ~ J H u 7 > $ * 6 , xXxXxXxXxXxXxX",
"xXxXxXxXxXxXxXxXxXU t.w.9.>.%.) ! G i 8 2 6 f 2 xXxXxXxXxXxXxXxX",
"xXxXxXxXxXxXxXxXxXU E.T.e.6.=.#.~ J M u u e 2 xXxXxXxXxXxXxXxXxX",
"xXxXxXxXxXxXxXxXxXT /.Q.R.e.6.%./ J D u u xXxXxXxXxXxXxXxXxXxXxX",
"xXxXxXxXxXxXxXxXxX` ).^.W.e.6.%./ _ [ a xXxXxXxXxXxXxXxXxXxXxXxX",
"xXxXxXxXxXxXxXxXxXW (.~.R.w.>.#...' q xXxXxXxXxXxXxXxXxXxXxXxXxX",
"xXxXxXxXxXxXxXxXxX` !.R.e.9.=.i.I u xXxXxXxXxXxXxXxXxXxXxXxXxXxX",
"xXxXxXxXxXxXxXxXxX{ y.9.6.<.o.S xXxXxXxXxXxXxXxXxXxXxXxXxXxXxXxX",
"xXxXxXxXxXxXxXxXxX| 3.=.2.X.S xXxXxXxXxXxXxXxXxXxXxXxXxXxXxXxXxX",
"xXxXxXxXxXxXxXxXxX| 1.u. .S xXxXxXxXxXxXxXxXxXxXxXxXxXxXxXxXxXxX",
"xXxXxXxXxXxXxXxXxX] K.W B xXxXxXxXxXxXxXxXxXxXxXxXxXxXxXxXxXxXxX",
"xXxXxXxXxXxXxXxXxXP O.xXxXxXxXxXxXxXxXxXxXxXxXxXxXxXxXxXxXxXxXxX",
"xXxXxXxXxXxXxXxXxXxXxXxXxXxXxXxXxXxXxXxXxXxXxXxXxXxXxXxXxXxXxXxX",
"xXxXxXxXxXxXxXxXxXxXxXxXxXxXxXxXxXxXxXxXxXxXxXxXxXxXxXxXxXxXxXxX",
"xXxXxXxXxXxXxXxXxXxXxXxXxXxXxXxXxXxXxXxXxXxXxXxXxXxXxXxXxXxXxXxX"
};
