/* XPM */
static char *arrow_up_xpm[] = {
/* columns rows colors chars-per-pixel */
"32 32 232 2 ",
"   c #023C02",
".  c #014501",
"X  c #004C00",
"o  c #004D00",
"O  c #004E00",
"+  c #004F00",
"@  c #044F04",
"#  c #005200",
"$  c #025102",
"%  c #005500",
"&  c #005601",
"*  c #065106",
"=  c #005B01",
"-  c #005C00",
";  c #005F00",
":  c #035C04",
">  c #055D05",
",  c #0A540A",
"<  c #125B12",
"1  c #006300",
"2  c #006700",
"3  c #016703",
"4  c #006801",
"5  c #006A00",
"6  c #006902",
"7  c #006C00",
"8  c #006F01",
"9  c #076709",
"0  c #086209",
"q  c #09610A",
"w  c #086908",
"e  c #007100",
"r  c #007301",
"t  c #007500",
"y  c #007401",
"u  c #007700",
"i  c #007502",
"p  c #007602",
"a  c #047707",
"s  c #007B00",
"d  c #007803",
"f  c #017A02",
"g  c #007F00",
"h  c #007904",
"j  c #047A04",
"k  c #077A07",
"l  c #027E04",
"z  c #057208",
"x  c #097309",
"c  c #126613",
"v  c #156C16",
"b  c #1D621D",
"n  c #1F6A1F",
"m  c #296F29",
"M  c #2D762D",
"N  c #2F7F2F",
"B  c #356F35",
"V  c #317231",
"C  c #337433",
"Z  c #327A32",
"A  c #387F38",
"S  c #3C7B3C",
"D  c #407F41",
"F  c #008200",
"G  c #008300",
"H  c #008500",
"J  c #038105",
"K  c #008204",
"L  c #058205",
"P  c #048306",
"I  c #008504",
"U  c #008505",
"Y  c #018505",
"T  c #048707",
"R  c #008800",
"E  c #008A00",
"W  c #008D00",
"Q  c #008E00",
"!  c #008F00",
"~  c #008D03",
"^  c #008C05",
"/  c #008D05",
"(  c #06850A",
")  c #088708",
"_  c #09850D",
"`  c #058A08",
"'  c #068C09",
"]  c #078E0B",
"[  c #088D0D",
"{  c #088F0C",
"}  c #009000",
"|  c #009400",
" . c #009700",
".. c #009800",
"X. c #009A00",
"o. c #009D00",
"O. c #009F00",
"+. c #08900C",
"@. c #0A900F",
"#. c #0A910F",
"$. c #0D910E",
"%. c #0D8410",
"&. c #0B9010",
"*. c #0C9011",
"=. c #129416",
"-. c #119D12",
";. c #149916",
":. c #1D971A",
">. c #00A100",
",. c #00A200",
"<. c #00A400",
"1. c #00A500",
"2. c #00A600",
"3. c #03A403",
"4. c #05A305",
"5. c #00AA00",
"6. c #00AB00",
"7. c #00AC00",
"8. c #00AE00",
"9. c #00AF00",
"0. c #0BA20B",
"q. c #0EA10D",
"w. c #0AAE0A",
"e. c #00B000",
"r. c #00B100",
"t. c #00B200",
"y. c #00B400",
"u. c #00B500",
"i. c #04B004",
"p. c #00BA00",
"a. c #00BB00",
"s. c #00BD00",
"d. c #04B904",
"f. c #0ABA0A",
"g. c #2D832D",
"h. c #2B892B",
"j. c #2A8E2A",
"k. c #2B962B",
"l. c #2F9A2F",
"z. c #2C9C2C",
"x. c #2D9D2D",
"c. c #368E36",
"v. c #3A853A",
"b. c #3C813C",
"n. c #3D813D",
"m. c #388A38",
"M. c #319631",
"N. c #349234",
"B. c #3B9D3B",
"V. c #3E9A3E",
"C. c #25A325",
"Z. c #28A029",
"A. c #28A228",
"S. c #2AA12A",
"D. c #2BA02B",
"F. c #29A529",
"G. c #28A728",
"H. c #28AA28",
"J. c #32A332",
"K. c #34A334",
"L. c #37A237",
"P. c #35AB35",
"I. c #39A039",
"U. c #3FA43F",
"Y. c #38B238",
"T. c #00C400",
"R. c #00C500",
"E. c #05C405",
"W. c #00C800",
"Q. c #06CE06",
"!. c #08C608",
"~. c #07D507",
"^. c #08D208",
"/. c #478D47",
"(. c #488648",
"). c #409740",
"_. c #439443",
"`. c #459045",
"'. c #4A9F4A",
"]. c #4F9A4F",
"[. c #4C9D4C",
"{. c #5F8F5F",
"}. c #519851",
"|. c #599759",
" X c #5D9B5F",
".X c #41A541",
"XX c #43A443",
"oX c #46A246",
"OX c #41AB41",
"+X c #48A148",
"@X c #4BA74B",
"#X c #4DA74D",
"$X c #4FA74F",
"%X c #4CAB4C",
"&X c #52A652",
"*X c #55A655",
"=X c #57A557",
"-X c #57AC57",
";X c #59A359",
":X c #5BA15B",
">X c #58AB58",
",X c #5AAB5A",
"<X c #5CAC5C",
"1X c #5EAC5E",
"2X c #689668",
"3X c #60A160",
"4X c #60A460",
"5X c #61AB61",
"6X c #63AB63",
"7X c #60B060",
"8X c #64B064",
"9X c #67B167",
"0X c #69B269",
"qX c #6AB36A",
"wX c #6BB36B",
"eX c #6DB26D",
"rX c #70B670",
"tX c #73B873",
"yX c #75B975",
"uX c #77B877",
"iX c #78BA78",
"pX c #7DBE7D",
"aX c #7FC07F",
"sX c #84B184",
"dX c #86BA86",
"fX c #83C183",
"gX c #84C184",
"hX c #88C188",
"jX c #89C789",
"kX c #8DC88D",
"lX c #99D299",
"zX c None",
/* pixels */
"zXzXzXzXzXzXzXzXzXzXzXzXzXzXzXzXzXzXzXzXzXzXzXzXzXzXzXzXzXzXzXzX",
"zXzXzXzXzXzXzXzXzXzXzXzXzXzXzXzXzXzXzXzXzXzXzXzXzXzXzXzXzXzXzXzX",
"zXzXzXzXzXzXzXzXzXzXzXzXzXzXzXzXzXzXzXzXzXzXzXzXzXzXzXzXzXzXzXzX",
"zXzXzXzXzXzXzXzXzXzXzXzXzXzXzXzXzXzXzXzXzXzXzXzXzXzXzXzXzXzXzXzX",
"zXzXzXzXzXzXzXzXzXzXzXzXzXzXzXzXzXzXzXzXzXzXzXzXzXzXzXzXzXzXzXzX",
"zXzXzXzXzXzXzXzXzXzXzXzXzXzXzXzXzXzXzXzXzXzXzXzXzXzXzXzXzXzXzXzX",
"zXzXzXzXzXzXzXzXzXzXzXzXzXzXzXzXzXzXzXzXzXzXzXzXzXzXzXzXzXzXzXzX",
"zXzXzXzXzXzXzXzXzXzXzXzXzXzXzXv  XzXzXzXzXzXzXzXzXzXzXzXzXzXzXzX",
"zXzXzXzXzXzXzXzXzXzXzXzXzXzX= m D 6 zXzXzXzXzXzXzXzXzXzXzXzXzXzX",
"zXzXzXzXzXzXzXzXzXzXzXzXzX& c B   9 6 zXzXzXzXzXzXzXzXzXzXzXzXzX",
"zXzXzXzXzXzXzXzXzXzXzXzXzXq S C . @ z 6 zXzXzXzXzXzXzXzXzXzXzXzX",
"zXzXzXzXzXzXzXzXzXzXzXzX: n.n.Z # # q a zXzXzXzXzXzXzXzXzXzXzXzX",
"zXzXzXzXzXzXzXzXzXzXzX& A /.v.g.> = ; r p zXzXzXzXzXzXzXzXzXzXzX",
"zXzXzXzXzXzXzXzXzXzXo M }./.m.g.w 2 6 7 p h zXzXzXzXzXzXzXzXzXzX",
"zXzXzXzXzXzXzXzXzXo n ;X]._.c.h.x r p p j %.d zXzXzXzXzXzXzXzXzX",
"zXzXzXzXzXzXzXzXzX< 4X;X[.).N.j.k d g G G ) _ p zXzXzXzXzXzXzXzX",
"zXzXzXzXzXzXzXzX* 3X6X=X+XV.M.k.L H R ! } } $.T zXzXzXzXzXzXzXzX",
"zXzXzXzXzXzXzXo |.eX5X=X+XB.l.x.R ! | ........;.Y zXzXzXzXzXzXzX",
"zXzXzXzXzXzXo (.iXwX<X&X+XI.x.S.} ..o.,.,.2.,.o./ Y zXzXzXzXzXzX",
"zXzXzXzXzXo V gXyXqX<X$XXXL.D.A...o.2.7.y.y.7.6.4.=.Y zXzXzXzXzX",
"zXzXzXzXzXb hXaXtX9X,X#X.XK.A.H.o.2.7.u.s.s.p.y.7.0.*.K zXzXzXzX",
"zXzXzXzX, dXjXpXrX8X>X@XU.J.C.H.,.6.y.s.T.W.W.s.y.2.-.] zXzXzXzX",
"zXzXzXo sXlXkXfXuXqX7X-X%XOXP.Y.3.i.d.E.Q.~.^.!.f.w.q.z./ zXzXzX",
"zXzXzX2X{.o o o & = 2 6 7 p d l L L T ` ` { { +.*.{ &.:./ zXzXzX",
"zXzXzXzXzXzXzXzXzXzXzXzXzXzXzXzXzXzXzXzXzXzXzXzXzXzXzXzXzXzXzXzX",
"zXzXzXzXzXzXzXzXzXzXzXzXzXzXzXzXzXzXzXzXzXzXzXzXzXzXzXzXzXzXzXzX",
"zXzXzXzXzXzXzXzXzXzXzXzXzXzXzXzXzXzXzXzXzXzXzXzXzXzXzXzXzXzXzXzX",
"zXzXzXzXzXzXzXzXzXzXzXzXzXzXzXzXzXzXzXzXzXzXzXzXzXzXzXzXzXzXzXzX",
"zXzXzXzXzXzXzXzXzXzXzXzXzXzXzXzXzXzXzXzXzXzXzXzXzXzXzXzXzXzXzXzX",
"zXzXzXzXzXzXzXzXzXzXzXzXzXzXzXzXzXzXzXzXzXzXzXzXzXzXzXzXzXzXzXzX",
"zXzXzXzXzXzXzXzXzXzXzXzXzXzXzXzXzXzXzXzXzXzXzXzXzXzXzXzXzXzXzXzX",
"zXzXzXzXzXzXzXzXzXzXzXzXzXzXzXzXzXzXzXzXzXzXzXzXzXzXzXzXzXzXzXzX"
};
