/* XPM */
static char *arrow_left_xpm[] = {
/* columns rows colors chars-per-pixel */
"24 24 141 2 ",
"   c #084C09",
".  c #055205",
"X  c #065D06",
"o  c #0B580B",
"O  c #0F5F0F",
"+  c #135B13",
"@  c #006000",
"#  c #076107",
"$  c #006E00",
"%  c #016F01",
"&  c #046806",
"*  c #076508",
"=  c #096F09",
"-  c #007100",
";  c #007702",
":  c #007B00",
">  c #007F00",
",  c #047A06",
"<  c #057108",
"1  c #057E08",
"2  c #077D0A",
"3  c #087B08",
"4  c #146514",
"5  c #1C621C",
"6  c #1A691A",
"7  c #1E771E",
"8  c #1A7C1A",
"9  c #1F7220",
"0  c #246B24",
"q  c #246C25",
"w  c #2D6E2D",
"e  c #227322",
"r  c #277027",
"t  c #29702A",
"y  c #2B732B",
"u  c #2C722C",
"i  c #2E7E2E",
"p  c #317731",
"a  c #327932",
"s  c #377D37",
"d  c #048304",
"f  c #058505",
"g  c #008900",
"h  c #008E00",
"j  c #048F04",
"k  c #068D07",
"l  c #0B860D",
"z  c #088C0D",
"x  c #0C8D0F",
"c  c #009100",
"v  c #009500",
"b  c #079207",
"n  c #069407",
"m  c #039903",
"M  c #009C00",
"N  c #009F00",
"B  c #069A08",
"V  c #0A9D0B",
"C  c #0B9C0F",
"Z  c #0D9F0F",
"A  c #0B8E10",
"S  c #138714",
"D  c #118C12",
"F  c #178218",
"G  c #0D9010",
"H  c #0D9710",
"J  c #0E9C11",
"K  c #189A1A",
"L  c #1F9B1D",
"P  c #00A000",
"I  c #00A100",
"U  c #03A103",
"Y  c #06A706",
"T  c #00A900",
"R  c #01A901",
"E  c #00AB00",
"W  c #03AB03",
"Q  c #00AE00",
"!  c #07A00A",
"~  c #09A30B",
"^  c #0AA00D",
"/  c #0DA50D",
"(  c #03B203",
")  c #00B500",
"_  c #00B700",
"`  c #05B405",
"'  c #00BD00",
"]  c #03BF03",
"[  c #28A01C",
"{  c #2B852B",
"}  c #2A8D2A",
"|  c #299529",
" . c #289C28",
".. c #368036",
"X. c #398239",
"o. c #3D8F3D",
"O. c #379937",
"+. c #349D34",
"@. c #3A943A",
"#. c #26A126",
"$. c #24A524",
"%. c #2DA22D",
"&. c #2BAB2B",
"*. c #31A131",
"=. c #34A734",
"-. c #3EA43E",
";. c #05C405",
":. c #04CA04",
">. c #04CD04",
",. c #408A40",
"<. c #4E844E",
"1. c #479F47",
"2. c #4C914D",
"3. c #4D974D",
"4. c #4B9C4B",
"5. c #578E57",
"6. c #559155",
"7. c #5A995A",
"8. c #41A341",
"9. c #43A743",
"0. c #45A145",
"q. c #4FA84F",
"w. c #55A755",
"e. c #52A852",
"r. c #53AA53",
"t. c #58A058",
"y. c #59A759",
"u. c #5FA45F",
"i. c #5FAE5F",
"p. c #61A161",
"a. c #63A563",
"s. c #61AF61",
"d. c #63AF63",
"f. c #66AF66",
"g. c #70B770",
"h. c #71B671",
"j. c #74B974",
"k. c #81C081",
"l. c #81C181",
"z. c #8CC68C",
"x. c None",
/* pixels */
"x.x.x.x.x.x.x.x.x.x.x.x.x.x.x.x.x.x.x.x.x.x.x.x.",
"x.x.x.x.x.x.x.x.x.x.x.x.x.x.x.x.x.x.x.x.x.x.x.x.",
"x.x.x.x.x.x.x.x.x.x.x.x.x.x.x.x.x.<.x.x.x.x.x.x.",
"x.x.x.x.x.x.x.x.x.x.x.x.x.x.x.+ 6.5.x.x.x.x.x.x.",
"x.x.x.x.x.x.x.x.x.x.x.x.x.x.5 7.z.y x.x.x.x.x.x.",
"x.x.x.x.x.x.x.x.x.x.x.x.x.0 p.k.k.r x.x.x.x.x.x.",
"x.x.x.x.x.x.x.x.x.x.x.x.u a.j.g.h.e x.x.x.x.x.x.",
"x.x.x.x.x.x.x.x.x.x.o a u.f.d.i.s.7 x.x.x.x.x.x.",
"x.x.x.x.x.x.x.x.x.O ..t.y.w.e.q.e.8 x.x.x.x.x.x.",
"x.x.x.x.x.x.x.x.4 X.3.4.1.0.8.-.9.F x.x.x.x.x.x.",
"x.x.x.x.x.x.x.6 s ,.o.@.O.+.*.%.=.S x.x.x.x.x.x.",
"x.x.x.x.x.9 q w p i { } |  .#.$.&.D x.x.x.x.x.x.",
"x.x.x.x.x.2.t   . # = 3 f j m U Y k x.x.x.x.x.x.",
"x.x.x.x.x.x.& * X X $ : g v U E ( n x.x.x.x.x.x.",
"x.x.x.x.x.x.x.x.% - - d h m E ) ] B x.x.x.x.x.x.",
"x.x.x.x.x.x.x.x.x.; , f c N Q ' :.! x.x.x.x.x.x.",
"x.x.x.x.x.x.x.x.x.x.2 l n N Q ' >./ x.x.x.x.x.x.",
"x.x.x.x.x.x.x.x.x.x.x.2 x V E _ ;.Z x.x.x.x.x.x.",
"x.x.x.x.x.x.x.x.x.x.x.x.x.G Z W ` Z x.x.x.x.x.x.",
"x.x.x.x.x.x.x.x.x.x.x.x.x.x.z J / H x.x.x.x.x.x.",
"x.x.x.x.x.x.x.x.x.x.x.x.x.x.x.z K L x.x.x.x.x.x.",
"x.x.x.x.x.x.x.x.x.x.x.x.x.x.x.x.x.[ x.x.x.x.x.x.",
"x.x.x.x.x.x.x.x.x.x.x.x.x.x.x.x.x.x.x.x.x.x.x.x.",
"x.x.x.x.x.x.x.x.x.x.x.x.x.x.x.x.x.x.x.x.x.x.x.x."
};
