/* XPM */
static char *arrow_down_xpm[] = {
/* columns rows colors chars-per-pixel */
"24 24 142 2 ",
"   c #055105",
".  c #055C05",
"X  c #045D05",
"o  c #095509",
"O  c #0C590C",
"+  c #135B13",
"@  c #056506",
"#  c #006B00",
"$  c #066807",
"%  c #076B07",
"&  c #0F600F",
"*  c #076A08",
"=  c #007800",
"-  c #017D01",
";  c #067308",
":  c #077708",
">  c #057A08",
",  c #057E08",
"<  c #067E09",
"1  c #097809",
"2  c #136714",
"3  c #1D641D",
"4  c #186A19",
"5  c #1E771E",
"6  c #1A7D1A",
"7  c #236F24",
"8  c #256C25",
"9  c #276C27",
"0  c #217322",
"q  c #227322",
"w  c #247025",
"e  c #277027",
"r  c #2B732B",
"t  c #2D732E",
"y  c #2C742C",
"u  c #317E31",
"i  c #337C33",
"p  c #008600",
"a  c #008A00",
"s  c #038E03",
"d  c #068D07",
"f  c #068E06",
"g  c #09830B",
"h  c #088408",
"j  c #078A0B",
"k  c #0A8B0C",
"l  c #0A8F0D",
"z  c #0A8E0E",
"x  c #009300",
"c  c #049704",
"v  c #069407",
"b  c #009900",
"n  c #009C00",
"m  c #009E00",
"M  c #039F03",
"N  c #069C06",
"B  c #0A900E",
"V  c #069B08",
"C  c #0B9D0F",
"Z  c #0C9D0E",
"A  c #11940F",
"S  c #138714",
"D  c #118C13",
"F  c #178218",
"G  c #0D9710",
"H  c #159517",
"J  c #1B9B1A",
"K  c #00A600",
"L  c #03A503",
"P  c #00A800",
"I  c #00AA00",
"U  c #06A806",
"Y  c #07A10A",
"T  c #08A409",
"R  c #09A40B",
"E  c #0BA60B",
"W  c #0AA10D",
"Q  c #0AA40C",
"!  c #00B000",
"~  c #00B200",
"^  c #00B300",
"/  c #02B102",
"(  c #03B403",
")  c #06B706",
"_  c #00B900",
"`  c #00BC00",
"'  c #2E852E",
"]  c #2C8C2C",
"[  c #2A932A",
"{  c #299B29",
"}  c #378237",
"|  c #378337",
" . c #398639",
".. c #379E37",
"X. c #3E953E",
"o. c #3B993B",
"O. c #26A526",
"+. c #24A824",
"@. c #28A128",
"#. c #2DA42D",
"$. c #2BAC2B",
"%. c #31A331",
"&. c #34A234",
"*. c #34A834",
"=. c #3EA53E",
"-. c #00C000",
";. c #03C203",
":. c #00C600",
">. c #00C900",
",. c #05C905",
"<. c #04CF04",
"1. c #04D504",
"2. c #408F40",
"3. c #478E49",
"4. c #4D9C4D",
"5. c #579257",
"6. c #5C9A5C",
"7. c #41A541",
"8. c #45A445",
"9. c #44A844",
"0. c #48A348",
"q. c #4BA04B",
"w. c #4FA94F",
"e. c #52AA52",
"r. c #53AA53",
"t. c #56AA56",
"y. c #58A358",
"u. c #59AA59",
"i. c #62A262",
"p. c #60A760",
"a. c #63A863",
"s. c #60AF60",
"d. c #61AF61",
"f. c #63B063",
"g. c #66B166",
"h. c #70B770",
"j. c #71B771",
"k. c #75BA75",
"l. c #81C181",
"z. c #82C182",
"x. c #8DC68D",
"c. c None",
/* pixels */
"c.c.c.c.c.c.c.c.c.c.c.c.c.c.c.c.c.c.c.c.c.c.c.c.",
"c.c.c.c.c.c.c.c.c.c.c.c.c.c.c.c.c.c.c.c.c.c.c.c.",
"c.c.c.c.c.c.c.c.c.c.c.c.c.c.c.c.c.c.c.c.c.c.c.c.",
"c.c.c.c.c.c.c.c.c.c.c.c.c.c.c.c.c.c.c.c.c.c.c.c.",
"c.c.c.c.c.c.c.c.c.c.c.c.c.c.c.c.c.c.c.c.c.c.c.c.",
"c.c.c.c.c.c.c.c.c.c.c.c.c.c.c.c.c.c.c.c.c.c.c.c.",
"c.c.  9 r e q 5 6 F S D d v V Y Q W C G H A c.c.",
"c.c.c.5.x.z.j.d.r.9.*.$.U ( ;.<.1.,.) E J c.c.c.",
"c.c.c.+ 6.z.j.d.w.=.#.+.L ! ` :.>.;.! W j c.c.c.",
"c.c.c.c.3 i.k.f.r.7.%.O.M P ! _ _ ( Q k c.c.c.c.",
"c.c.c.c.c.9 a.g.t.8.&.@.c M L I P T B c.c.c.c.c.",
"c.c.c.c.c.c.y p.u.0...{ d x b M N B c.c.c.c.c.c.",
"c.c.c.c.c.c.c.i y.q.o.[ h p a s k < c.c.c.c.c.c.",
"c.c.c.c.c.c.c.O } 4.X.] : = - g < c.c.c.c.c.c.c.",
"c.c.c.c.c.c.c.c.&  .2.' $ # : > c.c.c.c.c.c.c.c.",
"c.c.c.c.c.c.c.c.c.2 } u . @ : c.c.c.c.c.c.c.c.c.",
"c.c.c.c.c.c.c.c.c.c.4 y o $ c.c.c.c.c.c.c.c.c.c.",
"c.c.c.c.c.c.c.c.c.c.. 7 e $ c.c.c.c.c.c.c.c.c.c.",
"c.c.c.c.c.c.c.c.c.c.c.q 3.c.c.c.c.c.c.c.c.c.c.c.",
"c.c.c.c.c.c.c.c.c.c.c.c.c.c.c.c.c.c.c.c.c.c.c.c.",
"c.c.c.c.c.c.c.c.c.c.c.c.c.c.c.c.c.c.c.c.c.c.c.c.",
"c.c.c.c.c.c.c.c.c.c.c.c.c.c.c.c.c.c.c.c.c.c.c.c.",
"c.c.c.c.c.c.c.c.c.c.c.c.c.c.c.c.c.c.c.c.c.c.c.c.",
"c.c.c.c.c.c.c.c.c.c.c.c.c.c.c.c.c.c.c.c.c.c.c.c."
};
