/* XPM */
static char *arrow_down_xpm[] = {
/* columns rows colors chars-per-pixel */
"32 32 230 2 ",
"   c #004D00",
".  c #004E00",
"X  c #004F00",
"o  c #014F01",
"O  c #054805",
"+  c #005500",
"@  c #005701",
"#  c #055105",
"$  c #025B02",
"%  c #005C00",
"&  c #015C02",
"*  c #065A06",
"=  c #035C04",
"-  c #0A540A",
";  c #125B12",
":  c #006300",
">  c #006700",
",  c #056705",
"<  c #006901",
"1  c #006A00",
"2  c #006902",
"3  c #0A620B",
"4  c #066A08",
"5  c #096B0B",
"6  c #0A6C0B",
"7  c #007100",
"8  c #017002",
"9  c #007500",
"0  c #007700",
"q  c #027403",
"w  c #007702",
"e  c #047707",
"r  c #007B00",
"t  c #007803",
"y  c #027B03",
"u  c #007F00",
"i  c #007A04",
"p  c #037E05",
"a  c #07740A",
"s  c #087208",
"d  c #097C09",
"f  c #136814",
"g  c #1D621D",
"h  c #1A6F1B",
"j  c #1D6A1D",
"k  c #0F7C10",
"l  c #2A742B",
"z  c #2B772B",
"x  c #317331",
"c  c #367536",
"v  c #337A33",
"b  c #377C38",
"n  c #008200",
"m  c #008500",
"M  c #008204",
"N  c #048206",
"B  c #078307",
"V  c #008504",
"C  c #008405",
"Z  c #018505",
"A  c #048504",
"S  c #058407",
"D  c #008A00",
"F  c #008D00",
"G  c #008E00",
"H  c #008F00",
"J  c #058A05",
"K  c #018D06",
"L  c #06850A",
"P  c #0B870F",
"I  c #068809",
"U  c #068B09",
"Y  c #078C0A",
"T  c #088D0D",
"R  c #088F0C",
"E  c #098F0D",
"W  c #009000",
"Q  c #009400",
"!  c #009700",
"~  c #009800",
"^  c #009A00",
"/  c #009D00",
"(  c #009F00",
")  c #099209",
"_  c #0A900E",
"`  c #0F8712",
"'  c #0D8F13",
"]  c #118413",
"[  c #0B9210",
"{  c #0C9111",
"}  c #0D9012",
"|  c #0E9013",
" . c #0F9B10",
".. c #149618",
"X. c #169F18",
"o. c #179D1A",
"O. c #00A100",
"+. c #00A200",
"@. c #00A300",
"#. c #00A400",
"$. c #00A500",
"%. c #00A600",
"&. c #04A604",
"*. c #00AA00",
"=. c #00AB00",
"-. c #00AC00",
";. c #00AE00",
":. c #00AF00",
">. c #05AC05",
",. c #0DA10D",
"<. c #0CA80C",
"1. c #0CAF0C",
"2. c #00B000",
"3. c #00B100",
"4. c #00B200",
"5. c #00B400",
"6. c #00B500",
"7. c #00B700",
"8. c #05B105",
"9. c #00B800",
"0. c #00BA00",
"q. c #00BD00",
"w. c #06BB06",
"e. c #0BBC0B",
"r. c #13A014",
"t. c #2AA01B",
"y. c #2F852F",
"u. c #2B8F2B",
"i. c #2D8A2D",
"p. c #2A952A",
"a. c #2B9C2B",
"s. c #2F9F2F",
"d. c #328032",
"f. c #368336",
"g. c #3C813C",
"h. c #3C853C",
"j. c #3A8B3A",
"k. c #388F38",
"l. c #3D883D",
"z. c #369436",
"x. c #319C31",
"c. c #349834",
"v. c #3E9F3E",
"b. c #25A525",
"n. c #2BA32B",
"m. c #28A528",
"M. c #2AA62A",
"N. c #2CA12C",
"B. c #2DA22D",
"V. c #29A829",
"C. c #28AB28",
"Z. c #28AC28",
"A. c #35A72F",
"S. c #32A432",
"D. c #34A434",
"F. c #37A437",
"G. c #36AB36",
"H. c #39A339",
"J. c #3CA23C",
"K. c #3FA63F",
"L. c #39B339",
"P. c #00C200",
"I. c #00C400",
"U. c #00C500",
"Y. c #06C506",
"T. c #00C800",
"R. c #00CC00",
"E. c #0AC90A",
"W. c #00D000",
"Q. c #00D300",
"!. c #07D007",
"~. c #09D609",
"^. c #08DA08",
"/. c #468646",
"(. c #479247",
"). c #459645",
"_. c #439943",
"`. c #409C40",
"'. c #4F9F4F",
"]. c #519453",
"[. c #519C51",
"{. c #579857",
"}. c #41A641",
"|. c #43A643",
" X c #46A546",
".X c #42AC42",
"XX c #4AA34A",
"oX c #48A448",
"OX c #4BA74B",
"+X c #4CA14C",
"@X c #4DA94D",
"#X c #4FA94F",
"$X c #4DAC4D",
"%X c #52A952",
"&X c #55A955",
"*X c #57A857",
"=X c #57AC57",
"-X c #59A659",
";X c #5BA45B",
":X c #5FA25F",
">X c #58AC58",
",X c #5AAC5A",
"<X c #5CAD5C",
"1X c #5EAE5E",
"2X c #60A660",
"3X c #61AD61",
"4X c #63AD63",
"5X c #60B060",
"6X c #64B064",
"7X c #67B267",
"8X c #69B369",
"9X c #6AB36A",
"0X c #6BB46B",
"qX c #6DB56D",
"wX c #70B770",
"eX c #73B873",
"rX c #75BA75",
"tX c #77B977",
"yX c #78BC78",
"uX c #7DBF7D",
"iX c #7FC17F",
"pX c #84B184",
"aX c #86BA86",
"sX c #83C183",
"dX c #84C184",
"fX c #87C187",
"gX c #89C789",
"hX c #8DC88D",
"jX c #99D299",
"kX c None",
/* pixels */
"kXkXkXkXkXkXkXkXkXkXkXkXkXkXkXkXkXkXkXkXkXkXkXkXkXkXkXkXkXkXkXkX",
"kXkXkXkXkXkXkXkXkXkXkXkXkXkXkXkXkXkXkXkXkXkXkXkXkXkXkXkXkXkXkXkX",
"kXkXkXkXkXkXkXkXkXkXkXkXkXkXkXkXkXkXkXkXkXkXkXkXkXkXkXkXkXkXkXkX",
"kXkXkXkXkXkXkXkXkXkXkXkXkXkXkXkXkXkXkXkXkXkXkXkXkXkXkXkXkXkXkXkX",
"kXkXkXkXkXkXkXkXkXkXkXkXkXkXkXkXkXkXkXkXkXkXkXkXkXkXkXkXkXkXkXkX",
"kXkXkXkXkXkXkXkXkXkXkXkXkXkXkXkXkXkXkXkXkXkXkXkXkXkXkXkXkXkXkXkX",
"kXkXkXkXkXkXkXkXkXkXkXkXkXkXkXkXkXkXkXkXkXkXkXkXkXkXkXkXkXkXkXkX",
"kXkXkXkXkXkXkXkXkXkXkXkXkXkXkXkXkXkXkXkXkXkXkXkXkXkXkXkXkXkXkXkX",
"kXkXkX          + % : 1 7 q y p S S U U Y _ T _ [ { ' | K kXkXkX",
"kXkXkX  pXjXhXdXtX0X5X>X$X.XG.L.$.8.w.Y.!.^.~.E.e.1.,.A.t.kXkXkX",
"kXkXkXkX- aXgXuXwX6X>XOXK.D.b.Z.O.;.9.P.R.W.W.U.7.*.r.T kXkXkXkX",
"kXkXkXkXkXg dXiXwX8X>X@X}.D.M.Z.O.*.4.q.U.R.U.q.4.<.{ M kXkXkXkX",
"kXkXkXkXkX  x dXtX0X1X@X|.H.n.V./ $.;.7.9.q.9.4.>...Z kXkXkXkXkX",
"kXkXkXkXkXkX  /.yX0X1X%X|.H.N.M.! / $.;.4.4.4.*.o.Z kXkXkXkXkXkX",
"kXkXkXkXkXkXkX  {.qX3X&XXXJ.s.N.F ! / O.$.$.$.o.Z kXkXkXkXkXkXkX",
"kXkXkXkXkXkXkXkX# :X3X*XXXv.x.a.J F Q ^ ^ ^  .L kXkXkXkXkXkXkXkX",
"kXkXkXkXkXkXkXkXkX; :X;X+X`.c.p.B m D F Q ) P t kXkXkXkXkXkXkXkX",
"kXkXkXkXkXkXkXkXkX  h ;X'._.z.u.d y n n A ` t kXkXkXkXkXkXkXkXkX",
"kXkXkXkXkXkXkXkXkXkX  z [.).k.i.s q 9 9 ] t kXkXkXkXkXkXkXkXkXkX",
"kXkXkXkXkXkXkXkXkXkXkX$ f.(.j.y., > 1 k t kXkXkXkXkXkXkXkXkXkXkX",
"kXkXkXkXkXkXkXkXkXkXkXkX= l.l.v $ $ 6 e kXkXkXkXkXkXkXkXkXkXkXkX",
"kXkXkXkXkXkXkXkXkXkXkXkXkX3 g.v   * a 1 kXkXkXkXkXkXkXkXkXkXkXkX",
"kXkXkXkXkXkXkXkXkXkXkXkXkX+ f c O 5 1 kXkXkXkXkXkXkXkXkXkXkXkXkX",
"kXkXkXkXkXkXkXkXkXkXkXkXkXkX% l b 4 kXkXkXkXkXkXkXkXkXkXkXkXkXkX",
"kXkXkXkXkXkXkXkXkXkXkXkXkXkXkXh ].kXkXkXkXkXkXkXkXkXkXkXkXkXkXkX",
"kXkXkXkXkXkXkXkXkXkXkXkXkXkXkXkXkXkXkXkXkXkXkXkXkXkXkXkXkXkXkXkX",
"kXkXkXkXkXkXkXkXkXkXkXkXkXkXkXkXkXkXkXkXkXkXkXkXkXkXkXkXkXkXkXkX",
"kXkXkXkXkXkXkXkXkXkXkXkXkXkXkXkXkXkXkXkXkXkXkXkXkXkXkXkXkXkXkXkX",
"kXkXkXkXkXkXkXkXkXkXkXkXkXkXkXkXkXkXkXkXkXkXkXkXkXkXkXkXkXkXkXkX",
"kXkXkXkXkXkXkXkXkXkXkXkXkXkXkXkXkXkXkXkXkXkXkXkXkXkXkXkXkXkXkXkX",
"kXkXkXkXkXkXkXkXkXkXkXkXkXkXkXkXkXkXkXkXkXkXkXkXkXkXkXkXkXkXkXkX",
"kXkXkXkXkXkXkXkXkXkXkXkXkXkXkXkXkXkXkXkXkXkXkXkXkXkXkXkXkXkXkXkX"
};
