/* XPM */
static char *arrow_right_xpm[] = {
/* columns rows colors chars-per-pixel */
"24 24 134 2 ",
"   c #065906",
".  c #085A08",
"X  c #0C580C",
"o  c #125B12",
"O  c #076707",
"+  c #026802",
"@  c #076608",
"#  c #0E620E",
"$  c #066A08",
"%  c #007500",
"&  c #007703",
"*  c #027603",
"=  c #007A00",
"-  c #027D04",
";  c #057208",
":  c #097509",
">  c #057B08",
",  c #136713",
"<  c #186018",
"1  c #1E671E",
"2  c #2B6C2B",
"3  c #227023",
"4  c #267026",
"5  c #2A712A",
"6  c #2B782B",
"7  c #2F7D2F",
"8  c #317C31",
"9  c #327C32",
"0  c #347D35",
"q  c #008200",
"w  c #008700",
"e  c #008F00",
"r  c #068B06",
"t  c #098109",
"y  c #06890A",
"u  c #0B880D",
"i  c #0A8A0D",
"p  c #098C0D",
"a  c #0A8C0D",
"s  c #009500",
"d  c #049504",
"f  c #069607",
"g  c #009800",
"h  c #009B00",
"j  c #039D03",
"k  c #059E07",
"l  c #09980A",
"z  c #0D9D0F",
"x  c #0F9B11",
"c  c #189713",
"v  c #1B971C",
"b  c #179818",
"n  c #1D9B1D",
"m  c #00A300",
"M  c #03A303",
"N  c #00A600",
"B  c #00A700",
"V  c #01A701",
"C  c #00AE00",
"Z  c #00AF00",
"A  c #05A805",
"S  c #05AF05",
"D  c #06A708",
"F  c #0DA00E",
"G  c #0BA50E",
"H  c #0CA60D",
"J  c #0AAE0C",
"K  c #02B002",
"L  c #01B501",
"P  c #00B600",
"I  c #03B703",
"U  c #00BA00",
"Y  c #00BD00",
"T  c #07B009",
"R  c #08B30A",
"E  c #0FA111",
"W  c #1F9220",
"Q  c #268E26",
"!  c #2F832F",
"~  c #2C8B2C",
"^  c #2A912A",
"/  c #2A992A",
"(  c #338833",
")  c #3A873A",
"_  c #3E943E",
"`  c #3B983B",
"'  c #389D38",
"]  c #24A724",
"[  c #26A426",
"{  c #28A028",
"}  c #2EA42E",
"|  c #28AC28",
" . c #32A332",
".. c #35A135",
"X. c #32A832",
"o. c #3FA63F",
"O. c #00C300",
"+. c #02C302",
"@. c #00C500",
"#. c #03C902",
"$. c #02D002",
"%. c #02D402",
"&. c #428842",
"*. c #408D40",
"=. c #488948",
"-. c #4A8E4A",
";. c #4C8A4C",
":. c #4E8B4E",
">. c #4B984B",
",. c #529452",
"<. c #529E52",
"1. c #579C57",
"2. c #569E56",
"3. c #42A542",
"4. c #45A445",
"5. c #42A942",
"6. c #48A248",
"7. c #4CA04C",
"8. c #4FA94F",
"9. c #53AA53",
"0. c #53AB53",
"q. c #56A956",
"w. c #5AA95A",
"e. c #60AF60",
"r. c #63B163",
"t. c #64B164",
"y. c #67B167",
"u. c #72B972",
"i. c #73B873",
"p. c #73B973",
"a. c #7DBE7D",
"s. c #85C585",
"d. c #8AC48A",
"f. c None",
/* pixels */
"f.f.f.f.f.f.f.f.f.f.f.f.f.f.f.f.f.f.f.f.f.f.f.f.",
"f.f.f.f.f.f.f.f.f.f.f.f.f.f.f.f.f.f.f.f.f.f.f.f.",
"f.f.f.f.f.f.f.2 f.f.f.f.f.f.f.f.f.f.f.f.f.f.f.f.",
"f.f.f.f.f.f.f.;.;.f.f.f.f.f.f.f.f.f.f.f.f.f.f.f.",
"f.f.f.f.f.f.f.-.d.=.o f.f.f.f.f.f.f.f.f.f.f.f.f.",
"f.f.f.f.f.f.f.&.s.a.,.< f.f.f.f.f.f.f.f.f.f.f.f.",
"f.f.f.f.f.f.f.) i.p.i.1.1 f.f.f.f.f.f.f.f.f.f.f.",
"f.f.f.f.f.f.f.( r.r.t.y.2.4 f.f.f.f.f.f.f.f.f.f.",
"f.f.f.f.f.f.f.~ 0.8.0.q.w.<.6 . f.f.f.f.f.f.f.f.",
"f.f.f.f.f.f.f.Q 5.o.3.4.6.>.>.! # f.f.f.f.f.f.f.",
"f.f.f.f.f.f.f.W X.}  ...' ` _ *.9 , f.f.f.f.f.f.",
"f.f.f.f.f.f.f.v | ] [ { / ^ ~ ! 9 5 3 f.f.f.f.f.",
"f.f.f.f.f.f.f.f A M h d r t : O   X 0 f.f.f.f.f.",
"f.f.f.f.f.f.f.k P Z V h e q % + $ $ f.f.f.f.f.f.",
"f.f.f.f.f.f.f.D +.U K m s w = % ; f.f.f.f.f.f.f.",
"f.f.f.f.f.f.f.T $.+.P V g r - * f.f.f.f.f.f.f.f.",
"f.f.f.f.f.f.f.R %.@.P V l u > f.f.f.f.f.f.f.f.f.",
"f.f.f.f.f.f.f.J #.Y K F u f.f.f.f.f.f.f.f.f.f.f.",
"f.f.f.f.f.f.f.G I S E a f.f.f.f.f.f.f.f.f.f.f.f.",
"f.f.f.f.f.f.f.z G x a f.f.f.f.f.f.f.f.f.f.f.f.f.",
"f.f.f.f.f.f.f.n b y f.f.f.f.f.f.f.f.f.f.f.f.f.f.",
"f.f.f.f.f.f.f.c f.f.f.f.f.f.f.f.f.f.f.f.f.f.f.f.",
"f.f.f.f.f.f.f.f.f.f.f.f.f.f.f.f.f.f.f.f.f.f.f.f.",
"f.f.f.f.f.f.f.f.f.f.f.f.f.f.f.f.f.f.f.f.f.f.f.f."
};
