/* XPM */
static char *arrow_left_xpm[] = {
/* columns rows colors chars-per-pixel */
"32 32 230 2 ",
"   c #033D03",
".  c #014501",
"X  c #004D00",
"o  c #004E00",
"O  c #004F00",
"+  c #005200",
"@  c #025002",
"#  c #005500",
"$  c #005701",
"%  c #055005",
"&  c #075107",
"*  c #005B01",
"=  c #005C00",
"-  c #005F00",
";  c #045B05",
":  c #055D05",
">  c #0A540A",
",  c #105810",
"<  c #006300",
"1  c #006700",
"2  c #016703",
"3  c #006801",
"4  c #006A00",
"5  c #006902",
"6  c #006C00",
"7  c #0B620C",
"8  c #0C650D",
"9  c #086908",
"0  c #0B6A0D",
"q  c #007100",
"w  c #017002",
"e  c #007500",
"r  c #007700",
"t  c #007701",
"y  c #027403",
"u  c #007602",
"i  c #007702",
"p  c #047707",
"a  c #007B00",
"s  c #007803",
"d  c #027B03",
"f  c #007F00",
"g  c #007904",
"h  c #057B05",
"j  c #077A07",
"k  c #037E05",
"l  c #097309",
"z  c #08740B",
"x  c #156815",
"c  c #166D17",
"v  c #1B611B",
"b  c #1C681C",
"n  c #2A712B",
"m  c #2A752A",
"M  c #2E702E",
"N  c #2F7F2F",
"B  c #356F35",
"V  c #337433",
"C  c #327A32",
"Z  c #357D35",
"A  c #3D7D3D",
"S  c #008200",
"D  c #008300",
"F  c #038103",
"G  c #008500",
"H  c #008304",
"J  c #048206",
"K  c #008505",
"L  c #018505",
"P  c #008604",
"I  c #058507",
"U  c #008800",
"Y  c #008A00",
"T  c #008D00",
"R  c #008E00",
"E  c #008F00",
"W  c #018C06",
"Q  c #07850B",
"!  c #068809",
"~  c #068B09",
"^  c #078C0A",
"/  c #0B880B",
"(  c #088F0C",
")  c #088E0D",
"_  c #098F0D",
"`  c #009000",
"'  c #009400",
"]  c #009700",
"[  c #009800",
"{  c #009A00",
"}  c #009D00",
"|  c #009F00",
" . c #019F01",
".. c #0A900E",
"X. c #0C8710",
"o. c #118614",
"O. c #0B9110",
"+. c #0C9111",
"@. c #0D9112",
"#. c #129413",
"$. c #109215",
"%. c #17961B",
"&. c #1A9C1C",
"*. c #1C9C1F",
"=. c #20991C",
"-. c #00A100",
";. c #00A200",
":. c #00A400",
">. c #00A500",
",. c #00A600",
"<. c #04A504",
"1. c #07A407",
"2. c #00AA00",
"3. c #00AB00",
"4. c #00AC00",
"5. c #00AE00",
"6. c #00AF00",
"7. c #0EA10D",
"8. c #0FA40F",
"9. c #0CAE0C",
"0. c #00B000",
"q. c #00B100",
"w. c #00B200",
"e. c #00B400",
"r. c #00B500",
"t. c #05B005",
"y. c #00BA00",
"u. c #00BB00",
"i. c #00BD00",
"p. c #06BA06",
"a. c #0BBB0B",
"s. c #18A119",
"d. c #2D832D",
"f. c #2A892A",
"g. c #2A8E2A",
"h. c #2C962C",
"j. c #2F9A2F",
"k. c #2C9D2C",
"l. c #2D9D2D",
"z. c #368E36",
"x. c #3A853A",
"c. c #3D813D",
"v. c #388A38",
"b. c #319631",
"n. c #349234",
"m. c #3B9D3B",
"M. c #3D9A3D",
"N. c #25A325",
"B. c #27AA27",
"V. c #28A228",
"C. c #2AA02A",
"Z. c #29A429",
"A. c #28A728",
"S. c #2FA42F",
"D. c #39A923",
"F. c #32A332",
"G. c #34A334",
"H. c #37A237",
"J. c #36AB36",
"K. c #39A039",
"L. c #3FA43F",
"P. c #38B238",
"I. c #00C400",
"U. c #00C500",
"Y. c #06C406",
"T. c #00C800",
"R. c #07CE07",
"E. c #0AC70A",
"W. c #09D209",
"Q. c #08D508",
"!. c #448344",
"~. c #458246",
"^. c #478D47",
"/. c #429442",
"(. c #459045",
"). c #409840",
"_. c #4A9F4A",
"`. c #4F9A4F",
"'. c #4C9D4C",
"]. c #5E8F5E",
"[. c #559455",
"{. c #519851",
"}. c #5C9B5D",
"|. c #5D9F5D",
" X c #41A541",
".X c #43A443",
"XX c #46A246",
"oX c #42AC42",
"OX c #48A148",
"+X c #4BA74B",
"@X c #4DA74D",
"#X c #4FA74F",
"$X c #4CAB4C",
"%X c #52A652",
"&X c #54A554",
"*X c #57A557",
"=X c #57AC57",
"-X c #59A359",
";X c #5AA15A",
":X c #5FA25F",
">X c #58AB58",
",X c #5AAB5A",
"<X c #5CAC5C",
"1X c #5EAC5E",
"2X c #689668",
"3X c #61AB61",
"4X c #63AB63",
"5X c #60AF60",
"6X c #64B064",
"7X c #66B166",
"8X c #69B269",
"9X c #6AB36A",
"0X c #6BB36B",
"qX c #6DB26D",
"wX c #7FAE7F",
"eX c #70B770",
"rX c #73B873",
"tX c #75B975",
"yX c #77B977",
"uX c #78BA78",
"iX c #7DBE7D",
"pX c #7FC07F",
"aX c #83B883",
"sX c #85BF85",
"dX c #82C082",
"fX c #83C183",
"gX c #89C789",
"hX c #8DC88D",
"jX c #99D299",
"kX c None",
/* pixels */
"kXkXkXkXkXkXkXkXkXkXkXkXkXkXkXkXkXkXkXkXkXkXkXkXkXkXkXkXkXkXkXkX",
"kXkXkXkXkXkXkXkXkXkXkXkXkXkXkXkXkXkXkXkXkXkXkXkXkXkXkXkXkXkXkXkX",
"kXkXkXkXkXkXkXkXkXkXkXkXkXkXkXkXkXkXkXkXkXkXkXkXkXkXkXkXkXkXkXkX",
"kXkXkXkXkXkXkXkXkXkXkXkXkXkXkXkXkXkXkXkXkXkXo 2XkXkXkXkXkXkXkXkX",
"kXkXkXkXkXkXkXkXkXkXkXkXkXkXkXkXkXkXkXkXkX> wX].kXkXkXkXkXkXkXkX",
"kXkXkXkXkXkXkXkXkXkXkXkXkXkXkXkXkXkXkXo v aXjXo kXkXkXkXkXkXkXkX",
"kXkXkXkXkXkXkXkXkXkXkXkXkXkXkXkXkXkXo M sXgXhXo kXkXkXkXkXkXkXkX",
"kXkXkXkXkXkXkXkXkXkXkXkXkXkXkXkXkXo !.fXpXiXdXo kXkXkXkXkXkXkXkX",
"kXkXkXkXkXkXkXkXkXkXkXkXkXkXkXkX% [.yXtXrXeXyX$ kXkXkXkXkXkXkXkX",
"kXkXkXkXkXkXkXkXkXkXkXkXkXkXo , |.qX0X9X7X6X9X= kXkXkXkXkXkXkXkX",
"kXkXkXkXkXkXkXkXkXkXkXkXkXo b :X4X3X1X<X,X>X5X< kXkXkXkXkXkXkXkX",
"kXkXkXkXkXkXkXkXkXkXkXkX$ m -X-X*X&X%X#X@X+X=X4 kXkXkXkXkXkXkXkX",
"kXkXkXkXkXkXkXkXkXkXkX; Z {.`.'._.OXXX.X XL.$Xw kXkXkXkXkXkXkXkX",
"kXkXkXkXkXkXkXkXkX$ 7 c.^.(./.).M.m.m.H.G.F.oXy kXkXkXkXkXkXkXkX",
"kXkXkXkXkXkXkXkX* x A c.x.v.z.n.b.j.k.V.V.N.J.d kXkXkXkXkXkXkXkX",
"kXkXkXkXkXkXkXc n B V C N d.f.g.h.l.C.V.A.B.P.k kXkXkXkXkXkXkXkX",
"kXkXkXkXkXkXkX}.!.  . o : 9 l h F U ` ]  . .>.J kXkXkXkXkXkXkXkX",
"kXkXkXkXkXkXkXkX2 0 & + = 1 w d G E ]  .>.5.t.Q kXkXkXkXkXkXkXkX",
"kXkXkXkXkXkXkXkXkX4 z 8 = 6 y S U ]  .>.5.r.p.! kXkXkXkXkXkXkXkX",
"kXkXkXkXkXkXkXkXkXkX1 p d 6 y S E [ ;.3.r.u.Y.^ kXkXkXkXkXkXkXkX",
"kXkXkXkXkXkXkXkXkXkXkXkXd y k S E [ >.0.u.U.R.^ kXkXkXkXkXkXkXkX",
"kXkXkXkXkXkXkXkXkXkXkXkXkXg o./ ` [ >.0.u.T.Q.( kXkXkXkXkXkXkXkX",
"kXkXkXkXkXkXkXkXkXkXkXkXkXkXg X.#.[ >.5.u.U.W...kXkXkXkXkXkXkXkX",
"kXkXkXkXkXkXkXkXkXkXkXkXkXkXkXg Q &. .3.r.u.E...kXkXkXkXkXkXkXkX",
"kXkXkXkXkXkXkXkXkXkXkXkXkXkXkXkXkXP *.1.5.0.a...kXkXkXkXkXkXkXkX",
"kXkXkXkXkXkXkXkXkXkXkXkXkXkXkXkXkXkXH %.8.>.9.@.kXkXkXkXkXkXkXkX",
"kXkXkXkXkXkXkXkXkXkXkXkXkXkXkXkXkXkXkXH $.s.7.@.kXkXkXkXkXkXkXkX",
"kXkXkXkXkXkXkXkXkXkXkXkXkXkXkXkXkXkXkXkXH ) S.=.kXkXkXkXkXkXkXkX",
"kXkXkXkXkXkXkXkXkXkXkXkXkXkXkXkXkXkXkXkXkXkXW D.kXkXkXkXkXkXkXkX",
"kXkXkXkXkXkXkXkXkXkXkXkXkXkXkXkXkXkXkXkXkXkXkXkXkXkXkXkXkXkXkXkX",
"kXkXkXkXkXkXkXkXkXkXkXkXkXkXkXkXkXkXkXkXkXkXkXkXkXkXkXkXkXkXkXkX",
"kXkXkXkXkXkXkXkXkXkXkXkXkXkXkXkXkXkXkXkXkXkXkXkXkXkXkXkXkXkXkXkX"
};
