/* XPM */
static char *ashtakavarga_xpm[] = {
/* columns rows colors chars-per-pixel */
"24 24 222 2 ",
"   c #5C410C",
".  c #654A15",
"X  c #664A14",
"o  c #7E5B18",
"O  c #7E5C1B",
"+  c #6B5220",
"@  c #6E5321",
"#  c #765A23",
"$  c #7C6231",
"%  c #82601E",
"&  c #A0731F",
"*  c #816736",
"=  c #826934",
"-  c #826B3E",
";  c #94763D",
":  c #A27621",
">  c #A77822",
",  c #816C44",
"<  c #82714C",
"1  c #987C45",
"2  c #8D7C58",
"3  c #807967",
"4  c #BF8D2E",
"5  c #C59231",
"6  c #C69232",
"7  c #9B814B",
"8  c #A0834B",
"9  c #A4884C",
"0  c #A98E5A",
"q  c #BD9852",
"w  c #B29459",
"e  c #BF9C58",
"r  c #BE9E5F",
"t  c #9F906E",
"y  c #958971",
"u  c #A1947C",
"i  c #A6997D",
"p  c #BBA671",
"a  c #D1A24C",
"s  c #D1A34D",
"d  c #D2A34C",
"f  c #C5A15D",
"g  c #D6B46B",
"h  c #3264A4",
"j  c #3364A4",
"k  c #3465A4",
"l  c #3466A4",
"z  c #3A6AA8",
"x  c #3D6CA9",
"c  c #6C7D95",
"v  c #426BA1",
"b  c #406FA9",
"n  c #4170A9",
"m  c #4372AB",
"M  c #4070AC",
"N  c #4D79AE",
"B  c #4E79AE",
"V  c #527EB2",
"C  c #537EB2",
"Z  c #547FB1",
"A  c #547EB2",
"S  c #7F8893",
"D  c #5E83AF",
"F  c #5581B1",
"G  c #5882B4",
"H  c #5B84B5",
"J  c #5B84B7",
"K  c #5D85B4",
"L  c #5A84B8",
"P  c #6381A7",
"I  c #7A8EA7",
"U  c #6A8DB5",
"Y  c #6087B8",
"T  c #6187B8",
"R  c #638AB9",
"E  c #668DB9",
"W  c #6890BA",
"Q  c #7093BF",
"!  c #7799BE",
"~  c #7898BF",
"^  c #6A92C1",
"/  c #7599C1",
"(  c #769BC1",
")  c #759BC5",
"_  c #7E9FC6",
"`  c #769DC9",
"'  c #7EA2C6",
"]  c #7EA1C9",
"[  c #7DA3CC",
"{  c #868686",
"}  c #94928F",
"|  c #93948C",
" . c #9A9B96",
".. c #929598",
"X. c #949A9E",
"o. c #9C9E98",
"O. c #9C9C9C",
"+. c #B0A183",
"@. c #B6A78A",
"#. c #BAB19C",
"$. c #8592A1",
"%. c #829AB7",
"&. c #829CB9",
"*. c #8FA3BC",
"=. c #91A5BF",
"-. c #9EABBD",
";. c #A1A1A2",
":. c #A2A2A2",
">. c #A3A3A3",
",. c #A5A7A0",
"<. c #A4A4A3",
"1. c #A4A4A4",
"2. c #A6A8A2",
"3. c #AAAAA2",
"4. c #ABADA7",
"5. c #AAAAAA",
"6. c #ADAFAA",
"7. c #ACACAD",
"8. c #AEAEAE",
"9. c #B2ACA1",
"0. c #B2B0AD",
"q. c #B0B2AC",
"w. c #B1B2AD",
"e. c #B3B4AF",
"r. c #B2B2B2",
"t. c #B3B3B3",
"y. c #B6B5B0",
"u. c #B3B4B6",
"i. c #B4B4B4",
"p. c #B5B5B5",
"a. c #B9BAB7",
"s. c #B4B6B8",
"d. c #B9B9B9",
"f. c #BABBB8",
"g. c #BDBEBA",
"h. c #BCBCBC",
"j. c #BDBDBD",
"k. c #C4B181",
"l. c #D0BD9A",
"z. c #C3B7AC",
"x. c #C5BEAB",
"c. c #D1BBB4",
"v. c #C8C6BF",
"b. c #80A3C7",
"n. c #82A5CA",
"m. c #85A6C8",
"M. c #88AACD",
"N. c #8AABCF",
"B. c #8BACCD",
"V. c #95B2D2",
"C. c #9CB6D3",
"Z. c #A3B0C1",
"A. c #A8B4C1",
"S. c #AEB7C3",
"D. c #A9B7C7",
"F. c #AAB9CB",
"G. c #B2BAC4",
"H. c #A2B7D1",
"J. c #A2B8D3",
"K. c #B3C1D2",
"L. c #B6C4D3",
"P. c #B7C5D3",
"I. c #BBC8D6",
"U. c #C0C0C0",
"Y. c #C0C2C1",
"T. c #C3C3C2",
"R. c #C4C4C2",
"E. c #C6C6C6",
"W. c #C8C6C4",
"Q. c #CAC8C0",
"!. c #CACBC8",
"~. c #C8C8CF",
"^. c #D5D1C8",
"/. c #C2CAD3",
"(. c #C0CBD9",
"). c #C3CFDB",
"_. c #C7D1DF",
"`. c #CDD4DA",
"'. c #CBD5DF",
"]. c #CDD6DF",
"[. c #D1D1D0",
"{. c #D5D5D4",
"}. c #D7D8D5",
"|. c #D5D9DD",
" X c #DADAD9",
".X c #DADADA",
"XX c #DCDDDA",
"oX c #EAD7D2",
"OX c #E3DFDB",
"+X c #F4DFDE",
"@X c #E5E3DF",
"#X c #D4DBE3",
"$X c #DDE0E4",
"%X c #E3E2E0",
"&X c #E2E2E2",
"*X c #E3E4E3",
"=X c #E7E5E0",
"-X c #E5E4E3",
";X c #E4E4E4",
":X c #E4E6E9",
">X c #E1E6ED",
",X c #E9E9E9",
"<X c #EDE9E9",
"1X c #EDEDED",
"2X c #F2EEEA",
"3X c #F2F1EF",
"4X c #F6F2EF",
"5X c #E1E8F1",
"6X c #E6EBF0",
"7X c #E9EDF2",
"8X c #EBEEF2",
"9X c #EFF3F7",
"0X c #F3F2F1",
"qX c #F6F5F3",
"wX c #F8F6F4",
"eX c #FBFBFA",
"rX c #FDFDFC",
"tX c #FDFDFD",
"yX c #FDFDFE",
"uX c #FEFEFF",
"iX c #FFFFFF",
"pX c None",
/* pixels */
"pXpXpXpXpXpXpXpXpXpXpXpXpXpXpXpXpXpXpXpX  pXpXpX",
"pXpXC Y pXpXpXpXpXpXpXpXpXpXpXpXpXpXpX+ X pXpXpX",
"pXpXG C.Y pXpXpXpXpXpXpXpXpXpXpXpXpX* 7 # pXpXpX",
"pXpXx Q _ R pXpXpXpXpXpXpXpXpXpXpX$ k.p pXpXpXpX",
"pXpXj J V.m.G pXpXpXpXpXpXpXpXpXpX0 g 9 pXpXpXpX",
"pXpXh m ] B.( N pXpXpXpXpXpXpXpX* f 4 o pXpXpXpX",
"pXpXpXh L N.b.E m pXpXpXpXpXpXpX8 d & X pXpXpXpX",
"pXpXpXl z ^ N.( C P u.r.5.:.} , e 5 o pXpXpXpXpX",
"pXpXpXpXl M ` n.W N H.0X;XpXy 1 d : @ pXpXpXpXpX",
"pXpXpXpXl v D [ ' F A _.;XpX- q 6 % 3 pXpXpXpXpX",
"pXpXpXpXpXc S U ) C b ! $Xu ; d > < | pXpXpXpXpX",
"pXpXpXpXpXpX..$.I &.! K D.2 w r t 3.o.pXpXpXpXpX",
"pXpXpXpXpXpX<.K.%./.|.#X`.v.x.#.v.XX3.pXpXpXpXpX",
"pXpXpXpXpXpX1.pXJ.5XuX7XI.Y.l.@.^.}.,.pXpXpXpXpX",
"pXpXpXpXpXpX:.pXpX9XuX7X).A.+.i %X!.pXpXpXpXpXpX",
"pXpXpXpXpXpXO.E.pXuXuX7X].F.X.9.,Xh.pXpXpXpXpXpX",
"pXpXpXpXpXpXpXh.pXuXuX>X'.L.*.S.,Xy.pXpXpXpXpXpX",
"pXpXpXpXpXpXpXu.pXuXeX:X(.L.=.-.%Xq.pXpXpXpXpXpX",
"pXpXpXpXpXpXpXi.pXqXwX<X~.Z.G.u.{.0.pXpXpXpXpXpX",
"pXpXpXpXpXpXpX8..X=X4X+Xc.y.a.d.R.4.pXpXpXpXpXpX",
"pXpXpXpXpXpXpX>..X%X2XoXz.0.8.u.f. .pXpXpXpXpXpX",
"pXpXpXpXpXpXpX{ U.;X3XOXW.h.h.R.6.pXpXpXpXpXpXpX",
"pXpXpXpXpXpXpXpXpXY.%X1X%X[.f. .pXpXpXpXpXpXpXpX",
"pXpXpXpXpXpXpXpXpXpXpXpXpXpXpXpXpXpXpXpXpXpXpXpX"
};
