/* XPM */
static char *ashtakavarga_xpm[] = {
/* columns rows colors chars-per-pixel */
"32 32 176 2 ",
"   c #5C410C",
".  c #5F4410",
"X  c #63460C",
"o  c #664A15",
"O  c #694D16",
"+  c #674C1A",
"@  c #6A4F1D",
"#  c #6B511C",
"$  c #6E5320",
"%  c #755A26",
"&  c #7E683B",
"*  c #76684F",
"=  c #92691C",
"-  c #896723",
";  c #8E6820",
":  c #826835",
">  c #8B713F",
",  c #8C7343",
"<  c #957A42",
"1  c #997C41",
"2  c #967E4F",
"3  c #8C7D5F",
"4  c #80796A",
"5  c #BE881F",
"6  c #B98321",
"7  c #B78931",
"8  c #C48C21",
"9  c #CC9125",
"0  c #CD9329",
"q  c #AF8C4B",
"w  c #A0895C",
"e  c #BC9A56",
"r  c #B7975A",
"t  c #96886C",
"y  c #9F8E6D",
"u  c #9B8E73",
"i  c #B59D67",
"p  c #B7A074",
"a  c #D29F40",
"s  c #D3A144",
"d  c #D5A44A",
"f  c #D6A851",
"g  c #C0A267",
"h  c #DCB56D",
"j  c #CAAC76",
"k  c #CFB27F",
"l  c #D7B677",
"z  c #DCB770",
"x  c #3566A4",
"c  c #3768A6",
"v  c #3969A6",
"b  c #3D6DA9",
"n  c #6D7E95",
"m  c #647B9A",
"M  c #416FAA",
"N  c #4472AC",
"B  c #4E79AF",
"V  c #4F7AB1",
"C  c #527EB4",
"Z  c #748294",
"A  c #5C85B3",
"S  c #5E88B4",
"D  c #5080B8",
"F  c #5C88BB",
"G  c #638ABA",
"H  c #688EBA",
"J  c #6C93BC",
"K  c #7F97B3",
"L  c #7396BE",
"P  c #6E96C2",
"I  c #7497C1",
"U  c #769BC2",
"Y  c #7A9DC3",
"T  c #739CCA",
"R  c #7CA0C5",
"E  c #7DA5CF",
"W  c #86898E",
"Q  c #8E8E8E",
"!  c #95938A",
"~  c #99988E",
"^  c #808D9E",
"/  c #939392",
"(  c #979992",
")  c #9A9C94",
"_  c #9C9C9A",
"`  c #A29987",
"'  c #A69D8B",
"]  c #9FA19A",
"[  c #BFAE84",
"{  c #A0A29C",
"}  c #B6B09F",
"|  c #BAB19F",
" . c #959EA9",
".. c #8298B3",
"X. c #849BB9",
"o. c #8FA0B5",
"O. c #96A7BD",
"+. c #99AABB",
"@. c #A6A6A5",
"#. c #A7A9A4",
"$. c #ACACAA",
"%. c #B1AFAC",
"&. c #BAB3A4",
"*. c #B1B3AE",
"=. c #BCB9AE",
"-. c #B4B4B4",
";. c #BCBDBB",
":. c #C5B598",
">. c #C6BCA7",
",. c #C1B9AA",
"<. c #D2B6AB",
"1. c #C0BEBB",
"2. c #BFC0BC",
"3. c #E0C88B",
"4. c #E1D09A",
"5. c #D8C9AD",
"6. c #C7C6BF",
"7. c #E3D7A5",
"8. c #81A3C6",
"9. c #83A5CB",
"0. c #86A8CB",
"q. c #8CABCD",
"w. c #96A9C1",
"e. c #92AECC",
"r. c #98AEC9",
"t. c #8CAED1",
"y. c #93B3D4",
"u. c #9FB9D5",
"i. c #9FBAD9",
"p. c #A3B5C9",
"a. c #AEBECF",
"s. c #B5BEC8",
"d. c #A4BDD9",
"f. c #B2C0CF",
"g. c #BCC3CC",
"h. c #B7C4D4",
"j. c #BAC7D5",
"k. c #BFCBD8",
"l. c #BFD1E4",
"z. c #C3C3C3",
"x. c #C6C9CC",
"c. c #CBCBCA",
"v. c #D8D4CE",
"b. c #C2CEDA",
"n. c #CDD1D7",
"m. c #C6D1DE",
"M. c #CAD2DB",
"N. c #D4D3D2",
"B. c #D9DAD7",
"V. c #D4D6D8",
"C. c #DCDCDC",
"Z. c #E0C3C2",
"A. c #E7CEC8",
"S. c #E0D8CA",
"D. c #E0DDD7",
"F. c #F4D2D2",
"G. c #F0DEDE",
"H. c #E3E2DD",
"J. c #D2DAE3",
"K. c #D8DDE4",
"L. c #DDE1E6",
"P. c #DBE3EC",
"I. c #E4E4E4",
"U. c #EBE7E0",
"Y. c #EBEAE6",
"T. c #E5E7EA",
"R. c #E5E9EE",
"E. c #ECECEC",
"W. c #F0EDE8",
"Q. c #F2F0EE",
"!. c #E2E9F2",
"~. c #ECF1F6",
"^. c #F2F2F2",
"/. c #FAF7F6",
"(. c #FDFDFD",
"). c None",
/* pixels */
").).).).).).).).).).).).).).).).).).).).).).).).).).).  ).).).).",
").).x v c ).).).).).).).).).).).).).).).).).).).).)..   ).).).).",
").).x I u.M x ).).).).).).).).).).).).).).).).).).o & X ).).).).",
").).).N l.e.N ).).).).).).).).).).).).).).).).).o i 1 ).).).).).",
").).).c I G q.N ).).).).).).).).).).).).).).).o [ 4.< ).).).).).",
").).).x V d.9.q.N ).).).).).).).).).).).).).).w 3.7.> ).).).).).",
").).).x c y.y.8.Y v ).).).).).).).).).).).).o k s 7 + ).).).).).",
").).).x ).C d.8.R H c ).).).).).).).).).).).2 h 9 - X ).).).).).",
").).).x ).x 9.y.R Y B x ).).).).).).).).).o j s 6 o ).).).).).).",
").).).).x ).N y.t.I J b m / / Q Q Q Q Q * , h 9 ; X ).).).).).).",
").).).).x x x F t.9.P A v n.H.I.I.c.-.$.# g s 5 O ).).).).).).).",
").).).).).x x v T t.R J N V /.E.I.).).3 : h 0 = @ ).).).).).).).",
").).).).).x x x N E t.U S x q.E.I.).).@ r d 8 O 4 ).).).).).).).",
").).).).).).x n Q D 9.0.J c x K.I.).u % z 0 = O ( ).).).).).).).",
").).).).).).).).Q Z F P b V N A I.).$ q f 8 % ~ ( ).).).).).).).",
").).).).).).).)./  .W ^ +.e.J b r.` # l e u ( ;.( ).).).).).).).",
").).).).).).).).Q (.L K g.x.V.T.L.v.z.=.} =.H.Y.] ).).).).).).).",
").).).).).).).).Q I.).Y !.(.(.P.j.s.S.5.:.| Q.B.] ).).).).).).).",
").).).).).).).)./ V.).).P.(.(.R.b.p.>.j y =.Q.c.) ).).).).).).).",
").).).).).).).)./ z.).).~.(.(.R.M.a.+.p t B.^.2.).).).).).).).).",
").).).).).).).).).-.).).(.(.(.R.J.j.O.! ' C.^.$.).).).).).).).).",
").).).).).).).).).@.).).(.(.(.P.J.b.p...z.C.^.{ ).).).).).).).).",
").).).).).).).).)._ ).).(.(.(.K.m.M.f.X.O.C.^.( ).).).).).).).).",
").).).).).).).).).Q ).).(.(./.I.h.k.a.X.o.C.T.] ).).).).).).).).",
").).).).).).).).).Q ^.)./././.Y.n.p.w.s.@.C.B.{ ).).).).).).).).",
").).).).).).).).)./ C.).Y.E./.G.Z.%.-.c.;.z.c.{ ).).).).).).).).",
").).).).).).).).)./ z.).D.W./.F.<.&.1.$.*.s.2.( ).).).).).).).).",
").).).).).).).).).Q -.E.C.U.Q.A.,.%.$.$.$.;.*.).).).).).).).).).",
").).).).).).).).).)./ I.E.^.Q.v.1.-.-.;.N.N.) ).).).).).).).).).",
").).).).).).).).).).)._ z.E./.E.I.C.V.z.#.( ).).).).).).).).).).",
").).).).).).).).).).).).).z.C.^.I.N.1.@.).).).).).).).).).).).).",
").).).).).).).).).).).).).).).).).).).).).).).).).).).).).).).)."
};
