/* XPM */
static char *atlas_xpm[] = {
/* columns rows colors chars-per-pixel */
"24 24 147 2 ",
"   c #1A374F",
".  c #1D3B54",
"X  c #244257",
"o  c #2A475C",
"O  c #244661",
"+  c #2B5172",
"@  c #345772",
"#  c #3A5F7E",
"$  c #405E74",
"%  c #40637C",
"&  c #4D667C",
"*  c #4D6A7F",
"=  c #375E83",
"-  c #2D628B",
";  c #36658E",
":  c #3A678E",
">  c #3A6992",
",  c #376D9A",
"<  c #3C72A2",
"1  c #3D77A8",
"2  c #406584",
"3  c #4B6D84",
"4  c #41688D",
"5  c #4A6C89",
"6  c #546C82",
"7  c #4E718A",
"8  c #537088",
"9  c #5A798F",
"0  c #436D94",
"q  c #41729E",
"w  c #4F779F",
"e  c #597A94",
"r  c #637D93",
"t  c #4077A5",
"y  c #4579A7",
"u  c #4E79A3",
"i  c #467CAB",
"p  c #4A7EAD",
"a  c #547FAB",
"s  c #487FB0",
"d  c #5582AD",
"f  c #5D85A9",
"g  c #4E88BB",
"h  c #578ABD",
"j  c #5A8CBD",
"k  c #608AA7",
"l  c #608FAF",
"z  c #6491AE",
"x  c #7094AD",
"c  c #628AB3",
"v  c #6A8FB6",
"b  c #6494B4",
"n  c #6994B0",
"m  c #6D95BF",
"M  c #7296B4",
"N  c #739AB5",
"B  c #7E9CB4",
"V  c #789FBB",
"C  c #76A2BE",
"Z  c #7CA3BF",
"A  c #5E8FC1",
"S  c #5F94C2",
"D  c #5E95CA",
"F  c #6298C2",
"G  c #6A9DC5",
"H  c #6295C9",
"J  c #6599CE",
"K  c #6B9BCD",
"L  c #749AC5",
"P  c #759ECA",
"I  c #669DD0",
"U  c #699CD1",
"Y  c #6CA0CD",
"T  c #76A3C1",
"R  c #7CA5C4",
"E  c #74A5C9",
"W  c #7BA3CD",
"Q  c #7EADC9",
"!  c #6DA1D2",
"~  c #73A4D3",
"^  c #7AA7D4",
"/  c #77A9D5",
"(  c #7BACD6",
")  c #7EB0D7",
"_  c #839FB5",
"`  c #819FB9",
"'  c #83A4BE",
"]  c #8FA6B8",
"[  c #8BA8BD",
"{  c #82ACCC",
"}  c #96AFC4",
"|  c #87B1CC",
" . c #8AB0CB",
".. c #94B0C4",
"X. c #93B4CC",
"o. c #80A7D1",
"O. c #83AFD6",
"+. c #88AFD8",
"@. c #83B3D7",
"#. c #8CB5D3",
"$. c #8DBAD5",
"%. c #84B4D8",
"&. c #8BB4D9",
"*. c #8CBBDB",
"=. c #93B6D3",
"-. c #96B9D5",
";. c #9CBED5",
":. c #93BDDC",
">. c #9FBED9",
",. c #A9BCCB",
"<. c #A6BED4",
"1. c #9EC1D5",
"2. c #94C1DD",
"3. c #9BC1DD",
"4. c #A3C0D7",
"5. c #AAC3D7",
"6. c #A4C3D9",
"7. c #ADC7DC",
"8. c #ADCADD",
"9. c #B4CDDD",
"0. c #BFD2DF",
"q. c #9DC4E1",
"w. c #A3C6E1",
"e. c #A4CDE3",
"r. c #ACCCE3",
"t. c #B4CEE2",
"y. c #AAD2E4",
"u. c #B3D4E6",
"i. c #BAD2E4",
"p. c #B2D8E7",
"a. c #B5D2E8",
"s. c #BCD7E9",
"d. c #B7DBE9",
"f. c #BED8EA",
"g. c #C3D7E5",
"h. c #CADAE7",
"j. c #C3DBEC",
"k. c #C9DDEA",
"l. c #C4E4ED",
"z. c #CBE0ED",
"x. c #CAE9EE",
"c. c #D4E2EC",
"v. c #CEE3F0",
"b. c #D1E3F0",
"n. c #DDEAF2",
"m. c #E1F3F5",
"M. c None",
/* pixels */
"M.M.M.M.M.M.M.M.M.M.M.M.M.M.M.M.M.M.M.M.M.M.M.M.",
"M.M.M.M.M.M.M.M.< y y g i 1 , - M.M.M.M.M.M.M.M.",
"M.M.M.M.M.M.i S Y ~ ! ! ! I D g 1 : M.M.M.M.M.M.",
"M.M.M.M.M.F 2.e.2.%.( / / ~ ~ K o.7.' M.M.M.M.M.",
"M.M.M.M.E j.x.e.*.%.) ) { X.=.6.c.b.6.R 6 M.M.M.",
"M.M.M.G v.m.y.*.%.) %.%.{ 5.b.n.b.s.s.r.` M.M.M.",
"M.M.p y.m.p.*.@.%.*.*.*.$.X.t.j.f.j.j.f.4.r M.M.",
"M.M.G l.d.*.) @.) *.2.2.2.-.X.a.f.s.s.s.a._ M.M.",
"M.< ) p.2.) ) ) *.2.2.2.2.2. .1.a.a.i.<.} B & M.",
"M.i ) 2.%.) %.*.2.$.4.8.6.1.X.9.j.t.] M c f 8 M.",
"M.p / ) ) ) @.*.*.$.y.l.s.s.0.x.9...M +.W d 5 M.",
"M.p ~ / ( ) *.*.2.$.| e.3.q.e.6.[ N +.:.W a : M.",
"M.p U ~ / ) %.*.2.$.1.w.2.:.:.4.B | 2.&.W a # M.",
"M.i J ~ / ) %.*.*.Q ;.:.&.$.#.{ N 2.:.&.P u @ M.",
"M.q H U / ( %.*.2.Q b R { | #.n L q.:.+.G 4 O M.",
"M.; j U ~ ( ) *.*.*.T z l V x k R 3.&.o.c =   M.",
"M.M.p H ~ ^ ) %.&.*.2.:.T z T #.:.:.+.L w + M.M.",
"M.M.; j K ~ ^ O.&.*.*.:.*.#.3.:.:.+.W v 4 . M.M.",
"M.M.M.q A K ~ ^ ( O.&.>.=.#.=.&.&.-.<._ $ M.M.M.",
"M.M.M.M.q A P =.>.7.g.b.t.4.7.i.h.c.,.& M.M.M.M.",
"M.M.M.M.M.> { h.k.k.j.a.r.t.f.g.g.] $ M.M.M.M.M.",
"M.M.M.M.M.M.e x T  .=.=.-.-..._ 9 o M.M.M.M.M.M.",
"M.M.M.M.M.M.M.M.@ % 5 7 7 3 $ X M.M.M.M.M.M.M.M.",
"M.M.M.M.M.M.M.M.M.M.M.M.M.M.M.M.M.M.M.M.M.M.M.M."
};
