/* XPM */
static char *atlas_xpm[] = {
/* columns rows colors chars-per-pixel */
"32 32 204 2 ",
"   c #0C1A26",
".  c #0F202F",
"X  c #112533",
"o  c #142B3D",
"O  c #22303C",
"+  c #142E42",
"@  c #163146",
"#  c #1B3445",
"$  c #17344A",
"%  c #243F52",
"&  c #2D475B",
"*  c #32495C",
"=  c #204462",
"-  c #224867",
";  c #2B4C65",
":  c #20486A",
">  c #2A4D6A",
",  c #334E61",
"<  c #2D516B",
"1  c #3A5268",
"2  c #255173",
"3  c #2A5274",
"4  c #255379",
"5  c #2C567A",
"6  c #27597F",
"7  c #2B587E",
"8  c #345A76",
"9  c #40576A",
"0  c #4A5F72",
"q  c #4E677E",
"w  c #2D5A81",
"e  c #335E86",
"r  c #2E628D",
"t  c #316087",
"y  c #3F6987",
"u  c #3B648B",
"i  c #39688D",
"p  c #336691",
"a  c #346C9C",
"s  c #3673A3",
"d  c #3B73A3",
"f  c #3878AE",
"g  c #466C86",
"h  c #4E728E",
"j  c #5A7288",
"k  c #426A92",
"l  c #466F98",
"z  c #46759C",
"x  c #4B789F",
"c  c #527892",
"v  c #537E9D",
"b  c #5F7E99",
"n  c #4077A5",
"m  c #4C76A0",
"M  c #4D7AA1",
"N  c #437AA9",
"B  c #4D7DA9",
"V  c #517AA3",
"C  c #537EAB",
"Z  c #56819C",
"A  c #5C829C",
"S  c #5381A3",
"D  c #5984A5",
"F  c #5781AD",
"G  c #5C85AE",
"H  c #5C8CAA",
"J  c #4B83B7",
"K  c #4483BA",
"L  c #4984BB",
"P  c #4988BD",
"I  c #568BB0",
"U  c #5787B9",
"Y  c #5088BC",
"T  c #5C8CBE",
"R  c #6288A2",
"E  c #6A8CA4",
"W  c #628BAB",
"Q  c #708FA6",
"!  c #6490AE",
"~  c #6D91AC",
"^  c #7192A7",
"/  c #7795AD",
"(  c #6086B0",
")  c #628CB0",
"_  c #6794B1",
"`  c #6F9AB5",
"'  c #6A93BC",
"]  c #6E9FBE",
"[  c #759CB7",
"{  c #7F9EB3",
"}  c #75A0BB",
"|  c #7BA2BE",
" . c #4F8FC5",
".. c #5A8EC0",
"X. c #5392C7",
"o. c #5991C5",
"O. c #5392C9",
"+. c #5B95CB",
"@. c #6494C6",
"#. c #6396CB",
"$. c #629BCE",
"%. c #6C9CCF",
"&. c #7197C1",
"*. c #7198C3",
"=. c #769ECC",
"-. c #6D9ED1",
";. c #77A3C2",
":. c #7CA4C6",
">. c #75A3CD",
",. c #7BA4CC",
"<. c #6EA2D2",
"1. c #73A4D3",
"2. c #7AA7D6",
"3. c #76A9D5",
"4. c #7CACD6",
"5. c #7FB1D7",
"6. c #89A2B7",
"7. c #80A3BD",
"8. c #8EA7B8",
"9. c #99ACBD",
"0. c #83A3C1",
"q. c #87ADC7",
"w. c #8AAAC3",
"e. c #82A7CC",
"r. c #83ADCC",
"t. c #8BACCA",
"y. c #90ADC6",
"u. c #8CB2CD",
"i. c #95B0C3",
"p. c #94B3CC",
"a. c #9BB7CF",
"s. c #93B8CF",
"d. c #9EB9CD",
"f. c #83AAD4",
"g. c #8AAED0",
"h. c #84AED8",
"j. c #88AFDA",
"k. c #82B2D6",
"l. c #8BB5D4",
"z. c #8DBAD5",
"x. c #84B4D8",
"c. c #8BB5DB",
"v. c #87B9D9",
"b. c #8CBBDB",
"n. c #91B4D3",
"m. c #9AB7D2",
"M. c #93BAD4",
"N. c #99BBD3",
"B. c #90B7DC",
"V. c #92BCDC",
"C. c #A0B3C1",
"Z. c #A5BECF",
"A. c #A1BDD3",
"S. c #A1BFD9",
"D. c #93C2DD",
"F. c #99C2DE",
"G. c #9AC9DF",
"H. c #A1C1D4",
"J. c #A8C0D2",
"K. c #A3C3DD",
"L. c #ADC7DB",
"P. c #A3C8DF",
"I. c #B0C4D4",
"U. c #B9C9D7",
"Y. c #B0C7DA",
"T. c #B4CADB",
"R. c #BACDDE",
"E. c #BCD0DE",
"W. c #9DC3E0",
"Q. c #9EC8E0",
"!. c #A3C5E2",
"~. c #A4CBE2",
"^. c #ABCBE4",
"/. c #B1CEE5",
"(. c #A7D0E3",
"). c #ADD2E3",
"_. c #B3D2E6",
"`. c #BBD3E4",
"'. c #B1D8E7",
"]. c #B6D4E8",
"[. c #BBD6E9",
"{. c #B7DBE9",
"}. c #BED9EA",
"|. c #BEE3EA",
" X c #C4D7E5",
".X c #C5DCE7",
"XX c #CCDBE6",
"oX c #C3DBEB",
"OX c #D0DEE8",
"+X c #CAE3EE",
"@X c #CCEBEF",
"#X c #D3E3EB",
"$X c #DEE6EC",
"%X c #D3E6F1",
"&X c #DAE9F3",
"*X c #D6F0F2",
"=X c #DFF5F5",
"-X c #E3EDF2",
";X c #E5F0F6",
":X c #EBF2F6",
">X c #F1F7F9",
",X c #F3FBFB",
"<X c #FEFEFE",
"1X c None",
/* pixels */
"1X1X1X1X1X1X1X1X1X1X1X1X1X1X1X1X1X1X1X1X1X1X1X1X1X1X1X1X1X1X1X1X",
"1X1X1X1X1X1X1X1X1X1X1X1X1X2 6 p r 4 - 1X1X1X1X1X1X1X1X1X1X1X1X1X",
"1X1X1X1X1X1X1X1X1X1Xa K O.+.+.+.+.O. .K s 6 1X1X1X1X1X1X1X1X1X1X",
"1X1X1X1X1X1X1X1Xs +.1.2.4.3.<.<.<.<.%.$.o.P f 7 1X1X1X1X1X1X1X1X",
"1X1X1X1X1X1X: O.x.~.~.D.x.5.4.3.2.3.3.1.<.#.:.`.t.1 1X1X1X1X1X1X",
"1X1X1X1X1X4 $.).*X|.~.b.x.5.5.5.4.4.>.>.>.u.:X;XK.,.q 1X1X1X1X1X",
"1X1X1X1X: $.+X,X@X(.b.x.5.5.5.k.| d.T.Y.XX>X;X/./.K.r.0 1X1X1X1X",
"1X1X1X1XO.}.<X*X(.b.k.5.5.v.5.v.r.y..X;X-X+X[.}.}.}.L.0.1X1X1X1X",
"1X1X1Xs D.,X=X'.v.5.x.5.v.v.v.b.b.q.d.}.oXoXoXoXoXoX[.S.j 1X1X1X",
"1X1X1X$.+X=X'.b.x.5.x.v.v.b.D.D.D.V.w.K.}.}.}.[.}.[. X^.7.1X1X1X",
"1X1Xa v.@X{.D.5.5.v.x.v.b.D.D.F.G.G.z.w./.[.[.[.].[. X XN.9 1X1X",
"1X1XP V.{.W.v.5.5.5.v.b.D.D.D.F.F.D.G.w.n.).].].[.U.i.6.0.b 1X1X",
"1X1X+.B.Q.v.5.5.5.v.b.D.D.v.N.N.s.u.u.| p.%X_.`.C.E ) F v ~ O 1X",
"1X2 $.h.v.5.4.5.5.v.b.D.l.H.;X&X%X+X.XE.:X&X/.T.E ,.x.=.C W * 1X",
"1Xw $.2.4.4.4.5.v.v.b.b.z.q.'.~.^.^.).{.].L.i./ _ B.j.=.C S , 1X",
"1Xt #.<.1.2.4.5.v.v.D.D.D.} P.Q.W.W.K.F.W.H.A } V.B.j.=.C V & 1X",
"1Xw +.-.1.3.4.5.v.v.b.D.F.} ).F.V.F.F.F.F.Z.R F.F.B.j.=.C m % 1X",
"1X5 +.%.<.1.4.5.v.b.b.D.b.s.%XB.B.B.z.B.H.^ ` Q.D.B.h.=.V z # 1X",
"1X- o.$.<.3.2.5.x.v.b.D.] [ l.k.l.c.x.l.7.Z D.W.D.B.h.&.m i X 1X",
"1X1XY #.-.1.2.4.x.v.b.D.z.H I u.r.k.l.M.` S F.W.V.B.f.' l 5 1X1X",
"1X1XN @.%.1.2.5.5.v.b.B.D.b.S Z S ;.i.~ Z v V.W.B.j.=.G k = 1X1X",
"1X1Xw ..#.-.1.2.5.h.v.b.V.D.B.z._ D Z D | V.D.V.B.j.' V e + 1X1X",
"1X1X1XJ @.%.1.1.4.5.v.c.b.D.D.F.D.H l.Q.G.W.V.B.j.,.( k 3 1X1X1X",
"1X1X1X7 ..#.-.1.2.5.x.j.c.b.B.V.b.V.F.V.V.B.B.j.,.' D u @ 1X1X1X",
"1X1X1X1Xd ..@.=.1.2.5.h.h.c.c.n.t.l.B.B.B.j.j.e.y.Z./ < 1X1X1X1X",
"1X1X1X1X1XN T @.=.>.>.2.f.u.L.$XR.w.t.g.n.m.U.#X-XC.8 1X1X1X1X1X",
"1X1X1X1X1X@ n U ' N.E. XOX-X>X&X[._..X#X-X:X:X$X8.8   1X1X1X1X1X",
"1X1X1X1X1X1X1Xp ' -X&X+XoX[.^.W.!.^././.`.`.I.Q ; 1X1X1X1X1X1X1X",
"1X1X1X1X1X1X1X1Xh | :.l.S.F.F.K.K.S.!.K.d.{ g @ 1X1X1X1X1X1X1X1X",
"1X1X1X1X1X1X1X1X1Xo ; g v ! ` [ [ [ ~ c < @ 1X1X1X1X1X1X1X1X1X1X",
"1X1X1X1X1X1X1X1X1X1X1X1X1XX + $ $ o . 1X1X1X1X1X1X1X1X1X1X1X1X1X",
"1X1X1X1X1X1X1X1X1X1X1X1X1X1X1X1X1X1X1X1X1X1X1X1X1X1X1X1X1X1X1X1X"
};
