/* XPM */
static char *chart30_xpm[] = {
/* columns rows colors chars-per-pixel */
"32 32 137 2 ",
"   c #9F9146",
".  c #A5974E",
"X  c #A59A5F",
"o  c #AA9D5C",
"O  c #A59A62",
"+  c #A59B62",
"@  c #A69B64",
"#  c #A79D65",
"$  c #A89E6B",
"%  c #AEA368",
"&  c #ADA26D",
"*  c #AFA56D",
"=  c #AAA171",
"-  c #AAA275",
";  c #ABA276",
":  c #ABA377",
">  c #ACA479",
",  c #ACA47B",
"<  c #ACA57D",
"1  c #ADA57D",
"2  c #ADA67F",
"3  c #B3AA7D",
"4  c #ADA680",
"5  c #B0AA8A",
"6  c #B1AB8C",
"7  c #B1AB8E",
"8  c #B3AD8D",
"9  c #B8B086",
"0  c #B6B08F",
"q  c #BAB38B",
"w  c #B2AC90",
"e  c #B2AD92",
"r  c #B3AE94",
"t  c #B3AE95",
"y  c #B4AF97",
"u  c #B7B296",
"i  c #BAB495",
"p  c #B8B39B",
"a  c #BCB79D",
"s  c #BEB89B",
"d  c #B6B3A0",
"f  c #B6B3A1",
"g  c #B6B3A2",
"h  c #B7B4A3",
"j  c #B9B5A2",
"k  c #BFBAA4",
"l  c #B8B6A9",
"z  c #B9B6AA",
"x  c #B9B7AB",
"c  c #BAB8AD",
"v  c #BEBBAF",
"b  c #BFBCAE",
"n  c #BEBCAF",
"m  c #BFBDB1",
"M  c #BCBBB4",
"N  c #BCBAB5",
"B  c #BCBBB5",
"V  c #BDBBB5",
"C  c #BDBDBB",
"Z  c #BEBEBA",
"A  c #BEBEBD",
"S  c gray",
"D  c #C1BCA2",
"F  c #C3BEA4",
"G  c #C3BEA9",
"H  c #C1BFB3",
"J  c #C0BEB4",
"K  c #C1BFB7",
"L  c #C6C1A8",
"P  c #C6C1A9",
"I  c #C8C4AE",
"U  c #C2C0B4",
"Y  c #C2C0B5",
"T  c #C8C5B7",
"R  c #C5C3B8",
"E  c #C6C4B8",
"W  c #C7C5B8",
"Q  c #CAC7B8",
"!  c #CBC8BA",
"~  c #CCC9BE",
"^  c #CDCBBF",
"/  c #C8C7C0",
"(  c #CAC9C1",
")  c #CBC9C3",
"_  c #CAC9C4",
"`  c #C8C8C7",
"'  c #C6C6C8",
"]  c #C7C7C9",
"[  c #C9C9CB",
"{  c #CCCBC9",
"}  c #CDCCC9",
"|  c #CECDC9",
" . c #CFCECB",
".. c #CCCCCD",
"X. c #CCCCCE",
"o. c #D0CFC8",
"O. c #D0CFCF",
"+. c #D5D2C7",
"@. c #D2D1CA",
"#. c #D9D7CC",
"$. c #DBD9CF",
"%. c #CECED0",
"&. c #CFCFD1",
"*. c #D0D0D0",
"=. c #D0D0D2",
"-. c #D3D2D2",
";. c #D2D2D3",
":. c #D3D3D3",
">. c #D3D3D5",
",. c #D4D4D6",
"<. c #D5D5D7",
"1. c #D7D7D8",
"2. c #D7D7D9",
"3. c #D8D8DA",
"4. c #D9D9DB",
"5. c #DADADB",
"6. c #DADADC",
"7. c #DBDBDC",
"8. c #DBDBDD",
"9. c #DDDDDF",
"0. c #DEDEDF",
"q. c #E2E2E3",
"w. c #E3E3E5",
"e. c #E3E3E6",
"r. c #E4E4E6",
"t. c #E6E6E7",
"y. c #E7E7E9",
"u. c #E9E9EA",
"i. c #EBEBEC",
"p. c #EDEDEE",
"a. c #F0F0ED",
"s. c #F0F0F1",
"d. c #F3F3F4",
"f. c #F7F6F6",
"g. c #FCFCFC",
"h. c gray100",
"j. c None",
/* pixels */
"j.j.j.j.j.j.j.j.j.j.j.j.j.j.j.j.j.j.j.j.j.j.j.j.j.j.j.j.j.j.j.j.",
"j.j.j.j.j.j.j.j.j.j.j.j.j.j.j.j.j.j.j.j.j.j.j.j.j.j.j.j.j.j.j.j.",
"j.j.j.j.j.j.j.j.j.j.j.j.j.j.j.j.j.j.j.j.j.j.j.j.j.j.j.j.j.j.j.j.",
"j.u.r.w.w.w.w.w.w.3.r.w.w.w.w.r.3.r.w.w.w.w.r.3.r.w.w.w.w.r.p.j.",
"j.w.h.h.h.h.h.h.h.5.h.h.h.h.h.h.5.h.h.h.h.h.h.5.h.h.h.h.h.h.w.j.",
"j.w.h.h.h.h.h.h.h.3.h.h.h.h.h.h.5.h.h.h.h.h.h.5.h.h.h.h.h.h.w.j.",
"j.w.h.h.h.h.h.h.h.5.h.h.h.h.h.h.5.h.h.h.h.h.h.5.h.h.h.h.h.h.w.j.",
"j.q.7.5.5.5.5.5.5.%.5.5.5.5.5.5.X.5.5.5.5.5.5.%.5.5.5.5.5.8.r.j.",
"j.w.h.h.h.h.h.h.h.5.h.h.h.h.h.h.h.h.h.h.h.h.h.5.h.h.h.h.h.h.w.j.",
"j.w.h.h.h.h.h.h.h.5.h.h.h.h.h.h.h.h.h.h.h.h.h.5.h.h.h.h.h.h.w.j.",
"j.w.h.h.h.h.h.h.h.3.h.h.h.h.h.h.h.h.h.h.h.h.h.5.h.h.h.h.h.h.w.j.",
"j.q.7.5.3.5.5.5.5.%.h.h.h.h.h.h.h.h.h.h.h.h.h.%.5.5.5.5.5.7.r.j.",
"j.w.h.h.h.h.h.h.h.5.h.h.h.h.h.h.h.h.h.h.h.h.h.5.h.h.h.h.h.h.w.j.",
"j.w.h.h.h.h.h.h.h.5.h.h.h.h.h.h.h.h.h.h.h.h.h.5.h.h.h.h.h.h.w.j.",
"j.w.h.h.h.h.h.h.h.5.h.h.h.h.h.h.h.h.h.h.h.h.h.5.h.h.h.h.h.h.w.j.",
"j.q.7.5.5.5.5.5.5.%.5.5.5.5.5.5.%.5.5.5.5.5.5.%.5.5.5.5.5.8.r.j.",
"j.w.h.h.h.h.h.h.h.5.h.h.h.h.h.h.5.h.h.h.h.h.h.5.h.h.h.h.h.h.w.j.",
"j.w.h.h.h.h.h.h.h.5.h.h.h.h.h.h.5.h.h.h.h.h.h.5.h.h.h.h.h.h.w.j.",
"j.w.h.h.h.h.h.h.h.8.h.h.h.h.h.h.8.h.h.h.h.h.h.7.h.h.h.h.h.h.w.j.",
"j.y.' ' ' ' ' ' [ [ ' ' ' ' ' [ [ ' ' ' ' ' ' [ ' ' ' ' ' ' y.j.",
"j.u.X.X S S S S S m X.X.X.X.X.[ & 6 S S S K X.k # S S Z ` X.u.j.",
"j.i.=.X < S S S x S n =.=.=.=.a e 4 S S f S {   S S S $ S %.p.j.",
"j.p.,.O < N >.X.7 S S >.,.,.,.Q S S ) * S x a f - n D S S ` p.j.",
"j.s.5.X < N 5.5.L S x ) 3.3.3.7.) i S S N S q S S  .@.7 ; U s.j.",
"j.d.>.X < V ,.,.Q f < U 3.>.>.>.>.>.S S r S 3 S S O.:.- O b s.j.",
"j.i.3.X < N 3.5.L h 4 0 S S S S T  .5.o.c - u S S :.@.; O H p.j.",
"j.p.,.X < N >.,.% S x / S S S S S S >.~ - # j S S  .D 7 < H p.j.",
"j.s.5.X < m ) 9 = S S ,.3.3.3.I S S W o S 6 R r > n . S S  .s.j.",
"j.d.7.O < S S S x S H 5.3.5.5.5.p r S S < S 3.G S S S - S 5.s.j.",
"j.h.h.+.S S S S S #.h.h.h.h.h.h.h.R S S S a.h.h.$.S S Z f.h.h.j.",
"j.j.j.j.j.j.j.j.j.j.j.j.j.j.j.j.j.j.j.j.j.j.j.j.j.j.j.j.j.j.j.j.",
"j.j.j.j.j.j.j.j.j.j.j.j.j.j.j.j.j.j.j.j.j.j.j.j.j.j.j.j.j.j.j.j."
};
