/* XPM */
static char *chart12_xpm[] = {
/* columns rows colors chars-per-pixel */
"32 32 120 2 ",
"   c #9D8F43",
".  c #A09144",
"X  c #A19349",
"o  c #A49859",
"O  c #A79B58",
"+  c #A4985A",
"@  c #A4995C",
"#  c #A59A5F",
"$  c #A69B64",
"%  c #A89F6C",
"&  c #AEA368",
"*  c #ABA16C",
"=  c #B0A56A",
"-  c #A9A070",
";  c #AAA171",
":  c #ABA375",
">  c #ADA57D",
",  c #ADA67F",
"<  c #ADA680",
"1  c #ADA681",
"2  c #B4AC83",
"3  c #B0A987",
"4  c #B1AB8C",
"5  c #B1AB8D",
"6  c #B3AD8D",
"7  c #B8B086",
"8  c #B6B08F",
"9  c #BBB48D",
"0  c #B2AD93",
"q  c #B3AF96",
"w  c #B4AF98",
"e  c #BEB690",
"r  c #BBB597",
"t  c #BDB795",
"y  c #B5B19C",
"u  c #BEB89C",
"i  c #B6B3A1",
"p  c #B6B3A2",
"a  c #B7B4A3",
"s  c #B8B5A5",
"d  c #B8B6A9",
"f  c #B9B6AA",
"g  c #B9B7AB",
"h  c #BCB9AB",
"j  c #BEBBAF",
"k  c #BEBCAF",
"l  c #BBBAB1",
"z  c #BCBAB1",
"x  c #BCBBB2",
"c  c #BDBBB2",
"v  c #BEBCB0",
"b  c #BFBCB0",
"n  c #BCBBB4",
"m  c #BCBBB5",
"M  c #BDBBB5",
"N  c #BCBCB8",
"B  c #BDBCB9",
"V  c #BDBDBA",
"C  c gray",
"Z  c #C1BFB3",
"A  c #C0BEB4",
"S  c #C1BFB6",
"D  c #C5C0A5",
"F  c #C6C1A8",
"G  c #C6C1A9",
"H  c #C2C0B5",
"J  c #C2C0B8",
"K  c #C6C4B8",
"L  c #C7C6BE",
"P  c #CAC7B8",
"I  c #C9C7BD",
"U  c #CBC9BC",
"Y  c #CDCBBF",
"T  c #C8C7C0",
"R  c #CBC9C3",
"E  c #C9C8C5",
"W  c #C6C6C8",
"Q  c #C7C7C9",
"!  c #C9C9CB",
"~  c #CCCCCE",
"^  c #D0CFCF",
"/  c #D5D2C7",
"(  c #D2D1CA",
")  c #D0D0CF",
"_  c #D4D3CF",
"`  c #D9D7CC",
"'  c #DAD8CD",
"]  c #CECED0",
"[  c #D0D0D0",
"{  c #D2D1D0",
"}  c #D3D2D1",
"|  c #D0D0D2",
" . c #D2D2D3",
".. c #D4D4D6",
"X. c #D5D5D7",
"o. c #D6D6D8",
"O. c #D7D7D8",
"+. c #D7D7D9",
"@. c #D8D8DA",
"#. c #D9D9DB",
"$. c #DADADB",
"%. c #DADADC",
"&. c #DBDBDC",
"*. c #DBDBDD",
"=. c #DDDDDF",
"-. c #DEDEDF",
";. c #E2E2E3",
":. c #E3E3E5",
">. c #E3E3E6",
",. c #E4E4E6",
"<. c #E6E6E7",
"1. c #E7E7E9",
"2. c #E9E9EA",
"3. c #EBEBEC",
"4. c #EDEDEE",
"5. c #F0F0F1",
"6. c #F3F3F4",
"7. c #F6F6F5",
"8. c gray100",
"9. c None",
/* pixels */
"9.9.9.9.9.9.9.9.9.9.9.9.9.9.9.9.9.9.9.9.9.9.9.9.9.9.9.9.9.9.9.9.",
"9.9.9.9.9.9.9.9.9.9.9.9.9.9.9.9.9.9.9.9.9.9.9.9.9.9.9.9.9.9.9.9.",
"9.9.9.9.9.9.9.9.9.9.9.9.9.9.9.9.9.9.9.9.9.9.9.9.9.9.9.9.9.9.9.9.",
"9.2.,.:.:.:.:.:.:.@.,.:.:.:.:.,.@.,.:.:.:.:.,.@.,.:.:.:.:.,.4.9.",
"9.:.8.8.8.8.8.8.8.$.8.8.8.8.8.8.$.8.8.8.8.8.8.$.8.8.8.8.8.8.:.9.",
"9.:.8.8.8.8.8.8.8.@.8.8.8.8.8.8.$.8.8.8.8.8.8.$.8.8.8.8.8.8.:.9.",
"9.:.8.8.8.8.8.8.8.$.8.8.8.8.8.8.$.8.8.8.8.8.8.$.8.8.8.8.8.8.:.9.",
"9.;.&.$.$.$.$.$.$.] $.$.$.$.$.$.~ $.$.$.$.$.$.] $.$.$.$.$.*.,.9.",
"9.:.8.8.8.8.8.8.8.$.8.8.8.8.8.8.8.8.8.8.8.8.8.$.8.8.8.8.8.8.:.9.",
"9.:.8.8.8.8.8.8.8.$.8.8.8.8.8.8.8.8.8.8.8.8.8.$.8.8.8.8.8.8.:.9.",
"9.:.8.8.8.8.8.8.8.@.8.8.8.8.8.8.8.8.8.8.8.8.8.$.8.8.8.8.8.8.:.9.",
"9.;.&.$.@.$.$.$.$.] 8.8.8.8.8.8.8.8.8.8.8.8.8.] $.$.$.$.$.&.,.9.",
"9.:.8.8.8.8.8.8.8.$.8.8.8.8.8.8.8.8.8.8.8.8.8.$.8.8.8.8.8.8.:.9.",
"9.:.8.8.8.8.8.8.8.$.8.8.8.8.8.8.8.8.8.8.8.8.8.$.8.8.8.8.8.8.:.9.",
"9.:.8.8.8.8.8.8.8.$.8.8.8.8.8.8.8.8.8.8.8.8.8.$.8.8.8.8.8.8.:.9.",
"9.;.&.$.$.$.$.$.$.] $.$.$.$.$.$.] $.$.$.$.$.$.] $.$.$.$.$.*.,.9.",
"9.:.8.8.8.8.8.8.8.$.8.8.8.8.8.8.$.8.8.8.8.8.8.$.8.8.8.8.8.8.:.9.",
"9.:.8.8.8.8.8.8.8.$.8.8.8.8.8.8.$.8.8.8.8.8.8.$.8.8.8.8.8.8.:.9.",
"9.:.8.8.8.8.8.8.8.*.8.8.8.8.8.8.*.8.8.8.8.8.8.&.8.8.8.8.8.8.:.9.",
"9.1.W W W W W W ! ! W W W W W W ! W W W W W W ! W W W W W W 1.9.",
"9.2.~ # C C C C C S ! ~ ! ] ! ~ ~ ~ X C l ~ ~ r - C C C J ~ 2.9.",
"9.3.} # > C C C d C c } } ] ..] u * 1 w l } L + C C C q C E 3.9.",
"9.4...$ > n } ~ 8 C C } ........2 B -   l ..9 C p S _ y $ j 4.9.",
"9.5.@.@ > n $.@.G C d E @.@.@.@.} v 3 5 n @._ C C } D : % v 5.9.",
"9.6...# > n X...U y 1 S X...........+ 5 c ....[ ~ t + C C T 6.9.",
"9.3.@.# > n @.@.G s 1 8 C C C C @.@.+ 5 c @.@.( O B N C v @.3.9.",
"9.4.X.# > M ....& C d T C C C C ....+ 3 c ..} . C 0 C L ....4.9.",
"9.5.@.# > M R 2 - C C X.+.$.@.@.@.@.+ 5 c @.e s 6 j U U } @.5.9.",
"9.6.&.$ > C C C d C Z $.@.$.$.$.&.@.+ 5 c $.= C C C C C C j 5.9.",
"9.8.8./ S C C C C ` 8.8.8.8.8.8.8.8.` C S 8.7.C C C C C C K 8.9.",
"9.9.9.9.9.9.9.9.9.9.9.9.9.9.9.9.9.9.9.9.9.9.9.9.9.9.9.9.9.9.9.9.",
"9.9.9.9.9.9.9.9.9.9.9.9.9.9.9.9.9.9.9.9.9.9.9.9.9.9.9.9.9.9.9.9."
};
