/* XPM */
static char *chart8_xpm[] = {
/* columns rows colors chars-per-pixel */
"24 24 120 2 ",
"   c #A59B62",
".  c #A89E6C",
"X  c #A89F6D",
"o  c #AAA173",
"O  c #AFA675",
"+  c #ADA67E",
"@  c #B0A674",
"#  c #B1A97E",
"$  c #B7AF87",
"%  c #B0A988",
"&  c #B0AA89",
"*  c #B0AA8A",
"=  c #B5AE8D",
"-  c #B2AC90",
";  c #B2AD92",
":  c #B3AE94",
">  c #B6B090",
",  c #B6B197",
"<  c #B6B29F",
"1  c #B9B59D",
"2  c #B7B4A3",
"3  c #BFBBA8",
"4  c #BCB9AD",
"5  c #BEBBAF",
"6  c #BBBAB2",
"7  c #BBBAB3",
"8  c #BDBBB2",
"9  c #BFBCB0",
"0  c #BFBDB0",
"q  c #BEBCB5",
"w  c #BEBDBB",
"e  c #BEBDBC",
"r  c gray",
"t  c #C5BE99",
"y  c #C3BEA7",
"u  c #C2BFAF",
"i  c #C0BEB1",
"p  c #C0BEB2",
"a  c #C5C2B3",
"s  c #C6C3B3",
"d  c #C2C0B5",
"f  c #C2C0B6",
"g  c #C5C2B6",
"h  c #C7C5B8",
"j  c #CBC9BE",
"k  c #C7C6C5",
"l  c #CAC9C2",
"z  c #CCCAC2",
"x  c #CBCAC7",
"c  c #CECCC5",
"v  c #CCCCCA",
"b  c #CACACC",
"n  c #CBCBCD",
"m  c #CFCECC",
"M  c #CFCECD",
"N  c #CCCCCE",
"B  c #D0CECA",
"V  c #D0CFCD",
"C  c #D3D2D0",
"Z  c #D1D1D3",
"A  c #D2D2D3",
"S  c #D2D2D4",
"D  c #D4D4D5",
"F  c #D4D4D6",
"G  c #D5D5D7",
"H  c #D6D6D7",
"J  c #D5D5D8",
"K  c #D6D6D8",
"L  c #D7D7D9",
"P  c #DBDBDA",
"I  c #DADADB",
"U  c #DCDBDA",
"Y  c #DADADC",
"T  c #DCDCDD",
"R  c #DDDDDE",
"E  c #DDDDDF",
"W  c #DFDFDF",
"Q  c #EAE7D8",
"!  c #DEDEE0",
"~  c #DFDFE0",
"^  c #DFDFE1",
"/  c #E0DFE1",
"(  c #E0E0E1",
")  c #E1E1E2",
"_  c #E2E2E4",
"`  c #E3E3E4",
"'  c #E3E3E5",
"]  c #E4E4E5",
"[  c #E5E5E6",
"{  c #E5E5E7",
"}  c #E6E6E7",
"|  c #E6E6E8",
" . c #E7E7E8",
".. c #E7E7E9",
"X. c #E8E8E9",
"o. c #E9E9E9",
"O. c #E9E9EB",
"+. c #EAEAEB",
"@. c #EBEBEC",
"#. c #ECECEC",
"$. c #ECECED",
"%. c #EDEDEE",
"&. c #EFEFF0",
"*. c #F0F0F1",
"=. c #F1F1F1",
"-. c #F1F1F2",
";. c #F2F2F2",
":. c #F3F3F2",
">. c #F4F4F4",
",. c #F7F7F7",
"<. c #F7F7F8",
"1. c #F8F8F8",
"2. c #F8F8F9",
"3. c #F9F9F9",
"4. c #FBFBFB",
"5. c #FBFBFC",
"6. c #FCFCFC",
"7. c #FDFDFD",
"8. c #FFFFFF",
"9. c None",
/* pixels */
"9.9.9.9.9.9.9.9.9.9.9.9.9.9.9.9.9.9.9.9.9.9.9.9.",
"9.9.9.9.9.9.9.9.9.9.9.9.9.9.9.9.9.9.9.9.9.9.9.9.",
"9.X.| | | | _ ) X.| | { W | | | { W { X.| | X.9.",
"9.*.6.6.6.6.*.X.6.6.6.5.{ 6.6.6.5.{ 5.6.6.6.*.9.",
"9.*.6.6.6.6.,.@.6.6.6.6.{ 6.6.6.6.X.6.6.6.6.*.9.",
"9.{ X.X.X.X.) W X.X.X.{ W { X.X.X.L { X.X. .X.9.",
"9.*.5.6.6.6.*.X.6.6.6.6.6.6.6.6.6.{ 5.6.6.6.*.9.",
"9.*.6.6.6.6.,.$.6.6.6.6.6.6.6.6.6.{ 5.6.6.6.*.9.",
"9.{ | X. .{ ) X.6.6.6.6.6.6.6.6.6.) { { { { { 9.",
"9.*.6.6.6.4.*.$.6.6.6.6.6.6.6.6.6. .5.5.5.6.*.9.",
"9.*.6.6.6.6.:.$.6.6.6.6.6.6.6.6.6.X.6.6.6.6.*.9.",
"9.{  .X.X.X.) W X.X.X.X.) X.X.X.X.L {  .X.X.X.9.",
"9.*.6.r r r r r 8 :.6.,.{ 6.6.6.t r r r u 5.&.9.",
"9.*.6.r r r r r . r ,.6.X.6.6.Q r ; r r % f *.9.",
"9.) L r r m S x r % p H S L L h r r v O r r W 9.",
"9.L n r r k n n 1 7 r n n n n n r < r r r 4 T 9.",
"9.) S r r v S S g r r S S S S g r + w r w 5 ! 9.",
"9._ L r r n L L y p r > r r r = - r H l r r / 9.",
"9._ H r r V H H % 7 r p r r r ,   5 H S r r L 9.",
"9.) L r r z j $ r % p H L L L 3 ; r c O r r ) 9.",
"9._ L r r r r r X r H H L H L H r o r r 2 p ) 9.",
"9.$._ r r r r r q W _ { _ { _ { U w r r g ` $.9.",
"9.9.9.,.,.,.,.6.9.9.9.9.9.9.9.9.9.9.5.6.9.9.9.9.",
"9.9.9.9.9.9.9.9.9.9.9.9.9.9.9.9.9.9.9.9.9.9.9.9."
};
