/* XPM */
static char *chart2_xpm[] = {
/* columns rows colors chars-per-pixel */
"24 24 119 2 ",
"   c #A89E6C",
".  c #A89F6D",
"X  c #A89F6E",
"o  c #AAA275",
"O  c #AEA579",
"+  c #ACA47A",
"@  c #ACA47B",
"#  c #B1A97E",
"$  c #B0A985",
"%  c #B7AF87",
"&  c #B0A988",
"*  c #B0AA89",
"=  c #B0AA8A",
"-  c #B3AC88",
";  c #B6B090",
":  c #BAB493",
">  c #BBB593",
",  c #BBB597",
"<  c #B9B59D",
"1  c #BCB79E",
"2  c #B9B6AA",
"3  c #BEBBAF",
"4  c #BEBCAF",
"5  c #BBBAB2",
"6  c #BBBAB3",
"7  c #BCBAB2",
"8  c #BDBBB2",
"9  c #BCBAB4",
"0  c #BCBBB7",
"q  c #BEBCB5",
"w  c gray",
"e  c #C3BEA7",
"r  c #C0BDAF",
"t  c #C0BEB1",
"y  c #C0BEB2",
"u  c #C0BFB6",
"i  c #C5C2B3",
"p  c #C2C0B5",
"a  c #C3C1B6",
"s  c #C5C3B9",
"d  c #CAC7BB",
"f  c #CBC9BE",
"g  c #D5D0B4",
"h  c #C7C6C5",
"j  c #CBCAC3",
"k  c #CCCAC2",
"l  c #CBCAC7",
"z  c #CCCCCA",
"x  c #CBCBCD",
"c  c #CFCECC",
"v  c #CFCECD",
"b  c #CFCFCD",
"n  c #CCCCCE",
"m  c #CECECE",
"M  c #D1CFC8",
"N  c #D0CFCD",
"B  c #D0D0CF",
"V  c #D0CFD0",
"C  c #D1D1D3",
"Z  c #D2D2D2",
"A  c #D2D2D3",
"S  c #D2D2D4",
"D  c #D3D3D4",
"F  c #D4D4D5",
"G  c #D5D5D7",
"H  c #D6D6D7",
"J  c #D7D7D7",
"K  c #D5D5D8",
"L  c #D6D6D8",
"P  c #D7D7D9",
"I  c #DADADB",
"U  c #DADADC",
"Y  c #DCDCDD",
"T  c #DDDDDE",
"R  c #DDDDDF",
"E  c #DEDEDF",
"W  c #DFDFDF",
"Q  c #DEDEE0",
"!  c #DFDFE0",
"~  c #DFDFE1",
"^  c #E0E0E1",
"/  c #E1E1E2",
"(  c #E2E2E4",
")  c #E3E3E4",
"_  c #E3E3E5",
"`  c #E4E4E5",
"'  c #E5E5E6",
"]  c #E5E5E7",
"[  c #E6E6E7",
"{  c #E6E6E8",
"}  c #E7E7E8",
"|  c #E7E7E9",
" . c #E8E8E9",
".. c #E9E9E9",
"X. c #E9E9EB",
"o. c #EAEAEB",
"O. c #EBEBEC",
"+. c #ECECEC",
"@. c #ECECED",
"#. c #EDEDEE",
"$. c #F1EFE4",
"%. c #EFEFF0",
"&. c #F0F0F1",
"*. c #F1F1F1",
"=. c #F1F1F2",
"-. c #F2F2F2",
";. c #F3F3F2",
":. c #F4F4F4",
">. c #F6F6F6",
",. c #F7F7F7",
"<. c #F7F7F8",
"1. c #F8F8F8",
"2. c #F8F8F9",
"3. c #F9F9F9",
"4. c #FBFBFB",
"5. c #FBFBFC",
"6. c #FCFCFC",
"7. c #FFFFFF",
"8. c None",
/* pixels */
"8.8.8.8.8.8.8.8.8.8.8.8.8.8.8.8.8.8.8.8.8.8.8.8.",
"8.8.8.8.8.8.8.8.8.8.8.8.8.8.8.8.8.8.8.8.8.8.8.8.",
"8. .{ { { { ( /  .{ { ] E { { { ] E {  .{ {  .8.",
"8.&.6.6.6.6.&. .6.6.6.5.] 6.6.6.5.] 5.6.6.6.&.8.",
"8.&.6.6.6.6.>.#.6.6.6.6.] 6.6.6.6. .6.6.6.6.&.8.",
"8.]  . . . ./ E  . . .] E ]  . . .P ] }  . . .8.",
"8.&.5.6.6.6.&. .6.6.6.6.6.6.6.6.6.] 5.6.6.6.&.8.",
"8.&.6.6.6.6.>.#.6.6.6.6.6.6.6.6.6.] 5.6.6.6.&.8.",
"8.] {  .{ { ^ ..6.6.6.6.6.6.6.6.6./ ] ] ] ] ] 8.",
"8.%.6.6.5.5.&.+.6.6.6.6.6.6.6.6.6.{ 5.5.5.5.&.8.",
"8.&.6.6.6.6.:.O.6.6.6.6.6.6.6.6.6. .6.6.6.6.&.8.",
"8.] .. . . .( Y  . . . ./  . . . .P ] {  . . .8.",
"8.&.5.w w w w w 8 &.5.<.] 6.6.6.g 0 w w t <.&.8.",
"8.&.6.w w s w w   w 5.5. .6.6.$.w . w w O a &.8.",
"8.! L w w n A l w & t H A L P > q w A j w w P 8.",
"8.U n w w h x n < 7 w n n n n 4 w 8 n < w w P 8.",
"8.! A w w z D D i w w A A D D A n V > 2 = w ~ 8.",
"8.] L w w n L L e w w ; w w w s M O w O w n ] 8.",
"8.( H w w N L L # 8 w u w w w a & 9 w 4 D H ( 8.",
"8./ H w w k f % w = t H L L L : w w i d d B / 8.",
"8.( L w w w w w . w H H L L L - o w w w w w E 8.",
"8.#.] w w w w w q E ( ] ] ( ] t w w w w w w { 8.",
"8.8.8.>.5.>.,.6.8.8.8.8.8.8.8.5.>.>.5.>.>.1.8.8.",
"8.8.8.8.8.8.8.8.8.8.8.8.8.8.8.8.8.8.8.8.8.8.8.8."
};
