/* XPM */
static char *chart45_xpm[] = {
/* columns rows colors chars-per-pixel */
"24 24 117 2 ",
"   c #B3AB7F",
".  c #AEA782",
"X  c #AFA886",
"o  c #AFA987",
"O  c #B3AB83",
"+  c #B1AA89",
"@  c #B0AB8B",
"#  c #B3AD8D",
"$  c #B3AE94",
"%  c #B8B396",
"&  c #BBB697",
"*  c #BAB498",
"=  c #BAB59B",
"-  c #B6B3A1",
";  c #B6B3A2",
":  c #B7B3A2",
">  c #B8B4A0",
",  c #BAB8AB",
"<  c #BAB8AC",
"1  c #BDBBAF",
"2  c #BBB9B1",
"3  c #BBB9B2",
"4  c #BEBCB0",
"5  c #BEBCB1",
"6  c #BFBDB2",
"7  c #BBBAB4",
"8  c #BCBCB8",
"9  c #BDBCB8",
"0  c #BDBCB9",
"q  c #BEBDB9",
"w  c #BEBDBB",
"e  c gray",
"r  c #C0BCA5",
"t  c #C1BDAD",
"y  c #C2BFAF",
"u  c #C1BEB2",
"i  c #C0BFB5",
"p  c #C5C1AC",
"a  c #C7C3B0",
"s  c #C5C3B9",
"d  c #C7C5B9",
"f  c #C6C4BA",
"g  c #C6C4BB",
"h  c #C7C5BD",
"j  c #C9C7BB",
"k  c #C9C7BF",
"l  c #C8C7C7",
"z  c #CECCC1",
"x  c #CACACC",
"c  c #CBCBCD",
"v  c #CBCBCE",
"b  c #CDCDCC",
"n  c #D1CFC4",
"m  c #D2D0C4",
"M  c #D3D1C6",
"N  c #D5D2C7",
"B  c #D5D3C8",
"V  c #D1D0CF",
"C  c #D1D1D0",
"Z  c #D1D1D2",
"A  c #D2D2D3",
"S  c #D2D2D4",
"D  c #D3D3D4",
"F  c #D4D4D6",
"G  c #D5D5D6",
"H  c #D5D5D7",
"J  c #D6D6D7",
"K  c #D6D6D8",
"L  c #D7D7D9",
"P  c #D8D8DA",
"I  c #DADADB",
"U  c #DCDBDA",
"Y  c #DCDCDD",
"T  c #DDDDDE",
"R  c #DDDDDF",
"E  c #DEDEDE",
"W  c #E0DDD2",
"Q  c #DFDFE1",
"!  c #E0E0E1",
"~  c #E1E1E2",
"^  c #E2E2E4",
"/  c #E4E4E5",
"(  c #E5E5E5",
")  c #E6E6E5",
"_  c #E5E5E6",
"`  c #E5E5E7",
"'  c #E6E6E6",
"]  c #E6E6E7",
"[  c #E6E6E8",
"{  c #E7E7E8",
"}  c #E7E7E9",
"|  c #E8E8E9",
" . c #E9E9E9",
".. c #E9E9EB",
"X. c #EAEAEB",
"o. c #EBEBEC",
"O. c #ECECEC",
"+. c #ECECED",
"@. c #F2F1EF",
"#. c #EFEFF0",
"$. c #F0F0F1",
"%. c #F1F1F1",
"&. c #F1F1F2",
"*. c #F2F2F2",
"=. c #F4F4F4",
"-. c #F7F7F7",
";. c #F7F7F8",
":. c #F8F8F8",
">. c #F8F8F9",
",. c #F9F9F9",
"<. c #FAFAFA",
"1. c #FBFBFB",
"2. c #FDFCFA",
"3. c #FBFBFC",
"4. c #FCFCFC",
"5. c #FFFFFF",
"6. c None",
/* pixels */
"6.6.6.6.6.6.6.6.6.6.6.6.6.6.6.6.6.6.6.6.6.6.6.6.",
"6.6.6.6.6.6.6.6.6.6.6.6.6.6.6.6.6.6.6.6.6.6.6.6.",
"6.| [ [ [ [ ^ ~ [ [ [ [ E [ [ [ [ E [ | [ [ | 6.",
"6.$.4.4.4.4.$.| 4.4.4.3.` 4.4.4.3.` 3.4.4.4.$.6.",
"6.$.4.4.4.4.-.O.4.4.4.4.[ 4.4.4.4.| 4.4.4.4.$.6.",
"6.` | | | | ~ E | | | ` E ` | | [ U ` ` | [ | 6.",
"6.$.3.4.4.4.$.| 4.4.4.4.4.4.4.4.4.` 3.4.4.4.$.6.",
"6.$.4.4.4.4.-.+.4.4.4.4.4.4.4.4.4.` 3.4.4.4.$.6.",
"6.` [ | [ { ~ | 4.4.4.4.4.4.4.4.4.~ ` ` ` ` [ 6.",
"6.#.4.4.2.4.$.| 4.4.4.4.4.4.4.4.4.[ 3.3.3.2.$.6.",
"6.$.4.4.4.4.-.O.4.4.4.4.4.4.4.4.4.| 2.4.4.4.$.6.",
"6.` | | | | ~ E | | | | ~ | | | [ U ` ` | | | 6.",
"6.#.3.3.2.3.$.| 4.4.1.-.` 4.2.3.3.( -.3.3.3.#.6.",
"6.W e e e e 9 ` 4.4.4.1.| 2.# e @.` e e e e e 6.",
"6.n e e e e o e L L J J A O e e A s e e e e e 6.",
"6.z e e v x 7 2 i v v v t e e e l * e e e < U 6.",
"6.m e e D D % $ 1 D D Z @ - 0 e c * - e e . 5 6.",
"6.B e e L L * 9 < e e e e e 0 e A f e h D e e 6.",
"6.B e e L L o $ 1 e e e e e e e e > a J L e e 6.",
"6.m e e L a 1 1 g L L 7 e e e e e > ; s p e e 6.",
"6.N e e e e X e L L L L L L 8 e V k e e e @ u 6.",
"6.` e e e e 0 E ^ ` ^ ` ^ / 9 e U ` j e e 5 | 6.",
"6.6.-.-.-.3.6.6.6.6.6.6.6.6.3.-.6.6.6.3.3.6.6.6.",
"6.6.6.6.6.6.6.6.6.6.6.6.6.6.6.6.6.6.6.6.6.6.6.6."
};
