/* XPM */
static char *chart60_xpm[] = {
/* columns rows colors chars-per-pixel */
"32 32 146 2 ",
"   c #9F9145",
".  c #9F9146",
"X  c #A5974E",
"o  c #A3985A",
"O  c #A59A5F",
"+  c #A69A5E",
"@  c #A59A62",
"#  c #A59B62",
"$  c #A79D65",
"%  c #A89E6B",
"&  c #A89F6E",
"*  c #A99F6E",
"=  c #AEA368",
"-  c #AFA469",
";  c #AAA171",
":  c #AAA173",
">  c #AAA275",
",  c #ABA276",
"<  c #ABA377",
"1  c #ACA479",
"2  c #ACA57D",
"3  c #ADA57D",
"4  c #ADA67F",
"5  c #B3A874",
"6  c #B3AA7B",
"7  c #ADA680",
"8  c #AEA781",
"9  c #AEA884",
"0  c #B0AB8B",
"q  c #B1AB8E",
"w  c #B3AD8D",
"e  c #B8B086",
"r  c #B6B08F",
"t  c #BBB388",
"y  c #BAB28A",
"u  c #B2AC90",
"i  c #B2AD90",
"p  c #B3AE95",
"a  c #B4AF97",
"s  c #B7B296",
"d  c #BAB59D",
"f  c #B6B3A0",
"g  c #B6B3A1",
"h  c #B7B4A3",
"j  c #B7B4A4",
"k  c #BFBAA4",
"l  c #B8B6A9",
"z  c #B9B6AA",
"x  c #B9B7AA",
"c  c #B9B7AB",
"v  c #B9B7AC",
"b  c #B9B8AD",
"n  c #BAB8AC",
"m  c #BAB8AE",
"M  c #BDBBAF",
"N  c #BEBBAF",
"B  c #BFBCAD",
"V  c #BFBCAE",
"C  c #BEBCAF",
"Z  c #BBB9B1",
"A  c #BBBAB0",
"S  c #BFBDB1",
"D  c #BCBBB4",
"F  c #BCBBB5",
"G  c #BDBBB5",
"H  c #BDBCB8",
"J  c #BDBDBB",
"K  c #BEBEBA",
"L  c #BDBDBC",
"P  c gray",
"I  c #C1BCA2",
"U  c #C3BEA4",
"Y  c #C1BDA7",
"T  c #C3BEA9",
"R  c #C1BEB2",
"E  c #C1BFB2",
"W  c #C1BFB3",
"Q  c #C0BEB4",
"!  c #C6C1A8",
"~  c #C6C1A9",
"^  c #C5C0AA",
"/  c #C2C0B4",
"(  c #C2C0B5",
")  c #C2C1B9",
"_  c #C6C3BA",
"`  c #CAC7B8",
"'  c #CDCBBF",
"]  c #C8C7C0",
"[  c #CBC9C3",
"{  c #CAC9C4",
"}  c #C8C8C7",
"|  c #C6C6C8",
" . c #C7C7C9",
".. c #CBCAC8",
"X. c #C9C9CB",
"o. c #CDCCC9",
"O. c #CECDC9",
"+. c #CFCECB",
"@. c #CECECD",
"#. c #CCCCCE",
"$. c #D0CFCF",
"%. c #D5D2C7",
"&. c #D2D1CA",
"*. c #D7D5CA",
"=. c #D1D0CD",
"-. c #D0D0CE",
";. c #D9D7CC",
":. c #DBD9CF",
">. c #CECED0",
",. c #CFCFD1",
"<. c #D0D0D0",
"1. c #D0D0D1",
"2. c #D2D1D0",
"3. c #D0D0D2",
"4. c #D3D2D2",
"5. c #D2D2D3",
"6. c #D3D3D3",
"7. c #D5D5D5",
"8. c #D6D5D4",
"9. c #D4D4D6",
"0. c #D5D5D7",
"q. c #D7D7D8",
"w. c #D7D7D9",
"e. c #D8D8DA",
"r. c #D9D9DB",
"t. c #DADADB",
"y. c #DADADC",
"u. c #DBDBDC",
"i. c #DBDBDD",
"p. c #DDDDDF",
"a. c #DEDEDF",
"s. c #E2E2E3",
"d. c #E3E3E5",
"f. c #E3E3E6",
"g. c #E4E4E6",
"h. c #E6E6E7",
"j. c #EBEBE6",
"k. c #E7E7E9",
"l. c #E9E9EA",
"z. c #EBEBEC",
"x. c #EDEDEE",
"c. c #F0F0F1",
"v. c #F3F3F4",
"b. c #F7F6F6",
"n. c gray100",
"m. c None",
/* pixels */
"m.m.m.m.m.m.m.m.m.m.m.m.m.m.m.m.m.m.m.m.m.m.m.m.m.m.m.m.m.m.m.m.",
"m.m.m.m.m.m.m.m.m.m.m.m.m.m.m.m.m.m.m.m.m.m.m.m.m.m.m.m.m.m.m.m.",
"m.m.m.m.m.m.m.m.m.m.m.m.m.m.m.m.m.m.m.m.m.m.m.m.m.m.m.m.m.m.m.m.",
"m.l.g.d.d.d.d.d.d.e.g.d.d.d.d.g.e.g.d.d.d.d.g.e.g.d.d.d.d.g.x.m.",
"m.d.n.n.n.n.n.n.n.t.n.n.n.n.n.n.t.n.n.n.n.n.n.t.n.n.n.n.n.n.d.m.",
"m.d.n.n.n.n.n.n.n.e.n.n.n.n.n.n.t.n.n.n.n.n.n.t.n.n.n.n.n.n.d.m.",
"m.d.n.n.n.n.n.n.n.t.n.n.n.n.n.n.t.n.n.n.n.n.n.t.n.n.n.n.n.n.d.m.",
"m.s.u.t.t.t.t.t.t.>.t.t.t.t.t.t.#.t.t.t.t.t.t.>.t.t.t.t.t.i.g.m.",
"m.d.n.n.n.n.n.n.n.t.n.n.n.n.n.n.n.n.n.n.n.n.n.t.n.n.n.n.n.n.d.m.",
"m.d.n.n.n.n.n.n.n.t.n.n.n.n.n.n.n.n.n.n.n.n.n.t.n.n.n.n.n.n.d.m.",
"m.d.n.n.n.n.n.n.n.e.n.n.n.n.n.n.n.n.n.n.n.n.n.t.n.n.n.n.n.n.d.m.",
"m.s.u.t.e.t.t.t.t.>.n.n.n.n.n.n.n.n.n.n.n.n.n.>.t.t.t.t.t.u.g.m.",
"m.d.n.n.n.n.n.n.n.t.n.n.n.n.n.n.n.n.n.n.n.n.n.t.n.n.n.n.n.n.d.m.",
"m.d.n.n.n.n.n.n.n.t.n.n.n.n.n.n.n.n.n.n.n.n.n.t.n.n.n.n.n.n.d.m.",
"m.d.n.n.n.n.n.n.n.t.n.n.n.n.n.n.n.n.n.n.n.n.n.t.n.n.n.n.n.n.d.m.",
"m.s.u.t.t.t.t.t.t.>.t.t.t.t.t.t.>.t.t.t.t.t.t.>.t.t.t.t.t.i.g.m.",
"m.d.n.n.n.n.n.n.n.t.n.n.n.n.n.n.t.n.n.n.n.n.n.t.n.n.n.n.n.n.d.m.",
"m.d.n.n.n.n.n.n.n.t.n.n.n.n.n.n.t.n.n.n.n.n.n.t.n.n.n.n.n.n.d.m.",
"m.d.n.n.n.n.n.n.n.i.n.n.n.n.n.n.i.n.n.n.n.n.n.u.n.n.n.n.n.n.d.m.",
"m.k.| | | | | | | X.| | | | | | X.| | | | | | ..| | | | | | k.m.",
"m.l.#.+ P P P P P Q >.#.#.#.#.>._ + P P P ) #.k $ P P H } #.l.m.",
"m.z.>.@ 2 P P P z P A 4.3.3.3.>.. P A P j P ... P P P % P >.x.m.",
"m.x.7.@ 2 G 4.#.w P P 4.9.9.9.~ i ; M -.A P d f , V I P P } x.m.",
"m.c.e.+ 2 G t.t.~ P z } e.e.e.y P P z P H +.y P P +.&.q , / c.m.",
"m.v.6.@ 2 F 6.9.` f 8 / e.6.6.5 P P l P 9 P 6 P P -.4., @ M v.m.",
"m.z.e.O 2 G e.e.~ f 2 r P P P P P p W -.b & s P P 6.&., @ S z.m.",
"m.x.7.O 2 G 9.9.= P c ] P P P P P P +.-.o 8 n P P +.I i 2 W x.m.",
"m.c.t.@ 2 G [ e : P P 7.e.e.e.7.b p E - b : W p 1 V X P P +.c.m.",
"m.v.t.@ 2 P P P z P W t.e.t.t.t.Y P P P q P 7.T P P P , P t.v.m.",
"m.n.n.%.P P P P P ;.n.n.n.n.n.n.n.*.P P P j.n.n.:.P P H b.n.n.m.",
"m.m.m.m.m.m.m.m.m.m.m.m.m.m.m.m.m.m.m.m.m.m.m.m.m.m.m.m.m.m.m.m.",
"m.m.m.m.m.m.m.m.m.m.m.m.m.m.m.m.m.m.m.m.m.m.m.m.m.m.m.m.m.m.m.m."
};
