/* XPM */
static char *chart144_xpm[] = {
/* columns rows colors chars-per-pixel */
"24 24 95 2 ",
"   c #AAA274",
".  c #B1A97E",
"X  c #B3AA7F",
"o  c #AEA782",
"O  c #AFA987",
"+  c #B1A981",
"@  c #B5AD83",
"#  c #B1AA89",
"$  c #B2AC8C",
"%  c #B3AD8D",
"&  c #B5AF8E",
"*  c #B6B08F",
"=  c #B6B3A2",
"-  c #B7B4A4",
";  c #B9B7AD",
":  c #BEBBB0",
">  c #BCBAB4",
",  c #BDBCB8",
"<  c #BDBCB9",
"1  c #BEBDBB",
"2  c gray",
"3  c #C0BDAC",
"4  c #C0BEB2",
"5  c #C1BFB3",
"6  c #C2BFB4",
"7  c #D2CBA8",
"8  c #C2C0B4",
"9  c #C7C5B9",
"0  c #CAC8BC",
"q  c #CBC9BF",
"w  c #C8C6C0",
"e  c #C8C7C7",
"r  c #CECDCB",
"t  c #CECECB",
"y  c #CBCBCD",
"u  c #CDCDCC",
"i  c #D0D0CF",
"p  c #D1D0CF",
"a  c #D1D1D0",
"s  c #D1D1D2",
"d  c #D1D1D3",
"f  c #D2D2D4",
"g  c #D5D5D7",
"h  c #D6D6D7",
"j  c #D5D5D8",
"k  c #D6D6D8",
"l  c #D7D7D9",
"z  c #DADADB",
"x  c #DCDBDA",
"c  c #DADADC",
"v  c #DCDCDD",
"b  c #DDDDDE",
"n  c #DDDDDF",
"m  c #DEDEE0",
"M  c #DFDFE1",
"N  c #E0E0E1",
"B  c #E1E1E2",
"V  c #E2E2E4",
"C  c #E3E3E4",
"Z  c #E3E3E5",
"A  c #E5E5E4",
"S  c #E4E4E5",
"D  c #E5E5E6",
"F  c #E5E5E7",
"G  c #E6E6E7",
"H  c #E6E6E8",
"J  c #E7E7E8",
"K  c #E7E7E9",
"L  c #E8E8E9",
"P  c #E9E9E9",
"I  c #E9E9EB",
"U  c #EAEAEB",
"Y  c #EBEBEC",
"T  c #ECECEC",
"R  c #ECECED",
"E  c #EDEDEE",
"W  c #F2F1EF",
"Q  c #EFEFF0",
"!  c #F0F0F1",
"~  c #F1F1F1",
"^  c #F1F1F2",
"/  c #F2F2F2",
"(  c #F4F4F4",
")  c #F7F7F7",
"_  c #F9F9F7",
"`  c #F7F7F8",
"'  c #F8F8F8",
"]  c #F8F8F9",
"[  c #F9F9F9",
"{  c #FBFBFB",
"}  c #FCFCFC",
"|  c #FDFDFD",
" . c #FEFEFE",
".. c #FFFFFF",
"X. c None",
/* pixels */
"X.X.X.X.X.X.X.X.X.X.X.X.X.X.X.X.X.X.X.X.X.X.X.X.",
"X.X.X.X.X.X.X.X.X.X.X.X.X.X.X.X.X.X.X.X.X.X.X.X.",
"X.L H H L L B B H H H F n H H H F n F L H H L X.",
"X.! } } } } ! L } } } { F } } } } F { } } } ! X.",
"X.! } } } } ) T } } } } F } } } } L } } } } ! X.",
"X.F L L L L B n L L L F n J L L L l F J L L L X.",
"X.! { } } } ! L } } } } } } } } } F { } } } ! X.",
"X.! } } } } ) E } } } } } } } } } H { } } } ! X.",
"X.F L L J F B L } } } } } } } } } B F F F F F X.",
"X.E } } { { ! T } } } } } } } } } J { { } } ! X.",
"X.! } } } } ) I } } } } } } } } } L } } } } ! X.",
"X.F L L L L B n L L L L B L L L L l F H L J L X.",
"X.! } } } } ! I } } { _ F } } { } F _ { } } Q X.",
"X.! } } } 7 2 0 } } } _ % 2 W } } A % 2 ! } ! X.",
"X.m k l + - o 5 l k k + 2 2 p h h . 2 2 p h m X.",
"X.c y u 2 ;   : u u 3 2 2 2 e u 3 2 2 2 e y c X.",
"X.m d d w % # 4 d d # = < 2 u d # = < 2 r d m X.",
"X.F k k k * O 8 k @ 2 2 < 2 p @ 2 2 < 2 p k Z X.",
"X.Z h k k * O 5 k > 2 2 2 2 2 > 2 2 2 2 2 r Z X.",
"X.B h k k * O 8 k < 2 2 2 2 2 < 2 2 2 2 2 r B X.",
"X.Z k k k *   5 k k k k < 2 p h k k , 2 d h Z X.",
"X.E F F F 0 2 9 Z H Z F 2 9 l F Z F , 2 x B E X.",
"X.X.X.X.X.} ` } X.X.X.X.` ` X.X.X.X.{ ) X.X.X.X.",
"X.X.X.X.X.X.X.X.X.X.X.X.X.X.X.X.X.X.X.X.X.X.X.X."
};
