/* XPM */
static char *chartb_xpm[] = {
/* columns rows colors chars-per-pixel */
"32 32 103 2 ",
"   c #A29554",
".  c #A69B63",
"X  c #A89E6A",
"o  c #A9A06F",
"O  c #ABA272",
"+  c #ADA67F",
"@  c #B0A77A",
"#  c #AEA783",
"$  c #B3AB83",
"%  c #B0AA8B",
"&  c #B1AB8D",
"*  c #B1AC8E",
"=  c #B7B08B",
"-  c #B9B188",
";  c #B3AE95",
":  c #B6B194",
">  c #B9B392",
",  c #B5B19B",
"<  c #B6B3A1",
"1  c #B9B6AA",
"2  c #BBB8AA",
"3  c #BEBBA8",
"4  c #BFBBA8",
"5  c #BAB8AF",
"6  c #BDBBAF",
"7  c #BEBBAE",
"8  c #BBB9B0",
"9  c #BCBBB2",
"0  c #BDBBB2",
"q  c #BCBAB3",
"w  c #BDBBB4",
"e  c #BCBBB7",
"r  c #BDBCB8",
"t  c #BDBCB9",
"y  c gray",
"u  c #C0BDAD",
"i  c #C0BEB2",
"p  c #C5C0A9",
"a  c #C4C1AF",
"s  c #C3C0B0",
"d  c #C6C2B2",
"f  c #C3C1B6",
"g  c #C8C5B5",
"h  c #C9C6B6",
"j  c #C5C3B9",
"k  c #C7C4B9",
"l  c #C8C6BC",
"z  c #CBC9BC",
"x  c #C8C7C3",
"c  c #CECBC1",
"v  c #CBCAC4",
"b  c #CBCAC7",
"n  c #C6C6C8",
"m  c #C7C7C9",
"M  c #C9C9CB",
"N  c #CACACB",
"B  c #CCCBC8",
"V  c #CFCECA",
"C  c #CFCECB",
"Z  c #CCCCCE",
"A  c #CFCFCF",
"S  c #D1CFC7",
"D  c #D1CFC9",
"F  c #D1D0CA",
"G  c #D7D5CA",
"H  c #D2D1CE",
"J  c #D3D2CF",
"K  c #CECED0",
"L  c #D0D0D0",
"P  c #D0D0D2",
"I  c #D2D2D3",
"U  c #D3D3D5",
"Y  c #D4D4D6",
"T  c #D5D5D6",
"R  c #D7D6D6",
"E  c #D7D7D8",
"W  c #D7D7D9",
"Q  c #D8D8D9",
"!  c #D8D8DA",
"~  c #D9D9DB",
"^  c #DADADB",
"/  c #DADADC",
"(  c #DBDBDC",
")  c #DBDBDD",
"_  c #DDDDDF",
"`  c #DEDEDF",
"'  c #E2E0D8",
"]  c #E2E2E3",
"[  c #E3E3E5",
"{  c #E3E3E6",
"}  c #E4E4E6",
"|  c #E6E6E7",
" . c #E7E7E9",
".. c #E9E9EA",
"X. c #EBEBEC",
"o. c #EDEDEE",
"O. c #F2F1EF",
"+. c #F0F0F1",
"@. c #F3F3F4",
"#. c #F9F9F9",
"$. c #FEFEFE",
"%. c gray100",
"&. c None",
/* pixels */
"&.&.&.&.&.&.&.&.&.&.&.&.&.&.&.&.&.&.&.&.&.&.&.&.&.&.&.&.&.&.&.&.",
"&.&.&.&.&.&.&.&.&.&.&.&.&.&.&.&.&.&.&.&.&.&.&.&.&.&.&.&.&.&.&.&.",
"&.&.&.&.&.&.&.&.&.&.&.&.&.&.&.&.&.&.&.&.&.&.&.&.&.&.&.&.&.&.&.&.",
"&...} [ [ [ [ [ [ ! } [ [ [ [ } ! } [ [ [ [ } ! } [ [ [ [ } o.&.",
"&.[ %.%.%.%.%.%.%.^ %.%.%.%.%.%.^ %.%.%.%.%.%.^ %.%.%.%.%.%.[ &.",
"&.[ %.%.%.%.%.%.%.! %.%.%.%.%.%.^ %.%.%.%.%.%.^ %.%.%.%.%.%.[ &.",
"&.[ %.%.%.%.%.%.%.^ %.%.%.%.%.%.^ %.%.%.%.%.%.^ %.%.%.%.%.%.[ &.",
"&.] ( ^ ^ ^ ^ ^ ^ K ^ ^ ^ ^ ^ ^ Z ^ ^ ^ ^ ^ ^ K ^ ^ ^ ^ ^ ) } &.",
"&.[ %.%.%.%.%.%.%.^ %.%.%.%.%.%.%.%.%.%.%.%.%.^ %.%.%.%.%.%.[ &.",
"&.[ %.%.%.%.%.%.%.^ %.%.%.%.%.%.%.%.%.%.%.%.%.^ %.%.%.%.%.%.[ &.",
"&.[ %.%.%.%.%.%.%.! %.%.%.%.%.%.%.%.%.%.%.%.%.^ %.%.%.%.%.%.[ &.",
"&.] ( ^ ! ^ ^ ^ ^ K %.%.%.%.%.%.%.%.%.%.%.%.%.K ^ ^ ^ ^ ^ ( } &.",
"&.[ %.%.%.%.%.%.%.^ %.%.%.%.%.%.%.%.%.%.%.%.%.^ %.%.%.%.%.%.[ &.",
"&.[ %.%.%.%.%.%.%.^ %.%.%.%.%.%.%.%.%.%.%.%.%.^ %.%.%.%.%.%.[ &.",
"&.[ %.%.%.%.%.%.%.^ %.%.%.%.%.%.%.%.%.%.%.%.%.^ %.%.%.%.%.%.[ &.",
"&.] ( ^ ^ ^ ^ ^ ^ K ^ ^ ^ ^ ^ ^ K ^ ^ ^ ^ ^ ^ K ^ ^ ^ ^ ^ ) } &.",
"&.[ %.%.%.%.%.%.%.^ %.%.%.%.%.%.^ %.%.%.%.%.%.^ %.%.%.%.%.%.[ &.",
"&.[ %.%.%.%.%.%.%.^ %.%.%.%.%.%.^ %.%.%.%.%.%.^ %.%.%.%.%.%.[ &.",
"&.[ %.%.%.%.%.%.%.) %.%.%.%.%.%.) %.%.%.%.%.%.( %.%.%.%.%.%.[ &.",
"&. .n n n n n n M M n n n n n M M n n n n n n M n n n n n n  .&.",
"&...Z Z M x y y y y y 8 B u y y Z Z Z Z Z Z Z Z Z Z Z Z Z Z ..&.",
"&.X.P P U v y y y y y X t s y y P P P P P P P P P P P P P P X.&.",
"&.o.Y Y Y Z y y P P l y y s y y y y t P Y = y y y 2 U Y Y U o.&.",
"&.+.! ^ ( U y i Y ! - y y h y y y y . w c y , y y & 0 ! ^ ^ +.&.",
"&.@.U U Y B y y y y y 1 6 s y y B s y y v y y D @ < q U Y U +.&.",
"&.X.! ^ ^ H y y y y y + y h y y ^ h y y Y $ y y y   6 ^ ^ ! o.&.",
"&.o.Y U Y D y y P H Z y * 3 t y Y s y y > y y y q < q Y Y U o.&.",
"&.+.^ ! ^ P y y F F p e # u y y ^ h y y : o 6 S O ; q ^ ^ ^ +.&.",
"&.@.^ ^ ^ H y y y y y * y h y y ^ h y y k y y y y 5 y j ! ^ @.&.",
"&.%.%.%.%.#.y y y y y y ' O.y y %.O.y y %.z y y f y y G %.%.%.&.",
"&.&.&.&.&.&.&.&.&.&.&.&.&.&.&.&.&.&.&.&.&.&.&.&.&.&.&.&.&.&.&.&.",
"&.&.&.&.&.&.&.&.&.&.&.&.&.&.&.&.&.&.&.&.&.&.&.&.&.&.&.&.&.&.&.&."
};
