/* XPM */
static char *chart24_xpm[] = {
/* columns rows colors chars-per-pixel */
"24 24 116 2 ",
"   c #ADA67F",
".  c #B0A77A",
"X  c #B3AB7F",
"o  c #AFA886",
"O  c #AFA987",
"+  c #B3AB83",
"@  c #B5AD83",
"#  c #B0A985",
"$  c #B6AE84",
"%  c #B1AA89",
"&  c #B3AD8D",
"*  c #B3AD8E",
"=  c #B8B18C",
"-  c #B2AD92",
";  c #B3AE94",
":  c #B6B196",
">  c #BAB492",
",  c #B8B396",
"<  c #BBB697",
"1  c #B5B19B",
"2  c #B6B3A1",
"3  c #B6B3A2",
"4  c #BAB8AB",
"5  c #BDBBAF",
"6  c #BBB9B1",
"7  c #BBB9B2",
"8  c #BDBBB0",
"9  c #BEBCB0",
"0  c #BEBCB3",
"q  c #BBBAB4",
"w  c #BCBAB4",
"e  c #BCBCB8",
"r  c #BDBCB8",
"t  c #BDBCB9",
"y  c #BEBDB9",
"u  c #BEBDBB",
"i  c #BEBDBC",
"p  c gray",
"a  c #C1BDA5",
"s  c #C0BDAC",
"d  c #C1BFB3",
"f  c #C0BFB5",
"g  c #C7C3B0",
"h  c #C6C4BB",
"j  c #C6C4BD",
"k  c #CECCC1",
"l  c #CCCBC6",
"z  c #CACACB",
"x  c #CACACC",
"c  c #CBCBCD",
"v  c #D1CFC4",
"b  c #D2D0C4",
"n  c #D3D1C6",
"m  c #D5D2C7",
"M  c #D5D3C8",
"N  c #D0CFD0",
"B  c #D1D1D3",
"V  c #D4D3D1",
"C  c #D4D4D2",
"Z  c #D2D2D4",
"A  c #D4D3D5",
"S  c #D5D5D6",
"D  c #D5D5D7",
"F  c #D7D6D6",
"G  c #D6D6D7",
"H  c #D8D7D6",
"J  c #D6D6D8",
"K  c #D7D7D9",
"L  c #DBDAD9",
"P  c #DBDBDA",
"I  c #DADADB",
"U  c #DCDCDD",
"Y  c #DDDDDE",
"T  c #DDDDDF",
"R  c #DEDEDE",
"E  c #E0DDD2",
"W  c #DFDFE1",
"Q  c #E0E0E1",
"!  c #E3E3E1",
"~  c #E1E1E2",
"^  c #E2E2E4",
"/  c #E4E4E5",
"(  c #E6E6E5",
")  c #E5E5E6",
"_  c #E5E5E7",
"`  c #E6E6E6",
"'  c #E6E6E7",
"]  c #E6E6E8",
"[  c #E7E7E8",
"{  c #E7E7E9",
"}  c #E8E8E9",
"|  c #E9E9E9",
" . c #E9E9EB",
".. c #EAEAEB",
"X. c #EBEBEC",
"o. c #ECECEC",
"O. c #ECECED",
"+. c #F2F1EF",
"@. c #EFEFF0",
"#. c #F0F0F1",
"$. c #F1F1F1",
"%. c #F1F1F2",
"&. c #F2F2F2",
"*. c #F4F4F4",
"=. c #F7F7F7",
"-. c #F7F7F8",
";. c #F8F8F8",
":. c #F8F8F9",
">. c #F9F9F9",
",. c #FAFAFA",
"<. c #FBFAFA",
"1. c #FBFBFB",
"2. c #FDFCFA",
"3. c #FCFCFC",
"4. c #FFFFFF",
"5. c None",
/* pixels */
"5.5.5.5.5.5.5.5.5.5.5.5.5.5.5.5.5.5.5.5.5.5.5.5.",
"5.5.5.5.5.5.5.5.5.5.5.5.5.5.5.5.5.5.5.5.5.5.5.5.",
"5.} ] ] ] } ^ W ] ] ] _ R ] ] ] _ R _ [ ] ] } 5.",
"5.#.3.3.3.3.#.o.3.3.3.1._ 3.3.3.3._ 1.3.3.3.#.5.",
"5.#.3.3.3.3.=.} 3.3.3.3.] 3.3.3.3.} 3.3.3.3.#.5.",
"5._ } } } } ^ R } } } _ R _ } } ] L _ | } | } 5.",
"5.#.1.3.3.3.#.} 3.3.3.3.3.3.3.3.3._ 1.3.3.3.#.5.",
"5.#.3.3.3.3.=.O.3.3.3.3.3.3.3.3.3.] 1.3.3.3.#.5.",
"5._ } } _ _ Q | 3.3.3.3.3.3.3.3.3.^ _ _ _ | _ 5.",
"5.O.3.3.3.1.+.o.3.3.3.3.3.3.3.3.3._ =.3.1.1.#.5.",
"5.#.3.3.3.3.*.o.3.3.3.3.3.3.3.3.3.| 3.3.3.3.#.5.",
"5._ | } } } ^ R } } } } ^ } } } | L _ _ | | | 5.",
"5.#.3.3.3.1.#.} 3.3.1.=._ 3.1.3.1._ =.1.1.2.#.5.",
"5.E p p p p u _ 3.3.3.1.$ p p u +._ 1.3.* p _ 5.",
"5.n p p p p # p K K G a p p p 1 p Z G X p p G 5.",
"5.j p p c x w 6 f c x :   5 x p p z s p p p C 5.",
"5.n p p B B , ; 5 B B g p l > p p c % 3 u p G 5.",
"5.M p p K K < u 4 p p p N . p - 8 $ p p e p P 5.",
"5.M j p K K + ; 5 p p p o p p 5 G w p p p p p 5.",
"5.n p p K g 6 6 h K K = p p l G K w p p p p p 5.",
"5.n p p i p o p G G K * 3 p p p p Z K G u p L 5.",
"5._ p p p p e R / _ ^ 0 p p p p p ^ ^ _ u p ^ 5.",
"5.5.=.=.=.1.5.5.5.5.5.1.=.=.=.=.=.5.5.5.1.=.5.5.",
"5.5.5.5.5.5.5.5.5.5.5.5.5.5.5.5.5.5.5.5.5.5.5.5."
};
