/* XPM */
static char *chart40_xpm[] = {
/* columns rows colors chars-per-pixel */
"32 32 134 2 ",
"   c #9F9042",
".  c #9F9146",
"X  c #A19346",
"o  c #A5974E",
"O  c #A39757",
"+  c #A59A5D",
"@  c #A59A5F",
"#  c #A59A62",
"$  c #A59B62",
"%  c #A79D65",
"&  c #A89E6B",
"*  c #A89E6C",
"=  c #AEA368",
"-  c #A9A06F",
";  c #AAA171",
":  c #AAA275",
">  c #ABA276",
",  c #ABA377",
"<  c #ACA479",
"1  c #ACA57D",
"2  c #ADA57D",
"3  c #ADA67F",
"4  c #B2A872",
"5  c #B4AA79",
"6  c #ADA680",
"7  c #AEA783",
"8  c #B1AB8C",
"9  c #B1AB8E",
"0  c #B3AD8D",
"q  c #B9B083",
"w  c #BAB285",
"e  c #B8B086",
"r  c #B6B08F",
"t  c #B2AC90",
"y  c #B3AE95",
"u  c #B5B19B",
"i  c #B6B3A0",
"p  c #B6B3A1",
"a  c #B7B3A1",
"s  c #B7B4A3",
"d  c #B8B6A7",
"f  c #BFBAA4",
"g  c #B8B6A9",
"h  c #B9B6AA",
"j  c #B9B7AB",
"k  c #BDBBAC",
"l  c #BDBBAF",
"z  c #BEBBAF",
"x  c #BFBCAE",
"c  c #BEBCAF",
"v  c #BFBCB1",
"b  c #BFBDB1",
"n  c #BCBBB4",
"m  c #BCBBB5",
"M  c #BDBBB5",
"N  c #BDBCB8",
"B  c #BDBDBB",
"V  c #BEBDBB",
"C  c #BEBEBA",
"Z  c gray",
"A  c #C1BB9E",
"S  c #C1BCA2",
"D  c #C3BEA4",
"F  c #C3BEA9",
"G  c #C2BEAE",
"H  c #C0BEB2",
"J  c #C1BFB3",
"K  c #C2BFB3",
"L  c #C0BEB4",
"P  c #C6C1A8",
"I  c #C6C1A9",
"U  c #C2C0B4",
"Y  c #C2C0B5",
"T  c #C6C4B8",
"R  c #CAC7B8",
"E  c #CDCABC",
"W  c #CDCBBF",
"Q  c #C8C7C0",
"!  c #CBC9C3",
"~  c #CFCDC0",
"^  c #CAC9C4",
"/  c #C8C8C7",
"(  c #CDCCC4",
")  c #CFCEC6",
"_  c #C6C6C8",
"`  c #C7C7C9",
"'  c #C9C9CB",
"]  c #CDCCC9",
"[  c #CECDC9",
"{  c #CFCECB",
"}  c #CCCCCE",
"|  c #CFCFCF",
" . c #D0CFCF",
".. c #D5D2C7",
"X. c #D2D1CA",
"o. c #D9D7CC",
"O. c #DBD9CF",
"+. c #CECED0",
"@. c #CFCFD0",
"#. c #CFCFD1",
"$. c #D0D0D0",
"%. c #D0D0D2",
"&. c #D3D2D2",
"*. c #D2D2D3",
"=. c #D3D3D3",
"-. c #D3D3D4",
";. c #D5D4D5",
":. c #D4D4D6",
">. c #D5D5D7",
",. c #D6D6D7",
"<. c #D7D7D8",
"1. c #D7D7D9",
"2. c #D8D8DA",
"3. c #D9D9DB",
"4. c #DADADB",
"5. c #DADADC",
"6. c #DBDBDC",
"7. c #DBDBDD",
"8. c #DDDDDF",
"9. c #DEDEDF",
"0. c #E2E2E3",
"q. c #E3E3E5",
"w. c #E3E3E6",
"e. c #E4E4E6",
"r. c #E6E6E7",
"t. c #E7E7E9",
"y. c #E9E9EA",
"u. c #EBEBEC",
"i. c #EDEDEE",
"p. c #F0F0F1",
"a. c #F3F3F4",
"s. c #F7F6F6",
"d. c gray100",
"f. c None",
/* pixels */
"f.f.f.f.f.f.f.f.f.f.f.f.f.f.f.f.f.f.f.f.f.f.f.f.f.f.f.f.f.f.f.f.",
"f.f.f.f.f.f.f.f.f.f.f.f.f.f.f.f.f.f.f.f.f.f.f.f.f.f.f.f.f.f.f.f.",
"f.f.f.f.f.f.f.f.f.f.f.f.f.f.f.f.f.f.f.f.f.f.f.f.f.f.f.f.f.f.f.f.",
"f.y.e.q.q.q.q.q.q.2.e.q.q.q.q.e.2.e.q.q.q.q.e.2.e.q.q.q.q.e.i.f.",
"f.q.d.d.d.d.d.d.d.4.d.d.d.d.d.d.4.d.d.d.d.d.d.2.d.d.d.d.d.d.q.f.",
"f.q.d.d.d.d.d.d.d.2.d.d.d.d.d.d.4.d.d.d.d.d.d.4.d.d.d.d.d.d.q.f.",
"f.q.d.d.d.d.d.d.d.4.d.d.d.d.d.d.4.d.d.d.d.d.d.4.d.d.d.d.d.d.q.f.",
"f.0.6.4.4.4.4.4.4.+.4.4.4.4.4.4.| 4.4.4.4.4.4.+.4.4.4.4.4.7.e.f.",
"f.q.d.d.d.d.d.d.d.4.d.d.d.d.d.d.d.d.d.d.d.d.d.4.d.d.d.d.d.d.q.f.",
"f.q.d.d.d.d.d.d.d.4.d.d.d.d.d.d.d.d.d.d.d.d.d.4.d.d.d.d.d.d.q.f.",
"f.q.d.d.d.d.d.d.d.2.d.d.d.d.d.d.d.d.d.d.d.d.d.4.d.d.d.d.d.d.q.f.",
"f.0.6.4.2.4.4.4.4.+.d.d.d.d.d.d.d.d.d.d.d.d.d.+.4.4.4.4.4.6.e.f.",
"f.q.d.d.d.d.d.d.d.4.d.d.d.d.d.d.d.d.d.d.d.d.d.4.d.d.d.d.d.d.q.f.",
"f.q.d.d.d.d.d.d.d.4.d.d.d.d.d.d.d.d.d.d.d.d.d.4.d.d.d.d.d.d.q.f.",
"f.q.d.d.d.d.d.d.d.4.d.d.d.d.d.d.d.d.d.d.d.d.d.4.d.d.d.d.d.d.q.f.",
"f.0.6.4.4.4.4.4.4.+.4.4.4.4.4.4.+.4.4.4.4.4.4.+.4.4.4.4.4.7.e.f.",
"f.q.d.d.d.d.d.d.d.4.d.d.d.d.d.d.4.d.d.d.d.d.d.4.d.d.d.d.d.d.q.f.",
"f.q.d.d.d.d.d.d.d.4.d.d.d.d.d.d.4.d.d.d.d.d.d.4.d.d.d.d.d.d.q.f.",
"f.q.d.d.d.d.d.d.d.7.d.d.d.d.d.d.7.d.d.d.d.d.d.8.d.d.d.d.d.d.q.f.",
"f.t._ _ _ _ _ _ ' ' _ _ _ _ _ _ ' _ _ _ _ _ _ ' _ _ _ _ _ _ t.f.",
"f.y.| @ Z Z Z Z Z K ' +.| ' | ' | ' G O Z k ' S % Z Z B / | y.f.",
"f.u.+.@ 1 Z Z Z g Z v +.%.+.+.:.%.%.X Z * v | . Z Z Z & Z +.u.f.",
"f.i.:.$ 1 M %.+.0 Z Z :.:.:.:.:.:.5 d u ; H A p : k S Z Z / i.f.",
"f.p.2.@ 1 M 4.2.I Z g ^ 2.2.2.2.E @ Z Z - K w Z Z | X.0 > Y p.f.",
"f.a.:.@ 1 M :.:.R p 7 Y :.:.:.:.X Z Z 7 - H 4 Z Z  .%.: $ c a.f.",
"f.u.2.@ 1 M 2.2.I s 1 r Z Z Z Z p 0 k 7 - H q Z Y %.X., $ H u.f.",
"f.i.:.@ 1 n :.:.= Z j Q Z Z Z Z Z Z Z Z - Z B Z Z ] D t 1 Y i.f.",
"f.p.4.@ 1 n ( e ; Z Z :.4.2.2.( Z Z Z Z & Z B y 1 v o Z Z ] p.f.",
"f.a.4.@ 1 Z Z Z g Z H 4.2.4.4.4.:.;.) 7 - Y :.F Z Z Z > Z 4.p.f.",
"f.d.d...Z Z Z Z Z o.d.d.d.d.d.d.d.d.d.T Z ~ d.d.O.Z Z B s.d.d.f.",
"f.f.f.f.f.f.f.f.f.f.f.f.f.f.f.f.f.f.f.f.f.f.f.f.f.f.f.f.f.f.f.f.",
"f.f.f.f.f.f.f.f.f.f.f.f.f.f.f.f.f.f.f.f.f.f.f.f.f.f.f.f.f.f.f.f."
};
