/* XPM */
static char *chart_xpm[] = {
/* columns rows colors chars-per-pixel */
"32 32 256 2 ",
"   c #381E1E",
".  c #1A1E3E",
"X  c #231828",
"o  c #311D24",
"O  c #3D2222",
"+  c #3D292A",
"@  c #412524",
"#  c #4A2F24",
"$  c #472B23",
"%  c #4D3027",
"&  c #4B3029",
"*  c #513427",
"=  c #503228",
"-  c #593B29",
";  c #4E3A3B",
":  c #553C33",
">  c #65482B",
",  c #67492D",
"<  c #6F502F",
"1  c #6E5030",
"2  c #765838",
"3  c #735633",
"4  c #161C48",
"5  c #151D45",
"6  c #17214D",
"7  c #1C235C",
"8  c #1C2761",
"9  c #1E2A65",
"0  c #1F2B69",
"q  c #1F3067",
"w  c #1F3169",
"e  c #222C60",
"r  c #292F61",
"t  c #202A6A",
"y  c #2A3262",
"u  c #21336B",
"i  c #2E3868",
"p  c #303760",
"a  c #393E64",
"s  c #233971",
"d  c #2C3F74",
"f  c #253F7B",
"g  c #3D4163",
"h  c #25417B",
"j  c #324D7C",
"k  c #37497E",
"l  c #3F567B",
"z  c #4C4246",
"x  c #584E4E",
"c  c #6F5A4F",
"v  c #7A5F40",
"b  c #715643",
"n  c #645A5B",
"m  c #7E6540",
"M  c #404464",
"N  c #484D6E",
"B  c #4E506A",
"V  c #4D5973",
"C  c #525470",
"Z  c #585974",
"A  c #726A6A",
"S  c #646474",
"D  c #6C6D7D",
"F  c #7C7878",
"G  c #846436",
"H  c #816647",
"J  c #937B55",
"K  c #867260",
"L  c #8B7661",
"P  c #98815A",
"I  c #9C8568",
"U  c #B39C6B",
"Y  c #B49F72",
"T  c #B39F79",
"R  c #B6A072",
"E  c #BFAC7D",
"W  c #274783",
"Q  c #274D85",
"!  c #374A81",
"~  c #3E4E82",
"^  c #285286",
"/  c #2A558C",
"(  c #3E5A86",
")  c #2D5C95",
"_  c #2F699F",
"`  c #356795",
"'  c #366D9C",
"]  c #306AA0",
"[  c #3070A2",
"{  c #3375AA",
"}  c #347DB0",
"|  c #435785",
" . c #4A598B",
".. c #465D86",
"X. c #4F5F91",
"o. c #41678D",
"O. c #4A6B8A",
"+. c #436891",
"@. c #4B6A9D",
"#. c #42649C",
"$. c #5B6B9E",
"%. c #556393",
"&. c #56759E",
"*. c #60788C",
"=. c #7A7C8C",
"-. c #5D6DA1",
";. c #567EA6",
":. c #4D7BB3",
">. c #6C7AA8",
",. c #6C7BB3",
"<. c #737FB5",
"1. c #3685B6",
"2. c #3C84B3",
"3. c #368CB6",
"4. c #3D8BB7",
"5. c #3883B8",
"6. c #3D8BBB",
"7. c #3692B6",
"8. c #3B93BD",
"9. c #7D808F",
"0. c #6D8899",
"q. c #788190",
"w. c #5D8CAE",
"e. c #5183AD",
"r. c #468BB2",
"t. c #4386B1",
"y. c #5897B4",
"u. c #5091BA",
"i. c #5E99B4",
"p. c #6B8AAE",
"a. c #638CA8",
"s. c #6B8BB3",
"d. c #7782B1",
"f. c #7B8CB7",
"g. c #7A85BA",
"h. c #689FBC",
"j. c #6193B3",
"k. c #779CBF",
"l. c #65A5BD",
"z. c #4A8EC8",
"x. c #5B89C7",
"c. c #588FCC",
"v. c #429CC7",
"b. c #5098CA",
"n. c #679CCD",
"m. c #46A1C7",
"M. c #4AA1C8",
"N. c #4AA9C8",
"B. c #50A6CA",
"V. c #5AA7CB",
"C. c #5FB1CF",
"Z. c #71A6C5",
"A. c #7FABC9",
"S. c #77B1CF",
"D. c #64B0D0",
"F. c #6FB6D3",
"G. c #77B7D5",
"H. c #7EB3D3",
"J. c #70B9D4",
"K. c #78BDD6",
"L. c #828080",
"P. c #8A8A8C",
"I. c #8F8F93",
"U. c #848E9C",
"Y. c #87929B",
"T. c #919197",
"R. c #96969C",
"E. c #9E9E9E",
"W. c #A09C9C",
"Q. c #8999A5",
"!. c #818BBF",
"~. c #8496BC",
"^. c #96A1AA",
"/. c #A7A7A7",
"(. c #AFAFAF",
"). c #A3A3A9",
"_. c #A3ACB1",
"`. c #A1B3BF",
"'. c #AEB1B8",
"]. c #838DC1",
"[. c #8598C3",
"{. c #949CCE",
"}. c #88BBCC",
"|. c #97B3CC",
" X c #9EACDA",
".X c #86B7D4",
"XX c #90B7D6",
"oX c #9FB0DD",
"OX c #97BFD9",
"+X c #91B5D9",
"@X c #BBBEC1",
"#X c #A6AED6",
"$X c #A2AADC",
"%X c #A6BFD0",
"&X c #ABADE3",
"*X c #A4BBE3",
"=X c #ACBAE6",
"-X c #B1B4E4",
";X c #B6B9E8",
":X c #BABAE9",
">X c #C1BEEB",
",X c #80C0D8",
"<X c #8AC5DB",
"1X c #8DCADC",
"2X c #99C6D7",
"3X c #94C7DD",
"4X c #97CBDF",
"5X c #94D3DE",
"6X c #ADC2D7",
"7X c #A5D1DF",
"8X c #9CD5E1",
"9X c #9BDBE1",
"0X c #AEC6E6",
"qX c #A1C8E3",
"wX c #BECDE6",
"eX c #B7C3E9",
"rX c #BEC3E4",
"tX c #A4D2E4",
"yX c #AED3E6",
"uX c #A3DDE3",
"iX c #AADBE5",
"pX c #B5DEE8",
"aX c #B9DEE9",
"sX c #B9D2E1",
"dX c #A4E1E3",
"fX c #ACE2E6",
"gX c #B2E4E7",
"hX c #B5E5E8",
"jX c #BAE6EA",
"kX c #BCEAEA",
"lX c #C1C7E7",
"zX c #C4C2EC",
"xX c #CAC4EC",
"cX c #CEC8EE",
"vX c #C0CAE4",
"bX c #D3CAEF",
"nX c #DECDEF",
"mX c #D0C4EC",
"MX c #CAD1EE",
"NX c #C4DFEC",
"BX c #D7CEF0",
"VX c #D8CEF0",
"CX c #D0D0F0",
"ZX c #EACDEF",
"AX c #F2DEF3",
"SX c #C4ECED",
"DX c #CBEDEF",
"FX c #C4E0EC",
"GX c #CEEFF0",
"HX c #D3F1F1",
"JX c #DBF2F3",
"KX c gray93",
"LX c #F2F2E8",
"PX c #F3E5F3",
"IX c #E2F3F4",
"UX c None",
/* pixels */
"UXUXUXUXUXUXUXUXUXUXUXUX^.h.M.M.v.V.Q.@XUXUXUXUXUXUXUXUXUXUXUXUX",
"UXUXUXUXUXUXUXUXUX`.i.F.dXJXKXKXKXHXuXV.r.a._.UXUXUXUXUXUXUXUXUX",
"UXUXUXUXUXUXUXUXy.1XIXKXKXKXIXIXKXKXKXKXgXN.7.w.UXUXUXUXUXUXUXUX",
"UXUXUXUXUXUX%XB.DXKXKXDXpXpXpXiX8X<XiXKXKXKXC.3.6.UXUXUXUXUXUXUX",
"UXUXUXUXUX|.M.JXKXaXtXjXJXKXKXKXKXDX<XD.DXKXKXv.3.4.UXUXUXUXUXUX",
"UXUXUXUXUX7.FXKXtX1XKXKXKXKXKXKXKXKXKX2XM.HXKXiX1.3.r.UXUXUXUXUX",
"UXUXUXUXr.tXPX3X1XKXKXKXKXKXKXKXKXKXKXKX}.v.JXKXm.1.7.0.UXUXUXUX",
"UXUXUXj.,XAXqXJ.KXKXKXKXKXKXKXKXKXKXKXKXLXh.K.KX<X1.3.6.UXUXUXUX",
"UXUXUX8.CXMXB.HXKXKXKXKXKXKXKXKXKXKXKXKXKXtX8.KXNX{ 5.1.Y.UXUXUX",
"UXUXw.K.ZXn.S.KXKXKXKXKXKXKXKXKXKXKXKXKXKXpX} yXIX[ { 5.*.UXUXUX",
"UXUX2.0X:X{ sXKXKXKXKXKXKXKXKXKXKXKXKXKXHXDXt.OXKX' ] { O.UXUXUX",
"UX'.5.VXH.2.KXKXKXKXKXKXKXKXKXKXKXKXKXIXSXSXu.XXKX` ) ] o.UXUXUX",
"UXU.z.nXb.V.KXKXKXKXKXKXKXKXKXKXKXKXHXSXkXkXe.|.JX^ / ) ( UXUXUX",
"UXq.c.mX:..XKXKXKXKXIXIXIXJXJXHXGXSXkXjXgXgX+.wXwXh Q / l UXUXUX",
"UX=.c.mX#.k.KXKXKXIXJXJXHXGXDXSXkXjXhXgXgX4X( PX~.u h W V UXUXUX",
"UX=.:.mX@.&.KXIXJXJXHXHXDXDXkXkXjXgXfXiXgXw.>.KX| 0 s h D UXUXUX",
"UX9.#.cX,.j IXJXHXGXDXDXSXSXjXhXgXfXuXdX5Xj lXlXe 9 q u T.UXUXUX",
"UX).h ;X&Xu 6XJXHXDXDXSXkXjXhXfXfXuXuXdXe.d.KX$.7 7 9 r UXUXUXUX",
"UXUXi ].CX,...HXDXSXkXkXgXfXdXdXdX9X9XZ.f.AX#Xe 7 7 0 S UXUXUXUX",
"UXUXZ k >XzXX.p.DXkXhXgXfXiXuX9X9X9XH.[.BXzXd 7 9 9 p UXUXUXUXUX",
"UXUXR.9 <.xX:X$.p.gXgXdXuXuX8X8X5X.X XbX-Xk 7 8 9 e E.UXUXUXUXUX",
"UXUXUXr 0 {.xXzXd.s.4X9X8X5X5X3XXX-XbX-Xd 5 X 5 7 S UXUXUXUXUXUX",
"UXUXUX=.t 9 g.xXxX-X$XoX*X*X=X:XzX>X!.s 5   b I z P.UXUXUXUXUXUX",
"UXUXUXUXN 9 8  .{.:XzXxXxXxX>X&X!.~ 7 8 4 o H U E K n (.UXUXUXUX",
"UXUXUXUXUXC 9 7 8 d  .$.$.%.~ 9 7 7 7 8 0 7 + 2 J R T c A UXUXUX",
"UXUXUXUXUXUX=.y e 7 7 7 7 7 7 8 8 8 9 9 M R./.& 1 m J Y L ; W.UX",
"UXUXUXUXUXUXUXUX=.B t 9 8 8 e e 0 9 a P.UXUXUXF * > 3 m : % @ E.",
"UXUXUXUXUXUXUXUXUXUXD B a a a B S I.UXUXUXUXUXUX; * - # 1 G & L.",
"UXUXUXUXUXUXUXUXUXUXUXUXUXUXUXUXUXUXUXUXUXUXUXUX/.@   - 1 > O (.",
"UXUXUXUXUXUXUXUXUXUXUXUXUXUXUXUXUXUXUXUXUXUXUXUXUXn O # $ @ n UX",
"UXUXUXUXUXUXUXUXUXUXUXUXUXUXUXUXUXUXUXUXUXUXUXUXUXUXUX@ O x UXUX",
"UXUXUXUXUXUXUXUXUXUXUXUXUXUXUXUXUXUXUXUXUXUXUXUXUXUXUXUXUXUXUXUX"
};
