/* XPM */
static char *chart108_xpm[] = {
/* columns rows colors chars-per-pixel */
"32 32 137 2 ",
"   c #9D8F43",
".  c #9F9146",
"X  c #A19349",
"o  c #A5974E",
"O  c #A3985A",
"+  c #A49859",
"@  c #A4985A",
"#  c #A59A62",
"$  c #A59B62",
"%  c #A79D65",
"&  c #A89E68",
"*  c #A89E6B",
"=  c #AEA267",
"-  c #AEA369",
";  c #ABA16C",
":  c #A9A070",
">  c #AAA174",
",  c #AAA275",
"<  c #ABA275",
"1  c #ABA276",
"2  c #ABA377",
"3  c #ACA479",
"4  c #ACA47A",
"5  c #ACA57D",
"6  c #B2A872",
"7  c #B2A97D",
"8  c #ADA681",
"9  c #AEA782",
"0  c #AFA886",
"q  c #B4AC83",
"w  c #B0A987",
"e  c #B4AD8B",
"r  c #B1AB8C",
"t  c #B1AB8E",
"y  c #B9B083",
"u  c #BAB285",
"i  c #B2AC90",
"p  c #B2AD92",
"a  c #B3AE95",
"s  c #B4AF98",
"d  c #B6B192",
"f  c #B6B196",
"g  c #B4B09A",
"h  c #BAB499",
"j  c #BEB89C",
"k  c #B6B3A0",
"l  c #B6B3A1",
"z  c #B7B4A4",
"x  c #B8B5A7",
"c  c #BBB8A7",
"v  c #BFBAA4",
"b  c #B8B6A8",
"n  c #BEBBAF",
"m  c #BFBCAE",
"M  c #BBB9B1",
"N  c #BBBAB1",
"B  c #BCBAB1",
"V  c #BCBBB1",
"C  c #BCBBB2",
"Z  c #BDBBB2",
"A  c #BEBCB0",
"S  c #BFBDB1",
"D  c #BBBAB4",
"F  c #BCBCB8",
"G  c #BDBCB9",
"H  c #BDBDBB",
"J  c #BEBEBA",
"K  c #BEBDBD",
"L  c gray",
"P  c #C1BB9D",
"I  c #C1BB9E",
"U  c #C1BCA2",
"Y  c #C3BEA4",
"T  c #C3BEA9",
"R  c #C2BFB3",
"E  c #C1BFB6",
"W  c #C5C1AF",
"Q  c #C2C0B4",
"!  c #C4C2B4",
"~  c #C6C3B5",
"^  c #C4C2B6",
"/  c #C5C3B6",
"(  c #C2C0B8",
")  c #C6C4BC",
"_  c #C9C7BF",
"`  c #C8C8C7",
"'  c #C6C6C8",
"]  c #C7C7C9",
"[  c #C9C9CB",
"{  c #CCCBCA",
"}  c #CDCCC9",
"|  c #CFCECB",
" . c #CCCCCE",
".. c #CFCFCF",
"X. c #D0CFCF",
"o. c #D4D1C5",
"O. c #D2D1CA",
"+. c #D2D1CF",
"@. c #DAD8CD",
"#. c #DBD9CF",
"$. c #CECED0",
"%. c #D2D1D0",
"&. c #D0D0D2",
"*. c #D3D2D2",
"=. c #D2D2D3",
"-. c #D3D3D3",
";. c #D4D3D2",
":. c #D4D4D4",
">. c #D4D4D6",
",. c #D5D5D6",
"<. c #D7D6D7",
"1. c #D7D7D8",
"2. c #D7D7D9",
"3. c #D8D8DA",
"4. c #D9D9DB",
"5. c #DADADB",
"6. c #DADADC",
"7. c #DBDBDC",
"8. c #DBDBDD",
"9. c #DDDDDF",
"0. c #DEDEDF",
"q. c #E2E2E3",
"w. c #E3E3E5",
"e. c #E3E3E6",
"r. c #E4E4E6",
"t. c #E6E6E7",
"y. c #EDECE7",
"u. c #E7E7E9",
"i. c #E9E9EA",
"p. c #EBEBEC",
"a. c #EDEDEE",
"s. c #F0F0F1",
"d. c #F3F3F4",
"f. c #F7F6F6",
"g. c #FEFEFE",
"h. c gray100",
"j. c None",
/* pixels */
"j.j.j.j.j.j.j.j.j.j.j.j.j.j.j.j.j.j.j.j.j.j.j.j.j.j.j.j.j.j.j.j.",
"j.j.j.j.j.j.j.j.j.j.j.j.j.j.j.j.j.j.j.j.j.j.j.j.j.j.j.j.j.j.j.j.",
"j.j.j.j.j.j.j.j.j.j.j.j.j.j.j.j.j.j.j.j.j.j.j.j.j.j.j.j.j.j.j.j.",
"j.i.r.w.w.w.w.w.w.3.r.w.w.w.w.r.3.r.w.w.w.w.r.3.r.w.w.w.w.r.a.j.",
"j.w.h.h.h.h.h.h.h.5.h.h.h.h.h.h.5.h.h.h.h.h.h.3.h.h.h.h.h.h.w.j.",
"j.w.h.h.h.h.h.h.h.3.h.h.h.h.h.h.5.h.h.h.h.h.h.5.h.h.h.h.h.h.w.j.",
"j.w.h.h.h.h.h.h.h.5.h.h.h.h.h.h.5.h.h.h.h.h.h.5.h.h.h.h.h.h.w.j.",
"j.q.7.5.5.5.5.5.5.$.5.5.5.5.5.5...5.5.5.5.5.5.$.5.5.5.5.5.8.r.j.",
"j.w.h.h.h.h.h.h.h.5.h.h.h.h.h.h.h.h.h.h.h.h.h.5.h.h.h.h.h.h.w.j.",
"j.w.h.h.h.h.h.h.h.5.h.h.h.h.h.h.h.h.h.h.h.h.h.5.h.h.h.h.h.h.w.j.",
"j.w.h.h.h.h.h.h.h.3.h.h.h.h.h.h.h.h.h.h.h.h.h.5.h.h.h.h.h.h.w.j.",
"j.q.7.5.3.5.5.5.5.$.h.h.h.h.h.h.h.h.h.h.h.h.h.$.5.5.5.5.5.7.r.j.",
"j.w.h.h.h.h.h.h.h.5.h.h.h.h.h.h.h.h.h.h.h.h.h.5.h.h.h.h.h.h.w.j.",
"j.w.h.h.h.h.h.h.h.5.h.h.h.h.h.h.h.h.h.h.h.h.h.5.h.h.h.h.h.h.w.j.",
"j.w.h.h.h.h.h.h.h.5.h.h.h.h.h.h.h.h.h.h.h.h.h.5.h.h.h.h.h.h.w.j.",
"j.q.7.5.5.5.5.5.5.$.5.5.5.5.5.5.$.5.5.5.5.5.5.$.5.5.5.5.5.8.r.j.",
"j.w.h.h.h.h.h.h.h.5.h.h.h.h.h.h.5.h.h.h.h.h.h.5.h.h.h.h.h.h.w.j.",
"j.w.h.h.h.h.h.h.h.5.h.h.h.h.h.h.5.h.h.h.h.h.h.5.h.h.h.h.h.h.w.j.",
"j.w.h.h.h.h.h.h.h.8.h.h.h.h.h.h.8.h.h.h.h.h.h.7.h.h.h.h.h.h.w.j.",
"j.u.' ' ' ' ' ' [ [ ' ' ' ' ' ' [ ' ' ' ' ' ' [ ' ' ' ' ' ' u.j.",
"j.i...[ ..[ ..[ X L M { { v % L L L ` ..7 3 L L L ( [ .... .i.j.",
"j.p.$.>.&.&.j ; 9 s D &.... L L L * L / 2 z L L b L [ $.$.&.p.j.",
"j.a.>.>.>.>.q F ;   D >.P z 2 m U L L / H z Q = H g ) >.>.>.a.j.",
"j.s.3.3.2.5.+.D 0 r D 5.u L L | O.t 2 Q d L L L D L >.3.3.5.s.j.",
"j.d.>.>.>.>.>.>.+ r D >.6 L L &.&.2 $ c * L L L p L ..>.>.>.s.j.",
"j.p.3.3.3.3.3.3.+ r A 5.y L L &.o.2 $ f L L _ ;.x 2 n 5.2.5.p.j.",
"j.a.>.>.>.>.>.>.+ r M >.P L L { Y p 4 e L L &.+.+ 9 D -.>.>.a.j.",
"j.s.5.3.3.3.3.3.+ r D 3.>.a 4 T o L L W L L / = M > Q 5.2.5.s.j.",
"j.d.5.5.5.3.7.3.+ t D 5.5.T L L L < L 5.h F L L 0 L >.5.7.5.d.j.",
"j.h.h.h.h.h.h.h.#.L R h.h.h.#.L L H f.h.h.o.L L L y.h.h.h.h.h.j.",
"j.j.j.j.j.j.j.j.j.j.j.j.j.j.j.j.j.j.j.j.j.j.j.j.j.j.j.j.j.j.j.j.",
"j.j.j.j.j.j.j.j.j.j.j.j.j.j.j.j.j.j.j.j.j.j.j.j.j.j.j.j.j.j.j.j."
};
