/* XPM */
static char *chart3_xpm[] = {
/* columns rows colors chars-per-pixel */
"32 32 98 2 ",
"   c #A89E6C",
".  c #A89F6D",
"X  c #ADA471",
"o  c #AFA87E",
"O  c #B1A87A",
"+  c #B1A97E",
"@  c #AEA884",
"#  c #AFA986",
"$  c #AFA987",
"%  c #B0AA89",
"&  c #B0AA8A",
"*  c #B7B088",
"=  c #B6B090",
"-  c #BAB495",
";  c #B6B29C",
":  c #BCB79D",
">  c #B8B5A7",
",  c #B9B6A7",
"<  c #BFBAA3",
"1  c #BDB9A4",
"2  c #B8B6A8",
"3  c #B9B7AC",
"4  c #BCBAAF",
"5  c #BDBBAF",
"6  c #BBB9B0",
"7  c #BBB9B2",
"8  c #BBBAB2",
"9  c #BBBAB3",
"0  c #BCBBB1",
"q  c #BFBDB1",
"w  c #BCBBB7",
"e  c #BFBEB7",
"r  c #BEBEBD",
"t  c gray",
"y  c #C0BDAA",
"u  c #C0BCAB",
"i  c #C4BFA8",
"p  c #C0BEB2",
"a  c #C1BEB2",
"s  c #C2BFB4",
"d  c #C3C1B5",
"f  c #C6C3B4",
"g  c #C8C5B7",
"h  c #C7C5BD",
"j  c #C9C7BC",
"k  c #CAC8BD",
"l  c #CDCBBF",
"z  c #CBC9C3",
"x  c #CDCBC4",
"c  c #C6C6C8",
"v  c #C7C7C9",
"b  c #C9C9CB",
"n  c #CACACB",
"m  c #CCCBC8",
"M  c #CECDC8",
"N  c #CECDCB",
"B  c #CBCBCD",
"V  c #CCCCCD",
"C  c #CCCCCE",
"Z  c #CECECF",
"A  c #D0CEC7",
"S  c #D2D0C3",
"D  c #D1D0CE",
"F  c #CECED0",
"G  c #D0D0D2",
"H  c #D2D1D3",
"J  c #D2D2D3",
"K  c #D3D3D5",
"L  c #D4D4D4",
"P  c #D4D4D6",
"I  c #D5D5D6",
"U  c #D6D6D8",
"Y  c #D7D7D8",
"T  c #D7D7D9",
"R  c #D8D8DA",
"E  c #D9D9DB",
"W  c #DADADB",
"Q  c #DADADC",
"!  c #DBDBDC",
"~  c #DBDBDD",
"^  c #DDDDDF",
"/  c #DEDEDF",
"(  c #E2E2E3",
")  c #E7E6E0",
"_  c #E3E3E5",
"`  c #E3E3E6",
"'  c #E4E4E6",
"]  c #E6E6E7",
"[  c #E7E7E9",
"{  c #E9E9EA",
"}  c #EBEBEC",
"|  c #EDEDEE",
" . c #F0F0F1",
".. c #F3F3F4",
"X. c #F7F7F6",
"o. c #FEFEFE",
"O. c gray100",
"+. c None",
/* pixels */
"+.+.+.+.+.+.+.+.+.+.+.+.+.+.+.+.+.+.+.+.+.+.+.+.+.+.+.+.+.+.+.+.",
"+.+.+.+.+.+.+.+.+.+.+.+.+.+.+.+.+.+.+.+.+.+.+.+.+.+.+.+.+.+.+.+.",
"+.+.+.+.+.+.+.+.+.+.+.+.+.+.+.+.+.+.+.+.+.+.+.+.+.+.+.+.+.+.+.+.",
"+.{ ' _ _ _ _ _ _ R ' _ _ _ _ ' R ' _ _ _ _ ' R ' _ _ _ _ ' | +.",
"+._ O.O.O.O.O.O.O.W O.O.O.O.O.O.W O.O.O.O.O.O.W O.O.O.O.O.O._ +.",
"+._ O.O.O.O.O.O.O.R O.O.O.O.O.O.W O.O.O.O.O.O.W O.O.O.O.O.O._ +.",
"+._ O.O.O.O.O.O.O.W O.O.O.O.O.O.W O.O.O.O.O.O.W O.O.O.O.O.O._ +.",
"+.( ! W W W W W W F W W W W W W Z W W W W W W Z W W W W W ~ ' +.",
"+._ O.O.O.O.O.O.O.W O.O.O.O.O.O.O.O.O.O.O.O.O.W O.O.O.O.O.O._ +.",
"+._ O.O.O.O.O.O.O.W O.O.O.O.O.O.O.O.O.O.O.O.O.W O.O.O.O.O.O._ +.",
"+._ O.O.O.O.O.O.O.R O.O.O.O.O.O.O.O.O.O.O.O.O.W O.O.O.O.O.O._ +.",
"+.( ! W R W W W W F O.O.O.O.O.O.O.O.O.O.O.O.O.F W W W W W ! ' +.",
"+._ O.O.O.O.O.O.O.W O.O.O.O.O.O.O.O.O.O.O.O.O.W O.O.O.O.O.O._ +.",
"+._ O.O.O.O.O.O.O.W O.O.O.O.O.O.O.O.O.O.O.O.O.W O.O.O.O.O.O._ +.",
"+._ O.O.O.O.O.O.O.W O.O.O.O.O.O.O.O.O.O.O.O.O.W O.O.O.O.O.O._ +.",
"+.( ! W W W W W W F W W W W W W F W W W W W W F W W W W W ~ ' +.",
"+._ O.O.O.O.O.O.O.W O.O.O.O.O.O.W O.O.O.O.O.O.W O.O.O.O.O.O._ +.",
"+._ O.O.O.O.O.O.O.W O.O.O.O.O.O.W O.O.O.O.O.O.W O.O.O.O.O.O._ +.",
"+._ O.O.O.O.O.O.O.~ O.O.O.O.O.O.~ O.O.O.O.O.O.! O.O.O.O.O.O._ +.",
"+.[ c c c c c c c b c c c c c c b c c c c c c b c c c c c c [ +.",
"+.{ Z b C C C t t t t t 6 b Z Z Z C Z b + t t t , b b Z Z Z { +.",
"+.} G G G G G t t t t t   t Z G G G G : t 3 t t $ 6 K G F G } +.",
"+.| P P P P P t t M G M t & q K P P P u > 0 M O w t K K K K | +.",
"+. .R W R R R t t D R W 1 7 t R R R R K z - t t t a R R W W  .+.",
"+...K P P K K t t M P K f t t K K K K R P h t t , 0 K K P P ..+.",
"+.} R R W R ! t t G W R u t t = t t t 1 g P R j t t R R R R } +.",
"+.| P K P K K t t M P P + 0 t s t t t ; t a P k t t G K K K | +.",
"+. .W R R R R t t x l * t & a W R W W 1 @ t A X t t W R W W  .+.",
"+...W W ! R R t t t t t   t R W R W R K t $ t t 7 s W W W R ..+.",
"+.O.O.O.O.O.O.t t t t t e X.O.O.O.O.O.O.) t t t S O.O.O.O.O.O.+.",
"+.+.+.+.+.+.+.+.+.+.+.+.+.+.+.+.+.+.+.+.+.+.+.+.+.+.+.+.+.+.+.+.",
"+.+.+.+.+.+.+.+.+.+.+.+.+.+.+.+.+.+.+.+.+.+.+.+.+.+.+.+.+.+.+.+."
};
