/* XPM */
static char *chart16_xpm[] = {
/* columns rows colors chars-per-pixel */
"24 24 123 2 ",
"   c #AAA274",
".  c #ACA479",
"X  c #AEA782",
"o  c #AFA886",
"O  c #AFA987",
"+  c #B0A980",
"@  c #B3AB83",
"#  c #B3AC89",
"$  c #B3AD8D",
"%  c #B5AF8E",
"&  c #B6B08F",
"*  c #B2AD92",
"=  c #B3AE93",
"-  c #B4AF93",
";  c #B3AE94",
":  c #B3AE95",
">  c #B5B095",
",  c #B8B396",
"<  c #BBB697",
"1  c #B4B099",
"2  c #B6B29F",
"3  c #B7B4A4",
"4  c #BEBAA6",
"5  c #B9B7AD",
"6  c #BAB8AB",
"7  c #BDBBAF",
"8  c #BAB9B0",
"9  c #BBB9B1",
"0  c #BBBAB1",
"q  c #BBB9B2",
"w  c #BEBBB0",
"e  c #BCBAB3",
"r  c #BEBCB0",
"t  c #BBBAB4",
"y  c #BDBCB4",
"u  c #BDBCB6",
"i  c #BCBCB8",
"p  c #BDBCB8",
"a  c #BDBDB9",
"s  c #BEBDB8",
"d  c #BEBDB9",
"f  c gray",
"g  c #C0BEB1",
"h  c #C0BEB2",
"j  c #C1BFB3",
"k  c #C2BFB3",
"l  c #C0BFB5",
"z  c #C2BFB4",
"x  c #CDC7A5",
"c  c #D2CBA8",
"v  c #C7C3B0",
"b  c #C2C0B4",
"n  c #C9C6B5",
"m  c #C7C5B9",
"M  c #C6C4BB",
"N  c #C9C7BE",
"B  c #CBC9BF",
"V  c #C8C6C0",
"C  c #CECCC1",
"Z  c #CACACC",
"A  c #CBCBCD",
"S  c #CBCBCE",
"D  c #D1CFC2",
"F  c #D1CFC4",
"G  c #D0CEC6",
"H  c #D2D0C4",
"J  c #D3D1C6",
"K  c #D5D2C7",
"L  c #D5D3C8",
"P  c #D3D2D3",
"I  c #D2D2D4",
"U  c #D4D4D6",
"Y  c #D5D5D6",
"T  c #D5D5D7",
"R  c #D6D6D7",
"E  c #D6D6D8",
"W  c #D7D7D9",
"Q  c #DAD9D9",
"!  c #DADADB",
"~  c #DCDCDD",
"^  c #DDDDDE",
"/  c #DDDDDF",
"(  c #DEDEDE",
")  c #E0DDD2",
"_  c #DFDFE1",
"`  c #E0E0E1",
"'  c #E1E1E2",
"]  c #E2E2E4",
"[  c #E4E4E5",
"{  c #E6E6E5",
"}  c #E5E5E6",
"|  c #E5E5E7",
" . c #E6E6E6",
".. c #E6E6E7",
"X. c #E6E6E8",
"o. c #E7E7E8",
"O. c #E7E7E9",
"+. c #E9E9E8",
"@. c #E8E8E9",
"#. c #E9E9E9",
"$. c #E9E9EB",
"%. c #EAEAEB",
"&. c #EBEBEC",
"*. c #ECECEC",
"=. c #ECECED",
"-. c #EFEFF0",
";. c #F0F0F1",
":. c #F1F1F1",
">. c #F1F1F2",
",. c #F2F2F2",
"<. c #F4F4F4",
"1. c #F7F7F7",
"2. c #F7F7F8",
"3. c #F8F8F8",
"4. c #F8F8F9",
"5. c #F9F9F9",
"6. c #FBFBFB",
"7. c #FBFBFC",
"8. c #FCFCFC",
"9. c #FDFDFD",
"0. c #FEFEFE",
"q. c #FFFFFF",
"w. c None",
/* pixels */
"w.w.w.w.w.w.w.w.w.w.w.w.w.w.w.w.w.w.w.w.w.w.w.w.",
"w.w.w.w.w.w.w.w.w.w.w.w.w.w.w.w.w.w.w.w.w.w.w.w.",
"w.@.X.X.X.X.] ' X.X.X.X.( X.X.X.| ( | @.X.X.@.w.",
"w.;.8.8.8.8.;.@.8.8.8.7.| 8.8.8.8.| 7.8.8.8.;.w.",
"w.;.8.8.8.8.1.*.8.8.8.8.X.8.8.8.8.@.8.8.8.8.;.w.",
"w.| @.@.@.@.' ( @.@.@.| ( X.@.@.@.! | | @.+.@.w.",
"w.;.7.8.8.8.;.@.8.8.8.8.8.8.8.8.8.| 7.8.8.8.;.w.",
"w.;.8.8.8.8.1.=.8.8.8.8.8.8.8.8.8.| 7.8.8.8.;.w.",
"w.| X.@.| @.' @.8.8.8.8.8.8.8.8.8.' | | | | | w.",
"w.-.8.8.8.8.;.@.8.8.8.8.8.8.8.8.8.| 7.7.7.8.;.w.",
"w.;.8.8.8.8.1.*.8.8.8.8.8.8.8.8.8.@.8.8.8.8.;.w.",
"w.| +.@.@.@.' ( @.@.@.@.' @.@.@.| ! | | @.@.@.w.",
"w.-.7.7.6.6.;.@.8.8.6.2.| 8.8.8.8.| 7.7.7.7.-.w.",
"w.) f f f f s | 8.8.8.6.@.c f D 8.X.x f f s @.w.",
"w.D f f f f O f T T T T . 3 X k T B f f f * u w.",
"w.C f f A A t t b S A A V 5   7 S # 5 0 A f f w.",
"w.H f f I I , : r I I I V % O k I $ o 9 f 9 ! w.",
"w.L f f T ! < s 5 f f f W & O b T - 2 f f : s w.",
"w.L f f T T @ : r f f f T & O b T , . k T f f w.",
"w.H f f T v 9 9 M T T T T & O b T 4 : k n f f w.",
"w.K f f f f O f T T T T T & O b T P f f f 1 u w.",
"w.| f f f f s ( | | | | | B f m ] | G f f u | w.",
"w.w.1.1.2.7.w.w.w.w.w.w.w.8.1.8.w.w.w.8.7.w.w.w.",
"w.w.w.w.w.w.w.w.w.w.w.w.w.w.w.w.w.w.w.w.w.w.w.w."
};
