/* XPM */
static char *chart7_xpm[] = {
/* columns rows colors chars-per-pixel */
"24 24 107 2 ",
"   c #A89E6C",
".  c #A89F6D",
"X  c #B1A97E",
"o  c #AEA781",
"O  c #B0A983",
"+  c #B7AF87",
"@  c #B0AA89",
"#  c #B2AB88",
"$  c #B0AA8A",
"%  c #B3AE93",
"&  c #B6B090",
"*  c #BDB695",
"=  c #B4B099",
"-  c #B5B19D",
";  c #B9B59D",
":  c #BCB8A2",
">  c #BEBCAF",
",  c #BBBAB2",
"<  c #BBBAB3",
"1  c #BDBBB0",
"2  c #BDBBB2",
"3  c #BEBCB5",
"4  c gray",
"5  c #C2BDA4",
"6  c #C3BEA7",
"7  c #C0BEB1",
"8  c #C0BEB2",
"9  c #C1BEB3",
"0  c #C6C2AF",
"q  c #C5C2B3",
"w  c #C2C0B5",
"e  c #C4C2B8",
"r  c #C5C3B9",
"t  c #CBC9BE",
"y  c #D0CDBE",
"u  c #C7C6C5",
"i  c #CCCAC2",
"p  c #CBCAC7",
"a  c #CCCBC7",
"s  c #C9C9CA",
"d  c #CCCCCA",
"f  c #CBCBCD",
"g  c #CDCDCD",
"h  c #CFCECC",
"j  c #CFCECD",
"k  c #CCCCCE",
"l  c #D0CEC6",
"z  c #D0CFCD",
"x  c #D1D1D0",
"c  c #D2D1D1",
"v  c #D1D1D3",
"b  c #D2D2D3",
"n  c #D2D2D4",
"m  c #D4D4D5",
"M  c #D5D5D6",
"N  c #D5D5D7",
"B  c #D6D6D7",
"V  c #D5D5D8",
"C  c #D6D6D8",
"Z  c #D7D7D9",
"A  c #DADADB",
"S  c #DFDFDA",
"D  c #DADADC",
"F  c #DCDCDD",
"G  c #DDDDDE",
"H  c #DDDDDF",
"J  c #DFDFDF",
"K  c #E1E0DC",
"L  c #DEDEE0",
"P  c #DFDFE1",
"I  c #E0E0E1",
"U  c #E1E1E2",
"Y  c #E2E2E4",
"T  c #E3E3E4",
"R  c #E3E3E5",
"E  c #E4E4E5",
"W  c #E5E5E6",
"Q  c #E5E5E7",
"!  c #E6E6E7",
"~  c #E6E6E8",
"^  c #E7E7E8",
"/  c #E7E7E9",
"(  c #E8E8E9",
")  c #E9E9E9",
"_  c #E9E9EB",
"`  c #EAEAEB",
"'  c #EBEBEC",
"]  c #ECECEC",
"[  c #ECECED",
"{  c #EDEDEE",
"}  c #EFEFF0",
"|  c #F0F0F1",
" . c #F1F1F1",
".. c #F1F1F2",
"X. c #F2F2F2",
"o. c #F3F3F2",
"O. c #F4F4F4",
"+. c #F7F7F7",
"@. c #F7F7F8",
"#. c #F8F8F8",
"$. c #F8F8F9",
"%. c #F9F9F9",
"&. c #FBFBFB",
"*. c #FBFBFC",
"=. c #FCFCFC",
"-. c #FFFFFF",
";. c None",
/* pixels */
";.;.;.;.;.;.;.;.;.;.;.;.;.;.;.;.;.;.;.;.;.;.;.;.",
";.;.;.;.;.;.;.;.;.;.;.;.;.;.;.;.;.;.;.;.;.;.;.;.",
";.( ~ ~ ~ ~ Y U ( ~ ~ Q J ~ ~ ~ Q J Q ( ~ ~ ( ;.",
";.| =.=.=.=.| ( =.=.=.*.Q =.=.=.*.Q *.=.=.=.| ;.",
";.| =.=.=.=.+.' =.=.=.=.Q =.=.=.=.( =.=.=.=.| ;.",
";.Q ( ( ( ( U J ( ( ( Q J Q ( ( ( Z Q ( ( ^ ( ;.",
";.| *.=.=.=.| ( =.=.=.=.=.=.=.=.=.Q *.=.=.=.| ;.",
";.| =.=.=.=.+.[ =.=.=.=.=.=.=.=.=.Q *.=.=.=.| ;.",
";.Q ~ ( ~ ~ I ) =.=.=.=.=.=.=.=.=.U Q Q Q Q ~ ;.",
";.} =.=.*.*.| [ =.=.=.=.=.=.=.=.=.^ *.*.*.=.| ;.",
";.| =.=.=.=.O.[ =.=.=.=.=.=.=.=.=.( =.=.=.=.| ;.",
";.Q ) ( ( ( Y L ( ( ( ( U ( ( ( ( Z Q ^ ( ^ ( ;.",
";.| =.4 4 4 4 4 2 | *.+.Q =.=.* 4 4 4 4 4 4 S ;.",
";.| =.4 4 9 4 4 . 4 #.*.( =.=.y 4 4 4 4 4 4 K ;.",
";.L C 4 4 k b p 4 # 7 B b B Z B b d b O - 1 L ;.",
";.D f 4 4 u k k ; , 4 k k k k k f k : 4 4 s D ;.",
";.U b 4 4 d m b q 4 4 b b m m m v v % = 7 m L ;.",
";.Y C 4 4 k Z C 6 4 4 & 4 4 4 e C 5 4 4 C C Y ;.",
";.Y B 4 4 z C C O , 4 9 4 4 4 e B # o 1 C B Y ;.",
";.U B 4 4 i t + 4 # 7 B B B C C m 4 4 p C C U ;.",
";.Q C 4 4 4 4 4 . 4 B B C C C B 0 4 4 B C B Y ;.",
";.[ Y 4 4 4 4 4 3 J Y Q Q Q Y Q l 4 4 Y Q Y [ ;.",
";.;.;.+.+.+.+.=.;.;.;.;.;.;.;.;.;.+.*.;.;.;.;.;.",
";.;.;.;.;.;.;.;.;.;.;.;.;.;.;.;.;.;.;.;.;.;.;.;."
};
