/* XPM */
static char *chart45_xpm[] = {
/* columns rows colors chars-per-pixel */
"32 32 129 2 ",
"   c #9F9042",
".  c #A19346",
"X  c #A0934D",
"o  c #A1944C",
"O  c #A39757",
"+  c #A4995D",
"@  c #A59A5D",
"#  c #A59A5F",
"$  c #A89E6C",
"%  c #A99F6E",
"&  c #AEA368",
"*  c #A9A06F",
"=  c #AFA46C",
"-  c #A9A071",
";  c #AAA171",
":  c #AAA275",
">  c #ACA57C",
",  c #ADA57D",
"<  c #ADA67F",
"1  c #B4AA79",
"2  c #ADA680",
"3  c #AEA782",
"4  c #AEA783",
"5  c #AFA885",
"6  c #B0AA8B",
"7  c #B1AB8C",
"8  c #B3AD8D",
"9  c #B8B086",
"0  c #B6B08F",
"q  c #B2AD92",
"w  c #B5B19B",
"e  c #BBB79F",
"r  c #B6B3A1",
"t  c #B7B3A1",
"y  c #B7B4A3",
"u  c #B8B5A3",
"i  c #B8B5A7",
"p  c #B8B6A7",
"a  c #B8B6A9",
"s  c #B9B6A9",
"d  c #B9B6AA",
"f  c #B9B7AB",
"g  c #BAB8AF",
"h  c #BDBBAC",
"j  c #BDBBAF",
"k  c #BEBBAF",
"l  c #BEBCAF",
"z  c #BCBBB1",
"x  c #BFBCB1",
"c  c #BCBBB4",
"v  c #BCBBB5",
"b  c #BDBBB5",
"n  c #BDBCB7",
"m  c #BDBCB8",
"M  c #BDBDBA",
"N  c #BDBDBC",
"B  c gray",
"V  c #C4BFA6",
"C  c #C2BEAE",
"Z  c #C0BEB2",
"A  c #C1BEB2",
"S  c #C1BFB3",
"D  c #C2BFB3",
"F  c #C0BEB4",
"G  c #C2BFB4",
"H  c #C6C1A8",
"J  c #C6C1A9",
"K  c #C2C0B4",
"L  c #C2C0B5",
"P  c #C4C2B8",
"I  c #C6C4B8",
"U  c #C8C6B9",
"Y  c #CAC7B8",
"T  c #C9C6BB",
"R  c #CDCABB",
"E  c #CDCABC",
"W  c #CDCBBF",
"Q  c #C6C6C3",
"!  c #C8C7C0",
"~  c #CBC9C3",
"^  c #CFCDC0",
"/  c #C9C9C6",
"(  c #CDCCC4",
")  c #CFCEC6",
"_  c #C6C6C8",
"`  c #C7C7C9",
"'  c #C9C9CB",
"]  c #CFCEC8",
"[  c #CCCCCE",
"{  c #D0CFCD",
"}  c #D5D2C7",
"|  c #D9D7CC",
" . c #CECED0",
".. c #CFCFD0",
"X. c #D0D0D0",
"o. c #D2D2D1",
"O. c #D0D0D2",
"+. c #D2D2D3",
"@. c #D3D3D4",
"#. c #D5D4D5",
"$. c #D4D4D6",
"%. c #D5D5D6",
"&. c #D5D5D7",
"*. c #D6D5D6",
"=. c #D7D7D8",
"-. c #D7D7D9",
";. c #D8D8DA",
":. c #D9D9DB",
">. c #DADADB",
",. c #DADADC",
"<. c #DBDBDC",
"1. c #DBDBDD",
"2. c #DDDDDF",
"3. c #DEDEDF",
"4. c #E2E2E3",
"5. c #E3E3E5",
"6. c #E3E3E6",
"7. c #E4E4E6",
"8. c #E6E6E7",
"9. c #E7E7E9",
"0. c #E9E9EA",
"q. c #EEEDE9",
"w. c #EBEBEC",
"e. c #EDEDEE",
"r. c #F0F0F1",
"t. c #F3F3F4",
"y. c #FCFCFC",
"u. c gray100",
"i. c None",
/* pixels */
"i.i.i.i.i.i.i.i.i.i.i.i.i.i.i.i.i.i.i.i.i.i.i.i.i.i.i.i.i.i.i.i.",
"i.i.i.i.i.i.i.i.i.i.i.i.i.i.i.i.i.i.i.i.i.i.i.i.i.i.i.i.i.i.i.i.",
"i.i.i.i.i.i.i.i.i.i.i.i.i.i.i.i.i.i.i.i.i.i.i.i.i.i.i.i.i.i.i.i.",
"i.0.7.5.5.5.5.5.5.;.7.5.5.5.5.7.;.7.5.5.5.5.7.;.7.5.5.5.5.7.e.i.",
"i.5.u.u.u.u.u.u.u.>.u.u.u.u.u.u.>.u.u.u.u.u.u.>.u.u.u.u.u.u.5.i.",
"i.5.u.u.u.u.u.u.u.;.u.u.u.u.u.u.>.u.u.u.u.u.u.>.u.u.u.u.u.u.5.i.",
"i.5.u.u.u.u.u.u.u.>.u.u.u.u.u.u.>.u.u.u.u.u.u.>.u.u.u.u.u.u.5.i.",
"i.4.<.>.>.>.>.>.>. .>.>.>.>.>.>.[ >.>.>.>.>.>. .>.>.>.>.>.1.7.i.",
"i.5.u.u.u.u.u.u.u.>.u.u.u.u.u.u.u.u.u.u.u.u.u.>.u.u.u.u.u.u.5.i.",
"i.5.u.u.u.u.u.u.u.>.u.u.u.u.u.u.u.u.u.u.u.u.u.>.u.u.u.u.u.u.5.i.",
"i.5.u.u.u.u.u.u.u.;.u.u.u.u.u.u.u.u.u.u.u.u.u.>.u.u.u.u.u.u.5.i.",
"i.4.<.>.;.>.>.>.>. .u.u.u.u.u.u.u.u.u.u.u.u.u. .>.>.>.>.>.<.7.i.",
"i.5.u.u.u.u.u.u.u.>.u.u.u.u.u.u.u.u.u.u.u.u.u.>.u.u.u.u.u.u.5.i.",
"i.5.u.u.u.u.u.u.u.>.u.u.u.u.u.u.u.u.u.u.u.u.u.>.u.u.u.u.u.u.5.i.",
"i.5.u.u.u.u.u.u.u.>.u.u.u.u.u.u.u.u.u.u.u.u.u.>.u.u.u.u.u.u.5.i.",
"i.4.<.>.>.>.>.>.>. .>.>.>.>.>.>. .>.>.>.>.>.>. .>.>.>.>.>.1.7.i.",
"i.5.u.u.u.u.u.u.u.>.u.u.u.u.u.u.>.u.u.u.u.u.u.>.u.u.u.u.u.u.5.i.",
"i.5.u.u.u.u.u.u.u.>.u.u.u.u.u.u.>.u.u.u.u.u.u.>.u.u.u.u.u.u.5.i.",
"i.5.u.u.u.u.u.u.u.1.u.u.u.u.u.u.1.u.u.u.u.u.u.<.u.u.u.u.u.u.5.i.",
"i.9._ _ _ _ _ _ ' ' _ _ _ _ _ _ ' _ _ _ _ _ _ ' _ _ _ _ _ _ 9.i.",
"i.0.[ # B B B B B n [ [ ' [ [ [ [ [ C O B h [ o B B B B B Q 0.i.",
"i.w.O.# < B B B s B l O.@.X.O.O.O.X.. B % x O.o p B B B B / w.i.",
"i.e.$.# < z O.O.q B B O.@.@.@.@.$.1 p w * Z O.# > h O.X. .@.e.i.",
"i.r.>.# < v >.<.J F f ~ ;.;.>.>.E # B B * D R 5 3 B B n { >.r.i.",
"i.t.@.# < v @.$.U t < P $.$.$.@.. B B 3 % Z V g % B B - B X.t.i.",
"i.w.;.# < z ;.;.J y < 0 B B B B t 7 h 3 * Z >.B B ~ ) M * Z w.i.",
"i.e.$.# < n $.$.& B f ! B B B B B B B B * B n e P $.O.# 3 h e.i.",
"i.r.>.# < z ~ 9 - B B $.>.;.;.~ B B B B % B M B B U = s : P r.i.",
"i.t.>.# > B B B s B Z >.>.>.>.>.$.$.) 3 * P $.u q B B 6 B $.t.i.",
"i.u.u.} B B B B B | u.u.u.u.u.u.u.u.u.I B ^ u.y.U B B B q.u.u.i.",
"i.i.i.i.i.i.i.i.i.i.i.i.i.i.i.i.i.i.i.i.i.i.i.i.i.i.i.i.i.i.i.i.",
"i.i.i.i.i.i.i.i.i.i.i.i.i.i.i.i.i.i.i.i.i.i.i.i.i.i.i.i.i.i.i.i."
};
