/* XPM */
static char *chart8_xpm[] = {
/* columns rows colors chars-per-pixel */
"32 32 95 2 ",
"   c #A59B62",
".  c #A89E6C",
"X  c #A89F6D",
"o  c #AAA173",
"O  c #AFA674",
"+  c #AFA675",
"@  c #ADA67E",
"#  c #B1A97E",
"$  c #B3AC87",
"%  c #B0A988",
"&  c #B0AA89",
"*  c #B0AA8A",
"=  c #B5AF8D",
"-  c #B7B088",
";  c #B2AC90",
":  c #B2AD92",
">  c #B3AE94",
",  c #B6B090",
"<  c #B5B197",
"1  c #B6B29F",
"2  c #B7B4A3",
"3  c #B9B6A6",
"4  c #BFBAA3",
"5  c #BBB9B0",
"6  c #BBBAB2",
"7  c #BBBAB3",
"8  c #BCBAB0",
"9  c #BEBCB0",
"0  c #BFBCB0",
"q  c #BFBDB1",
"w  c #BFBEB7",
"e  c #BEBEBB",
"r  c #BEBDBC",
"t  c gray",
"y  c #C0BCA9",
"u  c #C4BFA8",
"i  c #C0BEB1",
"p  c #C1BEB2",
"a  c #C2BFB4",
"s  c #C5C3B5",
"d  c #C6C3B4",
"f  c #C7C4B5",
"g  c #C6C4B7",
"h  c #CDCBBE",
"j  c #CDCBBF",
"k  c #CBCAC3",
"l  c #CDCBC4",
"z  c #CFCEC7",
"x  c #C6C6C8",
"c  c #C7C7C9",
"v  c #C9C9CB",
"b  c #CACACB",
"n  c #CCCBC8",
"m  c #CECDC9",
"M  c #CECDCB",
"N  c #CBCBCD",
"B  c #CCCCCE",
"V  c #CFCFCE",
"C  c #CECECF",
"Z  c #D1D0CE",
"A  c #D1D0CF",
"S  c #CECED0",
"D  c #D0D0D2",
"F  c #D2D2D3",
"G  c #D3D3D5",
"H  c #D4D4D6",
"J  c #D5D5D7",
"K  c #D6D5D7",
"L  c #D6D6D8",
"P  c #D7D7D8",
"I  c #D7D7D9",
"U  c #D8D8DA",
"Y  c #D9D9DB",
"T  c #DADADB",
"R  c #DADADC",
"E  c #DBDBDC",
"W  c #DBDBDD",
"Q  c #DDDDDF",
"!  c #DEDEDF",
"~  c #E2E2E3",
"^  c #E3E3E5",
"/  c #E3E3E6",
"(  c #E4E4E6",
")  c #E6E6E7",
"_  c #E7E7E9",
"`  c #E9E9EA",
"'  c #EBEBEC",
"]  c #EDEDEE",
"[  c #F2F1EF",
"{  c #F0F0F1",
"}  c #F3F3F4",
"|  c #F7F7F6",
" . c #FDFDFD",
".. c gray100",
"X. c None",
/* pixels */
"X.X.X.X.X.X.X.X.X.X.X.X.X.X.X.X.X.X.X.X.X.X.X.X.X.X.X.X.X.X.X.X.",
"X.X.X.X.X.X.X.X.X.X.X.X.X.X.X.X.X.X.X.X.X.X.X.X.X.X.X.X.X.X.X.X.",
"X.X.X.X.X.X.X.X.X.X.X.X.X.X.X.X.X.X.X.X.X.X.X.X.X.X.X.X.X.X.X.X.",
"X.` ( ^ ^ ^ ^ ^ ^ U ( ^ ^ ^ ^ ( U ( ^ ^ ^ ^ ( U ( ^ ^ ^ ^ ( ] X.",
"X.^ ..............T ............T ............T ............^ X.",
"X.^ ..............U ............T ............T ............^ X.",
"X.^ ..............T ............T ............T ............^ X.",
"X.~ E T T T T T T S T T T T T T C T T T T T T C T T T T T W ( X.",
"X.^ ..............T ..........................T ............^ X.",
"X.^ ..............T ..........................T ............^ X.",
"X.^ ..............U ..........................T ............^ X.",
"X.~ E T U T T T T S ..........................S T T T T T E ( X.",
"X.^ ..............T ..........................T ............^ X.",
"X.^ ..............T ..........................T ............^ X.",
"X.^ ..............T ..........................T ............^ X.",
"X.~ E T T T T T T S T T T T T T S T T T T T T S T T T T T W ( X.",
"X.^ ..............T ............T ............T ............^ X.",
"X.^ ..............T ............T ............T ............^ X.",
"X.^ ..............W ............W ............E ............^ X.",
"X._ x x x x x x c v x x x x x x v x x x x x x v x x x x x x _ X.",
"X.` C v C v S t t t t t 5 v C C C B v C $ t t t 3 v v C C C ` X.",
"X.' D D D S D t t t t t . t S S D D S g t > t t & 5 G D S D ' X.",
"X.] L G G G L t t m G n t % q G H H H g t t m O t t G G G G ] X.",
"X.{ U T U U U t t C U T 4 7 t U U U U U t 1 t t t q U U T T { X.",
"X.} G L G G G t t C L G d t t G G G L f t @ t t t 9 G L G G { X.",
"X.' U U U U T t t C U U u t t , t t t ; ; t L k t t L I U U ] X.",
"X.] L G L G G t t m G L # 5 t p t t t <   9 L Z t t C G G G ] X.",
"X.{ U U U U U t t l h - t % p T U U E 4 ; t z O t t L T T T { X.",
"X.} T T U T U t t t t t . t U T T T U U t o t t 2 q T T T I } X.",
"X.............t t t t t w | ............[ e t t h ............X.",
"X.X.X.X.X.X.X.X.X.X.X.X.X.X.X.X.X.X.X.X.X.X.X.X.X.X.X.X.X.X.X.X.",
"X.X.X.X.X.X.X.X.X.X.X.X.X.X.X.X.X.X.X.X.X.X.X.X.X.X.X.X.X.X.X.X."
};
