/* XPM */
static char *chart1_xpm[] = {
/* columns rows colors chars-per-pixel */
"32 32 84 1 ",
"  c #9D8F43",
". c #A19349",
"X c #A49859",
"o c #A4985A",
"O c #A59A5F",
"+ c #AEA368",
"@ c #ABA16C",
"# c #A9A070",
"$ c #AAA171",
"% c #ADA57D",
"& c #ADA67F",
"* c #ADA680",
"= c #ADA681",
"- c #B4AC83",
"; c #B0A987",
": c #B1AB8C",
"> c #B3AD8D",
", c #B8B086",
"< c #B6B08F",
"1 c #B4AF98",
"2 c #BEB89C",
"3 c #B6B3A1",
"4 c #B7B4A3",
"5 c #B8B6A9",
"6 c #B9B6AA",
"7 c #B9B7AB",
"8 c #BEBCAF",
"9 c #BBBAB1",
"0 c #BCBAB1",
"q c #BCBBB2",
"w c #BDBBB2",
"e c #BEBCB0",
"r c #BCBBB4",
"t c #BCBBB5",
"y c #BDBBB5",
"u c #BCBCB8",
"i c gray",
"p c #C1BFB3",
"a c #C0BEB4",
"s c #C1BFB6",
"d c #C6C1A8",
"f c #C6C1A9",
"g c #C2C0B5",
"h c #CAC7B8",
"j c #CDCBBF",
"k c #C8C7C0",
"l c #CBC9C3",
"z c #C6C6C8",
"x c #C7C7C9",
"c c #C9C9CB",
"v c #CCCCCE",
"b c #D5D2C7",
"n c #D9D7CC",
"m c #DAD8CD",
"M c #CECED0",
"N c #D0D0D0",
"B c #D2D1D0",
"V c #D0D0D2",
"C c #D2D2D3",
"Z c #D4D4D6",
"A c #D5D5D7",
"S c #D7D7D8",
"D c #D7D7D9",
"F c #D8D8DA",
"G c #D9D9DB",
"H c #DADADB",
"J c #DADADC",
"K c #DBDBDC",
"L c #DBDBDD",
"P c #DDDDDF",
"I c #DEDEDF",
"U c #E2E2E3",
"Y c #E3E3E5",
"T c #E3E3E6",
"R c #E4E4E6",
"E c #E6E6E7",
"W c #E7E7E9",
"Q c #E9E9EA",
"! c #EBEBEC",
"~ c #EDEDEE",
"^ c #F0F0F1",
"/ c #F3F3F4",
"( c gray100",
") c None",
/* pixels */
"))))))))))))))))))))))))))))))))",
"))))))))))))))))))))))))))))))))",
"))))))))))))))))))))))))))))))))",
")QRYYYYYYFRYYYYRFRYYYYRFRYYYYR~)",
")Y(((((((H((((((H((((((H((((((Y)",
")Y(((((((F((((((H((((((H((((((Y)",
")Y(((((((H((((((H((((((H((((((Y)",
")UKHHHHHHMHHHHHHvHHHHHHMHHHHHLR)",
")Y(((((((H(((((((((((((H((((((Y)",
")Y(((((((H(((((((((((((H((((((Y)",
")Y(((((((F(((((((((((((H((((((Y)",
")UKHFHHHHM(((((((((((((MHHHHHKR)",
")Y(((((((H(((((((((((((H((((((Y)",
")Y(((((((H(((((((((((((H((((((Y)",
")Y(((((((H(((((((((((((H((((((Y)",
")UKHHHHHHMHHHHHHMHHHHHHMHHHHHLR)",
")Y(((((((H((((((H((((((H((((((Y)",
")Y(((((((H((((((H((((((H((((((Y)",
")Y(((((((L((((((L((((((L((((((Y)",
")WzzzzzzcczzzzzcczzzzzzczzzzzzW)",
")QvvvvvOiiiiiscvvvvvvv.i0vvvvvQ)",
")!VVVMVO%iii6ieVVVVM2@=10VVMVV!)",
")~AZZZZO%rVV:iiZAZZZ-u$ 0AZZZZ~)",
")^FFFFFO%rFHfi5lHFFFVe;:0FFFFH^)",
")/ZZZZZO%rAZh3%gZZZZZZX:0AZZZZ/)",
")!FFFFFO%rFFf3=>iiiiFFX:0FFFFF!)",
")~AZZZZO%rZA+i7kiiiiZZX:0ZZZZZ~)",
")^FFFFFO%rj,$iiFFFFFFFX:0KFFFH^)",
")/HHHHFO%iii5ipHHHFKHHX:0HHHHF/)",
")((((((biiiiim((((((((mis(((((()",
"))))))))))))))))))))))))))))))))",
"))))))))))))))))))))))))))))))))"
};
