/* XPM */
static char *chart4_xpm[] = {
/* columns rows colors chars-per-pixel */
"24 24 105 2 ",
"   c #A89E6C",
".  c #A89F6D",
"X  c #AEA77F",
"o  c #B1A97E",
"O  c #B3AC83",
"+  c #B2AB86",
"@  c #B7AF87",
"#  c #B0AA89",
"$  c #B0AA8A",
"%  c #B2AC90",
"&  c #B6B090",
"*  c #B7B090",
"=  c #B4B09A",
"-  c #B9B59D",
";  c #B7B4A4",
":  c #BBBAB2",
">  c #BBBAB3",
",  c #BCBAB0",
"<  c #BCBAB2",
"1  c #BDBBB2",
"2  c #BBBAB4",
"3  c #BEBCB5",
"4  c gray",
"5  c #C3BEA7",
"6  c #C0BEB1",
"7  c #C0BEB2",
"8  c #C2BFB2",
"9  c #C5C2B3",
"0  c #C2C0B5",
"q  c #CBC9BE",
"w  c #C7C6C5",
"e  c #CCCAC2",
"r  c #CDCBC3",
"t  c #CBCAC7",
"y  c #CDCBC4",
"u  c #CCCCCA",
"i  c #CACACC",
"p  c #CBCBCD",
"a  c #CFCECC",
"s  c #CFCECD",
"d  c #CCCCCE",
"f  c #D0CFCD",
"g  c #D0D0D2",
"h  c #D1D1D2",
"j  c #D1D1D3",
"k  c #D2D1D2",
"l  c #D2D2D3",
"z  c #D5D4D0",
"x  c #D7D6D2",
"c  c #D2D2D4",
"v  c #D4D4D5",
"b  c #D4D4D6",
"n  c #D5D5D7",
"m  c #D6D6D7",
"M  c #D5D5D8",
"N  c #D6D6D8",
"B  c #D7D7D9",
"V  c #DADADB",
"C  c #DADADC",
"Z  c #DCDCDD",
"A  c #DDDDDE",
"S  c #DDDDDF",
"D  c #DFDFDF",
"F  c #E4E1D0",
"G  c #DEDEE0",
"H  c #DFDFE0",
"J  c #DFDFE1",
"K  c #E0E0E1",
"L  c #E1E1E2",
"P  c #E2E2E4",
"I  c #E3E3E4",
"U  c #E3E3E5",
"Y  c #E4E4E5",
"T  c #E5E5E6",
"R  c #E5E5E7",
"E  c #E6E6E6",
"W  c #E6E6E7",
"Q  c #E6E6E8",
"!  c #E7E7E8",
"~  c #E7E7E9",
"^  c #E8E8E9",
"/  c #E9E9E9",
"(  c #E9E9EB",
")  c #EAEAEB",
"_  c #EBEBEC",
"`  c #ECECEC",
"'  c #ECECED",
"]  c #EDEDEE",
"[  c #EFEFF0",
"{  c #F0F0F1",
"}  c #F1F1F1",
"|  c #F1F1F2",
" . c #F2F2F2",
".. c #F3F3F2",
"X. c #F4F4F4",
"o. c #F7F7F7",
"O. c #F7F7F8",
"+. c #F8F8F8",
"@. c #F8F8F9",
"#. c #F9F9F9",
"$. c #FBFBFB",
"%. c #FBFBFC",
"&. c #FCFCFC",
"*. c #FFFFFF",
"=. c None",
/* pixels */
"=.=.=.=.=.=.=.=.=.=.=.=.=.=.=.=.=.=.=.=.=.=.=.=.",
"=.=.=.=.=.=.=.=.=.=.=.=.=.=.=.=.=.=.=.=.=.=.=.=.",
"=.^ Q Q Q Q P L ^ Q Q R D Q Q Q R D R ^ Q Q ^ =.",
"=.{ &.&.&.&.{ ^ &.&.&.%.R &.&.&.%.R %.&.&.&.{ =.",
"=.{ &.&.&.&.o._ &.&.&.&.R &.&.&.&.^ &.&.&.&.{ =.",
"=.R ^ ^ ^ ^ L D ^ ^ ^ R D R ^ ^ ^ B R ^ ^ ! ^ =.",
"=.{ %.&.&.&.{ ^ &.&.&.&.&.&.&.&.&.R %.&.&.&.{ =.",
"=.{ &.&.&.&.o.' &.&.&.&.&.&.&.&.&.R %.&.&.&.{ =.",
"=.R Q ^ ! R L ^ &.&.&.&.&.&.&.&.&.L R R R R Q =.",
"=.{ &.&.&.&.{ ' &.&.&.&.&.&.&.&.&.^ %.%.%.&.{ =.",
"=.{ &.&.&.&.{ ' &.&.&.&.&.&.&.&.&.^ &.&.&.&.{ =.",
"=.R ! ^ ^ ^ L D ^ ^ ^ ^ L ^ ^ ^ ^ B R R ^ ! ^ =.",
"=.{ &.4 4 4 4 4 1 { %.o.R &.&.&.&.R F 4 4 %.[ =.",
"=.{ &.4 4 4 4 4 . 4 +.&.^ &.&.&.&.R O % 4 &.{ =.",
"=.G N 4 4 f l t 4 # 7 m l m B B m O 4 4 4 v G =.",
"=.C p 4 4 w d d - < 4 d d d d d 7 4 4 4 4 i C =.",
"=.L l 4 4 u v l 9 4 4 l v v l l X = : 4 4 g G =.",
"=.P N 4 4 d N N 5 4 4 & 4 4 4 & 4 4 e 4 4 m P =.",
"=.P m 4 4 f N N o : 4 0 4 4 4 ; : 4 4 4 4 4 x =.",
"=.L N 4 4 e q @ 4 # 7 m m N N : 4 4 4 4 4 4 x =.",
"=.U N 4 4 4 4 4 . 4 m m N m m m l l t 4 4 l L =.",
"=.' P 4 4 4 4 4 3 G P R P R P R Y R D 4 4 P ' =.",
"=.=.=.o.o.o.o.&.=.=.=.=.=.=.=.=.=.=.=.o.%.=.=.=.",
"=.=.=.=.=.=.=.=.=.=.=.=.=.=.=.=.=.=.=.=.=.=.=.=."
};
