/* XPM */
static char *chart30_xpm[] = {
/* columns rows colors chars-per-pixel */
"24 24 128 2 ",
"   c #B1A97F",
".  c #AFA885",
"X  c #AFA886",
"o  c #AFA987",
"O  c #B3AB83",
"+  c #B2AC88",
"@  c #B1AB8C",
"#  c #B1AB8D",
"$  c #B3AE8F",
"%  c #B8B18D",
"&  c #BFB88F",
"*  c #B2AD91",
"=  c #B3AE94",
"-  c #B3AE95",
";  c #B5B091",
":  c #B5B095",
">  c #B8B396",
",  c #BBB697",
"<  c #B6B29F",
"1  c #BCB79E",
"2  c #BEB899",
"3  c #B6B2A0",
"4  c #B6B3A1",
"5  c #B7B4A3",
"6  c #B8B4A1",
"7  c #B9B6A3",
"8  c #B9B6AA",
"9  c #B9B7AB",
"0  c #BAB8AB",
"q  c #BBB9AE",
"w  c #BDBAAF",
"e  c #BDBBAF",
"r  c #BBB9B0",
"t  c #BBB9B1",
"y  c #BBB9B2",
"u  c #BDBBB1",
"i  c #BDBBB3",
"p  c #BEBCB0",
"a  c #BEBCB3",
"s  c #BBBAB4",
"d  c #BCBCB8",
"f  c #BDBCB8",
"g  c #BDBDB9",
"h  c #BEBDB9",
"j  c gray",
"k  c #C1BDAB",
"l  c #C0BEB2",
"z  c #C0BFB5",
"x  c #C1BFB6",
"c  c #C5C0A8",
"v  c #C2C0B3",
"b  c #C7C3B0",
"n  c #C6C3B4",
"m  c #C5C2B6",
"M  c #C3C1B8",
"N  c #C5C3BA",
"B  c #C6C4BB",
"V  c #C7C5BB",
"C  c #C6C5BD",
"Z  c #C5C4BE",
"A  c #C8C6BE",
"S  c #C9C7C0",
"D  c #CECCC1",
"F  c #CCCCCA",
"G  c #CACACC",
"H  c #CBCBCD",
"J  c #D1CFC4",
"K  c #D2D0C4",
"L  c #D3D1C6",
"P  c #D5D2C7",
"I  c #D1D0CB",
"U  c #D5D3C8",
"Y  c #D4D3CD",
"T  c #D1D0D0",
"R  c #D2D2D4",
"E  c #D4D4D5",
"W  c #D4D4D6",
"Q  c #D5D5D6",
"!  c #D5D5D7",
"~  c #D6D6D7",
"^  c #D6D6D8",
"/  c #D7D7D9",
"(  c #DADADB",
")  c #DCDCDD",
"_  c #DDDDDE",
"`  c #DDDDDF",
"'  c #DEDEDE",
"]  c #E0DDD2",
"[  c #DFDFE0",
"{  c #DFDFE1",
"}  c #E0E0E1",
"|  c #E1E1E2",
" . c #E2E2E4",
".. c #E4E4E5",
"X. c #E6E6E5",
"o. c #E5E5E6",
"O. c #E5E5E7",
"+. c #E6E6E6",
"@. c #E6E6E7",
"#. c #E6E6E8",
"$. c #E7E7E8",
"%. c #E7E7E9",
"&. c #E8E8E9",
"*. c #E9E9E9",
"=. c #E9E9EB",
"-. c #EAEAEB",
";. c #EBEBEC",
":. c #ECECEC",
">. c #ECECED",
",. c #EFEFF0",
"<. c #F0F0F1",
"1. c #F1F1F1",
"2. c #F1F1F2",
"3. c #F2F2F2",
"4. c #F4F4F4",
"5. c #F5F5F4",
"6. c #F7F7F7",
"7. c #F8F7F4",
"8. c #F7F7F8",
"9. c #F8F8F8",
"0. c #F8F8F9",
"q. c #F9F9F9",
"w. c #FAFAFA",
"e. c #FBFBFB",
"r. c #FCFCFC",
"t. c #FEFEFE",
"y. c #FFFFFF",
"u. c None",
/* pixels */
"u.u.u.u.u.u.u.u.u.u.u.u.u.u.u.u.u.u.u.u.u.u.u.u.",
"u.u.u.u.u.u.u.u.u.u.u.u.u.u.u.u.u.u.u.u.u.u.u.u.",
"u.&.#.#.&.#. .{ #.#.#.O.' #.#.#.O.' O.O.#.#.&.u.",
"u.<.r.r.r.r.<.:.r.r.r.e.O.r.r.r.r.O.e.r.r.r.<.u.",
"u.<.r.r.r.r.6.&.r.r.r.r.#.r.r.r.r.&.r.r.r.r.<.u.",
"u.O.&.&.&.&. .' &.&.&.O.' O.&.&.&.( O.*.&.*.&.u.",
"u.<.e.r.r.r.<.&.r.r.r.r.r.r.r.r.r.O.e.r.r.r.<.u.",
"u.<.r.r.r.r.6.>.r.r.r.r.r.r.r.r.r.#.e.r.r.r.<.u.",
"u.O.O.*.O.O. .&.r.r.r.r.r.r.r.r.r. .O.O.O.*.O.u.",
"u.<.r.r.r.e.<.:.r.r.r.r.r.r.r.r.r.O.6.r.e.e.<.u.",
"u.<.r.r.r.r.4.:.r.r.r.r.r.r.r.r.r.*.r.r.r.r.<.u.",
"u.O.*.*.&.&. .' &.&.&.&. .&.&.&.*.( O.O.*.*.*.u.",
"u.,.r.e.e.e.<.&.r.r.r.6.O.r.e.r.e.O.6.e.e.e.,.u.",
"u.] j j j j h O.r.r.r.7.  j j u 6.&.& j j l ,.u.",
"u.J j j j j . j / / ~ % j j j . r n j j j = M u.",
"u.D j j H H s r x H H 7 4 x 1 j j + < 0 Z j j u.",
"u.K j j R R > - e R R F V j j 5 r $ @ M R j j u.",
"u.U j j / / , h 0 j j j / j j - h : 7 A / j j u.",
"u.U j j / / O = u j j j r R E j j ; # N I j j u.",
"u.K j j / b r r N / ~ 7 9 A k x j k 9 u 2 j j u.",
"u.P j j j j . j ~ ~ / V j j j # r ~ j j j 4 m u.",
"u.O.j j j j d ' O.O. . .m j j u [ O.Y j j u >.u.",
"u.u.6.6.6.e.u.u.u.u.u.u.u.e.e.u.u.u.u.r.e.u.u.u.",
"u.u.u.u.u.u.u.u.u.u.u.u.u.u.u.u.u.u.u.u.u.u.u.u."
};
