/* XPM */
static char *chart60_xpm[] = {
/* columns rows colors chars-per-pixel */
"24 24 126 2 ",
"   c #ACA479",
".  c #AFA886",
"X  c #AFA987",
"o  c #B3AB83",
"O  c #B2AC88",
"+  c #B3AC89",
"@  c #B1AB8C",
"#  c #B1AB8D",
"$  c #B3AD8D",
"%  c #B3AE8F",
"&  c #BFB88F",
"*  c #B2AD91",
"=  c #B2AD92",
"-  c #B3AE93",
";  c #B3AE94",
":  c #B3AE95",
">  c #B5B091",
",  c #B5B095",
"<  c #B8B396",
"1  c #BBB697",
"2  c #B4B099",
"3  c #B6B29F",
"4  c #BEB899",
"5  c #B6B2A0",
"6  c #B6B3A1",
"7  c #BEBAA6",
"8  c #B9B7AB",
"9  c #BAB8AB",
"0  c #BBB9AE",
"q  c #BDBBAF",
"w  c #BAB9B0",
"e  c #BBB9B1",
"r  c #BBBAB1",
"t  c #BBB9B2",
"y  c #BCBAB3",
"u  c #BDBBB3",
"i  c #BEBCB0",
"p  c #BEBCB3",
"a  c #BBBAB4",
"s  c #BDBCB6",
"d  c #BCBCB8",
"f  c #BDBCB8",
"g  c #BEBDB8",
"h  c #BEBDB9",
"j  c gray",
"k  c #C4BE9C",
"l  c #C1BDAB",
"z  c #C0BEB1",
"x  c #C0BEB2",
"c  c #C1BFB3",
"v  c #C0BFB5",
"b  c #C2C0B3",
"n  c #C7C3B0",
"m  c #C6C3B4",
"M  c #C5C2B6",
"N  c #C9C6B5",
"B  c #C3C1B8",
"V  c #C5C3BA",
"C  c #C6C4BB",
"Z  c #C5C4BE",
"A  c #C9C7C0",
"S  c #CDCBC2",
"D  c #CECCC1",
"F  c #CACACC",
"G  c #CBCBCD",
"H  c #CFCECF",
"J  c #D1CFC4",
"K  c #D0CEC6",
"L  c #D2D0C4",
"P  c #D3D1C6",
"I  c #D5D2C7",
"U  c #D1D0CB",
"Y  c #D5D3C8",
"T  c #D4D3CD",
"R  c #D3D2D3",
"E  c #D2D2D4",
"W  c #D4D4D6",
"Q  c #D5D5D6",
"!  c #D5D5D7",
"~  c #D6D6D7",
"^  c #D6D6D8",
"/  c #D7D7D9",
"(  c #DADADB",
")  c #DCDCDD",
"_  c #DDDDDE",
"`  c #DDDDDF",
"'  c #DEDEDE",
"]  c #E0DDD2",
"[  c #DFDFE1",
"{  c #E0E0E1",
"}  c #E1E1E2",
"|  c #E2E2E4",
" . c #E4E4E5",
".. c #E6E6E5",
"X. c #E5E5E6",
"o. c #E5E5E7",
"O. c #E6E6E6",
"+. c #E6E6E7",
"@. c #E6E6E8",
"#. c #E7E7E8",
"$. c #E7E7E9",
"%. c #E8E8E9",
"&. c #E9E9E9",
"*. c #E9E9EB",
"=. c #EAEAEB",
"-. c #EBEBEC",
";. c #ECECEC",
":. c #ECECED",
">. c #EFEFF0",
",. c #F0F0F1",
"<. c #F1F1F1",
"1. c #F1F1F2",
"2. c #F2F2F2",
"3. c #F5F4F3",
"4. c #F4F4F4",
"5. c #F7F7F7",
"6. c #F7F7F8",
"7. c #F8F8F8",
"8. c #F8F8F9",
"9. c #F9F9F9",
"0. c #FBFBFB",
"q. c #FBFBFC",
"w. c #FCFCFC",
"e. c #FEFEFE",
"r. c #FFFFFF",
"t. c None",
/* pixels */
"t.t.t.t.t.t.t.t.t.t.t.t.t.t.t.t.t.t.t.t.t.t.t.t.",
"t.t.t.t.t.t.t.t.t.t.t.t.t.t.t.t.t.t.t.t.t.t.t.t.",
"t.%.@.@.%.@.| [ @.@.@.o.' @.@.@.o.' o.%.@.@.%.t.",
"t.,.w.w.w.w.,.;.w.w.w.q.o.w.w.w.q.o.q.w.w.w.,.t.",
"t.,.w.w.w.w.5.%.w.w.w.w.@.w.w.w.w.%.q.w.w.w.,.t.",
"t.o.%.%.%.%.| ' %.%.%.o.' o.%.%.%.( o.&.%.&.%.t.",
"t.,.q.w.w.w.,.%.w.w.w.w.w.w.w.w.w.o.q.w.w.q.,.t.",
"t.,.w.w.w.w.5.:.w.w.w.w.w.w.w.w.w.o.q.w.w.w.,.t.",
"t.o.%.%.o.o.| %.w.w.w.w.w.w.w.w.w.| o.o.&.o.o.t.",
"t.:.q.w.q.q.>.:.w.w.w.w.w.w.w.w.w.o.5.q.q.q.,.t.",
"t.,.w.w.w.w.3.:.w.w.w.w.w.w.w.w.w.%.w.w.w.w.,.t.",
"t.o.&.%.%.%.| ' %.%.%.%.| %.%.%.&.( o.o.%.&.%.t.",
"t.,.q.q.w.q.,.%.w.w.q.6.o.q.q.q.q.o.5.q.q.q.>.t.",
"t.] j j j j g o.w.w.w.q.k j j g 3.@.& j j z >.t.",
"t.L j j j j X j ^ ^ ^ S j j j = s M j j j = b t.",
"t.D j j G F e e B G G + 0 r F j j o 3 0 Z j j t.",
"t.L j j R R < : q R R $ X e j e H = # B R j j t.",
"t.Y j j ^ ^ 1 g 9 j j j 5 j j : s , 5 A ^ j j t.",
"t.Y j j ^ ^ o : i j j j   z ! j j > # V U j j t.",
"t.P j j ^ n e e C ! ! 7 : z N j j l 9 q 4 j j t.",
"t.P j j j j X j ! ^ ^ R j j j 2 s ! j j j 5 M t.",
"t.o.j j j j g ' | o.o.o.K j j s ' o.T j j p :.t.",
"t.t.5.5.5.q.t.t.t.t.t.t.t.w.q.t.t.t.t.w.q.t.t.t.",
"t.t.t.t.t.t.t.t.t.t.t.t.t.t.t.t.t.t.t.t.t.t.t.t."
};
