/* XPM */
static char *chart9_xpm[] = {
/* columns rows colors chars-per-pixel */
"24 24 120 2 ",
"   c #A69B64",
".  c #A89E6C",
"X  c #A89F6D",
"o  c #ABA270",
"O  c #ABA378",
"+  c #ADA57A",
"@  c #B1A97E",
"#  c #AFA885",
"$  c #B7AF87",
"%  c #B0AA89",
"&  c #B0AA8A",
"*  c #B4AD88",
"=  c #B1AB8C",
"-  c #B2AD92",
";  c #B4AE93",
":  c #B3AF96",
">  c #B3AF97",
",  c #B6B090",
"<  c #B9B59D",
"1  c #BCB7A1",
"2  c #BFBCA9",
"3  c #BCBAAD",
"4  c #BBBAB2",
"5  c #BBBAB3",
"6  c #BDBBB2",
"7  c #BCBBB6",
"8  c #BEBCB5",
"9  c #BDBCB8",
"0  c #BDBDBA",
"q  c gray",
"w  c #C3BEA7",
"e  c #C1BDAA",
"r  c #C0BEB1",
"t  c #C0BEB2",
"y  c #D2CCAB",
"u  c #C2C0B3",
"i  c #C3C0B3",
"p  c #C5C2B3",
"a  c #C2C0B5",
"s  c #C5C3B9",
"d  c #C7C5B8",
"f  c #CBC9BE",
"g  c #CDCABC",
"h  c #CCC9BE",
"j  c #C7C6C5",
"k  c #CAC9C3",
"l  c #CBCAC3",
"z  c #CCCAC2",
"x  c #CBCAC7",
"c  c #CFCDC4",
"v  c #CCCCCA",
"b  c #CBCBCD",
"n  c #CFCECC",
"m  c #CFCECD",
"M  c #CCCCCE",
"N  c #D0CFCD",
"B  c #D6D4C8",
"V  c #D4D3CD",
"C  c #D1D1D3",
"Z  c #D2D2D3",
"A  c #D3D2D3",
"S  c #D2D2D4",
"D  c #D4D4D5",
"F  c #D5D5D7",
"G  c #D6D6D7",
"H  c #D5D5D8",
"J  c #D6D6D8",
"K  c #D7D7D9",
"L  c #D8D8D9",
"P  c #DADADA",
"I  c #DADADB",
"U  c #DADADC",
"Y  c #DCDCDD",
"T  c #DDDDDE",
"R  c #DDDDDF",
"E  c #DFDEDF",
"W  c #DFDFDF",
"Q  c #EAE7D5",
"!  c #DEDEE0",
"~  c #DFDFE1",
"^  c #E0E0E1",
"/  c #E1E1E2",
"(  c #E1E1E3",
")  c #E2E2E4",
"_  c #E3E3E4",
"`  c #E3E3E5",
"'  c #E4E4E5",
"]  c #E5E5E6",
"[  c #E5E5E7",
"{  c #E6E6E7",
"}  c #E6E6E8",
"|  c #E7E7E8",
" . c #E7E7E9",
".. c #E8E8E9",
"X. c #E9E9E9",
"o. c #E9E9EB",
"O. c #EAEAEB",
"+. c #EBEBEC",
"@. c #ECECEC",
"#. c #ECECED",
"$. c #EDEDEE",
"%. c #EFEFF0",
"&. c #F0F0F1",
"*. c #F1F1F1",
"=. c #F1F1F2",
"-. c #F2F2F2",
";. c #F3F3F2",
":. c #F4F4F4",
">. c #F7F7F7",
",. c #F7F7F8",
"<. c #F8F8F8",
"1. c #F8F8F9",
"2. c #F9F9F9",
"3. c #FBFBFB",
"4. c #FBFBFC",
"5. c #FCFCFC",
"6. c #FDFDFD",
"7. c #FEFEFE",
"8. c #FFFFFF",
"9. c None",
/* pixels */
"9.9.9.9.9.9.9.9.9.9.9.9.9.9.9.9.9.9.9.9.9.9.9.9.",
"9.9.9.9.9.9.9.9.9.9.9.9.9.9.9.9.9.9.9.9.9.9.9.9.",
"9...} } } .._ ~ } } } [ E } } } [ E [ ..} } ..9.",
"9.&.5.5.5.5.&.@.5.5.5.4.[ 5.5.5.4.[ 4.5.5.5.&.9.",
"9.&.5.5.5.5.>...5.5.5.5.[ 5.5.5.5...5.5.5.5.&.9.",
"9.[ ........( E ......[ E [ ......L [ ........9.",
"9.&.4.5.5.5.&...5.5.5.5.5.5.5.5.5.[ 4.5.5.5.&.9.",
"9.&.5.5.5.5.>.#.5.5.5.5.5.5.5.5.5.[ 4.5.5.5.&.9.",
"9.[ } ..[ [ ( ..5.5.5.5.5.5.5.5.5.( [ [ [ [ [ 9.",
"9.#.5.5.5.5.&.#.5.5.5.5.5.5.5.5.5.} 4.4.4.5.&.9.",
"9.&.5.5.5.5.&.#.5.5.5.5.5.5.5.5.5...5.5.5.5.&.9.",
"9.[ ........( E ........( ........L [ ........9.",
"9.&.5.s q q q q 6 &.4.>.[ 5.5.5.y 9 q q h 4.%.9.",
"9.&.5.q q q q q . q 4.4...5.5.Q q O q q q B &.9.",
"9.~ H q q n Z x q % t G Z G L * > q Z 2 8 q ~ 9.",
"9.U b q q j M M < 4 q M M M M ;   3 M u q q L 9.",
"9.~ C q q n Z C p q q Z Z Z C 1 = q z o q q L 9.",
"9._ H q q M H H w q q ; q q q s q # q q q q ( 9.",
"9._ G q q N H H @ 4 q t q t q t d q q q q q ( 9.",
"9._ H q q z h $ q = t G H H I t q q z + - 9 ( 9.",
"9.[ H q q q q q X q G G H G H C q : q q q k _ 9.",
"9.#._ q q q q q 8 E _ [ [ [ [ [ V q q q c ` #.9.",
"9.9.9.>.>.>.4.4.9.9.9.9.9.9.9.9.9.5.4.4.9.9.9.9.",
"9.9.9.9.9.9.9.9.9.9.9.9.9.9.9.9.9.9.9.9.9.9.9.9."
};
