/* XPM */
static char *chart40_xpm[] = {
/* columns rows colors chars-per-pixel */
"24 24 120 2 ",
"   c #B3AB7F",
".  c #AFA886",
"X  c #AFA987",
"o  c #B3AB83",
"O  c #B1AA89",
"+  c #B2AC88",
"@  c #B1AB8C",
"#  c #B1AB8D",
"$  c #B3AD8D",
"%  c #B3AE8F",
"&  c #BFB88F",
"*  c #B2AD91",
"=  c #B3AE94",
"-  c #B5B091",
";  c #B5B095",
":  c #B8B396",
">  c #BBB697",
",  c #B6B29F",
"<  c #BEB899",
"1  c #B6B2A0",
"2  c #B6B3A1",
"3  c #B6B3A2",
"4  c #B9B7AB",
"5  c #BAB8AB",
"6  c #BBB9AE",
"7  c #BDBBAF",
"8  c #BBB9B1",
"9  c #BBB9B2",
"0  c #BEBCB0",
"q  c #BEBCB3",
"w  c #BBBAB4",
"e  c #BCBCB8",
"r  c #BDBCB8",
"t  c #BDBCB9",
"y  c #BEBDB9",
"u  c #BEBDBB",
"i  c gray",
"p  c #C1BDAB",
"a  c #C1BDAD",
"s  c #C0BEB2",
"d  c #C0BFB5",
"f  c #C2C0B3",
"g  c #C7C3B0",
"h  c #C6C3B4",
"j  c #C5C2B6",
"k  c #C3C1B8",
"l  c #C5C3BA",
"z  c #C6C4BB",
"x  c #C5C4BE",
"c  c #C9C7C0",
"v  c #C8C7C7",
"b  c #CECCC1",
"n  c #CACACC",
"m  c #CBCBCD",
"M  c #CBCBCE",
"N  c #CDCDCC",
"B  c #D1CFC4",
"V  c #D2D0C4",
"C  c #D3D1C6",
"Z  c #D5D2C7",
"A  c #D1D0CB",
"S  c #D5D3C8",
"D  c #D1D0CF",
"F  c #D4D3CD",
"G  c #D1D1D0",
"H  c #D1D1D2",
"J  c #D2D2D3",
"K  c #D2D2D4",
"L  c #D4D4D6",
"P  c #D5D5D6",
"I  c #D5D5D7",
"U  c #D6D6D7",
"Y  c #D6D6D8",
"T  c #D7D7D9",
"R  c #DADADB",
"E  c #DCDBDA",
"W  c #DCDCDD",
"Q  c #DDDDDE",
"!  c #DDDDDF",
"~  c #DEDEDE",
"^  c #E0DDD2",
"/  c #DFDFE1",
"(  c #E0E0E1",
")  c #E1E1E2",
"_  c #E2E2E4",
"`  c #E4E4E5",
"'  c #E6E6E5",
"]  c #E5E5E6",
"[  c #E5E5E7",
"{  c #E6E6E6",
"}  c #E6E6E7",
"|  c #E6E6E8",
" . c #E7E7E8",
".. c #E7E7E9",
"X. c #E8E8E9",
"o. c #E9E9E9",
"O. c #E9E9EB",
"+. c #EAEAEB",
"@. c #EBEBEC",
"#. c #ECECEC",
"$. c #ECECED",
"%. c #F2F1EF",
"&. c #EFEFF0",
"*. c #F0F0F1",
"=. c #F1F1F1",
"-. c #F1F1F2",
";. c #F2F2F2",
":. c #F4F4F4",
">. c #F7F7F7",
",. c #F7F7F8",
"<. c #F8F8F8",
"1. c #F8F8F9",
"2. c #F9F9F9",
"3. c #FBFBFB",
"4. c #FDFCFA",
"5. c #FBFBFC",
"6. c #FCFCFC",
"7. c #FEFEFE",
"8. c #FFFFFF",
"9. c None",
/* pixels */
"9.9.9.9.9.9.9.9.9.9.9.9.9.9.9.9.9.9.9.9.9.9.9.9.",
"9.9.9.9.9.9.9.9.9.9.9.9.9.9.9.9.9.9.9.9.9.9.9.9.",
"9.X.| | | | _ ) X.| | [ ~ | | | | ~ | X.| | X.9.",
"9.*.6.6.6.6.*.X.6.6.6.5.[ 6.6.6.5.[ 5.6.6.6.*.9.",
"9.*.6.6.6.6.>.#.6.6.6.6.| 6.6.6.6.X.6.6.6.6.*.9.",
"9.[ X.X.X.X.) ~ X.X.X.[ ~ [ X.X.| E [ [ X.X.| 9.",
"9.*.5.6.6.6.*.X.6.6.6.6.6.6.6.6.6.[ 5.6.6.6.*.9.",
"9.*.6.6.6.6.>.$.6.6.6.6.6.6.6.6.6.[ 5.6.6.6.*.9.",
"9.[ | X.[ [ ) X.6.6.6.6.6.6.6.6.6.) [ [ [ [ [ 9.",
"9.&.6.6.4.5.*.#.6.6.6.6.6.6.6.6.6.| 5.5.3.4.*.9.",
"9.*.6.6.6.6.>.#.6.6.6.6.6.6.6.6.6.X.6.6.6.6.;.9.",
"9.[ X.X.X.X.) ~ X.X.X.X.) X.X.X.| E [ [ X.X.X.9.",
"9.&.4.3.4.3.*.X.6.6.3.,.[ 6.4.5.5.[ >.5.5.5.&.9.",
"9.^ i i i i r [ 6.6.6.4.X.4.$ i %.| & i i s &.9.",
"9.B i i i i X i T T U U J o i i D g i i i * f 9.",
"9.b i i M n w 8 d M M M p i i i v @ , 6 x i i 9.",
"9.V i i K K : ; 7 K K J X 3 r i M % $ j J i i 9.",
"9.S i i T T > t 5 i i i i i r i J ; 3 x T i i 9.",
"9.S i i T T o = 0 i i i i i i i i - @ l A i i 9.",
"9.V i i T g 8 8 z T U e i i i i i p 5 7 < i i 9.",
"9.Z i i i i . i U T T U T T t i D U i i i 3 j 9.",
"9.[ i i i i t ~ _ [ _ [ [ _ r i E [ F i i q $.9.",
"9.9.>.>.>.5.9.9.9.9.9.9.9.9.5.>.9.9.9.6.5.9.9.9.",
"9.9.9.9.9.9.9.9.9.9.9.9.9.9.9.9.9.9.9.9.9.9.9.9."
};
