/* XPM */
static char *chart9_xpm[] = {
/* columns rows colors chars-per-pixel */
"32 32 93 2 ",
"   c #A69B64",
".  c #A89E6C",
"X  c #A89F6D",
"o  c #ACA270",
"O  c #ABA378",
"+  c #ADA57A",
"@  c #B1A97E",
"#  c #AFA885",
"$  c #B4AD87",
"%  c #B0AA89",
"&  c #B0AA8A",
"*  c #B1AB8C",
"=  c #B7B088",
"-  c #B2AD92",
";  c #B3AF96",
":  c #B3AF97",
">  c #B6B090",
",  c #B5B095",
"<  c #B8B192",
"1  c #BCB8A2",
"2  c #BFBAA3",
"3  c #BFBBA8",
"4  c #BDBAAC",
"5  c #BBB9B0",
"6  c #BBBAB2",
"7  c #BBBAB3",
"8  c #BFBDB1",
"9  c #BCBBB6",
"0  c #BFBEB7",
"q  c #BDBCB8",
"w  c #BDBDBA",
"e  c gray",
"r  c #C2BEAB",
"t  c #C4BFA8",
"y  c #C1BEB2",
"u  c #C2BFB2",
"i  c #C1BFB4",
"p  c #C2BFB4",
"a  c #C5C1B2",
"s  c #C6C3B4",
"d  c #C6C4B7",
"f  c #C6C4BA",
"g  c #CCC9BD",
"h  c #CDCBBF",
"j  c #CDCBC0",
"k  c #CDCBC4",
"l  c #CDCBC5",
"z  c #CDCBC6",
"x  c #C6C6C8",
"c  c #C7C7C9",
"v  c #C9C9CB",
"b  c #CACACB",
"n  c #CCCBC8",
"m  c #CECDCB",
"M  c #CCCCCE",
"N  c #CECECF",
"B  c #D1D0CE",
"V  c #CECED0",
"C  c #D1D0D1",
"Z  c #D0D0D2",
"A  c #D1D1D2",
"S  c #D2D2D3",
"D  c #D3D3D5",
"F  c #D4D4D6",
"G  c #D5D5D6",
"H  c #D6D6D7",
"J  c #DDDCD2",
"K  c #D6D6D8",
"L  c #D7D7D8",
"P  c #D7D7D9",
"I  c #D8D8DA",
"U  c #D9D9DB",
"Y  c #DADADB",
"T  c #DADADC",
"R  c #DBDBDC",
"E  c #DBDBDD",
"W  c #DDDDDF",
"Q  c #DEDEDF",
"!  c #E5E4DD",
"~  c #E2E2E3",
"^  c #E3E3E5",
"/  c #E3E3E6",
"(  c #E4E4E6",
")  c #E6E6E7",
"_  c #E7E7E9",
"`  c #E9E9EA",
"'  c #EBEBEC",
"]  c #EDEDEE",
"[  c #F0F0F1",
"{  c #F3F3F4",
"}  c #F7F7F6",
"|  c gray100",
" . c None",
/* pixels */
" . . . . . . . . . . . . . . . . . . . . . . . . . . . . . . . .",
" . . . . . . . . . . . . . . . . . . . . . . . . . . . . . . . .",
" . . . . . . . . . . . . . . . . . . . . . . . . . . . . . . . .",
" .` ( ^ ^ ^ ^ ^ ^ I ( ^ ^ ^ ^ ( I ( ^ ^ ^ ^ ( I ( ^ ^ ^ ^ ( ]  .",
" .^ | | | | | | | Y | | | | | | Y | | | | | | Y | | | | | | ^  .",
" .^ | | | | | | | I | | | | | | Y | | | | | | Y | | | | | | ^  .",
" .^ | | | | | | | Y | | | | | | Y | | | | | | Y | | | | | | ^  .",
" .~ R Y Y Y Y Y Y V Y Y Y Y Y Y N Y Y Y Y Y Y N Y Y Y Y Y E (  .",
" .^ | | | | | | | Y | | | | | | | | | | | | | Y | | | | | | ^  .",
" .^ | | | | | | | Y | | | | | | | | | | | | | Y | | | | | | ^  .",
" .^ | | | | | | | I | | | | | | | | | | | | | Y | | | | | | ^  .",
" .~ R Y I Y Y Y Y V | | | | | | | | | | | | | V Y Y Y Y Y R (  .",
" .^ | | | | | | | Y | | | | | | | | | | | | | Y | | | | | | ^  .",
" .^ | | | | | | | Y | | | | | | | | | | | | | Y | | | | | | ^  .",
" .^ | | | | | | | Y | | | | | | | | | | | | | Y | | | | | | ^  .",
" .~ R Y Y Y Y Y Y V Y Y Y Y Y Y V Y Y Y Y Y Y V Y Y Y Y Y E (  .",
" .^ | | | | | | | Y | | | | | | Y | | | | | | Y | | | | | | ^  .",
" .^ | | | | | | | Y | | | | | | Y | | | | | | Y | | | | | | ^  .",
" .^ | | | | | | | E | | | | | | E | | | | | | R | | | | | | ^  .",
" ._ x x x x x x x b x x x x x x v x x x x x x v x x x x x x _  .",
" .` N v N v V e e e e e 7 b N N N M M M < w e e 4 v v N N v '  .",
" .' A A V A A e e e e e . e N V Z Z Z a e O e e e i D V V A '  .",
" .] D F D F D e e m D n e & 8 D F F F $ : e A 3 q e D D D D ]  .",
" .[ I Y I I I e e B I Y 1 7 e I I I I ,   8 I g e e I I Y Y [  .",
" .{ D I D D D e e m F F a e e D F F F 1 * e z o e e Z F F D {  .",
" .' I I I I I e e B Y P t e e > e e e f e # e e e e F Y P Y '  .",
" .] F D D D D e e N F F @ 6 e u e e e u d e e e e e D D D D ]  .",
" .[ Y I I I R e e z g = e & u Y I Y Y r e e g + - w I I Y Y [  .",
" .{ Y Y R I R e e e e e . e I Y Y I Y I e : e e e z Y Y Y I {  .",
" .| | | | | | e e e e e 0 } | | | | | | ! e e e J | | | | | |  .",
" . . . . . . . . . . . . . . . . . . . . . . . . . . . . . . . .",
" . . . . . . . . . . . . . . . . . . . . . . . . . . . . . . . ."
};
