/* XPM */
static char *chart144_xpm[] = {
/* columns rows colors chars-per-pixel */
"32 32 85 1 ",
"  c #9D8F43",
". c #9F9042",
"X c #A19346",
"o c #A19349",
"O c #A39757",
"+ c #A49859",
"@ c #A4985A",
"# c #A59A5D",
"$ c #A89B5B",
"% c #A89E6C",
"& c #ABA16C",
"* c #A9A06F",
"= c #A9A070",
"- c #B4AA79",
"; c #ADA681",
": c #AEA783",
"> c #B4AC83",
", c #B0A987",
"< c #B1AB8C",
"1 c #B9B083",
"2 c #B4AF98",
"3 c #B5B19B",
"4 c #BEB89C",
"5 c #B7B3A1",
"6 c #B8B6A7",
"7 c #BDBBAC",
"8 c #BDBBAF",
"9 c #BBBAB1",
"0 c #BCBAB1",
"q c #BCBBB2",
"w c #BDBBB2",
"e c #BEBCB0",
"r c #BFBCB1",
"t c #BCBBB6",
"y c #BCBCB8",
"u c #BDBDB9",
"i c #BDBDBB",
"p c #BEBDBB",
"a c gray",
"s c #C2BEAE",
"d c #C0BEB2",
"f c #C2BFB3",
"g c #C1BFB6",
"h c #C2C0B4",
"j c #C6C4B8",
"k c #CDCABC",
"l c #CFCDC0",
"z c #CDCCC4",
"x c #CFCEC6",
"c c #C6C6C8",
"v c #C7C7C9",
"b c #C9C9CB",
"n c #CCCCCE",
"m c #DAD8CD",
"M c #CECED0",
"N c #CFCFD0",
"B c #D2D1D0",
"V c #D0D0D2",
"C c #D3D3D4",
"Z c #D5D4D5",
"A c #D4D4D6",
"S c #D6D6D7",
"D c #D7D7D8",
"F c #D7D7D9",
"G c #D8D8DA",
"H c #D9D9DB",
"J c #DADADB",
"K c #DADADC",
"L c #DBDBDC",
"P c #DBDBDD",
"I c #DDDDDF",
"U c #DEDEDF",
"Y c #E2E2E3",
"T c #E3E3E5",
"R c #E3E3E6",
"E c #E4E4E6",
"W c #E6E6E7",
"Q c #E7E7E9",
"! c #E9E9EA",
"~ c #EBEBEC",
"^ c #EDEDEE",
"/ c #F0F0F1",
"( c #F3F3F4",
") c gray100",
"_ c None",
/* pixels */
"________________________________",
"________________________________",
"________________________________",
"_!ETTTTTTGETTTTEGETTTTEGETTTTE^_",
"_T)))))))J))))))J))))))J))))))T_",
"_T)))))))G))))))J))))))J))))))T_",
"_T)))))))J))))))J))))))J))))))T_",
"_YLJJJJJJMJJJJJJnJJJJJJMJJJJJPE_",
"_T)))))))J)))))))))))))J))))))T_",
"_T)))))))J)))))))))))))J))))))T_",
"_T)))))))G)))))))))))))J))))))T_",
"_YLJGJJJJM)))))))))))))MJJJJJLE_",
"_T)))))))J)))))))))))))J))))))T_",
"_T)))))))J)))))))))))))J))))))T_",
"_T)))))))J)))))))))))))J))))))T_",
"_YLJJJJJJMJJJJJJMJJJJJJMJJJJJPE_",
"_T)))))))J))))))J))))))J))))))T_",
"_T)))))))J))))))J))))))J))))))T_",
"_T)))))))P))))))P))))))L))))))T_",
"_QccccccbbccccccbccccccbccccccQ_",
"_!nnnnnnoa9bnnns+aennnsOaennnn!_",
"_~VVVM4&;2eVVVnXa=rMVMXa*rVMVV~_",
"_^AAAA>y* tAAA-63=dAA-63*dAAAA^_",
"_/GJGGVe,<eJJk#aa%fJk#aa*fGGGJ/_",
"_(AAAAAA+<9AAXaa:*dAXaa:*dAAAA(_",
"_~GGGGGG@<tJ13<7:*d15<7:*fGGGG~_",
"_^AAAAAA@<9A#aaaa*ataaaa*auAAA^_",
"_/JGGGGG@<9Gzaaaa%auaaaa%auJGJ/_",
"_(JJJGJG@<eLJAAx:*hAAAx:=hAJJG(_",
"_)))))))maf)))))jal))))jal)))))_",
"________________________________",
"________________________________"
};
