/* XPM */
static char *chart16_xpm[] = {
/* columns rows colors chars-per-pixel */
"32 32 129 2 ",
"   c #9D8F43",
".  c #9F9145",
"X  c #A19349",
"o  c #A3985A",
"O  c #A49859",
"+  c #A4985A",
"@  c #A59A5F",
"#  c #A69A5E",
"$  c #A89F6E",
"%  c #A99F6E",
"&  c #AEA368",
"*  c #AFA469",
"=  c #ABA16C",
"-  c #A9A070",
";  c #AAA171",
":  c #AAA173",
">  c #ADA57D",
",  c #ADA67F",
"<  c #B3A874",
"1  c #B8AE7F",
"2  c #ADA680",
"3  c #ADA681",
"4  c #AEA781",
"5  c #AEA884",
"6  c #B4AC83",
"7  c #B0A987",
"8  c #B0AB8B",
"9  c #B1AB8C",
"0  c #B3AD8D",
"q  c #B8B086",
"w  c #B6B08F",
"e  c #BBB388",
"r  c #B2AD90",
"t  c #B4AF97",
"y  c #B4AF98",
"u  c #BEB896",
"i  c #BEB89C",
"p  c #B6B3A1",
"a  c #B7B4A3",
"s  c #B7B4A4",
"d  c #B8B6A9",
"f  c #B9B6AA",
"g  c #B9B7AA",
"h  c #B9B7AB",
"j  c #B9B7AC",
"k  c #B9B8AD",
"l  c #BAB8AE",
"z  c #BDBBAF",
"x  c #BFBCAD",
"c  c #BEBCAF",
"v  c #BBB9B1",
"b  c #BBBAB0",
"n  c #BBBAB1",
"m  c #BCBAB1",
"M  c #BCBBB2",
"N  c #BDBBB2",
"B  c #BEBCB0",
"V  c #BCBBB4",
"C  c #BCBBB5",
"Z  c #BDBBB5",
"A  c #BCBCB8",
"S  c #BDBCB8",
"D  c #BDBDBC",
"F  c gray",
"G  c #C1BDA7",
"H  c #C1BEB2",
"J  c #C1BFB3",
"K  c #C2BFB3",
"L  c #C0BEB4",
"P  c #C1BFB6",
"I  c #C6C1A8",
"U  c #C6C1A9",
"Y  c #C5C0AA",
"T  c #C2C0B5",
"R  c #C2C1B9",
"E  c #C6C3BA",
"W  c #CAC7B8",
"Q  c #CDCBBF",
"!  c #C8C7C0",
"~  c #CBC9C3",
"^  c #C6C6C8",
"/  c #C7C7C9",
"(  c #C9C9CB",
")  c #CCCCCB",
"_  c #CFCECB",
"`  c #CECECD",
"'  c #CCCCCE",
"]  c #D0CFCF",
"[  c #D5D2C7",
"{  c #D7D5CA",
"}  c #D1D0CD",
"|  c #D0D0CE",
" . c #D9D7CC",
".. c #DAD8CD",
"X. c #CECED0",
"o. c #D0D0D0",
"O. c #D0D0D1",
"+. c #D2D1D0",
"@. c #D0D0D2",
"#. c #D2D2D3",
"$. c #D5D5D5",
"%. c #D6D5D4",
"&. c #D4D4D6",
"*. c #D5D5D7",
"=. c #D6D6D8",
"-. c #D7D7D8",
";. c #D7D7D9",
":. c #D8D8DA",
">. c #D9D9DB",
",. c #DADADB",
"<. c #DADADC",
"1. c #DBDBDC",
"2. c #DBDBDD",
"3. c #DDDDDF",
"4. c #DEDEDF",
"5. c #E2E2E3",
"6. c #E3E3E5",
"7. c #E3E3E6",
"8. c #E4E4E6",
"9. c #E6E6E7",
"0. c #EBEBE6",
"q. c #E7E7E9",
"w. c #E9E9EA",
"e. c #EBEBEC",
"r. c #EDEDEE",
"t. c #F0F0F1",
"y. c #F3F3F4",
"u. c gray100",
"i. c None",
/* pixels */
"i.i.i.i.i.i.i.i.i.i.i.i.i.i.i.i.i.i.i.i.i.i.i.i.i.i.i.i.i.i.i.i.",
"i.i.i.i.i.i.i.i.i.i.i.i.i.i.i.i.i.i.i.i.i.i.i.i.i.i.i.i.i.i.i.i.",
"i.i.i.i.i.i.i.i.i.i.i.i.i.i.i.i.i.i.i.i.i.i.i.i.i.i.i.i.i.i.i.i.",
"i.w.8.6.6.6.6.6.6.:.8.6.6.6.6.8.:.8.6.6.6.6.8.:.8.6.6.6.6.8.r.i.",
"i.6.u.u.u.u.u.u.u.,.u.u.u.u.u.u.,.u.u.u.u.u.u.,.u.u.u.u.u.u.6.i.",
"i.6.u.u.u.u.u.u.u.:.u.u.u.u.u.u.,.u.u.u.u.u.u.,.u.u.u.u.u.u.6.i.",
"i.6.u.u.u.u.u.u.u.,.u.u.u.u.u.u.,.u.u.u.u.u.u.,.u.u.u.u.u.u.6.i.",
"i.5.1.,.,.,.,.,.,.X.,.,.,.,.,.,.' ,.,.,.,.,.,.X.,.,.,.,.,.2.8.i.",
"i.6.u.u.u.u.u.u.u.,.u.u.u.u.u.u.u.u.u.u.u.u.u.,.u.u.u.u.u.u.6.i.",
"i.6.u.u.u.u.u.u.u.,.u.u.u.u.u.u.u.u.u.u.u.u.u.,.u.u.u.u.u.u.6.i.",
"i.6.u.u.u.u.u.u.u.:.u.u.u.u.u.u.u.u.u.u.u.u.u.,.u.u.u.u.u.u.6.i.",
"i.5.1.,.:.,.,.,.,.X.u.u.u.u.u.u.u.u.u.u.u.u.u.X.,.,.,.,.,.1.8.i.",
"i.6.u.u.u.u.u.u.u.,.u.u.u.u.u.u.u.u.u.u.u.u.u.,.u.u.u.u.u.u.6.i.",
"i.6.u.u.u.u.u.u.u.,.u.u.u.u.u.u.u.u.u.u.u.u.u.,.u.u.u.u.u.u.6.i.",
"i.6.u.u.u.u.u.u.u.,.u.u.u.u.u.u.u.u.u.u.u.u.u.,.u.u.u.u.u.u.6.i.",
"i.5.1.,.,.,.,.,.,.X.,.,.,.,.,.,.X.,.,.,.,.,.,.X.,.,.,.,.,.2.8.i.",
"i.6.u.u.u.u.u.u.u.,.u.u.u.u.u.u.,.u.u.u.u.u.u.,.u.u.u.u.u.u.6.i.",
"i.6.u.u.u.u.u.u.u.,.u.u.u.u.u.u.,.u.u.u.u.u.u.,.u.u.u.u.u.u.6.i.",
"i.6.u.u.u.u.u.u.u.2.u.u.u.u.u.u.2.u.u.u.u.u.u.1.u.u.u.u.u.u.6.i.",
"i.q.^ ^ ^ ^ ^ ^ ( ( ^ ^ ^ ^ ^ ^ ( ^ ^ ^ ^ ^ ^ ( ^ ^ ^ ^ ^ ^ q.i.",
"i.w.' # F F F F F Z ' ' ' ' ' ' ' ' X F n ' ' E # F F F R ' w.i.",
"i.e.@.@ > F F F g F B +.+.X.@.@.i = 4 y n +.X.. F n F a F ) e.i.",
"i.r.&.@ > V &.' 0 F F +.&.&.&.&.6 S ;   V &.Y r $ z | M F K r.i.",
"i.t.:.@ > M ,.,.Y F j ~ :.:.:.:.+.B 7 9 M :.e F F g F S ) :.t.i.",
"i.y.&.@ > V :.&.W a > T *.*.&.&.&.&.O 9 l &.< F F g F 5 F | y.i.",
"i.e.:.@ > V :.:.Y a > w F F F F :.,.O 9 M :.1 F t H | j $ H e.i.",
"i.r.*.@ > V &.&.& F g ! F F F F &.&.O 9 M *.u F F ' | O 4 M r.i.",
"i.t.:.@ > B ~ 6 ; F F *.:.:.:.:.:.:.O 9 M ;.%.g t x * z ; H t.i.",
"i.y.1.@ > F F F g F H ,.:.,.,.,.,.,.o 8 V 1.1.x F F F 7 F *.y.i.",
"i.u.u.[ F F F F F  .u.u.u.u.u.u.u.u. .F K u.u.u.{ F F F 0.u.u.i.",
"i.i.i.i.i.i.i.i.i.i.i.i.i.i.i.i.i.i.i.i.i.i.i.i.i.i.i.i.i.i.i.i.",
"i.i.i.i.i.i.i.i.i.i.i.i.i.i.i.i.i.i.i.i.i.i.i.i.i.i.i.i.i.i.i.i."
};
