/* XPM */
static char *chart24_xpm[] = {
/* columns rows colors chars-per-pixel */
"32 32 132 2 ",
"   c #9F9042",
".  c #A09144",
"X  c #A19346",
"o  c #A39757",
"O  c #A79B58",
"+  c #A4985A",
"@  c #A4995C",
"#  c #A59A5D",
"$  c #A59A5F",
"%  c #A89B5B",
"&  c #A69B64",
"*  c #A89E6C",
"=  c #A89F6C",
"-  c #AEA368",
";  c #A9A06F",
":  c #B0A56A",
">  c #AAA171",
",  c #ABA375",
"<  c #ADA57D",
"1  c #ADA67F",
"2  c #B4AA79",
"3  c #ADA680",
"4  c #AEA783",
"5  c #B1AB8C",
"6  c #B1AB8D",
"7  c #B3AD8D",
"8  c #B9B083",
"9  c #B8B086",
"0  c #B6B08F",
"q  c #BBB48D",
"w  c #B2AD93",
"e  c #B3AF96",
"r  c #BEB690",
"t  c #BBB597",
"y  c #BDB795",
"u  c #B5B19B",
"i  c #B5B19C",
"p  c #B6B3A1",
"a  c #B7B3A1",
"s  c #B6B3A2",
"d  c #B7B4A3",
"f  c #B8B5A5",
"g  c #B8B6A7",
"h  c #B8B6A9",
"j  c #B9B6AA",
"k  c #B9B7AB",
"l  c #BCB9AB",
"z  c #BDBBAC",
"x  c #BDBBAF",
"c  c #BEBBAF",
"v  c #BEBCAF",
"b  c #BEBCB0",
"n  c #BFBCB0",
"m  c #BFBCB1",
"M  c #BCBBB4",
"N  c #BCBBB5",
"B  c #BDBBB5",
"V  c #BDBCB9",
"C  c #BDBDB9",
"Z  c #BDBDBA",
"A  c #BEBDBB",
"S  c gray",
"D  c #C2BEAE",
"F  c #C0BEB2",
"G  c #C1BFB3",
"H  c #C2BFB3",
"J  c #C0BEB4",
"K  c #C5C0A5",
"L  c #C6C1A8",
"P  c #C6C1A9",
"I  c #C2C0B4",
"U  c #C2C0B5",
"Y  c #C2C0B8",
"T  c #C6C4B8",
"R  c #C7C6BE",
"E  c #CAC7B8",
"W  c #C9C7BD",
"Q  c #C8C6BF",
"!  c #CBC9BC",
"~  c #CDCABC",
"^  c #CDCBBF",
"/  c #C8C7C0",
"(  c #CBC9C3",
")  c #CFCDC0",
"_  c #C9C8C5",
"`  c #CDCCC4",
"'  c #CFCEC6",
"]  c #C6C6C8",
"[  c #C7C7C9",
"{  c #C9C9CB",
"}  c #CCCCCE",
"|  c #D0CFCF",
" . c #D5D2C7",
".. c #D2D1CA",
"X. c #D0D0CF",
"o. c #D4D3CF",
"O. c #D9D7CC",
"+. c #CECED0",
"@. c #CFCFD0",
"#. c #D0D0D0",
"$. c #D2D1D0",
"%. c #D3D2D1",
"&. c #D0D0D2",
"*. c #D2D2D3",
"=. c #D5D4D5",
"-. c #D4D4D6",
";. c #D5D5D7",
":. c #D6D6D7",
">. c #D7D7D8",
",. c #D7D7D9",
"<. c #D8D8DA",
"1. c #D9D9DB",
"2. c #DADADB",
"3. c #DADADC",
"4. c #DBDBDC",
"5. c #DBDBDD",
"6. c #DDDDDF",
"7. c #DEDEDF",
"8. c #E2E2E3",
"9. c #E3E3E5",
"0. c #E3E3E6",
"q. c #E4E4E6",
"w. c #E6E6E7",
"e. c #E7E7E9",
"r. c #E9E9EA",
"t. c #EBEBEC",
"y. c #EDEDEE",
"u. c #F0F0F1",
"i. c #F3F3F4",
"p. c #F6F6F5",
"a. c gray100",
"s. c None",
/* pixels */
"s.s.s.s.s.s.s.s.s.s.s.s.s.s.s.s.s.s.s.s.s.s.s.s.s.s.s.s.s.s.s.s.",
"s.s.s.s.s.s.s.s.s.s.s.s.s.s.s.s.s.s.s.s.s.s.s.s.s.s.s.s.s.s.s.s.",
"s.s.s.s.s.s.s.s.s.s.s.s.s.s.s.s.s.s.s.s.s.s.s.s.s.s.s.s.s.s.s.s.",
"s.r.q.9.9.9.9.9.9.<.q.9.9.9.9.q.<.q.9.9.9.9.q.<.q.9.9.9.9.q.y.s.",
"s.9.a.a.a.a.a.a.a.2.a.a.a.a.a.a.2.a.a.a.a.a.a.2.a.a.a.a.a.a.9.s.",
"s.9.a.a.a.a.a.a.a.<.a.a.a.a.a.a.2.a.a.a.a.a.a.2.a.a.a.a.a.a.9.s.",
"s.9.a.a.a.a.a.a.a.2.a.a.a.a.a.a.2.a.a.a.a.a.a.2.a.a.a.a.a.a.9.s.",
"s.8.4.2.2.2.2.2.2.+.2.2.2.2.2.2.} 2.2.2.2.2.2.+.2.2.2.2.2.5.q.s.",
"s.9.a.a.a.a.a.a.a.2.a.a.a.a.a.a.a.a.a.a.a.a.a.2.a.a.a.a.a.a.9.s.",
"s.9.a.a.a.a.a.a.a.2.a.a.a.a.a.a.a.a.a.a.a.a.a.2.a.a.a.a.a.a.9.s.",
"s.9.a.a.a.a.a.a.a.<.a.a.a.a.a.a.a.a.a.a.a.a.a.2.a.a.a.a.a.a.9.s.",
"s.8.4.2.<.2.2.2.2.+.a.a.a.a.a.a.a.a.a.a.a.a.a.+.2.2.2.2.2.4.q.s.",
"s.9.a.a.a.a.a.a.a.2.a.a.a.a.a.a.a.a.a.a.a.a.a.2.a.a.a.a.a.a.9.s.",
"s.9.a.a.a.a.a.a.a.2.a.a.a.a.a.a.a.a.a.a.a.a.a.2.a.a.a.a.a.a.9.s.",
"s.9.a.a.a.a.a.a.a.2.a.a.a.a.a.a.a.a.a.a.a.a.a.2.a.a.a.a.a.a.9.s.",
"s.8.4.2.2.2.2.2.2.+.2.2.2.2.2.2.+.2.2.2.2.2.2.+.2.2.2.2.2.5.q.s.",
"s.9.a.a.a.a.a.a.a.2.a.a.a.a.a.a.2.a.a.a.a.a.a.2.a.a.a.a.a.a.9.s.",
"s.9.a.a.a.a.a.a.a.2.a.a.a.a.a.a.2.a.a.a.a.a.a.2.a.a.a.a.a.a.9.s.",
"s.9.a.a.a.a.a.a.a.5.a.a.a.a.a.a.5.a.a.a.a.a.a.4.a.a.a.a.a.a.9.s.",
"s.e.] ] ] ] ] ] { { ] ] ] ] ] ] { ] ] ] ] ] ] { ] ] ] ] ] ] e.s.",
"s.r.} @ S S S S S J } } { +.} } t > S S S Y { +.} D o S x { t.s.",
"s.t.$.& < S S S h S b $.$.+.$.Q @ S S S e S _ $.+.  S ; m $.t.s.",
"s.y.-.& < N $.+.6 S S -.-.-.=.r S s U $.u & x -.2 g u ; m -.y.s.",
"s.y.<.@ < N 4.2.P S k / <.<.<.X.S S $.K , = b ~ @ S S > J 4.u.s.",
"s.i.-.& < M -.-.E s 1 U -.-.-.-.X.} y + S S Q X S S 4 ; F -.u.s.",
"s.t.<.@ < M <.<.P d 1 0 S S S S ..O A A S v 8 a 5 x 4 ; F 2.y.s.",
"s.y.<.& 1 N -.-.- S k / S S S S X S w S Q -.% S S S S ; S A y.s.",
"s.u.<.@ < N ! 9 > S S -.2.<.<.r g 5 l ! ~ $.` S S S S * S A u.s.",
"s.i.4.@ < S S S h S F 2.2.2.4.: S S S S S S m -.-.' 4 ; I -.i.s.",
"s.a.a. .S S S S S O.a.a.a.a.a.i.S S S S S S T a.a.a.T S ) a.a.s.",
"s.s.s.s.s.s.s.s.s.s.s.s.s.s.s.s.s.s.s.s.s.s.s.s.s.s.s.s.s.s.s.s.",
"s.s.s.s.s.s.s.s.s.s.s.s.s.s.s.s.s.s.s.s.s.s.s.s.s.s.s.s.s.s.s.s."
};
