/* XPM */
static char *chart108_xpm[] = {
/* columns rows colors chars-per-pixel */
"24 24 126 2 ",
"   c #AAA274",
".  c #AEA782",
"X  c #AFA987",
"o  c #B1A981",
"O  c #B7AF83",
"+  c #B2AB88",
"@  c #B1AB8C",
"#  c #B1AB8D",
"$  c #B3AE8F",
"%  c #B5AF8E",
"&  c #B6B08F",
"*  c #B2AD91",
"=  c #B3AE93",
"-  c #B3AE94",
";  c #B4AF94",
":  c #B4AF98",
">  c #B5B091",
",  c #B5B095",
"<  c #B9B395",
"1  c #BBB595",
"2  c #B7B299",
"3  c #B5B19B",
"4  c #B5B19D",
"5  c #B5B29E",
"6  c #B6B29F",
"7  c #B9B49C",
"8  c #BEB899",
"9  c #BFB99D",
"0  c #B6B2A0",
"q  c #B6B3A1",
"w  c #B7B4A4",
"e  c #B9B7AB",
"r  c #B9B7AD",
"t  c #BCB9AB",
"y  c #BBB9AE",
"u  c #BCBAAF",
"i  c #BDBBAF",
"p  c #BEBBB0",
"a  c #BDBBB2",
"s  c #BCBBB3",
"d  c #BEBCB2",
"f  c #BEBCB3",
"g  c #BDBCB6",
"h  c #BEBCB6",
"j  c gray",
"k  c #C1B990",
"l  c #C1BDAB",
"z  c #C0BDB1",
"x  c #C0BEB2",
"c  c #C1BFB3",
"v  c #C2BFB4",
"b  c #D2CBA8",
"n  c #C2C0B4",
"m  c #C8C5B2",
"M  c #C3C1B8",
"N  c #C5C3BA",
"B  c #C7C5B9",
"V  c #C6C4BB",
"C  c #C6C4BE",
"Z  c #C9C6B8",
"A  c #CAC8BC",
"S  c #CBC9BF",
"D  c #C8C6C0",
"F  c #C9C7C0",
"G  c #CAC9C2",
"H  c #CBCBCD",
"J  c #CDCDCC",
"K  c #D1D0CB",
"L  c #D4D3CD",
"P  c #D1D1D3",
"I  c #D2D2D3",
"U  c #D2D2D4",
"Y  c #D3D3D5",
"T  c #D4D4D6",
"R  c #D5D5D7",
"E  c #D6D6D7",
"W  c #D5D5D8",
"Q  c #D6D6D8",
"!  c #D7D7D9",
"~  c #DADADB",
"^  c #DADADC",
"/  c #DCDCDD",
"(  c #DEDDDD",
")  c #DDDDDE",
"_  c #DDDDDF",
"`  c #DEDEE0",
"'  c #DFDFE1",
"]  c #E0E0E1",
"[  c #E1E1E2",
"{  c #E2E2E4",
"}  c #E3E3E4",
"|  c #E3E3E5",
" . c #E4E4E5",
".. c #E5E5E6",
"X. c #E5E5E7",
"o. c #E6E6E7",
"O. c #E6E6E8",
"+. c #E7E7E8",
"@. c #E7E7E9",
"#. c #E8E8E9",
"$. c #E9E9E9",
"%. c #E9E9EB",
"&. c #EAEAEB",
"*. c #EBEBEC",
"=. c #ECECEC",
"-. c #ECECED",
";. c #EDEDEE",
":. c #EFEFF0",
">. c #F0F0F1",
",. c #F1F1F1",
"<. c #F1F1F2",
"1. c #F2F2F2",
"2. c #F4F4F4",
"3. c #F6F6F5",
"4. c #F7F7F7",
"5. c #F7F7F8",
"6. c #F8F8F8",
"7. c #F8F8F9",
"8. c #F9F9F9",
"9. c #FBFBFB",
"0. c #FCFCFC",
"q. c #FDFDFD",
"w. c #FEFEFD",
"e. c #FEFEFE",
"r. c #FFFFFF",
"t. c None",
/* pixels */
"t.t.t.t.t.t.t.t.t.t.t.t.t.t.t.t.t.t.t.t.t.t.t.t.",
"t.t.t.t.t.t.t.t.t.t.t.t.t.t.t.t.t.t.t.t.t.t.t.t.",
"t.#.O.O.O.O.{ ' #.O.O.X.) O.O.O.X.) X.#.O.O.#.t.",
"t.>.0.0.0.0.>.*.0.0.0.9.X.0.0.0.0.X.9.0.0.0.>.t.",
"t.>.0.0.0.0.3.=.0.0.0.0.O.0.0.0.0.#.0.0.0.0.>.t.",
"t.X.#.#.#.#.[ ) #.#.#.X.) X.#.#.#.! X.$.#.$.#.t.",
"t.>.9.0.0.0.>.*.0.0.0.0.0.0.0.0.0.X.9.0.0.0.>.t.",
"t.>.0.0.0.0.3.;.0.0.0.0.0.0.0.0.0.O.9.0.0.0.>.t.",
"t.X.#.#.X.X.[ #.0.0.0.0.0.0.0.0.0.[ X.X.X.X.X.t.",
"t.;.0.0.0.9.>.;.0.0.0.0.0.0.0.0.0.#.9.9.0.0.>.t.",
"t.>.0.0.0.0.3.;.0.0.0.0.0.0.0.0.0.#.0.0.0.0.>.t.",
"t.X.$.#.#.#.[ ) #.#.#.#.[ #.#.#.#.! X.O.#.$.#.t.",
"t.>.0.0.0.0.>.#.0.0.9.6.X.9.9.9.9.X.3.9.0.0.:.t.",
"t.>.0.0.0.b j A 0.0.k j C f 0.0.O j j f 3.0.>.t.",
"t.' ! ! o w . x ! Z j j j * f 9 j j j + h E ' t.",
"t.^ H J j r   f J + 6 y C j j 7 - r < j j H ^ t.",
"t.' P P D % + f P > @ M P j j J j j j 6 y P ' t.",
"t.{ E ! ! % X v ! ; 0 D ! j j 1 j j j - f ! { t.",
"t.{ E E ! & X v E > @ N L j j * 6 N P j j P { t.",
"t.[ ! ! ! % X v ! l e y 8 j j 2 6 N m j j E [ t.",
"t.{ ! ! ! > + v E E j j j 0 x G j j j ; g E [ t.",
"t.;.{ O.{ A j B X.X.L j j f { X.G j j h ) | ;.t.",
"t.t.t.t.t.0.3.0.t.t.t.0.9.t.t.t.t.0.9.t.t.t.t.t.",
"t.t.t.t.t.t.t.t.t.t.t.t.t.t.t.t.t.t.t.t.t.t.t.t."
};
