/* XPM */
static char *chart6_xpm[] = {
/* columns rows colors chars-per-pixel */
"24 24 118 2 ",
"   c #A69B64",
".  c #A89E6C",
"X  c #A89F6D",
"o  c #AAA173",
"O  c #AFA676",
"+  c #ABA379",
"@  c #B1A97E",
"#  c #B7AF87",
"$  c #B0AA89",
"%  c #B0AA8A",
"&  c #B0AA8B",
"*  c #B0AB8B",
"=  c #B4AD8C",
"-  c #B4AE8C",
";  c #B4AE91",
":  c #B6B090",
">  c #B6B092",
",  c #B5B198",
"<  c #B5B29E",
"1  c #BAB59A",
"2  c #B9B59D",
"3  c #B6B2A0",
"4  c #B6B3A0",
"5  c #BAB7A7",
"6  c #BDBBAF",
"7  c #BBB9B1",
"8  c #BBBAB2",
"9  c #BBBAB3",
"0  c #BDBBB2",
"q  c #BCBBB3",
"w  c #BFBCB0",
"e  c #BEBCB5",
"r  c #BDBCB6",
"t  c gray",
"y  c #C3BEA7",
"u  c #C1BEAF",
"i  c #C0BEB1",
"p  c #C0BEB2",
"a  c #C4C0AB",
"s  c #C5C2B3",
"d  c #C2C0B5",
"f  c #C4C1B5",
"g  c #C5C3B7",
"h  c #C8C6BD",
"j  c #CBC9BE",
"k  c #C6C6C4",
"l  c #C7C6C5",
"z  c #CBCAC3",
"x  c #CCCAC2",
"c  c #CBCAC7",
"v  c #CCCBC6",
"b  c #CDCCC9",
"n  c #CCCCCA",
"m  c #CBCBCD",
"M  c #CFCECC",
"N  c #CFCECD",
"B  c #CCCCCE",
"V  c #D0CFCD",
"C  c #D3D2D1",
"Z  c #D1D1D3",
"A  c #D2D2D3",
"S  c #D2D2D4",
"D  c #D4D4D5",
"F  c #D5D5D7",
"G  c #D6D6D7",
"H  c #D5D5D8",
"J  c #D6D6D8",
"K  c #D7D7D9",
"L  c #DBDBDA",
"P  c #DADADB",
"I  c #DADADC",
"U  c #DCDCDD",
"Y  c #DEDDDD",
"T  c #DDDDDE",
"R  c #DDDDDF",
"E  c #DFDFDF",
"W  c #DEDEE0",
"Q  c #DFDFE0",
"!  c #DFDFE1",
"~  c #E0E0E1",
"^  c #E1E1E2",
"/  c #E2E2E4",
"(  c #E3E3E4",
")  c #E3E3E5",
"_  c #E4E4E5",
"`  c #E5E5E6",
"'  c #E5E5E7",
"]  c #E6E6E7",
"[  c #EDEBE0",
"{  c #E6E6E8",
"}  c #E7E7E8",
"|  c #E7E7E9",
" . c #E8E8E9",
".. c #E9E9E9",
"X. c #E9E9EB",
"o. c #EAEAEB",
"O. c #EBEBEC",
"+. c #ECECEC",
"@. c #ECECED",
"#. c #EDEDEE",
"$. c #EFEFF0",
"%. c #F0F0F1",
"&. c #F1F1F1",
"*. c #F1F1F2",
"=. c #F2F2F2",
"-. c #F3F3F2",
";. c #F4F4F4",
":. c #F7F7F7",
">. c #F7F7F8",
",. c #F8F8F8",
"<. c #F8F8F9",
"1. c #F9F9F9",
"2. c #FBFBFB",
"3. c #FBFBFC",
"4. c #FCFCFC",
"5. c #FFFEFE",
"6. c #FFFFFF",
"7. c None",
/* pixels */
"7.7.7.7.7.7.7.7.7.7.7.7.7.7.7.7.7.7.7.7.7.7.7.7.",
"7.7.7.7.7.7.7.7.7.7.7.7.7.7.7.7.7.7.7.7.7.7.7.7.",
"7. .{ { { { / ^  .{ { ' E { { { ' E '  .{ {  .7.",
"7.%.4.4.4.4.%. .4.4.4.3.' 4.4.4.3.' 3.4.4.4.%.7.",
"7.%.4.4.4.4.:.O.4.4.4.4.' 4.4.4.4. .4.4.4.4.%.7.",
"7.'  . . . .^ E  . . .' E '  . . .K '  . .}  .7.",
"7.%.3.4.4.4.%. .4.4.4.4.4.4.4.3.4.' 3.4.4.4.%.7.",
"7.%.4.4.4.4.:.@.4.4.4.4.4.4.4.4.4.' 3.4.4.4.%.7.",
"7.' {  .{ { ~ ..4.4.4.4.4.4.4.4.4.^ ' ' ' ' { 7.",
"7.$.4.4.3.3.%.O.4.4.4.4.4.4.4.4.4.{ 3.3.3.3.%.7.",
"7.%.4.4.4.4.;.@.4.4.4.4.4.4.4.4.4. .4.4.4.4.%.7.",
"7.'  . . . ./ W  . . . .^  . . . .K ' {  . . .7.",
"7.%.3.t t t t t w %.3.,.' 4.4.4.[ ; t t u 3.$.7.",
"7.%.4.t t d t t X t ,.3. .4.4.4., % t t % g %.7.",
"7.W K t t B S c t % i G S K K a t t n x t t W 7.",
"7.I m t t k B B 2 q t B B B B - < 7 t t 5 k I 7.",
"7.^ S t t b S S s t t S S S S - + t t t < 6 E 7.",
"7./ K t t B K K y t t - t t t > o t M h t t ^ 7.",
"7./ G t t B G G $ 6 t p t t t 1 % q G S t t L 7.",
"7.^ K t t x j # t % i G G K G v t t x O t t E 7.",
"7./ G t t t t t X t G G K K K K t   t t 4 i / 7.",
"7.@.) t t t t t e E / ' ) ) ) ' E e t t f / @.7.",
"7.7.7.,.,.,.,.3.7.7.7.7.7.7.7.7.7.7.3.4.7.7.7.7.",
"7.7.7.7.7.7.7.7.7.7.7.7.7.7.7.7.7.7.7.7.7.7.7.7."
};
