/* XPM */
static char *chart27_xpm[] = {
/* columns rows colors chars-per-pixel */
"24 24 117 2 ",
"   c #ADA67F",
".  c #AFA87F",
"X  c #B0A77A",
"o  c #B1A97F",
"O  c #AFA886",
"+  c #AFA987",
"@  c #B3AB83",
"#  c #B0A985",
"$  c #B3AC87",
"%  c #B6AE84",
"&  c #B3AD8E",
"*  c #B8B18C",
"=  c #B2AD92",
"-  c #B3AE94",
";  c #B6B194",
":  c #B6B196",
">  c #BAB492",
",  c #B8B396",
"<  c #BBB697",
"1  c #B5B19B",
"2  c #B6B3A1",
"3  c #B7B4A4",
"4  c #BAB8AB",
"5  c #BDBBAF",
"6  c #BBB9B1",
"7  c #BBB9B2",
"8  c #BDBBB0",
"9  c #BEBCB0",
"0  c #BFBDB0",
"q  c #BFBDB2",
"w  c #BEBCB3",
"e  c #BBBAB4",
"r  c #BCBCB8",
"t  c #BDBCB8",
"y  c #BDBCB9",
"u  c #BEBDB9",
"i  c #BEBDBC",
"p  c gray",
"a  c #C1BDA5",
"s  c #C0BDB1",
"d  c #C1BFB3",
"f  c #C0BFB5",
"g  c #C5C1AD",
"h  c #C7C3B0",
"j  c #C6C4BB",
"k  c #C6C4BD",
"l  c #CAC8BE",
"z  c #CECCC1",
"x  c #CCCBC6",
"c  c #CACACB",
"v  c #CACACC",
"b  c #CBCBCD",
"n  c #CCCCCE",
"m  c #D1CFC4",
"M  c #D1CFC8",
"N  c #D2D0C4",
"B  c #D3D1C6",
"V  c #D5D2C7",
"C  c #D5D3C8",
"Z  c #D1D0D0",
"A  c #D0D0D2",
"S  c #D4D3D1",
"D  c #D2D2D4",
"F  c #D4D3D5",
"G  c #D5D5D6",
"H  c #D5D5D7",
"J  c #D6D6D7",
"K  c #D5D5D8",
"L  c #D6D6D8",
"P  c #D7D7D9",
"I  c #DADADB",
"U  c #DCDCDD",
"Y  c #DDDDDE",
"T  c #DDDDDF",
"R  c #DEDEDE",
"E  c #E0DDD2",
"W  c #DFDFE1",
"Q  c #E0E0E1",
"!  c #E1E1E2",
"~  c #E2E2E4",
"^  c #E3E3E4",
"/  c #E3E3E5",
"(  c #E4E4E5",
")  c #E6E6E5",
"_  c #E5E5E6",
"`  c #E5E5E7",
"'  c #E6E6E6",
"]  c #E6E6E7",
"[  c #E6E6E8",
"{  c #E7E7E8",
"}  c #E7E7E9",
"|  c #E8E8E9",
" . c #E9E9E9",
".. c #E9E9EB",
"X. c #EAEAEB",
"o. c #EBEBEC",
"O. c #ECECEC",
"+. c #ECECED",
"@. c #EDEDEE",
"#. c #F2F1EF",
"$. c #EFEFF0",
"%. c #F0F0F1",
"&. c #F1F1F1",
"*. c #F1F1F2",
"=. c #F2F2F2",
"-. c #F4F4F4",
";. c #F7F7F7",
":. c #F7F7F8",
">. c #F8F8F8",
",. c #F8F8F9",
"<. c #F9F9F9",
"1. c #FAFAFA",
"2. c #FBFAFA",
"3. c #FBFBFB",
"4. c #FCFCFC",
"5. c #FFFFFF",
"6. c None",
/* pixels */
"6.6.6.6.6.6.6.6.6.6.6.6.6.6.6.6.6.6.6.6.6.6.6.6.",
"6.6.6.6.6.6.6.6.6.6.6.6.6.6.6.6.6.6.6.6.6.6.6.6.",
"6.| [ [ [ | ^ ! [ [ [ ` R [ [ [ ` R ` ` [ [ | 6.",
"6.%.4.4.4.4.%.| 4.4.4.3.` 4.4.4.4.` 3.4.4.4.%.6.",
"6.%.4.4.4.4.;.o.4.4.4.4.[ 4.4.4.4.| 4.4.4.4.%.6.",
"6.` | | | | ! R | | | ` R ` | | | I `  .|  .| 6.",
"6.%.3.4.4.4.%.| 4.4.4.4.4.4.4.4.4.` 3.4.4.4.%.6.",
"6.%.4.4.4.4.;.@.4.4.4.4.4.4.4.4.4.[ 3.4.4.4.%.6.",
"6.` | | ` ` ! | 4.4.4.4.4.4.4.4.4.! ` ` ` ` ` 6.",
"6.@.4.4.4.3.%.O.4.4.4.4.4.4.4.4.4.` 3.3.4.4.%.6.",
"6.%.4.4.4.4.;.O.4.4.4.4.4.4.4.4.4.| 4.4.4.4.%.6.",
"6.`  .| | | ! R | | | | ! | | |  .I ` [ |  .| 6.",
"6.%.4.3.3.3.%.| 4.4.3.;.` 1.1.1.3.` ;.3.3.3.$.6.",
"6.E p p p p u ` 4.4.4.3.% k p p #.; p p p p p 6.",
"6.m p p p p # p P P K a p p p 1 p 5 p p p p p 6.",
"6.z p p n v e 6 f n v - # 8 v p p c n v . u 0 6.",
"6.N p p D D , - 5 D D f p j > p p Z Z l p p R 6.",
"6.V p p P P < r 4 p p p S X p - 5 P P o 3 s ^ 6.",
"6.V p p K P @ - 8 p p p O p p 5 K K K p p Z ^ 6.",
"6.V p p K h 6 6 j P P * p p x K P K g p p P ! 6.",
"6.V p p p p O p K P K & 2 p p p p D $ - 0 P ^ 6.",
"6.` p p p p u R ^ ` ` 8 p p p p p W 0 p M ^ @.6.",
"6.6.;.;.;.3.6.6.6.6.6.3.;.;.;.;.3.6.3.;.6.6.6.6.",
"6.6.6.6.6.6.6.6.6.6.6.6.6.6.6.6.6.6.6.6.6.6.6.6."
};
