/* XPM */
static char *chart12_xpm[] = {
/* columns rows colors chars-per-pixel */
"24 24 117 2 ",
"   c #AAA274",
".  c #ADA67F",
"X  c #B0A77A",
"o  c #AEA782",
"O  c #AFA886",
"+  c #AFA987",
"@  c #B0A980",
"#  c #B3AB83",
"$  c #B0A985",
"%  c #B3AD8E",
"&  c #B5AF8E",
"*  c #B6B08F",
"=  c #BAB288",
"-  c #B8B18C",
";  c #B2AD92",
":  c #B3AE94",
">  c #B6B196",
",  c #BAB492",
"<  c #B8B396",
"1  c #BBB697",
"2  c #B5B19B",
"3  c #B6B3A1",
"4  c #B7B4A4",
"5  c #BFBAA3",
"6  c #B9B7AD",
"7  c #BAB8AB",
"8  c #BDBBAF",
"9  c #BBB9B1",
"0  c #BBB9B2",
"q  c #BEBBB0",
"w  c #BEBCB0",
"e  c #BEBCB3",
"r  c #BBBAB4",
"t  c #BCBCB8",
"y  c #BDBCB8",
"u  c #BEBDB9",
"i  c #BEBDBC",
"p  c gray",
"a  c #C0BDB2",
"s  c #C0BEB2",
"d  c #C1BFB3",
"f  c #C2BFB3",
"g  c #C0BFB5",
"h  c #C2BFB4",
"j  c #D2CBA8",
"k  c #C7C3B0",
"l  c #C2C0B4",
"z  c #C7C5B9",
"x  c #C6C4BB",
"c  c #C6C4BD",
"v  c #CBC9BF",
"b  c #C8C6C0",
"n  c #CECCC1",
"m  c #CCCBC6",
"M  c #CACACC",
"N  c #CBCBCD",
"B  c #CBCBCE",
"V  c #D1CFC2",
"C  c #D1CFC4",
"Z  c #D2D0C4",
"A  c #D3D1C6",
"S  c #D5D2C7",
"D  c #D5D3C8",
"F  c #D3D3D1",
"G  c #D4D3D1",
"H  c #D2D2D4",
"J  c #D5D5D6",
"K  c #D5D5D7",
"L  c #D6D6D7",
"P  c #D6D6D8",
"I  c #D7D7D9",
"U  c #DADADB",
"Y  c #DCDCDD",
"T  c #DDDDDE",
"R  c #DDDDDF",
"E  c #DEDEDE",
"W  c #E0DDD2",
"Q  c #DFDFE1",
"!  c #E0E0E1",
"~  c #E1E1E2",
"^  c #E1E1E3",
"/  c #E2E2E4",
"(  c #E4E4E5",
")  c #E6E6E5",
"_  c #E5E5E6",
"`  c #E5E5E7",
"'  c #E6E6E6",
"]  c #E6E6E7",
"[  c #E6E6E8",
"{  c #E7E7E8",
"}  c #E7E7E9",
"|  c #E8E8E9",
" . c #E9E9E9",
".. c #E9E9EB",
"X. c #EAEAEB",
"o. c #EBEBEC",
"O. c #ECECEC",
"+. c #ECECED",
"@. c #EFEFF0",
"#. c #F0F0F1",
"$. c #F1F1F1",
"%. c #F1F1F2",
"&. c #F2F2F2",
"*. c #F4F4F4",
"=. c #F7F7F7",
"-. c #F7F7F8",
";. c #F8F8F8",
":. c #F8F8F9",
">. c #F9F9F9",
",. c #FAFAFA",
"<. c #FBFBFB",
"1. c #FBFBFC",
"2. c #FCFCFC",
"3. c #FDFDFD",
"4. c #FEFEFE",
"5. c #FFFFFF",
"6. c None",
/* pixels */
"6.6.6.6.6.6.6.6.6.6.6.6.6.6.6.6.6.6.6.6.6.6.6.6.",
"6.6.6.6.6.6.6.6.6.6.6.6.6.6.6.6.6.6.6.6.6.6.6.6.",
"6.| [ [ [ [ / ^ | [ [ ` E [ [ [ ` E ` | [ [ | 6.",
"6.#.2.2.2.2.#.| 2.2.2.1.` 2.2.2.2.` 1.2.2.2.#.6.",
"6.#.2.2.2.2.=.o.2.2.2.2.[ 2.2.2.2.| 2.2.2.2.#.6.",
"6.` | | | | ^ E | | | ` E ` | | | U ` ` | { | 6.",
"6.#.1.2.2.2.#.| 2.2.2.2.2.2.2.2.2.` 1.2.2.2.#.6.",
"6.#.2.2.2.2.=.+.2.2.2.2.2.2.2.2.2.` 1.2.2.2.#.6.",
"6.` [ | ` [ ^ | 2.2.2.2.2.2.2.2.2.^ ` ` ` ` ` 6.",
"6.@.2.2.2.<.#.+.2.2.2.2.2.2.2.2.2.` 1.1.1.2.#.6.",
"6.#.2.2.2.2.=.| 2.2.2.2.2.2.2.2.2.| 2.2.2.2.#.6.",
"6.` | | | | ^ E | | | | ^ | | | [ U ` ` | { | 6.",
"6.@.1.1.1.2.#.| 2.2.1.;.` 2.2.2.2.` 1.1.2.1.#.6.",
"6.W i i p p u ` 2.2.2.1.| j i V 2.` = i i i ` 6.",
"6.C p p i p + i P P P L @ 4 o f P 5 p i i 2 i 6.",
"6.n p p B N r 0 l B B B i 6   8 N > o q N p i 6.",
"6.A p p H H < : w H H H b * + f H d i c , i p 6.",
"6.D p p P P 1 u 6 p i p P * + l P P G . i : d 6.",
"6.D i p P P # : w i i i P * + l P G # p i 8 / 6.",
"6.A p p P k 0 0 c P P L P * + l P * i i m P ^ 6.",
"6.D p i i p + i L L P P P * + f P % 4 p i p p 6.",
"6.` p i p p u Q ` ` ` / ` b i z ` e i i p p p 6.",
"6.6.=.=.=.1.6.6.6.6.6.6.6.2.1.1.6.1.-.-.-.-.-.6.",
"6.6.6.6.6.6.6.6.6.6.6.6.6.6.6.6.6.6.6.6.6.6.6.6."
};
