/* XPM */
static char *chart10_xpm[] = {
/* columns rows colors chars-per-pixel */
"32 32 128 2 ",
"   c #9D8F43",
".  c #9F9146",
"X  c #A19349",
"o  c #A5974E",
"O  c #A49859",
"+  c #A4985A",
"@  c #A59A5F",
"#  c #A59A62",
"$  c #A59B62",
"%  c #A79D65",
"&  c #A89E6B",
"*  c #AEA368",
"=  c #ABA16C",
"-  c #A9A070",
";  c #AAA171",
":  c #AAA275",
">  c #ABA276",
",  c #ABA377",
"<  c #ACA479",
"1  c #ACA57D",
"2  c #ADA57D",
"3  c #ADA67F",
"4  c #B2A872",
"5  c #ADA680",
"6  c #ADA681",
"7  c #B4AC83",
"8  c #B0A987",
"9  c #B1AB8C",
"0  c #B1AB8E",
"q  c #B3AD8D",
"w  c #B9B083",
"e  c #BAB285",
"r  c #B8B086",
"t  c #B6B08F",
"y  c #B2AC90",
"u  c #B3AE95",
"i  c #B4AF98",
"p  c #BEB89C",
"a  c #B6B3A0",
"s  c #B6B3A1",
"d  c #B7B4A3",
"f  c #BFBAA4",
"g  c #B8B6A9",
"h  c #B9B6AA",
"j  c #B9B7AB",
"k  c #BEBBAF",
"l  c #BFBCAE",
"z  c #BEBCAF",
"x  c #BBBAB1",
"c  c #BCBAB1",
"v  c #BCBBB2",
"b  c #BDBBB2",
"n  c #BEBCB0",
"m  c #BFBDB1",
"M  c #BCBBB4",
"N  c #BCBBB5",
"B  c #BDBBB5",
"V  c #BCBCB8",
"C  c #BDBDBB",
"Z  c #BEBEBA",
"A  c gray",
"S  c #C1BB9D",
"D  c #C1BB9E",
"F  c #C1BCA2",
"G  c #C3BEA4",
"H  c #C3BEA9",
"J  c #C1BFB3",
"K  c #C0BEB4",
"L  c #C1BFB6",
"P  c #C6C1A8",
"I  c #C6C1A9",
"U  c #C2C0B4",
"Y  c #C2C0B5",
"T  c #CAC7B8",
"R  c #CDCBBF",
"E  c #C8C7C0",
"W  c #CBC9C3",
"Q  c #CAC9C4",
"!  c #C8C8C7",
"~  c #C6C6C8",
"^  c #C7C7C9",
"/  c #C9C9CB",
"(  c #CDCCC9",
")  c #CECDC9",
"_  c #CFCECB",
"`  c #CCCCCE",
"'  c #CFCFCF",
"]  c #D0CFCF",
"[  c #D5D2C7",
"{  c #D2D1CA",
"}  c #D9D7CC",
"|  c #DAD8CD",
" . c #DBD9CF",
".. c #CECED0",
"X. c #CFCFD1",
"o. c #D0D0D0",
"O. c #D2D1D0",
"+. c #D0D0D2",
"@. c #D3D2D2",
"#. c #D2D2D3",
"$. c #D3D3D3",
"%. c #D4D4D6",
"&. c #D5D5D7",
"*. c #D7D6D7",
"=. c #D7D7D8",
"-. c #D7D7D9",
";. c #D8D8DA",
":. c #D9D9DB",
">. c #DADADB",
",. c #DADADC",
"<. c #DBDBDC",
"1. c #DBDBDD",
"2. c #DDDDDF",
"3. c #DEDEDF",
"4. c #E2E2E3",
"5. c #E3E3E5",
"6. c #E3E3E6",
"7. c #E4E4E6",
"8. c #E6E6E7",
"9. c #E7E7E9",
"0. c #E9E9EA",
"q. c #EBEBEC",
"w. c #EDEDEE",
"e. c #F0F0F1",
"r. c #F3F3F4",
"t. c #F7F6F6",
"y. c gray100",
"u. c None",
/* pixels */
"u.u.u.u.u.u.u.u.u.u.u.u.u.u.u.u.u.u.u.u.u.u.u.u.u.u.u.u.u.u.u.u.",
"u.u.u.u.u.u.u.u.u.u.u.u.u.u.u.u.u.u.u.u.u.u.u.u.u.u.u.u.u.u.u.u.",
"u.u.u.u.u.u.u.u.u.u.u.u.u.u.u.u.u.u.u.u.u.u.u.u.u.u.u.u.u.u.u.u.",
"u.0.7.5.5.5.5.5.5.;.7.5.5.5.5.7.;.7.5.5.5.5.7.;.7.5.5.5.5.7.w.u.",
"u.5.y.y.y.y.y.y.y.>.y.y.y.y.y.y.>.y.y.y.y.y.y.;.y.y.y.y.y.y.5.u.",
"u.5.y.y.y.y.y.y.y.;.y.y.y.y.y.y.>.y.y.y.y.y.y.>.y.y.y.y.y.y.5.u.",
"u.5.y.y.y.y.y.y.y.>.y.y.y.y.y.y.>.y.y.y.y.y.y.>.y.y.y.y.y.y.5.u.",
"u.4.<.>.>.>.>.>.>...>.>.>.>.>.>.' >.>.>.>.>.>...>.>.>.>.>.1.7.u.",
"u.5.y.y.y.y.y.y.y.>.y.y.y.y.y.y.y.y.y.y.y.y.y.>.y.y.y.y.y.y.5.u.",
"u.5.y.y.y.y.y.y.y.>.y.y.y.y.y.y.y.y.y.y.y.y.y.>.y.y.y.y.y.y.5.u.",
"u.5.y.y.y.y.y.y.y.;.y.y.y.y.y.y.y.y.y.y.y.y.y.>.y.y.y.y.y.y.5.u.",
"u.4.<.>.;.>.>.>.>...y.y.y.y.y.y.y.y.y.y.y.y.y...>.>.>.>.>.<.7.u.",
"u.5.y.y.y.y.y.y.y.>.y.y.y.y.y.y.y.y.y.y.y.y.y.>.y.y.y.y.y.y.5.u.",
"u.5.y.y.y.y.y.y.y.>.y.y.y.y.y.y.y.y.y.y.y.y.y.>.y.y.y.y.y.y.5.u.",
"u.5.y.y.y.y.y.y.y.>.y.y.y.y.y.y.y.y.y.y.y.y.y.>.y.y.y.y.y.y.5.u.",
"u.4.<.>.>.>.>.>.>...>.>.>.>.>.>...>.>.>.>.>.>...>.>.>.>.>.1.7.u.",
"u.5.y.y.y.y.y.y.y.>.y.y.y.y.y.y.>.y.y.y.y.y.y.>.y.y.y.y.y.y.5.u.",
"u.5.y.y.y.y.y.y.y.>.y.y.y.y.y.y.>.y.y.y.y.y.y.>.y.y.y.y.y.y.5.u.",
"u.5.y.y.y.y.y.y.y.1.y.y.y.y.y.y.1.y.y.y.y.y.y.<.y.y.y.y.y.y.5.u.",
"u.9.~ ~ ~ ~ ~ ~ / / ~ ~ ~ ~ ~ ~ / ~ ~ ~ ~ ~ ~ ~ ~ ~ ~ ~ ~ ~ 9.u.",
"u.0.' @ A A A A A L / ' / ..' ` ' / X A x ' ' f % A A V ! ' 0.u.",
"u.q...@ 1 A A A g A m ..#.....+.p = 6 i x ..' . A A A & A ..q.u.",
"u.w.%.$ 1 N #.' q A A %.%.%.%.%.7 V ;   v %.p d > z F A A ! w.u.",
"u.e.;.@ 1 N ;.;.I A g Q ;.;.;.;.#.m 8 9 v >.e A A _ { q > Y e.u.",
"u.r.%.@ 1 N &.%.T d 1 Y &.%.%.%.%.%.O 9 v %.4 A A ] #.; $ k r.u.",
"u.q.;.@ 1 N ;.;.I d 6 t A A A A ;.;.O 9 v ;.w A A #.{ > $ m q.u.",
"u.w.&.@ 1 B %.%.* A g E A A A A %.%.O 9 v &.S A A ( G q 1 J w.u.",
"u.e.;.@ 1 B W 7 ; A A &.;.;.;.;.;.;.O 9 v ;.&.u < J o A A _ e.u.",
"u.r.<.% 1 A A A g A J >.;.>.>.>.>.>.O 9 m <.;.H A A A > A >.r.u.",
"u.y.y.{ Y A A A A } y.y.y.y.y.y.y.y.} A L y.y.y. .A A V t.y.y.u.",
"u.u.u.u.u.u.u.u.u.u.u.u.u.u.u.u.u.u.u.u.u.u.u.u.u.u.u.u.u.u.u.u.",
"u.u.u.u.u.u.u.u.u.u.u.u.u.u.u.u.u.u.u.u.u.u.u.u.u.u.u.u.u.u.u.u."
};
