/* XPM */
static char *chart7_xpm[] = {
/* columns rows colors chars-per-pixel */
"32 32 82 1 ",
"  c #A89E6C",
". c #A89F6D",
"X c #B1A97E",
"o c #AEA781",
"O c #B0A983",
"+ c #B0AA89",
"@ c #B2AB88",
"# c #B0AA8A",
"$ c #B2AC8B",
"% c #B7B088",
"& c #B3AE94",
"* c #B6B090",
"= c #B4B099",
"- c #B5B19D",
"; c #BFBAA3",
": c #BDBBAF",
"> c #BEBBAF",
", c #BEBCAD",
"< c #BBB9B0",
"1 c #BBBAB2",
"2 c #BBBAB3",
"3 c #BFBDB1",
"4 c #BFBEB7",
"5 c gray",
"6 c #C3BEA5",
"7 c #C4BFA8",
"8 c #C1BEB2",
"9 c #C1BFB4",
"0 c #C2BFB4",
"q c #C4C0AA",
"w c #C6C3B4",
"e c #C8C4B1",
"r c #C4C2B8",
"t c #C6C4BA",
"y c #CDCBBF",
"u c #C6C5C2",
"i c #C9C8C5",
"p c #CDCBC4",
"a c #C6C6C8",
"s c #C7C7C9",
"d c #C9C9CB",
"f c #CACACB",
"g c #CCCBC8",
"h c #CECCC8",
"j c #CECDCB",
"k c #CCCCCE",
"l c #CECECF",
"z c #D1D0CE",
"x c #CECED0",
"c c #D0D0D0",
"v c #D0D0D2",
"b c #D2D2D3",
"n c #D3D3D5",
"m c #D4D4D5",
"M c #D4D4D6",
"N c #D5D5D6",
"B c #DFDED5",
"V c #D6D6D8",
"C c #D7D7D8",
"Z c #D7D7D9",
"A c #D8D8DA",
"S c #D9D9DB",
"D c #DADADB",
"F c #DADADC",
"G c #DBDBDC",
"H c #DBDBDD",
"J c #DDDDDF",
"K c #DEDEDF",
"L c #E2E2E3",
"P c #E3E3E5",
"I c #E3E3E6",
"U c #E4E4E6",
"Y c #E6E6E7",
"T c #E7E7E9",
"R c #E9E9EA",
"E c #EBEBEC",
"W c #EDEDEE",
"Q c #F0F0F1",
"! c #F3F3F4",
"~ c #F7F7F6",
"^ c gray100",
"/ c None",
/* pixels */
"////////////////////////////////",
"////////////////////////////////",
"////////////////////////////////",
"/RUPPPPPPAUPPPPUAUPPPPUAUPPPPUW/",
"/P^^^^^^^D^^^^^^D^^^^^^D^^^^^^P/",
"/P^^^^^^^A^^^^^^D^^^^^^D^^^^^^P/",
"/P^^^^^^^D^^^^^^D^^^^^^D^^^^^^P/",
"/LGDDDDDDxDDDDDDlDDDDDDlDDDDDHU/",
"/P^^^^^^^D^^^^^^^^^^^^^D^^^^^^P/",
"/P^^^^^^^D^^^^^^^^^^^^^D^^^^^^P/",
"/P^^^^^^^A^^^^^^^^^^^^^D^^^^^^P/",
"/LGDADDDDx^^^^^^^^^^^^^xDDDDDGU/",
"/P^^^^^^^D^^^^^^^^^^^^^D^^^^^^P/",
"/P^^^^^^^D^^^^^^^^^^^^^D^^^^^^P/",
"/P^^^^^^^D^^^^^^^^^^^^^D^^^^^^P/",
"/LGDDDDDDxDDDDDDxDDDDDDxDDDDDHU/",
"/P^^^^^^^D^^^^^^D^^^^^^D^^^^^^P/",
"/P^^^^^^^D^^^^^^D^^^^^^D^^^^^^P/",
"/P^^^^^^^H^^^^^^H^^^^^^G^^^^^^P/",
"/TaaaaaaadaaaaaadaaaaaadaaaaaaT/",
"/Rldkkk55555<dlllkx$555555ulllR/",
"/Evvvvv55555 5lxvvx,555555ivxvE/",
"/WNNMMM55hng5#3MMMMnxxzO-<nnnnW/",
"/QADAAA55zAD;25AAAAADAq55NAADDQ/",
"/!nMMMM55hMMw55nNnNnMn&=9NnNnn!/",
"/EAAAAA55zAA755*555tA655AAAAGAE/",
"/WNnMMM55hNNX259555rM@o,nnnnnnW/",
"/QDAAAA55pp%5#8AAAAAA55hAADAGDQ/",
"/!DDGAG55555 5ADGAGAe55AADDDAD!/",
"/^^^^^^555554~^^^^^^B55^^^^^^^^/",
"////////////////////////////////",
"////////////////////////////////"
};
