/* XPM */
static char *chartb_xpm[] = {
/* columns rows colors chars-per-pixel */
"24 24 114 2 ",
"   c #9D8E40",
".  c #A59857",
"X  c #A69959",
"o  c #AAA170",
"O  c #ADA473",
"+  c #B1A97E",
"@  c #AFA883",
"#  c #B6AF8A",
"$  c #B2AD8F",
"%  c #B8B18F",
"&  c #B2AC90",
"*  c #B3AF97",
"=  c #B4AF96",
"-  c #B7B196",
";  c #B5B19B",
":  c #BAB59A",
">  c #BBB59A",
",  c #BBB69B",
"<  c #BCB799",
"1  c #BCB79A",
"2  c #B7B3A2",
"3  c #BEB9A3",
"4  c #B9B7AD",
"5  c #BAB8AE",
"6  c #BBB9AE",
"7  c #BAB8AF",
"8  c #BAB9AF",
"9  c #BCBAAE",
"0  c #BBB9B0",
"q  c #BAB9B1",
"w  c #BCBAB3",
"e  c #BCBAB4",
"r  c #BDBCB7",
"t  c #BDBDBA",
"y  c #BDBDBB",
"u  c #BDBDBC",
"i  c #BEBEBD",
"p  c gray",
"a  c #C0BCA8",
"s  c #C0BCA9",
"d  c #C3BFA8",
"f  c #C0BEB2",
"g  c #C6C1AB",
"h  c #C6C2AB",
"j  c #C6C2AC",
"k  c #C7C2AC",
"l  c #C7C5B9",
"z  c #C7C6BD",
"x  c #CAC8BE",
"c  c #CECCBF",
"v  c #DCD6B3",
"b  c #C5C4C1",
"n  c #CFCDC4",
"m  c #CACACA",
"M  c #CDCCC9",
"N  c #CDCDCA",
"B  c #CECDCA",
"V  c #CBCBCD",
"C  c #CDCDCD",
"Z  c #CFCECC",
"A  c #D0D0D1",
"S  c #D1D1D3",
"D  c #D4D4D5",
"F  c #D4D4D6",
"G  c #D5D5D7",
"H  c #D6D6D7",
"J  c #D6D6D8",
"K  c #DADADB",
"L  c #DADADC",
"P  c #DCDCDD",
"I  c #DDDDDE",
"U  c #DDDDDF",
"Y  c #E7E3CB",
"T  c #DEDEE0",
"R  c #DFDFE1",
"E  c #E0E0E1",
"W  c #E1E1E2",
"Q  c #E2E2E4",
"!  c #E3E3E4",
"~  c #E3E3E5",
"^  c #E4E4E5",
"/  c #E5E5E5",
"(  c #E5E5E6",
")  c #E5E5E7",
"_  c #E6E6E7",
"`  c #E6E6E8",
"'  c #E7E7E8",
"]  c #E7E7E9",
"[  c #E8E8E9",
"{  c #E9E9E9",
"}  c #E9E9EB",
"|  c #EAEAEB",
" . c #EBEBEC",
".. c #ECECEC",
"X. c #ECECED",
"o. c #EDEDEE",
"O. c #EFEFF0",
"+. c #F0F0F1",
"@. c #F1F1F1",
"#. c #F1F1F2",
"$. c #F2F2F2",
"%. c #F4F4F4",
"&. c #F7F7F7",
"*. c #F7F7F8",
"=. c #F8F8F8",
"-. c #F8F8F9",
";. c #F9F9F9",
":. c #FAFAFA",
">. c #FBFBFB",
",. c #FCFCFC",
"<. c #FDFDFD",
"1. c #FEFEFE",
"2. c #FFFFFF",
"3. c None",
/* pixels */
"3.3.3.3.3.3.3.3.3.3.3.3.3.3.3.3.3.3.3.3.3.3.3.3.",
"3.3.3.3.3.3.3.3.3.3.3.3.3.3.3.3.3.3.3.3.3.3.3.3.",
"3.[ ` ` [ [ W W ` ` ` ) U ` ` ` ) U ) { ` ` [ 3.",
"3.+.,.,.,.,.+.[ ,.,.,.>.) ,.,.,.,.) =.,.,.,.+.3.",
"3.+.,.,.,.,.&...,.,.,.,.` ,.,.,.,.[ ,.,.,.,.+.3.",
"3.) [ [ [ [ W U [ [ [ ) U ) [ [ [ K ) { [ { [ 3.",
"3.+.>.,.,.,.+.[ ,.,.,.,.,.,.,.,.,.) >.,.,.,.+.3.",
"3.+.,.,.,.,.&.o.,.,.,.,.,.,.,.,.,.` >.,.,.,.+.3.",
"3.) [ [ ) ) W [ ,.,.,.,.,.,.,.,.,.W ) ) ) ) ) 3.",
"3.o.,.,.,.,.+. .,.,.,.,.,.,.,.,.,.) >.>.,.,.+.3.",
"3.+.,.,.,.,.&. .,.,.,.,.,.,.,.,.,.[ ,.,.,.,.+.3.",
"3.) { [ [ [ W U [ [ [ [ W [ [ [ { K ) ) [ { [ 3.",
"3.+.,.,.>.>.O.[ >.>.>.>.) ,.,.,.,.) >.,.,.,.O.3.",
"3.+.Y 4 p p p p c v p p ) ,.,.,.,.[ >.,.,.,.$.3.",
"3.R g 4 p p p p p < p p A H K H H A J J J J R 3.",
"3.P 3 4 p b # @ $ - p p p p 6 m X p p p 6 C L 3.",
"3.R d 4 p p p p p < p p p p p 9 w 2 p p p C R 3.",
"3.~ g 0 p p p p p < p p C o * z p p O ; p B ~ 3.",
"3.~ g 0 p B J . t 0 p p D o * , $ p 0 p p B ~ 3.",
"3.W g 0 p B n   p e p p D o * + p p % - p B W 3.",
"3.~ g 4 p p p p 4 < p p H o * d p p p f p t ~ 3.",
"3.o.~ r p p p p f ~ p p E l p n n p p w p p o.3.",
"3.3.3.>.&.&.*.>.3.3.>.=.3.,.&.,.3.,.>.3.>.,.3.3.",
"3.3.3.3.3.3.3.3.3.3.3.3.3.3.3.3.3.3.3.3.3.3.3.3."
};
