/* XPM */
static char *chart20_xpm[] = {
/* columns rows colors chars-per-pixel */
"24 24 122 2 ",
"   c #ADA67F",
".  c #B0A77A",
"X  c #AFA886",
"o  c #AFA987",
"O  c #B3AB83",
"+  c #B0A985",
"@  c #B6AE84",
"#  c #B2AC88",
"$  c #B1AB8C",
"%  c #B1AB8D",
"&  c #B3AD8E",
"*  c #B3AE8F",
"=  c #B8B18C",
"-  c #BFB88F",
";  c #B2AD91",
":  c #B2AD92",
">  c #B3AE94",
",  c #B5B091",
"<  c #B5B095",
"1  c #B6B196",
"2  c #BAB492",
"3  c #B8B396",
"4  c #BBB697",
"5  c #B5B19B",
"6  c #B6B29F",
"7  c #BEB899",
"8  c #B6B2A0",
"9  c #B6B3A1",
"0  c #B9B7AB",
"q  c #BAB8AB",
"w  c #BBB9AE",
"e  c #BDBBAF",
"r  c #BBB9B1",
"t  c #BBB9B2",
"y  c #BDBBB0",
"u  c #BEBCB0",
"i  c #BEBCB3",
"p  c #BBBAB4",
"a  c #BCBCB8",
"s  c #BDBCB8",
"d  c #BEBDB9",
"f  c #BEBDBC",
"g  c gray",
"h  c #C1BDA5",
"j  c #C1BDAB",
"k  c #C0BEB2",
"l  c #C1BFB3",
"z  c #C0BFB5",
"x  c #C2C0B3",
"c  c #C7C3B0",
"v  c #C6C3B4",
"b  c #C5C2B6",
"n  c #C3C1B8",
"m  c #C5C3BA",
"M  c #C6C4BB",
"N  c #C6C4BD",
"B  c #C5C4BE",
"V  c #C9C7C0",
"C  c #CECCC1",
"Z  c #CCCBC6",
"A  c #CACACC",
"S  c #CBCBCD",
"D  c #D1CFC4",
"F  c #D2D0C4",
"G  c #D3D1C6",
"H  c #D5D2C7",
"J  c #D1D0CB",
"K  c #D5D3C8",
"L  c #D4D3CD",
"P  c #D4D3D1",
"I  c #D2D2D4",
"U  c #D4D3D5",
"Y  c #D5D5D6",
"T  c #D5D5D7",
"R  c #D6D6D7",
"E  c #D6D6D8",
"W  c #D7D7D9",
"Q  c #DADADB",
"!  c #DCDCDD",
"~  c #DDDDDE",
"^  c #DDDDDF",
"/  c #DEDEDE",
"(  c #E0DDD2",
")  c #DFDFE1",
"_  c #E0E0E1",
"`  c #E1E1E2",
"'  c #E2E2E4",
"]  c #E4E4E5",
"[  c #E6E6E5",
"{  c #E5E5E6",
"}  c #E5E5E7",
"|  c #E6E6E6",
" . c #E6E6E7",
".. c #E6E6E8",
"X. c #E7E7E8",
"o. c #E7E7E9",
"O. c #E8E8E9",
"+. c #E9E9E9",
"@. c #E9E9EB",
"#. c #EAEAEB",
"$. c #EBEBEC",
"%. c #ECECEC",
"&. c #ECECED",
"*. c #F2F1EF",
"=. c #EFEFF0",
"-. c #F0F0F1",
";. c #F1F1F1",
":. c #F1F1F2",
">. c #F2F2F2",
",. c #F4F4F4",
"<. c #F7F7F7",
"1. c #F7F7F8",
"2. c #F8F8F8",
"3. c #F8F8F9",
"4. c #F9F9F9",
"5. c #FAFAFA",
"6. c #FBFAFA",
"7. c #FBFBFB",
"8. c #FCFCFC",
"9. c #FEFEFE",
"0. c #FFFFFF",
"q. c None",
/* pixels */
"q.q.q.q.q.q.q.q.q.q.q.q.q.q.q.q.q.q.q.q.q.q.q.q.",
"q.q.q.q.q.q.q.q.q.q.q.q.q.q.q.q.q.q.q.q.q.q.q.q.",
"q.O.....O...' ) ......} / ......} / } O.....O.q.",
"q.-.8.8.8.8.-.%.8.8.8.7.} 8.8.8.8.} 7.8.8.8.-.q.",
"q.-.8.8.8.8.<.O.8.8.8.8...8.8.8.8.O.8.8.8.8.-.q.",
"q.} O.O.O.O.' / O.O.O.} / } O.O.O.Q } X.O.X.O.q.",
"q.-.7.8.8.8.-.O.8.8.8.8.8.8.8.8.8.} 7.8.8.8.-.q.",
"q.-.8.8.8.8.<.&.8.8.8.8.8.8.8.8.8...7.8.8.8.-.q.",
"q.} O.O.} } ' O.8.8.8.8.8.8.8.8.8.' } } } X.} q.",
"q.&.8.8.8.7.*.%.8.8.8.8.8.8.8.8.8.} <.8.8.8.-.q.",
"q.-.8.8.8.8.,.%.8.8.8.8.8.8.8.8.8.O.8.8.8.8.-.q.",
"q.} X.O.O.O.' / O.O.O.O.' O.O.O.X.Q } } O.X.O.q.",
"q.-.8.8.7.7.-.O.8.8.7.<.} 8.7.8.8.} <.7.7.8.-.q.",
"q.( g g g g d } 8.8.8.7.@ g g d *.} - g g l &.q.",
"q.D g g g g + g W W R h g g g 5 g b g g g > x q.",
"q.C g g S S p r z S S 1   e S g g # 6 w M g g q.",
"q.F g g I I 3 > e I I l g M 2 g g & $ n I g g q.",
"q.H g g W W 4 d 0 g g g P . g > e 1 9 V W g g q.",
"q.H g g R R O > i g g g + g g e R , $ m J g g q.",
"q.H g g W c r r m W W = g g Z W R j 0 e 7 g g q.",
"q.H g g g g X g R W W & 9 g g g g I g g g 9 b q.",
"q.} g g g g d / ' } ' i g g g g g ' L g g i &.q.",
"q.q.<.<.<.7.q.q.q.q.q.7.<.<.<.<.<.q.q.8.7.q.q.q.",
"q.q.q.q.q.q.q.q.q.q.q.q.q.q.q.q.q.q.q.q.q.q.q.q."
};
