/* XPM */
static char *chart27_xpm[] = {
/* columns rows colors chars-per-pixel */
"32 32 126 2 ",
"   c #A09144",
".  c #A19347",
"X  c #A29653",
"o  c #A79B58",
"O  c #A4985A",
"+  c #A4995C",
"@  c #A59A5F",
"#  c #A89C5B",
"$  c #A69B64",
"%  c #A89F6C",
"&  c #ACA164",
"*  c #AEA368",
"=  c #B0A56A",
"-  c #AAA171",
";  c #AEA470",
":  c #AAA275",
">  c #ABA375",
",  c #ADA57D",
"<  c #ADA67F",
"1  c #ADA680",
"2  c #B0AA8A",
"3  c #B1AB8D",
"4  c #B3AD8D",
"5  c #B8B086",
"6  c #B6B08F",
"7  c #BBB48D",
"8  c #B2AC90",
"9  c #B2AD93",
"0  c #B3AF96",
"q  c #B4AF95",
"w  c #BEB690",
"e  c #BBB597",
"r  c #BDB795",
"t  c #B5B19C",
"y  c #B6B3A1",
"u  c #B6B3A2",
"i  c #B7B4A3",
"p  c #B8B5A5",
"a  c #B8B6A8",
"s  c #B8B6A9",
"d  c #B9B6AA",
"f  c #B9B7AB",
"g  c #BCB9AB",
"h  c #BEBBAF",
"j  c #BEBCAF",
"k  c #BEBCB0",
"l  c #BFBCB0",
"z  c #BCBBB4",
"x  c #BCBBB5",
"c  c #BDBBB5",
"v  c #BDBCB9",
"b  c #BDBDBA",
"n  c #BDBDBB",
"m  c #BEBDBB",
"M  c gray",
"N  c #C1BEB2",
"B  c #C1BFB3",
"V  c #C0BEB4",
"C  c #C5C0A4",
"Z  c #C5C0A5",
"A  c #C6C1A8",
"S  c #C6C1A9",
"D  c #C7C2AA",
"F  c #C2C0B4",
"G  c #C2C0B5",
"H  c #CAC6B2",
"J  c #C2C0B8",
"K  c #C6C4B8",
"L  c #C6C5BC",
"P  c #C7C6BE",
"I  c #CAC7B8",
"U  c #C9C7BD",
"Y  c #CBC9BC",
"T  c #CDCBBF",
"R  c #C8C7C0",
"E  c #CBC9C3",
"W  c #C6C6C8",
"Q  c #C7C7C9",
"!  c #C9C9CB",
"~  c #CECDCB",
"^  c #CCCCCE",
"/  c #D0CFCF",
"(  c #D5D2C7",
")  c #D2D1CA",
"_  c #D0D0CF",
"`  c #D4D3CF",
"'  c #D9D7CC",
"]  c #CECED0",
"[  c #D0D0D0",
"{  c #D1D0D1",
"}  c #D2D1D0",
"|  c #D3D2D1",
" . c #D0D0D2",
".. c #D2D2D3",
"X. c #D2D2D4",
"o. c #D4D4D5",
"O. c #D4D4D6",
"+. c #D5D5D7",
"@. c #D6D6D8",
"#. c #D7D7D8",
"$. c #D7D7D9",
"%. c #D8D8D9",
"&. c #D8D8DA",
"*. c #D9D9DB",
"=. c #DADADB",
"-. c #DADADC",
";. c #DBDBDC",
":. c #DBDBDD",
">. c #DDDDDF",
",. c #DEDEDF",
"<. c #E5E3DC",
"1. c #E2E2E3",
"2. c #E3E3E5",
"3. c #E3E3E6",
"4. c #E4E4E6",
"5. c #E6E6E7",
"6. c #E7E7E9",
"7. c #E9E9EA",
"8. c #EBEBEC",
"9. c #EDEDEE",
"0. c #F0F0F1",
"q. c #F3F3F4",
"w. c #F6F6F5",
"e. c #FEFEFE",
"r. c gray100",
"t. c None",
/* pixels */
"t.t.t.t.t.t.t.t.t.t.t.t.t.t.t.t.t.t.t.t.t.t.t.t.t.t.t.t.t.t.t.t.",
"t.t.t.t.t.t.t.t.t.t.t.t.t.t.t.t.t.t.t.t.t.t.t.t.t.t.t.t.t.t.t.t.",
"t.t.t.t.t.t.t.t.t.t.t.t.t.t.t.t.t.t.t.t.t.t.t.t.t.t.t.t.t.t.t.t.",
"t.7.4.2.2.2.2.2.2.&.4.2.2.2.2.4.&.4.2.2.2.2.4.&.4.2.2.2.2.4.9.t.",
"t.2.r.r.r.r.r.r.r.=.r.r.r.r.r.r.=.r.r.r.r.r.r.=.r.r.r.r.r.r.2.t.",
"t.2.r.r.r.r.r.r.r.&.r.r.r.r.r.r.=.r.r.r.r.r.r.=.r.r.r.r.r.r.2.t.",
"t.2.r.r.r.r.r.r.r.=.r.r.r.r.r.r.=.r.r.r.r.r.r.=.r.r.r.r.r.r.2.t.",
"t.1.;.=.=.=.=.=.=.] =.=.=.=.=.=.^ =.=.=.=.=.=.] =.=.=.=.=.:.4.t.",
"t.2.r.r.r.r.r.r.r.=.r.r.r.r.r.r.r.r.r.r.r.r.r.=.r.r.r.r.r.r.2.t.",
"t.2.r.r.r.r.r.r.r.=.r.r.r.r.r.r.r.r.r.r.r.r.r.=.r.r.r.r.r.r.2.t.",
"t.2.r.r.r.r.r.r.r.&.r.r.r.r.r.r.r.r.r.r.r.r.r.=.r.r.r.r.r.r.2.t.",
"t.1.;.=.&.=.=.=.=.] r.r.r.r.r.r.r.r.r.r.r.r.r.] =.=.=.=.=.;.4.t.",
"t.2.r.r.r.r.r.r.r.=.r.r.r.r.r.r.r.r.r.r.r.r.r.=.r.r.r.r.r.r.2.t.",
"t.2.r.r.r.r.r.r.r.=.r.r.r.r.r.r.r.r.r.r.r.r.r.=.r.r.r.r.r.r.2.t.",
"t.2.r.r.r.r.r.r.r.=.r.r.r.r.r.r.r.r.r.r.r.r.r.=.r.r.r.r.r.r.2.t.",
"t.1.;.=.=.=.=.=.=.] =.=.=.=.=.=.] =.=.=.=.=.=.] =.=.=.=.=.:.4.t.",
"t.2.r.r.r.r.r.r.r.=.r.r.r.r.r.r.=.r.r.r.r.r.r.=.r.r.r.r.r.r.2.t.",
"t.2.r.r.r.r.r.r.r.=.r.r.r.r.r.r.=.r.r.r.r.r.r.=.r.r.r.r.r.r.2.t.",
"t.2.r.r.r.r.r.r.r.:.r.r.r.r.r.r.:.r.r.r.r.r.r.:.r.r.r.r.r.r.2.t.",
"t.6.W W W W W W ! ! W W W W W ! ! W W W W W W ! W W W W W W 6.t.",
"t.7.^ + M M M M M V ^ ^ ^ ^ ^ ! e - M M M J ; M M M M M M b 7.t.",
"t.8.} $ , M M M a M k }  .}  .R + M M M 0 M L M M M M M 8 b 8.t.",
"t.9.X.$ , x } ] 3 M M X.X.O.O.7 M u G } t $ h ^ } ] # M M ~ 9.t.",
"t.0.&.+ , x ;.&.D M f E &.&.=.` M M } Z : % k =.=.D 0 8 N =.0.t.",
"t.q.X.$ , x O.O.I u , G O.O.X.O.} / r + M M R X.X.. M M X.X.q.t.",
"t.8.&.+ , x &.&.D p , 6 M M M M ) o b b M k &.=.C 0 2 V =.&.8.t.",
"t.9.O.+ , c O.O.* M f R M M M M   M 8 M L O.O.O.& M M [ O.X.9.t.",
"t.0.=.$ , c Y 5 - M M O.=.&.&.w p 3 h Y Y } O.=.X a b =.=.=.0.t.",
"t.0.=.$ , M M M a M N =.=.=.=.= M M M M M M k H 3 : V =.;.&.q.t.",
"t.r.r.( M M M M M ' r.r.r.r.r.w.M M M M M M K r.M M <.r.r.r.r.t.",
"t.t.t.t.t.t.t.t.t.t.t.t.t.t.t.t.t.t.t.t.t.t.t.t.t.t.t.t.t.t.t.t.",
"t.t.t.t.t.t.t.t.t.t.t.t.t.t.t.t.t.t.t.t.t.t.t.t.t.t.t.t.t.t.t.t."
};
