/* XPM */
static char *chart6_xpm[] = {
/* columns rows colors chars-per-pixel */
"32 32 96 2 ",
"   c #A69B64",
".  c #A89E6C",
"X  c #A89F6D",
"o  c #AAA173",
"O  c #ABA379",
"+  c #B0A776",
"@  c #B1A97E",
"#  c #B0AA89",
"$  c #B0AA8A",
"%  c #B0AA8B",
"&  c #B0AB8B",
"*  c #B4AE8D",
"=  c #B7B088",
"-  c #B2AD90",
";  c #B4AF97",
":  c #B6B090",
">  c #B6B092",
",  c #B8B291",
"<  c #B5B29E",
"1  c #B9B499",
"2  c #B6B2A0",
"3  c #B6B3A0",
"4  c #BFBAA3",
"5  c #BAB7A8",
"6  c #BEBAAA",
"7  c #BCBAAE",
"8  c #BEBBAF",
"9  c #BBB9B0",
"0  c #BBB9B1",
"q  c #BBBAB2",
"w  c #BBBAB3",
"e  c #BCBBB2",
"r  c #BFBDB1",
"t  c #BFBEB7",
"y  c #BFBEB8",
"u  c gray",
"i  c #C3BFAA",
"p  c #C4BFA8",
"a  c #C0BDB1",
"s  c #C1BEB2",
"d  c #C2BFB4",
"f  c #C6C3B4",
"g  c #C5C3BA",
"h  c #C9C7BD",
"j  c #CCC9BC",
"k  c #CDCBBF",
"l  c #CAC9C3",
"z  c #CDCBC4",
"x  c #CDCCC4",
"c  c #CECCC7",
"v  c #C6C6C8",
"b  c #C7C7C9",
"n  c #C9C9CB",
"m  c #CACACB",
"M  c #CCCBC8",
"N  c #CECDCB",
"B  c #CBCBCD",
"V  c #CCCCCE",
"C  c #CFCECE",
"Z  c #CECECF",
"A  c #D0CFCD",
"S  c #D1D0CE",
"D  c #D1D1CF",
"F  c #CECED0",
"G  c #D0D0D1",
"H  c #D0D0D2",
"J  c #D2D2D3",
"K  c #D3D3D5",
"L  c #D4D4D6",
"P  c #D6D6D8",
"I  c #D7D7D8",
"U  c #D7D7D9",
"Y  c #D8D8DA",
"T  c #D9D9DB",
"R  c #DADADB",
"E  c #DADADC",
"W  c #DBDBDC",
"Q  c #DBDBDD",
"!  c #DDDDDF",
"~  c #DEDEDF",
"^  c #E2E2E3",
"/  c #E3E3E5",
"(  c #E3E3E6",
")  c #E4E4E6",
"_  c #E6E6E7",
"`  c #E7E7E9",
"'  c #E9E9EA",
"]  c #EBEBEC",
"[  c #EDEDEE",
"{  c #F0F0F1",
"}  c #F5F5F3",
"|  c #F3F3F4",
" . c #F7F7F6",
".. c #FDFDFD",
"X. c gray100",
"o. c None",
/* pixels */
"o.o.o.o.o.o.o.o.o.o.o.o.o.o.o.o.o.o.o.o.o.o.o.o.o.o.o.o.o.o.o.o.",
"o.o.o.o.o.o.o.o.o.o.o.o.o.o.o.o.o.o.o.o.o.o.o.o.o.o.o.o.o.o.o.o.",
"o.o.o.o.o.o.o.o.o.o.o.o.o.o.o.o.o.o.o.o.o.o.o.o.o.o.o.o.o.o.o.o.",
"o.' ) / / / / / / Y ) / / / / ) Y ) / / / / ) Y ) / / / / ) [ o.",
"o./ X.X.X.X.X.X.X.R X.X.X.X.X.X.R X.X.X.X.X.X.R X.X.X.X.X.X./ o.",
"o./ X.X.X.X.X.X.X.Y X.X.X.X.X.X.R X.X.X.X.X.X.R X.X.X.X.X.X./ o.",
"o./ X.X.X.X.X.X.X.R X.X.X.X.X.X.R X.X.X.X.X.X.R X.X.X.X.X.X./ o.",
"o.^ W R R R R R R F R R R R R R Z R R R R R R Z R R R R R Q ) o.",
"o./ X.X.X.X.X.X.X.R X.X.X.X.X.X.X.X.X.X.X.X.X.R X.X.X.X.X.X./ o.",
"o./ X.X.X.X.X.X.X.R X.X.X.X.X.X.X.X.X.X.X.X.X.R X.X.X.X.X.X./ o.",
"o./ X.X.X.X.X.X.X.Y X.X.X.X.X.X.X.X.X.X.X.X.X.R X.X.X.X.X.X./ o.",
"o.^ W R Y R R R R F X.X.X.X.X.X.X.X.X.X.X.X.X.F R R R R R W ) o.",
"o./ X.X.X.X.X.X.X.R X.X.X.X.X.X.X.X.X.X.X.X.X.R X.X.X.X.X.X./ o.",
"o./ X.X.X.X.X.X.X.R X.X.X.X.X.X.X.X.X.X.X.X.X.R X.X.X.X.X.X./ o.",
"o./ X.X.X.X.X.X.X.R X.X.X.X.X.X.X.X.X.X.X.X.X.R X.X.X.X.X.X./ o.",
"o.^ W R R R R R R F R R R R R R F R R R R R R F R R R R R Q ) o.",
"o./ X.X.X.X.X.X.X.R X.X.X.X.X.X.R X.X.X.X.X.X.R X.X.X.X.X.X./ o.",
"o./ X.X.X.X.X.X.X.R X.X.X.X.X.X.R X.X.X.X.X.X.R X.X.X.X.X.X./ o.",
"o./ X.X.X.X.X.X.X.Q X.X.X.X.X.X.Q X.X.X.X.X.X.Q X.X.X.X.X.X./ o.",
"o.` v v v v v v b n v v v v v v n v v v v v v n v v v v v v ` o.",
"o.' Z n V V V u u u u u 9 n B Z Z V Z n g - u u 5 n n Z Z Z ' o.",
"o.] H H H H H u u u u u . u Z H H H H F ; & u u & 9 K H F H ] o.",
"o.[ P K K K P u u M K M u # r K L L L i u u M l u u K K K K [ o.",
"o.{ Y R Y Y Y u u A Y R 4 q u Y Y Y Y , 2 q u u 6 S Y Y R R { o.",
"o.| K P K K K u u M P K f u u K L K K * O u u u 2 r K K P K { o.",
"o.] Y Y Y Y R u u H R Y i u u > u u u > o u A h u u P Y Y Y [ o.",
"o.[ P K P K K u u M K P @ q u s u u u 1 # r P A u u Z K K K [ o.",
"o.{ Y Y Y Y Y u u z k = u # s R Y Y Y M u u x + u u P R R R { o.",
"o.| R R Y R Y u u u u u X u Y R W Y W Y u   u u < r R R R Y | o.",
"o.X.X.X.X.X.X.u u u u u t } X.X.X.X.X.X.} y u u h X.X.X.X.X.X.o.",
"o.o.o.o.o.o.o.o.o.o.o.o.o.o.o.o.o.o.o.o.o.o.o.o.o.o.o.o.o.o.o.o.",
"o.o.o.o.o.o.o.o.o.o.o.o.o.o.o.o.o.o.o.o.o.o.o.o.o.o.o.o.o.o.o.o."
};
