/* XPM */
static char *chart3_xpm[] = {
/* columns rows colors chars-per-pixel */
"24 24 123 2 ",
"   c #A89E6C",
".  c #A89F6D",
"X  c #ADA371",
"o  c #B1A87B",
"O  c #B1A97E",
"+  c #AEA884",
"@  c #AFA986",
"#  c #AFA987",
"$  c #B7AF87",
"%  c #B0AA89",
"&  c #B0AA8A",
"*  c #BCB48A",
"=  c #B5AF90",
"-  c #B6B090",
";  c #B7B29C",
":  c #B9B59D",
">  c #B8B5A7",
",  c #BCB8A3",
"<  c #B8B6A8",
"1  c #B9B7AC",
"2  c #BCBAAE",
"3  c #BCBAAF",
"4  c #BBB9B2",
"5  c #BBBAB2",
"6  c #BBBAB3",
"7  c #BCBAB1",
"8  c #BDBBB2",
"9  c #BCBBB7",
"0  c #BEBCB5",
"q  c #BEBEBD",
"w  c gray",
"e  c #C3BEA7",
"r  c #C0BCA9",
"t  c #C0BDAC",
"y  c #C1BEAE",
"u  c #C0BEB1",
"i  c #C0BEB2",
"p  c #C1BFB3",
"a  c #C5C2B3",
"s  c #C2C0B4",
"d  c #C2C0B5",
"f  c #C3C1B6",
"g  c #C7C4B6",
"h  c #C3C1BB",
"j  c #C7C5B9",
"k  c #C6C4BC",
"l  c #C8C6BB",
"z  c #CBC9BE",
"x  c #CCC9BF",
"c  c #D8D2B7",
"v  c #C7C6C5",
"b  c #CCCAC2",
"n  c #CBCAC7",
"m  c #CECCC5",
"M  c #C9C9C9",
"N  c #CCCCCA",
"B  c #CBCBCD",
"V  c #CFCECC",
"C  c #CFCECD",
"Z  c #CCCCCE",
"A  c #D0CEC9",
"S  c #D0CFCD",
"D  c #D5D4CF",
"F  c #D1D1D3",
"G  c #D2D1D2",
"H  c #D2D2D3",
"J  c #D2D2D4",
"K  c #D4D4D5",
"L  c #D5D5D7",
"P  c #D6D6D7",
"I  c #D5D5D8",
"U  c #D6D6D8",
"Y  c #D7D7D9",
"T  c #DADADB",
"R  c #DADADC",
"E  c #DCDCDD",
"W  c #DDDDDE",
"Q  c #DDDDDF",
"!  c #DFDFDF",
"~  c #DEDEE0",
"^  c #DFDFE0",
"/  c #DFDFE1",
"(  c #E0E0E1",
")  c #E0E0E2",
"_  c #E1E1E2",
"`  c #E2E2E4",
"'  c #E3E3E4",
"]  c #E3E3E5",
"[  c #E4E4E5",
"{  c #E5E5E6",
"}  c #E5E5E7",
"|  c #E6E6E7",
" . c #E6E6E8",
".. c #E7E7E8",
"X. c #E7E7E9",
"o. c #E8E8E9",
"O. c #E9E9E9",
"+. c #E9E9EB",
"@. c #EAEAEB",
"#. c #EBEBEC",
"$. c #ECECEC",
"%. c #ECECED",
"&. c #EDEDEE",
"*. c #EFEFF0",
"=. c #F0F0F1",
"-. c #F1F1F1",
";. c #F1F1F2",
":. c #F2F2F2",
">. c #F3F3F2",
",. c #F4F4F4",
"<. c #F7F7F7",
"1. c #F7F7F8",
"2. c #F8F8F8",
"3. c #F8F8F9",
"4. c #F9F9F9",
"5. c #FBFBFA",
"6. c #FBFBFB",
"7. c #FBFBFC",
"8. c #FCFCFC",
"9. c #FDFDFD",
"0. c #FEFEFE",
"q. c #FFFFFF",
"w. c None",
/* pixels */
"w.w.w.w.w.w.w.w.w.w.w.w.w.w.w.w.w.w.w.w.w.w.w.w.",
"w.w.w.w.w.w.w.w.w.w.w.w.w.w.w.w.w.w.w.w.w.w.w.w.",
"w.o. . . . .` _ o. . .} !  . . .} ! } o. . .o.w.",
"w.=.8.8.8.8.=.o.8.8.8.7.} 8.8.8.8.} 7.8.8.8.=.w.",
"w.=.8.8.8.8.<.#.8.8.8.8.} 8.8.8.8.o.8.8.8.8.=.w.",
"w.} o.o.o.o._ ! o.o.o.} ! } o.o...R } } o...o.w.",
"w.=.7.8.8.8.=.o.8.8.8.8.8.8.8.8.8.} 7.8.8.8.=.w.",
"w.=.8.8.8.8.<.%.8.8.8.8.8.8.8.8.8.} 7.8.8.8.=.w.",
"w.}  .o. .} _ o.8.8.8.8.8.8.8.8.8._ } } } }  .w.",
"w.*.8.8.7.7.=.$.8.8.8.8.8.8.8.8.8.} 7.7.7.8.=.w.",
"w.=.8.8.8.8.<.#.8.8.8.8.8.8.8.8.8.o.8.8.8.8.=.w.",
"w.} o.o.o.o._ ~ o.o.o.o._ o.o.o.o.R } o.o...o.w.",
"w.=.8.q q q q w 8 >.7.<.} 8.8.8.* q q w 3 7.=.w.",
"w.=.8.q q q w w   q <.8.o.8.8.c q 1 w w @ f =.w.",
"w.~ Y q q S J n q % u P J P Y t < 6 A o 0 q ~ w.",
"w.R Z q q v Z Z : 6 q Z Z Z Z M h - q q q 2 E w.",
"w.~ F q q C F F g q w F F F F F F k q q < 6 _ w.",
"w.} Y q q Z Y Y t p w - w w q t g P P j q q _ w.",
"w.` P q q Z Y Y + 6 q p w w w ; q p Y b q q ~ w.",
"w._ Y q p b z $ w % u P Y Y Y , + q m X q q _ w.",
"w.` Y q w w w w   q P Y P P P J q % q q 6 d ` w.",
"w.*.` q w w w w 0 ! ` } } } ` } D w q q j ` %.w.",
"w.w.w.3.3.3.3.9.w.w.w.w.w.w.w.w.w.8.7.8.w.w.w.w.",
"w.w.w.w.w.w.w.w.w.w.w.w.w.w.w.w.w.w.w.w.w.w.w.w."
};
