/* XPM */
static char *chart1_xpm[] = {
/* columns rows colors chars-per-pixel */
"24 24 111 2 ",
"   c #9D8F43",
".  c #AC9E54",
"X  c #A49859",
"o  c #A59A5F",
"O  c #A69B60",
"+  c #AFA368",
"@  c #A9A070",
"#  c #AAA171",
"$  c #ADA57D",
"%  c #ADA67F",
"&  c #B1A772",
"*  c #ADA680",
"=  c #ADA681",
"-  c #AFA987",
";  c #B4AD83",
":  c #B7AF85",
">  c #B1AB8C",
",  c #B4AD8D",
"<  c #B6AF8F",
"1  c #B4AF98",
"2  c #BDB89F",
"3  c #B6B3A1",
"4  c #B7B4A3",
"5  c #B8B6A9",
"6  c #B9B6AA",
"7  c #B9B7AB",
"8  c #BCB9AD",
"9  c #BBBAB1",
"0  c #BCBAB2",
"q  c #BCBBB2",
"w  c #BDBBB2",
"e  c #BEBCB3",
"r  c #BCBBB4",
"t  c #BCBBB5",
"y  c #BDBBB5",
"u  c #BCBCB8",
"i  c gray",
"p  c #C0BEB2",
"a  c #C1BFB4",
"s  c #C0BFB6",
"d  c #C1BFB6",
"f  c #C5C0A7",
"g  c #C8C5B6",
"h  c #C3C2BB",
"j  c #C9C7BC",
"k  c #CBC9BE",
"l  c #CDCABE",
"z  c #DFDABC",
"x  c #C8C7C6",
"c  c #C9C8C1",
"v  c #CCCAC0",
"b  c #CCCAC1",
"n  c #CBCBCD",
"m  c #CCCCCE",
"M  c #CFCECE",
"N  c #D7D5CA",
"B  c #D1D1D3",
"V  c #D2D2D3",
"C  c #D2D2D4",
"Z  c #D3D3D4",
"A  c #D4D3D5",
"S  c #D5D5D7",
"D  c #D6D6D7",
"F  c #D5D5D8",
"G  c #D6D6D8",
"H  c #D7D7D9",
"J  c #DADADB",
"K  c #DADADC",
"L  c #DCDCDD",
"P  c #DDDDDE",
"I  c #DDDDDF",
"U  c #DEDEE0",
"Y  c #DFDFE1",
"T  c #E0E0E1",
"R  c #E1E1E2",
"E  c #E2E2E4",
"W  c #E3E3E4",
"Q  c #E3E3E5",
"!  c #E4E4E5",
"~  c #E5E5E6",
"^  c #E5E5E7",
"/  c #E6E6E7",
"(  c #E6E6E8",
")  c #E7E7E8",
"_  c #E7E7E9",
"`  c #E8E8E9",
"'  c #E9E9E9",
"]  c #E9E9EB",
"[  c #EAEAEB",
"{  c #EBEBEC",
"}  c #ECECEC",
"|  c #ECECED",
" . c #EDEDEE",
".. c #EFEFF0",
"X. c #F0F0F1",
"o. c #F1F1F1",
"O. c #F1F1F2",
"+. c #F2F2F2",
"@. c #F4F4F4",
"#. c #F7F7F7",
"$. c #F7F7F8",
"%. c #F8F8F8",
"&. c #F8F8F9",
"*. c #F9F9F9",
"=. c #FAFAFA",
"-. c #FBFBFB",
";. c #FBFBFC",
":. c #FCFCFC",
">. c #FEFEFE",
",. c #FFFFFF",
"<. c None",
/* pixels */
"<.<.<.<.<.<.<.<.<.<.<.<.<.<.<.<.<.<.<.<.<.<.<.<.",
"<.<.<.<.<.<.<.<.<.<.<.<.<.<.<.<.<.<.<.<.<.<.<.<.",
"<.` ( ( ^ ( E E ` ( ( ^ I ( ( ( ^ I ( ` ( ( ` <.",
"<.X.:.:.;.;.X.} :.:.:.;.^ :.:.:.;.^ ;.:.:.:.X.<.",
"<.X.:.:.:.:.#.` :.:.:.:.^ :.:.:.:.` :.:.:.:.X.<.",
"<.^ ` ` ` ` E I ` ` ` ^ I ) ` ` ` H ^ ) ` ) ` <.",
"<.X.;.:.:.:.X.` :.:.:.:.:.:.:.;.:.^ ;.:.:.:.X.<.",
"<.X.:.:.:.:.#.| :.:.:.:.:.:.:.:.:.^ ;.:.:.:.X.<.",
"<.^ ` ` ^ ^ E ` :.:.:.:.:.:.:.:.:.E ^ ^ ( ) ^ <.",
"<...;.:.;.;.o.| :.:.:.:.:.:.:.:.:.( %.;.;.;.X.<.",
"<.X.:.:.:.:.X.| :.:.:.:.:.:.:.:.:.` :.:.:.:.X.<.",
"<.^ ) ) ` ` E I ` ` ` ` E ` ` ` ` H ^ ( ` ` ` <.",
"<.X.;.O i i i i i N ;.#.^ :.:.;.;.! . i h :...<.",
"<.X.:.O $ i i i 7 i l ;.` :.:.:.z & $ 1 a :.X.<.",
"<.U H o $ e Z m > i i D V D H H ; u @   w D U <.",
"<.K n o $ w m m 2 i 7 h m m m m x 8 - > 9 n K <.",
"<.U V o $ r C C g 3 $ a C C V C C C X > 9 V U <.",
"<.^ D o $ r H H f 3 * < i i i i H H X > 9 H E <.",
"<.E D o $ r H H + i 7 c i i i i D D X > 9 D E <.",
"<.E D o $ r k ; @ i i D H H H H H H X > w H E <.",
"<.E D o $ i i i 7 i p D H D H H H H X > w H E <.",
"<.| E k i i i i i v ^ E E ^ E ^ E ! k i e E | <.",
"<.<.<.:.#.$.$.$.<.<.<.<.<.<.<.<.<.<.:.;.;.<.<.<.",
"<.<.<.<.<.<.<.<.<.<.<.<.<.<.<.<.<.<.<.<.<.<.<.<."
};
