/* XPM */
static char *chart20_xpm[] = {
/* columns rows colors chars-per-pixel */
"32 32 141 2 ",
"   c #9F9146",
".  c #A09144",
"X  c #A5974E",
"o  c #A79B58",
"O  c #A4985A",
"+  c #A4995C",
"@  c #A59A5F",
"#  c #A59A62",
"$  c #A59B62",
"%  c #A69B64",
"&  c #A79D65",
"*  c #A89E6B",
"=  c #A89F6C",
"-  c #AEA368",
";  c #B0A56A",
":  c #AAA171",
">  c #AAA275",
",  c #ABA375",
"<  c #ABA276",
"1  c #ABA377",
"2  c #ACA479",
"3  c #ACA57D",
"4  c #ADA57D",
"5  c #ADA67F",
"6  c #ADA680",
"7  c #B3AB83",
"8  c #B1AB8D",
"9  c #B1AB8E",
"0  c #B3AD8D",
"q  c #B9B083",
"w  c #B8B086",
"e  c #B6B08F",
"r  c #BBB48D",
"t  c #B2AC90",
"y  c #B2AD93",
"u  c #B3AE95",
"i  c #B3AF96",
"p  c #BEB690",
"a  c #BBB597",
"s  c #BDB795",
"d  c #B5B19C",
"f  c #B8B49E",
"g  c #B6B3A0",
"h  c #B6B3A1",
"j  c #B6B3A2",
"k  c #B7B4A3",
"l  c #B9B5A2",
"z  c #B8B5A5",
"x  c #BFBAA4",
"c  c #B8B6A9",
"v  c #B9B6AA",
"b  c #B9B7AB",
"n  c #BCB9AB",
"m  c #BEBBAF",
"M  c #BFBCAE",
"N  c #BEBCAF",
"B  c #BEBCB0",
"V  c #BFBCB0",
"C  c #BFBDB1",
"Z  c #BCBBB4",
"A  c #BCBBB5",
"S  c #BDBBB5",
"D  c #BDBCB9",
"F  c #BDBDBA",
"G  c #BDBDBB",
"H  c #BEBEBA",
"J  c gray",
"K  c #C1BB9D",
"L  c #C1BCA2",
"P  c #C3BEA4",
"I  c #C3BEA9",
"U  c #C1BFB3",
"Y  c #C0BEB4",
"T  c #C5C0A5",
"R  c #C6C1A8",
"E  c #C6C1A9",
"W  c #C2C0B4",
"Q  c #C2C0B5",
"!  c #C2C0B8",
"~  c #C6C4B8",
"^  c #C7C6BE",
"/  c #CAC7B8",
"(  c #C9C7BD",
")  c #CBC9BC",
"_  c #CDCBBF",
"`  c #C8C7C0",
"'  c #C9C7C3",
"]  c #CBC9C3",
"[  c #CAC9C4",
"{  c #C8C8C7",
"}  c #C6C6C8",
"|  c #C7C7C9",
" . c #C9C9CB",
".. c #CDCCC9",
"X. c #CECDC9",
"o. c #CFCECB",
"O. c #CCCCCE",
"+. c #D0CFCF",
"@. c #D5D2C7",
"#. c #D2D1CA",
"$. c #D0D0CF",
"%. c #D4D3CF",
"&. c #D9D7CC",
"*. c #DBD9CF",
"=. c #CECED0",
"-. c #CFCFD1",
";. c #D0D0D0",
":. c #D2D1D0",
">. c #D3D2D1",
",. c #D0D0D2",
"<. c #D3D2D2",
"1. c #D2D2D3",
"2. c #D3D3D3",
"3. c #D5D4D5",
"4. c #D4D4D6",
"5. c #D5D5D7",
"6. c #D7D7D8",
"7. c #D7D7D9",
"8. c #D8D8DA",
"9. c #D9D9DB",
"0. c #DADADB",
"q. c #DADADC",
"w. c #DBDBDC",
"e. c #DBDBDD",
"r. c #DDDDDF",
"t. c #DEDEDF",
"y. c #E2E2E3",
"u. c #E3E3E5",
"i. c #E3E3E6",
"p. c #E4E4E6",
"a. c #E6E6E7",
"s. c #E7E7E9",
"d. c #E9E9EA",
"f. c #EBEBEC",
"g. c #EDEDEE",
"h. c #F0F0F1",
"j. c #F3F3F4",
"k. c #F6F6F5",
"l. c #F7F6F6",
"z. c gray100",
"x. c None",
/* pixels */
"x.x.x.x.x.x.x.x.x.x.x.x.x.x.x.x.x.x.x.x.x.x.x.x.x.x.x.x.x.x.x.x.",
"x.x.x.x.x.x.x.x.x.x.x.x.x.x.x.x.x.x.x.x.x.x.x.x.x.x.x.x.x.x.x.x.",
"x.x.x.x.x.x.x.x.x.x.x.x.x.x.x.x.x.x.x.x.x.x.x.x.x.x.x.x.x.x.x.x.",
"x.d.p.u.u.u.u.u.u.8.p.u.u.u.u.p.8.p.u.u.u.u.p.8.p.u.u.u.u.p.g.x.",
"x.u.z.z.z.z.z.z.z.0.z.z.z.z.z.z.0.z.z.z.z.z.z.0.z.z.z.z.z.z.u.x.",
"x.u.z.z.z.z.z.z.z.8.z.z.z.z.z.z.0.z.z.z.z.z.z.0.z.z.z.z.z.z.u.x.",
"x.u.z.z.z.z.z.z.z.0.z.z.z.z.z.z.0.z.z.z.z.z.z.0.z.z.z.z.z.z.u.x.",
"x.y.w.0.0.0.0.0.0.=.0.0.0.0.0.0.O.0.0.0.0.0.0.=.0.0.0.0.0.e.p.x.",
"x.u.z.z.z.z.z.z.z.0.z.z.z.z.z.z.z.z.z.z.z.z.z.0.z.z.z.z.z.z.u.x.",
"x.u.z.z.z.z.z.z.z.0.z.z.z.z.z.z.z.z.z.z.z.z.z.0.z.z.z.z.z.z.u.x.",
"x.u.z.z.z.z.z.z.z.8.z.z.z.z.z.z.z.z.z.z.z.z.z.0.z.z.z.z.z.z.u.x.",
"x.y.w.0.8.0.0.0.0.=.z.z.z.z.z.z.z.z.z.z.z.z.z.=.0.0.0.0.0.w.p.x.",
"x.u.z.z.z.z.z.z.z.0.z.z.z.z.z.z.z.z.z.z.z.z.z.0.z.z.z.z.z.z.u.x.",
"x.u.z.z.z.z.z.z.z.0.z.z.z.z.z.z.z.z.z.z.z.z.z.0.z.z.z.z.z.z.u.x.",
"x.u.z.z.z.z.z.z.z.0.z.z.z.z.z.z.z.z.z.z.z.z.z.0.z.z.z.z.z.z.u.x.",
"x.y.w.0.0.0.0.0.0.=.0.0.0.0.0.0.=.0.0.0.0.0.0.=.0.0.0.0.0.e.p.x.",
"x.u.z.z.z.z.z.z.z.0.z.z.z.z.z.z.0.z.z.z.z.z.z.0.z.z.z.z.z.z.u.x.",
"x.u.z.z.z.z.z.z.z.0.z.z.z.z.z.z.0.z.z.z.z.z.z.0.z.z.z.z.z.z.u.x.",
"x.u.z.z.z.z.z.z.z.e.z.z.z.z.z.z.e.z.z.z.z.z.z.w.z.z.z.z.z.z.u.x.",
"x.s.} } } } } }  . .} } } } } }  .} } } } } }  .} } } } } } s.x.",
"x.d.O.+ J J J J J Y O.O. . .=. .a : J J J ! O.x & J J F { O.d.x.",
"x.f.:.$ 3 J J J c J m :.4.=.4.^ + J J J i J '   J J J = J =.g.x.",
"x.h.4.$ 3 Z 4.=.0 J J 4.4.4.3.r J j Q :.d % l l , m L J J [ g.x.",
"x.h.8.+ 3 Z 8.8.E J b ` 8.8.0.:.J J :.T , = d J J o.#.9 , Q h.x.",
"x.j.4.@ 3 Z 4.4./ j 6 Q 3.4.4.4.:.+.s O J J 7 J J O.:., % m j.x.",
"x.f.8.@ 3 Z 8.8.E k 6 e J J J J #.o F F J C q J J 3.#., $ C f.x.",
"x.g.3.@ 3 A 4.4.- J b ` J J J J   J y J ^ 4.K J J o.L 0 3 Y g.x.",
"x.h.0.$ 3 m ] w : J J 3.8.8.8.p k 8 n ) ) :.3.i 2 M X J J o.h.x.",
"x.j.0.$ 6 J J J c J U 0.0.0.0.; J J J J J J C I J J J , J 0.j.x.",
"x.z.z.@.J J J J J &.z.z.z.z.z.l.J J J J J J ~ z.*.J J F l.z.z.x.",
"x.x.x.x.x.x.x.x.x.x.x.x.x.x.x.x.x.x.x.x.x.x.x.x.x.x.x.x.x.x.x.x.",
"x.x.x.x.x.x.x.x.x.x.x.x.x.x.x.x.x.x.x.x.x.x.x.x.x.x.x.x.x.x.x.x."
};
