/* XPM */
static char *chart10_xpm[] = {
/* columns rows colors chars-per-pixel */
"24 24 122 2 ",
"   c #AAA274",
".  c #AEA782",
"X  c #AFA886",
"o  c #AFA987",
"O  c #B0A980",
"+  c #B3AB83",
"@  c #B2AC88",
"#  c #B1AB8C",
"$  c #B1AB8D",
"%  c #B3AE8F",
"&  c #B5AF8E",
"*  c #B6B08F",
"=  c #BFB88F",
"-  c #B2AD91",
";  c #B3AE94",
":  c #B5B091",
">  c #B5B095",
",  c #B8B396",
"<  c #BBB697",
"1  c #B6B29F",
"2  c #BEB899",
"3  c #B6B2A0",
"4  c #B6B3A1",
"5  c #B7B4A4",
"6  c #B9B7AB",
"7  c #B9B7AD",
"8  c #BAB8AB",
"9  c #BBB9AE",
"0  c #BDBBAF",
"q  c #BBB9B1",
"w  c #BBB9B2",
"e  c #BEBBB0",
"r  c #BEBCB0",
"t  c #BEBCB3",
"y  c #BBBAB4",
"u  c #BCBCB8",
"i  c #BDBCB8",
"p  c #BEBDB9",
"a  c gray",
"s  c #C1BDAB",
"d  c #C0BEB2",
"f  c #C1BFB3",
"g  c #C2BFB3",
"h  c #C0BFB5",
"j  c #C2BFB4",
"k  c #D2CBA8",
"l  c #C2C0B3",
"z  c #C7C3B0",
"x  c #C2C0B4",
"c  c #C6C3B4",
"v  c #C5C2B6",
"b  c #C3C1B8",
"n  c #C5C3BA",
"m  c #C7C5B9",
"M  c #C6C4BB",
"N  c #C5C4BE",
"B  c #CBC9BF",
"V  c #C8C6C0",
"C  c #C9C7C0",
"Z  c #CECCC1",
"A  c #CACACC",
"S  c #CBCBCD",
"D  c #CBCBCE",
"F  c #D1CFC2",
"G  c #D1CFC4",
"H  c #D2D0C4",
"J  c #D3D1C6",
"K  c #D5D2C7",
"L  c #D1D0CB",
"P  c #D5D3C8",
"I  c #D4D3CD",
"U  c #D2D2D4",
"Y  c #D4D4D6",
"T  c #D5D5D6",
"R  c #D5D5D7",
"E  c #D6D6D7",
"W  c #D6D6D8",
"Q  c #D7D7D9",
"!  c #DADADB",
"~  c #DCDCDD",
"^  c #DDDDDE",
"/  c #DDDDDF",
"(  c #DEDEDE",
")  c #E0DDD2",
"_  c #DFDFE1",
"`  c #E0E0E1",
"'  c #E1E1E2",
"]  c #E2E2E4",
"[  c #E4E4E5",
"{  c #E6E6E5",
"}  c #E5E5E6",
"|  c #E5E5E7",
" . c #E6E6E6",
".. c #E6E6E7",
"X. c #E6E6E8",
"o. c #E7E7E8",
"O. c #E7E7E9",
"+. c #E8E8E9",
"@. c #E9E9E9",
"#. c #E9E9EB",
"$. c #EAEAEB",
"%. c #EBEBEC",
"&. c #ECECEC",
"*. c #ECECED",
"=. c #EFEFF0",
"-. c #F0F0F1",
";. c #F1F1F1",
":. c #F1F1F2",
">. c #F2F2F2",
",. c #F4F4F4",
"<. c #F7F7F7",
"1. c #F7F7F8",
"2. c #F8F8F8",
"3. c #F8F8F9",
"4. c #F9F9F9",
"5. c #FBFBFB",
"6. c #FBFBFC",
"7. c #FCFCFC",
"8. c #FDFDFD",
"9. c #FEFEFE",
"0. c #FFFFFF",
"q. c None",
/* pixels */
"q.q.q.q.q.q.q.q.q.q.q.q.q.q.q.q.q.q.q.q.q.q.q.q.",
"q.q.q.q.q.q.q.q.q.q.q.q.q.q.q.q.q.q.q.q.q.q.q.q.",
"q.+.X.X.X.X.] ' +.X.X.| ( X.X.X.| ( X.+.X.X.+.q.",
"q.-.7.7.7.7.-.+.7.7.7.6.| 7.7.7.6.| 6.7.7.7.-.q.",
"q.-.7.7.7.7.<.&.7.7.7.7.X.7.7.7.7.+.7.7.7.7.-.q.",
"q.| +.+.+.+.' ( +.+.+.| ( | +.+.+.Q | o.+.o.+.q.",
"q.-.6.7.7.7.-.+.7.7.7.7.7.7.7.7.7.| 6.7.7.7.-.q.",
"q.-.7.7.7.7.<.*.7.7.7.7.7.7.7.7.7.| 6.7.7.7.-.q.",
"q.| +.+.o.| ' +.7.7.7.7.7.7.7.7.7.' | | | | | q.",
"q.=.6.7.7.7.-.&.7.7.7.7.7.7.7.7.7.| 6.6.7.7.-.q.",
"q.-.7.7.7.7.,.*.7.7.7.7.7.7.7.7.7.+.7.7.7.7.-.q.",
"q.| o.o.+.+.' ( +.+.+.+.' +.+.+.o.Q | | +.o.+.q.",
"q.=.6.6.6.6.-.+.7.7.6.<.| 7.7.7.7.| 6.6.6.6.-.q.",
"q.) a a a a i | 7.7.7.6.+.k a F 7.X.= a a g =.q.",
"q.G a a a a o a Q Q E E O 5 . g Q v a a a # l q.",
"q.Z a a S S y q h D S D a 8   0 S @ 4 8 N a a q.",
"q.H a a U U , ; 0 U U U B & o g U % # b U a a q.",
"q.P a a Q Q < p 8 a a a Q & o l Q > 4 C Q a a q.",
"q.P a a E E O ; y a a a E & o h E : # n L a a q.",
"q.H a a Q z y y n E Q E Q & o l Q s 6 0 2 a a q.",
"q.K a a a a X a E E Q E Q * o l E E a a a 4 v q.",
"q.| a a a a p ( | | ] | | B a m ] | I a a t *.q.",
"q.q.<.<.<.6.q.q.q.q.q.q.q.7.<.7.q.q.q.7.6.q.q.q.",
"q.q.q.q.q.q.q.q.q.q.q.q.q.q.q.q.q.q.q.q.q.q.q.q."
};
