/* XPM */
static char *chart2_xpm[] = {
/* columns rows colors chars-per-pixel */
"32 32 99 2 ",
"   c #A89E6C",
".  c #A89F6D",
"X  c #A89F6E",
"o  c #AAA275",
"O  c #AEA679",
"+  c #ACA47A",
"@  c #ACA47B",
"#  c #B1A97E",
"$  c #AFA985",
"%  c #B0A988",
"&  c #B0AA89",
"*  c #B0AA8A",
"=  c #B3AC89",
"-  c #B7B088",
";  c #B6B090",
":  c #B9B393",
">  c #BCB694",
",  c #BAB59A",
"<  c #BDB798",
"1  c #BFBAA3",
"2  c #BAB7A9",
"3  c #B9B6AA",
"4  c #BDBBAF",
"5  c #BBB9B0",
"6  c #BBBAB2",
"7  c #BBBAB3",
"8  c #BCBAB2",
"9  c #BDBBB3",
"0  c #BFBDB1",
"q  c #BBBAB4",
"w  c #BCBBB7",
"e  c #BFBEB7",
"r  c gray",
"t  c #C4BFA8",
"y  c #C1BEB2",
"u  c #C2BFB4",
"i  c #C5C0A7",
"p  c #C3C0B5",
"a  c #C4C1B5",
"s  c #C6C3B4",
"d  c #C7C3B5",
"f  c #C5C3B7",
"g  c #C6C4BA",
"h  c #C9C7BD",
"j  c #CBC9BC",
"k  c #CDCBBF",
"l  c #CAC8C2",
"z  c #CDCBC4",
"x  c #C6C6C8",
"c  c #C7C7C9",
"v  c #C9C9CB",
"b  c #CACACB",
"n  c #CCCBC8",
"m  c #CECDCB",
"M  c #CBCBCC",
"N  c #CCCCCE",
"B  c #CECECF",
"V  c #D2D0CA",
"C  c #D1D0CE",
"Z  c #D1D0CF",
"A  c #CECED0",
"S  c #D0D0D0",
"D  c #D1D1D1",
"F  c #D3D2D1",
"G  c #D0D0D2",
"H  c #D1D1D2",
"J  c #D1D1D3",
"K  c #D2D1D3",
"L  c #D2D2D3",
"P  c #D3D3D5",
"I  c #D4D4D6",
"U  c #D5D5D6",
"Y  c #D6D6D7",
"T  c #D6D6D8",
"R  c #D7D7D8",
"E  c #D7D7D9",
"W  c #D8D8DA",
"Q  c #D9D9DB",
"!  c #DADADB",
"~  c #DADADC",
"^  c #DBDBDC",
"/  c #DBDBDD",
"(  c #DDDDDF",
")  c #DEDEDF",
"_  c #E2E2E3",
"`  c #E3E3E5",
"'  c #E3E3E6",
"]  c #E4E4E6",
"[  c #E6E6E7",
"{  c #E7E7E9",
"}  c #E9E9EA",
"|  c #EBEBEC",
" . c #EDEDEE",
".. c #F0F0F1",
"X. c #F3F3F4",
"o. c #F7F7F6",
"O. c #F7F7F7",
"+. c gray100",
"@. c None",
/* pixels */
"@.@.@.@.@.@.@.@.@.@.@.@.@.@.@.@.@.@.@.@.@.@.@.@.@.@.@.@.@.@.@.@.",
"@.@.@.@.@.@.@.@.@.@.@.@.@.@.@.@.@.@.@.@.@.@.@.@.@.@.@.@.@.@.@.@.",
"@.@.@.@.@.@.@.@.@.@.@.@.@.@.@.@.@.@.@.@.@.@.@.@.@.@.@.@.@.@.@.@.",
"@.} ] ` ` ` ` ` ` W ] ` ` ` ` ] W ] ` ` ` ` ] W ] ` ` ` ` ]  .@.",
"@.` +.+.+.+.+.+.+.! +.+.+.+.+.+.! +.+.+.+.+.+.! +.+.+.+.+.+.` @.",
"@.` +.+.+.+.+.+.+.W +.+.+.+.+.+.! +.+.+.+.+.+.! +.+.+.+.+.+.` @.",
"@.` +.+.+.+.+.+.+.! +.+.+.+.+.+.! +.+.+.+.+.+.! +.+.+.+.+.+.` @.",
"@._ ^ ! ! ! ! ! ! A ! ! ! ! ! ! B ! ! ! ! ! ! B ! ! ! ! ! / ] @.",
"@.` +.+.+.+.+.+.+.! +.+.+.+.+.+.+.+.+.+.+.+.+.! +.+.+.+.+.+.` @.",
"@.` +.+.+.+.+.+.+.! +.+.+.+.+.+.+.+.+.+.+.+.+.! +.+.+.+.+.+.` @.",
"@.` +.+.+.+.+.+.+.W +.+.+.+.+.+.+.+.+.+.+.+.+.! +.+.+.+.+.+.` @.",
"@._ ^ ! W ! ! ! ! A +.+.+.+.+.+.+.+.+.+.+.+.+.A ! ! ! ! ! ^ ] @.",
"@.` +.+.+.+.+.+.+.! +.+.+.+.+.+.+.+.+.+.+.+.+.! +.+.+.+.+.+.` @.",
"@.` +.+.+.+.+.+.+.! +.+.+.+.+.+.+.+.+.+.+.+.+.! +.+.+.+.+.+.` @.",
"@.` +.+.+.+.+.+.+.! +.+.+.+.+.+.+.+.+.+.+.+.+.! +.+.+.+.+.+.` @.",
"@._ ^ ! ! ! ! ! ! A ! ! ! ! ! ! A ! ! ! ! ! ! A ! ! ! ! ! / ] @.",
"@.` +.+.+.+.+.+.+.! +.+.+.+.+.+.! +.+.+.+.+.+.! +.+.+.+.+.+.` @.",
"@.` +.+.+.+.+.+.+.! +.+.+.+.+.+.! +.+.+.+.+.+.! +.+.+.+.+.+.` @.",
"@.` +.+.+.+.+.+.+./ +.+.+.+.+.+./ +.+.+.+.+.+.^ +.+.+.+.+.+.` @.",
"@.{ x x x x x x v v x x x x x x v x x x x x x v x x x x x x { @.",
"@.} B v B v B r r r r r 5 v N N B N N N , q r r 2 v v B B B } @.",
"@.| G G G G A r r r r r X r B G G G G h r X r r @ 9 G G A G | @.",
"@. .I I P I P r r m G m r & 0 P I I I : w r G l r r G I P P  .@.",
"@...W ! W W W r r C ! R 1 6 r W W W W a r 9 ! t r r P W ! ! ..@.",
"@.X.P I I P P r r m I I a r r P I I I P Z G < 2 * r P P I P X.@.",
"@.| W W ! W ^ r r Z ! R i r r ; r r r g V + r + r Z ! R ! W | @.",
"@. .I P I P P r r m I I # q r u r r r p $ w r 9 P I I P P P  .@.",
"@...! W W W W r r z k - r * y ! W W Q < r u d j j G ! ! ! ! ..@.",
"@.X.! ! ^ W W r r r r r   r W ! ^ W Q * o r r r r r I ! ! W X.@.",
"@.+.+.+.+.+.+.r r r r r w o.+.+.+.+.+.a r r r r r r O.+.+.+.+.@.",
"@.@.@.@.@.@.@.@.@.@.@.@.@.@.@.@.@.@.@.@.@.@.@.@.@.@.@.@.@.@.@.@.",
"@.@.@.@.@.@.@.@.@.@.@.@.@.@.@.@.@.@.@.@.@.@.@.@.@.@.@.@.@.@.@.@."
};
