/* XPM */
static char *chart4_xpm[] = {
/* columns rows colors chars-per-pixel */
"32 32 80 1 ",
"  c #A89E6C",
". c #A89F6D",
"X c #AEA77F",
"o c #B1A97E",
"O c #AFA883",
"+ c #B5AD84",
"@ c #B0AA89",
"# c #B0AA8A",
"$ c #B7B088",
"% c #B2AC90",
"& c #B6B090",
"* c #B7B190",
"= c #B4B09A",
"- c #B7B4A3",
"; c #BFBAA3",
": c #BBB9B0",
"> c #BBBAB2",
", c #BBBAB3",
"< c #BCBAB1",
"1 c #BCBAB2",
"2 c #BFBDB1",
"3 c #BBBAB4",
"4 c #BFBEB7",
"5 c gray",
"6 c #C4BFA8",
"7 c #C2BEAF",
"8 c #C1BEB2",
"9 c #C2BFB4",
"0 c #C6C3B4",
"q c #CDCABC",
"w c #CDCBBF",
"e c #CDCBC4",
"r c #CECCC4",
"t c #CFCEC6",
"y c #C6C6C8",
"u c #C7C7C9",
"i c #C9C9CB",
"p c #CACACB",
"a c #CCCBC8",
"s c #CECDCB",
"d c #CFCECA",
"f c #CBCBCD",
"g c #CCCCCE",
"h c #CECECF",
"j c #D1D0CE",
"k c #CECED0",
"l c #CFCFD0",
"z c #CFCFD1",
"x c #D0D0D2",
"c c #D2D2D3",
"v c #D3D3D4",
"b c #D3D3D5",
"n c #D5D4D5",
"m c #D4D4D6",
"M c #D6D6D8",
"N c #D7D7D8",
"B c #D7D7D9",
"V c #D8D8DA",
"C c #D9D9DB",
"Z c #DADADB",
"A c #DADADC",
"S c #DBDBDC",
"D c #DBDBDD",
"F c #DDDDDF",
"G c #DEDEDF",
"H c #E2E2E3",
"J c #E3E3E5",
"K c #E3E3E6",
"L c #E4E4E6",
"P c #E6E6E7",
"I c #E7E7E9",
"U c #E9E9EA",
"Y c #EBEBEC",
"T c #EDEDEE",
"R c #F0F0F1",
"E c #F3F3F4",
"W c #F7F7F6",
"Q c #F7F7F7",
"! c gray100",
"~ c None",
/* pixels */
"~~~~~~~~~~~~~~~~~~~~~~~~~~~~~~~~",
"~~~~~~~~~~~~~~~~~~~~~~~~~~~~~~~~",
"~~~~~~~~~~~~~~~~~~~~~~~~~~~~~~~~",
"~ULJJJJJJVLJJJJLVLJJJJLVLJJJJLT~",
"~J!!!!!!!Z!!!!!!Z!!!!!!Z!!!!!!J~",
"~J!!!!!!!V!!!!!!Z!!!!!!Z!!!!!!J~",
"~J!!!!!!!Z!!!!!!Z!!!!!!Z!!!!!!J~",
"~HSZZZZZZkZZZZZZhZZZZZZhZZZZZDL~",
"~J!!!!!!!Z!!!!!!!!!!!!!Z!!!!!!J~",
"~J!!!!!!!Z!!!!!!!!!!!!!Z!!!!!!J~",
"~J!!!!!!!V!!!!!!!!!!!!!Z!!!!!!J~",
"~HSZVZZZZk!!!!!!!!!!!!!kZZZZZSL~",
"~J!!!!!!!Z!!!!!!!!!!!!!Z!!!!!!J~",
"~J!!!!!!!Z!!!!!!!!!!!!!Z!!!!!!J~",
"~J!!!!!!!Z!!!!!!!!!!!!!Z!!!!!!J~",
"~HSZZZZZZkZZZZZZkZZZZZZkZZZZZDL~",
"~J!!!!!!!Z!!!!!!Z!!!!!!Z!!!!!!J~",
"~J!!!!!!!Z!!!!!!Z!!!!!!Z!!!!!!J~",
"~J!!!!!!!D!!!!!!D!!!!!!S!!!!!!J~",
"~IyyyyyyyiyyyyyyiyyyyyyiyyyyyyI~",
"~Uhihik55555>ihhhggggg755iihhhU~",
"~Yxxxxk55555 5hkxxxxxkO%5kbxkxY~",
"~Tmmbmb55dba5#2bmmmmm+555bbmbbT~",
"~RVZVVV55jVZ;35VVVVVq5555VVVZZR~",
"~EbbVbb55dbb055bmmmbX=<55bbvmbE~",
"~YVZVVV55jZV655&555*55r55VZBZVY~",
"~TmbVbb55hmmo>59555-355555ibbbT~",
"~RZVVVV55rq$5#8VVZZ<555555dZZZR~",
"~EZZVVS55555 5VZZVZmmmt55vZZZVE~",
"~!!!!!!555554W!!!!!!!!Q55!!!!!!~",
"~~~~~~~~~~~~~~~~~~~~~~~~~~~~~~~~",
"~~~~~~~~~~~~~~~~~~~~~~~~~~~~~~~~"
};
