/* XPM */
static char *close_xpm[] = {
/* columns rows colors chars-per-pixel */
"24 24 255 2 ",
"   c #C73235",
".  c #C43336",
"X  c #C73336",
"o  c #C03437",
"O  c #CB3135",
"+  c #CB3235",
"@  c #CB3236",
"#  c #CA3336",
"$  c #CD3034",
"%  c #CD3134",
"&  c #CE3135",
"*  c #CF3135",
"=  c #CC3235",
"-  c #CE3235",
";  c #CC3336",
":  c #CA3437",
">  c #CB3437",
",  c #C13438",
"<  c #C03539",
"1  c #C93539",
"2  c #CA3539",
"3  c #CB3639",
"4  c #CF3438",
"5  c #CD3639",
"6  c #CD3A3D",
"7  c #CE3A3E",
"8  c #D03135",
"9  c #D23135",
"0  c #D33135",
"q  c #D03236",
"w  c #D13236",
"e  c #D03337",
"r  c #D23236",
"t  c #D63034",
"y  c #D43235",
"u  c #D43236",
"i  c #D43337",
"p  c #D13437",
"a  c #DB373B",
"s  c #DE3438",
"d  c #DC363A",
"f  c #DD373B",
"g  c #DE363A",
"h  c #DB383C",
"j  c #DB393D",
"k  c #DA3B3F",
"l  c #EB3539",
"z  c #EC363A",
"x  c #ED363A",
"c  c #F2383D",
"v  c #F23A3E",
"b  c #F5393D",
"n  c #F5393E",
"m  c #FF383D",
"M  c #FF3A3F",
"N  c #D83E41",
"B  c #D93E41",
"V  c #E23F43",
"C  c #E73F43",
"Z  c #FF3B40",
"A  c #FF3C41",
"S  c #FF3D42",
"D  c #FF3E43",
"F  c #FD3F44",
"G  c #CC4044",
"H  c #D44C4F",
"J  c #DC4D50",
"K  c #DC4D51",
"L  c #D45053",
"P  c #D95054",
"I  c #D7575A",
"U  c #E24044",
"Y  c #EB4044",
"T  c #EC4145",
"R  c #EE4246",
"E  c #EE474B",
"W  c #EF474B",
"Q  c #FD4045",
"!  c #FF4045",
"~  c #FD4348",
"^  c #FB4448",
"/  c #FC4448",
"(  c #FD4448",
")  c #FC4449",
"_  c #FC4549",
"`  c #FC454A",
"'  c #FE464B",
"]  c #FE474B",
"[  c #F8494E",
"{  c #FE484D",
"}  c #F84D51",
"|  c #E75053",
" . c #E95256",
".. c #EE5054",
"X. c #E9575B",
"o. c #EE565A",
"O. c #E55B5E",
"+. c #F3575B",
"@. c #F5555A",
"#. c #F6565A",
"$. c #F6575B",
"%. c #FC5A5E",
"&. c #E85E61",
"*. c #D86F71",
"=. c #EB6366",
"-. c #EB696C",
";. c #E96C6F",
":. c #EB6C6F",
">. c #F66568",
",. c #F8666A",
"<. c #EB6E70",
"1. c #F26C70",
"2. c #FF6C70",
"3. c #FF6E71",
"4. c #E47073",
"5. c #E47375",
"6. c #E17477",
"7. c #E17577",
"8. c #E77477",
"9. c #EC7376",
"0. c #E47679",
"q. c #E67679",
"w. c #E4787B",
"e. c #E07B7E",
"r. c #E57A7D",
"t. c #E57B7E",
"y. c #E07C7F",
"u. c #E57C7F",
"i. c #E67C7F",
"p. c #E67D7F",
"a. c #ED7B7F",
"s. c #FF7074",
"d. c #FF767A",
"f. c #FF777B",
"g. c #F07D7F",
"h. c #ED7E80",
"j. c #F87F82",
"k. c #E28083",
"l. c #E28183",
"z. c #E48083",
"x. c #E38386",
"c. c #E78284",
"v. c #EA8083",
"b. c #E78789",
"n. c #E7878A",
"m. c #E98588",
"M. c #E5888A",
"N. c #E48A8C",
"B. c #E68B8E",
"V. c #E88C8E",
"C. c #F18284",
"Z. c #FE8D90",
"A. c #E59092",
"S. c #E79193",
"D. c #E59293",
"F. c #E69395",
"G. c #EF9193",
"H. c #E99294",
"J. c #E99295",
"K. c #E99395",
"L. c #EF9395",
"P. c #E79799",
"I. c #E7989A",
"U. c #EA999B",
"Y. c #ED989A",
"T. c #EF999B",
"R. c #F19496",
"E. c #FD9294",
"W. c #FF9295",
"Q. c #F09A9D",
"!. c #EC9EA0",
"~. c #EC9FA1",
"^. c #EDA3A5",
"/. c #EAA6A8",
"(. c #EAA7A9",
"). c #ECA7A9",
"_. c #EDA9AB",
"`. c #EBADAE",
"'. c #F2ABAC",
"]. c #EDB0B2",
"[. c #EDB2B3",
"{. c #ECB3B5",
"}. c #EDB5B7",
"|. c #EFBBBC",
" X c #EFBBBD",
".X c #EFBDBE",
"XX c #F6B1B3",
"oX c #F0B3B5",
"OX c #F0BDBF",
"+X c #F0BFC0",
"@X c #F1C2C3",
"#X c #F1C2C4",
"$X c #F1C3C4",
"%X c #F1C5C6",
"&X c #F2C6C8",
"*X c #F2C8C9",
"=X c #F2C9CA",
"-X c #F2CACB",
";X c #F5CBCC",
":X c #F3CCCD",
">X c #F4CECF",
",X c #FFCCCD",
"<X c #FFCCCE",
"1X c #F3CED0",
"2X c #F3D1D3",
"3X c #F4D0D1",
"4X c #F4D1D2",
"5X c #F4D2D3",
"6X c #F5D2D3",
"7X c #F4D3D4",
"8X c #F5D4D5",
"9X c #F4D5D6",
"0X c #FCD2D3",
"qX c #F8D4D5",
"wX c #FCD7D8",
"eX c #F5D8D9",
"rX c #F7D9DA",
"tX c #F6DBDC",
"yX c #F7DDDE",
"uX c #F7DEDF",
"iX c #FAD8D9",
"pX c #F9DCDC",
"aX c #F8DEDF",
"sX c #F7DFE0",
"dX c #F8DFE0",
"fX c #F9E3E3",
"gX c #FBE3E3",
"hX c #FFE4E5",
"jX c #FFE6E7",
"kX c #FFE7E8",
"lX c #FBE8E8",
"zX c #F9E9EA",
"xX c #FAEBEB",
"cX c #FDE9EA",
"vX c #FFE9EA",
"bX c #FAEBEC",
"nX c #F9EDED",
"mX c #FCEEEE",
"MX c #FCEFF0",
"NX c #FCF0F1",
"BX c #FEF1F1",
"VX c #FCF3F3",
"CX c #FCF4F4",
"ZX c #FFF4F5",
"AX c #FFF5F6",
"SX c #FDF6F6",
"DX c #FFF6F6",
"FX c #FFF6F7",
"GX c #FFF9F9",
"HX c #FEFAFA",
"JX c #FEFBFB",
"KX c #FEFCFC",
"LX c #FFFDFD",
"PX c #FFFFFF",
"IX c None",
/* pixels */
"IXIXIXIXIXIXIXIXIXIXIXIXIXIXIXIXIXIXIXIXIXIXIXIX",
"IXIXIXIXIXIXIXIX9 9 9 i i * + + IXIXIXIXIXIXIXIX",
"IXIXIXIXIXIX9 i h Y ..5.e.&.T j * + IXIXIXIXIXIX",
"IXIXIXIXIXi d o.T.;XgXbXbXlXqX).;.j * IXIXIXIXIX",
"IXIXIXIXi U C.>XxXxXxXxXxXxXxXxXtXQ.K * , IXIXIX",
"IXIXIX9 V R.9X>X@XeXuXuXuXuXsX7X@X2X_.K * IXIXIX",
"IXIX* d g.-X&XuXVX-X>X4X4X4X-X4XCX7X&XY.N X IXIX",
"IXIX9 X.{.%XuXPXPXVX%X+X#XOX4XJXPXJX9X.X4.4 IXIX",
"IX+ a m.}.|.CXPXPXPXCX@X{.>XJXPXPXPXfX^.c.h X IX",
"IX+ Y U.(./..XCXPXPXPXVX7XJXPXPXPXdX1.~ Q l X IX",
"IX* | D.I.I.P.].MXPXPXPXPXPXPXPXrXa.S Z M v + IX",
"IXi O.b.N.D.D.D.`.mXPXPXPXPXPX,X%.^ S S Z v 9 IX",
"IXi  .8.q.c.b.v.9.XXPXPXPXPXVXd.m S S S S n 9 IX",
"IX* T @.+.+.+.} Z.CXPXPXPXPXPXhX3.M S S D v + IX",
"IXO z ' ' ~ ~ E.CXPXPXPXCXPXPXPXkX2.M S ~ z X IX",
"IXO s ' ' { E.JXPXPXPX<Xf.hXPXPXPXvXs.' ' s o IX",
"IXIX4 E @.>.VXPXPXPXwX,.[ j.xXPXPXPX0X@.W e IXIX",
"IXIX+ N =.<.'.JXPXpXh.-.:.-.G.NXPXmXL.=.B , IXIX",
"IXIXIX* P w.i.oXeXV.t.i.i.h.e.!.pX!.0.P + IXIXIX",
"IXIXIXIX4 I k.b.b.b.b.b.b.b.b.b.n.x.I 2 IXIXIXIX",
"IXIXIXIXIX> H 7.B.D.H.H.H.H.D.B.0.H 2 IXIXIXIXIX",
"IXIXIXIXIXIXX 7 L *.y.x.x.y.*.L 6 , IXIXIXIXIXIX",
"IXIXIXIXIXIXIXIXX X 2 G G 2 X o IXIXIXIXIXIXIXIX",
"IXIXIXIXIXIXIXIXIXIXIXIXIXIXIXIXIXIXIXIXIXIXIXIX"
};
