/* XPM */
static char *close_xpm[] = {
/* columns rows colors chars-per-pixel */
"32 32 113 2 ",
"   c #BC3235",
".  c #BE3235",
"X  c #BC3236",
"o  c #C43236",
"O  c #C63236",
"+  c #C83236",
"@  c #CA3236",
"#  c #CC3235",
"$  c #CC3236",
"%  c #CE3236",
"&  c #CE3A3E",
"*  c #D03236",
"=  c #D13337",
"-  c #D33337",
";  c #D43236",
":  c #D63236",
">  c #D83236",
",  c #DB3337",
"<  c #DC3236",
"1  c #D1393D",
"2  c #E43236",
"3  c #E63236",
"4  c #E83237",
"5  c #E93337",
"6  c #EB3338",
"7  c #F53337",
"8  c #FD3337",
"9  c #F83438",
"0  c #FF393E",
"q  c #CC3C40",
"w  c #D03C40",
"e  c #E63C40",
"r  c #FF3B40",
"t  c #FD3D42",
"y  c #FF3D42",
"u  c #D24043",
"i  c #D05053",
"p  c #D8585B",
"a  c #DC5A5D",
"s  c #FF4146",
"d  c #FC4448",
"f  c #FF454A",
"g  c #F04A4E",
"h  c #F44A4E",
"j  c #FA4A4F",
"k  c #F34D51",
"l  c #F64E52",
"z  c #FA4E52",
"x  c #E9575B",
"c  c #F25054",
"v  c #F15559",
"b  c #EC5C60",
"n  c #EE5C60",
"m  c #EE5E62",
"M  c #F15F63",
"N  c #ED6367",
"B  c #E66669",
"V  c #E86A6D",
"C  c #E46E71",
"Z  c #EA6E70",
"A  c #E27275",
"S  c #E47275",
"D  c #E67679",
"F  c #E47A7D",
"G  c #E57B7E",
"H  c #DD7F81",
"J  c #E07E81",
"K  c #D68284",
"L  c #DF8385",
"P  c #DC8486",
"I  c #E18183",
"U  c #E68487",
"Y  c #E4888A",
"T  c #E08A8C",
"R  c #E48A8C",
"E  c #E28C8E",
"W  c #E88A8D",
"Q  c #E28E90",
"!  c #E48E90",
"~  c #E29092",
"^  c #E69294",
"/  c #E59597",
"(  c #E89294",
")  c #E49C9E",
"_  c #E69C9E",
"`  c #EA989A",
"'  c #E89EA0",
"]  c #E6A4A6",
"[  c #E8A0A2",
"{  c #EBA9AB",
"}  c #EBAFB1",
"|  c #ECAEB0",
" . c #EBB1B3",
".. c #EDB3B5",
"X. c #ECB4B6",
"o. c #EDB7BA",
"O. c #F0BEBF",
"+. c #F1C5C6",
"@. c #F0C8C9",
"#. c #F2C8C9",
"$. c #F2CCCC",
"%. c #F5D3D4",
"&. c #F5D5D5",
"*. c #F4D4D6",
"=. c #F5DBDC",
"-. c #F6DCDD",
";. c #F6DEDF",
":. c #F9E7E8",
">. c #FBEDEE",
",. c #FAEEEE",
"<. c #FCF6F6",
"1. c gray100",
"2. c None",
/* pixels */
"2.2.2.2.2.2.2.2.2.2.2.2.2.2.2.2.2.2.2.2.2.2.2.2.2.2.2.2.2.2.2.2.",
"2.2.2.2.2.2.2.2.2.2.2.2.2.% % % % # % 2.2.2.2.2.2.2.2.2.2.2.2.2.",
"2.2.2.2.2.2.2.2.2.2.= = = % : > > : # # # # 2.2.2.2.2.2.2.2.2.2.",
"2.2.2.2.2.2.2.2.- = = 2 7 0 v T T H r 9 2 = % # 2.2.2.2.2.2.2.2.",
"2.2.2.2.2.2.2.= = 5 0 ) #.,.<.<.<.<.<.=.] B 6 % # o 2.2.2.2.2.2.",
"2.2.2.2.2.2.= > 8 Q -.,.,.,.,.,.,.>.>.>.>.>. .g : # # 2.2.2.2.2.",
"2.2.2.2.2.= > c X.:.:.:.:.:.:.:.:.:.:.:.:.:.:.%.A > % o 2.2.2.2.",
"2.2.2.2.= : l +.-.-.{ { -.-.-.-.-.-.-.-.-.{ { -.%.C : % 2.2.2.2.",
"2.2.2.= % 8 | %.%.{ 1.1.{ %.%.%.%.%.%.%.{ 1.1.{ %.$.x % # 2.2.2.",
"2.2.2.% 5 ~ #.#.{ 1.1.1.1.{ #.#.#.#.#.{ 1.1.1.1.{ #.} 6 # 2.2.2.",
"2.2.% = h o.O.O.1.1.1.1.1.1.{ O.O.O.{ 1.1.1.1.1.1.O.O.P % # 2.2.",
"2.2.# 2 E ......1.1.1.1.1.1.1.{ ..{ 1.1.1.1.1.1.1.| _ L 2 % 2.2.",
"2.2.# 7 ' { { { { 1.1.1.1.1.1.1.{ 1.1.1.1.1.1.1.S r r r 9 #   2.",
"2.% % h [ _ [ _ ' ' 1.1.1.1.1.1.1.1.1.1.1.1.1.J r r r r 0 # o 2.",
"2.# = n ^ ^ ^ ^ ^ ^ ^ 1.1.1.1.1.1.1.1.1.1.1.N N y y r r r = # 2.",
"2.% < V Y Y Y ^ ^ ^ ^ ^ 1.1.1.1.1.1.1.1.1.y y y y r y r r > # 2.",
"2.# > m F G G ^ ^ ^ ^ W N 1.1.1.1.1.1.1.y y y y y y y r r < # 2.",
"2.# : l N N N N N N y y 1.1.1.1.1.1.1.1.1.y y y y y y y y = o 2.",
"2.% # y j j j j j j j 1.1.1.1.1.1.1.1.1.1.1.y y y y y s 0 % o 2.",
"2.2.# 9 d d d d d d 1.1.1.1.1.1.1.1.1.1.1.1.1.y y s s s 9 %   2.",
"2.2.% 3 d d f f d 1.1.1.1.1.1.1.y 1.1.1.1.1.1.1.s f f f 3 % 2.2.",
"2.2.# = j z z z 1.1.1.1.1.1.1.y y y 1.1.1.1.1.1.1.z z l = o 2.2.",
"2.2.2.# e M M M 1.1.1.1.1.1.M M M M M 1.1.1.1.1.1.M M 6 %   2.2.",
"2.2.2.# # b Z Z Z 1.1.1.1.Z Z Z Z Z Z Z 1.1.1.1.Z Z b % o 2.2.2.",
"2.2.2.2.% & D G G G 1.1.G G G G G G G G G 1.1.F G D 1 # 2.2.2.2.",
"2.2.2.2.2.% w I U U U U U U U U U U U U U U U U I u %   2.2.2.2.",
"2.2.2.2.2.2.% w L Y W W W W W W W W W W W W W L & % X 2.2.2.2.2.",
"2.2.2.2.2.2.2.% % a Q ^ ( ( ( ( ( ( ( ( ( ! a % %   2.2.2.2.2.2.",
"2.2.2.2.2.2.2.2.# # & p K / ` ` ` ` / K p & # o 2.2.2.2.2.2.2.2.",
"2.2.2.2.2.2.2.2.2.2.# # % % q i i & # # # # X 2.2.2.2.2.2.2.2.2.",
"2.2.2.2.2.2.2.2.2.2.2.2.  o # o o # o X 2.2.2.2.2.2.2.2.2.2.2.2.",
"2.2.2.2.2.2.2.2.2.2.2.2.2.2.2.2.2.2.2.2.2.2.2.2.2.2.2.2.2.2.2.2."
};
