/* XPM */
static char *config_xpm[] = {
/* columns rows colors chars-per-pixel */
"24 24 132 2 ",
"   c #171817",
".  c #242524",
"X  c #252725",
"o  c #2C2C2C",
"O  c #2F302F",
"+  c #353634",
"@  c #373937",
"#  c #3C3D3C",
"$  c #3D3D3D",
"%  c #3E3E3D",
"&  c #3E3F3E",
"*  c #424342",
"=  c #434443",
"-  c #464746",
";  c #474845",
":  c #4C4D4C",
">  c #4F504D",
",  c #4F504F",
"<  c #525350",
"1  c #545552",
"2  c #555655",
"3  c #575855",
"4  c #5A5A5A",
"5  c #5E5F5C",
"6  c #5E5E5D",
"7  c #5D5E5E",
"8  c #5F605F",
"9  c #5B6060",
"0  c #616261",
"q  c #626360",
"w  c #636363",
"e  c #636667",
"r  c #666765",
"t  c #656767",
"y  c #666766",
"u  c #676867",
"i  c #686A68",
"p  c #696A68",
"a  c #696A69",
"s  c #6A6B69",
"d  c #6A6B6A",
"f  c #6A6C69",
"g  c #6B6C69",
"h  c #6A6C6A",
"j  c #6C6C6A",
"k  c #6D6E6B",
"l  c #696C6D",
"z  c #6D6F6C",
"x  c #6E6F6C",
"c  c #6E6F6E",
"v  c #70726F",
"b  c #71736F",
"n  c #72746F",
"m  c #6E7070",
"M  c #6F7272",
"N  c #717170",
"B  c #717270",
"V  c #737473",
"C  c #767873",
"Z  c #777875",
"A  c #787A76",
"S  c #787978",
"D  c #797A79",
"F  c #787A7B",
"G  c #7A7A7A",
"H  c #7A7B7A",
"J  c #7C7D7B",
"K  c #7C7D7C",
"L  c #7D7E7C",
"P  c #7E807C",
"I  c #7F807E",
"U  c #818380",
"Y  c #828382",
"T  c #838481",
"R  c #858684",
"E  c #858685",
"W  c #878984",
"Q  c #878887",
"!  c #888987",
"~  c #898A87",
"^  c #8B8B8A",
"/  c #8C8D8B",
"(  c #8E8F8D",
")  c #8F908D",
"_  c #909190",
"`  c #939391",
"'  c #929392",
"]  c #939492",
"[  c #969795",
"{  c #949696",
"}  c #979896",
"|  c #979998",
" . c #999B99",
".. c #9B9B99",
"X. c #9B9C99",
"o. c #9E9E9C",
"O. c #9FA09E",
"+. c #A1A1A0",
"@. c #A3A4A3",
"#. c #A8A9A7",
"$. c #ABACAA",
"%. c #ADAEAA",
"&. c #AFB0AE",
"*. c #B5B5B4",
"=. c #B4B5B5",
"-. c #B8B9B6",
";. c #B8B9B7",
":. c #BDBDBC",
">. c #C3C3C1",
",. c #C3C4C1",
"<. c #C6C7C5",
"1. c #C7C7C6",
"2. c #C8C9C8",
"3. c #C9C9C8",
"4. c #CBCCCA",
"5. c #CBCCCB",
"6. c #CDCDCD",
"7. c #CFCFCE",
"8. c #CFD0CF",
"9. c #D3D3D3",
"0. c #D7D7D6",
"q. c #D8D9D7",
"w. c #DCDCDB",
"e. c #DDDDDC",
"r. c #E3E3E3",
"t. c #E3E4E3",
"y. c #EBEBEB",
"u. c #EEEEEE",
"i. c #EFEFEF",
"p. c #F6F6F5",
"a. c #F9F9F9",
"s. c None",
/* pixels */
"s.s.s.s.s.s.s.s.s.s.s.s.s.s.s.s.s.7.3.,.$.s.s.s.",
"s.s.s.s.s.s.s.s.s.s.s.s.s.s.s.s.r.a.w.X.B s.s.s.",
"s.s.s.s.s.s.s.s.s.s.s.s.s.s.s.#.u.p.:.s.s.s.s.s.",
"s.s.s.s.s.s.s.s.s.s.s.s.s.s.s.[ t.u.3.s.s.s.s.s.",
"s.s.s.s.s.s.s.s.s.s.s.s.s.s.s.) 2.u.e.s.s.s.s.s.",
"s.s.s.s.s.s.s.s.s.s.s.s.s.s.] X.+.0.r.-.T >.$.s.",
"s.s.s.s.s.s.s.s.s.s.s.s.s.s.&. .m t 8.5.] 1.! s.",
"s.s.s.s.s.s.s.s.s.s.s.s.s.s.1.F M 9 [ q.O.! # s.",
"s.s.s.s.s.s.s.s.s.s.s.s.s.*.7.*.z t  .;.F o s.s.",
"s.s.s.s.s.s.s.s.s.s.s.s.' y 7 9.@.5 $ s.s.s.s.s.",
"s.s.s.s.s.s.s.s.s.s.s.J : * E +.s.s.s.s.s.s.s.s.",
"s.s.s.s.s.s.s.s.s.s.v + X y ' s.s.s.s.s.s.s.s.s.",
"s.s.s.s.s.s.s.s.s.s O   - I s.s.s.s.s.s.s.s.s.s.",
"s.s.s.s.s.s.s.s.p # X @ B s.s.s.s.s.s.s.s.s.s.s.",
"s.s.s.s.s.s.s.h : & = h s.s.s.s.s.s.s.s.s.s.s.s.",
"s.s.s.s.s.s.E y 4 2 s s.s.s.s.s.s.s.s.s.s.s.s.s.",
"s.s.s.s.s.} H V s z > s.s.s.s.s.s.s.s.s.s.s.s.s.",
"s.s.s.s.U F U L S 1 s.s.s.s.s.s.s.s.s.s.s.s.s.s.",
"s.s.s.h 0 z F ! q s.s.s.s.s.s.s.s.s.s.s.s.s.s.s.",
"s.s.z y s 8 ( / s.s.s.s.s.s.s.s.s.s.s.s.s.s.s.s.",
"s.z s.> j L O.s.s.s.s.s.s.s.s.s.s.s.s.s.s.s.s.s.",
"n C s.s.S ! s.s.s.s.s.s.s.s.s.s.s.s.s.s.s.s.s.s.",
"s.P s.! v s.s.s.s.s.s.s.s.s.s.s.s.s.s.s.s.s.s.s.",
"s.; 5 3 s.s.s.s.s.s.s.s.s.s.s.s.s.s.s.s.s.s.s.s."
};
