/* XPM */
static char *config_xpm[] = {
/* columns rows colors chars-per-pixel */
"32 32 221 2 ",
"   c black",
".  c #010101",
"X  c gray1",
"o  c #040404",
"O  c #171817",
"+  c #171917",
"@  c #191A19",
"#  c #1C1D1C",
"$  c #222221",
"%  c #222322",
"&  c #232323",
"*  c #242524",
"=  c #262726",
"-  c #272726",
";  c #262825",
":  c #272827",
">  c #292927",
",  c #2A2A29",
"<  c gray17",
"1  c #2B2C2B",
"2  c #2A2F30",
"3  c #2B3233",
"4  c #303130",
"5  c #323331",
"6  c #333533",
"7  c #373737",
"8  c #373837",
"9  c gray22",
"0  c #3A3939",
"q  c #3A3A3A",
"w  c #3A3B3A",
"e  c #3C3D3D",
"r  c #3F403E",
"t  c #3F403F",
"y  c #434441",
"u  c #444544",
"i  c #454645",
"p  c #4A4B4A",
"a  c #4B4C49",
"s  c #4A4C4A",
"d  c #4B4C4B",
"f  c #494C4D",
"g  c #4D4F4C",
"h  c #4D4E4E",
"j  c #4E4F4E",
"k  c #4F504D",
"l  c #4E514E",
"z  c #4A4F50",
"x  c #515351",
"c  c #525251",
"v  c #535353",
"b  c #535451",
"n  c #535453",
"m  c #545653",
"M  c #515455",
"N  c #535657",
"B  c #555655",
"V  c #575857",
"C  c #575957",
"Z  c #575A5B",
"A  c #585858",
"S  c gray35",
"D  c #585A5A",
"F  c #5A5B5A",
"G  c #5B5C5B",
"H  c #5C5C5B",
"J  c #5A5D5D",
"K  c #5C5E5C",
"L  c #5C5E5D",
"P  c gray37",
"I  c #5E5F5E",
"U  c #5F605F",
"Y  c #61635F",
"T  c #5E6263",
"R  c #626360",
"E  c #626362",
"W  c #646563",
"Q  c #636667",
"!  c #666766",
"~  c #676867",
"^  c #686967",
"/  c #696A69",
"(  c #6A6A6A",
")  c #6A6B6A",
"_  c gray42",
"`  c #6B6C6B",
"'  c #6C6D69",
"]  c #6D6F6D",
"[  c #6E6F6D",
"{  c #6F6F6D",
"}  c #6F706E",
"|  c #70706F",
" . c gray44",
".. c #737471",
"X. c #737473",
"o. c #747574",
"O. c #757675",
"+. c #767675",
"@. c #767676",
"#. c #767776",
"$. c #787978",
"%. c #797A79",
"&. c #7B7B7B",
"*. c #7B7C78",
"=. c #7B7C79",
"-. c #7B7C7A",
";. c #7B7D7A",
":. c #7F7F7D",
">. c gray50",
",. c #7F817D",
"<. c #7F807F",
"1. c #81837F",
"2. c #81847E",
"3. c #828383",
"4. c #838580",
"5. c #838481",
"6. c #848483",
"7. c #848583",
"8. c #848682",
"9. c #858682",
"0. c #868685",
"q. c #868786",
"w. c #868883",
"e. c #868884",
"r. c #878885",
"t. c #898A85",
"y. c #8A8C87",
"u. c #8A8B88",
"i. c #8A8B89",
"p. c #8B8B89",
"a. c #8B8C8A",
"s. c #8C8D8A",
"d. c #8C8D8B",
"f. c #8C8E8A",
"g. c #8D8E8A",
"h. c #8D8F8A",
"j. c #8E918B",
"k. c #8D908C",
"l. c #8F918C",
"z. c #90918D",
"x. c #90918F",
"c. c #919490",
"v. c #939590",
"b. c #929491",
"n. c #939492",
"m. c #949592",
"M. c #959693",
"N. c #919494",
"B. c #949594",
"V. c #969996",
"C. c #9A9B98",
"Z. c #9A9C98",
"A. c #9D9E9C",
"S. c #A0A19E",
"D. c #A1A29F",
"F. c #A5A6A3",
"G. c #A5A6A4",
"H. c #A6A7A5",
"J. c #A7A7A6",
"K. c #A7A8A7",
"L. c #A8A9A6",
"P. c #A9AAA7",
"I. c #A9AAAA",
"U. c #ABABAA",
"Y. c #ADAEAB",
"T. c #ADAEAC",
"R. c #AFB0AD",
"E. c #B1B2AF",
"W. c #B1B2B0",
"Q. c #B1B2B1",
"!. c #B3B4B2",
"~. c #B4B5B3",
"^. c #B6B7B4",
"/. c #B7B8B7",
"(. c #BBBCBA",
"). c #BCBDBB",
"_. c #BDBEBD",
"`. c #C0C1BE",
"'. c #C1C1BF",
"]. c #C2C3C1",
"[. c #C5C5C4",
"{. c #C8C9C6",
"}. c #CECECD",
"|. c #CFCECD",
" X c #CFCECE",
".X c #CECFCE",
"XX c #CFCFCE",
"oX c #D1D2D0",
"OX c #D2D3D1",
"+X c #D3D3D2",
"@X c #D4D6D4",
"#X c #D5D6D4",
"$X c #D8D7D6",
"%X c #D7D8D7",
"&X c #DADBD9",
"*X c #DCDCDB",
"=X c #DEDDDC",
"-X c #DDDEDC",
";X c #DEDFDE",
":X c #E2E1E1",
">X c #E2E3E1",
",X c #E3E4E3",
"<X c #E4E5E4",
"1X c #E7E8E7",
"2X c #E8E8E7",
"3X c #E8E9E8",
"4X c #E9E9E8",
"5X c #E9E9E9",
"6X c #E9EAE9",
"7X c #EAEAE9",
"8X c #EAEBEA",
"9X c #EBECEB",
"0X c #ECECEB",
"qX c #EEEEED",
"wX c #EEEEEE",
"eX c #F3F3F3",
"rX c gray97",
"tX c #F8F8F7",
"yX c #F9FAF9",
"uX c #FAFBFA",
"iX c None",
/* pixels */
"iXiXiXiXiXiXiXiXiXiXiXiXiXiXiXiXiXiXiXiXiXiXiX/._.(.E.iXiXiXiXiX",
"iXiXiXiXiXiXiXiXiXiXiXiXiXiXiXiXiXiXiXiXiXL.rXuX2X&X{.L.iXiXiXiX",
"iXiXiXiXiXiXiXiXiXiXiXiXiXiXiXiXiXiXiXiX{ 3XeXuX3X7.0 X iXiXiXiX",
"iXiXiXiXiXiXiXiXiXiXiXiXiXiXiXiXiXiXiXiXM.<XwXtX$X  iXiXiXiXiXiX",
"iXiXiXiXiXiXiXiXiXiXiXiXiXiXiXiXiXiXiXiX-.>XwXeXoXiXiXiXiXiXiXiX",
"iXiXiXiXiXiXiXiXiXiXiXiXiXiXiXiXiXiXiXiX-.[.3XwXwXiXiXiXiXiXiXiX",
"iXiXiXiXiXiXiXiXiXiXiXiXiXiXiXiXiXiXiX} Z.p.3X3X3X).iXiXiXiXY.iX",
"iXiXiXiXiXiXiXiXiXiXiXiXiXiXiXiXiXiXiXn.E.{ oX=X1X=XM...'.|.d.iX",
"iXiXiXiXiXiXiXiXiXiXiXiXiXiXiXiXiXiXiXQ.'.,.f N ,X=X~.-.|.@X9 iX",
"iXiXiXiXiXiXiXiXiXiXiXiXiXiXiXiXiXiXiXoXJ T N.3 Q.=XoX,.|.q.iXiX",
"iXiXiXiXiXiXiXiXiXiXiXiXiXiXiXiXiXiXQ.>XI.2 K.z Z *X@Xf.O.o iXiX",
"iXiXiXiXiXiXiXiXiXiXiXiXiXiXiXiXiXT. X=X1XM Q D Q.@XA.^   iXiXiX",
"iXiXiXiXiXiXiXiXiXiXiXiXiXiXiXiXU.B.y e wX&X(.c < & iXiXiXiXiXiX",
"iXiXiXiXiXiXiXiXiXiXiXiXiXiXiXG.%.0 p K 3X/   iXiXiXiXiXiXiXiXiX",
"iXiXiXiXiXiXiXiXiXiXiXiXiXiXD.K : 9 h  XH iXiXiXiXiXiXiXiXiXiXiX",
"iXiXiXiXiXiXiXiXiXiXiXiXiXZ.l O * 6 Q.) iXiXiXiXiXiXiXiXiXiXiXiX",
"iXiXiXiXiXiXiXiXiXiXiXiXn.u O @ # x.O.iXiXiXiXiXiXiXiXiXiXiXiXiX",
"iXiXiXiXiXiXiXiXiXiXiXf.u % # O ] 3.iXiXiXiXiXiXiXiXiXiXiXiXiXiX",
"iXiXiXiXiXiXiXiXiXiX5.f 8 4 ; C d.iXiXiXiXiXiXiXiXiXiXiXiXiXiXiX",
"iXiXiXiXiXiXiXiXiX1.c s u w c k.iXiXiXiXiXiXiXiXiXiXiXiXiXiXiXiX",
"iXiXiXiXiXiXiXiXD.T K A j n d.iXiXiXiXiXiXiXiXiXiXiXiXiXiXiXiXiX",
"iXiXiXiXiXiXiX^.{  ._ E K t.; iXiXiXiXiXiXiXiXiXiXiXiXiXiXiXiXiX",
"iXiXiXiXiXiXY.O.>.>.o./ w.5 iXiXiXiXiXiXiXiXiXiXiXiXiXiXiXiXiXiX",
"iXiXiXiXiXd._ &.q.6.+.7.r iXiXiXiXiXiXiXiXiXiXiXiXiXiXiXiXiXiXiX",
"iXiXiXiX*.D _ o.$.O.n.l iXiXiXiXiXiXiXiXiXiXiXiXiXiXiXiXiXiXiXiX",
"iXiX' 2.A D U ! ^ K.,.iXiXiXiXiXiXiXiXiXiXiXiXiXiXiXiXiXiXiXiXiX",
"iXiX7.m Y V.H m G.Q.iXiXiXiXiXiXiXiXiXiXiXiXiXiXiXiXiXiXiXiXiXiX",
"iXz.- iXiXY W p.].iXiXiXiXiXiXiXiXiXiXiXiXiXiXiXiXiXiXiXiXiXiXiX",
"iXk.iXiXiXb w.L.1 iXiXiXiXiXiXiXiXiXiXiXiXiXiXiXiXiXiXiXiXiXiXiX",
"iXt.t.iXiX7.t.- iXiXiXiXiXiXiXiXiXiXiXiXiXiXiXiXiXiXiXiXiXiXiXiX",
"iXa v.l.d.2.& iXiXiXiXiXiXiXiXiXiXiXiXiXiXiXiXiXiXiXiXiXiXiXiXiX",
"iXiX< g y iXiXiXiXiXiXiXiXiXiXiXiXiXiXiXiXiXiXiXiXiXiXiXiXiXiXiX"
};
