/* XPM */
static char *copy_xpm[] = {
/* columns rows colors chars-per-pixel */
"32 32 91 1 ",
"  c black",
". c #4D514F",
"X c #5A5E5C",
"o c #5F6262",
"O c #636665",
"+ c #676C6A",
"@ c #6A6E6B",
"# c #8D908D",
"$ c #8E9090",
"% c #929694",
"& c #999B9B",
"* c #999C9A",
"= c #A0A1A1",
"- c #A5A6A6",
"; c #A9A9A9",
": c #AAABAB",
"> c gray67",
", c gray68",
"< c #AEAEAE",
"1 c #AFAFAF",
"2 c gray69",
"3 c #B2B2B2",
"4 c #B6B6B6",
"5 c #B9B9B9",
"6 c #BBBBBB",
"7 c #B8BCBD",
"8 c #BABEBF",
"9 c #C1C1C1",
"0 c gray76",
"q c #C2C3C3",
"w c #C3C4C3",
"e c #C8C8C8",
"r c #CBCBCB",
"t c #CDCDCD",
"y c #CECECE",
"u c #CFD0D0",
"i c gray84",
"p c #D8D8D8",
"a c gray86",
"s c #DCDCDB",
"d c #DBDDDE",
"f c #E1E1E1",
"g c #E2E2E2",
"h c gray89",
"j c #E4E4E4",
"k c gray90",
"l c #E7E8E8",
"z c #E8E9E9",
"x c #E9E9E9",
"c c #E9EAEA",
"v c #E9EAEB",
"b c #EAEBEB",
"n c gray92",
"m c #EBECEC",
"M c #ECECEC",
"N c #ECEDED",
"B c gray93",
"V c #EDEEEE",
"C c #EEEEEE",
"Z c #EEEFEF",
"A c #EFEFEF",
"S c #EFF0F0",
"D c #EEF0F1",
"F c gray94",
"G c #F0F1F1",
"H c #F1F1F1",
"J c #F1F1F2",
"K c #F1F2F2",
"L c gray95",
"P c #F2F3F3",
"I c #F3F3F3",
"U c #F3F4F4",
"Y c #F4F4F4",
"T c #F4F5F5",
"R c gray96",
"E c #F5F6F6",
"W c #F6F6F6",
"Q c #F6F7F7",
"! c gray97",
"~ c #F7F8F8",
"^ c #F8F8F8",
"/ c #F9F9F8",
"( c #F9F9F9",
") c #FAFAF9",
"_ c gray98",
"` c #FAFBFB",
"' c #FBFBFB",
"] c gray99",
"[ c #FDFDFD",
"{ c #FEFEFE",
"} c None",
/* pixels */
"}}}}}}}}}}}}}}}}}}}}}}}}}}}}}}}}",
"}}}}}}}}}}}}}}}}}}}}}}}}}}}}}}}}",
"}}!GGGG!G!!!!!!!~^!!^^]}}}}}}}}}",
"}}GlnnmnVVVAVGVGGGGGGG~}}}}}}}}}",
"}}GnvmVVAAGGGGGUUYGG!G^}}}}}}}}}",
"}}GnmmVZGGGG!G!GG!!!Y!^ }}}}}}}}",
"}}YnVVZGGG!GG!!!!!!!!!^<!!^^^^}}",
"}}YVVFGGGYGG!!~^!!!!!!];GGGUG~}}",
"}}!VGGGG!G!!^^^^]^^^^]];!GG!G!}}",
"}}!GGGUUU!!!^^^^^^]]]^]<U!U!!^}}",
"}}!VGUG!~^!^^]^]]]]^]]]<!!!!^^}}",
"}}!GUG!!~^^^]^]]^]]]]^]<!!!^^'}}",
"}}!GG!~^^^]^]]]]]]]]]]]2]^^]^]}}",
"}}!!G!^^^^^]^]]]]]]]]]]2^^]^]]}}",
"}}^G!!!^]]]]]]]]]]]]]]]<]]^]]]}}",
"}}^!!!^^^]^]]]]]]]]]]]]2]]]]]]}}",
"}}^!^^^]]]]]]]]]]]]]]]]3]]]]]]}}",
"}}^!^^]^]]]]]]]]]]^^U!]3]]]]]]}}",
"}}^^^^^]]]]]]]]]^Gnkhhs6]]]]]]}}",
"}}^^^^]^^]]]]]]!nireuu=]]]]]]]}}",
"}}^^^]^]]]]]]]]n0]]]k*]]]]]]]]}}",
"}}^^^]]]]]]]]]!g5]^k%]]]]^!!^]}}",
"}}]^^]]]]]]]]]Vp2^g#]]]^Gnkhgd}}",
"}}^^^^]]]]]]]^np6s$]]]^VieeruO}}",
"}}]^^^]]]]]]]]nre*]]]^V0]]^kO}}}",
"}}]]]]]]]]]]]]Z8-]]]]Gg4]]k@}}}}",
"}}}}}}}} 222222e]]]]]Va2^h@}}}}}",
"}}}}}}}}}^^^]]^]]]]]^np6sX}}}}}}",
"}}}}}}}}}^^^]]]]]]]]^nrq.}}}}}}}",
"}}}}}}}}}]]]]]]]]]]]]D8}}}}}}}}}",
"}}}}}}}}}}}}}}}}}}}}}}}}}}}}}}}}",
"}}}}}}}}}}}}}}}}}}}}}}}}}}}}}}}}"
};
