/* XPM */
static char *dasatree2e_xpm[] = {
/* columns rows colors chars-per-pixel */
"24 24 136 2 ",
"   c #595806",
".  c #57570C",
"X  c #59580A",
"o  c #5C5B12",
"O  c #666607",
"+  c #676607",
"@  c #696802",
"#  c #696906",
"$  c #65640B",
"%  c #716F08",
"&  c #757400",
"*  c #767700",
"=  c #777702",
"-  c #737305",
";  c #7A7900",
":  c #7D7D02",
">  c #7B7C04",
",  c #767509",
"<  c #6A6910",
"1  c #74741E",
"2  c #737229",
"3  c #838100",
"4  c #818004",
"5  c #888600",
"6  c #868906",
"7  c #8F8D00",
"8  c #8B8906",
"9  c #8C8B06",
"0  c #828109",
"q  c #87880B",
"w  c #898A0A",
"e  c #8A8D09",
"r  c #8B8D09",
"t  c #89880D",
"y  c #969400",
"u  c #959304",
"i  c #969606",
"p  c #999601",
"a  c #9C9A00",
"s  c #9E9C03",
"d  c #9E9D05",
"f  c #989609",
"g  c #999A0F",
"h  c #9B9C0D",
"j  c #848314",
"k  c #8F8E15",
"l  c #969111",
"z  c #969615",
"x  c #9A9917",
"c  c #93941D",
"v  c #98971A",
"b  c #999919",
"n  c #A3A100",
"m  c #A4A203",
"M  c #A6A400",
"N  c #A7A500",
"B  c #A7A501",
"V  c #A7A706",
"C  c #A9A705",
"Z  c #AFAD00",
"A  c #AFAD05",
"S  c #AFAF07",
"D  c #A4A50B",
"F  c #A0A00D",
"G  c #A0A00F",
"H  c #A7A50C",
"J  c #AAA80A",
"K  c #ADAD0A",
"L  c #B0AE00",
"P  c #B1AF02",
"I  c #B0AE0C",
"U  c #B5B301",
"Y  c #B6B400",
"T  c #B7B500",
"R  c #B3B104",
"E  c #B8B603",
"W  c #BBB900",
"Q  c #BDBB00",
"!  c #B3B208",
"~  c #ABA917",
"^  c #8A8923",
"/  c #8C8B20",
"(  c #81802D",
")  c #86852C",
"_  c #8C8B2B",
"`  c #92912A",
"'  c #99982A",
"]  c #97963F",
"[  c #A09F29",
"{  c #A7A623",
"}  c #A5A426",
"|  c #A7A527",
" . c #A8A624",
".. c #AEAC27",
"X. c #A5A32D",
"o. c #A7A62C",
"O. c #A5A42E",
"+. c #A7A62E",
"@. c #A7A62F",
"#. c #ABA928",
"$. c #ADAC2D",
"%. c #BFBD26",
"&. c #B9B72D",
"*. c #A3A236",
"=. c #A1A038",
"-. c #C3C100",
";. c #C3C102",
":. c #C5C300",
">. c #C9C703",
",. c #D0CE02",
"<. c #D5D302",
"1. c #CDCB1C",
"2. c #D3D111",
"3. c #D4D217",
"4. c #DCDA10",
"5. c #E1DE13",
"6. c #EAE806",
"7. c #EAE70A",
"8. c #ECEA0D",
"9. c #F1EE0E",
"0. c #FAF705",
"q. c #FEFC05",
"w. c #F6F308",
"e. c #FFFC11",
"r. c #FFFF11",
"t. c #FFFC15",
"y. c #FFFE17",
"u. c #C7C521",
"i. c #C8C624",
"p. c #FFFF29",
"a. c #FFFE2A",
"s. c #FCFB2F",
"d. c #F6F642",
"f. c #FFFF45",
"g. c #FBFA53",
"h. c None",
/* pixels */
"h.h.h.h.h.h.h.h.h.h.h.h.h.h.h.h.h.h.h.h.h.h.h.h.",
"h.h.h.h.h.h.h.h.h.h.h.h.h.h.h.h.h.h.h.h.h.h.h.h.",
"h.h.h.h.h.h.h.h.h.h.h.h.h.h.h.h.h.h.h.h.h.h.h.h.",
"h.h.h.h.h.h.h.h.h.h.h.h.h.h.h.h.h.h.h.h.h.h.h.h.",
"h.h.h.h.h.h.h.h.h.h.h.h.h.h.h.h.h.h.h.h.h.h.h.h.",
"h.h.h.h.h.h.h.h.h.h.h.h.h.h.h.h.h.h.h.h.h.h.h.h.",
"h.h.h.h.h.h.h.h.h.h.h.h.h.h.h.h.h.h.h.h.h.h.h.h.",
"h.h.l v h D K ! S V d i b x J R K ~ | *.] j h.h.",
"h.h.h.z H E >.<.,.;.U C ..$.i.9.e.p.f.g.=.h.h.h.",
"h.h.h.6 g S Q :.;.W Z m  .O.%.8.e.a.d.O.h.h.h.h.",
"h.h.h.h.r G L T T L M s | +.u.w.t.s.&.o h.h.h.h.",
"h.h.h.h.h.r G M N n a u [ O.1.0.y.5.% h.h.h.h.h.",
"h.h.h.h.h.h.w f p y 7 9 ' O.3.q.7.4 h.h.h.h.h.h.",
"h.h.h.h.h.h.h.w 9 5 3 0 ` +.4.6.w h.h.h.h.h.h.h.",
"h.h.h.h.h.h.h.> : ; & , _ #.2.k h.h.h.h.h.h.h.h.",
"h.h.h.h.h.h.h.h.= & @ + )  ./ X h.h.h.h.h.h.h.h.",
"h.h.h.h.h.h.h.h.h.- O   ( ^ $ h.h.h.h.h.h.h.h.h.",
"h.h.h.h.h.h.h.h.h.h.# . 2 < h.h.h.h.h.h.h.h.h.h.",
"h.h.h.h.h.h.h.h.h.h.h.c 1 h.h.h.h.h.h.h.h.h.h.h.",
"h.h.h.h.h.h.h.h.h.h.h.h.h.h.h.h.h.h.h.h.h.h.h.h.",
"h.h.h.h.h.h.h.h.h.h.h.h.h.h.h.h.h.h.h.h.h.h.h.h.",
"h.h.h.h.h.h.h.h.h.h.h.h.h.h.h.h.h.h.h.h.h.h.h.h.",
"h.h.h.h.h.h.h.h.h.h.h.h.h.h.h.h.h.h.h.h.h.h.h.h.",
"h.h.h.h.h.h.h.h.h.h.h.h.h.h.h.h.h.h.h.h.h.h.h.h."
};
