/* XPM */
static char *dasatree3_xpm[] = {
/* columns rows colors chars-per-pixel */
"32 32 209 2 ",
"   c #0D4703",
".  c #0B4E00",
"X  c #0C4F01",
"o  c #0B5000",
"O  c #0C5600",
"+  c #0C5800",
"@  c #0D5C00",
"#  c #0F5C02",
"$  c #105105",
"%  c #135B07",
"&  c #105C04",
"*  c #14540A",
"=  c #1A5A10",
"-  c #0E6400",
";  c #0D6701",
":  c #0F6800",
">  c #0C6A00",
",  c #0F6A00",
"<  c #136705",
"1  c #17630B",
"2  c #176D0B",
"3  c #1A6E0C",
"4  c #0E7800",
"5  c #0E7A00",
"6  c #117101",
"7  c #107200",
"8  c #117600",
"9  c #127402",
"0  c #117800",
"q  c #127C00",
"w  c #127E00",
"e  c #137C02",
"r  c #127F03",
"t  c #127804",
"y  c #177208",
"u  c #157608",
"i  c #197D09",
"p  c #216B15",
"a  c #236D17",
"s  c #25611B",
"d  c #276A1C",
"f  c #327529",
"g  c #38722E",
"h  c #35782A",
"j  c #3E7735",
"k  c #3D7B33",
"l  c #0D8600",
"z  c #0E8F01",
"x  c #128000",
"c  c #128200",
"v  c #108400",
"b  c #118501",
"n  c #108600",
"m  c #138600",
"M  c #138204",
"N  c #148505",
"B  c #178705",
"V  c #168507",
"C  c #198307",
"Z  c #138A00",
"A  c #168903",
"S  c #148E00",
"D  c #158806",
"F  c #168C06",
"G  c #178D07",
"H  c #158E08",
"J  c #198F09",
"K  c #1B880C",
"L  c #198F0D",
"P  c #149000",
"I  c #159400",
"U  c #159800",
"Y  c #169A00",
"T  c #169E00",
"R  c #189008",
"E  c #18910B",
"W  c #1A900A",
"Q  c #1E930B",
"!  c #19910D",
"~  c #19920C",
"^  c #1F8911",
"/  c #1C9210",
"(  c #269C12",
")  c #269917",
"_  c #17A000",
"`  c #17A200",
"'  c #17A400",
"]  c #17A600",
"[  c #1BA604",
"{  c #18AA00",
"}  c #19AB01",
"|  c #18AC00",
" . c #19AE00",
".. c #1EAD07",
"X. c #19B000",
"o. c #19B200",
"O. c #19B400",
"+. c #1AB600",
"@. c #1DB105",
"#. c #1AB800",
"$. c #1ABA00",
"%. c #1BBC00",
"&. c #1BBE00",
"*. c #22A10D",
"=. c #25A90F",
"-. c #20BC06",
";. c #23B00C",
":. c #24BD0B",
">. c #2AA21A",
",. c #2CA218",
"<. c #2CA01C",
"1. c #39A01A",
"2. c #2DB018",
"3. c #35BE1E",
"4. c #3B852F",
"5. c #3A8B2D",
"6. c #398C2E",
"7. c #38902A",
"8. c #3A952B",
"9. c #39962A",
"0. c #3A972B",
"q. c #3E972F",
"w. c #3B992B",
"e. c #3C9C2C",
"r. c #3F9F2F",
"t. c #3D8032",
"y. c #3F9731",
"u. c #34A721",
"i. c #37A525",
"p. c #3AAD27",
"a. c #3AA628",
"s. c #3BA42A",
"d. c #3CA62A",
"f. c #3DA22C",
"g. c #3EA32D",
"h. c #3BA929",
"j. c #3AAA28",
"k. c #3AB626",
"l. c #38B923",
"z. c #3DB22A",
"x. c #3DBE28",
"c. c #408135",
"v. c #429634",
"b. c #409D31",
"n. c #429834",
"m. c #41AD2F",
"M. c #40AE2E",
"N. c #42A432",
"B. c #44A434",
"V. c #43AA32",
"C. c #45AE34",
"Z. c #4BA935",
"A. c #45BB31",
"S. c #1BC200",
"D. c #1CC400",
"F. c #1CC600",
"G. c #1CC800",
"H. c #1DCC00",
"J. c #1DD000",
"K. c #1ED400",
"L. c #21C606",
"P. c #25CA0A",
"I. c #24D107",
"U. c #26D509",
"Y. c #26DA08",
"T. c #31C01A",
"R. c #30DA14",
"E. c #33D319",
"W. c #36D01C",
"Q. c #24EB03",
"!. c #21EC00",
"~. c #28E509",
"^. c #2CE00E",
"/. c #2DE80E",
"(. c #2EE90F",
"). c #24FC00",
"_. c #24FE00",
"`. c #25FF01",
"'. c #29FF05",
"]. c #29F008",
"[. c #2CFF09",
"{. c #2EFF0B",
"}. c #2CFF0F",
"|. c #30FF0D",
" X c #31FF0F",
".X c #2FE012",
"XX c #33FF11",
"oX c #36FF15",
"OX c #3AFF19",
"+X c #3DFF1D",
"@X c #3FFF1F",
"#X c #3AC523",
"$X c #39C921",
"%X c #3BCB23",
"&X c #41FF21",
"*X c #42FF23",
"=X c #48FF29",
"-X c #4BFF2D",
";X c #4EFF31",
":X c #52FF35",
">X c #59FF3D",
",X c #5CFF41",
"<X c #5EFF43",
"1X c #61FF47",
"2X c #6CFF53",
"3X c #6FFE58",
"4X c #91EF81",
"5X c #97E28A",
"6X c None",
/* pixels */
"6X6X6X6X6X6X6X6X6X6X6X6X6X6X6X6X6X6X6X6X6X6X6X6X6X6X6X6X6X6X6X6X",
"6X6X6X6X6X6X6X6X6X6X6X6X6X6X6X6X6X6X6X6X6X6X6X6X6X6X6X6X6X6X6X6X",
"6X6X6X6X6X6X6X6X6X6X6X6X6X6X6X6X6X6X6X6X6X6X6X6X6X6X6X6X6X6X6X6X",
"6X6X6X6X6X6X6X6X6X. 2.6X6X6X6X6X6X6X6X6X6X6X6X6X6X6X6X6X6X6X6X6X",
"6X6X6X6X6X6X6X6X6X. 5X* 6X6X6X6X6X6X6X6X6X6X6X6X6X6X6X6X6X6X6X6X",
"6X6X6X6X6X6X6X6X6X. 4X>Xs . 6X6X6X6X6X6X6X6X6X6X6X6X6X6X6X6X6X6X",
"6X6X6X6X6X6X6X6X6X. 3X2X1Xg . 6X6X6X6X6X6X6X6X6X6X6X6X6X6X6X6X6X",
"6X6X6X6X6X6X6X6X6X. <X>X<X1Xu.. 6X6X6X6X6X6X6X6X6X6X6X6X6X6X6X6X",
"6X6X6X6X6X6X6X6X6XO ;X=X-X;X:X!.$ 6X6X6X6X6X6X6X6X6X6X6X6X6X6X6X",
"6X6X6X6X6X6X6X6X6X@ @XoXOX@X&X&X`.= . 6X6X6X6X6X6X6X6X6X6X6X6X6X",
"6X6X6X6X6X6X6X6X6X- XX'.[.[. X XXX'.d o 6X6X6X6X6X6X6X6X6X6X6X6X",
"6X6X6X6X6X6X6X6X6X, '..X/.].).).`.`.`.h O 6X6X6X6X6X6X6X6X6X6X6X",
"6X6X6X6X6X6X6X6X6X6 /.x.#X$XW.E.R.^.~.!.c.& 6X6X6X6X6X6X6X6X6X6X",
"6X6X6X6X6X6X6X6X6X9 %XN.B.V.M.M.z.k.l.3.T.8.1 + 6X6X6X6X6X6X6X6X",
"6X6X6X6X6X6X6X6X6Xr C.i.a.s.g.b.r.n.v.v.q.w.8.p @ 6X6X6X6X6X6X6X",
"6X6X6X6X6X6X6X6X6Xr A.p.h.h.d.s.e.8.7.5.4.t.k j f a 6X6X6X6X6X6X",
"6X6X6X6X6X6X6X6X6XM [ ' ' T U S A C i y < + X   6.}.6X6X6X6X6X6X",
"6X6X6X6X6X6X6X6X6XN ..@.{ ] ' Y S m q 7 , @ % 2 , 6X6X6X6X6X6X6X",
"6X6X6X6X6X6X6X6X6XB %.#.o.| ] T I Z r 9 , 3 u , 6X6X6X6X6X6X6X6X",
"6X6X6X6X6X6X6X6X6XH L.S.&.+.{ ' U S x q r t , 6X6X6X6X6X6X6X6X6X",
"6X6X6X6X6X6X6X6X6XH I.H.F.&. .] Y P B 4 4 6X6X6X6X6X6X6X6X6X6X6X",
"6X6X6X6X6X6X6X6X6XR Y.K.G.&.o.] Y Q ^ 4 6X6X6X6X6X6X6X6X6X6X6X6X",
"6X6X6X6X6X6X6X6X6XR U.H.F.#. .' ( K 4 6X6X6X6X6X6X6X6X6X6X6X6X6X",
"6X6X6X6X6X6X6X6X6XR P.F.&.o. .>.V 4 6X6X6X6X6X6X6X6X6X6X6X6X6X6X",
"6X6X6X6X6X6X6X6X6X! :.#.o...<.m 6X6X6X6X6X6X6X6X6X6X6X6X6X6X6X6X",
"6X6X6X6X6X6X6X6X6X! ;.{ =.) l 6X6X6X6X6X6X6X6X6X6X6X6X6X6X6X6X6X",
"6X6X6X6X6X6X6X6X6X! *.,./ m 6X6X6X6X6X6X6X6X6X6X6X6X6X6X6X6X6X6X",
"6X6X6X6X6X6X6X6X6XL Z.H l 6X6X6X6X6X6X6X6X6X6X6X6X6X6X6X6X6X6X6X",
"6X6X6X6X6X6X6X6X6Xz 1.6X6X6X6X6X6X6X6X6X6X6X6X6X6X6X6X6X6X6X6X6X",
"6X6X6X6X6X6X6X6X6X6X6X6X6X6X6X6X6X6X6X6X6X6X6X6X6X6X6X6X6X6X6X6X",
"6X6X6X6X6X6X6X6X6X6X6X6X6X6X6X6X6X6X6X6X6X6X6X6X6X6X6X6X6X6X6X6X",
"6X6X6X6X6X6X6X6X6X6X6X6X6X6X6X6X6X6X6X6X6X6X6X6X6X6X6X6X6X6X6X6X"
};
