/* XPM */
static char *dasatree2_xpm[] = {
/* columns rows colors chars-per-pixel */
"24 24 136 2 ",
"   c #595806",
".  c #57570C",
"X  c #59580A",
"o  c #5C5B12",
"O  c #666607",
"+  c #676607",
"@  c #696802",
"#  c #696906",
"$  c #65640B",
"%  c #716F08",
"&  c #757400",
"*  c #767700",
"=  c #777602",
"-  c #737305",
";  c #7A7900",
":  c #7D7D02",
">  c #7B7C05",
",  c #767509",
"<  c #6A6910",
"1  c #74741E",
"2  c #737229",
"3  c #838100",
"4  c #818004",
"5  c #888600",
"6  c #868906",
"7  c #8F8D00",
"8  c #8B8906",
"9  c #8C8B06",
"0  c #828109",
"q  c #87880B",
"w  c #898A0A",
"e  c #8A8D09",
"r  c #8B8D0A",
"t  c #89880D",
"y  c #969400",
"u  c #959304",
"i  c #969606",
"p  c #999600",
"a  c #9C9A00",
"s  c #9E9C03",
"d  c #9E9D05",
"f  c #989609",
"g  c #999A0F",
"h  c #9B9C0D",
"j  c #848314",
"k  c #8F8E15",
"l  c #969111",
"z  c #969615",
"x  c #9A9917",
"c  c #93941D",
"v  c #98971A",
"b  c #999919",
"n  c #A3A100",
"m  c #A4A203",
"M  c #A6A400",
"N  c #A7A500",
"B  c #A7A501",
"V  c #A7A706",
"C  c #A9A705",
"Z  c #AFAD00",
"A  c #AFAD05",
"S  c #AFAF07",
"D  c #A4A50B",
"F  c #A0A00D",
"G  c #A0A10F",
"H  c #A7A50C",
"J  c #AAA80A",
"K  c #ADAD0A",
"L  c #B0AE00",
"P  c #B1AF02",
"I  c #B0AE0C",
"U  c #B5B301",
"Y  c #B6B400",
"T  c #B7B500",
"R  c #B3B104",
"E  c #B8B603",
"W  c #BBB900",
"Q  c #BDBB00",
"!  c #B3B208",
"~  c #ABA917",
"^  c #8A8923",
"/  c #8C8B20",
"(  c #81802D",
")  c #86852C",
"_  c #8C8B2B",
"`  c #92912A",
"'  c #99982A",
"]  c #98973F",
"[  c #A09F29",
"{  c #A7A623",
"}  c #A5A426",
"|  c #A7A527",
" . c #A8A624",
".. c #AEAC27",
"X. c #A5A32D",
"o. c #A7A62C",
"O. c #A5A42E",
"+. c #A7A62E",
"@. c #A7A62F",
"#. c #ABA928",
"$. c #ADAC2D",
"%. c #BFBD26",
"&. c #B9B82E",
"*. c #A3A236",
"=. c #A1A039",
"-. c #C3C100",
";. c #C3C102",
":. c #C5C300",
">. c #C9C703",
",. c #D0CE02",
"<. c #D5D302",
"1. c #CDCB1C",
"2. c #D3D111",
"3. c #D4D217",
"4. c #DCDA10",
"5. c #E0DE13",
"6. c #EBE806",
"7. c #E8E70A",
"8. c #ECEA0D",
"9. c #F0EE0E",
"0. c #FAF705",
"q. c #FEFC05",
"w. c #F6F308",
"e. c #FFFC11",
"r. c #FFFF11",
"t. c #FFFC15",
"y. c #FFFE17",
"u. c #C7C521",
"i. c #C8C624",
"p. c #FFFF29",
"a. c #FFFE2A",
"s. c #FDFB2F",
"d. c #F8F742",
"f. c #FFFF45",
"g. c #F8F753",
"h. c None",
/* pixels */
"h.h.h.h.h.h.h.h.h.h.h.h.h.h.h.h.h.h.h.h.h.h.h.h.",
"h.h.h.h.h.h.h.h.h.h.h.h.h.h.h.h.h.h.h.h.h.h.h.h.",
"h.h.h.h.h.h.h.j h.h.h.h.h.h.h.h.h.h.h.h.h.h.h.h.",
"h.h.h.h.h.h.h.] =.h.h.h.h.h.h.h.h.h.h.h.h.h.h.h.",
"h.h.h.h.h.h.h.*.g.X.o h.h.h.h.h.h.h.h.h.h.h.h.h.",
"h.h.h.h.h.h.h.{ f.d.&.% h.h.h.h.h.h.h.h.h.h.h.h.",
"h.h.h.h.h.h.h.~ p.p.s.5.4 h.h.h.h.h.h.h.h.h.h.h.",
"h.h.h.h.h.h.h.I r.e.y.y.7.t h.h.h.h.h.h.h.h.h.h.",
"h.h.h.h.h.h.h.R 9.8.w.0.q.6.k X h.h.h.h.h.h.h.h.",
"h.h.h.h.h.h.h.J i.%.u.1.3.4.2./ $ h.h.h.h.h.h.h.",
"h.h.h.h.h.h.h.v $.X.@.@.@.@.#.| ^ < h.h.h.h.h.h.",
"h.h.h.h.h.h.h.v .. .} [ ' ` _ ) ( 2 1 h.h.h.h.h.",
"h.h.h.h.h.h.h.i C m a u 8 0 , +   . c h.h.h.h.h.",
"h.h.h.h.h.h.h.d Y L N a 7 3 & @ O # h.h.h.h.h.h.",
"h.h.h.h.h.h.h.C ;.E L n y 5 ; = - h.h.h.h.h.h.h.",
"h.h.h.h.h.h.h.S ,.-.Y N p 9 : * h.h.h.h.h.h.h.h.",
"h.h.h.h.h.h.h.! <.:.T N f w > h.h.h.h.h.h.h.h.h.",
"h.h.h.h.h.h.h.K >.Q P G w h.h.h.h.h.h.h.h.h.h.h.",
"h.h.h.h.h.h.h.D E A G r h.h.h.h.h.h.h.h.h.h.h.h.",
"h.h.h.h.h.h.h.h H g r h.h.h.h.h.h.h.h.h.h.h.h.h.",
"h.h.h.h.h.h.h.v z 6 h.h.h.h.h.h.h.h.h.h.h.h.h.h.",
"h.h.h.h.h.h.h.l h.h.h.h.h.h.h.h.h.h.h.h.h.h.h.h.",
"h.h.h.h.h.h.h.h.h.h.h.h.h.h.h.h.h.h.h.h.h.h.h.h.",
"h.h.h.h.h.h.h.h.h.h.h.h.h.h.h.h.h.h.h.h.h.h.h.h."
};
