/* XPM */
static char *dasatree3_xpm[] = {
/* columns rows colors chars-per-pixel */
"24 24 135 2 ",
"   c #125906",
".  c #15590A",
"X  c #16580C",
"o  c #1D5C12",
"O  c #146707",
"+  c #156707",
"@  c #106902",
"#  c #136A06",
"$  c #17650B",
"%  c #0E7700",
"&  c #117500",
"*  c #127702",
"=  c #137305",
"-  c #117A00",
";  c #117D02",
":  c #127C05",
">  c #167108",
",  c #187609",
"<  c #1D6A10",
"1  c #29741E",
"2  c #337329",
"3  c #128300",
"4  c #168104",
"5  c #138800",
"6  c #148F00",
"7  c #148906",
"8  c #198B06",
"9  c #188C06",
"0  c #1A8209",
"q  c #178D09",
"w  c #1A880B",
"e  c #1A8A0A",
"r  c #198D0A",
"t  c #1F890D",
"y  c #159600",
"u  c #189504",
"i  c #199706",
"p  c #169900",
"a  c #169C00",
"s  c #199E03",
"d  c #199E05",
"f  c #1D9809",
"g  c #1E9D0D",
"h  c #209B0F",
"j  c #248414",
"k  c #268F15",
"l  c #279811",
"z  c #279815",
"x  c #299A17",
"c  c #2B941D",
"v  c #2A9A19",
"b  c #2B9B1A",
"n  c #17A300",
"m  c #17A600",
"M  c #17A700",
"N  c #18A701",
"B  c #1AA403",
"V  c #18AF00",
"C  c #1BA806",
"Z  c #1CA905",
"A  c #1DAF05",
"S  c #1EA60B",
"D  c #1FAE0A",
"F  c #19B000",
"G  c #1AB102",
"H  c #1BB501",
"J  c #1AB600",
"K  c #1AB700",
"L  c #1DB304",
"P  c #1EB007",
"I  c #1ABB00",
"U  c #1CB803",
"Y  c #1ABD00",
"T  c #1FB408",
"R  c #20A10D",
"E  c #21A10F",
"W  c #22A70C",
"Q  c #21AA0A",
"!  c #23B00C",
"~  c #2CAB17",
"^  c #2F8C20",
"/  c #328A23",
"(  c #39812D",
")  c #39862C",
"_  c #398C2B",
"`  c #39922A",
"'  c #3A992A",
"]  c #36A723",
"[  c #38A526",
"{  c #39A727",
"}  c #37A824",
"|  c #3AAE27",
" . c #3AA029",
".. c #3EA52D",
"X. c #3EA72C",
"o. c #3FA52E",
"O. c #3FA72E",
"+. c #3BAB28",
"@. c #3FAD2D",
"#. c #3CBF26",
"$. c #4C983F",
"%. c #40A72F",
"&. c #41B92E",
"*. c #46A337",
"=. c #47A139",
"-. c #1CC300",
";. c #1DC302",
":. c #1CC500",
">. c #1FC903",
",. c #1FD002",
"<. c #20D502",
"1. c #35CD1C",
"2. c #2CD311",
"3. c #2DDC10",
"4. c #32D417",
"5. c #26EB06",
"6. c #2AE80A",
"7. c #2DEC0D",
"8. c #28FA05",
"9. c #29FE05",
"0. c #2AF608",
"q. c #2EF00E",
"w. c #30E013",
"e. c #33FF11",
"r. c #37FF15",
"t. c #38FF17",
"y. c #39C721",
"u. c #3BC824",
"i. c #48FF29",
"p. c #49FF2A",
"a. c #4CFD2F",
"s. c #5CF842",
"d. c #61FF45",
"f. c #6BF853",
"g. c None",
/* pixels */
"g.g.g.g.g.g.g.g.g.g.g.g.g.g.g.g.g.g.g.g.g.g.g.g.",
"g.g.g.g.g.g.g.g.g.g.g.g.g.g.g.g.g.g.g.g.g.g.g.g.",
"g.g.g.g.g.g.g.j g.g.g.g.g.g.g.g.g.g.g.g.g.g.g.g.",
"g.g.g.g.g.g.g.$.=.g.g.g.g.g.g.g.g.g.g.g.g.g.g.g.",
"g.g.g.g.g.g.g.*.f...o g.g.g.g.g.g.g.g.g.g.g.g.g.",
"g.g.g.g.g.g.g.] d.s.&.> g.g.g.g.g.g.g.g.g.g.g.g.",
"g.g.g.g.g.g.g.~ i.i.a.w.4 g.g.g.g.g.g.g.g.g.g.g.",
"g.g.g.g.g.g.g.! e.e.r.t.6.t g.g.g.g.g.g.g.g.g.g.",
"g.g.g.g.g.g.g.L q.7.0.8.9.5.k . g.g.g.g.g.g.g.g.",
"g.g.g.g.g.g.g.Q u.#.y.1.4.3.2.^ $ g.g.g.g.g.g.g.",
"g.g.g.g.g.g.g.b @...%.%.X.X.+.{ / < g.g.g.g.g.g.",
"g.g.g.g.g.g.g.b | } [  .' ` _ ) ( 2 1 g.g.g.g.g.",
"g.g.g.g.g.g.g.i C N s u 8 0 , +   X c g.g.g.g.g.",
"g.g.g.g.g.g.g.s H V N a 6 3 * @ + + g.g.g.g.g.g.",
"g.g.g.g.g.g.g.C ;.I V n y 5 - * = g.g.g.g.g.g.g.",
"g.g.g.g.g.g.g.A ,.;.J N p 9 ; % g.g.g.g.g.g.g.g.",
"g.g.g.g.g.g.g.T <.:.J M f 8 : g.g.g.g.g.g.g.g.g.",
"g.g.g.g.g.g.g.D >.Y G E e g.g.g.g.g.g.g.g.g.g.g.",
"g.g.g.g.g.g.g.S U A E r g.g.g.g.g.g.g.g.g.g.g.g.",
"g.g.g.g.g.g.g.g W h q g.g.g.g.g.g.g.g.g.g.g.g.g.",
"g.g.g.g.g.g.g.b z 7 g.g.g.g.g.g.g.g.g.g.g.g.g.g.",
"g.g.g.g.g.g.g.l g.g.g.g.g.g.g.g.g.g.g.g.g.g.g.g.",
"g.g.g.g.g.g.g.g.g.g.g.g.g.g.g.g.g.g.g.g.g.g.g.g.",
"g.g.g.g.g.g.g.g.g.g.g.g.g.g.g.g.g.g.g.g.g.g.g.g."
};
