/* XPM */
static char *dasatree4e_xpm[] = {
/* columns rows colors chars-per-pixel */
"24 24 137 2 ",
"   c #062B59",
".  c #0A2D59",
"X  c #0C2D58",
"o  c #12335C",
"O  c #022F69",
"+  c #073167",
"@  c #073267",
"#  c #0B3365",
"$  c #06326A",
"%  c #10386A",
"&  c #053473",
"*  c #003377",
"=  c #003475",
"-  c #023577",
";  c #083771",
":  c #093976",
">  c #00377A",
",  c #02377D",
"<  c #04377C",
"1  c #1E4374",
"2  c #294A73",
"3  c #003A83",
"4  c #043C81",
"5  c #093F82",
"6  c #003C88",
"7  c #063C89",
"8  c #06418B",
"9  c #00408F",
"0  c #06418C",
"q  c #0B4188",
"w  c #0A418A",
"e  c #0D4589",
"r  c #09408D",
"t  c #09418D",
"y  c #144684",
"u  c #154C8F",
"i  c #004396",
"p  c #044595",
"a  c #064597",
"s  c #014499",
"d  c #00469C",
"f  c #03499E",
"g  c #05489E",
"h  c #094998",
"j  c #0F4B9B",
"k  c #0D4A9D",
"l  c #154F98",
"z  c #1D5094",
"x  c #115198",
"c  c #17529A",
"v  c #19529A",
"b  c #1A539B",
"n  c #2D5381",
"m  c #2C5486",
"M  c #23518A",
"N  c #20508C",
"B  c #2B568C",
"V  c #2A5992",
"C  c #2A5C99",
"Z  c #3F6697",
"A  c #0049A3",
"S  c #034BA4",
"D  c #004AA6",
"F  c #004BA7",
"G  c #014BA7",
"H  c #0D4DA1",
"J  c #0F4EA1",
"K  c #0B4EA6",
"L  c #064DA8",
"P  c #054EA9",
"I  c #004EAF",
"U  c #0C51A7",
"Y  c #0551AF",
"T  c #0A51AA",
"R  c #0A52AE",
"E  c #1759AB",
"W  c #004EB0",
"Q  c #0250B1",
"!  c #0751B0",
"~  c #0452B3",
"^  c #0152B5",
"/  c #0052B6",
"(  c #0052B7",
")  c #0C55B0",
"_  c #0854B4",
"`  c #0053BB",
"'  c #0354B8",
"]  c #0055BD",
"[  c #235EA7",
"{  c #265FA5",
"}  c #295EA0",
"|  c #245FA8",
" . c #2760A7",
".. c #2D63A5",
"X. c #2E63A5",
"o. c #2C63A7",
"O. c #2E64A7",
"+. c #2F64A7",
"@. c #2E65A7",
"#. c #2764AE",
"$. c #2863AB",
"%. c #2D66AD",
"&. c #3767A2",
"*. c #3867A1",
"=. c #266ABF",
"-. c #2D6CB9",
";. c #0057C3",
":. c #0258C3",
">. c #0058C5",
",. c #035CC9",
"<. c #025ED0",
"1. c #1C6BCD",
"2. c #0261D5",
"3. c #1168D3",
"4. c #176CD4",
"5. c #106BDC",
"6. c #216BC7",
"7. c #246DC8",
"8. c #066CEA",
"9. c #0A6EEA",
"0. c #136FE1",
"q. c #0D71EC",
"w. c #0E73F1",
"e. c #0872F6",
"r. c #0573FA",
"t. c #0575FE",
"y. c #117CFF",
"u. c #117DFF",
"i. c #157EFF",
"p. c #177FFF",
"a. c #298BFF",
"s. c #2A8AFF",
"d. c #2F8BFC",
"f. c #4294F6",
"g. c #459BFF",
"h. c #539EFB",
"j. c None",
/* pixels */
"j.j.j.j.j.j.j.j.j.j.j.j.j.j.j.j.j.j.j.j.j.j.j.j.",
"j.j.j.j.j.j.j.j.j.j.j.j.j.j.j.j.j.j.j.j.j.j.j.j.",
"j.j.j.j.j.j.j.j.j.j.j.j.j.j.j.j.j.j.j.j.j.j.j.j.",
"j.j.j.j.j.j.j.j.j.j.j.j.j.j.j.j.j.j.j.j.j.j.j.j.",
"j.j.j.j.j.j.j.j.j.j.j.j.j.j.j.j.j.j.j.j.j.j.j.j.",
"j.j.j.j.j.j.j.j.j.j.j.j.j.j.j.j.j.j.j.j.j.j.j.j.",
"j.j.j.j.j.j.j.j.j.j.j.j.j.j.j.j.j.j.j.j.j.j.j.j.",
"j.j.x b k K R _ ~ L g a b c T ~ ) E | &.Z y j.j.",
"j.j.j.l U ^ ,.2.<.:.^ L #.%.7.w.y.a.g.h.*.j.j.j.",
"j.j.j.7 k Y ] :.:.` I D | X.=.q.y.s.f.+.j.j.j.j.",
"j.j.j.j.t J ^ ^ ^ W D f | +.6.e.i.d.-.o j.j.j.j.",
"j.j.j.j.j.t H D D A d a C +.1.r.p.0.; j.j.j.j.j.",
"j.j.j.j.j.j.w h s i 9 8 C o.4.t.9.4 j.j.j.j.j.j.",
"j.j.j.j.j.j.j.w 8 3 3 q V o.5.8.e j.j.j.j.j.j.j.",
"j.j.j.j.j.j.j.< , > - : B $.3.u j.j.j.j.j.j.j.j.",
"j.j.j.j.j.j.j.j.- - O @ m  .N . j.j.j.j.j.j.j.j.",
"j.j.j.j.j.j.j.j.j.& @   n M # j.j.j.j.j.j.j.j.j.",
"j.j.j.j.j.j.j.j.j.j.$ X 2 % j.j.j.j.j.j.j.j.j.j.",
"j.j.j.j.j.j.j.j.j.j.j.z 1 j.j.j.j.j.j.j.j.j.j.j.",
"j.j.j.j.j.j.j.j.j.j.j.j.j.j.j.j.j.j.j.j.j.j.j.j.",
"j.j.j.j.j.j.j.j.j.j.j.j.j.j.j.j.j.j.j.j.j.j.j.j.",
"j.j.j.j.j.j.j.j.j.j.j.j.j.j.j.j.j.j.j.j.j.j.j.j.",
"j.j.j.j.j.j.j.j.j.j.j.j.j.j.j.j.j.j.j.j.j.j.j.j.",
"j.j.j.j.j.j.j.j.j.j.j.j.j.j.j.j.j.j.j.j.j.j.j.j."
};
