/* XPM */
static char *dasa_xpm[] = {
/* columns rows colors chars-per-pixel */
"24 24 167 2 ",
"   c #616167",
".  c #6B6A71",
"X  c #7E6874",
"o  c #74747B",
"O  c #78787F",
"+  c #DB6211",
"@  c #DB6118",
"#  c #CD741F",
"$  c #EC6C12",
"%  c #DC6237",
"&  c #D46F30",
"*  c #D37336",
"=  c #846F79",
"-  c #D3725B",
";  c #E16841",
":  c #E9980D",
">  c #E9A013",
",  c #FFB313",
"<  c #FFBD1A",
"1  c #D88927",
"2  c #DF8B32",
"3  c #EAA442",
"4  c #DB8368",
"5  c #183390",
"6  c #0037A0",
"7  c #083BA0",
"8  c #023DA8",
"9  c #0740A9",
"0  c #0B41A8",
"q  c #0D45B5",
"w  c #0446BD",
"e  c #0946B9",
"r  c #014BBF",
"t  c #1445B1",
"y  c #1F4DB0",
"u  c #2451B0",
"i  c #255EBC",
"p  c #2D61BD",
"a  c #3B61B5",
"s  c #3362BB",
"d  c #3B69BF",
"f  c #43478E",
"g  c #757880",
"h  c #7B7B83",
"j  c #4660AF",
"k  c #4B60AD",
"l  c #5164AB",
"z  c #5C6BAA",
"x  c #4261B1",
"c  c #436DBF",
"v  c #566BB4",
"b  c #4B72BF",
"n  c #5276BF",
"m  c #5779BF",
"M  c #5C7BBF",
"N  c #7575AB",
"B  c #617EBF",
"V  c #757CB3",
"C  c #0147C1",
"Z  c #014BC6",
"A  c #0C63DF",
"S  c #1267DF",
"D  c #166ADF",
"F  c #1C6EDF",
"G  c #2C65C3",
"H  c #3667C0",
"J  c #2473DF",
"K  c #2B77DF",
"L  c #2F79DF",
"P  c #337CDF",
"I  c #0562E2",
"U  c #2C7CEB",
"Y  c #4773C4",
"T  c #517BC8",
"R  c #437FE1",
"E  c #6580BF",
"W  c #6C84BE",
"Q  c #7383BB",
"!  c #7688BC",
"~  c #2E83EF",
"^  c #3D85E1",
"/  c #3381EA",
"(  c #3B86EB",
")  c #3F88EB",
"_  c #598DDF",
"`  c #6F87C0",
"'  c #7187C0",
"]  c #7F93C4",
"[  c #6D96DC",
"{  c #438BEB",
"}  c #749EE2",
"|  c #4CA2FE",
" . c #53A6FF",
".. c #57A8FF",
"X. c #5DACFF",
"o. c #66A4EE",
"O. c #75A0E6",
"+. c #7BA2E1",
"@. c #71A0EB",
"#. c #7BA6EA",
"$. c #65B1FF",
"%. c #6CB6FF",
"&. c #74BAFF",
"*. c #7BBFFF",
"=. c #7FC1FF",
"-. c #8385B4",
";. c #818ABC",
":. c #CF968E",
">. c #D29484",
",. c #D89586",
"<. c #D3918B",
"1. c #D69F94",
"2. c #DC9A94",
"3. c #D6A5A8",
"4. c #DDA6A8",
"5. c #D3ADB5",
"6. c #C4B2BA",
"7. c #DFB0B4",
"8. c #DFB9B6",
"9. c #E4AFB2",
"0. c #E2BABB",
"q. c #808EC0",
"w. c #8090C1",
"e. c #82A6E1",
"r. c #86A9E1",
"t. c #8BABE1",
"y. c #95B1E3",
"u. c #99B5E5",
"i. c #A0B6E5",
"p. c #A6BBE6",
"a. c #A8BDE7",
"s. c #A9BEE8",
"d. c #85C5FF",
"f. c #8CC9FF",
"g. c #90CDFF",
"h. c #9FD4FB",
"j. c #C2C2C3",
"k. c #C9C9CB",
"l. c #DFC0C6",
"z. c #D3C1CA",
"x. c #D9C6C9",
"c. c #C6C9D0",
"v. c #CDCDD2",
"b. c #DECBD0",
"n. c #D2D3D5",
"m. c #D0D3DA",
"M. c #D9DBDE",
"N. c #EAC3C7",
"B. c #E2CDCF",
"V. c #EBCACB",
"C. c #E1D3D8",
"Z. c #EBDADC",
"A. c #E4E3E1",
"S. c #E7E7EC",
"D. c #EAE4E9",
"F. c #E9E9ED",
"G. c #E7EAF2",
"H. c #ECEDF3",
"J. c #F0EDF0",
"K. c #EDF1F6",
"L. c #F4F2F5",
"P. c #F8F5F6",
"I. c #FCF9F7",
"U. c #F4F6FB",
"Y. c #FAF7F8",
"T. c #FEFDFE",
"R. c None",
/* pixels */
"R.R.R.R.R.R.R.R.R.R.R.R.R.R.R.R.R.R.R.R.R.R.R.R.",
"R.R.R.R.R.R.R.R.R.R.R.R.R.R.R.R.R.R.R.R.R.R.R.R.",
"R.f ! ` W ` ` B T M m n n b b c c d d d H s 5 R.",
"R.z h.g.f.d.=.=.d.&.&.&.%.%.$.X.X.....| | | u R.",
"R.z o.{ { { { ( ( ( ( / U ( U / U U U U U ~ y R.",
"R.l [ u.a.a.p.a.p.p.a.v k s.a.a.a.a.a.a.p._ t R.",
"R.k t.U.T.T.T.T.T.T.T.-.N A.j.Y.T.T.T.T.T.#.t R.",
"R.k r.U.T.T.T.T.T.T.T.-.V j.O L.I.V.0.8.Z.#.t R.",
"R.j r.U.T.T.T.T.T.T.T.;.V j.O M.b.4 3 1 1.#.q R.",
"R.x e.U.T.T.T.T.T.T.T.;.V k.  h = & , : ,.#.q R.",
"R.x e.U.T.T.T.T.T.T.T.;.Q j.o n.z.; $ @ 2.#.e R.",
"R.a e.U.T.T.T.T.T.T.T.;.Q j.h J.L.N.9.7.Z.O.e R.",
"R.a +.U.T.T.T.T.T.T.T.q.Q j.h F.L.K.K.G.H.O.e R.",
"R.a +.U.T.T.T.T.T.T.T.! Q 6.h F.H.H.K.G.F.O.w R.",
"R.s +.U.T.T.T.T.I.T.T.] Q j.h F.H.l.5.5.C.O.w R.",
"R.s +.U.T.T.T.T.I.U.I.] W j.o m.z.- 2 # :.@.w R.",
"R.p +.U.T.T.T.U.U.Y.I.] ! k.. O X * < > >.@.C R.",
"R.p } U.T.I.T.I.U.L.U.] W F.v.k.6.% $ + <.@.C R.",
"R.G } U.T.T.I.I.Y.P.T.w.W P.J.J.D.0.4.3.B.} C R.",
"R.G _ y.u.u.u.u.u.y.u.T Y y.t.t.t.t.r.r.r.{ Z R.",
"R.p ^ P P L K K J J J F F F D D S A A A A I C R.",
"R.7 0 0 0 0 0 0 0 0 8 0 8 9 8 8 8 8 8 8 6 8 6 R.",
"R.R.R.R.R.R.R.R.R.R.R.R.R.R.R.R.R.R.R.R.R.R.R.R.",
"R.R.R.R.R.R.R.R.R.R.R.R.R.R.R.R.R.R.R.R.R.R.R.R."
};
