/* XPM */
static char *dasatree3e_xpm[] = {
/* columns rows colors chars-per-pixel */
"24 24 135 2 ",
"   c #125906",
".  c #15590A",
"X  c #16580C",
"o  c #1D5C12",
"O  c #146707",
"+  c #156707",
"@  c #106902",
"#  c #136A06",
"$  c #17650B",
"%  c #0E7700",
"&  c #117500",
"*  c #127702",
"=  c #137305",
"-  c #117A00",
";  c #117D02",
":  c #127C04",
">  c #167108",
",  c #187609",
"<  c #1D6A10",
"1  c #29741E",
"2  c #337329",
"3  c #128300",
"4  c #168104",
"5  c #138800",
"6  c #148F00",
"7  c #148906",
"8  c #198B06",
"9  c #188C06",
"0  c #1A8209",
"q  c #178D09",
"w  c #1A880B",
"e  c #1A8A0A",
"r  c #198D09",
"t  c #1F890D",
"y  c #159600",
"u  c #189504",
"i  c #199706",
"p  c #169901",
"a  c #169C00",
"s  c #199E03",
"d  c #199E05",
"f  c #1D9809",
"g  c #1E9D0D",
"h  c #209B0F",
"j  c #248414",
"k  c #268F15",
"l  c #279811",
"z  c #269815",
"x  c #299A17",
"c  c #2B941D",
"v  c #2A9A19",
"b  c #2B9B1A",
"n  c #17A300",
"m  c #17A600",
"M  c #17A700",
"N  c #18A701",
"B  c #1AA403",
"V  c #18AF00",
"C  c #1BA806",
"Z  c #1CA905",
"A  c #1DAF05",
"S  c #1EA60B",
"D  c #1FAE0A",
"F  c #19B000",
"G  c #1AB102",
"H  c #1BB501",
"J  c #1AB600",
"K  c #1AB700",
"L  c #1DB304",
"P  c #1EB007",
"I  c #1ABB00",
"U  c #1CB803",
"Y  c #1ABD00",
"T  c #1FB408",
"R  c #20A10D",
"E  c #21A10F",
"W  c #22A70C",
"Q  c #21AA0A",
"!  c #23B00C",
"~  c #2CAB17",
"^  c #2F8C20",
"/  c #328A23",
"(  c #39812D",
")  c #39862C",
"_  c #398C2B",
"`  c #39922A",
"'  c #3A992A",
"]  c #36A723",
"[  c #38A526",
"{  c #39A727",
"}  c #37A824",
"|  c #3AAE27",
" . c #3AA029",
".. c #3FA52D",
"X. c #3EA72C",
"o. c #3FA52E",
"O. c #3FA72E",
"+. c #3BAB28",
"@. c #3FAD2D",
"#. c #3CBF26",
"$. c #4C973F",
"%. c #40A72F",
"&. c #41B92D",
"*. c #46A337",
"=. c #47A138",
"-. c #1CC300",
";. c #1DC302",
":. c #1CC500",
">. c #1FC903",
",. c #1FD002",
"<. c #20D502",
"1. c #35CD1C",
"2. c #2CD311",
"3. c #2DDC10",
"4. c #32D417",
"5. c #26EA06",
"6. c #2AEA0A",
"7. c #2DEC0D",
"8. c #28FA05",
"9. c #29FE05",
"0. c #2AF608",
"q. c #2EF10E",
"w. c #30E113",
"e. c #33FF11",
"r. c #37FF15",
"t. c #38FF17",
"y. c #39C721",
"u. c #3BC824",
"i. c #48FF29",
"p. c #49FF2A",
"a. c #4CFC2F",
"s. c #5CF642",
"d. c #61FF45",
"f. c #6BFB53",
"g. c None",
/* pixels */
"g.g.g.g.g.g.g.g.g.g.g.g.g.g.g.g.g.g.g.g.g.g.g.g.",
"g.g.g.g.g.g.g.g.g.g.g.g.g.g.g.g.g.g.g.g.g.g.g.g.",
"g.g.g.g.g.g.g.g.g.g.g.g.g.g.g.g.g.g.g.g.g.g.g.g.",
"g.g.g.g.g.g.g.g.g.g.g.g.g.g.g.g.g.g.g.g.g.g.g.g.",
"g.g.g.g.g.g.g.g.g.g.g.g.g.g.g.g.g.g.g.g.g.g.g.g.",
"g.g.g.g.g.g.g.g.g.g.g.g.g.g.g.g.g.g.g.g.g.g.g.g.",
"g.g.g.g.g.g.g.g.g.g.g.g.g.g.g.g.g.g.g.g.g.g.g.g.",
"g.g.l b g S D T L C d i b x Q L ! ~ ] *.$.j g.g.",
"g.g.g.z W U >.<.,.;.J C | @.u.q.e.p.d.f.=.g.g.g.",
"g.g.g.7 h A Y :.;.I V B } o.#.7.e.p.s.o.g.g.g.g.",
"g.g.g.g.r R G J J V m s [ o.u.0.r.a.&.o g.g.g.g.",
"g.g.g.g.g.r R N m n a i  .o.1.8.t.w.> g.g.g.g.g.",
"g.g.g.g.g.g.e f p y 6 8 ' X.4.9.6.4 g.g.g.g.g.g.",
"g.g.g.g.g.g.g.e 8 5 3 0 ` X.3.5.t g.g.g.g.g.g.g.",
"g.g.g.g.g.g.g.: ; ; & , _ +.2.k g.g.g.g.g.g.g.g.",
"g.g.g.g.g.g.g.g.% & @ + ) { ^ . g.g.g.g.g.g.g.g.",
"g.g.g.g.g.g.g.g.g.= O   ( / $ g.g.g.g.g.g.g.g.g.",
"g.g.g.g.g.g.g.g.g.g.# X 2 < g.g.g.g.g.g.g.g.g.g.",
"g.g.g.g.g.g.g.g.g.g.g.c 1 g.g.g.g.g.g.g.g.g.g.g.",
"g.g.g.g.g.g.g.g.g.g.g.g.g.g.g.g.g.g.g.g.g.g.g.g.",
"g.g.g.g.g.g.g.g.g.g.g.g.g.g.g.g.g.g.g.g.g.g.g.g.",
"g.g.g.g.g.g.g.g.g.g.g.g.g.g.g.g.g.g.g.g.g.g.g.g.",
"g.g.g.g.g.g.g.g.g.g.g.g.g.g.g.g.g.g.g.g.g.g.g.g.",
"g.g.g.g.g.g.g.g.g.g.g.g.g.g.g.g.g.g.g.g.g.g.g.g."
};
