/* XPM */
static char *dasatree2_xpm[] = {
/* columns rows colors chars-per-pixel */
"32 32 209 2 ",
"   c #474603",
".  c #4E4D00",
"X  c #4F4E01",
"o  c #504F00",
"O  c #565500",
"+  c #515005",
"@  c #585700",
"#  c #5C5B00",
"$  c #5C5B02",
"%  c #5B5A07",
"&  c #5C5B04",
"*  c #54530A",
"=  c #5A5910",
"-  c #646300",
";  c #666701",
":  c #676605",
">  c #686700",
",  c #6A6900",
"<  c #696A00",
"1  c #63620B",
"2  c #6C6D0B",
"3  c #6E6D0C",
"4  c #717001",
"5  c #727100",
"6  c #747302",
"7  c #767500",
"8  c #787700",
"9  c #777800",
"0  c #777804",
"q  c #797A00",
"w  c #7C7B00",
"e  c #7C7B02",
"r  c #7E7D00",
"t  c #7D7F03",
"y  c #727108",
"u  c #757608",
"i  c #7D7C09",
"p  c #6B6A15",
"a  c #6D6C17",
"s  c #61601B",
"d  c #6A691C",
"f  c #747529",
"g  c #72712E",
"h  c #78772A",
"j  c #777635",
"k  c #7B7A33",
"l  c #807E00",
"z  c #807F32",
"x  c #828000",
"c  c #828400",
"v  c #838501",
"b  c #818600",
"n  c #868400",
"m  c #848600",
"M  c #818204",
"N  c #838207",
"B  c #848505",
"V  c #878605",
"C  c #848507",
"Z  c #898703",
"A  c #868806",
"S  c #8A8800",
"D  c #8A8F01",
"F  c #8E8C00",
"G  c #8A8C06",
"H  c #8B8D07",
"J  c #87880C",
"K  c #898E08",
"L  c #8D8F09",
"P  c #8B8F0D",
"I  c #908E00",
"U  c #8E9008",
"Y  c #8C910B",
"T  c #8E900A",
"R  c #8C910D",
"E  c #8D920C",
"W  c #949200",
"Q  c #989600",
"!  c #9A9800",
"~  c #9E9C00",
"^  c #93910B",
"/  c #888911",
"(  c #8E9210",
")  c #979917",
"_  c #9C9A12",
"`  c #A09E00",
"'  c #A19F0D",
"]  c #A0921A",
"[  c #9EA01C",
"{  c #A2A000",
"}  c #A4A200",
"|  c #A6A400",
" . c #A6A404",
".. c #AAA800",
"X. c #ABA901",
"o. c #ACAA00",
"O. c #AEAC00",
"+. c #ADAB07",
"@. c #A9A70F",
"#. c #B0AE00",
"$. c #B1AF05",
"%. c #B0AE0C",
"&. c #B2B000",
"*. c #B4B200",
"=. c #B6B400",
"-. c #B8B600",
";. c #BAB800",
":. c #BCBA00",
">. c #BEBC00",
",. c #BCBA06",
"<. c #BDBB0B",
"1. c #A2A018",
"2. c #A0A21A",
"3. c #B0AF18",
"4. c #BEBC1E",
"5. c #85842F",
"6. c #8B8A2D",
"7. c #8B8C2E",
"8. c #908F2A",
"9. c #95932B",
"0. c #96952A",
"q. c #97962B",
"w. c #97952F",
"e. c #99982B",
"r. c #9C9B2C",
"t. c #9F9E2F",
"y. c #818035",
"u. c #979631",
"i. c #969534",
"p. c #989734",
"a. c #9D9C31",
"s. c #A7A521",
"d. c #A5A425",
"f. c #ADAB27",
"g. c #A4A32A",
"h. c #A6A528",
"j. c #A6A52A",
"k. c #A2A12C",
"l. c #A3A22D",
"z. c #A9A729",
"x. c #AAA928",
"c. c #ADAB2F",
"v. c #AEAD2E",
"b. c #B6B426",
"n. c #B9B723",
"m. c #B2B02A",
"M. c #BEBD28",
"N. c #A4A332",
"B. c #A4A334",
"V. c #A9A235",
"C. c #AAA832",
"Z. c #AEAD34",
"A. c #BBB931",
"S. c #C0BE1A",
"D. c #C2C000",
"F. c #C4C200",
"G. c #C6C400",
"H. c #C6C406",
"J. c #C8C600",
"K. c #CCCA00",
"L. c #CAC80A",
"P. c #D0CE00",
"I. c #D1CE07",
"U. c #D4D200",
"Y. c #D5D209",
"T. c #DAD808",
"R. c #D0CE1C",
"E. c #DAD814",
"W. c #D3D119",
"Q. c #E0DE0E",
"!. c #E0DE12",
"~. c #EBE803",
"^. c #ECE900",
"/. c #E5E309",
"(. c #E8E60E",
"). c #E9E60F",
"_. c #F0ED08",
"`. c #FCF900",
"'. c #FEFB00",
"]. c #FFFC01",
"[. c #FFFC05",
"{. c #FFFC09",
"}. c #FFFC0B",
"|. c #FFFC0D",
" X c #FFFC0F",
".X c #FCFF0F",
"XX c #FFFC11",
"oX c #FFFC15",
"OX c #FFFC19",
"+X c #FFFC1D",
"@X c #FFFC1F",
"#X c #C5C423",
"$X c #C9C721",
"%X c #CBC923",
"&X c #FFFC21",
"*X c #FFFC23",
"=X c #FFFC29",
"-X c #FFFD2D",
";X c #FFFD31",
":X c #FFFD35",
">X c #FFFD3D",
",X c #FFFD41",
"<X c #FFFD43",
"1X c #FFFD47",
"2X c #FFFD53",
"3X c #FFFD57",
"4X c #EFEE81",
"5X c #E2E18A",
"6X c None",
/* pixels */
"6X6X6X6X6X6X6X6X6X6X6X6X6X6X6X6X6X6X6X6X6X6X6X6X6X6X6X6X6X6X6X6X",
"6X6X6X6X6X6X6X6X6X6X6X6X6X6X6X6X6X6X6X6X6X6X6X6X6X6X6X6X6X6X6X6X",
"6X6X6X6X6X6X6X6X6X6X6X6X6X6X6X6X6X6X6X6X6X6X6X6X6X6X6X6X6X6X6X6X",
"6X6X6X6X6X6X6X6X6X. 3.6X6X6X6X6X6X6X6X6X6X6X6X6X6X6X6X6X6X6X6X6X",
"6X6X6X6X6X6X6X6X6X. 5X* 6X6X6X6X6X6X6X6X6X6X6X6X6X6X6X6X6X6X6X6X",
"6X6X6X6X6X6X6X6X6X. 4X>Xs . 6X6X6X6X6X6X6X6X6X6X6X6X6X6X6X6X6X6X",
"6X6X6X6X6X6X6X6X6X. 3X2X1Xg . 6X6X6X6X6X6X6X6X6X6X6X6X6X6X6X6X6X",
"6X6X6X6X6X6X6X6X6X. <X>X<X1Xs.. 6X6X6X6X6X6X6X6X6X6X6X6X6X6X6X6X",
"6X6X6X6X6X6X6X6X6XO ;X=X-X;X:X^.+ 6X6X6X6X6X6X6X6X6X6X6X6X6X6X6X",
"6X6X6X6X6X6X6X6X6X# @XoXOX+X&X&X].= . 6X6X6X6X6X6X6X6X6X6X6X6X6X",
"6X6X6X6X6X6X6X6X6X- XX[.{.{. X XXX[.d o 6X6X6X6X6X6X6X6X6X6X6X6X",
"6X6X6X6X6X6X6X6X6X, [.!.)._.`.`.].].`.h O 6X6X6X6X6X6X6X6X6X6X6X",
"6X6X6X6X6X6X6X6X6X4 ).M.#X$XR.W.E.Q./.^.y.& 6X6X6X6X6X6X6X6X6X6X",
"6X6X6X6X6X6X6X6X6X6 %XN.B.C.v.v.m.b.n.4.S.q.1 @ 6X6X6X6X6X6X6X6X",
"6X6X6X6X6X6X6X6X6Xe Z.d.h.g.l.a.a.i.i.u.w.e.9.p # 6X6X6X6X6X6X6X",
"6X6X6X6X6X6X6X6X6Xt A.f.x.z.h.l.r.q.8.6.5.z k j f a 6X6X6X6X6X6X",
"6X6X6X6X6X6X6X6X6Xc  .{ { ~ ! F Z N i y : # .   7..X6X6X6X6X6X6X",
"6X6X6X6X6X6X6X6X6XC $.O.O.| ~ ! F n t 4 > # % 2 ; 6X6X6X6X6X6X6X",
"6X6X6X6X6X6X6X6X6XA ,.;.&.O.| ~ W S l 7 , 3 u , 6X6X6X6X6X6X6X6X",
"6X6X6X6X6X6X6X6X6XG H.D.>.=.X.{ Q F l 8 t 0 , 6X6X6X6X6X6X6X6X6X",
"6X6X6X6X6X6X6X6X6XG I.K.G.;.&.| ! I Z q 9 6X6X6X6X6X6X6X6X6X6X6X",
"6X6X6X6X6X6X6X6X6XT T.U.G.>.&.| ! ^ / 8 6X6X6X6X6X6X6X6X6X6X6X6X",
"6X6X6X6X6X6X6X6X6XT Y.P.G.;.O.| _ J 8 6X6X6X6X6X6X6X6X6X6X6X6X6X",
"6X6X6X6X6X6X6X6X6XT L.F.>.=.X.2.C 8 6X6X6X6X6X6X6X6X6X6X6X6X6X6X",
"6X6X6X6X6X6X6X6X6XR <.-.&.+.[ c 6X6X6X6X6X6X6X6X6X6X6X6X6X6X6X6X",
"6X6X6X6X6X6X6X6X6XR %.X.@.) b 6X6X6X6X6X6X6X6X6X6X6X6X6X6X6X6X6X",
"6X6X6X6X6X6X6X6X6XR ' 1.( n 6X6X6X6X6X6X6X6X6X6X6X6X6X6X6X6X6X6X",
"6X6X6X6X6X6X6X6X6XP V.K c 6X6X6X6X6X6X6X6X6X6X6X6X6X6X6X6X6X6X6X",
"6X6X6X6X6X6X6X6X6XD ] 6X6X6X6X6X6X6X6X6X6X6X6X6X6X6X6X6X6X6X6X6X",
"6X6X6X6X6X6X6X6X6X6X6X6X6X6X6X6X6X6X6X6X6X6X6X6X6X6X6X6X6X6X6X6X",
"6X6X6X6X6X6X6X6X6X6X6X6X6X6X6X6X6X6X6X6X6X6X6X6X6X6X6X6X6X6X6X6X",
"6X6X6X6X6X6X6X6X6X6X6X6X6X6X6X6X6X6X6X6X6X6X6X6X6X6X6X6X6X6X6X6X"
};
