/* XPM */
static char *dasatree5_xpm[] = {
/* columns rows colors chars-per-pixel */
"24 24 135 2 ",
"   c #470659",
".  c #470C58",
"X  c #480A59",
"o  c #4C125C",
"O  c #520767",
"+  c #510B65",
"@  c #510269",
"#  c #55066A",
"$  c #56106A",
"%  c #5D0573",
"&  c #5B0075",
"*  c #5F0077",
"=  c #5E0277",
"-  c #590871",
";  c #5D0976",
":  c #5F007A",
">  c #64027D",
",  c #64057C",
"<  c #621E74",
"1  c #632973",
"2  c #650083",
"3  c #650481",
"4  c #660982",
"5  c #690088",
"6  c #6D068B",
"7  c #6F008F",
"8  c #6F068C",
"9  c #6E0B88",
"0  c #6E0D89",
"q  c #710689",
"w  c #700A8A",
"e  c #73098D",
"r  c #730A8D",
"t  c #6B1484",
"y  c #74158F",
"u  c #740096",
"i  c #750495",
"p  c #780697",
"a  c #770099",
"s  c #79009C",
"d  c #7C039E",
"f  c #7E059E",
"g  c #790998",
"h  c #7E0F9B",
"j  c #7C1D94",
"k  c #771198",
"l  c #7C1598",
"z  c #7D179A",
"x  c #7E199A",
"c  c #7F1A9B",
"v  c #6F2D81",
"b  c #722C86",
"n  c #73238A",
"m  c #74208C",
"M  c #762B8C",
"N  c #7B2A92",
"B  c #7F00A3",
"V  c #800D9D",
"C  c #802A99",
"Z  c #843F98",
"A  c #8103A4",
"S  c #8100A6",
"D  c #8200A7",
"F  c #8201A7",
"G  c #820DA1",
"H  c #830FA1",
"J  c #860BA6",
"K  c #840CA7",
"L  c #8405A9",
"P  c #8506A8",
"I  c #8800AF",
"U  c #8905AF",
"Y  c #860AAA",
"T  c #8B0AAE",
"R  c #8A17AB",
"E  c #8800B0",
"W  c #8A02B1",
"Q  c #8C07B0",
"!  c #8C04B3",
"~  c #8D01B5",
"^  c #8E00B6",
"/  c #8E00B7",
"(  c #8B0CB0",
")  c #8F08B4",
"_  c #8F03B8",
"`  c #9100BB",
"'  c #9300BD",
"]  c #8A23A7",
"[  c #8926A5",
"{  c #8B27A7",
"}  c #8529A0",
"|  c #8A2DA5",
" . c #8A2EA5",
".. c #8C2CA7",
"X. c #8C2EA7",
"o. c #8C2FA7",
"O. c #8A24A8",
"+. c #8D28AB",
"@. c #9027AE",
"#. c #902DAD",
"$. c #8A37A2",
"%. c #8939A1",
"&. c #9C26BF",
"*. c #9A2EB9",
"=. c #9800C3",
"-. c #9802C3",
";. c #9900C5",
":. c #9D03C9",
">. c #A51CCD",
",. c #A202D0",
"<. c #A602D5",
"1. c #A811D3",
"2. c #AA17D4",
"3. c #AF10DC",
"4. c #A221C7",
"5. c #A324C8",
"6. c #B806EB",
"7. c #B80AE8",
"8. c #BA0DEC",
"9. c #B313E0",
"0. c #BE0EF0",
"q. c #C008F6",
"w. c #C405FA",
"e. c #C705FE",
"r. c #CA11FF",
"t. c #CD11FF",
"y. c #CB15FF",
"u. c #CD17FF",
"i. c #CF2FFD",
"p. c #D229FF",
"a. c #D02AFF",
"s. c #D042F8",
"d. c #DA45FF",
"f. c #D553F8",
"g. c None",
/* pixels */
"g.g.g.g.g.g.g.g.g.g.g.g.g.g.g.g.g.g.g.g.g.g.g.g.",
"g.g.g.g.g.g.g.g.g.g.g.g.g.g.g.g.g.g.g.g.g.g.g.g.",
"g.g.g.g.g.g.g.t g.g.g.g.g.g.g.g.g.g.g.g.g.g.g.g.",
"g.g.g.g.g.g.g.Z %.g.g.g.g.g.g.g.g.g.g.g.g.g.g.g.",
"g.g.g.g.g.g.g.$.f.| o g.g.g.g.g.g.g.g.g.g.g.g.g.",
"g.g.g.g.g.g.g.] d.s.*.- g.g.g.g.g.g.g.g.g.g.g.g.",
"g.g.g.g.g.g.g.R p.p.i.9.3 g.g.g.g.g.g.g.g.g.g.g.",
"g.g.g.g.g.g.g.( t.r.y.u.7.0 g.g.g.g.g.g.g.g.g.g.",
"g.g.g.g.g.g.g.! 0.8.q.w.e.6.y X g.g.g.g.g.g.g.g.",
"g.g.g.g.g.g.g.Y 5.&.4.>.2.3.1.m + g.g.g.g.g.g.g.",
"g.g.g.g.g.g.g.z #.| | o.X.X.+.{ n $ g.g.g.g.g.g.",
"g.g.g.g.g.g.g.x @.O.{ } N N M b v 1 < g.g.g.g.g.",
"g.g.g.g.g.g.g.p L A d i 8 4 ; O   . j g.g.g.g.g.",
"g.g.g.g.g.g.g.f ^ I S s 7 5 & @ O # g.g.g.g.g.g.",
"g.g.g.g.g.g.g.P -.` E B u 5 : : % g.g.g.g.g.g.g.",
"g.g.g.g.g.g.g.Q ,.-.^ S a 8 > = g.g.g.g.g.g.g.g.",
"g.g.g.g.g.g.g.) <.;.^ F g 9 , g.g.g.g.g.g.g.g.g.",
"g.g.g.g.g.g.g.T :.' E H w g.g.g.g.g.g.g.g.g.g.g.",
"g.g.g.g.g.g.g.J _ U H r g.g.g.g.g.g.g.g.g.g.g.g.",
"g.g.g.g.g.g.g.V K h r g.g.g.g.g.g.g.g.g.g.g.g.g.",
"g.g.g.g.g.g.g.x z q g.g.g.g.g.g.g.g.g.g.g.g.g.g.",
"g.g.g.g.g.g.g.k g.g.g.g.g.g.g.g.g.g.g.g.g.g.g.g.",
"g.g.g.g.g.g.g.g.g.g.g.g.g.g.g.g.g.g.g.g.g.g.g.g.",
"g.g.g.g.g.g.g.g.g.g.g.g.g.g.g.g.g.g.g.g.g.g.g.g."
};
