/* XPM */
static char *dasatree1_xpm[] = {
/* columns rows colors chars-per-pixel */
"24 24 137 2 ",
"   c #5A0620",
".  c #5B0821",
"X  c #580C22",
"o  c #5C1229",
"O  c #670723",
"+  c #690221",
"@  c #680724",
"#  c #6A0624",
"$  c #620E28",
"%  c #770022",
"&  c #750024",
"*  c #770225",
"=  c #730525",
"-  c #7A0025",
";  c #7D0226",
":  c #7C0526",
">  c #76092A",
",  c #67132D",
"<  c #61182E",
"1  c #671E34",
"2  c #6C2C3F",
"3  c #712239",
"4  c #71263D",
"5  c #722A40",
"6  c #792B43",
"7  c #7D2F47",
"8  c #7D3148",
"9  c #7C3249",
"0  c #7D3449",
"q  c #830028",
"w  c #880029",
"e  c #8F002B",
"r  c #890629",
"t  c #8B062F",
"y  c #8C062E",
"u  c #82092E",
"i  c #880B2F",
"p  c #8A0A2F",
"a  c #8D092D",
"s  c #8D0A2E",
"d  c #96002D",
"f  c #99002F",
"g  c #9C002F",
"h  c #950430",
"j  c #960631",
"k  c #9E0333",
"l  c #9E0533",
"z  c #980934",
"x  c #9B0F37",
"c  c #9D0D36",
"v  c #98113E",
"b  c #98153C",
"n  c #A30032",
"m  c #A60033",
"M  c #A70033",
"N  c #A70134",
"B  c #A40335",
"V  c #AF0035",
"C  c #A90537",
"Z  c #A80636",
"A  c #AF0539",
"S  c #A60B38",
"D  c #A10D38",
"F  c #A10F39",
"G  c #A70C3B",
"H  c #AE0A3A",
"J  c #B00036",
"K  c #B10237",
"L  c #B50138",
"P  c #B60038",
"I  c #B70038",
"U  c #B00739",
"Y  c #BB0039",
"T  c #B8033A",
"R  c #BD003A",
"E  c #B4083B",
"W  c #C3003C",
"Q  c #C3023D",
"!  c #C5003C",
"~  c #C9033F",
"^  c #921F42",
"/  c #981B40",
"(  c #9B1A41",
")  c #8F2646",
"_  c #832F49",
"`  c #8B2C49",
"'  c #8B2D4A",
"]  c #922A4A",
"[  c #992A4C",
"{  c #88334D",
"}  c #873A52",
"|  c #9D3857",
" . c #943E59",
".. c #993B58",
"X. c #A5264D",
"o. c #A8244D",
"O. c #A0284D",
"+. c #A52E53",
"@. c #AD2851",
"#. c #A43255",
"$. c #A13556",
"%. c #A83256",
"&. c #A63F5E",
"*. c #D00241",
"=. c #D50243",
"-. c #884258",
";. c #8E4058",
":. c #8A485C",
">. c #8A4D5F",
",. c #8E4B60",
"<. c #8B4F61",
"1. c #994B63",
"2. c #945367",
"3. c #9E536A",
"4. c #9E566C",
"5. c #9C586D",
"6. c #A64261",
"7. c #A44562",
"8. c #A94262",
"9. c #A24864",
"0. c #A04C66",
"q. c #AA506B",
"w. c #AA536D",
"e. c #AB536E",
"r. c #A95670",
"t. c #A95B73",
"y. c #AF6179",
"u. c #B1637B",
"i. c #B1647C",
"p. c #B1677E",
"a. c #B97287",
"s. c #B97388",
"d. c #B87489",
"f. c #BE7E91",
"g. c #C58599",
"h. c #C48B9C",
"j. c None",
/* pixels */
"j.j.j.j.j.j.j.j.j.j.j.j.j.j.j.j.j.j.j.j.j.j.j.j.",
"j.j.j.j.j.j.j.j.j.j.j.j.j.j.j.j.j.j.j.j.j.j.j.j.",
"j.j.j.j.j.j.j.2 j.j.j.j.j.j.j.j.j.j.j.j.j.j.j.j.",
"j.j.j.j.j.j.j.>.<.j.j.j.j.j.j.j.j.j.j.j.j.j.j.j.",
"j.j.j.j.j.j.j.,.h.:.o j.j.j.j.j.j.j.j.j.j.j.j.j.",
"j.j.j.j.j.j.j.-.g.f.2.< j.j.j.j.j.j.j.j.j.j.j.j.",
"j.j.j.j.j.j.j.} s.a.s.5.1 j.j.j.j.j.j.j.j.j.j.j.",
"j.j.j.j.j.j.j.{ u.y.p.p.4.4 j.j.j.j.j.j.j.j.j.j.",
"j.j.j.j.j.j.j.' e.q.e.r.t.3.6 . j.j.j.j.j.j.j.j.",
"j.j.j.j.j.j.j.) 8.&.8.7.9.1.1._ $ j.j.j.j.j.j.j.",
"j.j.j.j.j.j.j.^ %.+.#.$.| .. .;.0 , j.j.j.j.j.j.",
"j.j.j.j.j.j.j./ @.o.o.[ [ ] ' _ 0 5 3 j.j.j.j.j.",
"j.j.j.j.j.j.j.h C B k h t u > @   X 0 j.j.j.j.j.",
"j.j.j.j.j.j.j.l P V m g e q & + O # j.j.j.j.j.j.",
"j.j.j.j.j.j.j.C Q Y K n d w - & = j.j.j.j.j.j.j.",
"j.j.j.j.j.j.j.U *.Q P N f y ; % j.j.j.j.j.j.j.j.",
"j.j.j.j.j.j.j.E =.! Y B z p ; j.j.j.j.j.j.j.j.j.",
"j.j.j.j.j.j.j.H ~ R K D p j.j.j.j.j.j.j.j.j.j.j.",
"j.j.j.j.j.j.j.S T U F s j.j.j.j.j.j.j.j.j.j.j.j.",
"j.j.j.j.j.j.j.c G x s j.j.j.j.j.j.j.j.j.j.j.j.j.",
"j.j.j.j.j.j.j./ b r j.j.j.j.j.j.j.j.j.j.j.j.j.j.",
"j.j.j.j.j.j.j.v j.j.j.j.j.j.j.j.j.j.j.j.j.j.j.j.",
"j.j.j.j.j.j.j.j.j.j.j.j.j.j.j.j.j.j.j.j.j.j.j.j.",
"j.j.j.j.j.j.j.j.j.j.j.j.j.j.j.j.j.j.j.j.j.j.j.j."
};
