/* XPM */
static char *dasatree5e_xpm[] = {
/* columns rows colors chars-per-pixel */
"32 32 209 2 ",
"   c #380347",
".  c #3D004E",
"X  c #3E014F",
"o  c #3E0050",
"O  c #400551",
"+  c #430056",
"@  c #430A54",
"#  c #440058",
"$  c #47005C",
"%  c #48075B",
"&  c #48025C",
"*  c #48045C",
"=  c #49105A",
"-  c #4E0064",
";  c #4F0B63",
":  c #530167",
">  c #510567",
",  c #510068",
"<  c #52006A",
"1  c #55006A",
"2  c #590B6D",
"3  c #580C6E",
"4  c #511B61",
"5  c #58156B",
"6  c #5A176D",
"7  c #591C6A",
"8  c #580171",
"9  c #590072",
"0  c #5A0274",
"q  c #5C0076",
"w  c #5A0872",
"e  c #5D0078",
"r  c #600876",
"t  c #600078",
"y  c #62007A",
"u  c #610478",
"i  c #60007C",
"p  c #61027C",
"a  c #62007E",
"s  c #66037F",
"d  c #63097D",
"f  c #632E72",
"g  c #662975",
"h  c #672A78",
"j  c #683577",
"k  c #6B337B",
"l  c #630080",
"z  c #650082",
"x  c #670783",
"c  c #690482",
"v  c #6A0084",
"b  c #6B0185",
"n  c #680086",
"m  c #6B0086",
"M  c #6E0086",
"N  c #6B0585",
"B  c #6A0587",
"V  c #6C0785",
"C  c #6B0389",
"Z  c #6B008A",
"A  c #6E0688",
"S  c #6E008E",
"D  c #6F0C88",
"F  c #76018F",
"G  c #71068C",
"H  c #72078D",
"J  c #74098F",
"K  c #76088E",
"L  c #780D8F",
"P  c #711189",
"I  c #700090",
"U  c #730094",
"Y  c #750890",
"T  c #750A90",
"R  c #750B93",
"E  c #790B91",
"W  c #7A0D91",
"Q  c #7A0C92",
"!  c #760098",
"~  c #78009A",
"^  c #7B009E",
"/  c #7B1092",
"(  c #7F1799",
")  c #7D129C",
"_  c #722F85",
"`  c #762D8B",
"'  c #792E8C",
"]  c #6F3280",
"[  c #703581",
"{  c #792A90",
"}  c #7D2B95",
"|  c #7E2A96",
" . c #7F2B97",
".. c #7C00A0",
"X. c #7E00A2",
"o. c #7F00A4",
"O. c #751AA0",
"+. c #802F97",
"@. c #802B99",
"#. c #832C9C",
"$. c #862F9F",
"%. c #803197",
"&. c #803496",
"*. c #823498",
"=. c #85319D",
"-. c #8100A6",
";. c #8204A6",
":. c #800DA1",
">. c #8400AA",
",. c #8501AB",
"<. c #8600AC",
"1. c #8700AE",
"2. c #8807AD",
"3. c #860FA9",
"4. c #8318A2",
"5. c #871AA2",
"6. c #861CA0",
"7. c #8900B0",
"8. c #8A00B2",
"9. c #8B05B1",
"0. c #8C00B4",
"q. c #8D00B6",
"w. c #8B0CB0",
"e. c #8F00B8",
"r. c #9000BA",
"t. c #9200BC",
"y. c #9400BE",
"u. c #9306BC",
"i. c #950BBD",
"p. c #8E18B0",
"a. c #9A1EBE",
"s. c #8921A7",
"d. c #8825A5",
"f. c #882CA2",
"g. c #892DA3",
"h. c #892AA4",
"j. c #8A28A6",
"k. c #8A2AA6",
"l. c #8F27AD",
"z. c #8C29A9",
"x. c #8D28AA",
"c. c #912FAD",
"v. c #912EAE",
"b. c #8B32A4",
"n. c #8B34A4",
"m. c #8F32AA",
"M. c #8A35A9",
"N. c #9334AE",
"B. c #9626B6",
"V. c #942AB2",
"C. c #9823B9",
"Z. c #9C28BE",
"A. c #9C31BB",
"S. c #9700C2",
"D. c #9800C4",
"F. c #9A00C6",
"G. c #9B06C6",
"H. c #9B00C8",
"J. c #9E00CC",
"K. c #9F0ACA",
"L. c #9B1AC0",
"P. c #A200D0",
"I. c #A407D1",
"U. c #A500D4",
"Y. c #A709D5",
"T. c #AB08DA",
"R. c #A919D3",
"E. c #A81CD0",
"W. c #AE14DA",
"Q. c #A123C5",
"!. c #A321C9",
"~. c #A523CB",
"^. c #B10EE0",
"/. c #B409E5",
"(. c #B703EB",
"). c #B700EC",
"_. c #B70EE8",
"`. c #B80FE9",
"'. c #B212E0",
"]. c #BC08F0",
"[. c #C400FC",
"{. c #C500FE",
"}. c #C601FF",
"|. c #C705FF",
" X c #C809FF",
".X c #C80BFF",
"XX c #C90DFF",
"oX c #C90FFF",
"OX c #CF0FFF",
"+X c #CA11FF",
"@X c #CA15FF",
"#X c #CB19FF",
"$X c #CC1DFF",
"%X c #CD1FFF",
"&X c #CD21FF",
"*X c #CE23FF",
"=X c #CF29FF",
"-X c #D02DFF",
";X c #D131FF",
":X c #D235FF",
">X c #D33DFF",
",X c #D441FF",
"<X c #D543FF",
"1X c #D647FF",
"2X c #D853FF",
"3X c #D85AFC",
"4X c #CE8AE2",
"5X c #D681EF",
"6X c None",
/* pixels */
"6X6X6X6X6X6X6X6X6X6X6X6X6X6X6X6X6X6X6X6X6X6X6X6X6X6X6X6X6X6X6X6X",
"6X6X6X6X6X6X6X6X6X6X6X6X6X6X6X6X6X6X6X6X6X6X6X6X6X6X6X6X6X6X6X6X",
"6X6X6X6X6X6X6X6X6X6X6X6X6X6X6X6X6X6X6X6X6X6X6X6X6X6X6X6X6X6X6X6X",
"6X6X6X6X6X6X6X6X6X6X6X6X6X6X6X6X6X6X6X6X6X6X6X6X6X6X6X6X6X6X6X6X",
"6X6X6X6X6X6X6X6X6X6X6X6X6X6X6X6X6X6X6X6X6X6X6X6X6X6X6X6X6X6X6X6X",
"6X6X6X6X6X6X6X6X6X6X6X6X6X6X6X6X6X6X6X6X6X6X6X6X6X6X6X6X6X6X6X6X",
"6X6X6X6X6X6X6X6X6X6X6X6X6X6X6X6X6X6X6X6X6X6X6X6X6X6X6X6X6X6X6X6X",
"6X6X6X6X6X6X6X6X6X6X6X6X6X6X6X6X6X6X6X6X6X6X6X6X6X6X6X6X6X6X6X6X",
"6X6X6X6X6X6X6X6X6X6X6X6X6X6X6X6X6X6X6X6X6X6X6X6X6X6X6X6X6X6X6X6X",
"6X6X6XF L W W E T T T H H A N c s p 0 8 < - $ + . . . . . 6X6X6X",
"6X6X6XO.M.:.w.i.K.Y.T.I.G.u.9.;.A.N.~.`.|.+X$X;X<X3X5X4Xp.6X6X6X",
"6X6X6X6XJ 4.>.e.D.P.U.J.S.e.1.X.l.d.b.Z.'.|.@X=X>X2X>X@ 6X6X6X6X",
"6X6X6X6Xv / 3.8.y.D.D.D.y.0.1.X.x.j.n.Q._..X#X-X<X1X4 6X6X6X6X6X",
"6X6X6X6X6Xv ( 2.0.t.y.t.0.7.-.^ x.h.m.!.]..X$X;X1Xf . 6X6X6X6X6X",
"6X6X6X6X6X6XM 6.,.8.8.7.1.-.X.! j.g.c.E.[.XX&X:Xs.. 6X6X6X6X6X6X",
"6X6X6X6X6X6X6XM 5.o.-.-.X.^ ! S g.$.c.R.[.+X&X).. 6X6X6X6X6X6X6X",
"6X6X6X6X6X6X6X6XV ) ! ^ ! U S C #.=.V.W.}.+X[.O 6X6X6X6X6X6X6X6X",
"6X6X6X6X6X6X6X6Xy D R S S C v x } *.B.^.[.|.= 6X6X6X6X6X6X6X6X6X",
"6X6X6X6X6X6X6X6X6Xe P B z l p d { &.C./.[.7 . 6X6X6X6X6X6X6X6X6X",
"6X6X6X6X6X6X6X6X6X6Xy p e q 8 w ` %.a.(.h o 6X6X6X6X6X6X6X6X6X6X",
"6X6X6X6X6X6X6X6X6X6X6Xy p 1 < > _ +.L.[ # 6X6X6X6X6X6X6X6X6X6X6X",
"6X6X6X6X6X6X6X6X6X6X6X6Xu 3 $ $ ] @.} * 6X6X6X6X6X6X6X6X6X6X6X6X",
"6X6X6X6X6X6X6X6X6X6X6X6X1 r % X k } ; 6X6X6X6X6X6X6X6X6X6X6X6X6X",
"6X6X6X6X6X6X6X6X6X6X6X6X6X< 2   j 5 # 6X6X6X6X6X6X6X6X6X6X6X6X6X",
"6X6X6X6X6X6X6X6X6X6X6X6X6X6X: ' h & 6X6X6X6X6X6X6X6X6X6X6X6X6X6X",
"6X6X6X6X6X6X6X6X6X6X6X6X6X6X6XOX6 6X6X6X6X6X6X6X6X6X6X6X6X6X6X6X",
"6X6X6X6X6X6X6X6X6X6X6X6X6X6X6X6X6X6X6X6X6X6X6X6X6X6X6X6X6X6X6X6X",
"6X6X6X6X6X6X6X6X6X6X6X6X6X6X6X6X6X6X6X6X6X6X6X6X6X6X6X6X6X6X6X6X",
"6X6X6X6X6X6X6X6X6X6X6X6X6X6X6X6X6X6X6X6X6X6X6X6X6X6X6X6X6X6X6X6X",
"6X6X6X6X6X6X6X6X6X6X6X6X6X6X6X6X6X6X6X6X6X6X6X6X6X6X6X6X6X6X6X6X",
"6X6X6X6X6X6X6X6X6X6X6X6X6X6X6X6X6X6X6X6X6X6X6X6X6X6X6X6X6X6X6X6X",
"6X6X6X6X6X6X6X6X6X6X6X6X6X6X6X6X6X6X6X6X6X6X6X6X6X6X6X6X6X6X6X6X"
};
