/* XPM */
static char *dasa_xpm[] = {
/* columns rows colors chars-per-pixel */
"32 32 254 2 ",
"   c #040764",
".  c #070B66",
"X  c #0C0D65",
"o  c #100F65",
"O  c #07116F",
"+  c #121065",
"@  c #16156D",
"#  c #18166A",
"$  c #071172",
"%  c #081376",
"&  c #081679",
"*  c #071A7E",
"=  c #161772",
"-  c #151875",
";  c #141C7A",
":  c #12217E",
">  c #47474F",
",  c #4D4D57",
"<  c #714150",
"1  c #7C4A55",
"2  c #5C5C63",
"3  c #5F5E68",
"4  c #58606A",
"5  c #6A6A6F",
"6  c #676770",
"7  c #646C73",
"8  c #6B6B75",
"9  c #6E6E78",
"0  c #B23906",
"q  c #C82F00",
"w  c #E03600",
"e  c #C73B2B",
"r  c #DB3E2C",
"t  c #D25500",
"y  c #EA5100",
"u  c #EB5E07",
"i  c #C66001",
"p  c #D56707",
"a  c #D26E0B",
"s  c #D1750B",
"d  c #D2791C",
"f  c #E66203",
"g  c #EF7319",
"h  c #DC4225",
"j  c #D74926",
"k  c #CA4531",
"l  c #D67331",
"z  c #ED7929",
"x  c #915F70",
"c  c #DD6E43",
"v  c #C2706B",
"b  c #C97770",
"n  c #CE7A7C",
"m  c #D2787B",
"M  c #FC8F06",
"N  c #FCAA0D",
"B  c #FFA910",
"V  c #FFB412",
"C  c #EB813A",
"Z  c #F6B93E",
"A  c #FFC519",
"S  c #FFD11D",
"D  c #FFC722",
"F  c #F8C824",
"G  c #FFE225",
"H  c #061F83",
"J  c #062185",
"K  c #05258A",
"L  c #04288E",
"P  c #0F2C8C",
"I  c #112484",
"U  c #102888",
"Y  c #032C93",
"T  c #0D2F91",
"R  c #023097",
"E  c #0C3295",
"W  c #03369D",
"Q  c #0B3698",
"!  c #07389F",
"~  c #343786",
"^  c #3F448E",
"/  c #3F4791",
"(  c #3F4A94",
")  c #3E4E9A",
"_  c #3D519D",
"`  c #3B56A3",
"'  c #3A59A6",
"]  c #3A5CA9",
"[  c #42438C",
"{  c #4D5096",
"}  c #5E619F",
"|  c #5D65A4",
" . c #5B6BAC",
".. c #5672B4",
"X. c #5872B4",
"o. c #0D55CE",
"O. c #1057CF",
"+. c #1B5CC8",
"@. c #1B62D6",
"#. c #1865DC",
"$. c #2161CA",
"%. c #356DC9",
"&. c #326FD6",
"*. c #2670DF",
"=. c #3572D7",
"-. c #3A75D7",
";. c #3F79D7",
":. c #3A77D8",
">. c #005EE7",
",. c #005CE9",
"<. c #0562E4",
"1. c #0B66E7",
"2. c #0263EB",
"3. c #046AEE",
"4. c #0D6FED",
"5. c #136AE6",
"6. c #1B6EE5",
"7. c #1372ED",
"8. c #1876ED",
"9. c #1F7AED",
"0. c #0368F2",
"q. c #2272E5",
"w. c #237DEE",
"e. c #287FED",
"r. c #227DF0",
"t. c #437BD6",
"y. c #497ED6",
"u. c #427AD8",
"i. c #3F85DB",
"p. c #2D83ED",
"a. c #3385EC",
"s. c #3789ED",
"d. c #3A89EC",
"f. c #3792FF",
"g. c #3C95FF",
"h. c #3D99FF",
"j. c #4685DD",
"k. c #4B87DD",
"l. c #4588DE",
"z. c #4F8ADD",
"x. c #538CDD",
"c. c #588EDD",
"v. c #5D91DD",
"b. c #698ACF",
"n. c #6B8CD1",
"m. c #6495DD",
"M. c #6997DD",
"N. c #6E9BDD",
"B. c #7396D7",
"V. c #7E9BD5",
"C. c #7497D8",
"Z. c #759ADA",
"A. c #799BD9",
"S. c #7CA2DD",
"D. c #468DE7",
"F. c #4A8EE5",
"G. c #4E90E5",
"H. c #4090EF",
"J. c #5393E5",
"K. c #5A96E5",
"L. c #5F98E4",
"P. c #5199EE",
"I. c #4596F0",
"U. c #439AFF",
"Y. c #499FFF",
"T. c #659BE3",
"R. c #6C9DE2",
"E. c #4DA1FF",
"W. c #4FA8FF",
"Q. c #52A5FF",
"!. c #56A9FF",
"~. c #5AAAFF",
"^. c #72A1E2",
"/. c #7BA4E0",
"(. c #61AEFF",
"). c #64B1FF",
"_. c #6BB4FF",
"`. c #6FB8FF",
"'. c #74BAFF",
"]. c #78BDFF",
"[. c #7DC2FF",
"{. c #848386",
"}. c #868688",
"|. c #8A8A8C",
" X c #848B96",
".X c #8D8D93",
"XX c #BB878E",
"oX c #A4A4A8",
"OX c #BCBBBE",
"+X c #CB96A2",
"@X c #CB9AAB",
"#X c #D394A1",
"$X c #D09DAC",
"%X c #DA9FA8",
"&X c #CAA1AF",
"*X c #D6A0AB",
"=X c #D8A1AB",
"-X c #D7A9B0",
";X c #DDABB3",
":X c #DFB1BA",
">X c #E4A7AF",
",X c #E1A7B2",
"<X c #8E98C4",
"1X c #83A5DD",
"2X c #8BA3D9",
"3X c #86A8DD",
"4X c #8BAADD",
"5X c #90ADDD",
"6X c #9BB7DE",
"7X c #B8BEC0",
"8X c #84A9E1",
"9X c #91ADE1",
"0X c #95B3E5",
"qX c #9AB8E3",
"wX c #92B6EB",
"eX c #95B9ED",
"rX c #E3B9C2",
"tX c #84C5FF",
"yX c #8CCBFF",
"uX c #93CEFF",
"iX c #97D1FF",
"pX c #9EDBFF",
"aX c #A6C4E7",
"sX c #D5D4D4",
"dX c #DEDDDB",
"fX c #EFCACA",
"gX c #E9DEDD",
"hX c #F4D5D9",
"jX c #F4E0DD",
"kX c #D7DBEB",
"lX c #D9DDED",
"zX c #E5D5E4",
"xX c #E3DCE4",
"cX c #E8D9E4",
"vX c #DCE1ED",
"bX c #DFE7F1",
"nX c #E4E3EA",
"mX c #E9E4EA",
"MX c #EBE9ED",
"NX c #F6E5E6",
"BX c #F0E8E7",
"VX c #E5EBF3",
"CX c #EDEDF2",
"ZX c #F3EFF1",
"AX c #EDF1F6",
"SX c #EAF2FA",
"DX c #F3F2F5",
"FX c #F9F6F5",
"GX c #FBF8F5",
"HX c #F6F6F9",
"JX c #F8F7F9",
"KX c #F6FDFF",
"LX c #FEFEFE",
"PX c None",
/* pixels */
"PXPXPXPXPXPXPXPXPXPXPXPXPXPXPXPXPXPXPXPXPXPXPXPXPXPXPXPXPXPXPXPX",
"PXPXPXPXPXPXPXPXPXPXPXPXPXPXPXPXPXPXPXPXPXPXPXPXPXPXPXPXPXPXPXPX",
"PXPXX + + + + + + + + o X + X X X o X X X X X X X . . . .   PXPX",
"PXX <X6X5X4X4X3X3XS.A.A.^.Z.N.N.M.m.m.v.v.c.x.x.z.k.j.j.l.%.. PX",
"PX# aXpXiXuXuXyXyXtXtXtXtX].].].'.`._._.).).~.~.~.!.Q.E.W.H.O PX",
"PX@ qX[.`._._._.).(.(.(.~.~.!.~.!.E.E.Y.Y.U.U.h.h.h.g.f.h.d.$ PX",
"PX@ 0X*.@.@.@.@.@.@.@.@.@.@.@.O.o.@.@.@.@.@.@.@.@.@.@.@.#.a.$ PX",
"PX= 3Xb.lXkXkXkXkXkXkXkXkXkXlX{ ~ vXvXvXkXkXkXkXkXkXkXvXV.q.% PX",
"PX= 1XA.LXLXLXLXLXLXLXLXLXLXLX} [ LXdXsXLXLXLXLXLXLXLXLX0Xq.% PX",
"PX- /.A.LXLXLXLXLXLXLXLXLXLXLX| ^ LX{.5 LXLXKXLXKXKXKXLX5X6.& PX",
"PX; /.A.LXLXLXLXLXLXLXLXLXLXLX| / LX}.9 LXLXNXm m b v jX0X6.* PX",
"PX; ^.A.LXLXLXLXLXLXLXLXLXLXLX| ( LX}.8 CXCX;Xc Z F i ,XeX6.* PX",
"PX; ^.A.LXLXLXLXLXLXLXLXLXLXLX| ( LX.X> 3 4 < z V S a ,XeX5.H PX",
"PX; R.A.LXLXLXLXLXLXLXLXLXLXLX| ( LX|.2 OX7XXXu M N t >XeX5.H PX",
"PX: R.A.LXLXLXLXLXLXLXLXLXLXLX .) LX}.9 LXLXhXr h j e fXwX5.J PX",
"PXI T.Z.LXLXLXLXLXLXLXLXLXLXLX .) LX}.8 JXAXAXmXcXzXcXGX9X1.J PX",
"PXI T.C.LXLXLXLXLXLXLXLXLXLXLX .) LX}.8 JXDXAXAXCXSXVXFX9X1.J PX",
"PXI L.Z.LXLXLXLXLXLXLXLXJXLXLX ._ LX}.8 HXAXCXCXmXmXnXZX5X1.K PX",
"PXU K.C.LXLXLXLXLXLXLXLXKXJXLX ._ LX}.8 HXCXSXSXSXSXVXZX9X1.K PX",
"PXU K.Z.LXLXLXLXLXLXLXJXLXJXLX .` LX{.8 DXAXmX-X$X@X&XMX9X2.L PX",
"PXP J.C.LXLXLXLXLXLXJXJXJXJXLXX.` LX{.8 LXKXrXk l d 0 ;XwX2.L PX",
"PXT J.C.LXLXLXLXLXJXKXJXHXHXLXX.' LX{., .X Xx z D G s *XwX,.Y PX",
"PXT G.C.LXLXLXLXKXJXJXJXHXHXLXX.' LXoX5 6 7 1 g B A p =XeX,.R PX",
"PXT F.C.LXLXJXJXLXJXJXJXDXZXLX..] FXCXCXMXSX:Xw y f q -XwX,.R PX",
"PXE D.C.LXLXLXLXLXJXJXJXJXHXLXX.] FXCXMXMXnXxX%X#X#X+XgX9X,.R PX",
"PXQ D.n.AXAXAXCXZXCXZXCXCXMXZX..] ZXnXnXnXxXvXbXbXbXvXMX2X,.W PX",
"PXQ P.-.y.y.y.t.t.u.u.u.u.;.u.$.+.;.-.-.:.=.:.=.=.&.&.=.@.3.W PX",
"PXQ i.I.d.s.s.a.p.p.p.e.w.w.9.w.r.8.8.7.4.4.4.3.3.3.3.2.3.>.W PX",
"PXPX! ! ! ! ! ! ! ! ! ! ! ! W ! W W W W W W W W W W W W W W R PX",
"PXPXPXPXPXPXPXPXPXPXPXPXPXPXPXPXPXPXPXPXPXPXPXPXPXPXPXPXPXPXPXPX",
"PXPXPXPXPXPXPXPXPXPXPXPXPXPXPXPXPXPXPXPXPXPXPXPXPXPXPXPXPXPXPXPX",
"PXPXPXPXPXPXPXPXPXPXPXPXPXPXPXPXPXPXPXPXPXPXPXPXPXPXPXPXPXPXPXPX"
};
