/* XPM */
static char *dasatree1e_xpm[] = {
/* columns rows colors chars-per-pixel */
"32 32 217 2 ",
"   c #470318",
".  c #4E0018",
"X  c #4F0119",
"o  c #500018",
"O  c #56001A",
"+  c #51051C",
"@  c #58001B",
"#  c #5C001C",
"$  c #5C021E",
"%  c #5C041F",
"&  c #64001F",
"*  c #67011E",
"=  c #6A001E",
"-  c #5B0721",
";  c #540A21",
":  c #5A1027",
">  c #670523",
",  c #680020",
"<  c #6A0020",
"1  c #630B26",
"2  c #6D0B27",
"3  c #6E0C2A",
"4  c #710123",
"5  c #720023",
"6  c #760024",
"7  c #740225",
"8  c #780022",
"9  c #7A0022",
"0  c #780025",
"q  c #7C0026",
"w  c #7E0027",
"e  c #7C0227",
"r  c #7F0326",
"t  c #780425",
"y  c #760827",
"u  c #720828",
"i  c #7D092D",
"p  c #6B152F",
"a  c #6D1731",
"s  c #611B30",
"d  c #6A1C34",
"f  c #75293F",
"g  c #722E43",
"h  c #782A42",
"j  c #773549",
"k  c #7B3349",
"l  c #7F3B4E",
"z  c #7F4959",
"x  c #860023",
"c  c #800027",
"v  c #840025",
"b  c #850126",
"n  c #860026",
"m  c #8F0126",
"M  c #820028",
"N  c #860029",
"B  c #820428",
"V  c #850529",
"C  c #85072B",
"Z  c #83072D",
"A  c #87052D",
"S  c #8A002A",
"D  c #8E002B",
"F  c #88062B",
"G  c #89032C",
"H  c #8C062C",
"J  c #8D072D",
"K  c #8E082B",
"L  c #8F092F",
"P  c #880C2F",
"I  c #8F0D2F",
"U  c #90002C",
"Y  c #94002D",
"T  c #98002E",
"R  c #9A002F",
"E  c #90082E",
"W  c #910B2E",
"Q  c #910D2F",
"!  c #920C2F",
"~  c #9E0030",
"^  c #900A30",
"/  c #930B35",
"(  c #891133",
")  c #921032",
"_  c #9C123C",
"`  c #99173C",
"'  c #A00031",
"]  c #A20032",
"[  c #A40032",
"{  c #A60033",
"}  c #A60436",
"|  c #AA0034",
" . c #AB0135",
".. c #AC0035",
"X. c #AE0035",
"o. c #AD073A",
"O. c #A10D3A",
"+. c #A90F3E",
"@. c #B00036",
"#. c #B20036",
"$. c #B40037",
"%. c #B60038",
"&. c #B1053A",
"*. c #B80038",
"=. c #BA0039",
"-. c #BC003A",
";. c #BE003A",
":. c #BC063E",
">. c #B00C3E",
",. c #C2003B",
"<. c #C4003C",
"1. c #C6003D",
"2. c #C8003D",
"3. c #CC003E",
"4. c #BD0B41",
"5. c #A21A40",
"6. c #A21842",
"7. c #A01C41",
"8. c #A01A50",
"9. c #852F49",
"0. c #8B2D4A",
"q. c #902A49",
"w. c #962A4B",
"e. c #9C2C4E",
"r. c #80324A",
"t. c #81354C",
"y. c #9F2F51",
"u. c #833D53",
"i. c #853D53",
"p. c #873D54",
"a. c #8C3A53",
"s. c #943653",
"d. c #9D3152",
"f. c #983453",
"g. c #903853",
"h. c #9F3D5B",
"j. c #A5254C",
"k. c #A6284F",
"l. c #A42A4F",
"z. c #AD2750",
"x. c #A62A50",
"c. c #A22C50",
"v. c #A32D51",
"b. c #A92950",
"n. c #AA2850",
"m. c #A43255",
"M. c #A43456",
"N. c #A53759",
"B. c #AC365A",
"V. c #A9355E",
"C. c #A33959",
"Z. c #A13B5A",
"A. c #A73F5F",
"S. c #B4385E",
"D. c #C60641",
"F. c #CA0A45",
"G. c #D00040",
"H. c #D40041",
"J. c #D10745",
"K. c #D50947",
"L. c #DA0848",
"P. c #844458",
"I. c #93475E",
"U. c #97455E",
"Y. c #9A425D",
"T. c #9C405C",
"R. c #9F4F67",
"E. c #975569",
"W. c #9D5168",
"Q. c #A64260",
"!. c #A74362",
"~. c #A64663",
"^. c #AC4262",
"/. c #A44864",
"(. c #A44A66",
"). c #A74B67",
"_. c #A14D67",
"`. c #A94D69",
"'. c #A94F6A",
"]. c #AC4C69",
"[. c #A9536D",
"{. c #A8546E",
"}. c #A45A71",
"|. c #A65A71",
" X c #A15D72",
".X c #A55F74",
"XX c #A85870",
"oX c #AC5872",
"OX c #AD5B74",
"+X c #AD5D75",
"@X c #AE5E77",
"#X c #AD6178",
"$X c #AF6179",
"%X c #AD637A",
"&X c #A46A7B",
"*X c #B0647B",
"=X c #B2667D",
"-X c #B36980",
";X c #B36B81",
":X c #B46C82",
">X c #B56D83",
",X c #B77186",
"<X c #B97388",
"1X c #B9778B",
"2X c #BA768B",
"3X c #BB798D",
"4X c #BF7D91",
"5X c #C17F93",
"6X c #B88494",
"7X c #C08295",
"8X c #C28497",
"9X c #C08698",
"0X c #C88A9D",
"qX c #C88EA0",
"wX c #D49CAD",
"eX c #CAA2AE",
"rX c None",
/* pixels */
"rXrXrXrXrXrXrXrXrXrXrXrXrXrXrXrXrXrXrXrXrXrXrXrXrXrXrXrXrXrXrXrX",
"rXrXrXrXrXrXrXrXrXrXrXrXrXrXrXrXrXrXrXrXrXrXrXrXrXrXrXrXrXrXrXrX",
"rXrXrXrXrXrXrXrXrXrXrXrXrXrXrXrXrXrXrXrXrXrXrXrXrXrXrXrXrXrXrXrX",
"rXrXrXrXrXrXrXrXrXrXrXrXrXrXrXrXrXrXrXrXrXrXrXrXrXrXrXrXrXrXrXrX",
"rXrXrXrXrXrXrXrXrXrXrXrXrXrXrXrXrXrXrXrXrXrXrXrXrXrXrXrXrXrXrXrX",
"rXrXrXrXrXrXrXrXrXrXrXrXrXrXrXrXrXrXrXrXrXrXrXrXrXrXrXrXrXrXrXrX",
"rXrXrXrXrXrXrXrXrXrXrXrXrXrXrXrXrXrXrXrXrXrXrXrXrXrXrXrXrXrXrXrX",
"rXrXrXrXrXrXrXrXrXrXrXrXrXrXrXrXrXrXrXrXrXrXrXrXrXrXrXrXrXrXrXrX",
"rXrXrXrXrXrXrXrXrXrXrXrXrXrXrXrXrXrXrXrXrXrXrXrXrXrXrXrXrXrXrXrX",
"rXrXrXm Q Q Q W ^ L W J J F V B r e 7 4 < & # O . . . . . rXrXrX",
"rXrXrX8.V.O.>.4.F.K.L.J.D.:.&.} S.B.^.].oX$X;X1X7XqXwXeXz rXrXrX",
"rXrXrXrXK 6.| =.<.G.H.3.,.=.X.[ z.j.m.A.).oX*X,X4X0X6X; rXrXrXrX",
"rXrXrXrXv ) +.$.;.<.<.<.;.$.X.] n.k.M.Q.`.OX=X<X7X9Xs rXrXrXrXrX",
"rXrXrXrXrXv ` o.%.=.;.;.$.X.[ ~ n.l.N.!.`.@X=X3X7Xg . rXrXrXrXrX",
"rXrXrXrXrXrXv 7. .@.@.@.X.[ ] T k.v.C.!.{.@X:X3XP.o rXrXrXrXrXrX",
"rXrXrXrXrXrXrXv 6.[ [ | ] ~ T U c.d.Z.(.{.$X:XE.. rXrXrXrXrXrXrX",
"rXrXrXrXrXrXrXrXV _ R T T Y D G e.d.h.).XX$X X+ rXrXrXrXrXrXrXrX",
"rXrXrXrXrXrXrXrX9 P / U D S N Z w.f.T.R.}..X: rXrXrXrXrXrXrXrXrX",
"rXrXrXrXrXrXrXrXrX9 ( A M c e i q.s.Y.R.}.d . rXrXrXrXrXrXrXrXrX",
"rXrXrXrXrXrXrXrXrXrX9 9 0 7 7 u 0.a.U.W.h o rXrXrXrXrXrXrXrXrXrX",
"rXrXrXrXrXrXrXrXrXrXrX9 e = < > 9.a.U.l O rXrXrXrXrXrXrXrXrXrXrX",
"rXrXrXrXrXrXrXrXrXrXrXrXy u # # r.p.i.% rXrXrXrXrXrXrXrXrXrXrXrX",
"rXrXrXrXrXrXrXrXrXrXrXrX* y - . k i.1 rXrXrXrXrXrXrXrXrXrXrXrXrX",
"rXrXrXrXrXrXrXrXrXrXrXrXrX* 2   j p @ rXrXrXrXrXrXrXrXrXrXrXrXrX",
"rXrXrXrXrXrXrXrXrXrXrXrXrXrX& u.h # rXrXrXrXrXrXrXrXrXrXrXrXrXrX",
"rXrXrXrXrXrXrXrXrXrXrXrXrXrXrX&Xa rXrXrXrXrXrXrXrXrXrXrXrXrXrXrX",
"rXrXrXrXrXrXrXrXrXrXrXrXrXrXrXrXrXrXrXrXrXrXrXrXrXrXrXrXrXrXrXrX",
"rXrXrXrXrXrXrXrXrXrXrXrXrXrXrXrXrXrXrXrXrXrXrXrXrXrXrXrXrXrXrXrX",
"rXrXrXrXrXrXrXrXrXrXrXrXrXrXrXrXrXrXrXrXrXrXrXrXrXrXrXrXrXrXrXrX",
"rXrXrXrXrXrXrXrXrXrXrXrXrXrXrXrXrXrXrXrXrXrXrXrXrXrXrXrXrXrXrXrX",
"rXrXrXrXrXrXrXrXrXrXrXrXrXrXrXrXrXrXrXrXrXrXrXrXrXrXrXrXrXrXrXrX",
"rXrXrXrXrXrXrXrXrXrXrXrXrXrXrXrXrXrXrXrXrXrXrXrXrXrXrXrXrXrXrXrX"
};
