/* XPM */
static char *dasatree4_xpm[] = {
/* columns rows colors chars-per-pixel */
"32 32 209 2 ",
"   c #032147",
".  c #00234E",
"X  c #01244F",
"o  c #002450",
"O  c #052751",
"+  c #002656",
"@  c #0A2B54",
"#  c #002758",
"$  c #072D5B",
"%  c #00295C",
"&  c #022A5C",
"*  c #042B5C",
"=  c #10315A",
"-  c #002D64",
";  c #012C67",
":  c #002E68",
">  c #002D6A",
",  c #002F6A",
"<  c #053167",
"1  c #0B3263",
"2  c #0B356D",
"3  c #0C386E",
"4  c #1B3A61",
"5  c #153B6B",
"6  c #173D6D",
"7  c #1C3F6A",
"8  c #013371",
"9  c #003372",
"0  c #023574",
"q  c #003576",
"w  c #083772",
"e  c #083776",
"r  c #003378",
"t  c #003678",
"y  c #00347A",
"u  c #043578",
"i  c #00377C",
"p  c #02397C",
"a  c #00387E",
"s  c #03387F",
"d  c #093D7D",
"f  c #2E4C72",
"g  c #294975",
"h  c #2A4D78",
"j  c #355377",
"k  c #33537B",
"l  c #003686",
"z  c #003980",
"x  c #003A82",
"c  c #043982",
"v  c #073E83",
"b  c #003884",
"n  c #013985",
"m  c #003986",
"M  c #053B85",
"N  c #003C86",
"B  c #073C85",
"V  c #053F87",
"C  c #033F89",
"Z  c #003E8A",
"A  c #063D88",
"S  c #013A8F",
"D  c #003F8E",
"F  c #063F8C",
"G  c #083E8E",
"H  c #07408D",
"J  c #0C4188",
"K  c #09428F",
"L  c #0D418F",
"P  c #114489",
"I  c #004090",
"U  c #004294",
"Y  c #0B4191",
"T  c #084290",
"R  c #0A4390",
"E  c #0D4291",
"W  c #0C4292",
"Q  c #0B4893",
"!  c #004498",
"~  c #00459A",
"^  c #00479E",
"/  c #104492",
"(  c #174E99",
")  c #12509C",
"_  c #2F5585",
"`  c #2D578B",
"'  c #2E568C",
"]  c #325580",
"[  c #355781",
"{  c #2A5890",
"}  c #2B5A95",
"|  c #2A5A96",
" . c #2B5B97",
".. c #2F5D97",
"X. c #2B5C99",
"o. c #2C5E9C",
"O. c #315F97",
"+. c #2F619F",
"@. c #346096",
"#. c #346198",
"$. c #31619D",
"%. c #0048A0",
"&. c #0048A2",
"*. c #0049A4",
"=. c #004AA6",
"-. c #044CA6",
";. c #0D4FA1",
":. c #004CAA",
">. c #014DAB",
",. c #004DAC",
"<. c #004EAE",
"1. c #0751AD",
"2. c #0F54A9",
"3. c #1A54A2",
"4. c #1856A2",
"5. c #1C54A0",
"6. c #004FB0",
"7. c #0050B2",
"8. c #0552B1",
"9. c #0050B4",
"0. c #0051B6",
"q. c #0C55B0",
"w. c #0052B8",
"e. c #0053BA",
"r. c #0054BC",
"t. c #0055BE",
"y. c #0657BC",
"u. c #0B5BBD",
"i. c #185CB0",
"p. c #215DA7",
"a. c #255EA5",
"s. c #1A63A0",
"d. c #1E66BE",
"f. c #2C61A2",
"g. c #2D62A3",
"h. c #2A61A4",
"j. c #2860A6",
"k. c #2A61A6",
"l. c #2763AD",
"z. c #2962A9",
"x. c #2862AA",
"c. c #2F67AD",
"v. c #2E67AE",
"b. c #3265A4",
"n. c #3466A4",
"m. c #3268AA",
"M. c #356EA9",
"N. c #346BAE",
"B. c #2666B6",
"V. c #2A67B2",
"C. c #2366B9",
"Z. c #286BBE",
"A. c #316FBB",
"S. c #0057C2",
"D. c #0058C4",
"F. c #0059C6",
"G. c #065CC6",
"H. c #0059C8",
"J. c #005BCC",
"K. c #005DD0",
"L. c #005FD4",
"P. c #0A60CA",
"I. c #1A64C0",
"U. c #0761D1",
"Y. c #0964D5",
"T. c #0866DA",
"R. c #196CD3",
"E. c #1C6CD0",
"W. c #146DDA",
"Q. c #236BC5",
"!. c #216CC9",
"~. c #236ECB",
"^. c #0E6CE0",
"/. c #096BE5",
"(. c #036BEB",
"). c #006AEC",
"_. c #0E6FE8",
"`. c #126EE0",
"'. c #0F70E9",
"]. c #0870F0",
"[. c #0071FC",
"{. c #0072FE",
"}. c #0173FF",
"|. c #0575FF",
" X c #0977FF",
".X c #0F75FF",
"XX c #0B78FF",
"oX c #0D79FF",
"OX c #0F7AFF",
"+X c #117BFF",
"@X c #157EFF",
"#X c #1980FF",
"$X c #1D82FF",
"%X c #1F83FF",
"&X c #2184FF",
"*X c #2385FF",
"=X c #2989FF",
"-X c #2D8BFF",
";X c #318DFF",
":X c #358FFF",
">X c #3D94FF",
",X c #4196FF",
"<X c #4397FF",
"1X c #4799FF",
"2X c #53A0FF",
"3X c #59A2FD",
"4X c #8AB1E2",
"5X c #81B2EF",
"6X c None",
/* pixels */
"6X6X6X6X6X6X6X6X6X6X6X6X6X6X6X6X6X6X6X6X6X6X6X6X6X6X6X6X6X6X6X6X",
"6X6X6X6X6X6X6X6X6X6X6X6X6X6X6X6X6X6X6X6X6X6X6X6X6X6X6X6X6X6X6X6X",
"6X6X6X6X6X6X6X6X6X6X6X6X6X6X6X6X6X6X6X6X6X6X6X6X6X6X6X6X6X6X6X6X",
"6X6X6X6X6X6X6X6X6X. i.6X6X6X6X6X6X6X6X6X6X6X6X6X6X6X6X6X6X6X6X6X",
"6X6X6X6X6X6X6X6X6X. 4X@ 6X6X6X6X6X6X6X6X6X6X6X6X6X6X6X6X6X6X6X6X",
"6X6X6X6X6X6X6X6X6X. 5X>X4 . 6X6X6X6X6X6X6X6X6X6X6X6X6X6X6X6X6X6X",
"6X6X6X6X6X6X6X6X6X. 3X2X1Xf . 6X6X6X6X6X6X6X6X6X6X6X6X6X6X6X6X6X",
"6X6X6X6X6X6X6X6X6X. <X>X,X1Xp.. 6X6X6X6X6X6X6X6X6X6X6X6X6X6X6X6X",
"6X6X6X6X6X6X6X6X6X+ ;X=X-X;X:X).O 6X6X6X6X6X6X6X6X6X6X6X6X6X6X6X",
"6X6X6X6X6X6X6X6X6X% %X@X@X%X&X*X[.= . 6X6X6X6X6X6X6X6X6X6X6X6X6X",
"6X6X6X6X6X6X6X6X6X- +X|. XXXOXOX+X|.7 o 6X6X6X6X6X6X6X6X6X6X6X6X",
"6X6X6X6X6X6X6X6X6X, |.`._.].[.[.}.}.[.h + 6X6X6X6X6X6X6X6X6X6X6X",
"6X6X6X6X6X6X6X6X6X8 _.Z.Q.~.E.R.W.`./.(.[ % 6X6X6X6X6X6X6X6X6X6X",
"6X6X6X6X6X6X6X6X6X0 ~.b.b.m.v.v.V.B.C.d.I. .1 # 6X6X6X6X6X6X6X6X",
"6X6X6X6X6X6X6X6X6Xs N.a.h.h.f.$.+.#.@.@.O.X.} 5 % 6X6X6X6X6X6X6X",
"6X6X6X6X6X6X6X6X6Xs A.l.x.z.h.h.o. .{ ` _ ] k j g 6 6X6X6X6X6X6X",
"6X6X6X6X6X6X6X6X6Xl -.=.&.^ ! I C v d w < % X   ' .X6X6X6X6X6X6X",
"6X6X6X6X6X6X6X6X6XB 8.>.>.=.&.! D N i 8 , % $ 3 ; 6X6X6X6X6X6X6X",
"6X6X6X6X6X6X6X6X6XA y.w.9.>.=.^ U C z 0 , 3 e , 6X6X6X6X6X6X6X6X",
"6X6X6X6X6X6X6X6X6XF G.S.t.w.>.*.! I z t i u , 6X6X6X6X6X6X6X6X6X",
"6X6X6X6X6X6X6X6X6XH U.J.S.r.6.=.~ I A i r 6X6X6X6X6X6X6X6X6X6X6X",
"6X6X6X6X6X6X6X6X6XY T.U.H.S.6.=.~ Q P t 6X6X6X6X6X6X6X6X6X6X6X6X",
"6X6X6X6X6X6X6X6X6XK Y.K.F.w.6.&.) J r 6X6X6X6X6X6X6X6X6X6X6X6X6X",
"6X6X6X6X6X6X6X6X6XK P.H.t.9.>.3.B r 6X6X6X6X6X6X6X6X6X6X6X6X6X6X",
"6X6X6X6X6X6X6X6X6XY u.w.7.1.5.N 6X6X6X6X6X6X6X6X6X6X6X6X6X6X6X6X",
"6X6X6X6X6X6X6X6X6XE q.:.2.( l 6X6X6X6X6X6X6X6X6X6X6X6X6X6X6X6X6X",
"6X6X6X6X6X6X6X6X6XE ;.4./ N 6X6X6X6X6X6X6X6X6X6X6X6X6X6X6X6X6X6X",
"6X6X6X6X6X6X6X6X6XL M.G N 6X6X6X6X6X6X6X6X6X6X6X6X6X6X6X6X6X6X6X",
"6X6X6X6X6X6X6X6X6XS s.6X6X6X6X6X6X6X6X6X6X6X6X6X6X6X6X6X6X6X6X6X",
"6X6X6X6X6X6X6X6X6X6X6X6X6X6X6X6X6X6X6X6X6X6X6X6X6X6X6X6X6X6X6X6X",
"6X6X6X6X6X6X6X6X6X6X6X6X6X6X6X6X6X6X6X6X6X6X6X6X6X6X6X6X6X6X6X6X",
"6X6X6X6X6X6X6X6X6X6X6X6X6X6X6X6X6X6X6X6X6X6X6X6X6X6X6X6X6X6X6X6X"
};
