/* XPM */
static char *dasatree5e_xpm[] = {
/* columns rows colors chars-per-pixel */
"24 24 134 2 ",
"   c #470659",
".  c #470C58",
"X  c #480A59",
"o  c #4C125C",
"O  c #520767",
"+  c #510B65",
"@  c #510269",
"#  c #55066A",
"$  c #56106A",
"%  c #5D0573",
"&  c #5B0075",
"*  c #5F0077",
"=  c #5E0277",
"-  c #5A0871",
";  c #5D0976",
":  c #5F007A",
">  c #64027D",
",  c #64047C",
"<  c #621E74",
"1  c #632973",
"2  c #650083",
"3  c #650481",
"4  c #660982",
"5  c #690088",
"6  c #6D068B",
"7  c #6F008F",
"8  c #6F068C",
"9  c #6E0B88",
"0  c #6E0D89",
"q  c #710689",
"w  c #700A8A",
"e  c #73098D",
"r  c #6B1484",
"t  c #74158F",
"y  c #740096",
"u  c #750495",
"i  c #780697",
"p  c #770199",
"a  c #79009C",
"s  c #7C039E",
"d  c #7E059E",
"f  c #790998",
"g  c #7E0F9B",
"h  c #7C1D94",
"j  c #771198",
"k  c #7C1598",
"l  c #7D179A",
"z  c #7E199A",
"x  c #7F1A9B",
"c  c #6F2D81",
"v  c #722C86",
"b  c #73238A",
"n  c #74208C",
"m  c #762B8C",
"M  c #7B2A92",
"N  c #7F00A3",
"B  c #800D9D",
"V  c #802A99",
"C  c #843F97",
"Z  c #8103A4",
"A  c #8100A6",
"S  c #8200A7",
"D  c #8201A7",
"F  c #820DA1",
"G  c #830FA1",
"H  c #860BA6",
"J  c #840CA7",
"K  c #8405A9",
"L  c #8506A8",
"P  c #8800AF",
"I  c #8905AF",
"U  c #860AAA",
"Y  c #8B0AAE",
"T  c #8A17AB",
"R  c #8800B0",
"E  c #8A02B1",
"W  c #8C07B0",
"Q  c #8C04B3",
"!  c #8D01B5",
"~  c #8E00B6",
"^  c #8E00B7",
"/  c #8B0CB0",
"(  c #8F08B4",
")  c #8F03B8",
"_  c #9100BB",
"`  c #9300BD",
"'  c #8A23A7",
"]  c #8926A5",
"[  c #8B27A7",
"{  c #8529A0",
"}  c #8A2DA5",
"|  c #8A2EA5",
" . c #8C2CA7",
".. c #8C2EA7",
"X. c #8C2FA7",
"o. c #8A24A8",
"O. c #8D28AB",
"+. c #9027AE",
"@. c #902DAD",
"#. c #8A37A2",
"$. c #8938A1",
"%. c #9C26BF",
"&. c #9A2DB9",
"*. c #9800C3",
"=. c #9802C3",
"-. c #9900C5",
";. c #9D03C9",
":. c #A51CCD",
">. c #A202D0",
",. c #A602D5",
"<. c #A811D3",
"1. c #AA17D4",
"2. c #AF10DC",
"3. c #A221C7",
"4. c #A324C8",
"5. c #B806EA",
"6. c #B80AEA",
"7. c #BA0DEC",
"8. c #B313E1",
"9. c #BE0EF1",
"0. c #C008F6",
"q. c #C405FA",
"w. c #C705FE",
"e. c #CA11FF",
"r. c #CD11FF",
"t. c #CB15FF",
"y. c #CD17FF",
"u. c #CF2FFC",
"i. c #D229FF",
"p. c #D02AFF",
"a. c #D042F6",
"s. c #DA45FF",
"d. c #D553FB",
"f. c None",
/* pixels */
"f.f.f.f.f.f.f.f.f.f.f.f.f.f.f.f.f.f.f.f.f.f.f.f.",
"f.f.f.f.f.f.f.f.f.f.f.f.f.f.f.f.f.f.f.f.f.f.f.f.",
"f.f.f.f.f.f.f.f.f.f.f.f.f.f.f.f.f.f.f.f.f.f.f.f.",
"f.f.f.f.f.f.f.f.f.f.f.f.f.f.f.f.f.f.f.f.f.f.f.f.",
"f.f.f.f.f.f.f.f.f.f.f.f.f.f.f.f.f.f.f.f.f.f.f.f.",
"f.f.f.f.f.f.f.f.f.f.f.f.f.f.f.f.f.f.f.f.f.f.f.f.",
"f.f.f.f.f.f.f.f.f.f.f.f.f.f.f.f.f.f.f.f.f.f.f.f.",
"f.f.j x B H Y ( Q L d i x l U Q / T ' $.C r f.f.",
"f.f.f.l J _ ;.,.>.=.Q L +.@.4.9.r.p.s.d.$.f.f.f.",
"f.f.f.w g I ` -.=._ P S ' | %.7.e.p.a.X.f.f.f.f.",
"f.f.f.f.e G E ! ! P S s ' X.3.0.t.u.&.o f.f.f.f.",
"f.f.f.f.f.e G D S N a u V X.:.q.y.8.- f.f.f.f.f.",
"f.f.f.f.f.f.w f p y 7 6 V X.1.w.6.3 f.f.f.f.f.f.",
"f.f.f.f.f.f.f.9 8 5 2 4 M @.2.5.0 f.f.f.f.f.f.f.",
"f.f.f.f.f.f.f., > : & ; m O.<.t f.f.f.f.f.f.f.f.",
"f.f.f.f.f.f.f.f.& : @ O v [ n X f.f.f.f.f.f.f.f.",
"f.f.f.f.f.f.f.f.f.% O   c b + f.f.f.f.f.f.f.f.f.",
"f.f.f.f.f.f.f.f.f.f.# . 1 $ f.f.f.f.f.f.f.f.f.f.",
"f.f.f.f.f.f.f.f.f.f.f.h < f.f.f.f.f.f.f.f.f.f.f.",
"f.f.f.f.f.f.f.f.f.f.f.f.f.f.f.f.f.f.f.f.f.f.f.f.",
"f.f.f.f.f.f.f.f.f.f.f.f.f.f.f.f.f.f.f.f.f.f.f.f.",
"f.f.f.f.f.f.f.f.f.f.f.f.f.f.f.f.f.f.f.f.f.f.f.f.",
"f.f.f.f.f.f.f.f.f.f.f.f.f.f.f.f.f.f.f.f.f.f.f.f.",
"f.f.f.f.f.f.f.f.f.f.f.f.f.f.f.f.f.f.f.f.f.f.f.f."
};
