/* XPM */
static char *eclipse_xpm[] = {
/* columns rows colors chars-per-pixel */
"32 32 74 1 ",
"  c #444444",
". c #47474B",
"X c #4B4B4B",
"o c #5D5D4E",
"O c #4D4D55",
"+ c #4E4E5A",
"@ c #535353",
"# c #5C5C50",
"$ c #575759",
"% c #5B5B5C",
"& c #64644A",
"* c #69694D",
"= c #727244",
"- c #7A7A41",
"; c #767648",
": c #6B6B56",
"> c #656659",
", c #6B6B58",
"< c #787953",
"1 c #7B7C59",
"2 c #5E5D64",
"3 c #636363",
"4 c #65656A",
"5 c #6B6B6B",
"6 c #7A7A69",
"7 c #6C6C70",
"8 c #757575",
"9 c #767678",
"0 c #7B7B7B",
"q c #8C8C3C",
"w c #9E9E34",
"e c #919239",
"r c #9FA02F",
"t c #ACAC2A",
"y c #B7B726",
"u c #BBBB24",
"i c #B3B328",
"p c #A9AA30",
"a c #A7A83A",
"s c #ACAD38",
"d c #C7C81F",
"f c #DADB16",
"g c #D5D618",
"h c #DFE014",
"j c #E0E113",
"k c #C2C324",
"l c #898A4C",
"z c #9D9E52",
"x c #AFB056",
"c c #9E9E77",
"v c #AAAB6F",
"b c #CBCC44",
"n c #7D7D83",
"m c #848484",
"M c #8D8D81",
"N c #838389",
"B c #8B8B8B",
"V c #949486",
"C c #999A8B",
"Z c #939392",
"A c #9C9C9C",
"S c #A4A4A4",
"D c #AAAAAA",
"F c #B5B5B5",
"G c #BBBBBB",
"H c #C3C3C3",
"J c #CBCBCB",
"K c #D4D4D4",
"L c #DBDBDB",
"P c #E3E3E3",
"I c #EBEBEB",
"U c #F4F4F4",
"Y c #FBFBFB",
"T c None",
/* pixels */
"TTTTTTTTTTTTTTTTTTTTTmBm0TTTTTTT",
"TTTTTTTTTTTTTTTTT@ZJLIUKKTTTTTTT",
"TTTTTTTTTTTTT0mALYYPLLUFPTTTTTTT",
"TTTTTTTTT@BJLIIIPLJDDKUFPTTTTTTT",
"TTTTTTmZKYYIKJHDB885SLUFPTTTTTTT",
"TTTFLIIIPJA0m0887743DLUFLTTTTTTT",
"TTTPKHDm370Bm0873%#XFLIFLTTTTTTT",
"TTTLG0BZZZBmn02%@@@XFLIGLTTTTTTT",
"TTTLGBACZZNxz,peo@@XGLIGLTTTTTTT",
"TTTLGmCbvBB63%%kdo@XHLIFLTTTTTTT",
"TTTLGmMbcB8432$;ju@XJLIFLTTTTTTT",
"TTTLG0Nnm8113%%+fj-XJLIFLTTTTTTT",
"TTTLG0mc04sa2%%+fftXKLIGKTTTTTTT",
"TTTKH80043l1%%$&jfyXLLPGKTTTTTTT",
"TTTLH7853%2%%$@wfft.LLPGKTTTTTTT",
"TTTKH55%>:%%%@*gfj=.ILPGKTTTTTTT",
"TTTKH4%$%wl*&qfffiO.ULPFKTTTTTTT",
"TTTKJ3@@@@efgffhy#@ ULPGKTTTTTTT",
"TTTKJ#@@@@@&rut-O@@ YLPGJTTTTTTT",
"TTTKJ888887775542%@ YLLGJTTTTTTT",
"TTTKLKKKKKKKKKKLPIUYILLGJTTTTTTT",
"TTTJIUUUIIPLPLLLLLLKLLLGJTTTTTTT",
"TTT%%@70ZSFHHKKKKLPLPPPHJTTTTTTT",
"TTTTTTTTTTTTT@FSSAAcnnnn0TTTTTTT",
"TTTTTTTTTTTTT@HGHHJATTTTTTTTTTTT",
"TTTTTTTTTTXX@AGGFGGDTTTTTTTTTTTT",
"TTTT0mBZSFHJJJHHGGJDTTTTTTTTTTTT",
"TTTTAYIIPPLLLKJJKIK7TTTTTTTTTTTT",
"TTTTTDPIUYYUUUUULD%TTTTTTTTTTTTT",
"TTTTTTTBZSGJKKJBTTTTTTTTTTTTTTTT",
"TTTTTTTTTTTTTTTTTTTTTTTTTTTTTTTT",
"TTTTTTTTTTTTTTTTTTTTTTTTTTTTTTTT"
};
