/* XPM */
static char *eclipse_xpm[] = {
/* columns rows colors chars-per-pixel */
"24 24 197 2 ",
"   c #525251",
".  c #525252",
"X  c #525253",
"o  c #535353",
"O  c #565656",
"+  c #565657",
"@  c #575757",
"#  c #5E5E53",
"$  c #5D5D55",
"%  c #555558",
"&  c #575759",
"*  c #56565B",
"=  c #585859",
"-  c #59595A",
";  c #5A5A5B",
":  c #5A5A5C",
">  c #5D5D5C",
",  c #5C5C5D",
"<  c #5D5D5D",
"1  c #5F5F5F",
"2  c #6F6F45",
"3  c #60604D",
"4  c #62624F",
"5  c #6D6D4E",
"6  c #767642",
"7  c #707145",
"8  c #787841",
"9  c #7B7C43",
"0  c #70704E",
"q  c #7B7B4E",
"w  c #636352",
"e  c #646452",
"r  c #616155",
"t  c #666659",
"y  c #62625E",
"u  c #6C6D58",
"i  c #6A6A5C",
"p  c #78795B",
"a  c #606060",
"s  c #616161",
"d  c #626261",
"f  c #636363",
"g  c #646461",
"h  c #636364",
"j  c #676767",
"k  c #646468",
"l  c #686868",
"z  c #6C6C6C",
"x  c #757567",
"c  c #73736D",
"v  c #73736F",
"b  c #7D7D6C",
"n  c #707071",
"m  c #727270",
"M  c #717173",
"N  c #727272",
"B  c #737373",
"V  c #707075",
"C  c #747474",
"Z  c #757575",
"A  c #797979",
"S  c #7A7A7A",
"D  c #7C7C7C",
"F  c #8A8A3D",
"G  c #949435",
"H  c #969738",
"J  c #91913C",
"K  c #A6A62D",
"L  c #ADAD29",
"P  c #AFB028",
"I  c #B7B826",
"U  c #BDBE22",
"Y  c #B1B229",
"T  c #BFC022",
"R  c #C7C71D",
"E  c #C4C51F",
"W  c #C6C61E",
"Q  c #C8C91E",
"!  c #D6D717",
"~  c #DDDE14",
"^  c #DDDE15",
"/  c #D2D31A",
"(  c #D4D519",
")  c #888940",
"_  c #888841",
"`  c #969743",
"'  c #838354",
"]  c #83845B",
"[  c #BABB5A",
"{  c #858563",
"}  c #818267",
"|  c #97976A",
" . c #81817E",
".. c #88887F",
"X. c #979778",
"o. c #A2A275",
"O. c #808080",
"+. c #848481",
"@. c #848384",
"#. c #858585",
"$. c #848486",
"%. c #868686",
"&. c #878787",
"*. c #898985",
"=. c #8C8C85",
"-. c #8C8D8A",
";. c #8C8C8C",
":. c #8C8C8D",
">. c #8D8D8D",
",. c #8E8E8E",
"<. c #9A9A89",
"1. c #909090",
"2. c #929292",
"3. c #939393",
"4. c #949494",
"5. c #959595",
"6. c #9A9A9A",
"7. c #9C9C9C",
"8. c #9D9D9D",
"9. c #9E9E9E",
"0. c #A2A281",
"q. c #A2A2A2",
"w. c #A3A3A3",
"e. c #A4A4A4",
"r. c #A5A5A5",
"t. c #AAAAAA",
"y. c #ABABAB",
"u. c #ACACAC",
"i. c #ADADAD",
"p. c #AEAEAE",
"a. c #AFAFAF",
"s. c #B0B0B0",
"d. c #B1B1B1",
"f. c #B2B2B2",
"g. c #B3B3B3",
"h. c #B4B4B4",
"j. c #B5B5B5",
"k. c #B6B6B6",
"l. c #B7B7B7",
"z. c #B8B8B8",
"x. c #B9B9B9",
"c. c #BABABA",
"v. c #BBBBBB",
"b. c #BCBCBC",
"n. c #BEBEBE",
"m. c #BFBFBF",
"M. c #C0C0C0",
"N. c #C1C1C1",
"B. c #C2C2C2",
"V. c #C3C3C3",
"C. c #C4C4C4",
"Z. c #C5C5C5",
"A. c #C5C5C6",
"S. c #C6C6C6",
"D. c #C7C7C7",
"F. c #C8C8C8",
"G. c #C9C9C9",
"H. c #CACACA",
"J. c #CBCBCB",
"K. c #C9C9CC",
"L. c #CCCCCC",
"P. c #CDCDCD",
"I. c #CDCDCF",
"U. c #CECECE",
"Y. c #CFCFCF",
"T. c #CDCDD0",
"R. c #CECED1",
"E. c #D0D0D1",
"W. c #D1D1D1",
"Q. c #D1D1D2",
"!. c #D2D2D2",
"~. c #D3D3D3",
"^. c #D4D4D4",
"/. c #D5D5D5",
"(. c #D5D5D6",
"). c #D6D6D6",
"_. c #D7D7D6",
"`. c #D7D7D7",
"'. c #D8D8D8",
"]. c #D9D9D9",
"[. c #DBDBDB",
"{. c #DCDCDC",
"}. c #DDDDDD",
"|. c #DEDEDE",
" X c #DFDFDF",
".X c #E0E0E0",
"XX c #E1E1E1",
"oX c #E2E2E2",
"OX c #E3E3E3",
"+X c #E4E4E4",
"@X c #E5E5E5",
"#X c #E6E6E6",
"$X c #E7E7E7",
"%X c #E8E8E8",
"&X c #E9E9E9",
"*X c #EAEAEA",
"=X c None",
/* pixels */
"=X=X=X=X=X=X=X=X=X=X=X=X=X=X=Xa.a.e.6.=X=X=X=X=X",
"=X=X=X=X=X=X=X=X=X=X=X4.d.B./.|.*X/.G.=X=X=X=X=X",
"=X=X=X=X=X=X=X$.B./.W.U.|.'.n.B.#XG.U.=X=X=X=X=X",
"=X=X=X=Xy.d.'.|.U.m.k.r.&.A N a.#XU.U.=X=X=X=X=X",
"=X=XB.'.U.b.e.4.$.D A v l a 1 d.#XG.U.=X=X=X=X=X",
"=X=XW.x.1.:.$.$.&. .v y + o + k.#XG.U.=X=X=X=X=X",
"=X=XU.d.-.0.<.:.| ] q H 7 o @ n.#XG.G.=X=X=X=X=X",
"=X=XU.d.=.[ o.$.c g 1 J U 7 % m.#XG.G.=X=X=X=X=X",
"=X=XU.a.+.X.*.b p g 1 w ( K $ Z.OXG.G.=X=X=X=X=X",
"=X=XU.a.D O.N ' ` y = # / E 5 K.OXG.Z.=X=X=X=X=X",
"=X=XU.a.B N a i u 1 + 9 ! E 5 R.OXZ.Z.=X=X=X=X=X",
"=X=XU.d.z a t t ; = 4 Y ^ L r /..XG.Z.=X=X=X=X=X",
"=X=XU.a.a = e _ F F I ^ Q 6 % '..XZ.Z.=X=X=X=X=X",
"=X=XG.a.+ o o 4 H U R L 9 o = OX.XZ.B.=X=X=X=X=X",
"=X=XG.k.B B B V v } { x k a l #X|.Z.B.=X=X=X=X=X",
"=X=XG.|.'././.W.W.K.R.W.`.{.#X$X|.Z.m.=X=X=X=X=X",
"=X=X9.a.d.n.Z.U.W././.'.|.|.|.|.|.G.m.=X=X=X=X=X",
"=X=X=X=X=X=X=X=X=X=X9.x.d.d.e.9.9.4.:.=X=X=X=X=X",
"=X=X=X=X=X=X=X=X=X=X4.x.x.n.e.=X=X=X=X=X=X=X=X=X",
"=X=X=X=X=X:.1.6.9.e.x.n.x.B.t.=X=X=X=X=X=X=X=X=X",
"=X=X=Xr.W.W./.'.|.'.W.W./.W.4.=X=X=X=X=X=X=X=X=X",
"=X=X=X=XG.|.|.OX#X*X*X'.V.:.=X=X=X=X=X=X=X=X=X=X",
"=X=X=X=X=X=X=Xt.d.x.k.1.=X=X=X=X=X=X=X=X=X=X=X=X",
"=X=X=X=X=X=X=X=X=X=X=X=X=X=X=X=X=X=X=X=X=X=X=X=X"
};
