/* XPM */
static char *edit_xpm[] = {
/* columns rows colors chars-per-pixel */
"32 32 150 2 ",
"   c #1B0C03",
".  c #1F1007",
"X  c #191614",
"o  c #211104",
"O  c #2F1706",
"+  c #221209",
"@  c #2E1A0E",
"#  c #2E1B10",
"$  c #311D11",
"%  c #2F241D",
"&  c #4C2E1B",
"*  c #4D3B34",
"=  c #4D3D39",
"-  c #48403A",
";  c #514339",
":  c #64442E",
">  c #003073",
",  c #0B3978",
"<  c #123F7B",
"1  c #775944",
"2  c #42516A",
"3  c #535E78",
"4  c #846752",
"5  c #997051",
"6  c #88796C",
"7  c #B89576",
"8  c #BC987B",
"9  c #254F87",
"0  c #3D6292",
"q  c #0B56AF",
"w  c #2466B7",
"e  c #4E6E99",
"r  c #6F7C92",
"t  c #5874A3",
"y  c #1C67C4",
"u  c #1D69C6",
"i  c #1F6BC8",
"p  c #246FCA",
"a  c #2A73CC",
"s  c #3177CB",
"d  c #357ACD",
"f  c #3A7DCD",
"g  c #2C76D1",
"h  c #337BD3",
"j  c #3A7ED2",
"k  c #6780A3",
"l  c #7F92AE",
"z  c #3E81D4",
"x  c #3C81DA",
"c  c #4383D5",
"v  c #4286D8",
"b  c #4689D9",
"n  c #4A8ADB",
"m  c #528DD7",
"M  c #508DDF",
"N  c #5690D7",
"B  c #5290DD",
"V  c #679CDE",
"C  c #4D8CE2",
"Z  c #478CE8",
"A  c #518EE1",
"S  c #5592E3",
"D  c #5995E5",
"F  c #5E9BE6",
"G  c #5E99EA",
"H  c #639CE4",
"J  c #639DEC",
"K  c #67A1E9",
"L  c #6AA3EE",
"P  c #6BA3F2",
"I  c #65A4FB",
"U  c #70A7F5",
"Y  c #72A8F3",
"T  c #7AAFF5",
"R  c #76ABF8",
"E  c #79ADFA",
"W  c #7EB2FE",
"Q  c #9C9C9C",
"!  c #A19284",
"~  c #B19785",
"^  c #B9AB9F",
"/  c #8D94A0",
"(  c #929CA8",
")  c #929FB3",
"_  c #A7A7A7",
"`  c #A9A7A8",
"'  c #ACACAC",
"]  c #B5B2AE",
"[  c #B6B5B6",
"{  c #BCBCBC",
"}  c #C7A081",
"|  c #CAA183",
" . c #D6B598",
".. c #EFBE99",
"X. c #DBBDA2",
"o. c #C2BDB8",
"O. c #ECC19F",
"+. c #E3C2A6",
"@. c #EAC7AC",
"#. c #EACBAF",
"$. c #F7CCAB",
"%. c #FACEAD",
"&. c #FAD0AE",
"*. c #E7CAB5",
"=. c #E6CFBC",
"-. c #F3CDB1",
";. c #FCD5B4",
":. c #FED9BA",
">. c #97BDED",
",. c #83B5FA",
"<. c #8DBDFF",
"1. c #BDC0CA",
"2. c #95C3FF",
"3. c #98C4FF",
"4. c #9FCAFF",
"5. c #AFCAEE",
"6. c #A0CBFF",
"7. c #B3CEF3",
"8. c #BCD4F3",
"9. c #C5C5C5",
"0. c #CEC7C1",
"q. c #CCCCCC",
"w. c #D0CFCF",
"e. c #D3D0CD",
"r. c #D4D3D3",
"t. c #DAD6D4",
"y. c #DEDAD7",
"u. c #DCDCDC",
"i. c #F6DAC3",
"p. c #FCDDC2",
"a. c #E1DFDF",
"s. c #FDE2C4",
"d. c #FBE2CB",
"f. c #F0E1D6",
"g. c #F9E5D2",
"h. c #F7E8D8",
"j. c #FBEAD8",
"k. c #C4D9F4",
"l. c #E4E3E3",
"z. c #ECE7E4",
"x. c #ECECEB",
"c. c #FBEFE2",
"v. c #F2EFED",
"b. c #F5F2ED",
"n. c #F5F5F5",
"m. c #F8F7F7",
"M. c #FDFAF6",
"N. c #F7F8F8",
"B. c #FCFCFB",
"V. c None",
/* pixels */
"V.V.V.V.V.V.V.V.V.V.V.V.V.V.V.V.V.V.V.V.V.V.V.V.V.V.V.V.V.V.V.V.",
"V.V.V.F B D H L Y T ,.<.3.6.6.6.6.4.2.<.,.T U K F D B D V.V.V.V.",
"V.V.V.n j z b n S G J P R W ,.W W W R P J D >.C c z d v V.V.V.V.",
"V.V.V.n d z v n S D J P Y E W W W R U J G C 8.j V m z c V.V.V.V.",
"V.V.V.n d j c n C D G J P U R R R U P J D 7.k.5.z m z b V.V.V.V.",
"V.V.V.b d z c v n A D H J L U U P L J G S A n j c z s z V.V.V.V.",
"V.V.V.b s d z c n M S D J I I I J J G D A H B b N c z z V.V.V.V.",
"V.V.V.b s d j z c n C A 3 = & * t G D A C n c z f d s z V.V.V.V.",
"V.V.V.h u i p g s h v $ @ # # @ O 2 Z x j h g a p u u g V.V.V.V.",
"V.V.V.B.B.B.B.B.B.B.6 + + + .   . + ^ B.B.B.B.B.B.B.B.B.V.V.V.V.",
"V.V.V.B.N.N.N.N.B.B.% : 4 4 ~ i.%.: - B.B.B.N.B.M.N.N.B.V.V.V.V.",
"V.V.V.B.N.M.N.N.B.B.$ s.g.j.c.c.g...X B.B.B.N.N.M.N.N.B.V.V.V.V.",
"V.V.V.B.B.B.N.B.B.B.1 p.d.f.h.h.g.;.; B.B.N.N.B.m.N.B.B.V.V.V.V.",
"V.V.V.B.n.B.N.m.B.B.7 :.d.d.g.d.d.&.! B.B.B.B.N.N.B.N.B.V.V.V.V.",
"V.V.V.B.n.N.N.B.B.B.=.;.p.s.d.d.p.$.b.B.B.N.N.B.n.n.n.B.V.V.V.V.",
"V.V.V.B.N.B.N.N.B.B.n...:.p.p.i.:.-.B.M.m.N.n.n.n.n.n.B.V.V.V.V.",
"V.V.V.B.m.M.B.N.B.N.B.*.;.:.:.:.&.f.n.N.n.n.n.n.v.x.x.B.V.V.V.V.",
"V.V.V.B.m.N.N.N.N.B.B.z.| :.:.;.} n.n.n.n.x.x.x.x.x.x.B.V.V.V.V.",
"V.V.V.B.N.m.N.N.m.B.M.n.5 8 | 8  .n.x.x.x.x.x.l.l.l.a.B.V.V.V.V.",
"V.V.V.B.N.N.N.N.m.N.B.v.|  .X.#.@.a.l.a.a.a.u.u.u.r.w.u.V.V.V.V.",
"V.V.V.B.N.N.N.N.B.N.u.x.z. .+.+.y.r.{ 9.9.9.q.q.w.u.v.V.V.V.V.V.",
"V.V.V.B.N.n.B.x.t.u.x.u.n.B.r x.u.' B.B.B.B.B.B.B.a.V.V.V.V.V.V.",
"V.V.V.B.N.l.r.l.N.B.B.r.B.( q / u.Q B.N.B.n.x.u.w.V.V.V.V.V.V.V.",
"V.V.V.B.t.x.N.B.N.N.N.x.u.M., b.{ Q B.N.n.x.a.t.V.V.V.V.V.V.V.V.",
"V.V.V.B.x.n.n.n.N.N.N.N.N.1.q q.r.` B.n.x.l.u.V.V.V.V.V.V.V.V.V.",
"V.V.V.B.n.n.n.n.n.N.n.n.n.l a ) w.` B.v.a.l.V.V.V.V.V.V.V.V.V.V.",
"V.V.V.B.x.x.x.n.n.n.n.n.B.e h k w.` B.l.a.V.V.V.V.V.V.V.V.V.V.V.",
"V.V.V.B.[ q.l.x.l.x.x.x.b.9 a 0 w.' B.u.V.V.V.V.V.V.V.V.V.V.V.V.",
"V.V.V.B.n.u.[ [ [ 9.9.q.t.> w < ] 1.x.V.V.V.V.V.V.V.V.V.V.V.V.V.",
"V.V.V.B.n.n.n.B.n.x.u.t.e.e.0.o.` v.V.V.V.V.V.V.V.V.V.V.V.V.V.V.",
"V.V.V.B.B.B.B.B.B.B.B.B.B.B.B.B.r.V.V.V.V.V.V.V.V.V.V.V.V.V.V.V.",
"V.V.V.V.V.V.V.V.V.V.V.V.V.V.V.V.V.V.V.V.V.V.V.V.V.V.V.V.V.V.V.V."
};
