/* XPM */
static char *edit_xpm[] = {
/* columns rows colors chars-per-pixel */
"24 24 126 2 ",
"   c #251105",
".  c #291509",
"X  c #2A190E",
"o  c #2A201D",
"O  c #443022",
"+  c #51392A",
"@  c #5C483A",
"#  c #383B48",
"$  c #625042",
"%  c #775A46",
"&  c #7A614E",
"*  c #515363",
"=  c #816B5B",
"-  c #A68B72",
";  c #AF937C",
":  c #2861A8",
">  c #53668B",
",  c #526E98",
"<  c #50719B",
"1  c #456DA2",
"2  c #4772A8",
"3  c #4A7BBA",
"4  c #587DB4",
"5  c #2F76CC",
"6  c #3776C2",
"7  c #3E7BC4",
"8  c #3479CE",
"9  c #3C7ECF",
"0  c #3A7ED2",
"q  c #407CC5",
"w  c #658BBD",
"e  c #6E8FBA",
"r  c #718EB3",
"t  c #3E80D2",
"y  c #4A85CC",
"u  c #5F8FCA",
"i  c #4384D5",
"p  c #4A88D6",
"a  c #4686D8",
"s  c #4688D8",
"d  c #4B8BDC",
"f  c #5288D2",
"g  c #518EDC",
"h  c #5E94D6",
"j  c #5591DF",
"k  c #6290CE",
"l  c #6095D5",
"z  c #649ADA",
"x  c #699DDE",
"c  c #4F8EE2",
"v  c #5591E2",
"b  c #5A96E6",
"n  c #5C97E8",
"m  c #5D99E9",
"M  c #649DE5",
"N  c #649DEC",
"B  c #6DA0E2",
"V  c #68A0EF",
"C  c #71A3E4",
"Z  c #75A9ED",
"A  c #6BA3F2",
"S  c #73A9F7",
"D  c #7BAFFA",
"F  c #7CB0FC",
"G  c #99908A",
"H  c #829AB8",
"J  c #99A9BD",
"K  c #ADA6A2",
"L  c #ADB3BE",
"P  c #B0B1B2",
"I  c #B7B8BA",
"U  c #BEBDBD",
"Y  c #C39D80",
"T  c #C7A48B",
"R  c #D2B092",
"E  c #DCB697",
"W  c #DBBA9E",
"Q  c #E1BA9C",
"!  c #C0B1A5",
"~  c #D4BDAA",
"^  c #D9BFA8",
"/  c #C0C0BF",
"(  c #DFC9B6",
")  c #EFCCAE",
"_  c #F4CEAF",
"`  c #E1C7B1",
"'  c #EFCEB4",
"]  c #E3CCB9",
"[  c #F4D5BB",
"{  c #FBD6B8",
"}  c #FDDABC",
"|  c #91A7C4",
" . c #88B1E6",
".. c #88B2EB",
"X. c #99BDED",
"o. c #8CBCFD",
"O. c #90BFFF",
"+. c #BDC6D2",
"@. c #C3C2C0",
"#. c #CDCCCC",
"$. c #D5D4D4",
"%. c #D9D6D5",
"&. c #D2D8DE",
"*. c #DCDBDB",
"=. c #E4D2C1",
"-. c #E6D8CC",
";. c #EEDBCE",
":. c #FCDEC3",
">. c #E0DFDF",
",. c #FCE4CD",
"<. c #EBE1D8",
"1. c #F7E5D7",
"2. c #FAE9D7",
"3. c #F9E9D9",
"4. c #E6E6E6",
"5. c #E8E7E5",
"6. c #EAE8E6",
"7. c #E7E7E8",
"8. c #E8E7E8",
"9. c #EBEBEA",
"0. c #F2EEEB",
"q. c #F4F4F4",
"w. c #F8F7F7",
"e. c #F7F8F8",
"r. c #FAFAFA",
"t. c None",
/* pixels */
"t.t.t.t.t.t.t.t.t.t.t.t.t.t.t.t.t.t.t.t.t.t.t.t.",
"t.t.y s d b N Z D o.O.O.O.o.F A Z M g s s t.t.t.",
"t.t.q t i s v m V S D F F S V m ..B f i t t.t.t.",
"t.t.7 0 t a c n N A S S S A N M X. .p i t t.t.t.",
"t.t.7 0 t i d v n V A A A N n v j a p 9 0 t.t.t.",
"t.t.6 5 5 0 i d f > * * 4 b c s s t 0 5 8 t.t.t.",
"t.t.u h h x M k # X .   o , C C B z l h l t.t.t.",
"t.t.7.r.r.r.r.K O + @ = % $ >.r.r.r.r.r.q.t.t.t.",
"t.t.7.r.r.r.r.G - ( =.3.:.& U r.r.r.e.e.e.t.t.t.",
"t.t.7.r.r.r.r.! W ,.1.1.,.; #.r.r.r.e.e.e.t.t.t.",
"t.t.7.r.r.r.r.-.) :.,.,.:.( 0.r.e.e.e.e.e.t.t.t.",
"t.t.7.r.q.r.r.q.[ } :.:.{ 1.r.r.e.e.q.e.q.t.t.t.",
"t.t.7.r.w.r.r.r.;._ } { ' 0.e.q.e.q.0.9.q.t.t.t.",
"t.t.7.r.w.e.w.r.6.Y Q E ^ 0.0.0.9.9.7.4.0.t.t.t.",
"t.t.7.w.e.r.w.w.0.T R W ] 4.>.>.*.*.*.*.*.t.t.t.",
"t.t.7.r.r.e.0.5.5.<.~ ( %.#.$.&.%.*.*.%.t.t.t.t.",
"t.t.4.e.9.4.7.9.7.9.H J #.#.r.r.r.q.*.t.t.t.t.t.",
"t.t.4.7.9.q.r.r.0.7.r J U #.r.q.7.$.t.t.t.t.t.t.",
"t.t.7.0.q.e.r.e.q.7.w | @.$.q.7.$.t.t.t.t.t.t.t.",
"t.t.4.0.9.q.q.e.w.&.3 e / $.q.$.t.t.t.t.t.t.t.t.",
"t.t.>.$.*.4.7.7.0.+.: 2 I *.>.t.t.t.t.t.t.t.t.t.",
"t.t.7.0.&.#.#.#.$.L 1 < P #.t.t.t.t.t.t.t.t.t.t.",
"t.t.7.r.r.r.e.q.7.7.5.*.U t.t.t.t.t.t.t.t.t.t.t.",
"t.t.t.t.t.t.t.t.t.t.t.t.t.t.t.t.t.t.t.t.t.t.t.t."
};
