/* XPM */
static char *ephem_xpm[] = {
/* columns rows colors chars-per-pixel */
"32 32 228 2 ",
"   c gray20",
".  c #444445",
"X  c #484848",
"o  c gray29",
"O  c #4B4B4B",
"+  c gray30",
"@  c #4E4E4E",
"#  c gray31",
"$  c #4F4F50",
"%  c #505050",
"&  c #515151",
"*  c gray32",
"=  c #535353",
"-  c gray33",
";  c #555555",
":  c #565656",
">  c gray34",
",  c #585858",
"<  c gray35",
"1  c #5A5A5A",
"2  c gray36",
"3  c #5D5D5D",
"4  c gray37",
"5  c #5F5F5F",
"6  c #5F5F63",
"7  c #626266",
"8  c gray40",
"9  c #6E6E71",
"0  c #6E6E72",
"q  c gray47",
"w  c #7E7E7E",
"e  c #CA1B1C",
"r  c #BB3F42",
"t  c #F03E42",
"y  c #F03F43",
"u  c #F53E40",
"i  c #9E5257",
"p  c #847478",
"a  c #A96A6D",
"s  c #CB4849",
"d  c #EF494D",
"f  c #F24144",
"g  c #F44548",
"h  c #F1484B",
"j  c #F84D4F",
"k  c #F94D4F",
"l  c #EF4C50",
"z  c #F14F53",
"x  c #EF585C",
"c  c #F75456",
"v  c #F1575B",
"b  c #F45759",
"n  c #F1585C",
"m  c #DD7077",
"M  c #EA6167",
"N  c #EA6569",
"B  c #E8666C",
"V  c #E77177",
"C  c #EC7176",
"Z  c #E4787F",
"A  c #EE7A7E",
"S  c #F27275",
"D  c #7C7B80",
"F  c #7C7C81",
"G  c #897F85",
"H  c #E47C84",
"J  c #E97D82",
"K  c #838383",
"L  c #848484",
"P  c #868686",
"I  c #848488",
"U  c #86868C",
"Y  c #86868D",
"T  c #87878E",
"R  c #888888",
"E  c #898989",
"W  c #8B8B8B",
"Q  c #88888E",
"!  c #89898F",
"~  c #8D8D8D",
"^  c #8E8E8E",
"/  c gray56",
"(  c #8A8A90",
")  c #8B8B90",
"_  c #8C8C91",
"`  c #8D8D91",
"'  c #8D8D92",
"]  c #8E8E92",
"[  c #909090",
"{  c gray57",
"}  c #909093",
"|  c #929292",
" . c #939393",
".. c #919194",
"X. c #939396",
"o. c gray58",
"O. c #959595",
"+. c #949497",
"@. c gray59",
"#. c #979797",
"$. c gray60",
"%. c #99999B",
"&. c #9A9A9A",
"*. c #9B9B9B",
"=. c #9B9B9C",
"-. c gray61",
";. c #A68384",
":. c #A9A9AD",
">. c #AEAEB8",
",. c #AFAFB9",
"<. c #B1B1BB",
"1. c gray73",
"2. c #DF858D",
"3. c #DF8A92",
"4. c #E0848C",
"5. c #F28487",
"6. c #E68C92",
"7. c #EF9195",
"8. c #E59198",
"9. c #E79399",
"0. c #F39093",
"q. c #F49A9D",
"w. c #E199A1",
"e. c #DDA1AA",
"r. c #DBA8AF",
"t. c #DDB1BA",
"y. c #E6AEB5",
"u. c #E2B1B8",
"i. c #BABAC0",
"p. c #D7BEC9",
"a. c #C4C4CF",
"s. c #CECECE",
"d. c gray81",
"f. c #C5C5D1",
"g. c #C6C6D2",
"h. c #C8C8D4",
"j. c #CACAD4",
"k. c #CBCBD5",
"l. c #CCCCD5",
"z. c #CECED7",
"x. c #CECBD8",
"c. c #CECEDB",
"v. c #DFCFD7",
"b. c #D0CCD8",
"n. c #D0D0D0",
"m. c gray82",
"M. c #D2D2D2",
"N. c LightGray",
"B. c #D3D3D4",
"V. c gray83",
"C. c #D5D5D5",
"Z. c gray84",
"A. c #D7D7D7",
"S. c #D0D0D8",
"D. c #D1D1D9",
"F. c #D2D2DA",
"G. c #D0D0DC",
"H. c #D1D0DC",
"J. c #D1D1DD",
"K. c #D3D3DF",
"L. c #D4D4DC",
"P. c #D7D7DE",
"I. c #D8D8DE",
"U. c gray87",
"Y. c #E3C3CA",
"T. c #E6C2C8",
"R. c #E0CFD7",
"E. c #EECDD1",
"W. c #EBD2D7",
"Q. c #D5D5E0",
"!. c #D6D6E1",
"~. c #D7D7E1",
"^. c #D9D7E1",
"/. c #DBD7E0",
"(. c #DADAE0",
"). c #DADAE1",
"_. c #D9D9E3",
"`. c #DBD9E2",
"'. c #DDDDE3",
"]. c #DBDBE4",
"[. c #DCDCE5",
"{. c #DDDCE5",
"}. c #DDDDE6",
"|. c #DEDEE7",
" X c #E0E0E1",
".X c #E1E1E1",
"XX c #E1E1E2",
"oX c #E2E2E2",
"OX c #E0E0E4",
"+X c #E3E2E5",
"@X c #E0E0E7",
"#X c #E5E3E6",
"$X c #E0E0E8",
"%X c #E2E2EA",
"&X c #E3E3EA",
"*X c #E4E4EB",
"=X c #E6E6EC",
"-X c #E7E7EE",
";X c #E9E7ED",
":X c #E8E8EB",
">X c #EBEBED",
",X c #E9E9EF",
"<X c #ECE8ED",
"1X c #EAEAF0",
"2X c #EBEBF0",
"3X c #ECECF1",
"4X c #EDEDF1",
"5X c #EDEDF2",
"6X c #EEEEF3",
"7X c #EFEFF3",
"8X c #F0F0F4",
"9X c #F1F1F4",
"0X c #F1F1F5",
"qX c #F2F2F5",
"wX c #F2F2F6",
"eX c #F3F3F6",
"rX c #F4F4F7",
"tX c #F5F5F7",
"yX c #F5F5F8",
"uX c #F7F7F8",
"iX c #F7F7F9",
"pX c #F8F8FA",
"aX c #F9F9FB",
"sX c #FBFBFC",
"dX c #FCFCFD",
"fX c #FDFDFE",
"gX c #FEFEFE",
"hX c None",
/* pixels */
"8 K K K K K K K K K K L K K L K K K K K L K K K K K K K K K q hX",
"L gXsXsXsXpXpXrXrXrX6X6X6X6X4XQ.1X1X2X1X4X4X4XeX6X8X6XeXeXpXs.X ",
"L gXpXeXeX6X1X1X=X*X$X}._.Q.Q.6 ,.G.J.Q.Q.Q._._.}.}.&X&X=X-Xs.o ",
"E gXpXpXeX6X1X1X*X*X$X}._.Q.,.  7 J.J.J.Q._._.}.[.}.$X&X*X=Xd.o ",
"E sXpXpXeX4X4X1X=X*X$X}._.!.a.0 <.G.G.Q.Q.Q._._._.}.$X$X*X-Xm.+ ",
"W sXpXeXeX4X1X,X*X*X$X}._.!.J.D c.G.G.Q.Q.Q._.}.}.$X$X&X*X=Xm.$ ",
"~ gXpXpXeX4X4X1X=X*X|.}._.!.Q.D c.G.J.Q.Q.~._._.}.$X$X&X=X-Xm.$ ",
"` gXpXeXeXeX1X,X-X*X|.}._.!.Q.D c.G.J.J.Q.~._.[._.}.$X*X*X=Xm.* ",
"` gXpXrXeX4X1X,X=XT.y.v._.Q.Q.D c.J.J.K.Q.Q._._.}.$X$X|.*X-XD.- ",
" .gXpXrXeXeX3X;XS b A g 8.Q.Q.D c.J.J.K.Q._._.}._.$X$X*X*X-XD.; ",
" .gXpXpXeX4X3X5.7.&X$X{.x w.Q.F c.G.J.K.Q._._._.}.$X$X*X&X,XV.; ",
"o.gXpXrXeX4XE.c =X&X$X}.^.d p.F c.G.J.K.Q.Q._.}._.$X$X|.&X,XV., ",
"o.gXpXpXeX4Xj W.=X&X$X}._.t.M F c.G.J.J.Q.~._._._.$X$X&X&X,XV.1 ",
"%.gXpXeXeXq.0.,X=X&X$X}._.Q.d p c.G.J.K.Q.~._.[._.}.$X*X&X,XV.3 ",
"%.gXpXpXeXj ;X;X=X&X&X}._.Q.e.r G.G.J.K.Q.Q._._.$X$X&X1.@X,XA.3 ",
"-.V.=.%.;.s X.X.X.` ` ` ( W T e G Y Y W ( ( ( ( ( ( a $ . :.A.5 ",
"*.uX2X:X#X+X@X'._.I.K.J.c.h.h.i m f.f.h.k.l.l.G.D.r.N 9 I _.A.3 ",
"*.gXpXqXqX7X2X,X=X&X@X}._.!.Q.D t x.G.Q.Q.Q._.}.'.v Y.}.&X=XA.3 ",
"@.gXpXpXqX7X4X1X=X&X$X}._.Q.J.F 2.2.G.Q.Q._.^.{.u.v @X&X&X-XV.2 ",
"o.gXpXrXqX7X2X,X=X&X$X}._.Q.Q.D x.t G.Q.Q.Q._.^.u R.&X&X=X-XV.1 ",
"o.gXiXpXqX7X2X,X=X&X@X}._.Q.Q.D c.3.M Q.Q.Q._.C 9.$X}.&X&X=XV., ",
" .gXiXqXqX7X4X,X=X&X@X}._.Q.Q.D c.G.H V Q.Q.6.z _.}.$X&X=X=XB.> ",
"} fXiXpXqX7X2X,X-X&X@X}._.Q.Q.F c.G.G.H d f H {.}.$X@X&X&X=XD.- ",
"} gXiXyXqX7X4X2X&X&X$X}._.Q.Q.F c.G.G.Q.Q._._._.[.}.&X&X&X,XM.- ",
"~ gXiXpX8X8X2X1X=X&X$X}._.Q.J.F G.G.J.K.K._._.'.[.$X$X$X*X-XD.% ",
"~ gXiXpXeX4X2X-X=X&X$X}._.Q.Q.F c.J.J.K.Q.Q._._._.}.$X&X*X-Xm.# ",
"W fXiXqXeX8X4X1X=X&X$X}._.Q.Q.F c.G.J.K.Q._._.}.}.}.$X&X&X-Xm.+ ",
"R gXiXpX8X8X2X1X=X&X$X}._.Q.Q.F c.G.J.K.K.Q._._.}.$X$X&X=X=Xm.+ ",
"R gXpXqXeX7X2X1X=X&X&X}._.~.K.D c.G.J.K.Q._._.}._.}.$X&X&X=Xn.O ",
"L gXpXpXeX4X2X-X=X&X@X}._.Q.K.D c.G.J.K.Q.Q._._.}.$X$X&X=X=Xd.O ",
"w +XoXoXoX.X.X.X.X.X.X.X.X.X.XU..X.X.X.X.X.X.X.X.X.X.X.X.X.X1.X ",
"= # # # $ $ $ $ # # # # # # % % + % + % $ + * + $ $ + * + $ $ hX"
};
