/* XPM */
static char *ephem_xpm[] = {
/* columns rows colors chars-per-pixel */
"24 24 91 1 ",
"  c #515151",
". c #676767",
"X c #636368",
"o c #6F6F6F",
"O c #7C7C7C",
"+ c #B94D52",
"@ c #817174",
"# c #B7686D",
"$ c #AA747A",
"% c #A1797E",
"& c #CD787F",
"* c #D9747B",
"= c #848484",
"- c #8B8B8C",
"; c #8A8A91",
": c #9D8F96",
"> c #9B979E",
", c #9B9B9B",
"< c #A08488",
"1 c #A58B93",
"2 c #B3979C",
"3 c #9A9AA2",
"4 c #A39CA4",
"5 c #9FA0A8",
"6 c #A4A4A5",
"7 c #A4A4AB",
"8 c #A7A8AE",
"9 c #ACACAC",
"0 c #ACACB1",
"q c #AFB3B7",
"w c #B3B3B4",
"e c #B1B1BB",
"r c #B8B8BA",
"t c #C58486",
"y c #DD858A",
"u c #DF8E96",
"i c #C79192",
"p c #D0959E",
"a c #E2848B",
"s c #E8878D",
"d c #E5888E",
"f c #F28A8D",
"g c #E38C94",
"h c #EF8C90",
"j c #E3939A",
"k c #E9959B",
"l c #F3979A",
"z c #DCA7B0",
"x c #DDACB5",
"c c #E3A0A7",
"v c #E9A4A9",
"b c #E5A8AF",
"n c #F3A1A4",
"m c #EEB1B5",
"M c #BCBCC0",
"N c #CCBAC4",
"B c #D6BAC5",
"V c #D5BDC8",
"C c #C3C3CE",
"Z c #CCCCCE",
"A c #D6C3CE",
"S c #C6C6D2",
"D c #C9C4D0",
"F c #C5C8D4",
"G c #CBCBD3",
"H c #CDCDD9",
"J c #DCC9D2",
"K c #D4D4D5",
"L c #D2D2DD",
"P c #DAD3DC",
"I c #DBDADF",
"U c #E9C0C5",
"Y c #E8CCD1",
"T c #F3CED1",
"R c #E2DCDF",
"E c #D5D5E0",
"W c #DDD7E0",
"Q c #D5D8E3",
"! c #DBDBE4",
"~ c #DFDFE8",
"^ c #ECDDE2",
"/ c #DFE0E8",
"( c #E2E1E6",
") c #E3E4EB",
"_ c #EAEAEF",
"` c #EDEDF2",
"' c #F2EFF2",
"] c #F2F2F5",
"[ c #F6F6F8",
"{ c #F5F8FA",
"} c #FAFAFC",
/* pixels */
"=696666666646666666666,.",
"6}}[]]`__)~qG~!~)_)___IO",
"9}['`_)~!QDX;LLLQW!~/)LO",
"9}[]`_))~QH;eLLEE!!~)_!=",
"9}[]`_))~QE3SLLE!!!~(_I=",
"9}{]`__(!QE3SLEEQ!~~/)I=",
"w}['`_UvbJE3SLLEQ!/())I=",
"w}['`UhvksA3SLEEQ!!/))(=",
"w}[]^fY)~cj>SLLEE!~~))R=",
"w}[`nm_)~Wd%FLLE!!!~~_~-",
"r}[Tl^))!Qz#DLLEE!!(L)~-",
"wZritq00874+15577882@=D-",
"w`(RWIPHHFS$&CCSGGNy<8I-",
"r}[]`_))~QE:*VEEE!bk()R-",
"w}[]`__~~QL3puEEIJaJ/_R-",
"w}[]___~~QE3NazQPsv//_!=",
"w}[]`_)(!!L3SBagdjW~~)~=",
"w}[]'_)(~!E3SLVxBQ~~))!=",
"9}[]`_))~EL3SLLQW!~~))I=",
"9}[]`_))~!E3FLEEW!!~))I=",
"9}[]`__/!QL3CLLIQ!!~)_IO",
"9}[]'`_/(!E3CLLI!!!())WO",
"6___)((~~I!MLIII!!!(((KO",
"o=====================O "
};
