/* XPM */
static char *error_xpm[] = {
/* columns rows colors chars-per-pixel */
"32 32 194 2 ",
"   c #440201",
".  c #530301",
"X  c #5C0100",
"o  c #500F05",
"O  c #5D0B04",
"+  c #551507",
"@  c #5C1105",
"#  c #521818",
"$  c #640201",
"%  c #6A0100",
"&  c #740000",
"*  c #7C0100",
"=  c #750B03",
"-  c #7A0B03",
";  c #6B1206",
":  c #6E1C09",
">  c #7C1105",
",  c #781807",
"<  c #721C09",
"1  c #7A1C09",
"2  c #67250B",
"3  c #6D230B",
"4  c #7A280D",
"5  c #7C2C19",
"6  c #6C2525",
"7  c #642B2B",
"8  c #703535",
"9  c #830100",
"0  c #8B0100",
"q  c #830903",
"w  c #8C0D04",
"e  c #930100",
"r  c #9B0100",
"t  c #920C05",
"y  c #9C0B05",
"u  c #871005",
"i  c #8A1306",
"p  c #811807",
"a  c #821B09",
"s  c #8C1B0A",
"d  c #951C09",
"f  c #9B1E12",
"g  c #931D1D",
"h  c #A30201",
"j  c #AB0101",
"k  c #AB0D04",
"l  c #AC0E0C",
"z  c #B40000",
"x  c #BD0000",
"c  c #B40A03",
"v  c #BF0C04",
"b  c #B50C0B",
"n  c #A31507",
"m  c #A21D09",
"M  c #AB1808",
"N  c #B91807",
"B  c #B31B09",
"V  c #A21C14",
"C  c #A81B18",
"Z  c #B51D1A",
"A  c #BC1A1A",
"S  c #83210B",
"D  c #8D2C0E",
"F  c #95220B",
"G  c #9B250C",
"H  c #94290D",
"J  c #982F0F",
"K  c #94300F",
"L  c #972B1E",
"P  c #9B2A1B",
"I  c #8F3213",
"U  c #853719",
"Y  c #A1210A",
"T  c #AE220B",
"R  c #A02F0F",
"E  c #A92C0E",
"W  c #B3220B",
"Q  c #BD290D",
"!  c #A7291E",
"~  c #BA2210",
"^  c #AC3C1C",
"/  c #BC3B1D",
"(  c #9D2727",
")  c #962D27",
"_  c #9F3021",
"`  c #A72E21",
"'  c #AD2B24",
"]  c #B72422",
"[  c #BF2423",
"{  c #B52925",
"}  c #BA2E2B",
"|  c #A63324",
" . c #A83123",
".. c #AA3429",
"X. c #A5382A",
"o. c #BE3F20",
"O. c #A43737",
"+. c #A53938",
"@. c #A93F3F",
"#. c #B63E36",
"$. c #BD3936",
"%. c #C30000",
"&. c #CC0000",
"*. c #C30B03",
"=. c #CA0A03",
"-. c #D40000",
";. c #DB0100",
":. c #D10B04",
">. c #DD0903",
",. c #D40909",
"<. c #C41C09",
"1. c #C91A08",
"2. c #CF1313",
"3. c #D31111",
"4. c #E10903",
"5. c #CE200A",
"6. c #C83519",
"7. c #C53E1F",
"8. c #C33A39",
"9. c #CD3B3B",
"0. c #D33535",
"q. c #D83535",
"w. c #D03D3D",
"e. c #D93C3C",
"r. c #AF493C",
"t. c #B0463B",
"y. c #BC433F",
"u. c #BC5337",
"i. c #B3583C",
"p. c #814241",
"a. c #A44444",
"s. c #AD4343",
"d. c #AE4A44",
"f. c #BB4B43",
"g. c #B24C4C",
"h. c #BD4E4B",
"j. c #B65045",
"k. c #BE544E",
"l. c #B55A4E",
"z. c #B65251",
"x. c #BB5554",
"c. c #BA5B54",
"v. c #B75A58",
"b. c #BD5C5C",
"n. c #B56E53",
"m. c #BF6059",
"M. c #B4765B",
"N. c #BF6060",
"B. c #BA6F6A",
"V. c #C44444",
"C. c #CB4242",
"Z. c #C44A47",
"A. c #CB4844",
"S. c #C44C4C",
"D. c #CA4949",
"F. c #D44743",
"G. c #CD5443",
"H. c #D15E4F",
"J. c #C35555",
"K. c #CC5453",
"L. c #C65C56",
"P. c #C15B5B",
"I. c #CB5F5C",
"U. c #D15F5F",
"Y. c #C3665E",
"T. c #C9645E",
"R. c #CB685E",
"E. c #D36759",
"W. c #D26C5F",
"Q. c #C36565",
"!. c #C56965",
"~. c #CB6B67",
"^. c #C66C6B",
"/. c #C96E6D",
"(. c #D36565",
"). c #D06C60",
"_. c #CD726F",
"`. c #CD7574",
"'. c #CF7878",
"]. c #D37C7C",
"[. c #D4807F",
"{. c #CC8A86",
"}. c #D68383",
"|. c #D88686",
" X c #DB8B8A",
".X c #DE9695",
"XX c #D49E9A",
"oX c #E09393",
"OX c #E39F9F",
"+X c #E4A5A5",
"@X c #E6A8A8",
"#X c #EAB5B5",
"$X c #EBBBBB",
"%X c None",
/* pixels */
"%X%X%X%X%X%X%X%X%X%X%X%X%X%X%X%X%X%X%X%X%X%X%X%X%X%X%X%X%X%X%X%X",
"%X%X%X%X%X%X%X%X%X%X%X%X%X%X%X+X$X$X%X%X%X%X%X%X%X%X%X%X%X%X%X%X",
"%X%X%X%X%X%X%X%X%X%X%XA (.oX@X$X$X$X#XOX(.8.%X%X%X%X%X%X%X%X%X%X",
"%X%X%X%X%X%X%X%X%Xb K. XoX X X X X X|. X.X].[ z %X%X%X%X%X%X%X%X",
"%X%X%X%X%X%X%Xj 8. X X X X|.|.}.|.}.].[.[.].}.T.b %X%X%X%X%X%X%X",
"%X%X%X%X%X%Xj I. X|.}.}._.Z.} ] Z ] 8.L.'.'.`.`._.Z %X%X%X%X%X%X",
"%X%X%X%X%Xh T.[.].].~.{ h h %X%X%X%X%Xh l f./././._.Z %X%X%X%X%X",
"%X%X%X%Xh S.'.'.'.f.h %X%X%X%X%X%X%X%X%X%Xj S.!.Q.Q.!.l %X%X%X%X",
"%X%X%X%X' `._./.#.r %X%X%X%X%X%X%X%X%X%Xh h.N.N.N.b.b.x.h %X%X%X",
"%X%X%Xr Y./.^.f.r %X%X%X%X%X%X%X%X%X%XC f.P.b.x.v.v.x.P.' %X%X%X",
"%X%X%X .Q.Q.m.y %X%X%X%X%X%X%X%X%X%X^.L.J.J.J.x.z.t.g.g.c.r %X%X",
"%X%Xe j.N.N...%X%X%X%X%X%X%X%X%X%X{.~.S.S.S.g.h.! y d.s.v.V %X%X",
"%X%Xt c.v.c.t %X%X%X%X%X%X%X%X%XXX).D.Z.V.f.Z.` 0 0 | s.t.r.%X%X",
"%X%Xf z.z.r.0 %X%X%X%X%X%X%X%XXX).F.C.C.C.Z.` 0 %X%Xf +.O.l.0 %X",
"%X%XP g.g.X.9 %X%X%X%X%X%X%X{.E.9.9.9.9.A. .9 %X%X%Xt d.a.) 0 %X",
"%X%X_ s.s._ %X%X%X%X%X%X%XB.H.0.0.0.0.F.| 9 %X%X%X%Xw w * i 0 %X",
"%X%XF g ( P %X%X%X%X%X%X) G.q.q.e.e.F...* %X%X%X%X%X0 w 9 i q %X",
"%X%Xa * 9 d & %X%X%X%Xq ~ 2.3.3.,.=.m * %X%X%X%X%X%Xu w 9 i * %X",
"%X%Xi 9 0 d & %X%X%X- N &.-.-.;.>.m & %X%X%X%X%X%X%Xs e 9 s & %X",
"%X%X- i 0 y > %X%X- B %.-.-.;.>.m % %X%X%X%X%X%X%X& d e 0 s %X%X",
"%X%X% s 0 r d % = T %.&.-.;.4.m % %X%X%X%X%X%X%X%X- n e 0 a %X%X",
"%X%X%XS 0 r n 1 T x %.-.;.4.G % %X%X%X%X%X%X%X%X% F r e F % %X%X",
"%X%X%X$ G r j M z %.&.-.>.G $ %X%X%X%X%X%X%X%X%Xa k r r S %X%X%X",
"%X%X%X%X1 y h j z x %.:.H X %X%X%X%X%X%X%X%X%X, M j h G $ %X%X%X",
"%X%X%X%X. D h j z x =.H . %X%X%X%X%X%X%X%XX S N z j m ; %X%X%X%X",
"%X%X%X%X%X. J j z x <.D O 6 %X%X%X%X%Xp.5 E *.x j M < %X%X%X%X%X",
"%X%X%X%X%X%X. K c x %.&.5./ i.n.M.n.u.6.:.&.x z W : %X%X%X%X%X%X",
"%X%X%X%X%X%X%X  4 W %.=.&.-.;.;.;.;.-.-.&.%.*.R @ %X%X%X%X%X%X%X",
"%X%X%X%X%X%X%X%X%Xo D Q =.&.-.;.;.-.-.&.1.E 3   %X%X%X%X%X%X%X%X",
"%X%X%X%X%X%X%X%X%X%X%X  2 I ^ / 7.o.^ U +   %X%X%X%X%X%X%X%X%X%X",
"%X%X%X%X%X%X%X%X%X%X%X%X%X%X# 7 8 7 %X%X%X%X%X%X%X%X%X%X%X%X%X%X",
"%X%X%X%X%X%X%X%X%X%X%X%X%X%X%X%X%X%X%X%X%X%X%X%X%X%X%X%X%X%X%X%X"
};
