/* XPM */
static char *error_xpm[] = {
/* columns rows colors chars-per-pixel */
"24 24 155 2 ",
"   c #5F0E06",
".  c #5C1105",
"X  c #700F05",
"o  c #651205",
"O  c #6A1406",
"+  c #741506",
"@  c #7B1306",
"#  c #7C1708",
"$  c #711B09",
"%  c #65200B",
"&  c #7A2C16",
"*  c #840602",
"=  c #8B0703",
"-  c #850D04",
";  c #8B0C04",
":  c #910401",
">  c #9A0502",
",  c #940C04",
"<  c #841407",
"1  c #8A1306",
"2  c #851807",
"3  c #88170B",
"4  c #841F0A",
"5  c #8F1B0C",
"6  c #931406",
"7  c #9B1306",
"8  c #9E1807",
"9  c #93130A",
"0  c #971908",
"q  c #9C1D0A",
"w  c #8B1611",
"e  c #9F1711",
"r  c #931B14",
"t  c #9C1B15",
"y  c #A30401",
"u  c #AC0401",
"i  c #A30A05",
"p  c #B40301",
"a  c #BB0301",
"s  c #B40E04",
"d  c #BC0C04",
"f  c #A51306",
"g  c #AB1306",
"h  c #A41908",
"j  c #AC1D0E",
"k  c #B21206",
"l  c #BD1007",
"z  c #A91614",
"x  c #A81814",
"c  c #AC1F1C",
"v  c #B01917",
"b  c #BA1817",
"n  c #B11C1A",
"m  c #842A15",
"M  c #932116",
"N  c #962318",
"B  c #98201C",
"V  c #A6221D",
"C  c #9C2820",
"Z  c #953521",
"A  c #993320",
"S  c #AA2C25",
"D  c #B32321",
"F  c #B82422",
"G  c #B42826",
"H  c #B52A28",
"J  c #BC2B2A",
"K  c #AA3026",
"L  c #A23927",
"P  c #A7322C",
"I  c #AC3328",
"U  c #AB3E2C",
"Y  c #B0312C",
"T  c #A33531",
"R  c #A73A37",
"E  c #AE3E36",
"W  c #A93E3A",
"Q  c #B93230",
"!  c #B03A34",
"~  c #B83B37",
"^  c #BA3C3A",
"/  c #C20401",
"(  c #CD0301",
")  c #C50E05",
"_  c #CC0A04",
"`  c #C30F08",
"'  c #D40401",
"]  c #D80000",
"[  c #D30C05",
"{  c #D40909",
"}  c #CD1007",
"|  c #CF140C",
" . c #D11C14",
".. c #D22119",
"X. c #D62B2B",
"o. c #D82C2C",
"O. c #D0342F",
"+. c #C33938",
"@. c #CC3F3D",
"#. c #D03A33",
"$. c #D23838",
"%. c #A3432F",
"&. c #A6413E",
"*. c #C4423F",
"=. c #AC4340",
"-. c #B04641",
";. c #BB4642",
":. c #B34C49",
">. c #BA4B49",
",. c #B5504D",
"<. c #BD504D",
"1. c #B75351",
"2. c #BC5553",
"3. c #BA5A57",
"4. c #BE5E5E",
"5. c #AC654E",
"6. c #B0604B",
"7. c #AF6F58",
"8. c #BF605F",
"9. c #C54646",
"0. c #C84747",
"q. c #C04946",
"w. c #C24F4F",
"e. c #D34C46",
"r. c #CA504F",
"t. c #D1534E",
"y. c #C05757",
"u. c #CD5753",
"i. c #C75955",
"p. c #C45D5A",
"a. c #C95B59",
"s. c #C1605D",
"d. c #C56765",
"f. c #CB6463",
"g. c #C76960",
"h. c #C96866",
"j. c #C56969",
"k. c #CD6B69",
"l. c #D16262",
"z. c #D46C6C",
"x. c #CB736D",
"c. c #CB7272",
"v. c #D27473",
"b. c #D17E76",
"n. c #D27B7B",
"m. c #D2837B",
"M. c #D58181",
"N. c #D98383",
"B. c #DD8C8C",
"V. c #DE9494",
"C. c #E19999",
"Z. c #E7ABAB",
"A. c #E9B5B5",
"S. c #EBBBBB",
"D. c None",
/* pixels */
"D.D.D.D.D.D.D.D.D.D.D.D.D.D.D.D.D.D.D.D.D.D.D.D.",
"D.D.D.D.D.D.D.D.D.l.B.Z.S.A.C.D.D.D.D.D.D.D.D.D.",
"D.D.D.D.D.D.D.+.z.N.V.C.C.C.V.N.r.b D.D.D.D.D.D.",
"D.D.D.D.D.F a.N.B.M.v.k.f.z.v.n.n.f.J D.D.D.D.D.",
"D.D.D.D.G f.M.n.a.^ H n v F Q >.h.c.d.Q D.D.D.D.",
"D.D.D.c p.n.k.^ x D.D.D.D.D.D.i ~ d.h.8.H D.D.D.",
"D.D.D.;.x.d.Y D.D.D.D.D.D.D.D.G 2.p.4.4.<.x D.D.",
"D.D.V s.d.! D.D.D.D.D.D.D.D.;.w.3.2.1.,.1.! D.D.",
"D.D.E s.>.t D.D.D.D.D.D.D.x.p.w.w.>.S P :.-.e D.",
"D.D.-.3.P D.D.D.D.D.D.D.m.u.0.0.;.S = t R =.T D.",
"D.r &.>.C D.D.D.D.D.D.b.t.@.@.*.S D.D.9 T W C D.",
"D.N W &.N D.D.D.D.D.g.e.$.$.@.S D.D.D.D.r w - D.",
"D.3 r B 5 D.D.D.D.I #.o.o.O.S D.D.D.D.D.= * - D.",
"D.< * = 1 D.D.D.7 ` { { [ f D.D.D.D.D.< = = - D.",
"D.D.- = ; D.D.6 ) ( ] ] f D.D.D.D.D.D.1 , = < D.",
"D.D.2 : , @ 6 d ( ] [ f D.D.D.D.D.D.D.6 : ; @ D.",
"D.D.+ , y 8 s / ( [ f D.D.D.D.D.D.D.< i : 1 D.D.",
"D.D.D.2 > u a / _ 8 D.D.D.D.D.D.D.# f y 6 X D.D.",
"D.D.D.o 5 u p / q o D.D.D.D.D.D.1 g p f @ D.D.D.",
"D.D.D.D.O 0 p / k q %.5.7.6.U j d a f # D.D.D.D.",
"D.D.D.D.D.o 5 s ( [ |  ... .} ' a h $ D.D.D.D.D.",
"D.D.D.D.D.D.D.$ q k ) } [ } l h 4 . D.D.D.D.D.D.",
"D.D.D.D.D.D.D.D.D.% m A L Z & D.D.D.D.D.D.D.D.D.",
"D.D.D.D.D.D.D.D.D.D.D.D.D.D.D.D.D.D.D.D.D.D.D.D."
};
