/* XPM */
static char *export_text_xpm[] = {
/* columns rows colors chars-per-pixel */
"24 24 148 2 ",
"   c #444444",
".  c #4F4F4F",
"X  c #5A5A5A",
"o  c #5C5C5C",
"O  c #5E5E5E",
"+  c #626262",
"@  c #646464",
"#  c #666666",
"$  c #686868",
"%  c #696969",
"&  c #6A6A6A",
"*  c #6A6B6B",
"=  c #707070",
"-  c #767676",
";  c #777777",
":  c #7D7D7D",
">  c #808080",
",  c #838383",
"<  c #8A8989",
"1  c #8E8E8E",
"2  c #919191",
"3  c #939393",
"4  c #969696",
"5  c #979797",
"6  c #999999",
"7  c #9B9B9B",
"8  c #9D9D9D",
"9  c #9F9F9F",
"0  c #A3A3A3",
"q  c #A4A4A4",
"w  c #A6A6A6",
"e  c #A8A8A8",
"r  c #A9A9A9",
"t  c #ADADAD",
"y  c #B1B1B1",
"u  c #B2B2B2",
"i  c #B3B3B3",
"p  c #B4B4B4",
"a  c #B5B5B5",
"s  c #BABABA",
"d  c #BBBBBB",
"f  c #BCBCBC",
"g  c #BDBDBD",
"h  c #C0C0C0",
"j  c #C1C1C1",
"k  c #C2C2C2",
"l  c #C3C3C3",
"z  c #C4C4C4",
"x  c #C6C6C6",
"c  c #C7C7C7",
"v  c #C8C8C8",
"b  c #CAC9C9",
"n  c #CACACA",
"m  c #CBCACA",
"M  c #CBCBCB",
"N  c #CCCCCC",
"B  c #CDCDCD",
"V  c #CECDCD",
"C  c #CECECE",
"Z  c #CFCECE",
"A  c #CFCFCF",
"S  c #D1D1D1",
"D  c #D3D3D3",
"F  c #D5D3D3",
"G  c #D6D3D3",
"H  c #D4D4D4",
"J  c #D5D5D5",
"K  c #D6D5D5",
"L  c #D7D6D6",
"P  c #D7D7D7",
"I  c #D9D7D7",
"U  c #D8D8D8",
"Y  c #D9D9D9",
"T  c #DAD8D8",
"R  c #DAD9D9",
"E  c #DADADA",
"W  c #DBDADA",
"Q  c #DBDBDB",
"!  c #DCDBDB",
"~  c #DCDCDC",
"^  c #DDDCDC",
"/  c #DDDDDD",
"(  c #DEDDDD",
")  c #DEDEDE",
"_  c #DFDFDF",
"`  c #E0DFDF",
"'  c #E0E0E0",
"]  c #E1E0E0",
"[  c #E1E1E1",
"{  c #E2E0E0",
"}  c #E2E1E1",
"|  c #E2E2E2",
" . c #E3E2E2",
".. c #E4E4E4",
"X. c #E5E4E4",
"o. c #E5E5E5",
"O. c #E6E5E5",
"+. c #E6E6E6",
"@. c #E7E6E6",
"#. c #E7E7E7",
"$. c #E8E7E7",
"%. c #E8E8E8",
"&. c #E9E8E8",
"*. c #E9E9E9",
"=. c #EAE9E9",
"-. c #EBE9E9",
";. c #EAEAEA",
":. c #EBEAEA",
">. c #EBEBEB",
",. c #ECEBEB",
"<. c #ECECEC",
"1. c #EDECEC",
"2. c #EDEDED",
"3. c #EEEDED",
"4. c #EEEEEE",
"5. c #EFEEEE",
"6. c #EFEFEF",
"7. c #F0EFEF",
"8. c #F0F0F0",
"9. c #F1F0F0",
"0. c #F1F1F1",
"q. c #F2F1F1",
"w. c #F3F1F1",
"e. c #F2F2F2",
"r. c #F3F2F2",
"t. c #F3F3F3",
"y. c #F4F3F3",
"u. c #F4F4F4",
"i. c #F5F4F4",
"p. c #F5F5F5",
"a. c #F6F5F5",
"s. c #F6F6F6",
"d. c #F7F6F6",
"f. c #F7F7F7",
"g. c #F8F7F7",
"h. c #F7F8F8",
"j. c #F8F8F8",
"k. c #F9F8F8",
"l. c #F9F9F9",
"z. c #FAF9F9",
"x. c #FAFAFA",
"c. c #FBFAFA",
"v. c #FBFBFB",
"b. c #FCFCFC",
"n. c #FDFDFD",
"m. c #FEFEFE",
"M. c #FFFEFE",
"N. c None",
/* pixels */
"N.N.N.N.N.N.N.N.N.N.N.N.N.N.N.N.N.N.N.N.N.N.N.N.",
"N.N.@.4.g.g.z.g.z.z.z.z.z.z.z.z.g.g.g.g.s.N.N.N.",
"N.N./ k 4.[ R [ / ` ` ` / @.W W *.y.8.7.y.N.N.N.",
"N.N.@.4.8.:.$.*.$.:.:.*.*.4.4.:.8.s.y.8.s.N.N.N.",
"N.N.@.8.8.*.@.@.@.*.*.[ @.$.$.$.8.h.s.s.s.N.N.N.",
"N.N./ z s.s.s.z.z.z.z.z.z.z.s.g.s.s.s.s.s.N.N.N.",
"N.N.@.4.s.[ [ *.@.@.4.@.@.@./ [ [ 8.z.s.s.N.N.N.",
"N.N.@.h.s.*.@.*.*.*.*.6.*.@.*.4.z.z.z.s.s.N.N.N.",
"N.N.~ z u.z #.u.8.s.u.s.8.8.u./ J m.z.s.s.N.N.N.",
"N.N...2.v.= #.v.h.z.s.u.h.m.z.g 2 m.s.z.s.N.N.N.",
"N.N.#.u.v . 1 s h 8 @.2.~ 7 z : @ 6 W g.s.N.N.N.",
"N.N.~ v U o t B M O 0 *.3 @ N 5 - M 4.y.s.N.N.N.",
"N.N.#.6.m.* #.v.v.M $ e # B v.g 1 m.8.4.y.N.N.N.",
"N.N.#.z.z.* @.z.z.v.4   0 h.u.i < y.*.@.8.N.N.N.",
"N.N.~ v h.* #.v.z.4.: o , ..#.r > @.R R R N.N.N.",
"N.N...2.v.$ H z.z.7 ; J # 6 _ u 5 / / R N.N.N.N.",
"N.N.@.u.v.3 @ e u o B 4.w 8 m.z.g.7./ N.N.N.N.N.",
"N.N.~ z u.*.g B G B 7.@.k B v.y.$.G N.N.N.N.N.N.",
"N.N.@.6.s.*...2.....W S u B z.*.T N.N.N.N.N.N.N.",
"N.N.#.s.s.*.@.@.[ @.[ B p B 8.R N.N.N.N.N.N.N.N.",
"N.N./ z 8.8.4.4.:.:.@.G g J [ N.N.N.N.N.N.N.N.N.",
"N.N.@.:.s.s.g.g.g.8.*./ B J N.N.N.N.N.N.N.N.N.N.",
"N.N.*.v.z.z.z.z.z.s.y.*.M N.N.N.N.N.N.N.N.N.N.N.",
"N.N.N.N.N.N.N.N.N.N.N.N.N.N.N.N.N.N.N.N.N.N.N.N."
};
