/* XPM */
static char *export_image_xpm[] = {
/* columns rows colors chars-per-pixel */
"24 24 170 2 ",
"   c #362B3B",
".  c #6D1917",
"X  c #712D0F",
"o  c #72391A",
"O  c #660D32",
"+  c #7B0834",
"@  c #473B35",
"#  c #68262A",
"$  c #683424",
"%  c #6A392B",
"&  c #73302B",
"*  c #3A4138",
"=  c #75491B",
"-  c #59472A",
";  c #615120",
":  c #7D5E34",
">  c #33174A",
",  c #2F345E",
"<  c #5C0647",
"1  c #5E064C",
"2  c #570B4D",
"3  c #5A0A4C",
"4  c #4F164C",
"5  c #501745",
"6  c #5E0551",
"7  c #62054D",
"8  c #62094B",
"9  c #6D085A",
"0  c #730D5E",
"q  c #472C42",
"w  c #562D4B",
"e  c #573F5C",
"r  c #7A1264",
"t  c #791C69",
"y  c #512060",
"u  c #613062",
"i  c #7C2A75",
"p  c #2B4053",
"a  c #3B556D",
"s  c #534F47",
"d  c #5C4955",
"f  c #5C5F5E",
"g  c #6E685B",
"h  c #644F61",
"j  c #51657B",
"k  c #7E7E7E",
"l  c #926716",
"z  c #AC6B23",
"x  c #84156F",
"c  c #862777",
"v  c #8D277B",
"b  c #864347",
"n  c #AA6E7E",
"m  c #C3675A",
"M  c #5C854E",
"N  c #8C8C2F",
"B  c #B2AF5D",
"V  c #C4A04D",
"C  c #DABB4C",
"Z  c #D19564",
"A  c #C38B7A",
"S  c #C5CA70",
"D  c #5C4E8E",
"F  c #537294",
"G  c #5C7FAE",
"H  c #577EB3",
"J  c #597EB0",
"K  c #9E2082",
"L  c #A12186",
"P  c #AA278F",
"I  c #BF209A",
"U  c #B73192",
"Y  c #C0289C",
"T  c #DA1EAB",
"R  c #CD30AA",
"E  c #8A778B",
"W  c #81729F",
"Q  c #AA68A0",
"!  c #E270A3",
"~  c #5683BC",
"^  c #5B84BC",
"/  c #5D89BA",
"(  c #6082A4",
")  c #6388AF",
"_  c #718DAB",
"`  c #6086BB",
"'  c #6188BD",
"]  c #7795BD",
"[  c #7895BA",
"{  c #7F9BBF",
"}  c #5486C4",
"|  c #5D8AC5",
" . c #578CCC",
".. c #5D8DCA",
"X. c #5E91CE",
"o. c #588FD1",
"O. c #5D93D3",
"+. c #5797DF",
"@. c #5994DA",
"#. c #5F99D8",
"$. c #6184C2",
"%. c #638CC4",
"&. c #638FC8",
"*. c #6291CD",
"=. c #7998C0",
"-. c #7393CB",
";. c #6194D3",
":. c #6994D0",
">. c #689FD7",
",. c #6197D8",
"<. c #619ADC",
"1. c #7199D1",
"2. c #4E97E7",
"3. c #5C9CE3",
"4. c #569DE9",
"5. c #619DE2",
"6. c #60A0E7",
"7. c #61A2EA",
"8. c #848282",
"9. c #888686",
"0. c #8D8B8B",
"q. c #849581",
"w. c #A28D9B",
"e. c #B48E9B",
"r. c #B69B90",
"t. c #99A498",
"y. c #A8A38E",
"u. c #B7A89D",
"i. c #8CA1BC",
"p. c #A1A7AF",
"a. c #D785B7",
"s. c #C19AB2",
"d. c #CDB3B3",
"f. c #CAB6B8",
"g. c #B1C69D",
"h. c #D5C3B2",
"j. c #DAC1B3",
"k. c #83A4C7",
"l. c #8DAEC6",
"z. c #9EAEC5",
"x. c #9EB4C4",
"c. c #A5B0C1",
"v. c #A8BCD7",
"b. c #AABEDB",
"n. c #C8AFC2",
"m. c #C7B0C1",
"M. c #D4BBC4",
"N. c #D2B1CC",
"B. c #A7C0E0",
"V. c #A8C4E6",
"C. c #A9C7EA",
"Z. c #A8C9EE",
"A. c #A4CAF2",
"S. c #A8CCF3",
"D. c #CFCDCD",
"F. c #D1CFCF",
"G. c #DAD8D7",
"H. c #DCDAD9",
"J. c #E2C3C5",
"K. c #E1D7DF",
"L. c #C5D2E4",
"P. c #C8D5E6",
"I. c #C7D6E9",
"U. c #D1D3E3",
"Y. c #DEE5EE",
"T. c #D0E3F8",
"R. c #ECEBEB",
"E. c #F3F3F3",
"W. c #FBFBFB",
"Q. c None",
/* pixels */
"Q.Q.Q.Q.Q.Q.Q.Q.Q.Q.Q.Q.Q.Q.Q.Q.Q.Q.Q.Q.Q.Q.Q.Q.",
"Q.Q.Q.Q.Q.Q.Q.Q.Q.Q.Q.Q.Q.Q.Q.Q.Q.Q.Q.Q.Q.Q.Q.Q.",
"Q.Q.Q.Q.Q.Q.Q.Q.Q.Q.Q.Q.Q.Q.Q.Q.Q.Q.Q.Q.Q.Q.Q.Q.",
"Q.K.d.d.f.n.n.N.M.h.j.J.U.I.I.I.I.I.I.P.P.L.Y.Q.",
"Q.e.. X # < 7 x b l z m W O.....&.&.| %.$.~ b.Q.",
"Q.r.o = % 8 9 c s N C Z n -.;.;.*.&.&.%.%.^ b.Q.",
"Q.y.- ; @ 3 0 v e M S V A -.*.*.&.&.&.&.%.^ b.Q.",
"Q.t.q *   1 r K P E q.B u.:.;.*.*.&.&.%.%.` b.Q.",
"Q.x.y 4 2 6 t K Y R Q g.k.;.*.*.&.&.&.%.%.^ b.Q.",
"Q.S.D 7 < > , i I T a.l.;.;.*.&.&.%.%.' ` ^ b.Q.",
"Q.S.| u + O 5 w U ! s.1.;.;.*.&.%.| %.` ` J v.Q.",
"Q.S.4.$.h $ & d w.p.-.,.;.;.&.| ~ ~ H J J G z.Q.",
"Q.S.4.7.~ p a / >.,.,.;.;.*.| ' =.] [ [ i.c.Q.Q.",
"Q.S.4.7.( g ) 6.<.<.,.;.X...~ =.W.W.W.E.H.Q.Q.Q.",
"Q.S.4.#.f : _ 5.<.<.,.;.*.X.~ ] W.E.R.F.0.Q.Q.Q.",
"Q.S.4.3.F j *.5.<.<.,.;.O...~ ] E.R.F.9.Q.Q.Q.Q.",
"Q.S.4.6.5.3.5.<.<.,.,.;.;...~ [ E.D.8.Q.Q.Q.Q.Q.",
"Q.S.4.3.6.5.5.<.<.,.,.;.*...~ { G.k Q.Q.Q.Q.Q.Q.",
"Q.S.2.4.4.+.3.@.@.@.@.o. .} ~ i.8.Q.Q.Q.Q.Q.Q.Q.",
"Q.T.A.S.Z.Z.Z.Z.C.C.V.V.V.B.i.Q.Q.Q.Q.Q.Q.Q.Q.Q.",
"Q.Q.Q.Q.Q.Q.Q.Q.Q.Q.Q.Q.Q.Q.Q.Q.Q.Q.Q.Q.Q.Q.Q.Q.",
"Q.Q.Q.Q.Q.Q.Q.Q.Q.Q.Q.Q.Q.Q.Q.Q.Q.Q.Q.Q.Q.Q.Q.Q.",
"Q.Q.Q.Q.Q.Q.Q.Q.Q.Q.Q.Q.Q.Q.Q.Q.Q.Q.Q.Q.Q.Q.Q.Q.",
"Q.Q.Q.Q.Q.Q.Q.Q.Q.Q.Q.Q.Q.Q.Q.Q.Q.Q.Q.Q.Q.Q.Q.Q."
};
