/* XPM */
static char *export_html_xpm[] = {
/* columns rows colors chars-per-pixel */
"32 32 240 2 ",
"   c #101C7B",
".  c #01246E",
"X  c #0C226C",
"o  c #022D74",
"O  c #1B2A77",
"+  c #1B227C",
"@  c #07377E",
"#  c #123E7F",
"$  c #2E3977",
"%  c #29367A",
"&  c #0E2383",
"*  c #152683",
"=  c #132987",
"-  c #162E8A",
";  c #182E88",
":  c #163183",
">  c #1E3088",
",  c #1B3C8B",
"<  c #1D3D93",
"1  c #263387",
"2  c #23348A",
"3  c #1F488E",
"4  c #1D4393",
"5  c #1D4599",
"6  c #1E4A9B",
"7  c #1E5194",
"8  c #1B559C",
"9  c #29438C",
"0  c #3D428C",
"q  c #3C5C87",
"w  c #234397",
"e  c #2A4396",
"r  c #214F96",
"t  c #21469A",
"y  c #224C9C",
"u  c #374291",
"i  c #354E9F",
"p  c #384C99",
"a  c #21549E",
"s  c #3F589B",
"d  c #376899",
"f  c #1E59A6",
"g  c #2354A2",
"h  c #2D55A2",
"j  c #245CA5",
"k  c #2959A6",
"l  c #245FAA",
"z  c #2A5DA9",
"x  c #3654A2",
"c  c #3E57A0",
"v  c #3259A5",
"b  c #3A5CA3",
"n  c #325BA8",
"m  c #1C6CB4",
"M  c #2664AC",
"N  c #2F63AC",
"B  c #276AAF",
"V  c #3764A7",
"C  c #3C64AB",
"Z  c #3268AE",
"A  c #236CB3",
"S  c #2A6DB2",
"D  c #326DB3",
"F  c #2B71B4",
"G  c #2D74B9",
"H  c #2E7ABC",
"J  c #3475B8",
"K  c #3A75B8",
"L  c #357BBC",
"P  c #465784",
"I  c #465B8E",
"U  c #435696",
"Y  c #44529C",
"T  c #4F5D9D",
"R  c #53589C",
"E  c #49678E",
"W  c #50698C",
"Q  c #5E6D8B",
"!  c #5A718F",
"~  c #51669A",
"^  c #697C95",
"/  c #4259A1",
"(  c #4A5FA7",
")  c #435FA8",
"_  c #4E62A7",
"`  c #466CAF",
"'  c #4A6AAC",
"]  c #5065A7",
"[  c #516CAD",
"{  c #5D6BAB",
"}  c #4268B0",
"|  c #4B6BB0",
" . c #4D73B5",
".. c #477DBB",
"X. c #5373B2",
"o. c #5B73B3",
"O. c #557CBA",
"+. c #5D7DBA",
"@. c #6167A5",
"#. c #6269A6",
"$. c #6672AD",
"%. c #7172A7",
"&. c #7676A9",
"*. c #7279AF",
"=. c #627BB7",
"-. c #6F7FB9",
";. c #727DB5",
":. c #3D81BE",
">. c #4C80BB",
",. c #5886B7",
"<. c #5B88B2",
"1. c #7D82AB",
"2. c #6B82B7",
"3. c #6581BC",
"4. c #6E81B9",
"5. c #6788BE",
"6. c #7086B2",
"7. c #7880B5",
"8. c #7891B1",
"9. c #7F9BBD",
"0. c #2D80C1",
"q. c #3B91CB",
"w. c #3497D1",
"e. c #4586C3",
"r. c #4C86C0",
"t. c #418DC9",
"y. c #5F8FC7",
"u. c #4D90C6",
"i. c #4990C8",
"p. c #4E99CF",
"a. c #5495CA",
"s. c #5E9FD3",
"d. c #6194CA",
"f. c #6B96C9",
"g. c #7E90C2",
"h. c #7598C0",
"j. c #7B9EC9",
"k. c #4FACDC",
"l. c #57A4D6",
"z. c #65A1D0",
"x. c #6CA2D3",
"c. c #6EA9D5",
"v. c #63ABDB",
"b. c #6EAEDC",
"n. c #76A2D0",
"m. c #7BA5D1",
"M. c #7AABD6",
"N. c #71ADD8",
"B. c #79AED8",
"V. c #6CB0DA",
"C. c #76B3DC",
"Z. c #7AB2DA",
"A. c #8484AA",
"S. c #8A8AAC",
"D. c #8185B5",
"F. c #878BB9",
"G. c #829BBB",
"H. c #9494B7",
"J. c #929BB0",
"K. c #9F9EB1",
"L. c #8597C6",
"P. c #8A9BC9",
"I. c #86A0CC",
"U. c #8CA3CD",
"Y. c #9AADC2",
"T. c #98B0CF",
"R. c #84A9D1",
"E. c #89ACD4",
"W. c #92AFD0",
"Q. c #83BBDF",
"!. c #8BB9DD",
"~. c #96B7D7",
"^. c #9EB3D2",
"/. c #91B7DB",
"(. c #9BB7D8",
"). c #A9ACCC",
"_. c #A0B0C6",
"`. c #B5B5CF",
"'. c #A0BAD7",
"]. c #A3BEDD",
"[. c #B3B5D1",
"{. c #BCBBD1",
"}. c #81BFE5",
"|. c #8EBDE0",
" X c #C1BFD3",
".X c #BEC1C2",
"XX c #AFC1D7",
"oX c #B0C2D7",
"OX c #9BC1E1",
"+X c #96C9E7",
"@X c #9EC8E6",
"#X c #94CBED",
"$X c #9ECFED",
"%X c #9AD2EF",
"&X c #A1C4E4",
"*X c #ADC6E1",
"=X c #A3CCE7",
"-X c #A0CEEB",
";X c #AACCE8",
":X c #B1CCE6",
">X c #ADD3ED",
",X c #BDD2E9",
"<X c #A7D7F2",
"1X c #AEDCF5",
"2X c #B0DBF5",
"3X c #BBDCF1",
"4X c #B8E1F6",
"5X c #C4C9DB",
"6X c #CDCEDF",
"7X c #D2D2D3",
"8X c #DDDCDB",
"9X c #E0DEDE",
"0X c #C2D3E6",
"qX c #C6D6E8",
"wX c #CEDEEC",
"eX c #D5D4E2",
"rX c #D9D7E5",
"tX c #DFDEE6",
"yX c #DDE0E4",
"uX c #DAE2ED",
"iX c #C3E4F6",
"pX c #CFE4F3",
"aX c #C5E5F8",
"sX c #C6E8F9",
"dX c #CEE9F9",
"fX c #D2EEFC",
"gX c #D8EFFB",
"hX c #DDF0FB",
"jX c #E4E2E2",
"kX c #E3E2E9",
"lX c #E5E8EA",
"zX c #EEECED",
"xX c #F0EFEF",
"cX c #E2F2FC",
"vX c #E9F6FD",
"bX c #F5F4F4",
"nX c #F8F7F6",
"mX c #F8F8F7",
"MX c #FEFEFD",
"NX c None",
/* pixels */
"NXNXNXNXNXNXNXNXNXNXNXNXNXNXNXNXNXNXNXNXNXNXNXNXNXNXNXNXNXNXNXNX",
"NXNXNXMXMXMXMXMXMXMXMXMXMXMXMXMXMXMXMXMXMXMXMXMXMXMXMXMXNXNXNXNX",
"NXNXNXMXxXxXxXxXxXxXxXxXxXxXbXxXxXxXbXxXxXbXxXxXxXxXzXMXNXNXNXNX",
"NXNXNXMXxXxXxXxXbXxXbXbXnXnXbXbXnXbXbXnXbXxXbXxXxXbXxXMXNXNXNXNX",
"NXNXNXMXxXbXbXbXxXnXbXbXnXnXnXnXnXnXnXbXbXbXbXbXbXbXxXMXNXNXNXNX",
"NXNXNXMXbXxXbXbXnXnXnXbXmXmXmXmXmXmXmXmXnXmXbXbXbXxXnXMXNXNXNXNX",
"NXNXNXMXbXbXbXbXmXmXmXMXMXrX[.).[.eXMXMXmXmXmXbXnXbXbXMXNXNXNXNX",
"NXNXNXMXbXbXmXbXmXMXkX7.;.-.g.4.o._ Y 7.rXMXmXmXnXbXnXMXNXNXNXNX",
"NXNXNXMXnXnXbXmXMXF.{ ^.U.5. .v X.[ ] =.( *.MXMXmXmXnXMXNXNXNXNX",
"NXNXNXMXnXnXmXmX#.L.(.pX/.M.J d.M. .X.3.o.-.Y xXmXmXmXMXNXNXNXNX",
"NXNXNXMXnXmXMX@.U.R.;XaX3XC.s.L x.y.O.h v o.=.u MXmXmXMXNXNXNXNX",
"NXNXNXMXnXMXF.P.E.}.gXaX<Xw.l.t.x.D Z k v } +.i @.MXmXMXNXNXNXNX",
"NXNXNXMXmXkX$.U.R.aXfXsX1Xk.#Xb.a.L ..N a v b ; > 6XMXMXNXNXNXNX",
"NXNXNXMXMXD.U.m.@XhXfXsX1X%X#Xv.t.L D l g n n x ) R MXMXNXNXNXNX",
"NXNXNXMXMX1 U.m.=XhXdX4X1X2X}.q.0.G F M g 6 C  .' 2 mXMXNXNXNXNX",
"NXNXNXMXlX& ` n.|.cXdXaX4X$XV.p.0.G S l g 5 C  .| p {.MXNXNXNXNX",
"NXNXNXMX{.= 6 K z.vX+X-X>XC.C.B.i.G B l a 6  . .' s H.MXNXNXNXNX",
"NXNXNXMX`.= g l m vXp.Z.Q.N.c.M.:.F M j a 4 `  .' / A.MXNXNXNXNX",
"NXNXNXMX X= t k S e.>X!.B.i.H :.F B j a t 4 b X./ U S.MXNXNXNXNX",
"NXNXNXMXtX* w y M B G &XL m A S M j a 7 3 , # 9 O % K.9XNXNXNXNX",
"NXNXNXMXMX+ e y h M M F r.OXn...8 7 @ o . . X X $ 1.bXNXNXNXNXNX",
"NXNXNXMXMX%.; w h C z f f.:XOX~.9.# MXMXMXMXMXMXMXjXNXNXNXNXNXNX",
"NXNXNXMXmXkX  < < 5 h a *X:X'.W.9.E MXmXmXxXzX8X7XNXNXNXNXNXNXNX",
"NXNXNXMXbXMX&.- w < 5 5 C ,XXXT.9.E MXnXbXzXjX8XNXNXNXNXNXNXNXNX",
"NXNXNXMXmXmXMX0 < y w < < 4.qXoXY.^ MXxXzXjX9XNXNXNXNXNXNXNXNXNX",
"NXNXNXMXnXnXmXnX0 4 k g y b qXoX_.Q MXxXjXjXNXNXNXNXNXNXNXNXNXNX",
"NXNXNXMXbXbXnXmXMX&.; k Z j.wX^.8.! MXjXjXNXNXNXNXNXNXNXNXNXNXNX",
"NXNXNXMXbXnXnXnXnXMX5X( , V ,.<.d q MX9XNXNXNXNXNXNXNXNXNXNXNXNX",
"NXNXNXMXbXbXnXnXnXbXuX0X'.6.~ I P J.bXNXNXNXNXNXNXNXNXNXNXNXNXNX",
"NXNXNXMXbXbXbXbXnXnXbXxXxXlXyX7X.XmXNXNXNXNXNXNXNXNXNXNXNXNXNXNX",
"NXNXNXMXMXMXMXMXMXMXMXMXMXMXMXMX7XNXNXNXNXNXNXNXNXNXNXNXNXNXNXNX",
"NXNXNXNXNXNXNXNXNXNXNXNXNXNXNXNXNXNXNXNXNXNXNXNXNXNXNXNXNXNXNXNX"
};
