/* XPM */
static char *export_image_xpm[] = {
/* columns rows colors chars-per-pixel */
"32 32 218 2 ",
"   c #122334",
".  c #302124",
"X  c #36302D",
"o  c #26273E",
"O  c #3A293F",
"+  c #2B3536",
"@  c #6F0B06",
"#  c #691709",
"$  c #573C1A",
"%  c #67290B",
"&  c #783B13",
"*  c #79321F",
"=  c #400A39",
"-  c #590936",
";  c #53003F",
":  c #6D0721",
">  c #760D2A",
",  c #6B033A",
"<  c #6F2427",
"1  c #6D3E20",
"2  c #672535",
"3  c #7C363B",
"4  c #1A4029",
"5  c #364723",
"6  c #244F36",
"7  c #2D4C3B",
"8  c #324B3E",
"9  c #2B633E",
"0  c #5A491B",
"q  c #6E4E16",
"w  c #69421D",
"e  c #74421B",
"r  c #7B401D",
"t  c #745010",
"y  c #4D4E25",
"u  c #50532F",
"i  c #58512A",
"p  c #43413C",
"a  c #734A22",
"s  c #635339",
"d  c #725A36",
"f  c #7F6330",
"g  c #18214D",
"h  c #233E4B",
"j  c #303B40",
"k  c #2E1D75",
"l  c #540040",
"z  c #5D064E",
"x  c #5C1349",
"c  c #4F0C58",
"v  c #5A0D50",
"b  c #561453",
"n  c #62004F",
"m  c #601447",
"M  c #620251",
"N  c #6A0456",
"B  c #610C5A",
"V  c #6E0B5A",
"C  c #472947",
"Z  c #4E3B4D",
"A  c #672247",
"S  c #793F5A",
"D  c #751161",
"F  c #7D1867",
"G  c #7F1B6A",
"H  c #5A3367",
"J  c #682B6A",
"K  c #1D4756",
"L  c #3B4856",
"P  c #48535F",
"I  c #4E7F5F",
"U  c #51587F",
"Y  c #9C3F18",
"T  c #960B30",
"R  c #8C1230",
"E  c #844A08",
"W  c #934C07",
"Q  c #9A432D",
"!  c #825D2C",
"~  c #870746",
"^  c #8D1176",
"/  c #871E71",
"(  c #8D2175",
")  c #892F71",
"_  c #93257B",
"`  c #82337C",
"'  c #8C5574",
"]  c #89697A",
"[  c #C24857",
"{  c #C26164",
"}  c #7E8235",
"|  c #5F9372",
" . c #9B861C",
".. c #AD822D",
"X. c #B88E35",
"o. c #CF9A3F",
"O. c #C1A93D",
"+. c #D9C238",
"@. c #AD8349",
"#. c #839A62",
"$. c #C58B66",
"%. c #DA8663",
"&. c #D98375",
"*. c #DBA175",
"=. c #D0D05F",
"-. c #D0C86D",
";. c #E9CB65",
":. c #3D6696",
">. c #5B7289",
",. c #4B6E93",
"<. c #43679A",
"1. c #436A9D",
"2. c #4B6F9C",
"3. c #41719C",
"4. c #6B7E9B",
"5. c #436DA2",
"6. c #4D74A5",
"7. c #4671A9",
"8. c #4D7AAB",
"9. c #5176AC",
"0. c #567CAA",
"q. c #5879A9",
"w. c #4A76B4",
"e. c #4F7DB6",
"r. c #557DB5",
"t. c #5A7EB0",
"y. c #577FB8",
"u. c #617AA3",
"i. c #7B78AD",
"p. c #A91D8A",
"a. c #9A2582",
"s. c #A0288C",
"d. c #B32293",
"f. c #C4119B",
"g. c #C11D9A",
"h. c #C2289E",
"j. c #D00FA1",
"k. c #DE0BAF",
"l. c #C72EA2",
"z. c #D02DA8",
"x. c #C43EA7",
"c. c #DD27B1",
"v. c #E533BE",
"b. c #A2649F",
"n. c #AD6FA7",
"m. c #73899D",
"M. c #4E81BE",
"N. c #5D82B5",
"B. c #5781BB",
"V. c #5C85BC",
"C. c #5789BE",
"Z. c #5F88BE",
"A. c #6683AA",
"S. c #748CA3",
"D. c #6187BB",
"F. c #6289BE",
"G. c #5585C4",
"H. c #5D8BC4",
"J. c #5587C8",
"K. c #5489CC",
"L. c #5E8FCA",
"P. c #5E90CC",
"I. c #538ED4",
"U. c #5E94D2",
"Y. c #5292DC",
"T. c #5F97DC",
"R. c #5E9BDF",
"E. c #638CC4",
"W. c #628FC9",
"Q. c #6291CD",
"!. c #6993CD",
"~. c #7395CC",
"^. c #7D93CC",
"/. c #739CCC",
"(. c #6195D3",
"). c #619ADC",
"_. c #7CA1CB",
"`. c #4392E6",
"'. c #5295E2",
"]. c #5199E6",
"[. c #5F9DE4",
"{. c #519AE8",
"}. c #609EE4",
"|. c #5EA1E9",
" X c #61A0E7",
".X c #60A1E9",
"XX c #8DB29D",
"oX c #A9BB9D",
"OX c #878CBC",
"+X c #9BA9A7",
"@X c #A4A8AF",
"#X c #B7B3AE",
"$X c #B3B2B1",
"%X c #B9B7B7",
"&X c #BAB8B7",
"*X c #BAB8B8",
"=X c #D19899",
"-X c #E7B496",
";X c #F08BAC",
":X c #C2B8AF",
">X c #D1AEB7",
",X c #8EC290",
"<X c #E4D483",
"1X c #D2D7A8",
"2X c #C2CEB7",
"3X c #8F8CC1",
"4X c #88A2C4",
"5X c #A1B1C8",
"6X c #D0D0D1",
"7X c #E1DEDA",
"8X c #E3E1E1",
"9X c #ECEBEB",
"0X c gray95",
"qX c #F9F6F4",
"wX c #F6F7F9",
"eX c #F7F8F8",
"rX c #FFFFFF",
"tX c None",
/* pixels */
"tXtXtXtXtXtXtXtXtXtXtXtXtXtXtXtXtXtXtXtXtXtXtXtXtXtXtXtXtXtXtXtX",
"tXtXtXtXtXtXtXtXtXtXtXtXtXtXtXtXtXtXtXtXtXtXtXtXtXtXtXtXtXtXtXtX",
"tXtXtXtXtXtXtXtXtXtXtXtXtXtXtXtXtXtXtXtXtXtXtXtXtXtXtXtXtXtXtXtX",
"tXtXtXtXtXtXtXtXtXtXtXtXtXtXtXtXtXtXtXtXtXtXtXtXtXtXtXtXtXtXtXtX",
"tXrXrXrXrXrXrXrXrXrXrXrXrXrXrXrXrXrXrXrXrXrXrXrXrXrXrXrXrXrXrXtX",
"tXrXm @ # % - l l N ^ 3 E W Y [ i.I.K.K.K.J.J.G.G.G.B.B.B.w.rXtX",
"tXrX< * & e A M M G a.f  ...o.&.' !.(.Q.Q.Q.Q.W.W.W.E.E.E.B.rXtX",
"tXrX1 & a q 2 M N _ J 6 } +.;.$.{ OX(.Q.Q.Q.Q.W.W.E.E.E.E.B.rXtX",
"tXrX0 s t i C n N ( J 8 6 =.<XX.%.3X(.Q.Q.Q.W.Q.E.E.E.E.F.V.rXtX",
"tXrX5 Z u 4 O n V _ d.s.| ,X#.O.*.^.(.(.Q.Q.Q.W.W.!.E.E.E.N.rXtX",
"tXrX8 B j + v n D _ p.g.n.b.| -.:X(.(.!.Q.Q.W.W.W.E.E.E.E.y.rXtX",
"tXrX3.M b z n z / a.p.l.z.k.XX1X/.(.!.Q.Q.Q.W.W.E.E.E.F.F.y.rXtX",
"tXrX{.J M M c g K H d.h.j.v.2X_.(.(.Q.Q.Q.W.L.H.E.E.E.F.D.r.rXtX",
"tXrX{.m.x , : = k o ) f.c.;X>X(.(.(.Q.Q.W.W.W.E.E.F.V.D.D.r.rXtX",
"tXrX{..XU ~ R > T . S x.-X=X~.(.(.(.U.W.H.H.H.H.Z.V.V.D.N.9.rXtX",
"tXrX{.|.|.u.y w Q X ] oX+X(.(.(.(.U.Q.L.E.H.V.V.N.N.N.t.q.q.7XtX",
"tXrX{.|. X|.:.  h ,.).).}.(.(.(.(.U.L.E.V.7.:.1.1.<.2.A.5X6XtXtX",
"tXrX{.|.[. X0.L 0. X}.).(.).).(.P.Q.L.H.7.rXrXrXrXrXrXqX&XtXtXtX",
"tXrX{.|.|.P.d @.S. X).).T.).).(.(.P.L.G.5.rXrXeX0X9X8X%XtXtXtXtX",
"tXrX{.|.|.>.$ ! m.).).}.).(.(.U.(.Q.H.V.5.rXeX0X9X8X*XtXtXtXtXtX",
"tXrX{.|.|.C.p P (.}.).).).).(.(.U.L.L.V.5.wX0X9X8X*XtXtXtXtXtXtX",
"tXrX{.|. X XR.[.}.).).).(.).(.(.(.L.H.V.5.wX9X8X%XtXtXtXtXtXtXtX",
"tXrX{.|. X[.[.}. X).}.).(.).).(.P.L.H.V.5.eX8X$XtXtXtXtXtXtXtXtX",
"tXrX{.|. X[. X}.R.}.).).).).(.(.(.L.H.B.6.rX$XtXtXtXtXtXtXtXtXtX",
"tXrX{.|. X}.}.}.[.).}.).).).(.(.P.L.H.B.4X$XtXtXtXtXtXtXtXtXtXtX",
"tXrX`.{.].'.'.Y.Y.Y.Y.I.I.I.I.K.K.G.M.e.@XtXtXtXtXtXtXtXtXtXtXtX",
"tXrXrXrXrXrXrXrXrXrXrXrXrXrXrXrXrXrXrX#XtXtXtXtXtXtXtXtXtXtXtXtX",
"tXtXtXtXtXtXtXtXtXtXtXtXtXtXtXtXtXtXtXtXtXtXtXtXtXtXtXtXtXtXtXtX",
"tXtXtXtXtXtXtXtXtXtXtXtXtXtXtXtXtXtXtXtXtXtXtXtXtXtXtXtXtXtXtXtX",
"tXtXtXtXtXtXtXtXtXtXtXtXtXtXtXtXtXtXtXtXtXtXtXtXtXtXtXtXtXtXtXtX",
"tXtXtXtXtXtXtXtXtXtXtXtXtXtXtXtXtXtXtXtXtXtXtXtXtXtXtXtXtXtXtXtX",
"tXtXtXtXtXtXtXtXtXtXtXtXtXtXtXtXtXtXtXtXtXtXtXtXtXtXtXtXtXtXtXtX"
};
