/* XPM */
static char *export_html_xpm[] = {
/* columns rows colors chars-per-pixel */
"24 24 180 2 ",
"   c #173885",
".  c #1A338C",
"X  c #1B3B93",
"o  c #253780",
"O  c #2A398C",
"+  c #243F94",
"@  c #2A3D90",
"#  c #17408A",
"$  c #1F4397",
"%  c #1A4B93",
"&  c #1F4D99",
"*  c #27428B",
"=  c #274295",
"-  c #224699",
";  c #234A9B",
":  c #2F4F9C",
">  c #334E9B",
",  c #20519E",
"<  c #2D549D",
"1  c #20589E",
"2  c #35519C",
"3  c #335D99",
"4  c #2452A1",
"5  c #2E57A3",
"6  c #235AA5",
"7  c #2A5AA6",
"8  c #3D57A2",
"9  c #345BA5",
"0  c #305EA8",
"q  c #2E62A2",
"w  c #2663AB",
"e  c #2862AD",
"r  c #3263AB",
"t  c #276CB2",
"y  c #326DB2",
"u  c #2A70B4",
"i  c #2F74B8",
"p  c #2F78BA",
"a  c #3D74B7",
"s  c #3578B8",
"d  c #3C7BBB",
"f  c #4A5E96",
"g  c #456A96",
"h  c #486398",
"j  c #49699D",
"k  c #516096",
"l  c #6D739E",
"z  c #4056A1",
"x  c #405EA7",
"c  c #4C5BA1",
"v  c #4460A2",
"b  c #4364AB",
"n  c #4C67AA",
"m  c #5E66A4",
"M  c #4D70AE",
"N  c #5C71AC",
"B  c #4B6FB2",
"V  c #506EB0",
"C  c #586FB0",
"Z  c #4670B2",
"A  c #4E74B4",
"S  c #5374B5",
"D  c #5C74B2",
"F  c #557DBA",
"G  c #6570A3",
"H  c #6F76A2",
"J  c #6A7DA4",
"K  c #6975AB",
"L  c #6476B3",
"P  c #707FB5",
"I  c #4381BE",
"U  c #5A81BC",
"Y  c #6284AE",
"T  c #7584A2",
"R  c #738DAE",
"E  c #7C91AE",
"W  c #698FB7",
"Q  c #6187B9",
"!  c #7381B7",
"~  c #7E87B7",
"^  c #7081B8",
"/  c #7C8CBE",
"(  c #7E91B7",
")  c #3382C2",
"_  c #4388C2",
"`  c #4B8AC5",
"'  c #4B8FC8",
"]  c #4D94CC",
"[  c #5393C7",
"{  c #5893CB",
"}  c #5599CC",
"|  c #529DD0",
" . c #6D8CC0",
".. c #6190C4",
"X. c #6194C8",
"o. c #619CCF",
"O. c #6B99CC",
"+. c #7D99C8",
"@. c #53A3D6",
"#. c #5CA6D8",
"$. c #72ACD6",
"%. c #7DADD7",
"&. c #77AFD9",
"*. c #75B2DD",
"=. c #77BEE5",
"-. c #8A8FBA",
";. c #899CB4",
":. c #8490BF",
">. c #8D94BF",
",. c #8592C1",
"<. c #8896C4",
"1. c #829FCC",
"2. c #959BC4",
"3. c #999DC4",
"4. c #959FC8",
"5. c #9CA1C7",
"6. c #96A9C3",
"7. c #9FA6CA",
"8. c #93A8CD",
"9. c #85AAD3",
"0. c #8DAFD5",
"q. c #95AAD0",
"w. c #81B6DC",
"e. c #89B1D8",
"r. c #8AB9DE",
"t. c #95B2D5",
"y. c #9BB4D2",
"u. c #A3AACD",
"i. c #AAADCC",
"p. c #A5B3C6",
"a. c #ACB4C5",
"s. c #B0B1CE",
"d. c #B2BBC8",
"f. c #A2B5D1",
"g. c #B2B5D2",
"h. c #B8BDD4",
"j. c #BDC1CA",
"k. c #B3C6DB",
"l. c #BDC0D8",
"z. c #89C2E5",
"x. c #95C4E4",
"c. c #9FC6E5",
"v. c #95CCEC",
"b. c #98C9E8",
"n. c #98D1EF",
"m. c #ACC5E1",
"M. c #A5CBE7",
"N. c #ACD1EA",
"B. c #BFDAEE",
"V. c #AEDCF5",
"C. c #B5DDF4",
"Z. c #B8DAF0",
"A. c #C8C9C9",
"S. c #CDCDD1",
"D. c #C6C8DD",
"F. c #C8C9DD",
"G. c #D6D3D3",
"H. c #D9D7D7",
"J. c #DCDADA",
"K. c #CBD5E5",
"L. c #D2D3E3",
"P. c #D8D7E1",
"I. c #D7D8E5",
"U. c #DADAE5",
"Y. c #C1E3F7",
"T. c #C2E6F8",
"R. c #CAEAF9",
"E. c #D5ECF9",
"W. c #D8EEFB",
"Q. c #E7E6E6",
"!. c #E4E5EB",
"~. c #EAEAE9",
"^. c #F0EFEF",
"/. c #ECEDF1",
"(. c #F5F4F4",
"). c #F8F7F7",
"_. c #F9F8F7",
"`. c #F7F7F8",
"'. c #FAFAF9",
"]. c None",
/* pixels */
"].].].].].].].].].].].].].].].].].].].].].].].].",
"].].~.`.`.).).).)._._.)._.`.`.`.`.`.`.).`.].].].",
"].].Q.^.^.^.^.^.^.^.`.(.(.(.(.(.^.^.^.^.(.].].].",
"].].Q.(.^.(.(.`.`.`.)._.).(.`.(.(.(.(.^.(.].].].",
"].].Q.`.(.`.`.`.`.`.!.L.U.^.'.`.`.`.(.(.`.].].].",
"].].Q.`.(.`.`.~.g.4.<./ ! ! 4.U.`.`.`.(.`.].].].",
"].].Q.`.`._.D.:.q.1.U Z S n D L u.(._.`.(.].].].",
"].].~.`._.l./ t.B.c.o.` O.F V V C -.(.).`.].].].",
"].].~.'.L.,.9.N.R.v.@.] { a 0 9 S z 7.`.).].].].",
"].].~.(.7.+.x.R.R.v.=.*.' s r 7 8 = c I.`.].].].",
"].].~.L.P 9.N.W.T.V.v.#.) p e 4 0 r 8 5.'.].].].",
"].].~.g.> O.M.E.T.C.z.| ) u w 4 5 B 8 ~ ^.].].].",
"].].Q.3.X y %.C.x.b.*.$._ t w & 9 A n K U.].].].",
"].].Q.2.X 6 Z z.*.&.} [ p e 6 & < V v G U.].].].",
"].].Q.i.. 4 e I 9.' p u w 1 % #   * o l S.].].].",
"].].~.F.O ; 7 e y X.e...q 3 j h f k H a.].].].].",
"].].~./.m . ; 5 7 0.m.t.Y 6.'.'.`.(.J.].].].].].",
"].].~.'.s.@ X $ ; W m.y.R a.'.^.~.G.].].].].].].",
"].].Q.`.`.-.= ; - : 8.k.;.d.`.~.H.].].].].].].].",
"].].~.)._.^.>.2 , r q.k.E a.(.J.].].].].].].].].",
"].].~.`.`.).(.h.D 9 Q W g p.Q.].].].].].].].].].",
"].].Q._.`.(.)./.K.f.( J T j.].].].].].].].].].].",
"].].~.'.'.'.`.'.`.`.^.Q.A.].].].].].].].].].].].",
"].].].].].].].].].].].].].].].].].].].].].].].]."
};
