/* XPM */
static char *export_pdf_xpm[] = {
/* columns rows colors chars-per-pixel */
"32 32 117 2 ",
"   c #A90000",
".  c #B00000",
"X  c #BA0000",
"o  c #AE3030",
"O  c #C50606",
"+  c #CD0404",
"@  c #CA0909",
"#  c #D40606",
"$  c #DD0303",
"%  c #D50909",
"&  c #DC0C0C",
"*  c #D21717",
"=  c #DD1313",
"-  c #D41919",
";  c #E40707",
":  c #E40A0A",
">  c #E01414",
",  c #E41A1A",
"<  c #D22020",
"1  c #DA2525",
"2  c #DA2B2B",
"3  c #DB3B3B",
"4  c #E22B2B",
"5  c #E82C2C",
"6  c #CF4646",
"7  c #CB4C4C",
"8  c #D34747",
"9  c #D94A4A",
"0  c #C65656",
"q  c #C95454",
"w  c #D45151",
"e  c #DB5757",
"r  c #E44444",
"t  c #E54A4A",
"y  c #E85151",
"u  c #E25B5B",
"i  c #C66161",
"p  c #CB6262",
"a  c #C66D6D",
"s  c #D26464",
"d  c #DF6262",
"f  c #D77777",
"g  c #D87676",
"h  c #DF7878",
"j  c #E56060",
"k  c #E96464",
"l  c #E56C6C",
"z  c #EA7575",
"x  c #E27D7D",
"c  c #EC7A7A",
"v  c #F37F7F",
"b  c gray65",
"n  c #AAA9A9",
"m  c #B5B5B5",
"M  c gray",
"N  c #C98282",
"B  c #D18585",
"V  c #D48B8B",
"C  c #D59C9C",
"Z  c #EC8686",
"A  c #E68D8D",
"S  c #ED8C8C",
"D  c #F28C8C",
"F  c #E69898",
"G  c #EF9898",
"H  c #F49696",
"J  c #DBA4A4",
"K  c #CFBFBF",
"L  c #DEB2B2",
"P  c #DFBDBD",
"I  c #E3A4A4",
"U  c #E8A3A3",
"Y  c #E4AEAE",
"T  c #EEAAAA",
"R  c #F4A7A7",
"E  c #F0AEAE",
"W  c #ECB4B4",
"Q  c #E5BCBC",
"!  c #EBB9B9",
"~  c #F1B1B1",
"^  c #F5BBBB",
"/  c #BAC0C0",
"(  c #C5C4C4",
")  c #CDCCCC",
"_  c #DCC2C2",
"`  c #D0CFCF",
"'  c LightGray",
"]  c #DBD3D3",
"[  c #D2D8D8",
"{  c #DCDBDB",
"}  c #E2C6C6",
"|  c #ECC1C1",
" . c #EECECE",
".. c #F2C2C2",
"X. c #F6CCCC",
"o. c #E7D4D4",
"O. c #EED5D5",
"+. c #E0DFDF",
"@. c #EFDEDE",
"#. c #F3D4D4",
"$. c #F4DDDD",
"%. c #DCE2E2",
"&. c #E4E3E3",
"*. c #E9E7E7",
"=. c #E7E8E8",
"-. c #ECECEC",
";. c #F1EDED",
":. c #F9EDED",
">. c #E6F2F2",
",. c #EDF3F3",
"<. c #ECF7F8",
"1. c #EDFCFC",
"2. c #F5F4F4",
"3. c #F8F7F7",
"4. c #F7FBFB",
"5. c #FCFCFC",
"6. c None",
/* pixels */
"6.6.6.6.6.6.6.6.6.6.6.6.6.6.6.6.6.6.6.6.6.6.6.6.6.6.6.6.6.6.6.6.",
"6.6.6.5.5.5.5.5.5.5.5.5.5.5.5.5.5.5.5.5.5.5.5.5.5.5.5.5.6.6.6.6.",
"6.6.6.5.,.;.;.;.2.P P C V >.&.;.;.2.2.;.=.;.;.;.2.;.;.5.6.6.6.6.",
"6.6.6.5.;.;.;.4.N 5.2.2.J | *.=.2.2.2.2.-.;.2.2.;.2.,.5.6.6.6.6.",
"6.6.6.5.;.2.;.4.o 4.2.2.5.q 2.*.=.2.4.;.-.2.2.2.;.2.2.5.6.6.6.6.",
"6.6.6.5.2.2.2.4.a i 5.4.5.7 5.,.-.-.2.;.;.4.2.2.2.2.2.5.6.6.6.6.",
"6.6.6.5.2.2.2.4.;.  V 5.4.f $.5.;.-.-.-.;.5.2.2.2.2.2.5.6.6.6.6.",
"6.6.6.5.2.2.2.2.5.Q . f 5.F ! 5.5.;.=.-.>.2.3.3.3.2.3.5.6.6.6.6.",
"6.6.6.5.2.2.5.2.3.5.I X 6 I U 5.5.5.2.=.-.-.;.5.5.2.2.5.6.6.6.6.",
"6.6.6.5.2.2.2.5.5.4.5.W @ @ A 5.5.5.5.,.-.-.-.=.;.5.5.5.6.6.6.6.",
"6.6.6.5.2.5.2.5.2.5.5.5.$.< % j 5.5.;.2.5.2.=.-.=.-.2.5.6.6.6.6.",
"6.6.6.5.2.5.3.3.5.4.5.5.5.T 1 % = R 1.4.5.5.5.,.-.-.=.5.6.6.6.6.",
"6.6.6.5.5.5.2.5.5.5.5.5.5.Z ~ ^ , : 5 X.5.5.5.5.2.;.-.5.6.6.6.6.",
"6.6.6.5.2.3.5.2.5.2.3.5.5.z ^ 5.5.c : : r #.5.4.4.5.2.5.6.6.6.6.",
"6.6.6.5.5.5.2.5.3.2.5.5.5.y #.5.5.,.;.k $ $ r | 5.4.2.5.6.6.6.6.",
"6.6.6.5.2.3.5.3.5.5.3.5.5.5 :.4.2.=.5.5.;.l % % 1 F z Z 6.6.6.6.",
"6.6.6.5.3.3.5.2.3.5.5.3.5.: 5.5.;.,.2.3.4.4.| - + + @ D 6.6.6.6.",
"6.6.6.5.2.3.3.5.5.2.5.5.3., 5.2.=.2.4.;.x * + w _ ] B H 6.6.6.6.",
"6.6.6.5.5.2.2.3.3.3.3.5...t 4.,.>.O.e + + s { { { { %.5.6.6.6.6.",
"6.6.6.5.3.4.5.2.2.5.4.5.D Z 5.} 9 + @ p ` [ ' { { ] ) { 6.6.6.6.",
"6.6.6.5.2.2.5.5.5.3.3.5.t ~ u # + 0 K / M / ) ) ) { ;.6.6.6.6.6.",
"6.6.6.5.5.2.2.3.2.5.4.5.> % % 8 _ / 5.5.5.5.5.5.5.{ 6.6.6.6.6.6.",
"6.6.6.5.2.5.5.3.5.4.$.4 = 1 L %.` m 5.4.5.2.=.{ ' 6.6.6.6.6.6.6.",
"6.6.6.5.2.2.2.4.4.E & = d >.=.&.' b 5.4.;.;.&.] 6.6.6.6.6.6.6.6.",
"6.6.6.5.5.2.5.4.G $ t = o.=.-.&.' b 5.;.-.&.{ 6.6.6.6.6.6.6.6.6.",
"6.6.6.5.2.3.3...$ F @.2 >.,.=.&.) n 5.;.+.+.6.6.6.6.6.6.6.6.6.6.",
"6.6.6.5.2.2.4.2  .5.u Y ;.;.=.&.) n 5.&.+.6.6.6.6.6.6.6.6.6.6.6.",
"6.6.6.5.3.3.<.c 5.#.3 <.;.,.=.+.) m 5.+.6.6.6.6.6.6.6.6.6.6.6.6.",
"6.6.6.5.2.3.;.#.$.u >.2.;.;.=.{ ( ) =.6.6.6.6.6.6.6.6.6.6.6.6.6.",
"6.6.6.5.2.2.2.;.;.4.3.2.;.-.&.{ ( 2.6.6.6.6.6.6.6.6.6.6.6.6.6.6.",
"6.6.6.5.5.5.5.5.5.5.5.5.5.5.5.5.` 6.6.6.6.6.6.6.6.6.6.6.6.6.6.6.",
"6.6.6.6.6.6.6.6.6.6.6.6.6.6.6.6.6.6.6.6.6.6.6.6.6.6.6.6.6.6.6.6."
};
