/* XPM */
static char *export_pdf_xpm[] = {
/* columns rows colors chars-per-pixel */
"24 24 226 2 ",
"   c #DE1B1B",
".  c #DF2121",
"X  c #D52F2F",
"o  c #D72E2E",
"O  c #DD2828",
"+  c #D03333",
"@  c #D33737",
"#  c #D73737",
"$  c #DC3434",
"%  c #D03939",
"&  c #DA3A3A",
"*  c #DF3E3E",
"=  c #E73030",
"-  c #E33737",
";  c #CB4141",
":  c #C94545",
">  c #D74343",
",  c #D24B4B",
"<  c #CA5D5D",
"1  c #D05454",
"2  c #D35454",
"3  c #E04242",
"4  c #E64343",
"5  c #E34F4F",
"6  c #E05555",
"7  c #EB5353",
"8  c #DA6060",
"9  c #DB6868",
"0  c #DF6868",
"q  c #C97979",
"w  c #D07A7A",
"e  c #D77C7C",
"r  c #E56767",
"t  c #E86464",
"y  c #EB6464",
"u  c #E16A6A",
"i  c #E26C6C",
"p  c #E96B6B",
"a  c #E17F7F",
"s  c #EA7B7B",
"d  c #ED7E7E",
"f  c #D48F8F",
"g  c #D88D8D",
"h  c #CA9393",
"j  c #CE9797",
"k  c #D69292",
"l  c #E38484",
"z  c #E98282",
"x  c #EB8686",
"c  c #E48E8E",
"v  c #F08686",
"b  c #F08C8C",
"n  c #E79595",
"m  c #E99393",
"M  c #EF9393",
"N  c #EB9797",
"B  c #EE9595",
"V  c #EC9696",
"C  c #E69898",
"Z  c #EA9898",
"A  c #EA9A9A",
"S  c #EE9999",
"D  c #EF9999",
"F  c #EC9C9C",
"G  c #ED9C9C",
"H  c #DEAEAE",
"J  c #C8BFBF",
"K  c #DDB8B8",
"L  c #EFA1A1",
"P  c #E0A8A9",
"I  c #E5A8A8",
"U  c #E7ABAB",
"Y  c #F1ABAB",
"T  c #EDB3B3",
"R  c #EAB8B8",
"E  c #E8BBBB",
"W  c #E9BDBD",
"Q  c #F2B0B0",
"!  c #F4B6B6",
"~  c #F0B8B8",
"^  c #C3C2C2",
"/  c #C3C3C3",
"(  c #C5C4C4",
")  c #C6C7C7",
"_  c #C8C7C7",
"`  c #CFCACA",
"'  c #CCCCCC",
"]  c #DAC4C4",
"[  c #D2C8C8",
"{  c #DBCECE",
"}  c #D3D3D3",
"|  c #D4D2D2",
" . c #D2D6D6",
".. c #D4D4D4",
"X. c #D5D5D5",
"o. c #D7D5D5",
"O. c #D7D6D6",
"+. c #D8D6D6",
"@. c #D7DBDB",
"#. c #D8D9D9",
"$. c #DAD9D9",
"%. c #D8DBDB",
"&. c #DBDADA",
"*. c #DCDBDB",
"=. c #DBDDDD",
"-. c #DDDCDC",
";. c #DFDEDE",
":. c #EDC7C7",
">. c #E6CACA",
",. c #E4CCCC",
"<. c #EAC9C9",
"1. c #E8CACA",
"2. c #EFC9C9",
"3. c #F5C3C3",
"4. c #F1CCCC",
"5. c #E5D4D4",
"6. c #EBD0D0",
"7. c #EBD2D3",
"8. c #EED1D1",
"9. c #EAD7D7",
"0. c #EFD4D4",
"q. c #E0DFDF",
"w. c #EFDEDE",
"e. c #EFDFDF",
"r. c #F1D0D0",
"t. c #F3D2D2",
"y. c #F6D2D2",
"u. c #F7D6D6",
"i. c #F1D8D8",
"p. c #F4DDDD",
"a. c #F6DEDE",
"s. c #F7DFDF",
"d. c #E2E1E1",
"f. c #E3E3E3",
"g. c #E2E6E6",
"h. c #E6E6E6",
"j. c #E7E7E7",
"k. c #EBE5E5",
"l. c #E9E7E7",
"z. c #EFE7E7",
"x. c #E8E8E8",
"c. c #E9E9E9",
"v. c #EAE8E8",
"b. c #EAE9E9",
"n. c #EAEAEA",
"m. c #EFE9E9",
"M. c #ECEBEB",
"N. c #EBECEC",
"B. c #EBEDED",
"V. c #EAEEEE",
"C. c #ECECEC",
"Z. c #ECEDED",
"A. c #EDEDED",
"S. c #EDEEEE",
"D. c #EEEEEE",
"F. c #EEEFEF",
"G. c #EFEFEF",
"H. c #F1E0E0",
"J. c #F4E0E0",
"K. c #F6E0E0",
"L. c #F1E9E9",
"P. c #F6E8E8",
"I. c #F7E8E8",
"U. c #F6E9E9",
"Y. c #F7EDED",
"T. c #F8EDED",
"R. c #EFF0F0",
"E. c #EEF1F1",
"W. c #F1F0F0",
"Q. c #F1F1F1",
"!. c #F2F1F1",
"~. c #F1F3F3",
"^. c #F2F2F2",
"/. c #F3F2F2",
"(. c #F2F2F3",
"). c #F2F3F3",
"_. c #F3F3F3",
"`. c #F7F0F0",
"'. c #F4F3F3",
"]. c #F6F2F2",
"[. c #F3F4F4",
"{. c #F3F6F6",
"}. c #F2F7F7",
"|. c #F4F4F4",
" X c #F5F4F4",
".X c #F5F5F5",
"XX c #F7F4F4",
"oX c #F6F5F5",
"OX c #F5F6F6",
"+X c #F4F7F7",
"@X c #F6F6F6",
"#X c #F7F6F6",
"$X c #F6F7F7",
"%X c #F7F7F7",
"&X c #F8F2F2",
"*X c #FBF2F2",
"=X c #F8F7F7",
"-X c #F6F8F8",
";X c #F7F8F8",
":X c #F7F9F9",
">X c #F4FCFC",
",X c #F7FCFC",
"<X c #F8F8F8",
"1X c #F9F8F8",
"2X c #F8F9F9",
"3X c #F9F9F9",
"4X c #FAF9F9",
"5X c #F8FAFA",
"6X c #F9FAFA",
"7X c #F8FBFB",
"8X c #F9FBFB",
"9X c #FAFAFA",
"0X c #FBFAFA",
"qX c #FAFBFB",
"wX c #FBFBFB",
"eX c #FCF9F9",
"rX c #F8FCFC",
"tX c #F9FCFC",
"yX c #FAFCFC",
"uX c #F9FEFE",
"iX c #FBFEFE",
"pX c #FBFFFF",
"aX c #FCFEFE",
"sX c #FDFEFE",
"dX c #FCFFFF",
"fX c None",
/* pixels */
"fXfXfXfXfXfXfXfXfXfXfXfXfXfXfXfXfXfXfXfXfXfXfXfX",
"fXfXc.=X X;XXXw.7.7.{. X3X3X X|.;X3X=X X XfXfXfX",
"fXfXh.!.!.m.K m.9.H 5.N.!.XX!.Z.!.!.!.!. XfXfXfX",
"fXfXh. X!.z.q L.;X<.P E.c.|.!.W. X X!.!. XfXfXfX",
"fXfXh. X X Xf w XX8.I  XZ.Z.!.!.3X X X X XfXfXfX",
"fXfXc. X X3Xe.< e r.U Y.;XZ.N.E. X X=X X XfXfXfX",
"fXfXh.=X X;XtX0.1 , c I.aX;XE.N.E. X X;X XfXfXfX",
"fXfXc.3X3X3X3XtXp.8 X G eX3X{.!.Z.Z.E. X$XfXfXfX",
"fXfXc.3X3X3X3X3XaXp.6 O y 4. XaX3X!.N.N.!.fXfXfX",
"fXfXh.3X3X3X3XaXaXs.D Q 7 = z u.tXtX XE.!.fXfXfX",
"fXfXh.3X3X3X3X3XaXu.M *XT.N 4 - x r.;X;X XfXfXfX",
"fXfXl.3X3X3XeX3XtX3.b 3X X{.s.G 3 $ i C A fXfXfX",
"fXfXc.3X=X3X3X3XtX! v tXE.;X,Xi.n # @ % u fXfXfX",
"fXfXl.3X=X3X3X3XtXY D >XZ.:.a > 2 k { ] E fXfXfX",
"fXfXh.3X3X=X=X=X&XN ~ <.9 + : j [ @.$.$.=.fXfXfX",
"fXfXj.3X=X=X3X3XXXy r X ; h '  .@.$.-.+.fXfXfXfX",
"fXfXh.3X3X3X3X XL   & f J -.aXeX X!.&.fXfXfXfXfX",
"fXfXh.;X XtXP.s . u >.g.( X.aX!.c.| fXfXfXfXfXfX",
"fXfXj.3X XI.p 5 * >.N.f.( }  Xc.+.fXfXfXfXfXfXfX",
"fXfXj.3X3XN z T l l.Z.d./ X.!.+.fXfXfXfXfXfXfXfX",
"fXfXc.3X>XA J.m E {.c.q.( $.q.fXfXfXfXfXfXfXfXfX",
"fXfXh. X!.e.2.R !.!.c.-.' } fXfXfXfXfXfXfXfXfXfX",
"fXfXc.wX3X3X;X3X3X=XXXc._ fXfXfXfXfXfXfXfXfXfXfX",
"fXfXfXfXfXfXfXfXfXfXfXfXfXfXfXfXfXfXfXfXfXfXfXfX"
};
