/* XPM */
static char *export_csv_xpm[] = {
/* columns rows colors chars-per-pixel */
"24 24 224 2 ",
"   c #515151",
".  c #7D7D7D",
"X  c #69A3F7",
"o  c #6FAAFF",
"O  c #73AAFD",
"+  c #73AAFE",
"@  c #73ABFF",
"#  c #7DB0FF",
"$  c #818181",
"%  c #848484",
"&  c #858585",
"*  c #868686",
"=  c #878787",
"-  c #888888",
";  c #898989",
":  c #8A8A8A",
">  c #8B8B8B",
",  c #8C8C8C",
"<  c #8D8D8D",
"1  c #8E8E8E",
"2  c #8F8E8E",
"3  c #8F8F8F",
"4  c #919191",
"5  c #939393",
"6  c #949494",
"7  c #969696",
"8  c #9D9D9D",
"9  c #9E9E9E",
"0  c #9F9F9F",
"q  c #9CA1A8",
"w  c #92A4BC",
"e  c #A0A0A0",
"r  c #A4A3A4",
"t  c #A4A4A4",
"y  c #A5A5A5",
"u  c #A9A9A9",
"i  c #ABABAB",
"p  c #AEADAA",
"a  c #AEADAD",
"s  c #B1B1B1",
"d  c #B3B3B3",
"f  c #B5B4B4",
"g  c #B7B7B7",
"h  c #B8B7B7",
"j  c #B8B8B8",
"k  c #BAB9B9",
"l  c #BABABA",
"z  c #BBBBBB",
"x  c #BFBFBF",
"c  c #B8BDC4",
"v  c #A6BBD7",
"b  c #94B7EB",
"n  c #83B3FB",
"m  c #84B4FB",
"M  c #86B4FA",
"N  c #87B5FB",
"B  c #81B3FF",
"V  c #80B4FF",
"C  c #82B4FF",
"Z  c #83B5FF",
"A  c #85B6FF",
"S  c #85B7FF",
"D  c #86B7FF",
"F  c #88B5FB",
"G  c #BDC3CC",
"H  c #BDC3CD",
"J  c #B6C1D2",
"K  c #B5C4D6",
"L  c #BFC9D6",
"P  c #9DC0F2",
"I  c #98C2FF",
"U  c #9BC4FF",
"Y  c #AAC4EB",
"T  c #BDCEE6",
"R  c #A4C6F8",
"E  c #A7C9FA",
"W  c #A7CAFC",
"Q  c #A6CBFF",
"!  c #A8C9FA",
"~  c #ACD0FF",
"^  c #ADD0FF",
"/  c #B1D3FF",
"(  c #B9D7FF",
")  c #BAD8FF",
"_  c #C0C0C0",
"`  c #C1C1C1",
"'  c #C2C1C1",
"]  c #C3C3C3",
"[  c #C0C3C5",
"{  c #C4C4C4",
"}  c #C5C5C5",
"|  c #C6C5C5",
" . c #C6C5C6",
".. c #C6C6C6",
"X. c #C7C6C6",
"o. c #C7C7C7",
"O. c #C9C7C4",
"+. c #C8C6C5",
"@. c #C9C8C7",
"#. c #CDCAC4",
"$. c #C0C4CB",
"%. c #C8C8C8",
"&. c #C9C9C9",
"*. c #CACACA",
"=. c #CBCBCB",
"-. c #CCCCCC",
";. c #CDCDCD",
":. c #CECECE",
">. c #CFCECE",
",. c #D0D0D0",
"<. c #D1D0D0",
"1. c #D1D1D1",
"2. c #D2D2D2",
"3. c #D3D3D3",
"4. c #D5D3D1",
"5. c #D4D2D2",
"6. c #D4D3D2",
"7. c #D4D4D4",
"8. c #D5D4D4",
"9. c #D4D5D5",
"0. c #D5D5D5",
"q. c #D6D5D5",
"w. c #D6D6D5",
"e. c #D6D6D6",
"r. c #D7D6D6",
"t. c #D7D7D7",
"y. c #D8D6D6",
"u. c #D8D7D7",
"i. c #D8D8D8",
"p. c #D9D8D8",
"a. c #D9D9D9",
"s. c #DAD9D9",
"d. c #DADADA",
"f. c #DBDADA",
"g. c #DBDBDB",
"h. c #DCDADA",
"j. c #DEDCD9",
"k. c #DCDCDC",
"l. c #DDDDDD",
"z. c #DEDDDD",
"x. c #DEDEDE",
"c. c #DFDEDE",
"v. c #DFDFDF",
"b. c #E0DFDE",
"n. c #E0DFDF",
"m. c #C7D2E5",
"M. c #C8D3E7",
"N. c #CAD4E4",
"B. c #CFD8E2",
"V. c #C4D4EA",
"C. c #C6D6EE",
"Z. c #C7D6EE",
"A. c #C2D9FB",
"S. c #CDE0FB",
"D. c #CDE0FF",
"F. c #E0E0E0",
"G. c #E1E0E0",
"H. c #E1E1E1",
"J. c #E2E1E1",
"K. c #E2E2E2",
"L. c #E3E3E3",
"P. c #E5E3E0",
"I. c #E4E4E4",
"U. c #E5E4E4",
"Y. c #E5E5E5",
"T. c #E6E6E6",
"R. c #E7E6E6",
"E. c #E7E7E6",
"W. c #E7E7E7",
"Q. c #EAE7E2",
"!. c #E9E7E7",
"~. c #E8E8E7",
"^. c #E9E8E7",
"/. c #E8E8E8",
"(. c #E9E8E8",
"). c #E9E9E9",
"_. c #EAE8E8",
"`. c #EAE9E9",
"'. c #EAEAEA",
"]. c #EBEBEB",
"[. c #ECEBEB",
"{. c #EFEDEB",
"}. c #ECECEC",
"|. c #EDECEC",
" X c #EDEDED",
".X c #EFEEEE",
"XX c #F1EFEC",
"oX c #F0EFEF",
"OX c #F6F4EE",
"+X c #F9F7EF",
"@X c #F0F0F0",
"#X c #F1F0F0",
"$X c #F1F1F1",
"%X c #F2F1F1",
"&X c #F2F2F2",
"*X c #F3F2F2",
"=X c #F3F3F3",
"-X c #F5F3F1",
";X c #F4F3F3",
":X c #F4F4F4",
">X c #F5F4F4",
",X c #F6F6F6",
"<X c #F7F6F6",
"1X c #F7F7F7",
"2X c #F9F6F1",
"3X c #F8F7F7",
"4X c #FEFBF7",
"5X c #FEFCF7",
"6X c #F5FAFF",
"7X c #F8F8F8",
"8X c #F9F8F8",
"9X c #F9F9F9",
"0X c #FAF9F9",
"qX c #F9FAFA",
"wX c #FAFAFA",
"eX c #FBFAFA",
"rX c #FBFBFB",
"tX c #FCFBF9",
"yX c #FEFBF8",
"uX c #FCFBFB",
"iX c #FEFCF8",
"pX c #FEFEFE",
"aX c gray100",
"sX c None",
/* pixels */
"sXsXsXsXsXsXsXsXsXsXsXsXsXsXsXsXsXsXsXsXsXsXsXsX",
"sXsXW..X8X0X0X0XiX5X5X5X5XiXrXrXrX0X0X0X1XsXsXsX",
"sXsXl.| u.{ | O.b m F m F n J O.| | ] h.1XsXsXsX",
"sXsXW.$Xj.Q.2X+Xm Q ^ ^ / C Y N.m.N.L 6.1XsXsXsX",
"sXsXW.-XV.P ! ! + C S C S + v H G G c 9.0XsXsXsX",
"sXsXl.#.R # I I + A.S.D.D.w [ ^.W.`.9.9.0XsXsXsX",
"sXsXW.OX! U ( ( # 6XpXpXpXp <.pXpXpX`.9.0XsXsXsX",
"sXsXW.yXW @ S S X q r t y . , 6.9.9.%.9.0XsXsXsX",
"sXsXl.@.B.T Z.Z.K | &.| ` &   g.W.W.6.9.0XsXsXsX",
"sXsXW.@Xb.P.XX{.4.pX:X` 0 4 d @XpXpX^.7.0XsXsXsX",
"sXsXW.1XF.1.t.9.-.a.i = : & = y 4.n.1.a.0XsXsXsX",
"sXsXk.*.l.i.K.x.<.:., , , - , , G `.a.7.0XsXsXsX",
"sXsXW.$Xx.L..X'.9.g.3 5 6 : 4 6 k -XK.:.3XsXsXsX",
"sXsXW.0Xx.9.l.g.:.&.4 = : & & : 8 :.| | 1XsXsXsX",
"sXsXa.*.l.g.L.K.>.W.| 5 , $ & & 8 &.` k a.sXsXsX",
"sXsXW.$Xx.K.'.'.,.0X1Xg.g y k e k h.a.&.sXsXsXsX",
"sXsXW.1Xl.9.l.l.-.a.a.1.z 7.pXrX1X#Xh.sXsXsXsXsX",
"sXsXl.| l.a.K.K.-.L.K.i.z :.uX$X!.3.sXsXsXsXsXsX",
"sXsXW.$Xl.K..X`.,.1X-X!.f _ 3X!.y.sXsXsXsXsXsXsX",
"sXsXW.3XK.1.9.9.&.i.:.s $ g $Xy.sXsXsXsXsXsXsXsX",
"sXsXl.| W.I.`.`.l.l.j i a 3.n.sXsXsXsXsXsXsXsXsX",
"sXsXW..X$X1X3X3X#X#XW.a.:.9.sXsXsXsXsXsXsXsXsXsX",
"sXsX`.0X0X0X0X0X0X1X;X`.O.sXsXsXsXsXsXsXsXsXsXsX",
"sXsXsXsXsXsXsXsXsXsXsXsXsXsXsXsXsXsXsXsXsXsXsXsX"
};
