/* XPM */
static char *export_text_xpm[] = {
/* columns rows colors chars-per-pixel */
"32 32 200 2 ",
"   c #101010",
".  c gray7",
"X  c #131313",
"o  c #171818",
"O  c #181818",
"+  c #191919",
"@  c gray10",
"#  c #1B1B1B",
"$  c gray11",
"%  c gray12",
"&  c #202020",
"*  c gray15",
"=  c #272727",
"-  c #282828",
";  c #2A2A2A",
":  c #2C2C2C",
">  c #2F2F2F",
",  c gray19",
"<  c #313131",
"1  c #323232",
"2  c gray21",
"3  c #373737",
"4  c #393939",
"5  c gray24",
"6  c #3F3F3F",
"7  c gray25",
"8  c #414141",
"9  c #464646",
"0  c gray29",
"q  c #515151",
"w  c #565656",
"e  c #575656",
"r  c #5A5A5A",
"t  c #5B5B5B",
"y  c #5D5D5D",
"u  c #646464",
"i  c #656565",
"p  c gray42",
"a  c #747474",
"s  c gray49",
"d  c #7E7E7E",
"f  c gray50",
"g  c #818282",
"h  c #848484",
"j  c gray52",
"k  c #868686",
"l  c #8B8B8B",
"z  c gray56",
"x  c #909090",
"c  c #949393",
"v  c #959494",
"b  c gray62",
"n  c #A2A2A2",
"m  c #A9A9A9",
"M  c #AAAAAA",
"N  c gray67",
"B  c #ACACAC",
"V  c gray68",
"C  c #AEAEAE",
"Z  c #AFAFAF",
"A  c #B0AEAE",
"S  c #B1B1B1",
"D  c #B6B5B5",
"F  c gray75",
"G  c #C0BEBE",
"H  c #C1C1C1",
"J  c gray76",
"K  c #C3C3C3",
"L  c #C4C3C3",
"P  c #C5C5C5",
"I  c #C6C5C5",
"U  c #C6C6C6",
"Y  c #C7C6C6",
"T  c #C8C7C7",
"R  c #C8C8C8",
"E  c #C9C8C8",
"W  c gray79",
"Q  c #CAC9C9",
"!  c #CACACA",
"~  c #CBCACA",
"^  c #CBCBCB",
"/  c #CCCBCB",
"(  c gray80",
")  c #CDCDCD",
"_  c #CECCCC",
"`  c #CECDCD",
"'  c #CECECE",
"]  c #CFCECE",
"[  c #CECFCF",
"{  c gray81",
"}  c #D0CECE",
"|  c #D0CFCF",
" . c #D0D0D0",
".. c #D1D0D0",
"X. c gray82",
"o. c #D2D0D0",
"O. c #D2D1D1",
"+. c #D2D2D2",
"@. c #D3D2D2",
"#. c LightGray",
"$. c #D4D3D3",
"%. c gray83",
"&. c #D4D5D5",
"*. c #D5D5D5",
"=. c #D7D6D6",
"-. c #D7D7D7",
";. c #D8D8D8",
":. c gray85",
">. c #DBD8D8",
",. c #DAD9D9",
"<. c #DBDADA",
"1. c gray86",
"2. c gainsboro",
"3. c #DDDCDC",
"4. c #DDDDDD",
"5. c #DEDDDD",
"6. c #DFDDDD",
"7. c #DFDEDE",
"8. c #DFDFDF",
"9. c #E0DEDE",
"0. c #E0DFDF",
"q. c gray88",
"w. c #E1E0E0",
"e. c #E1E1E1",
"r. c #E2E1E1",
"t. c #E3E1E1",
"y. c gray89",
"u. c #E4E2E2",
"i. c #E4E4E4",
"p. c #E5E4E4",
"a. c gray90",
"s. c #E6E5E5",
"d. c #E6E6E6",
"f. c #E7E6E6",
"g. c #E7E7E7",
"h. c #E8E7E7",
"j. c gray91",
"k. c #E9E8E8",
"l. c #E9E9E9",
"z. c #EAEAEA",
"x. c #EBEAEA",
"c. c gray92",
"v. c #ECEAEA",
"b. c #ECEBEB",
"n. c #EDEBEB",
"m. c #ECECEC",
"M. c #EDECEC",
"N. c gray93",
"B. c #EEECEC",
"V. c #EEEDED",
"C. c #EFEDED",
"Z. c #EEEEEE",
"A. c #EFEEEE",
"S. c #EFEFEF",
"D. c #F0EEEE",
"F. c #F0EFEF",
"G. c gray94",
"H. c #F1F0F0",
"J. c #F2F0F0",
"K. c #F3F0F0",
"L. c #F2F1F1",
"P. c gray95",
"I. c #F3F2F2",
"U. c #F3F3F3",
"Y. c #F4F2F2",
"T. c #F4F3F3",
"R. c #F5F3F3",
"E. c #F4F4F4",
"W. c #F5F4F4",
"Q. c gray96",
"!. c #F6F4F4",
"~. c #F6F5F5",
"^. c #F7F5F5",
"/. c #F5F6F6",
"(. c #F6F6F6",
"). c #F7F6F6",
"_. c #F6F7F7",
"`. c gray97",
"'. c #F8F7F7",
"]. c #F8F8F8",
"[. c #F9F8F8",
"{. c #F8F9F9",
"}. c #F9F9F9",
"|. c #FAF9F9",
" X c #FBF9F9",
".X c #F9FAFA",
"XX c gray98",
"oX c #FBFAFA",
"OX c #FAFBFB",
"+X c #FBFBFB",
"@X c #FCFBFB",
"#X c gray99",
"$X c #FDFCFC",
"%X c #FCFDFD",
"&X c #FDFDFD",
"*X c #FEFDFD",
"=X c #FEFEFE",
"-X c #FFFEFE",
";X c gray100",
":X c None",
/* pixels */
":X:X:X:X:X:X:X:X:X:X:X:X:X:X:X:X:X:X:X:X:X:X:X:X:X:X:X:X:X:X:X:X",
":X:X:X;X;X;X;X;X;X;X;X;X;X;X;X;X;X;X;X;X;X;X;X;X;X;X;X;X:X:X:X:X",
":X:X:X;X .K.F.K.Y.Y.Y./.Y./.Y././.Y./.Y.Y.Y.F.F.F.A.A.;X:X:X:X:X",
":X:X:X;Xl z.A.] ~ ] 9.T -.~  .} ~ 9.<.I ] @.Y.Y.K.K.A.;X:X:X:X:X",
":X:X:X;XK././.'.].].oX].oXoX].;X;XoX;XoXoX]./.Y.E.K.K.;X:X:X:X:X",
":X:X:X;XK.E.f. .] } } ~ @.f.! K ~ @.@.:.~ f././.E.E.K.;X:X:X:X:X",
":X:X:X;Xr.].].].].;X].;X;X].;X].;XoX'./.oX].'./././.Y.;X:X:X:X:X",
":X:X:X;Xj A.].].oX].oX].;XoX;X%X;X;X;X%X;XoX].]./././.;X:X:X:X:X",
":X:X:X;XK._._.K ! f.-.2.] A. .r.] r. .! ! -.] ;X'.'./.;X:X:X:X:X",
":X:X:X;X/._.%X;X;X;X;X;X;X;X;X;X;X;X;X;X;X;X%X].].]./.;X:X:X:X:X",
":X:X:X;XK.%Xf.] ]  .:. . .2.{ z. .]  .-. .A.].].].].'.;X:X:X:X:X",
":X:X:X;Xs K.].B ;X;X;X;X;X;X;X;X;X;X;X;X;XN ;X].].]./.;X:X:X:X:X",
":X:X:X;Xz.;X].. ;X;X;X%X;X;X;X;X;X;X;X%X;X. ;X%X].].].;X:X:X:X:X",
":X:X:X;X].].;X% A.f.r.;.i.-.i.-.%.].2.2.z.& Y.2.z.]./.;X:X:X:X:X",
":X:X:X;Xf.z.6 1 q 7 :.b % 2.;X;X;Xi 1 f.7 1 0 6 } _./.;X:X:X:X:X",
":X:X:X;Xj /.].% f./.%.z.w 6 2.8.b = B -./.% ;X;X]./.K.;X:X:X:X:X",
":X:X:X;XK.oX;Xo ;X;X;X;X;X3 h ;X1 z ;X].;X@ ;XK.K.G.F.;X:X:X:X:X",
":X:X:X;X/./.;Xo ;X].].].%X-.= w w ;X/./.].@ ;XA.z.z.f.;X:X:X:X:X",
":X:X:X;XK.;X;Xo ;X].].].].;Xy 2 K /.A.A.K.@ /.h.f.r.2.;X:X:X:X:X",
":X:X:X%Xg K.;Xo ;X].].'.;XN ; a 2 z.f.r.h.% z.2.:.-. .2.:X:X:X:X",
":X:X:X;XA.].;X@ ;X].].].i.; n ;X7 r  .! ! . ] I ] r.K.:X:X:X:X:X",
":X:X:X;X]./.;X> z f.A.;X9 t ;XA.I @ ;X;X;X;X;X;X;X2.:X:X:X:X:X:X",
":X:X:X;Xz.].;XB = @ S p = A.G.g.:.u ;X]./.K.z.9.} :X:X:X:X:X:X:X",
":X:X:X;Xd A./.;X;X;X;X;X;X_.G.f.-.N ;X/.K.A.r.:.:X:X:X:X:X:X:X:X",
":X:X:X;XK.]./.@.] } r.!  .~ ! F B c ;XK.n.u.2.:X:X:X:X:X:X:X:X:X",
":X:X:X;X/./.'.;X;X;X;X].oX/.K.z.-.N ;XA.u.u.:X:X:X:X:X:X:X:X:X:X",
":X:X:X;XF.].h.-.} } } T } 2.G A N c ;Xr.u.:X:X:X:X:X:X:X:X:X:X:X",
":X:X:X;Xf A.'.'.oX;X].oX].K.A.9.] D ;X9.:X:X:X:X:X:X:X:X:X:X:X:X",
":X:X:X;Xn.'.'.'.'.'.Y./.K.A.h.<.I ] A.:X:X:X:X:X:X:X:X:X:X:X:X:X",
":X:X:X;XY././.Y././.Y.Y.K.z.f.-.K /.:X:X:X:X:X:X:X:X:X:X:X:X:X:X",
":X:X:X;X;X;X;X;X;X;X;X;X;X;X;X;X .:X:X:X:X:X:X:X:X:X:X:X:X:X:X:X",
":X:X:X:X:X:X:X:X:X:X:X:X:X:X:X:X:X:X:X:X:X:X:X:X:X:X:X:X:X:X:X:X"
};
