/* XPM */
static char *export_csv_xpm[] = {
/* columns rows colors chars-per-pixel */
"32 32 241 2 ",
"   c gray22",
".  c #3C3C3C",
"X  c #3F3F3F",
"o  c #49443C",
"O  c #484848",
"+  c #484849",
"@  c #4C4C4C",
"#  c #555047",
"$  c #505050",
"%  c #535454",
"&  c #585858",
"*  c gray42",
"=  c #6F6F6F",
"-  c gray45",
";  c #747474",
":  c #777777",
">  c gray47",
",  c #7B7B7B",
"<  c #7C7C7C",
"1  c gray49",
"2  c #7E7E7E",
"3  c gray50",
"4  c #4D95FF",
"5  c #4F94FF",
"6  c #4E96FF",
"7  c #4F96FF",
"8  c #5094FF",
"9  c #5194FF",
"0  c #5095FF",
"q  c #5195FF",
"w  c #5196FF",
"e  c #5497FF",
"r  c #5498FF",
"t  c #59A1FF",
"y  c #5AA2FF",
"u  c #62A0FE",
"i  c #808080",
"p  c #818181",
"a  c gray51",
"s  c #838383",
"d  c #848484",
"f  c #858686",
"g  c #868686",
"h  c #878686",
"j  c #888888",
"k  c gray54",
"l  c #8B8B8B",
"z  c #8D8D8D",
"x  c #8E8E8E",
"c  c #8F8E8E",
"v  c gray56",
"b  c #909090",
"n  c #919090",
"m  c gray57",
"M  c #929292",
"N  c #939292",
"B  c #929393",
"V  c #939393",
"C  c gray58",
"Z  c #959595",
"A  c #969595",
"S  c gray59",
"D  c #979696",
"F  c #979797",
"G  c #989898",
"H  c #9A9A9A",
"J  c gray61",
"K  c gray62",
"L  c #9F9F9F",
"P  c gray63",
"I  c #A2A1A1",
"U  c #A3A2A2",
"Y  c gray64",
"T  c #A4A4A4",
"R  c #A6A7A7",
"E  c #A7A7A7",
"W  c #A8A9A9",
"Q  c #A9A9A9",
"!  c gray67",
"~  c #ABACAC",
"^  c #ACACAC",
"/  c #ADADAC",
"(  c gray68",
")  c #AFAFAE",
"_  c #B4AEA6",
"`  c #B0AFAD",
"'  c #B0AFAE",
"]  c #B1AFAE",
"[  c #B0B0AD",
"{  c #B1B0AE",
"}  c #B8B2A8",
"|  c gray69",
" . c #B1B1B1",
".. c #B2B2B2",
"X. c #B4B4B4",
"o. c #B7B7B7",
"O. c gray72",
"+. c #B9B8B8",
"@. c #B9B9B9",
"#. c gray73",
"$. c #BCBCBC",
"%. c gray74",
"&. c #BEBDBD",
"*. c gray",
"=. c #BFBEBE",
"-. c gray75",
";. c #CAC5BB",
":. c #CAC5BC",
">. c #CBC5BC",
",. c #BFC0C0",
"<. c #AFD1FF",
"1. c #B6D5FF",
"2. c #B6D6FF",
"3. c #B7D6FF",
"4. c #BDDAFF",
"5. c #BEDAFF",
"6. c #C0C0C0",
"7. c #C0C1C1",
"8. c #C1C1C1",
"9. c gray76",
"0. c #C3C3C3",
"q. c #C4C3C3",
"w. c gray77",
"e. c #C5C5C5",
"r. c #C6C6C6",
"t. c #CAC9C9",
"y. c #CCCBCB",
"u. c gray80",
"i. c #CDCDCD",
"p. c #CECECE",
"a. c gray81",
"s. c #D0CECE",
"d. c #D0CFCF",
"f. c gray82",
"g. c #D2D1D1",
"h. c #D1D2D2",
"j. c #D2D2D2",
"k. c #D3D2D2",
"l. c #D4D3D3",
"z. c #D5D5D5",
"x. c #D9D6D6",
"c. c #D9D8D8",
"v. c gray85",
"b. c #DADADA",
"n. c #DCDBDB",
"m. c #DDDBDB",
"M. c #DEDCDC",
"N. c #DEDDDD",
"B. c #E0DDDD",
"V. c #E0DEDE",
"C. c #E1DFDF",
"Z. c #CAD6EA",
"A. c #CBD9EE",
"S. c #D3DBE8",
"D. c #D3DCE8",
"F. c #E1E1E1",
"G. c #E2E0E0",
"H. c #E2E1E1",
"J. c #E3E1E1",
"K. c gray89",
"L. c #E4E3E3",
"P. c #E4E4E4",
"I. c #E5E4E4",
"U. c gray90",
"Y. c #E7E7E7",
"T. c #E8E7E7",
"R. c #E7E7E8",
"E. c gray91",
"W. c #E9E8E8",
"Q. c #E9E9E9",
"!. c #EAE9E9",
"~. c #EAEAEA",
"^. c #EBEAEA",
"/. c #EAEBEB",
"(. c gray92",
"). c #ECEAEA",
"_. c #ECEBEB",
"`. c #EDEBEB",
"'. c #ECECEC",
"]. c #EDECEC",
"[. c gray93",
"{. c #EFEDED",
"}. c #EEEEEE",
"|. c #EFEEEE",
" X c #EFEFEF",
".X c #F5EFE6",
"XX c #F0EFEF",
"oX c #F1EFEF",
"OX c #F6F0E7",
"+X c #F7F2E9",
"@X c #FAF5EC",
"#X c #FCF5EC",
"$X c #FFF8EF",
"%X c gray94",
"&X c #F1F0F0",
"*X c #F1F1F1",
"=X c #F2F1F1",
"-X c gray95",
";X c #F3F2F2",
":X c #F3F3F3",
">X c #F4F2F2",
",X c #F4F3F3",
"<X c #F5F3F3",
"1X c #F4F4F4",
"2X c #F5F4F4",
"3X c gray96",
"4X c #F6F5F5",
"5X c #F7F5F5",
"6X c #F6F6F6",
"7X c #F7F6F6",
"8X c gray97",
"9X c #F8F6F6",
"0X c #F9F7F6",
"qX c #F9F7F7",
"wX c #FFF9F0",
"eX c #FFF9F1",
"rX c FloralWhite",
"tX c #FFFDF3",
"yX c #FFFFF3",
"uX c #FFFDF4",
"iX c #FFFFF7",
"pX c #F8F8F8",
"aX c #F9F8F8",
"sX c #F9F9F9",
"dX c #FAF9F9",
"fX c gray98",
"gX c #FBFAFA",
"hX c #FBFBFB",
"jX c #FCFBFB",
"kX c #FFFFF8",
"lX c #FFFFF9",
"zX c #FFFFFA",
"xX c gray99",
"cX c #FDFCFC",
"vX c #FCFDFD",
"bX c #FDFDFD",
"nX c #FEFDFD",
"mX c #FEFEFE",
"MX c #FFFEFE",
"NX c gray100",
"BX c None",
/* pixels */
"BXBXBXBXBXBXBXBXBXBXBXBXBXBXBXBXBXBXBXBXBXBXBXBXBXBXBXBXBXBXBXBX",
"BXBXBXNXNXNXNXNXNXNXNXNXNXNXNXNXNXNXNXNXNXNXNXNXNXNXNXNXBXBXBXBX",
"BXBXBXNXg.XX<X4X4X4X8X$X$XwXwXwXwXwXwXqXqXqXqX4X4X<X{.NXBXBXBXBX",
"BXBXBXNXx {.( ( / / _ 0 0 5 4 0 4 0 4 } ` ` ` ` { ( 4XNXBXBXBXBX",
"BXBXBXNX-XaX9.NXaXaXzX0 5.3.1.1.1.5.e S.Z.Z.Z.Z.A.{ 4XNXBXBXBXBX",
"BXBXBXNX-XqX;.uXtXuXuX0 5.1.1.1.1.5.r D.Z.Z.Z.Z.A.{ aXNXBXBXBXBX",
"BXBXBXNXF.uX4 4 0 0 0 u 0 0 4 0 0 0 y } ( ` ( / {  .xXNXBXBXBXBX",
"BXBXBXNXj #X8 5.3.3.5.0 uXzXzXNXzXNX# NXNXNXNXNXNX~ aXNXBXBXBXBX",
"BXBXBXNX-XzX4 3.<.<.3.8 zXaXxXaXaXNX% NXaXaXaXaXNX! aXNXBXBXBXBX",
"BXBXBXNX4XuX4 5.1.1.5.8 NXNXNXNXNXNX& NXNXNXNXNXNX! aXNXBXBXBXBX",
"BXBXBXNX-XzX4 0 0 0 0 y o O O O + @ $ . X.! ! ! ~  .NXNXBXBXBXBX",
"BXBXBXNXp 1X:.@XOX.X+X>.NXNXNXNXNXNXX   NXNXNXNXNX! NXNXBXBXBXBX",
"BXBXBXNX(.NX-.{.).T./.,.NXxXaX#.m j S F.NXaXaXaXxX! NXNXBXBXBXBX",
"BXBXBXNX4XNX-.-X{.).{.9.NXNXS b m S < S  .NXNXNXNX! NXNXBXBXBXBX",
"BXBXBXNXY.NX9.9.,.,.9.r.9.S p p p p p p < L -.-.-.9.aXNXBXBXBXBX",
"BXBXBXNXj 4X9.-X{.(.{.,.NXl m m m S p G S S NXaXNXT aXNXBXBXBXBX",
"BXBXBXNX%XNX,.{.(.Y.(.,.NXd m m m V p S S S b.<X4XT 4XNXBXBXBXBX",
"BXBXBXNX4XNX,.%X(.(.(.9.NXS C m m S 3 F F G y.<X4XT {.NXBXBXBXBX",
"BXBXBXNX-XNX9.g.i.y.t.r.-.L < i 3 < 3 < < < F  . .I Y.NXBXBXBXBX",
"BXBXBXaXd 4X,.%X(.(.{.9.NXNX~ x m m : m m m q.F.Y.m g.v.BXBXBXBX",
"BXBXBXNX(.NX,.{.Y.Y.(.-.aX4XsXh.! G , o.; , -.t.g.#.-XBXBXBXBXBX",
"BXBXBXNXsXaX,.%X(.(.(.-.NXaX4X%XY.i.NXNXNXNXNXNXxXV.BXBXBXBXBXBX",
"BXBXBXNX(.NX9.g.i.t.t.r.$.#.o. .T d NXaX4X-X).V.i.BXBXBXBXBXBXBX",
"BXBXBXNXs %X,.%X(.(.(.-.NX4X-XR.z.( NX4X-X(.F.x.BXBXBXBXBXBXBXBX",
"BXBXBXNX{.NX9.{.T.T.(.-.4X%X(.F.k.d NX<X).J.b.BXBXBXBXBXBXBXBXBX",
"BXBXBXNX4XaX,.%X(.(.(.-.NX4X{.Y.U * NX{.J.F.BXBXBXBXBXBXBXBXBXBX",
"BXBXBXNX{.jXu.,.9.9.-.r.#.O.G > = - NXV.J.BXBXBXBXBXBXBXBXBXBXBX",
"BXBXBXNXp XXv.NXaXaXjXv.aXg.I ,.s.#.NXV.BXBXBXBXBXBXBXBXBXBXBXBX",
"BXBXBXNX(.aX{.4X4XqX4X).-X(.{.N.r.i.).BXBXBXBXBXBXBXBXBXBXBXBXBX",
"BXBXBXNX4X4X4X4X4X4X4X-XXX(.Y.v.q.-XBXBXBXBXBXBXBXBXBXBXBXBXBXBX",
"BXBXBXNXNXNXNXNXNXNXNXNXNXNXNXaXs.BXBXBXBXBXBXBXBXBXBXBXBXBXBXBX",
"BXBXBXBXBXBXBXBXBXBXBXBXBXBXBXBXBXBXBXBXBXBXBXBXBXBXBXBXBXBXBXBX"
};
