/* XPM */
static char *filter_xpm[] = {
/* columns rows colors chars-per-pixel */
"48 48 166 2 ",
"   c black",
".  c #010101",
"X  c #020202",
"o  c gray3",
"O  c gray4",
"+  c gray5",
"@  c #0E0E0E",
"#  c #101010",
"$  c #111111",
"%  c gray9",
"&  c #1B1B1B",
"*  c gray11",
"=  c gray12",
"-  c #222222",
";  c #232323",
":  c gray14",
">  c #272727",
",  c gray17",
"<  c #2C2C2C",
"1  c #2F2F2F",
"2  c gray19",
"3  c gray23",
"4  c #414141",
"5  c gray28",
"6  c #494949",
"7  c #4E4E4E",
"8  c gray31",
"9  c #505050",
"0  c gray32",
"q  c #535353",
"w  c gray33",
"e  c #565656",
"r  c gray34",
"t  c gray35",
"y  c #5A5A5A",
"u  c #5B5B5B",
"i  c gray36",
"p  c #5D5D5D",
"a  c #5F5F5F",
"s  c #606060",
"d  c #626262",
"f  c gray39",
"g  c #646464",
"h  c #656565",
"j  c gray40",
"k  c #686868",
"l  c DimGray",
"z  c #6A6A6A",
"x  c gray42",
"c  c #6C6C6C",
"v  c #6D6D6D",
"b  c gray43",
"n  c #6F6F6F",
"m  c gray44",
"M  c #747474",
"N  c #777777",
"B  c gray47",
"V  c #797979",
"C  c gray48",
"Z  c #7B7B7B",
"A  c gray49",
"S  c #7E7E7E",
"D  c gray50",
"F  c #808080",
"G  c #818181",
"H  c gray51",
"J  c #838383",
"K  c #848484",
"L  c #868686",
"P  c #888888",
"I  c #898989",
"U  c gray54",
"Y  c #8B8B8B",
"T  c gray55",
"R  c #8D8D8D",
"E  c #8E8E8E",
"W  c #909090",
"Q  c #929292",
"!  c #939393",
"~  c #959595",
"^  c #979797",
"/  c #989898",
"(  c #9A9A9A",
")  c gray61",
"_  c #9D9D9D",
"`  c gray62",
"'  c #9F9F9F",
"]  c #A2A2A2",
"[  c #A4A4A4",
"{  c gray65",
"}  c #A7A7A7",
"|  c #A9A9A9",
" . c #AAAAAA",
".. c gray67",
"X. c #ACACAC",
"o. c #AEAEAE",
"O. c #AFAFAF",
"+. c #B1B1B1",
"@. c #B2B2B2",
"#. c gray70",
"$. c #B6B6B6",
"%. c #B7B7B7",
"&. c gray72",
"*. c gray73",
"=. c #BBBBBB",
"-. c gray74",
";. c gray",
":. c gray75",
">. c #C0C0C0",
",. c #C1C1C1",
"<. c gray76",
"1. c #C3C3C3",
"2. c #C5C5C5",
"3. c #C6C6C6",
"4. c gray78",
"5. c #C8C8C8",
"6. c gray79",
"7. c #CACACA",
"8. c gray80",
"9. c #CDCDCD",
"0. c #CECECE",
"q. c gray81",
"w. c #D0D0D0",
"e. c gray82",
"r. c #D2D2D2",
"t. c LightGray",
"y. c gray83",
"u. c #D5D5D5",
"i. c gray84",
"p. c #D7D7D7",
"a. c #D8D8D8",
"s. c gray85",
"d. c #DADADA",
"f. c gray86",
"g. c gainsboro",
"h. c #DDDDDD",
"j. c gray87",
"k. c #DFDFDF",
"l. c gray88",
"z. c #E2E2E2",
"x. c gray89",
"c. c #E4E4E4",
"v. c gray90",
"b. c #E6E6E6",
"n. c #E7E7E7",
"m. c gray91",
"M. c #E9E9E9",
"N. c #EAEAEA",
"B. c gray92",
"V. c #ECECEC",
"C. c gray93",
"Z. c #EEEEEE",
"A. c #EFEFEF",
"S. c gray94",
"D. c #F1F1F1",
"F. c gray95",
"G. c #F3F3F3",
"H. c #F4F4F4",
"J. c gray96",
"K. c #F6F6F6",
"L. c gray97",
"P. c #F8F8F8",
"I. c #F9F9F9",
"U. c gray98",
"Y. c #FBFBFB",
"T. c None",
/* pixels */
"T.T.T.T.T.T.T.T.T.T.T.T.T.T.T.s m H D N B B B B B N m n g g s p T.T.T.T.T.T.T.T.T.T.T.T.T.T.T.T.",
"T.T.T.T.T.T.T.T.T.T.p z U <.s.b.b.k.5.-.-.-.-.-.-.-.-.-.-.-.T.T.T.T.s p e T.T.T.T.T.T.T.T.T.T.T.",
"T.T.T.T.T.T.T.T.g B @.-.-.S.A.N.b.l.5.-.-.-.-.-.-.-.-.-.-.-.T.T.T.T.T.T.T.T.T.q T.T.T.T.T.T.T.T.",
"T.T.T.T.T.T.p ! T.-.-.-.-.s.A.b.s.9.} R H N z p u s z n N U T.T.T.T.T.T.T.T.T.T.T.T.T.T.T.T.T.T.",
"T.T.T.T.T.T.z T.T.-.-.-.-.^ B z e 7 3 : O X X X X X X X X X X O & 1 T.T.T.T.T.T.T.q T.T.T.T.T.T.",
"T.T.T.T.T.T.g ^ T.-.*.7 % X X o ; 2 , ; & O X X X X X X X X X X X X X o ; T.T.T.T.T.T.T.T.T.T.T.",
"T.T.T.T.T.T.T.R D H ; X X X X X X X X X X X X X X X X X X X X X X X X X X + T.p T.T.T.T.T.T.T.T.",
"T.T.T.T.T.T.T.T.T.o.N u 5 , $ X X X X X X X X X X X X X X X X X X $ : 3 5 u T.T.T.T.T.T.T.T.T.T.",
"T.T.T.T.T.T.T.T.T.T.-.-.-.@.R g p g n n z s u q 7 7 q e e e u u s B T.T.T.T.T.T.T.T.T.T.T.T.T.T.",
"T.T.T.T.T.T.T.T.T.T.-.-.-.-.-.<.N.N.A.H.H.A.N.N.l.k.i.3.-.-.T.T.T.T.T.T.T.T.T.T.T.T.T.T.T.T.T.T.",
"T.T.T.T.T.T.T.T.T.T.-.-.-.-.-.-.k.A.H.P.P.P.H.S.A.b.k.3.-.-.-.T.T.T.T.T.T.T.T.T.T.T.T.T.T.T.T.T.",
"T.T.T.T.T.T.T.T.T.T.} -.-.-.-.-.w.A.H.P.Y.P.H.H.N.b.k.<.-.-.-.T.T.T.T.T.T.T.T.T.T.T.T.T.T.T.T.T.",
"T.T.T.T.T.T.T.T.T.T.T.*.-.-.-.-.-.A.P.P.Y.P.H.S.A.b.k.<.-.-.-.T.T.T.T.T.T.T.T.T.T.T.T.T.T.T.T.T.",
"T.T.T.T.T.T.T.T.T.T.T.T.-.-.-.-.-.k.P.Y.P.P.H.S.A.b.k.<.-.-.-.T.T.T.T.T.T.T.T.T.T.T.T.T.T.T.T.T.",
"T.T.T.T.T.T.T.T.T.T.T.T.R -.-.-.-.5.H.P.P.H.H.A.N.b.k.-.-.-.-.T.T.R T.T.T.T.T.T.T.T.T.T.T.T.T.T.",
"T.T.T.T.T.T.T.T.T.T.T.T.T...-.-.-.-.b.P.P.H.S.A.N.N.k.-.-.-.-.T.^ T.T.T.T.T.T.T.T.T.T.T.T.T.T.T.",
"T.T.T.T.T.T.T.T.T.T.T.T.T.T.@.-.-.-.w.S.S.H.S.A.N.b.s.-.-.-.-.} ` T.T.T.T.T.T.T.T.T.T.T.T.T.T.T.",
"T.T.T.T.T.T.T.T.T.T.T.T.T.T.T.$.-.-.<.A.A.A.A.A.N.l.s.-.-.-.@.) T.T.T.T.T.T.T.T.T.T.T.T.T.T.T.T.",
"T.T.T.T.T.T.T.T.T.T.T.T.T.T.T.T.*.-.-.s.A.N.A.N.b.l.i.-.-.*.] o.T.T.T.T.T.T.T.T.T.T.T.T.T.T.T.T.",
"T.T.T.T.T.T.T.T.T.T.T.T.T.T.T.T.T.-.-.3.N.b.b.b.b.k.w.-.-.o.o.T.T.T.T.T.T.T.T.T.T.T.T.T.T.T.T.T.",
"T.T.T.T.T.T.T.T.T.T.T.T.T.T.T.T.T.U -.-.k.l.l.l.k.k.9.-.*...T.T.T.T.T.T.T.T.T.T.T.T.T.T.T.T.T.T.",
"T.T.T.T.T.T.T.T.T.T.T.T.T.T.T.T.T.T.^ -.9.l.k.k.k.s.5.-.o.T.T.T.T.T.T.T.T.T.T.T.T.T.T.T.T.T.T.T.",
"T.T.T.T.T.T.T.T.T.T.T.T.T.T.T.T.T.T.T.` <.s.s.k.i.i.3.*.! T.T.T.T.T.T.T.T.T.T.T.T.T.T.T.T.T.T.T.",
"T.T.T.T.T.T.T.T.T.T.T.T.T.T.T.T.T.T.T.T.o.w.i.i.i.9.<.` T.T.T.T.T.T.T.T.T.T.T.T.T.T.T.T.T.T.T.T.",
"T.T.T.T.T.T.T.T.T.T.T.T.T.T.T.T.T.T.T.T.] 9.A.i.<.$.@.L T.T.T.T.T.T.T.T.T.T.T.T.T.T.T.T.T.T.T.T.",
"T.T.T.T.T.T.T.T.T.T.T.T.T.T.T.T.T.T.T.T.` i.S.N.k.9.-.L T.T.T.T.T.T.T.T.T.T.T.T.T.T.T.T.T.T.T.T.",
"T.T.T.T.T.T.T.T.T.T.T.T.T.T.T.T.T.T.T.T.` w.H.A.k.9.-.U T.T.T.T.T.T.T.T.T.T.T.T.T.T.T.T.T.T.T.T.",
"T.T.T.T.T.T.T.T.T.T.T.T.T.T.T.T.T.T.T.T.` i.H.A.k.9.-.U T.T.T.T.T.T.T.T.T.T.T.T.T.T.T.T.T.T.T.T.",
"T.T.T.T.T.T.T.T.T.T.T.T.T.T.T.T.T.T.T.T.) w.H.N.k.9.-.U T.T.T.T.T.T.T.T.T.T.T.T.T.T.T.T.T.T.T.T.",
"T.T.T.T.T.T.T.T.T.T.T.T.T.T.T.T.T.T.T.T.) w.H.A.k.9.-.U T.T.T.T.T.T.T.T.T.T.T.T.T.T.T.T.T.T.T.T.",
"T.T.T.T.T.T.T.T.T.T.T.T.T.T.T.T.T.T.T.T.! w.H.N.k.5.-.U T.T.T.T.T.T.T.T.T.T.T.T.T.T.T.T.T.T.T.T.",
"T.T.T.T.T.T.T.T.T.T.T.T.T.T.T.T.T.T.T.T.! i.H.N.k.9.-.U T.T.T.T.T.T.T.T.T.T.T.T.T.T.T.T.T.T.T.T.",
"T.T.T.T.T.T.T.T.T.T.T.T.T.T.T.T.T.T.T.T.R i.H.N.k.9.-.R T.T.T.T.T.T.T.T.T.T.T.T.T.T.T.T.T.T.T.T.",
"T.T.T.T.T.T.T.T.T.T.T.T.T.T.T.T.T.T.T.T.U w.H.N.k.5.-.U T.T.T.T.T.T.T.T.T.T.T.T.T.T.T.T.T.T.T.T.",
"T.T.T.T.T.T.T.T.T.T.T.T.T.T.T.T.T.T.T.T.U i.H.A.k.5.-.R T.T.T.T.T.T.T.T.T.T.T.T.T.T.T.T.T.T.T.T.",
"T.T.T.T.T.T.T.T.T.T.T.T.T.T.T.T.T.T.T.T.L w.H.N.k.9.-.U T.T.T.T.T.T.T.T.T.T.T.T.T.T.T.T.T.T.T.T.",
"T.T.T.T.T.T.T.T.T.T.T.T.T.T.T.T.T.T.T.T.L w.H.N.k.5.-.R T.T.T.T.T.T.T.T.T.T.T.T.T.T.T.T.T.T.T.T.",
"T.T.T.T.T.T.T.T.T.T.T.T.T.T.T.T.T.T.T.T.H i.H.N.k.9.-.R T.T.T.T.T.T.T.T.T.T.T.T.T.T.T.T.T.T.T.T.",
"T.T.T.T.T.T.T.T.T.T.T.T.T.T.T.T.T.T.T.T.H w.H.A.k.5.-.R T.T.T.T.T.T.T.T.T.T.T.T.T.T.T.T.T.T.T.T.",
"T.T.T.T.T.T.T.T.T.T.T.T.T.T.T.T.T.T.T.T.D i.S.A.s.9.-.R T.T.T.T.T.T.T.T.T.T.T.T.T.T.T.T.T.T.T.T.",
"T.T.T.T.T.T.T.T.T.T.T.T.T.T.T.T.T.T.T.T.D w.H.N.k.5.-.R T.T.T.T.T.T.T.T.T.T.T.T.T.T.T.T.T.T.T.T.",
"T.T.T.T.T.T.T.T.T.T.T.T.T.T.T.T.T.T.T.T.D w.H.N.k.9.-.R T.T.T.T.T.T.T.T.T.T.T.T.T.T.T.T.T.T.T.T.",
"T.T.T.T.T.T.T.T.T.T.T.T.T.T.T.T.T.T.T.T.D w.H.A.k.5.-.R T.T.T.T.T.T.T.T.T.T.T.T.T.T.T.T.T.T.T.T.",
"T.T.T.T.T.T.T.T.T.T.T.T.T.T.T.T.T.T.T.T.B w.H.A.k.9.-.R T.T.T.T.T.T.T.T.T.T.T.T.T.T.T.T.T.T.T.T.",
"T.T.T.T.T.T.T.T.T.T.T.T.T.T.T.T.T.T.T.T.g o.b.k.5.} R u T.T.T.T.T.T.T.T.T.T.T.T.T.T.T.T.T.T.T.T.",
"T.T.T.T.T.T.T.T.T.T.T.T.T.T.T.T.T.T.T.T.T.X X X X X X X T.T.T.T.T.T.T.T.T.T.T.T.T.T.T.T.T.T.T.T.",
"T.T.T.T.T.T.T.T.T.T.T.T.T.T.T.T.T.T.T.T.T.T.T.T.T.T.T.T.T.T.T.T.T.T.T.T.T.T.T.T.T.T.T.T.T.T.T.T.",
"T.T.T.T.T.T.T.T.T.T.T.T.T.T.T.T.T.T.T.T.T.T.T.T.T.T.T.T.T.T.T.T.T.T.T.T.T.T.T.T.T.T.T.T.T.T.T.T."
};
