/* XPM */
static char *filter_xpm[] = {
/* columns rows colors chars-per-pixel */
"24 24 100 2 ",
"   c #060606",
".  c #070707",
"X  c #080808",
"o  c #0A0A0A",
"O  c #0C0C0C",
"+  c #0D0D0D",
"@  c #151515",
"#  c #191919",
"$  c #232323",
"%  c #2B2B2B",
"&  c #323232",
"*  c #444444",
"=  c #4C4C4C",
"-  c #4F4F4F",
";  c #505050",
":  c #686868",
">  c #6E6E6E",
",  c #717171",
"<  c #757575",
"1  c #7D7D7D",
"2  c #7E7E7E",
"3  c #808080",
"4  c #838383",
"5  c #848484",
"6  c #868686",
"7  c #8C8C8C",
"8  c #8E8E8E",
"9  c #8F8F8F",
"0  c #949494",
"q  c #959595",
"w  c #969696",
"e  c #979797",
"r  c #989898",
"t  c #9C9C9C",
"y  c #A0A0A0",
"u  c #A1A1A1",
"i  c #A3A3A3",
"p  c #A4A4A4",
"a  c #A6A6A6",
"s  c #A7A7A7",
"d  c #A8A8A8",
"f  c #A9A9A9",
"g  c #AAAAAA",
"h  c #ABABAB",
"j  c #ADADAD",
"k  c #AFAFAF",
"l  c #B0B0B0",
"z  c #B1B1B1",
"x  c #B2B2B2",
"c  c #B3B3B3",
"v  c #B4B4B4",
"b  c #B6B6B6",
"n  c #B7B7B7",
"m  c #B8B8B8",
"M  c #B9B9B9",
"N  c #BABABA",
"B  c #BBBBBB",
"V  c #BCBCBC",
"C  c #BDBDBD",
"Z  c #BEBEBE",
"A  c #BFBFBF",
"S  c #C1C1C1",
"D  c #C2C2C2",
"F  c #C3C3C3",
"G  c #C6C6C6",
"H  c #C7C7C7",
"J  c #CACACA",
"K  c #CBCBCB",
"L  c #CCCCCC",
"P  c #CDCDCD",
"I  c #CECECE",
"U  c #CFCFCF",
"Y  c #D1D1D1",
"T  c #D2D2D2",
"R  c #D4D4D4",
"E  c #D5D5D5",
"W  c #D6D6D6",
"Q  c #D7D7D7",
"!  c #D9D9D9",
"~  c #DCDCDC",
"^  c #DFDFDF",
"/  c #E1E1E1",
"(  c #E2E2E2",
")  c #E3E3E3",
"_  c #E6E6E6",
"`  c #E7E7E7",
"'  c #E8E8E8",
"]  c #E9E9E9",
"[  c #EAEAEA",
"{  c #ECECEC",
"}  c #EDEDED",
"|  c #EEEEEE",
" . c #F1F1F1",
".. c #F3F3F3",
"X. c #F5F5F5",
"o. c #F7F7F7",
"O. c #F8F8F8",
"+. c #F9F9F9",
"@. c #FBFBFB",
"#. c None",
/* pixels */
"#.#.#.#.#.#.#.Z Z d a i i t 0 #.#.#.#.#.#.#.#.#.",
"#.#.#.#.0 c U ^ U a 8 4 1 1 6 #.#.#.#.#.#.#.#.#.",
"#.#.#.#.c 4 ; * * & @     o o + @ $ #.#.#.#.#.#.",
"#.#.#.#.0 = $ + o + o         o + # % #.#.#.#.#.",
"#.#.#.#.#.c d 8 0 a i 0 7 1 , > < #.#.#.#.#.#.#.",
"#.#.#.#.#.v Z F ` +.+.X.{ W F #.#.#.#.#.#.#.#.#.",
"#.#.#.#.#.#.m Z W +.+. .[ Y Z #.#.#.#.#.#.#.#.#.",
"#.#.#.#.#.#.#.m H { X. .[ Y Z m #.#.#.#.#.#.#.#.",
"#.#.#.#.#.#.#.j Z ^  .{ ` U m j #.#.#.#.#.#.#.#.",
"#.#.#.#.#.#.#.#.c H ` [ / U v #.#.#.#.#.#.#.#.#.",
"#.#.#.#.#.#.#.#.#.m ! / ^ H d #.#.#.#.#.#.#.#.#.",
"#.#.#.#.#.#.#.#.#.#.H ! Y m #.#.#.#.#.#.#.#.#.#.",
"#.#.#.#.#.#.#.#.#.#.F ` U a #.#.#.#.#.#.#.#.#.#.",
"#.#.#.#.#.#.#.#.#.#.F { W d #.#.#.#.#.#.#.#.#.#.",
"#.#.#.#.#.#.#.#.#.#.F [ ! d #.#.#.#.#.#.#.#.#.#.",
"#.#.#.#.#.#.#.#.#.#.Z { W d #.#.#.#.#.#.#.#.#.#.",
"#.#.#.#.#.#.#.#.#.#.Z { W d #.#.#.#.#.#.#.#.#.#.",
"#.#.#.#.#.#.#.#.#.#.m { ! d #.#.#.#.#.#.#.#.#.#.",
"#.#.#.#.#.#.#.#.#.#.m { W d #.#.#.#.#.#.#.#.#.#.",
"#.#.#.#.#.#.#.#.#.#.m { W d #.#.#.#.#.#.#.#.#.#.",
"#.#.#.#.#.#.#.#.#.#.v { ! d #.#.#.#.#.#.#.#.#.#.",
"#.#.#.#.#.#.#.#.#.#.v { W d #.#.#.#.#.#.#.#.#.#.",
"#.#.#.#.#.#.#.#.#.#.: 0 1 = #.#.#.#.#.#.#.#.#.#.",
"#.#.#.#.#.#.#.#.#.#.#.#.#.#.#.#.#.#.#.#.#.#.#.#."
};
