/* XPM */
static char *folder_xpm[] = {
/* columns rows colors chars-per-pixel */
"24 24 187 2 ",
"   c #32382A",
".  c #33392B",
"X  c #414935",
"o  c #414936",
"O  c #424A36",
"+  c #424B36",
"@  c #434B36",
"#  c #535C45",
"$  c #5D674D",
"%  c #5B694D",
"&  c #5F6D51",
"*  c #616E53",
"=  c #607052",
"-  c #617253",
";  c #637155",
":  c #647155",
">  c #647355",
",  c #647256",
"<  c #657357",
"1  c #627455",
"2  c #637455",
"3  c #637556",
"4  c #637657",
"5  c #657457",
"6  c #657559",
"7  c #677659",
"8  c #68755A",
"9  c #68775B",
"0  c #68795A",
"q  c #697A5A",
"w  c #6C795E",
"e  c #6A7C5C",
"r  c #6F7C5F",
"t  c #6D7E5F",
"y  c #6F8061",
"u  c #6F8161",
"i  c #708061",
"p  c #718261",
"a  c #718162",
"s  c #748266",
"d  c #748664",
"f  c #758764",
"g  c #758666",
"h  c #768A65",
"j  c #778966",
"k  c #768867",
"l  c #778B66",
"z  c #788C66",
"x  c #798569",
"c  c #7A866C",
"v  c #778B68",
"b  c #7A8D69",
"n  c #7B8F69",
"m  c #798C6B",
"M  c #7A8D6A",
"N  c #7C8D6B",
"B  c #7A8D6C",
"V  c #7A8E6D",
"C  c #7B8E6D",
"Z  c #7B8F6D",
"A  c #7B8E6E",
"S  c #80926F",
"D  c #84946C",
"F  c #818D72",
"G  c #808D73",
"H  c #849373",
"J  c #849673",
"K  c #849076",
"L  c #859277",
"P  c #869675",
"I  c #869576",
"U  c #879676",
"Y  c #879776",
"T  c #879677",
"R  c #869974",
"E  c #879975",
"W  c #899A71",
"Q  c #899977",
"!  c #889B76",
"~  c #869378",
"^  c #879379",
"/  c #859578",
"(  c #869478",
")  c #879478",
"_  c #879578",
"`  c #8A9A79",
"'  c #8A997A",
"]  c #8A9B7A",
"[  c #8B9B7B",
"{  c #8C9C7C",
"}  c #8D9D7D",
"|  c #8E9E7E",
" . c #8E9E7F",
".. c #8F9E7F",
"X. c #8E9F7F",
"o. c #90A376",
"O. c #91A377",
"+. c #92A478",
"@. c #93A579",
"#. c #94A67B",
"$. c #95A67C",
"%. c #95A67D",
"&. c #96A77D",
"*. c #96A77E",
"=. c #97A87E",
"-. c #97A97E",
";. c #97A97F",
":. c #8F9F80",
">. c #909F80",
",. c #9DAB8B",
"<. c #A3B789",
"1. c #A3B78A",
"2. c #A4B78A",
"3. c #A4B78B",
"4. c #A4B889",
"5. c #A4B88B",
"6. c #A4B98C",
"7. c #A7BB8E",
"8. c #A7BA90",
"9. c #A9BA92",
"0. c #AABD91",
"q. c #AABE91",
"w. c #AABD92",
"e. c #ABBD92",
"r. c #AABE92",
"t. c #AABB95",
"y. c #ABBF94",
"u. c #ABBF95",
"i. c #ADBE95",
"p. c #AEBE96",
"a. c #AEBF96",
"s. c #AEBE97",
"d. c #AEBF97",
"f. c #AFBF97",
"g. c #ADBD98",
"h. c #ACBD99",
"j. c #ADBD99",
"k. c #AEBD99",
"l. c #AEBE9A",
"z. c #ACC096",
"x. c #AFC297",
"c. c #AEC098",
"v. c #AFC098",
"b. c #AFC29A",
"n. c #B0C099",
"m. c #B0C199",
"M. c #B0C19A",
"N. c #B1C29A",
"B. c #B1C39B",
"V. c #B2C49B",
"C. c #B1C39C",
"Z. c #B2C29C",
"A. c #B2C29D",
"S. c #B2C49C",
"D. c #B2C49D",
"F. c #B2C59D",
"G. c #B2C49E",
"H. c #B3C49E",
"J. c #B3C59E",
"K. c #B3C49F",
"L. c #B3C69E",
"P. c #B3C79F",
"I. c #B4C59F",
"U. c #B4C79F",
"Y. c #B4C5A0",
"T. c #B4C5A1",
"R. c #B6C6A1",
"E. c #B6C5A2",
"W. c #B6C6A2",
"Q. c #B6C7A2",
"!. c #B7C7A2",
"~. c #B8C7A4",
"^. c #B4C8A1",
"/. c #B7C9A2",
"(. c #B6C9A3",
"). c #B7C9A3",
"_. c #B8CAA5",
"`. c #BAC9A7",
"'. c #B8CBA7",
"]. c #BACAA7",
"[. c #BACCA6",
"{. c #BCCAAA",
"}. c #BDCBAB",
"|. c #BBCEA9",
" X c #BFCCAC",
".X c #BFCCAE",
"XX c None",
/* pixels */
"XXXXXXXXXXXXXXXXXXXXXXXXXXXXXXXXXXXXXXXXXXXXXXXX",
"XXXXXXXXXXXXXXXXXXXXXXXXXXXXXXXXXXXXXXXXXXXXXXXX",
"XXXXXXXXXXXXXXXXXXXXXXXXXXXXXXXXXXXXXXXXXXXXXXXX",
"XXXXe u u u u u p t 4 XXXXXXXXXXXXXXXXXXXXXXXXXX",
"XXXXS ! R ! R R R J v 0 XXXXXXXXXXXXXXXXXXXXXXXX",
"XXXXN n z z z z k k n n A A Z A A B A n n p XXXX",
"XXXXk k f f f p q 4 = ; 4 3 4 4 ; 4 1 3 5 7 % XX",
"XXXXw 7 < < ; & 9 Q >.>.} } } } :.:.] ] ] Q k XX",
"XX* 7 ; < ; < s ,.d.n.n.n.n.f.f.d.d.d.d.i.n.) XX",
"XXH f.d.g.f.g.w.8.3.<.3.<.3.3.3.<.3.3.3.<.i.! XX",
"XXI w.6.<.3.6.6.<.<.<.<.<.<.<.<.<.<.6.6.<.w.I XX",
"XXI y.3.6.6.6.6.6.6.6.6.6.6.6.6.6.6.6.6.<.w.I XX",
"XX) z.7.7.7.7.7.7.7.7.7.6.6.7.7.7.7.7.7.7.z.I XX",
"XX) F.w.w.w.w.w.w.w.w.w.d.w.w.d.w.w.w.w.w.F.) XX",
"XXI U.z.z.z.z.z.z.z.z.z.z.z.z.z.z.z.z.z.z.U.) XX",
"XX) /.b.b.b.b.b.b.B.b.b.b.b.b.b.b.b.b.b.b./.) XX",
"XX^ [.F.F.F.F.F.H.K.K.F.F.F.Z.F.F.F.F.^.F.).K XX",
"XXL |.^.^.^.^.^.^.^./.F.^./.^.^.^./.^.^.^.[.G XX",
"XXF ).N.Z.Z.F.K.^.Y.^.)./.^.^.Y.F.Z.Z.Z.N.^.c XX",
"XXx b.d.Z.Z.Y.^.~.].}..X}.{.`.~.^.Y.Z.N.d.9.r XX",
"XX$ W O.O.+.@.@.%.&.&.-.-.%.%.%.@.@.+.O.O.S # XX",
"XX. O @ O O @ @ O O @ @ O O O O @ O O @ O X   XX",
"XXXXXXXXXXXXXXXXXXXXXXXXXXXXXXXXXXXXXXXXXXXXXXXX",
"XXXXXXXXXXXXXXXXXXXXXXXXXXXXXXXXXXXXXXXXXXXXXXXX"
};
