/* XPM */
static char *folder_xpm[] = {
/* columns rows colors chars-per-pixel */
"32 32 181 2 ",
"   c #21241C",
".  c #3B4232",
"X  c #3E4533",
"o  c #3D4434",
"O  c #3F4634",
"+  c #434C36",
"@  c #434E38",
"#  c #444C38",
"$  c #444E3A",
"%  c #46513B",
"&  c #4A543E",
"*  c #4C5640",
"=  c #4E5941",
"-  c #4D5A42",
";  c #4F5C44",
":  c #535E46",
">  c #546248",
",  c #556248",
"<  c #566349",
"1  c #576549",
"2  c #57654B",
"3  c #59634B",
"4  c #5A664C",
"5  c #58684C",
"6  c #59684C",
"7  c #59694D",
"8  c #5A684C",
"9  c #5A684E",
"0  c #5A6A4E",
"q  c #5D6C4E",
"w  c #5E6A50",
"e  c #5E6C50",
"r  c #5C6E50",
"t  c #5D6E50",
"y  c #5E6F51",
"u  c #5E6E52",
"i  c #5E7151",
"p  c #5F7052",
"a  c #616F51",
"s  c #616D53",
"d  c #617052",
"f  c #607153",
"g  c #637155",
"h  c #617254",
"j  c #637456",
"k  c #677658",
"l  c #6C7959",
"z  c #6D7A5E",
"x  c #6C7E5E",
"c  c #6E7961",
"v  c #6F7E60",
"b  c #6F7E64",
"n  c #708060",
"m  c #728561",
"M  c #748664",
"N  c #758864",
"B  c #768965",
"V  c #778B65",
"C  c #788C66",
"Z  c #798D67",
"A  c #778668",
"S  c #788B6B",
"D  c #7A8E68",
"F  c #7C8F69",
"G  c #80966E",
"H  c #809070",
"J  c #859674",
"K  c #849973",
"L  c #849874",
"P  c #8A9975",
"I  c #889C78",
"U  c #8B9D79",
"Y  c #899E7A",
"T  c #8A9E7C",
"R  c #8D9F7F",
"E  c #8AA07C",
"W  c #8BA17D",
"Q  c #8CA07C",
"!  c #91A674",
"~  c #92A775",
"^  c #93A876",
"/  c #94A977",
"(  c #94A878",
")  c #95AA78",
"_  c #919E82",
"`  c #92A181",
"'  c #93A581",
"]  c #91A680",
"[  c #94A482",
"{  c #95A583",
"}  c #A0B08A",
"|  c #A3B789",
" . c #A4B78B",
".. c #A4B989",
"X. c #A4B98D",
"o. c #A7BB8D",
"O. c #A5B88E",
"+. c #A7B88E",
"@. c #A8B98F",
"#. c #A8BA8E",
"$. c #A9BB8F",
"%. c #A7B795",
"&. c #A9BA90",
"*. c #A9BD91",
"=. c #ABBC92",
"-. c #ABBE94",
";. c #ACBC94",
":. c #ADBD95",
">. c #ADBF97",
",. c #AEBE96",
"<. c #ACBF99",
"1. c #AEBE98",
"2. c #AFBF99",
"3. c #B1BFA1",
"4. c #ACC197",
"5. c #AFC199",
"6. c #AEC29A",
"7. c #B0C199",
"8. c #B0C29A",
"9. c #B1C49A",
"0. c #B1C29C",
"q. c #B2C29C",
"w. c #B2C39D",
"e. c #B3C39D",
"r. c #B2C49C",
"t. c #B3C49E",
"y. c #B3C79F",
"u. c #B4C49E",
"i. c #B4C59F",
"p. c #B5C59F",
"a. c #B4C2A0",
"s. c #B5C2A2",
"d. c #B3C4A0",
"f. c #B5C4A0",
"g. c #B4C5A1",
"h. c #B5C5A1",
"j. c #B6C5A1",
"k. c #B5C6A2",
"l. c #B6C7A3",
"z. c #B6C5A5",
"x. c #B7C7A5",
"c. c #B8C7A3",
"v. c #B8C6A4",
"b. c #B9C7A5",
"n. c #B9C6A6",
"m. c #B8C7A7",
"M. c #BAC7A7",
"N. c #B5C9A3",
"B. c #B5C8A4",
"V. c #B7C8A4",
"C. c #B9CAA4",
"Z. c #B8C8A6",
"A. c #BAC8A6",
"S. c #BACBA7",
"D. c #B9C7AB",
"F. c #BBC8A8",
"G. c #BAC9A9",
"H. c #BBCBA9",
"J. c #BCC9A9",
"K. c #BDCBA9",
"L. c #BCC8AA",
"P. c #BDCDAB",
"I. c #BFCDAB",
"U. c #BECAAC",
"Y. c #BECBAF",
"T. c #BACCAC",
"R. c #BDCCAC",
"E. c #BFCCAC",
"W. c #BCCFAD",
"Q. c #BECEAC",
"!. c #BFCFAD",
"~. c #BFCEAE",
"^. c #C0CCAE",
"/. c #C1CEAE",
"(. c #C0CFAF",
"). c #C2CDB1",
"_. c #C3CFB1",
"`. c #C1D0B0",
"'. c #C3D1B3",
"]. c #C2D5B3",
"[. c None",
/* pixels */
"[.[.[.[.[.[.[.[.[.[.[.[.[.[.[.[.[.[.[.[.[.[.[.[.[.[.[.[.[.[.[.[.",
"[.[.[.[.[.[.[.[.[.[.[.[.[.[.[.[.[.[.[.[.[.[.[.[.[.[.[.[.[.[.[.[.",
"[.[.[.[.[.[.[.[.[.[.[.[.[.[.[.[.[.[.[.[.[.[.[.[.[.[.[.[.[.[.[.[.",
"[.[.[.[.[.[.[.[.[.[.[.[.[.[.[.[.[.[.[.[.[.[.[.[.[.[.[.[.[.[.[.[.",
"[.[.p p p p p p p p p p p p [.[.[.[.[.[.[.[.[.[.[.[.[.[.[.[.[.[.",
"[.[.p ' ' ' { { ' ' ' ' ` S f [.[.[.[.[.[.[.[.[.[.[.[.[.[.[.[.[.",
"[.[.y U D D D D D D D D D F L j y p r p y y y y p p p r q y [.[.",
"[.[.q U Z Z Z Z Z Z Z C C D F L _ W W W Q Q W E W T U I J q [.[.",
"[.[.8 K B B M B N M m x k g g p f j f g j f g f p g g i n 8 [.[.",
"[.[.2 H n n n n v z g 7 s y p p p p p s p p p f p p p s p p g [.",
"[.[.< c 8 9 8 8 3 < 7 A x./././.H.!.^.Q.H.Q.J.H.Z.M.M.k.f.<.y [.",
"[.w w y q q q w w y _ s.=. .@.X.@.X. .@.@.X.@. .X.X. .@. .f.y [.",
"[.8 u.G.G.G.J.J.G.x.>.X. . . . ... . . . . . . . . . .|  .u.8 [.",
"[.8 r.............| | | | | | |  . .| | | | | | | | | |  .k.8 [.",
"[.2 d.| | | | | | | | | | | | | | | | | | | | | | | | | | k.2 [.",
"[.2 V.X.X.X.X.X.X.X.X.X.X.X.X.X.X.X.X.X.X.X.X.X.X.X.X.X.X.k.2 [.",
"[.< C.o.o.o.o.o.o.o.o.o.o.o.o.o.X.o.o.o.o.o.o.o.o.o.o.o.o.C.> [.",
"[.: H.*.*.*.*.*.*.*.*.*.*.*.*.*.*.*.*.*.*.*.*.*.*.*.*.*.*.H.: [.",
"[.; T.-.-.-.-.-.-.-.-.-.-.-.*.-.-.-.-.-.-.-.-.*.-.-.-.-.4.H.; [.",
"[.- !.4.4.4.4.4.4.4.4.4.4.4.4.4.4.4.4.4.4.4.4.4.4.4.4.4.4.!.- [.",
"[.- /.6.4.4.r.r.6.6.6.6.6.6.6.6.8.6.4.4.4.r.6.6.6.6.4.4.6.Q.- [.",
"[.* ).y.r.r.y.4.y.8.r.r.r.r.r.r.r.r.r.r.y.y.r.r.r.y.y.r.r.Y.* [.",
"[.& '.u.y.y.y.y.y.y.y.y.y.y.y.y.y.y.y.y.y.y.y.y.y.y.y.y.d.T.& [.",
"[.% ].V.N.N.N.N.N.N.V.V.N.N.N.V.V.V.V.N.N.N.N.N.N.V.N.V.V.D.% [.",
"[.% H.8.8.8.8.8.8.8.e.e.e.0.e.r.8.r.e.8.8.r.8.8.6.6.8.8.8.3.$ [.",
"[.+ x.6.e.u.e.k.k.M.M.C.C.Y./.).`.Y.Y.J.C.x.M.k.k.u.u.8.7.%.$ [.",
"[.@ } @.=.>.>.2.8.8.u.k.M.C.Y.^.J.J.M.v.k.u.e.8.>.>.=.@.@.P + [.",
"[.O l ! ! ! ! ^ ^ ( ( ( ~ ( ^ ( ) ^ ( ( ( ( ( ~ ^ ~ ! ! ! 3 . [.",
"[.  O O O O O O O O O O O O O O + + o O O O O O O O O O O O [.[.",
"[.[.[.[.[.[.[.[.[.[.[.[.[.[.[.[.[.[.[.[.[.[.[.[.[.[.[.[.[.[.[.[.",
"[.[.[.[.[.[.[.[.[.[.[.[.[.[.[.[.[.[.[.[.[.[.[.[.[.[.[.[.[.[.[.[.",
"[.[.[.[.[.[.[.[.[.[.[.[.[.[.[.[.[.[.[.[.[.[.[.[.[.[.[.[.[.[.[.[."
};
