/* XPM */
static char *goto_xpm[] = {
/* columns rows colors chars-per-pixel */
"24 24 222 2 ",
"   c #343233",
".  c #383637",
"X  c #3B393A",
"o  c #3C393B",
"O  c #3A3B3D",
"+  c #3C3B3C",
"@  c #3F3D3E",
"#  c #3C1F40",
"$  c #451F4B",
"%  c #413F40",
"&  c #4D2252",
"*  c #4D2253",
"=  c #55205C",
"-  c #5C2962",
";  c #592D61",
":  c #603666",
">  c #623E66",
",  c #693C6F",
"<  c #6E3B76",
"1  c #723F79",
"2  c #743C7D",
"3  c #444243",
"4  c #434244",
"5  c #444544",
"6  c #4B4949",
"7  c #4A4A49",
"8  c #49494A",
"9  c #4A484A",
"0  c #4A4B4A",
"q  c #4C4D4F",
"w  c #524254",
"e  c #534355",
"r  c #515152",
"t  c #525152",
"y  c #535153",
"u  c #515253",
"i  c #525253",
"p  c #535253",
"a  c #535154",
"s  c #525255",
"d  c #555355",
"f  c #545455",
"g  c #565456",
"h  c #575758",
"j  c #56575A",
"k  c #585859",
"l  c #595859",
"z  c #5A5A59",
"x  c #58585A",
"c  c #59585A",
"v  c #5B5B5A",
"b  c #5A5A5C",
"n  c #5A5A5D",
"m  c #5B5B5D",
"M  c #5B5B5E",
"N  c #5C5D5F",
"B  c #5E5D5F",
"V  c #5F605F",
"C  c #5E5E60",
"Z  c #5E5F61",
"A  c #5F5F61",
"S  c #635364",
"D  c #645465",
"F  c #625B62",
"G  c #655D64",
"H  c #6C586E",
"J  c #6D586E",
"K  c #6E4075",
"L  c #6E4A72",
"P  c #6F4B72",
"I  c #704377",
"U  c #76407F",
"Y  c #715274",
"T  c #735A75",
"R  c #606060",
"E  c #606062",
"W  c #616062",
"Q  c #606162",
"!  c #616163",
"~  c #616264",
"^  c #636264",
"/  c #626265",
"(  c #646365",
")  c #636464",
"_  c #646466",
"`  c #656667",
"'  c #686867",
"]  c #666769",
"[  c #676769",
"{  c #67676A",
"}  c #686668",
"|  c #696669",
" . c #696769",
".. c #6A666A",
"X. c #66686A",
"o. c #67686A",
"O. c #696969",
"+. c #69696A",
"@. c #68696B",
"#. c #69696B",
"$. c #6B686B",
"%. c #6C6B6B",
"&. c #696B6C",
"*. c #6D6A6D",
"=. c #6B6C6D",
"-. c #6D6C6C",
";. c #70706F",
":. c #6D6E71",
">. c #716672",
",. c #726772",
"<. c #736475",
"1. c #716B72",
"2. c #786E78",
"3. c #707071",
"4. c #717171",
"5. c #707072",
"6. c #717274",
"7. c #747074",
"8. c #737476",
"9. c #767779",
"0. c #797579",
"q. c #7D767D",
"w. c #7D767E",
"e. c #77787A",
"r. c #7A7A7A",
"t. c #7A7B7B",
"y. c #7A7B7C",
"u. c #7B7C7E",
"i. c #7C7D7C",
"p. c #7D7D7D",
"a. c #7E7C7D",
"s. c #7E7C7E",
"d. c #7B3F86",
"f. c #80488A",
"g. c #8B5396",
"h. c #8B5496",
"j. c #8D5897",
"k. c #8C5598",
"l. c #8D5898",
"z. c #8F589A",
"x. c #84668A",
"c. c #837E83",
"v. c #8E6B95",
"b. c #93619D",
"n. c #9968A4",
"m. c #9F71A9",
"M. c #A174AB",
"N. c #A477AD",
"B. c #808081",
"V. c #858185",
"C. c #878488",
"Z. c #898389",
"A. c #888689",
"S. c #89848A",
"D. c #8A848A",
"F. c #8C868D",
"G. c #8A8B8C",
"H. c #8C8C8C",
"J. c #908D91",
"K. c #938D94",
"L. c #909293",
"P. c #919395",
"I. c #969696",
"U. c #9A9B9B",
"Y. c #9B9B9C",
"T. c #AB85B2",
"R. c #AE8BB4",
"E. c #A2A1A2",
"W. c #A4A3A4",
"Q. c #A4A4A4",
"!. c #A7A9AA",
"~. c #ABABAB",
"^. c #AEAEAE",
"/. c #B1B1B1",
"(. c #B2B2B2",
"). c #B3B3B3",
"_. c #B5B5B5",
"`. c #B7B7B7",
"'. c #B8B8B8",
"]. c #BCBCBC",
"[. c #BDBDBD",
"{. c #C2C2C2",
"}. c #C3C3C3",
"|. c #C4C4C4",
" X c #C5C5C5",
".X c #C6C6C6",
"XX c #C7C7C7",
"oX c #C8C8C8",
"OX c #CFCFCF",
"+X c #D0D0D0",
"@X c #D0D1D1",
"#X c #D4D4D4",
"$X c #D5D5D5",
"%X c #D6D6D6",
"&X c #D8D8D8",
"*X c #DCDCDC",
"=X c #DDDDDE",
"-X c #DEDEDE",
";X c #E6E6E6",
":X c #E8E8E8",
">X c #E9E9E9",
",X c #EBEBEB",
"<X c #EBECEC",
"1X c #EFEFEF",
"2X c #F0F0F0",
"3X c #F1F1F1",
"4X c #F2F2F2",
"5X c #F3F3F3",
"6X c #F4F4F4",
"7X c #F5F5F5",
"8X c #F6F6F6",
"9X c #F7F7F7",
"0X c #F8F8F8",
"qX c #F8F9F9",
"wX c #F9F9F9",
"eX c #FAFAFA",
"rX c #FBFBFB",
"tX c #FCFCFC",
"yX c #FDFDFD",
"uX c #FEFEFE",
"iX c #FFFFFF",
"pX c None",
/* pixels */
"'.oXoXoXoXoXoXoXoXoXoXoXoXoXoXoX'.pXpXpXpXpXpXpX",
"XXtXtXtXtXtXtXtXtXtXtXtXtXtXtXtX%XpXpXpXpXpXpXpX",
"XXqXqXqXtXrXtXtXtXtXtXtXtXtXtXtX%XpXpXpXpXpXpXpX",
"XX9XqXqXqXqXqXtXtXtXtXtXtXtXtXtX%XpXpXpXpXpXpXpX",
"XX9X9X9X9XqXtXtXtXtXtXtXtXtXtXtX&XpXpXpXpXpXpXpX",
"}.9X9X9X9X0XqXqXtXtXtXtXtXtXtXtX&XpXpXpXpXpXpXpX",
"}.9X9X9X9X9XqXqXtXtXtXtXtXtXtXtX&XpXpXpXpXpXpXpX",
"XX5X5X9X9X9X9XqXqXqXtXtXtXtXtXtX&XpXpXpXpXpXpXpX",
"}.9X6X6X9X9X9X5X,X9XqXqXtXtXqX5X+XpXpXpXpXpXpXpX",
"}.5X5X5X5XqX=XG.E E.9XtXtXqXW.E e.pXpXpXpXpXpXpX",
"}.5X5X5X,X/.] 4 s } ;XOXOX:X} f 4 O pXpXpXpXpXpX",
"}.5X5X=XL.j b +.( y U.t.y.Y.s ( +.m q &.pXpXpXpX",
"}.5X,X!.[ b j ] 6.o o Z F + o 4.} j N &.P.pXpXpX",
"}.2XXXy.B E l g B 8   Q _ . 8 B f l F B e.pXpXpX",
"XX+XB.+.G.H.-.3 @ f r 6.8.f g @ 3 %.i.y.` _ pXpX",
"`.I.C.a.V.F.0.8 % s ~ r y ~ y 3 8 0.D.c.i.C.y pX",
"t.4.e # $ * > G 8 [ :.=.=.:.[ 8 G > * $ # e +.pX",
"V D ; f.j.T.- ,.l V [ Q Q [ V l ,.= d.l.R.: S 8 ",
"l T 2 z.n.M.I 2.y g :.].[.4.j y 2.< k.n.N.U T 8 ",
"v J < b.M.g.1 <.;.}.*X1X2X=XXX;.<.I h.m.b.< J 5 ",
"i.1.Y x.v., L q.`.2X5X5X5X9X9X'.q.L , v.x.Y F pX",
"Q.R *.K.K.Z.} ' ^././././././.^.+.} Z.K.K.' pXpX",
"pXpXpXpXpXpXpXpXpXpXpXpXpXpXpXpXpXpXpXpXpXpXpXpX",
"pXpXpXpXpXpXpXpXpXpXpXpXpXpXpXpXpXpXpXpXpXpXpXpX"
};
