/* XPM */
static char *goto_xpm[] = {
/* columns rows colors chars-per-pixel */
"32 32 102 2 ",
"   c #080008",
".  c gray5",
"X  c #100011",
"o  c #18001A",
"O  c gray7",
"+  c #1B1B1B",
"@  c #211E1E",
"#  c #200A23",
"$  c #231F20",
"%  c #2C102E",
"&  c #2D0A30",
"*  c #212121",
"=  c #2D2C2C",
"-  c #312F31",
";  c #353435",
":  c #37373A",
">  c #393738",
",  c #3C3B3C",
"<  c #403E3F",
"1  c #3F3F40",
"2  c #45054C",
"3  c #471A4C",
"4  c #473A49",
"5  c #4F2853",
"6  c #5A265F",
"7  c #562E5A",
"8  c #5A2F5E",
"9  c #5B325E",
"0  c #5A1763",
"q  c #683D6F",
"w  c #6C3C75",
"e  c #72377B",
"r  c #763D7F",
"t  c #434343",
"y  c #454649",
"u  c #4A4A4C",
"i  c #514F4F",
"p  c #4E4E50",
"a  c #544655",
"s  c #514F51",
"d  c #525253",
"f  c #565659",
"g  c #5A5B5B",
"h  c #5E5F61",
"j  c #684A69",
"k  c #605361",
"l  c #68506B",
"z  c #73427C",
"x  c #6C5671",
"c  c #646466",
"v  c #696767",
"b  c #67676A",
"n  c #6B6C6D",
"m  c #6F6F71",
"M  c #717273",
"N  c #767679",
"B  c #787779",
"V  c #76787B",
"C  c #7B7B7C",
"Z  c #763D80",
"A  c #7E4689",
"S  c #80478A",
"D  c #834C8E",
"F  c #864F91",
"G  c #8A5496",
"H  c #8F599B",
"J  c #915D9D",
"K  c #83638B",
"L  c #9D6FA5",
"P  c #A176AB",
"I  c #A67BAF",
"U  c #A97EB2",
"Y  c #838384",
"T  c #87888B",
"R  c #8A8A8B",
"E  c #959394",
"W  c #9B969B",
"Q  c #979898",
"!  c #9C9B9D",
"~  c #A09F9F",
"^  c #A4A4A4",
"/  c #A6A7A8",
"(  c #AAABAB",
")  c #ACAEB1",
"_  c #B1B1B1",
"`  c #BAB7BA",
"'  c #B7B8BA",
"]  c #BBB9BB",
"[  c #CBB1D1",
"{  c #BEC0C1",
"}  c #C4C2C5",
"|  c #CECDCD",
" . c #D7D7D7",
".. c #DADADA",
"X. c #DFD1E2",
"o. c #E1D2E3",
"O. c #E1E1E1",
"+. c #E7E7E8",
"@. c #EFEFEF",
"#. c #F4F4F4",
"$. c #FCFCFC",
"%. c None",
/* pixels */
"_ _ _ _ _ _ _ _ _ _ _ _ _ _ _ _ _ _ _ _ _ _ _ %.%.%.%.%.%.%.%.%.",
"_ $.$.$.$.$.$.$.$.$.$.$.$.$.$.$.$.$.$.$.$.$._ %.%.%.%.%.%.%.%.%.",
"_ #.$.$.$.$.$.$.$.$.$.$.$.$.$.$.$.$.$.$.#.#._ %.%.%.%.%.%.%.%.%.",
"_ $.$.#.#.$.$.$.$.$.$.$.$.$.$.$.$.$.$.$.$.$._ %.%.%.%.%.%.%.%.%.",
"_ #.#.$.#.$.$.$.$.$.$.$.$.$.$.$.$.$.$.$.$.$._ %.%.%.%.%.%.%.%.%.",
"_ #.$.#.$.#.$.#.$.$.$.$.$.$.$.$.$.$.$.$.$.$._ %.%.%.%.%.%.%.%.%.",
"_ #.#.$.#.$.#.$.$.#.$.$.$.$.$.$.$.$.$.$.$.$._ %.%.%.%.%.%.%.%.%.",
"_ #.$.#.#.#.#.$.$.$.$.$.$.$.$.$.$.$.$.$.$.$._ %.%.%.%.%.%.%.%.%.",
"_ #.$.#.#.$.#.#.$.#.$.$.$.$.$.$.$.$.$.$.$.$._ %.%.%.%.%.%.%.%.%.",
"_ #.#.#.#.$.#.$.#.$.#.$.$.$.$.$.$.$.$.$.$.$._ %.%.%.%.%.%.%.%.%.",
"_ #.#.#.#.#.#.#.#.$.$.#.$.#.$.$.$.$.$.$.$.$._ %.%.%.%.%.%.%.%.%.",
"_ #.#.#.#.#.#.$.$.#.#.$.$.$.#.$.$.$.$.$.$.$._ %.%.%.%.%.%.%.%.%.",
"_ #.#.#.#.#.#.#.#...y u ! $.$.$.$.$.$.! u u / %.%.%.%.%.%.%.%.%.",
"_ #.#.#.@.#.#.#.' : M b > ..#.$.$.$..., b M : %.%.%.%.%.%.%.%.%.",
"_ @.#.@.#.@. .d : ; - p t | #.T T $.| t p - ; ; * %.%.%.%.%.%.%.",
"_ @.@.#.+.) 1 h b R C V , m ^ g g ^ m , V C R b h 1 ! %.%.%.%.%.",
"_ @.@.@.{ d C u y f h B ; = d n n i = ; B h f y u C d ) %.%.%.%.",
"_ @.#...) h N g b m M B t * @ h h = @ 4 B M m b h N h ) %.%.%.%.",
"_ @.@.^ g f u c i ; , u f d , T T t d f u < ; i c u f g Y %.%.%.",
"_ @.^ g u ! ! ! C v = 4 s c , T R t v i < = v C K Y Y u g %.%.%.",
"_ O.p ] _ _ _ _ Q $ v > u h b 1 1 c h u : v @ Q _ _ _ _ ' > %.%.",
"( g ^ k   X o % l E + < c b b g g n b c , + Q l % o X   g / = %.",
"g M k # w r r e 2 j C p M M V C C V M M p C j 2 r Z z w # k n + ",
"y E & A D D L o.0 4 Q > h N g t t h M h > Q 4 0 A D L X.A % E * ",
"< E 6 S H J U P r a W = , t g ....g t t = W a Z G J I I S 6 E + ",
"< E 5 A H J J H F a ~ > ( _ ..@.#..._ ( , ~ a F J J J H A 5 E $ ",
"u C 7 z D [ J F e 9 Y m @.@.#.#.@.#.#.#.m Y 8 e F J [ D z 7 B + ",
"~ u ^ 9 x K j 3 9 ^ v @.$.$.$.$.$.$.$.$.#.b ^ 9 3 q K x 9 ^ O %.",
"_ K , R ] } ] ] R > Q ^ ^ ^ ^ ^ ^ ^ ^ ^ ^ ! ; R _ ] } ] R . %.%.",
"%.%.%.%.@ * * + %.%.%.%.%.%.%.%.%.%.%.%.%.%.%.%.* * * * %.%.%.%.",
"%.%.%.%.%.%.%.%.%.%.%.%.%.%.%.%.%.%.%.%.%.%.%.%.%.%.%.%.%.%.%.%.",
"%.%.%.%.%.%.%.%.%.%.%.%.%.%.%.%.%.%.%.%.%.%.%.%.%.%.%.%.%.%.%.%."
};
