/* XPM */
static char *graphicaldasa_xpm[] = {
/* columns rows colors chars-per-pixel */
"36 36 210 2 ",
"   c #060A14",
".  c #090F1E",
"X  c #0B1223",
"o  c #0D152B",
"O  c #0E1831",
"+  c #101C37",
"@  c #121E3C",
"#  c #345612",
"$  c #365A13",
"%  c #3C6315",
"&  c #505E12",
"*  c #416D16",
"=  c #576814",
"-  c #437117",
";  c #467618",
":  c #497B18",
">  c #5B7216",
",  c #627C1A",
"<  c #4A672D",
"1  c #4B692D",
"2  c #556929",
"3  c #587339",
"4  c #142244",
"5  c #16254B",
"6  c #17284F",
"7  c #172951",
"8  c #182952",
"9  c #1B2D5A",
"0  c #1D305F",
"q  c #1E3265",
"w  c #1F3469",
"e  c #20356A",
"r  c #2A3D6E",
"t  c #304372",
"y  c #5B7642",
"u  c #4B536B",
"i  c #C0424B",
"p  c #C34C54",
"a  c #C55159",
"s  c #C95B64",
"d  c #C7656E",
"f  c #CC656C",
"g  c #CD6970",
"h  c #CF7177",
"j  c #CF7379",
"k  c #4E841A",
"l  c #528B1B",
"z  c #56911C",
"x  c #59961E",
"c  c #5C9B1F",
"v  c #67861C",
"b  c #6C901E",
"n  c #5D9C20",
"m  c #729C20",
"M  c #61A123",
"N  c #65A824",
"B  c #67A729",
"V  c #79A622",
"C  c #6FAF31",
"Z  c #6E8557",
"A  c #7DB745",
"S  c #7F936E",
"D  c #88B539",
"F  c #CA8C28",
"G  c #CA9529",
"H  c #D5932B",
"J  c #D49D2D",
"K  c #CD8E33",
"L  c #CF9435",
"P  c #CBA02B",
"I  c #CCAC2D",
"U  c #D4A52E",
"Y  c #CBB72F",
"T  c #D4AD30",
"R  c #D0A339",
"E  c #D1AF3B",
"W  c #D4B330",
"Q  c #D4BA32",
"!  c #D1B73D",
"~  c #D2BF3E",
"^  c #CEC335",
"/  c #D5C234",
"(  c #82B94D",
")  c #80956E",
"_  c #859D6F",
"`  c #89A371",
"'  c #8DAC72",
"]  c #8FA17F",
"[  c #94B573",
"{  c #98BB75",
"}  c #A5C55F",
"|  c #92C264",
" . c #9EC37D",
".. c #A5CD7E",
"X. c #D7CD4E",
"o. c #D6C856",
"O. c #D4D352",
"+. c #556393",
"@. c #596897",
"#. c #5C6B9C",
"$. c #6A6F8E",
"%. c #6F758A",
"&. c #70768E",
"*. c #626D94",
"=. c #616F9D",
"-. c #6E7390",
";. c #63719F",
":. c #6D799F",
">. c #737693",
",. c #757C94",
"<. c #797D97",
"1. c #6673A1",
"2. c #6977A3",
"3. c #6C79A5",
"4. c #727EA8",
"5. c #D37C82",
"6. c #7B829B",
"7. c #7E87A0",
"8. c #7F88A1",
"9. c #7782AB",
"0. c #7A85AC",
"q. c #7D88AF",
"w. c #86879E",
"e. c #91A381",
"r. c #A7B49A",
"t. c #8C8DA2",
"y. c #8B95AF",
"u. c #9292A6",
"i. c #9B9BAC",
"p. c #838CB2",
"a. c #8690B4",
"s. c #8A92B6",
"d. c #8D95B8",
"f. c #939BBB",
"g. c #999FBF",
"h. c #A5A5B1",
"j. c #AAAAB4",
"k. c #B3B3BA",
"l. c #D7898E",
"z. c #D88A91",
"x. c #DB949A",
"c. c #CAAD84",
"v. c #D7B985",
"b. c #DF9FA4",
"n. c #DFA1A7",
"m. c #E3A9AD",
"M. c #E3ABB0",
"N. c #E7B7BA",
"B. c #E7B9BC",
"V. c #AFCD95",
"C. c #B8D799",
"Z. c #B8C2B0",
"A. c #C3D791",
"S. c #E5C48F",
"D. c #E6C390",
"F. c #C6DAB4",
"G. c #CADFB5",
"H. c #C9E0B0",
"J. c #9CA3C1",
"K. c #A1A6C3",
"L. c #A5AAC6",
"P. c #A9AEC7",
"I. c #AAAEC8",
"U. c #ADB1CA",
"Y. c #BDBDC7",
"T. c #B3B6CD",
"R. c #B5B8CF",
"E. c #BABDD2",
"W. c #BEC0D4",
"Q. c #C2C3C6",
"!. c #C8C3C2",
"~. c #CFCED6",
"^. c #C1C6D9",
"/. c #CACFDE",
"(. c #D0CFD7",
"). c #CBD0DF",
"_. c #D6DCD3",
"`. c #D8DDD5",
"'. c #D4D3DB",
"]. c #D9D8DE",
"[. c #EBC3C5",
"{. c #E3DBC9",
"}. c #EFCFD1",
"|. c #F0D2D4",
" X c #F2D9DB",
".X c #D7E7C9",
"XX c #DBE5D3",
"oX c #DFE4DC",
"OX c #E6E6D3",
"+X c #E9E7D6",
"@X c #E2E6DE",
"#X c #E5EEDC",
"$X c #F3E9DA",
"%X c #CFD4E1",
"&X c #DDDCE4",
"*X c #E1DDE4",
"=X c #E1E3E5",
"-X c #E4E4EA",
";X c #E8E7EB",
":X c #E5E8EF",
">X c #EAEBED",
",X c #F5E3E4",
"<X c #F8EDEE",
"1X c #E6E9F0",
"2X c #ECECF1",
"3X c #F3F3F5",
"4X c #F9F3F4",
"5X c #F6F6F8",
"6X c #FDFDFE",
"7X c None",
/* pixels */
"7X7X7X7X7X7X7X7X7X7X7X7X7X7X7X7X7X7X7X7X7X7X7X7X7X7X7X7X7X7X7X7X7X7X7X7X",
"7X7X7X7X7X7X7X7X7X7X7X7X7X7X7X7X7X7X7X7X7X7X7X7X7X7X7X7X7X7X7X7X7X7X7X7X",
"7X7X7X7X7X7X7X7X7X7X7X7X7X7X7X7X7X7X7X7X7X7X7X7X7X7X7X7X7X7X7X7X7X7X7X7X",
"7X7X7X7X7X7X7X7X7X7X7X7X7X7X7X7X7X7X7X7X7X7X7X7X7X7X7X7X7X7X7X7X7X7X7X7X",
"7Xe e e e e e e e e e e w w w w e e w e e e e e e w w w e e e w w 7X7X7X",
"e :.E.R.T.U.U.I.L.L.K.J.g.g.f.f.d.s.a.p.p.q.0.9.9.4.3.3.1.1.=.+.r 9 7X7X",
"e E.E.R.T.U.U.I.L.K.K.J.g.g.f.d.d.s.a.p.q.q.0.9.4.4.3.3.1.1.=.@.t 8 7X7X",
"e E.E.R.T.U.U.I.L.L.J.g.g.g.f.f.d.s.a.p.p.0.0.9.4.4.3.3.1.1.=.@.t 8 7X7X",
"e W.E.R.T.U.U.I.L.L.K.J.g.g.f.d.d.s.a.p.p.q.0.9.4.4.3.3.2.1.=.@.t 7 7X7X",
"e E.E.R.T.T.U.I.L.K.K.J.g.g.f.f.d.s.a.a.q.q.0.0.4.4.3.3.1.1.=.@.t 7 7X7X",
"e 6X6X6X6X6X6X6X6X6X6X6X6X6X6X6X6X6X6X6X6X6X6X6X6X6X6X6X6X5X5X2Xw.7 7X7X",
"e 6X6X6X6X6X6X6X6X6X6X6X6X6X6X6X6X6X6X6X6X6X6X6X6X6X6X6X6X5X5X3X6.6 7X7X",
"e 6X6X4X<X<X,X,X,X X X X X X|. X,X6X6X6X6X6X6X6X6X6X6X6X6X6X5X2X6.6 7X7X",
"e 6X4X|.B.n.z.j s p i i i i i i g 4X6X6X6X6X6X6X6X6X6X6X6X6X5X>X6.5 7X7X",
"e 6X4X X[.M.x.5.f a i i i i i i g 4X6X6X6X6X6X6X6X6X6X6X6X6X6X>X6.4 7X7X",
"e 6X5X,X}.N.n.l.h s i i i i i i g 4X6X6X6X6X6X6X6X6X6X6X6X6X6X>X6.5 7X7X",
"w 6X5X<X X[.m.x.5.f a i i i i i d *X:X:X:X:X:X:X:X:X:X:X5X6X6X:X,.4 7X7X",
"w 5X2XR.I.K.g.g.d.a.p.4.4.2.1.=.#.#.#.#.#.#.#.#.#.#.#.2.W.2X6X:X6.4 7X7X",
"w 6X2XE.U.L.J.g.f.s.p.q.4.3.1.=.#.#.#.#.#.#.#.#.#.#.#.2.W.2X6X;X,.4 7X7X",
"w 6X2XW.U.I.K.J.f.d.p.p.w.4.2.1.=.#.#.#.#.#.#.#.#.#.#.2.^.2X6X;X,.4 7X7X",
"w 5X:XQ.k.k.j.j.i.i.u.t.w.6.<.>.-.$.*.@.#.#.@.#.#.#.#.3.^.1X6X-X>.4 7X7X",
"w 5X+Xo.~ ! E R R L K K K K K K K K c.!././././././.%X%X2X6X6X-X&.4 7X7X",
"e 5X+XX./ Q W T U J H H H H H H H H D.$X5X6X6X6X6X6X6X6X6X6X6X=X&.@ 7X7X",
"e 5XOXX./ Q Q T U J H H H H H H H H D.$X5X5X6X6X6X6X6X6X6X6X6X&X&.@ 7X7X",
"e 5XOXO.^ ^ Y I I P G G F F F F F F v.{.>X>X>X2X3X5X6X6X6X6X6X=X&.@ 7X7X",
"w 5X=XA.} D V m b v , > = & & & & & 2 3 y y 3 Z r.oX5X6X6X5X6X&X&.@ 7X7X",
"e 5X=XH...( N n z k : - * $ # # # # # # $ $ # < e.`.5X6X6X5X5X&X%.+ 7X7X",
"e 3X=X.XC.| C M x l k ; * $ # # # # # # # # # < ] _.5X5X5X6X5X&X&.+ 7X7X",
"w 3X-X#XH...A N c z k : * * $ # # # # # # # # < ] _.5X5X5X5X3X&X%.+ 7X7X",
"w 3X-X>XXXG.V. .{ [ ' ' ` _ ) ) ) ) S ) ) ) ) ] Z.=X3X5X5X3X-X&X%.+ 7X7X",
"e 6X6X6X6X6X6X6X6X6X6X6X6X5X5X6X5X5X5X3X3X;X3X3X3X>X>X>X2X-X-X).%.+ 7X7X",
"e y.3X2X>X>X:X;X;X-X=X=X=X*X*X&X].].].'.(.(.~.(.(.(.(.(./.~.~.Y.u O 7X7X",
"7Xe e e e e e e e e e e e w e e q q 0 0 9 9 9 8 8 8 6 5 4 4 4 @ @   7X7X",
"7X7X+ O O O O O O O O O O O O O O O o o o o o X X X X . X . . . 7X7X7X7X",
"7X7X7X7X7X7X7X7X7X7X7X7X7X7X7X7X7X7X7X7X7X7X7X7X7X7X7X7X7X7X7X7X7X7X7X7X",
"7X7X7X7X7X7X7X7X7X7X7X7X7X7X7X7X7X7X7X7X7X7X7X7X7X7X7X7X7X7X7X7X7X7X7X7X"
};
