/* XPM */
static char *graphicaldasa_xpm[] = {
/* columns rows colors chars-per-pixel */
"24 24 187 2 ",
"   c #0B1120",
".  c #141D33",
"X  c #172037",
"o  c #18223B",
"O  c #32540F",
"+  c #325510",
"@  c #355A11",
"#  c #3D5912",
"$  c #3E5D1A",
"%  c #3D6814",
"&  c #446314",
"*  c #4C7417",
"=  c #467917",
"-  c #426123",
";  c #536F37",
":  c #152447",
">  c #1A2643",
",  c #1C2846",
"<  c #17264A",
"1  c #1D2948",
"2  c #333B54",
"3  c #304272",
"4  c #3A4C7B",
"5  c #555D75",
"6  c #576079",
"7  c #59627E",
"8  c #A17D22",
"9  c #BF4049",
"0  c #C1424A",
"q  c #C44C55",
"w  c #C8575F",
"e  c #CC686F",
"r  c #55841A",
"t  c #508919",
"y  c #5F941E",
"u  c #5A9A1E",
"i  c #6BA525",
"p  c #6FAD33",
"a  c #70875B",
"s  c #72895C",
"d  c #7B985F",
"f  c #7F936B",
"g  c #A38021",
"h  c #A58923",
"j  c #A99426",
"k  c #ACA228",
"l  c #AFAF2B",
"z  c #B9BE38",
"x  c #D7942A",
"c  c #D69C2C",
"v  c #C78F3E",
"b  c #C88E39",
"n  c #CB933B",
"m  c #D99732",
"M  c #D6A82E",
"N  c #D5B430",
"B  c #D5BE31",
"V  c #8EBD54",
"C  c #80A360",
"Z  c #87AE62",
"A  c #8FB966",
"S  c #AEA471",
"D  c #CDA340",
"F  c #CEAE42",
"G  c #D0B944",
"H  c #A0CA77",
"J  c #A1C87E",
"K  c #D7CC4F",
"L  c #D5C860",
"P  c #CBD065",
"I  c #4C5C8C",
"U  c #5B6583",
"Y  c #5D6887",
"T  c #5F6A8A",
"R  c #546392",
"E  c #596792",
"W  c #5C6A92",
"Q  c #576799",
"!  c #59699A",
"~  c #606C8D",
"^  c #6F718B",
"/  c #75768E",
"(  c #626E91",
")  c #616F9C",
"_  c #657294",
"`  c #697497",
"'  c #657299",
"]  c #69769E",
"[  c #7D7D93",
"{  c #5D6FA0",
"}  c #6674A2",
"|  c #6A77A4",
" . c #6D7AA4",
".. c #727EA2",
"X. c #836283",
"o. c #8C6887",
"O. c #94708D",
"+. c #9D7E98",
"@. c #D37A80",
"#. c #7481A3",
"$. c #7480AA",
"%. c #7B85AA",
"&. c #7E88AF",
"*. c #7D8AB1",
"=. c #808596",
"-. c #868598",
";. c #8F8D9E",
":. c #A1B094",
">. c #A9B69D",
",. c #8784A7",
"<. c #818AAC",
"1. c #8D92A4",
"2. c #9896A3",
"3. c #9196A9",
"4. c #959AAD",
"5. c #838DB3",
"6. c #8890B5",
"7. c #8793B8",
"8. c #8C96B9",
"9. c #989EB1",
"0. c #939BBC",
"q. c #A890A8",
"w. c #A19FA9",
"e. c #9BA1B4",
"r. c #A9A8AE",
"t. c #B2A1B7",
"y. c #B2B2B3",
"u. c #D88B90",
"i. c #CBB497",
"p. c #DF9CA1",
"a. c #E2A7AC",
"s. c #E2A8AD",
"d. c #E4AEB2",
"f. c #E6B6B9",
"g. c #BFD79E",
"h. c #B8C1AA",
"j. c #BBC5B3",
"k. c #C1CBB9",
"l. c #C6DCB1",
"z. c #EBCDA1",
"x. c #9CA3C1",
"c. c #A1A6C3",
"v. c #A3A9C6",
"b. c #A6ADC8",
"n. c #AAAEC8",
"m. c #ADB2CB",
"M. c #BDB4C7",
"N. c #B3B6CE",
"B. c #B3B8CF",
"V. c #B5BBD1",
"C. c #B9BCD2",
"Z. c #E6BFC3",
"A. c #BEC1D6",
"S. c #C2C2C0",
"D. c #C2C5D8",
"F. c #C5C8DA",
"G. c #CBCCDB",
"H. c #CFD0DC",
"J. c #DDDEDF",
"K. c #EBC2C5",
"L. c #EBC5C9",
"P. c #EFD2D4",
"I. c #F1D5D8",
"U. c #D1E3C0",
"Y. c #DFE4DC",
"T. c #ECEBD5",
"R. c #E4EBDE",
"E. c #EBEBD9",
"W. c #D2D5E3",
"Q. c #D9D9E0",
"!. c #DFE0E1",
"~. c #DEE1EB",
"^. c #E3E3E6",
"/. c #E7E8E7",
"(. c #E8EBE5",
"). c #E4E4EB",
"_. c #EBEDEC",
"`. c #F5E4E5",
"'. c #EEF0ED",
"]. c #ECEDF1",
"[. c #F3F3F5",
"{. c #FAF6F5",
"}. c #F6F6F8",
"|. c #F9F7F8",
" X c #F7F8FA",
".X c #FEFEFE",
"XX c None",
/* pixels */
"XXXXXXXXXXXXXXXXXXXXXXXXXXXXXXXXXXXXXXXXXXXXXXXX",
"XXXXXXXXXXXXXXXXXXXXXXXXXXXXXXXXXXXXXXXXXXXXXXXX",
"XXXXXXXXXXXXXXXXXXXXXXXXXXXXXXXXXXXXXXXXXXXXXXXX",
"4 #.<.%.%.%..... .] ] ' ) ) ! E R R R I I 3 XXXX",
"E C.C.N.m.n.v.c.x.0.0.8.6.5.<.%.$. . .} ) 4 < XX",
"W C.N.m.n.v.x.x.0.0.8.6.5.&.&... .| } } ! 4 : XX",
"_ W.H.H.G.F.D.D.C.C.C.B.m.m.n.b.b.c.x.x.0.W , XX",
"#..X.X.X.X.X.X.X.X.X.X.X.X.X.X.X.X.X.X.X Xe.1 XX",
"#.|.`.I.L.f.d.s.s.s.d.`..X.X.X.X.X.X.X.X[.e., XX",
"#.{.I.d.u.e q 9 9 0 q K..X.X.X.X.X.X.X.X}.9., XX",
"#.|.`.K.p.e w 0 0 0 q Z. X X X X X X X.X X9., XX",
"#.[.H.C.t.q.+.O.o.X.X.,.8.8.8.8.8.8.b.].[.4.> XX",
"#.].C.v.x.0.7.*.$.| ! Q ! Q ! Q ! ! 5.~.}.3.> XX",
"#._.S.y.r.w.2.1.-.[ / ^ ` } } } } } 8.).}.3.> XX",
"#.E.L G F D n n n v b v i.H.W.W.W.W.~. X[.3.o XX",
"..T.K B N M c x x x x m z.{..X.X.X.X.X.X[.1.o XX",
"..E.P z l k j h g g 8 g S h.j.k.Y. X.X.X[.1.o XX",
"..(.g.V i y r * & # # # $ - - ; >.'..X X].1.o XX",
".._.U.H p u t = % @ + + + + O - :.'. X X].;.X XX",
"..'.R.l.J A Z C d s a a a a a f j.].}.}._.1.X XX",
"' '. X[.'.'.'._.(._././.^.!.J.!.^.^.^.^.Q.[ . XX",
"3 ( ` ` ` _ _ _ _ _ ( T T Y U U U 7 6 6 5 2   XX",
"XXXXXXXXXXXXXXXXXXXXXXXXXXXXXXXXXXXXXXXXXXXXXXXX",
"XXXXXXXXXXXXXXXXXXXXXXXXXXXXXXXXXXXXXXXXXXXXXXXX"
};
