/* XPM */
static char *help_xpm[] = {
/* columns rows colors chars-per-pixel */
"32 32 256 2 ",
"   c #171515",
".  c #2A1201",
"X  c #272828",
"o  c #2D2D2D",
"O  c #282F36",
"+  c #2F383F",
"@  c #343434",
"#  c #3A3A3A",
"$  c #620000",
"%  c #6F0B00",
"&  c #7A0701",
"*  c #751200",
"=  c #6E2900",
"-  c #7E3000",
";  c #66371C",
":  c #7C3C1C",
">  c #563827",
",  c #693F2A",
"<  c #5B453C",
"1  c #7D553A",
"2  c #2F3840",
"3  c #323C44",
"4  c #133960",
"5  c #374149",
"6  c #3B454E",
"7  c #3C4750",
"8  c #3F4952",
"9  c #12406D",
"0  c #184E7C",
"q  c #315169",
"w  c #2D5775",
"e  c #514644",
"r  c #424C54",
"t  c #71635D",
"y  c #415B71",
"u  c #46637C",
"i  c #5D6870",
"p  c #6C6C6C",
"a  c #63676B",
"s  c #77716F",
"d  c #78777C",
"f  c #850902",
"g  c #910403",
"h  c #871500",
"j  c #A81701",
"k  c #B61C00",
"l  c #B51804",
"z  c #952400",
"x  c #932E00",
"c  c #982E00",
"v  c #8A3607",
"b  c #933301",
"n  c #9F3A03",
"m  c #833D1E",
"M  c #A82000",
"N  c #B92500",
"B  c #C80600",
"V  c #C80E10",
"C  c #CE1212",
"Z  c #E51817",
"A  c #F41A1A",
"S  c #C62804",
"D  c #C93A02",
"F  c #D13302",
"G  c #E73A0C",
"H  c #DD2423",
"J  c #DF3B24",
"K  c #E32A2A",
"L  c #F02323",
"P  c #E33836",
"I  c #FC3434",
"U  c #F33D32",
"Y  c #9C4F20",
"T  c #AC6436",
"R  c #E34B16",
"E  c #C45229",
"W  c #DD5C30",
"Q  c #EE5424",
"!  c #EC463B",
"~  c #F74735",
"^  c #FF573B",
"/  c #EE602D",
"(  c #EC6735",
")  c #FF6837",
"_  c #F46A36",
"`  c #9C705A",
"'  c #A16B5C",
"]  c #96756C",
"[  c #B27979",
"{  c #F14646",
"}  c #FF4C4B",
"|  c #FE5B5C",
" . c #FA5857",
".. c #C06D4A",
"X. c #CA7E5B",
"o. c #FF6868",
"O. c #FF6264",
"+. c #FE7264",
"@. c #FF7879",
"#. c #9F827C",
"$. c #AE837B",
"%. c #FC8857",
"&. c #C78063",
"*. c #E58967",
"=. c #FF8E64",
"-. c #FB9379",
";. c #1F5C97",
":. c #3C6A8D",
">. c #28649C",
",. c #3F6D91",
"<. c #215EA1",
"1. c #3774A6",
"2. c #296FB4",
"3. c #2D75B5",
"4. c #2B76B9",
"5. c #2F78B8",
"6. c #3077B7",
"7. c #317BBB",
"8. c #406687",
"9. c #44759B",
"0. c #5A7692",
"q. c #6B7485",
"w. c #757D85",
"e. c #727F8B",
"r. c #787F81",
"t. c #437CAA",
"y. c #2D7CC1",
"u. c #317EC1",
"i. c #937C81",
"p. c #3D80BA",
"a. c #7B838B",
"s. c #4483B3",
"d. c #4D85B1",
"f. c #528BBC",
"g. c #7D94AB",
"h. c #6C98BA",
"j. c #799AB8",
"k. c #3682C3",
"l. c #3B84C4",
"z. c #3E88C8",
"x. c #4185C0",
"c. c #4589C3",
"v. c #4B8DC5",
"b. c #458DCB",
"n. c #4E91C7",
"m. c #4991CE",
"M. c #5394C9",
"N. c #5B9ACD",
"B. c #5898CD",
"V. c #4E94D0",
"C. c #5299D3",
"Z. c #5B9CD3",
"A. c #6799C6",
"S. c #609ED1",
"D. c #5DA2DA",
"F. c #5FA1D7",
"G. c #70A0C7",
"H. c #65A2D2",
"J. c #6BA6D5",
"K. c #6DAADA",
"L. c #68A7D9",
"P. c #73ADDA",
"I. c #7DAFD2",
"U. c #76B1DC",
"Y. c #7BB4DE",
"T. c #77AFE0",
"R. c #74B2E2",
"E. c #7DB6E1",
"W. c #7EB8E1",
"Q. c #828586",
"!. c #8C8885",
"~. c #9B8A8A",
"^. c #818691",
"/. c #899094",
"(. c #95949A",
"). c #96989D",
"_. c #9C9294",
"`. c #A38D84",
"'. c #BCA398",
"]. c #839FB4",
"[. c #819EB9",
"{. c #94A8B7",
"}. c #A9AAAD",
"|. c #B3AEAB",
" X c #B5A0A0",
".X c #BAB3AD",
"XX c #A9ACB2",
"oX c #B3B4B4",
"OX c #B3BBBB",
"+X c #BCBBBB",
"@X c #FF8788",
"#X c #FF8B8B",
"$X c #FF958A",
"%X c #FF8E90",
"&X c #E59D9D",
"*X c #FF9293",
"=X c #DAA998",
"-X c #FCA184",
";X c #FDAA95",
":X c #FF9FA0",
">X c #C6A6A1",
",X c #D4A7A7",
"<X c #DDB7B7",
"1X c #FFA4A5",
"2X c #FFAFAF",
"3X c #FEB6AC",
"4X c #FEB2B3",
"5X c #FFBCBD",
"6X c #FEC3BC",
"7X c #9FBED6",
"8X c #84BBE3",
"9X c #89BFE4",
"0X c #83BCEA",
"qX c #89BFEB",
"wX c #80B7E0",
"eX c #98BFE4",
"rX c #96C1DD",
"tX c #BCC1C2",
"yX c #A4C3D9",
"uX c #ACC9DD",
"iX c #BCCCD9",
"pX c #87C0E6",
"aX c #88C0E6",
"sX c #89C1EC",
"dX c #87C0EB",
"fX c #91C2EB",
"gX c #8AC3F3",
"hX c #AACCE4",
"jX c #ABD3EE",
"kX c #AFD9F5",
"lX c #CBC9C6",
"zX c #C7C9C9",
"xX c #C5C6C7",
"cX c #D9C7C7",
"vX c gainsboro",
"bX c #ECCBCC",
"nX c #FFC6C6",
"mX c #FFCAC4",
"MX c #FFCCCC",
"NX c #FFD0CF",
"BX c #EAD6D7",
"VX c #FFD5D4",
"CX c #FFD9DA",
"ZX c #FFD8D6",
"AX c #CED8E4",
"SX c #DFE5E5",
"DX c #D9E8E8",
"FX c #EAEBEB",
"GX c #E1E3E2",
"HX c #E0E8F3",
"JX c #EFF7F7",
"KX c #E1F0F1",
"LX c #F4F5F5",
"PX c #F5FEFE",
"IX c #F8FBFB",
"UX c None",
/* pixels */
"UXUXUXUXUXUXUXUXUXUXUXUXUXUXUXUXUXUXUXUXUXUXUXUXUXUXUXUXUXUXUXUX",
"UXUXUX  o X o 7 gXqXqXqXqXqXsXsXsXqXqXqXsXpXsXsXsXsX0XUXUXUXUXUX",
"UXUXUXo p p p w.kXjXjXjXjXjXjXjXjXjXjXjXjXjXjXjXjXjXfXUXUXUXUXUX",
"UXUXUX  @ o @ 8 fX8X8X8X8X0X9X0XpXpXpXpXpXpXpXpXaXaXpXUXUXUXUXUX",
"UXUXUX  # @ @ r sX8X8X8X8X8X8X9X0X9X9XpX9X9X9X9X9XsXwXUXUXUXUXUX",
"UXUXUX  # @ @ r qX8X8X8XwX8X8X8X8X8X8X8X8X8X8X9X0X8XE.UXUXUXUXUX",
"UXUXUX  # @ @ r 0XwXwXwXwXwX8XwXwXE.8X8XW.8XW.wXwXwXE.UXUXUXUXUX",
"UXUXUX  # @ @ r 8XY.Y.Y.Y.wXY.wXE.E.Y.E.W.Y.W.W.E.W.R.UXUXUXUXUX",
"UXUXUX  # @ @ r W.Y.Y.Y.Y.Y.U.U.U.Y.Y.Y.Y.Y.Y.Y.E.Y.R.UXUXUXUXUX",
"UXUXUX  # @ @ 8 E.P.P.P.U.U.P.yXyXrX9XrXjXuXhXuXuXU.P.UXUXUXUXUX",
"UXUXUX  # @ @ 8 R.P.P.P.P.P.7X].h._.X.lXiXxX..~.I.iXL.UXUXUXUXUX",
"UXUXUX  # @ @ 8 U.J.P.K.J.K.{.i.( -X6XIXIXIXmX;X_ &.D.UXUXUXUXUX",
"UXUXUX  # @ @ 8 K.L.J.J.K.H.`.-.ZX6X%XSXvXSX#X4XCX;XW UXUXUXUXUX",
"UXUXUX  # @ @ 6 K.H.H.L.H.R >XNX*XO.K OXoXOXH | @XmX6XQ UXUXUXUX",
"UXUXUX  # @ @ 6 L.H.H.D.E $XlX@X{ l k Q.s a.k j P @.mX2XR UXUXUX",
"UXUXUX  # @ @ 6 L.Z.Z.d ^ BX&X{ k : q :.9.,.w , k P @XCX+.D UXUX",
"UXUXUX  # @ @ 5 F.N.C.F ,X<Xo.S < t.N.S.H.N.S.d.p N  .4X5XG zXUX",
"UXUXUX  # @ @ 5 Z.B.0.=XbX:X! m s.N.N.N.N.N.N.N.f.` J %XZX~ UXvX",
"UXUXUX  # @ # 5 Z.n.OXU NX@XG :.B.B.N.B.N.N.B.B.N.1.F @.CX} M zX",
"UXUXUX  # @ @ 5 C.G..XGXLX+X!.t.B.M.M.M.M.B.M.M.B.v.d oXFXFX|.zX",
"UXUXUX  # @ @ 3 V.eXXXvXLX+Xw.v.n.n.n.n.M.n.n.M.n.n.q.oXFXFX}.HX",
"UXUXUX  # @ @ 3 m.f.|.DXPXtXQ.x.n.v.v.v.v.v.v.v.n.x.e.oXJXKX|.+X",
"UXUXUX  # @ @ 3 b.G.m V *XnX) t.v.c.v.c.v.v.v.v.c.k./ 2X4XZ '.UX",
"UXUXUX  # @ @ 3 b.j.u M } CX$X' l.c.c.c.v.c.c.x.A.(.-XBX,X$.= UX",
"UXUXUX  # @ @ 3 z.h.1.x C #XVX=.q.l.l.l.x.x.s.h.a.*.cX&XZ z UXUX",
"UXUXUX  # @ @ 3 l.7.].e h L 1XVX=.] 7.k.k.k.y.).%.MX5XI h v UXUX",
"UXUXUX  # @ @ 3 k.7.].>.v & L *XCX3X%.a.w.e.%.'.CX1XI g b UXUXUX",
"UXUXUX  # @ @ + p.6.6.g.i n & C } 1XMXxX+XxXNX X| Z & b . UXUXUX",
"UXUXUX  # @ @ + 7.4.4.4.3.u v * f V A PXLXPXA [ g % b . UXUXUXUX",
"UXUXUX  # @ @ + y.5.5.5.6.3.0 > c * $ tX+XtX$ #.z ; 9 UXUXUXUXUX",
"UXUXUX  @ o o O 4.2.2.2.2.2.2.<.9 t T /.).a.Y ).4 ;.<.UXUXUXUXUX",
"UXUXUXUXUXUXUXUXUXUXUXUXUXUXUXUXUXUXUX!.AX+X}.UXUXUXUXUXUXUXUXUX"
};
