/* XPM */
static char *help_xpm[] = {
/* columns rows colors chars-per-pixel */
"24 24 227 2 ",
"   c #181717",
".  c #1B191A",
"X  c #242323",
"o  c #343434",
"O  c #5A1F00",
"+  c #751E0C",
"@  c #51250F",
"#  c #72220F",
"$  c #7A2908",
"%  c #5A3937",
"&  c #7D3624",
"*  c #6D3E39",
"=  c #733A32",
"-  c #754136",
";  c #2D3944",
":  c #323E49",
">  c #563E44",
",  c #35424D",
"<  c #38454F",
"1  c #3A4750",
"2  c #3D4A53",
"3  c #2E4C6F",
"4  c #364F6C",
"5  c #414141",
"6  c #494949",
"7  c #414C56",
"8  c #434E58",
"9  c #584E51",
"0  c #455059",
"q  c #665244",
"w  c #6F554B",
"e  c #535E66",
"r  c #5E5962",
"t  c #785F60",
"y  c #5B656D",
"u  c #526176",
"i  c #586778",
"p  c #6B6460",
"a  c #8B1D01",
"s  c #9D1407",
"d  c #931F07",
"f  c #951A0E",
"g  c #8B220D",
"h  c #972519",
"j  c #B52D19",
"k  c #C01D1D",
"l  c #C0301E",
"z  c #C22622",
"x  c #C02E22",
"c  c #CB2F27",
"v  c #C82B29",
"b  c #D22E25",
"n  c #C33C25",
"m  c #D63025",
"M  c #D73D29",
"N  c #D13531",
"B  c #D83D3B",
"V  c #D74733",
"C  c #844F4C",
"Z  c #A75847",
"A  c #A05549",
"S  c #B55655",
"D  c #8D665D",
"F  c #AF6058",
"G  c #AD6E64",
"H  c #A77976",
"J  c #A97976",
"K  c #A77C79",
"L  c #D75E40",
"P  c #F06E53",
"I  c #F56A5C",
"U  c #EA6461",
"Y  c #EB6C6D",
"T  c #F16564",
"R  c #F36E6D",
"E  c #E57965",
"W  c #F7766C",
"Q  c #F8706F",
"!  c #F57576",
"~  c #CB8773",
"^  c #C78079",
"/  c #CF867F",
"(  c #D58E76",
")  c #F7917C",
"_  c #2568A6",
"`  c #3672A6",
"'  c #2C73B5",
"]  c #3077B5",
"[  c #3379B7",
"{  c #3B7EB9",
"}  c #516981",
"|  c #517794",
" . c #5B7999",
".. c #67768B",
"X. c #667B8F",
"o. c #647D9D",
"O. c #777B90",
"+. c #7C7F93",
"@. c #537FA6",
"#. c #877E8A",
"$. c #66819F",
"%. c #7F8B97",
"&. c #748299",
"*. c #5A84A7",
"=. c #5885AC",
"-. c #4481B6",
";. c #4684BA",
":. c #4C8ABF",
">. c #5286B1",
",. c #528AB5",
"<. c #588CB6",
"1. c #518BBC",
"2. c #5C8DB8",
"3. c #648DB1",
"4. c #6391BA",
"5. c #6C95B8",
"6. c #3B84C3",
"7. c #468AC3",
"8. c #4A8DC5",
"9. c #448CC8",
"0. c #4F91C7",
"q. c #4E92C9",
"w. c #5492C6",
"e. c #5894C7",
"r. c #5394C9",
"t. c #5B97C9",
"y. c #5B9ACD",
"u. c #5F9FD2",
"i. c #649FCE",
"p. c #6FA0CA",
"a. c #65A1D2",
"s. c #6AA5D4",
"d. c #6FABD9",
"f. c #72AAD5",
"g. c #75AEDA",
"h. c #75B0DE",
"j. c #7CB4DD",
"k. c #7DB6E0",
"l. c #7EB8E1",
"z. c #8D8883",
"x. c #9C8884",
"c. c #9B8F94",
"v. c #939C9D",
"b. c #AF8C84",
"n. c #BB8C86",
"m. c #A3968E",
"M. c #B1908C",
"N. c #B89088",
"B. c #AB9794",
"V. c #BD9894",
"C. c #BCA096",
"Z. c #9B99A7",
"A. c #98A2A5",
"S. c #92AABE",
"D. c #A4A5AC",
"F. c #A2AAAC",
"G. c #AFADA9",
"H. c #A6ADB1",
"J. c #AEB4B7",
"K. c #AEB5BD",
"L. c #BBB4B4",
"P. c #D98788",
"I. c #DD9282",
"U. c #D9918F",
"Y. c #CD9793",
"T. c #CF9E92",
"R. c #F08C8C",
"E. c #FE8F8F",
"W. c #EA9581",
"Q. c #FA9A8F",
"!. c #EA9091",
"~. c #FF9392",
"^. c #FE9897",
"/. c #FD999A",
"(. c #D4A39B",
"). c #E4A191",
"_. c #EBA795",
"`. c #E3A59F",
"'. c #F2A693",
"]. c #FFA39C",
"[. c #F3AE9D",
"{. c #D2A9A5",
"}. c #DCB3AB",
"|. c #CAB6B3",
" X c #DDB4B5",
".X c #DEBAB6",
"XX c #E8AAAA",
"oX c #FFA0A0",
"OX c #F0ADAE",
"+X c #FFABAA",
"@X c #E7B1A4",
"#X c #F5B2A1",
"$X c #FFB0A5",
"%X c #F4B5AC",
"&X c #FFB6AF",
"*X c #E8B4B4",
"=X c #FFB2B1",
"-X c #FFB9B7",
";X c #F1BDBD",
":X c #F9B9B9",
">X c #8DAEC6",
",X c #82ABCB",
"<X c #98AFC5",
"1X c #8EB1CB",
"2X c #82B6DD",
"3X c #85B9DF",
"4X c #96BCD6",
"5X c #B2BBC4",
"6X c #84BBE3",
"7X c #8CBEE2",
"8X c #B5CCDE",
"9X c #8DC1E8",
"0X c #92C4E7",
"qX c #92C5E9",
"wX c #9ACAED",
"eX c #C4C8CE",
"rX c #CAD1D3",
"tX c #D5DEDE",
"yX c #E1C2C2",
"uX c #ECCBC4",
"iX c #F1C2C3",
"pX c #EEDCD7",
"aX c #EDD9D9",
"sX c #E4ECEC",
"dX c #E8EFEF",
"fX c #E8EEF1",
"gX c None",
/* pixels */
"gXgXgXgXgXgXgXgXgXgXgXgXgXgXgXgXgXgXgXgXgXgXgXgX",
"gXgXX 6 6 y 0XwXwXwXwXwXwXwXwXwXwXwXwXqXgXgXgXgX",
"gXgXX 5 5 e 7X0X0X0X0X0XqXqX0X0XqXqXqX9XgXgXgXgX",
"gXgX  o o 0 2X6X6X6X6X6X9X6X6X9X9X6X6X6XgXgXgXgX",
"gXgX. o o 0 j.2Xl.6X3X6Xl.6Xl.6X6X6X6Xl.gXgXgXgX",
"gXgX. o o 0 j.j.k.j.j.j.k.k.l.k.k.k.k.k.gXgXgXgX",
"gXgX  o o 0 g.j.h.j.j.2X3Xj.k.7X7X7X6Xh.gXgXgXgX",
"gXgX. o o 0 f.g.g.g.j.1X>XF.5X8XL.D.4X2XgXgXgXgX",
"gXgX. o o 7 f.d.d.d.,Xc.~ _.pXfXuX).( Z.gXgXgXgX",
"gXgX. o o 2 a.s.s.p.c.).&XE.yXtXXX~.&XW.gXgXgXgX",
"gXgX. o o 2 i.a.a.J I.OXT b K v.F m R =X) gXgXgX",
"gXgX. o o 1 y.a.&.E *XU j * } | u = j R -XP gXgX",
"gXgX. o o 1 t.e.G `.R.n r ,.y.y.y.,.t V /.Q.L gX",
"gXgX. o o 1 w.5./ :XI C 1.y.y.y.y.y.<.A W +XM C.",
"gXgX. o o < w.S..XaXN. .r.r.r.r.r.t.r...V.aX{.L.",
"gXgX. o o , e.<XtXsXA.>.q.0.0.q.q.q.q.*.F.dXrXeX",
"gXgX. o o < 8.z.^ iXT.o.9.8.8.8.8.8.9.O.(.;XY.G.",
"gXgX. o o , 1.o.h Q $XK ;.7.7.7.7.8.4.n.%XU.Z gX",
"gXgX. o o : ;.>.= c oX'.#.-.6.6.6.3.b.@X!.x $ gX",
"gXgX. o o , [ 2.i g B ].[.M.$.@.O.B.#X/.N a gXgX",
"gXgX  o o : ] { =.w d v ! ].|.J.}.(.Y z a O gXgX",
"gXgX  o o : ] ' [ ` 9 + s k  XdXP.S f # @ gXgXgX",
"gXgX  o o ; ' ' ' ' _ 4 % & x.H.D D > 3 gXgXgXgX",
"gXgXgXgXgXgXgXgXgXgXgXgXgXq z.K.m.p gXgXgXgXgXgX"
};
