/* XPM */
static char *hora_xpm[] = {
/* columns rows colors chars-per-pixel */
"24 24 190 2 ",
"   c #6B6B6B",
".  c #6D6D6D",
"X  c #6E6E6E",
"o  c #6F6F6F",
"O  c #717171",
"+  c #737373",
"@  c #747474",
"#  c #757575",
"$  c #777777",
"%  c #787878",
"&  c #7C7C7C",
"*  c #7D7D7D",
"=  c #7F7F7F",
"-  c #1E59B0",
";  c #2459A8",
":  c #2B5FAB",
">  c #315FA3",
",  c #3461A6",
"<  c #3062AF",
"1  c #2960B2",
"2  c #3F6DB5",
"3  c #3F6EB9",
"4  c #47699B",
"5  c #5D779B",
"6  c #6A788E",
"7  c #6C7E99",
"8  c #446AA2",
"9  c #5C78A0",
"0  c #2865C0",
"q  c #2B67C1",
"w  c #3B71C8",
"e  c #3B77D6",
"r  c #3C78D4",
"t  c #407CDA",
"y  c #6981A3",
"u  c #6A84AA",
"i  c #7186A6",
"p  c #4C83DE",
"a  c #548BE2",
"s  c #868686",
"d  c #888888",
"f  c #898989",
"g  c #8A8A8A",
"h  c #8F8F8F",
"j  c #828D9C",
"k  c #909090",
"l  c #919191",
"z  c #929292",
"x  c #939393",
"c  c #959595",
"v  c #969696",
"b  c #989898",
"n  c #999999",
"m  c #9B9B99",
"M  c #9A9A9A",
"N  c #9C9C9C",
"B  c #9D9D9D",
"V  c #9E9E9E",
"C  c #9F9F9F",
"Z  c #8691A2",
"A  c #959BA5",
"S  c #A0A0A0",
"D  c #A1A1A1",
"F  c #A2A2A2",
"G  c #A4A4A4",
"H  c #A5A5A5",
"J  c #A6A6A6",
"K  c #A7A7A7",
"L  c #A5A6A8",
"P  c #A3A8AF",
"I  c #A8A8A8",
"U  c #A9A9A9",
"Y  c #AAAAAA",
"T  c #ABABAB",
"R  c #A8AAAD",
"E  c #ACACAC",
"W  c #AFAFAF",
"Q  c #BBAEAE",
"!  c #AEB2B7",
"~  c #B0B0B0",
"^  c #B1B1B1",
"/  c #B2B2B2",
"(  c #B3B3B3",
")  c #B4B2B1",
"_  c #B3B3B4",
"`  c #B4B4B4",
"'  c #B5B5B5",
"]  c #B6B6B6",
"[  c #B7B7B6",
"{  c #B6B6B7",
"}  c #B7B7B7",
"|  c #B9B8B7",
" . c #BAB8B6",
".. c #B8B8B8",
"X. c #B9B9B9",
"o. c #BABABA",
"O. c #BBBBBB",
"+. c #BDBDBD",
"@. c #BEBEBE",
"#. c #BFBFBF",
"$. c #C2A9A9",
"%. c #C0BFBC",
"&. c #BDC2CB",
"*. c #C0C0C0",
"=. c #C1C1C1",
"-. c #C2C2C2",
";. c #C3C3C3",
":. c #C3C4C5",
">. c #C4C4C4",
",. c #C5C5C5",
"<. c #C6C5C5",
"1. c #C6C6C6",
"2. c #C7C7C6",
"3. c #C7C6C7",
"4. c #C7C7C7",
"5. c #C8C7C6",
"6. c #CCC6C6",
"7. c #C8C8C8",
"8. c #C9C9C9",
"9. c #CAC9C9",
"0. c #C9CAC9",
"q. c #CACACA",
"w. c #CBCBCB",
"e. c #CDCCCB",
"r. c #CCCCCC",
"t. c #CCCDCD",
"y. c #CDCDCD",
"u. c #CECECE",
"i. c #CFCFCF",
"p. c #D0D0D0",
"a. c #D1D1D1",
"s. c #D1D2D2",
"d. c #D2D2D2",
"f. c #D3D3D3",
"g. c #D4D4D4",
"h. c #D5D5D5",
"j. c #D6D6D6",
"k. c #D7D7D7",
"l. c #DDD0D0",
"z. c #D9D7D7",
"x. c #DBD7D7",
"c. c #DDD6D6",
"v. c #DDD7D7",
"b. c #D8D8D8",
"n. c #D9D9D9",
"m. c #DAD9D9",
"M. c #DADADA",
"N. c #DBDBDB",
"B. c #DDD9D9",
"V. c #DED9D9",
"C. c #DBDCDC",
"Z. c #DCDCDC",
"A. c #DDDDDD",
"S. c #DEDEDE",
"D. c #DEDFDF",
"F. c #DFDFDF",
"G. c #E0DFDD",
"H. c #E0E0E0",
"J. c #E1E1E1",
"K. c #E2E2E2",
"L. c #E2E2E3",
"P. c #E3E3E3",
"I. c #E4E4E4",
"U. c #E5E4E4",
"Y. c #E4E4E5",
"T. c #E5E5E5",
"R. c #E6E6E6",
"E. c #E7E6E6",
"W. c #E6E7E7",
"Q. c #E7E7E7",
"!. c #E8E8E8",
"~. c #E9E9E9",
"^. c #EAEAEA",
"/. c #EBEBEB",
"(. c #ECECEC",
"). c #EDEDED",
"_. c #EEEEEE",
"`. c #EFEFEF",
"'. c #F0F0F0",
"]. c #F1F1F1",
"[. c #F2F2F2",
"{. c #F3F3F3",
"}. c #F5F5F5",
"|. c #F6F6F6",
" X c #F7F7F7",
".X c #F8F8F8",
"XX c #F9F9F9",
"oX c #FAFAFA",
"OX c #FBFBFB",
"+X c None",
/* pixels */
"+X+X+X+X+X+X+X+X+X+X+X+X+X+X+X+X+X+X+X+X+X+X+X+X",
"+X+X+X+X+X@.@.@.@.@.! y +X+X+X+X+X+X+X+X+X+X+X+X",
"+X+X+X+XU T.~.(.(.~.P.&.u : q +X+X+X+X+X+X+X+X+X",
"+X+X+X+XK i.i.N.].}.(.G.:.i < e w +X+X+X+X+X+X+X",
"+X+X+X+Xn { @...;.{.}.P.i./ 5 1 p p +X+X+X+X+X+X",
"+X+X+X+Xc i.{ ;...~.oX!.i.{ A > 1 e a 3 +X+X+X+X",
"+X+X+X+Xz 7.n / i.}.oX~.i...K 8 - ; , 2 +X+X+X+X",
"+X+X+X+Xn U d K s.}.oX!.i...R 5 4 7 j Z 6 +X+X+X",
"+X+X+XE ..U B ;.E ..P.(.h.@.{ P R )  .%.N +X+X+X",
"+X+X7.7.H.F.N.T.h.:.E i.F.s.7.5.4.4.4.:.B +X+X+X",
"+X+.z.c.T.F.s.T.!.P.K c h.T.P.N.b.h.s.w.V +X+X+X",
"E :.P.B.c.N.e.!.T.P.s./ ..].].~.I.B.s.e.B +X+X+X",
"E i.!.U.c.6.<.!.T.T.T.7.U ~..X(.T.N.i.:.B +X+X+X",
"d ..T.B.s.Q $.T.T.~.7.B D P.}.(.P.h.7.;.B +X+X+X",
"c r.!.P.H.N.l.T.T.T.F.7.D N.].T.N.p.:.@.n +X+X+X",
"s D N.T.T.T.!.T.T.P.N.h.K N.T.N.f.7.@.{ n +X+X+X",
"+X* 7.~.!.T.T.T.T.P.s./ E F.N.s.7.;...~ c +X+X+X",
"+X$ O.:.F.T.T.T.N.~.5.c ;.h.s.7.;.../ U c +X+X+X",
"+X+X* d 7.h.e.T.h.;.c E w.i.:.;...( E K x +X+X+X",
"+X+X+X. D / U @.K z U >.:.;.@...` E K D z +X+X+X",
"+X+X+X+X* D B N D / @.@.@...{ / U K D B z +X+X+X",
"+X+X+X+Xz / E / { { { / / E E U K D B n h +X+X+X",
"+X+X+X+X  % # # % % % % % % # # O O . .   +X+X+X",
"+X+X+X+X+X+X+X+X+X+X+X+X+X+X+X+X+X+X+X+X+X+X+X+X"
};
