/* XPM */
static char *hora_xpm[] = {
/* columns rows colors chars-per-pixel */
"32 32 254 2 ",
"   c gray15",
".  c #272727",
"X  c gray16",
"o  c gray17",
"O  c #2C2C2C",
"+  c #2D2D2D",
"@  c #2F2F2F",
"#  c gray20",
"$  c gray21",
"%  c #373737",
"&  c gray22",
"*  c #393939",
"=  c #3C3C3C",
"-  c #193E75",
";  c #1B447F",
":  c gray26",
">  c #4B4B4B",
",  c #4E4E4E",
"<  c gray33",
"1  c gray40",
"2  c DimGray",
"3  c gray43",
"4  c #6F6F6F",
"5  c gray46",
"6  c gray48",
"7  c #7C7C7C",
"8  c gray50",
"9  c #1A488B",
"0  c #1B509D",
"q  c #2E4F80",
"w  c #234F8E",
"e  c #3A5C8E",
"r  c #235297",
"t  c #2D5490",
"y  c #2D599B",
"u  c #124CA1",
"i  c #1B51A1",
"p  c #1E57AC",
"a  c #2257A4",
"s  c #2A5CA4",
"d  c #205BB2",
"f  c #2962B7",
"g  c #2560B9",
"h  c #2663BC",
"j  c #2764BF",
"k  c #2D66BF",
"l  c #3368BA",
"z  c #3D6DB9",
"x  c #576C8B",
"c  c #51698D",
"v  c #46699C",
"b  c #516C97",
"n  c #587297",
"m  c #56749F",
"M  c #2867C4",
"N  c #2A6BCD",
"B  c #326EC9",
"V  c #316FCC",
"C  c #3772CE",
"Z  c #3C77D3",
"A  c #3B77D6",
"S  c #6E819B",
"D  c #6F84A2",
"F  c #6784AF",
"G  c #4B84DF",
"H  c #4782E1",
"J  c #4787ED",
"K  c #5A93EC",
"L  c #5692F6",
"P  c #689CF1",
"I  c #649AF8",
"U  c #808080",
"Y  c #818181",
"T  c #848484",
"R  c gray52",
"E  c #868686",
"W  c #888888",
"Q  c #898989",
"!  c gray54",
"~  c #8B8B8B",
"^  c gray55",
"/  c #8D8D8D",
"(  c gray56",
")  c #8C8D90",
"_  c #8F959D",
"`  c #909090",
"'  c gray57",
"]  c #929292",
"[  c #939393",
"{  c gray58",
"}  c #959594",
"|  c #959595",
" . c gray59",
".. c #979797",
"X. c #989898",
"o. c gray60",
"O. c #9A9A9A",
"+. c #9B9B9B",
"@. c gray61",
"#. c #9D9D9D",
"$. c gray62",
"%. c #9F9F9F",
"&. c #BC8282",
"*. c #8A97AA",
"=. c #929AA6",
"-. c #9BA2AC",
";. c #A0A0A0",
":. c gray63",
">. c #A2A2A2",
",. c gray64",
"<. c #A0A2A6",
"1. c #A4A4A4",
"2. c #A5A5A4",
"3. c #A5A5A5",
"4. c gray65",
"5. c #A7A7A7",
"6. c #ADA0A0",
"7. c #A9A8A7",
"8. c gray66",
"9. c #A9A9A9",
"0. c #AAAAAA",
"q. c gray67",
"w. c #AFADA9",
"e. c #ACACAC",
"r. c gray68",
"t. c #AEAEAE",
"y. c #AFAFAF",
"u. c #B3A6A6",
"i. c #B7A8A8",
"p. c #B0AEAB",
"a. c #B4B1AE",
"s. c gray69",
"d. c #B1B0B0",
"f. c #B1B1B0",
"g. c #B1B1B1",
"h. c #B3B1B0",
"j. c #B2B2B2",
"k. c #B2B2B3",
"l. c gray70",
"z. c #B6B4B0",
"x. c #B6B5B3",
"c. c #B4B4B4",
"v. c #B5B4B4",
"b. c gray71",
"n. c #B6B6B6",
"m. c #B7B6B6",
"M. c #B7B7B7",
"N. c #B9B6B2",
"B. c #B9B6B3",
"V. c #BBB9B5",
"C. c gray72",
"Z. c #B9B9B9",
"A. c #B9BBBB",
"S. c gray73",
"D. c #BBBBBB",
"F. c #BCBCBC",
"G. c gray74",
"H. c gray",
"J. c gray75",
"K. c #C5C3BF",
"L. c #BBC1CA",
"P. c #C0C0C0",
"I. c #C1C1C0",
"U. c #C1C1C1",
"Y. c gray76",
"T. c #C3C3C3",
"R. c #C4C4C3",
"E. c #C3C4C4",
"W. c gray77",
"Q. c #C5C5C5",
"!. c #C5C6C6",
"~. c #C5C7C7",
"^. c #C6C6C6",
"/. c gray78",
"(. c #C8C8C8",
"). c #C8C9C9",
"_. c gray79",
"`. c #CACACA",
"'. c #CBCBCB",
"]. c gray80",
"[. c #CDCDCD",
"{. c #CECECE",
"}. c gray81",
"|. c #D5C6C6",
" X c #D4C9C9",
".X c #D5CCCC",
"XX c #D0D0CF",
"oX c #D4D1CD",
"OX c #D6D3CF",
"+X c #D0D0D0",
"@X c gray82",
"#X c #D2D2D2",
"$X c LightGray",
"%X c #D4D2D2",
"&X c gray83",
"*X c #D5D5D5",
"=X c gray84",
"-X c #D7D7D7",
";X c #D8D5D5",
":X c #D8D8D8",
">X c gray85",
",X c #DADADA",
"<X c #DBDBDA",
"1X c gray86",
"2X c #DEDADA",
"3X c gainsboro",
"4X c #DDDDDD",
"5X c #DFDCDC",
"6X c #DEDDDD",
"7X c gray87",
"8X c #DFDFDF",
"9X c #E2DDDD",
"0X c #DFE0E0",
"qX c gray88",
"wX c #E1E1E1",
"eX c #E2E2E2",
"rX c #E3E2E2",
"tX c gray89",
"yX c #E4E1E1",
"uX c #E6E0E0",
"iX c #E4E2E2",
"pX c #E5E3E3",
"aX c #E6E5E3",
"sX c #E4E4E4",
"dX c gray90",
"fX c #E5E6E6",
"gX c #E6E6E6",
"hX c #E6E7E7",
"jX c #E7E7E7",
"kX c gray91",
"lX c #E8E9E9",
"zX c #E9E9E9",
"xX c #E9EAEA",
"cX c #EAEAEA",
"vX c gray92",
"bX c #ECECEC",
"nX c gray93",
"mX c #EEEEEE",
"MX c #EFEFEF",
"NX c #F1F1F1",
"BX c #F1F1F2",
"VX c gray95",
"CX c #F3F3F3",
"ZX c #F4F4F4",
"AX c gray96",
"SX c #F6F6F6",
"DX c gray97",
"FX c #F8F8F8",
"GX c #F9F9F9",
"HX c gray99",
"JX c #FDFDFD",
"KX c #FEFEFE",
"LX c gray100",
"PX c None",
/* pixels */
"PXPXPXPXPXPXPXPXPXPXPXPXPXPXPXPXPXPXPXPXPXPXPXPXPXPXPXPXPXPXPXPX",
"PXPXPXPXPXPXPXPXPXPXPXPXPXPXPXPXPXPXPXPXPXPXPXPXPXPXPXPXPXPXPXPX",
"PXPXPXPXPXPX`.].].].].].].$XL.F a 9 PXPXPXPXPXPXPXPXPXPXPXPXPXPX",
"PXPXPXPXPXPXqXAXAXAXFXFXFXCXiXOX*.s N V ; PXPXPXPXPXPXPXPXPXPXPX",
"PXPXPXPXPXPX&X>X&X0XAXAXAXnXgX>XOX-.t k J A - PXPXPXPXPXPXPXPXPX",
"PXPXPXPXPX..3.3.0.7.t.gXFXAXnX8X`.K.=.w f H L l PXPXPXPXPXPXPXPX",
"PXPXPXPXPX6 3.$X$X$Xg.:.AXLXCXgX$XH.N.S 0 j Z I G PXPXPXPXPXPXPX",
"PXPXPXPXPX1 H.8X3.t.8X0.zXLXAXgX].H.d.<.y g M B P K PXPXPXPXPXPX",
"PXPXPXPXPX3 t.&X^ 3.Z.Q.CXLXAXgX+XH.d.7.v d h p i z C PXPXPXPXPX",
"PXPXPXPXPXPXg.$XE :.Q.zXLXLXAXgX$XH.g.w.m u r e c x b q PXPXPXPX",
"PXPXPXPXPXo.3.~ 5 o.:.Q.nXLXFXgX$XH.c.a.D n _ 2.p.V.a.^ PXPXPXPX",
"PXPXPX@.0.t.].0...`.`.[ ..`.CXnX&XQ.F.Z.g.N.x.c.b.H.Y.} PXPXPXPX",
"PXPXb.`.Y.$XzXqX>XzXgX].`.@.Z.gXqX$X`.Q.Q.Y.E.Y.Q.Q.Q.[ PXPXPXPX",
"PXPX`.9X2XkXgX8X`.zXgXzXzX&XE 3.gXqX>X-X&X$X$X$X+X]./...PXPXPXPX",
"PXg.Y.8X.X9XgX8XQ.zXgXgXzXZ.[ E Y.nXnXgXtX0X3X>X&X].`...PXPXPXPX",
"0.g.qXgXqX.X9X>XH.zXqXgXgXqXqXb.o.CXFXCXnXkXqX3X&X].Q.X.PXPXPXPX",
"c.Y.zXgXkXiX|.$XA.zXgXsXgXgXnX8X[ 8XLXZXMXzXqX>X$X`.Y...PXPXPXPX",
"[ X.qXgXqX0X;Xi.6.zXsXgXgXzXb.3...].FXAXMXzXqX-X].Q.Y...PXPXPXPX",
"8 E 8XkX:X`.Q.u.&.gXkXgXgXzX:.[ [ H.FXCXzXqX1X&X].Y.H...PXPXPXPX",
"^ `.zXgXgXzXzXzXiXiXgXqXgXgXgXqXo.H.CXnXgX8X&X].Q.Y.Z...PXPXPXPX",
"~ ..H.gXgXgXgXgXgXgXqXgXgX8XqXgX[ Q.nXgX8X&X$XQ.Y.Z.g...PXPXPXPX",
"PX3 ~ 8XzXgXqXgXgXgXgXgXzXH.].Q.[ &XqX8X&X$X`.T.Z.b.g...PXPXPXPX",
"PX2 ^ 8XzXgXgXgXgXgXgXgXgXzX>X~ 3.>X8X&X$X`.Y.H.b.g.t...  PXPXPX",
"PXPX~ $Xt.$XgXzXzXgXqX].nXnXo.~ Q.>X$X].`.Y.H.b.g.t.3.... PXPXPX",
"PXPXPX^ 8 0.zX$X`.qXzX&XqX:.Y g.$X].].Q.Y.H.Z.g.t.3.3.... PXPXPX",
"PXPXPXPX5 :.qXZ.:.gXgXY.^ Y g.Q.`.`.Q.Y.H.Z.g.t.0.3.:.[ o PXPXPX",
"PXPXPXPXPX< [ @.:.@.~ Y [ g.Q.Q.Y.Y.H.Z.b.g.t.3.:.:.:...O PXPXPX",
"PXPXPXPXPX: 3.@...o.:.t.H.H.H.H.Z.Z.Z.g.g.t.0.3.:.@.+.[ O PXPXPX",
"PXPXPXPXPX> Z.Z.Z.Z.H.H.H.Z.Z.b.b.b.g.g.0.0.3.:.@.o.o.[ # PXPXPX",
"PXPXPXPXPX, 0.o.o.@.o.@.@.@.:.:.:.@.@.@.o.o...[ [ [ ^ [ # PXPXPX",
"PXPXPXPXPXPX* $ $ $ $ $ * $ * $ $ * * * * $ $ $ $ * $ * PXPXPXPX",
"PXPXPXPXPXPXPXPXPXPXPXPXPXPXPXPXPXPXPXPXPXPXPXPXPXPXPXPXPXPXPXPX"
};
