/* XPM */
static char *mahadasae_xpm[] = {
/* columns rows colors chars-per-pixel */
"24 24 85 1 ",
"  c #363D2C",
". c #424A36",
"X c #444B38",
"o c #4E5840",
"O c #4E534B",
"+ c #525B45",
"@ c #56614A",
"# c #5A654D",
"$ c #5C694E",
"% c #5B6750",
"& c #5E6A52",
"* c #616D54",
"= c #657456",
"- c #667359",
"; c #69755C",
": c #6C7B5D",
"> c #6C7660",
", c #6E7E60",
"< c #6F746C",
"1 c #717B64",
"2 c #6F8161",
"3 c #728263",
"4 c #778966",
"5 c #798C67",
"6 c #78826F",
"7 c #7B8E69",
"8 c #7E926D",
"9 c #7A8371",
"0 c #7A8178",
"q c #7F9370",
"w c #828F70",
"e c #80867D",
"r c #81897C",
"t c #829372",
"y c #869874",
"u c #899B76",
"i c #8D9C7B",
"p c #909E7E",
"a c #91A27E",
"s c #858A81",
"d c #888E86",
"f c #8C918A",
"g c #919F82",
"h c #939B88",
"j c #969994",
"k c #989D95",
"l c #999C98",
"z c #95A383",
"x c #98A687",
"c c #99A887",
"v c #9AA58C",
"b c #9CAB8B",
"n c #9FAD90",
"m c #9FA19E",
"M c #A1AE92",
"N c #A0A39F",
"B c #A5AF98",
"V c #A5B294",
"C c #A6B199",
"Z c #A9B59B",
"A c #ADBA9C",
"S c #A2A5A1",
"D c #A6A9A5",
"F c #AAADA7",
"G c #A9ACA8",
"H c #AFBCA0",
"J c #B1BCA2",
"K c #BDBEBC",
"L c #BFC1BE",
"P c #C6C8C3",
"I c #C9CCC6",
"U c #CCCCCC",
"Y c #CED2CC",
"T c #D0D1CE",
"R c #D1D1D1",
"E c #D6DCD4",
"W c #D9DCD7",
"Q c #DBDDDA",
"! c #D8E0D7",
"~ c #DCE2DA",
"^ c #E0E5DE",
"/ c #E3E5E0",
"( c #E5E8E0",
") c #E8EBE4",
"_ c None",
/* pixels */
"________________________",
"________________________",
"________________________",
"__:,,2222:=_____________",
"__7yyyyyyt5-____________",
"__5777575788tqqqqtqq83__",
"__47554333333332,,,384#_",
"__3433rFFGDDDSSSNNN9:3__",
"__232:f^!!!!!!!!!!^l-2__",
"__:,::d^!YYTYRYE!W^k*:__",
"__;::=r(/RRTRRRE//)k&;__",
"__=:=*e^~TUUUUUUUQ/j&-__",
"__*=&$0WEYYYUUUYTEQj@*__",
"__&&#@<YPLKLLKLLKPYd+#__",
"_.@@+oOd96666666966>%&#@",
"#>111119vBCCCCCMBBBBBBM;",
"1JJAHJHAbauuuuuyyyyytug-",
">Znacaaaaaaaaapaaipiupr@",
"_hZbbbbbcccxxzxxzzzzgz1_",
"_9AVVVVVVVVVVMnnnbncvb,_",
"_&uaaaabxxzvxzzzgppiiw@_",
"_ .oXXXXXXXXXXXX.X.X.. _",
"________________________",
"________________________"
};
