/* XPM */
static char *mahadasae_xpm[] = {
/* columns rows colors chars-per-pixel */
"32 32 97 2 ",
"   c #2F322E",
".  c #3F4634",
"X  c #404735",
"o  c #414B37",
"O  c #454E3A",
"+  c #47523C",
"@  c #4A543E",
"#  c #414541",
"$  c #444943",
"%  c #4E5A42",
"&  c #4B504A",
"*  c #515C44",
"=  c #555E48",
"-  c #525751",
";  c #555B54",
":  c #585D57",
">  c #526046",
",  c #57634A",
"<  c #59644A",
"1  c #5C6A4D",
"2  c #5C6751",
"3  c #5E6F51",
"4  c #5D625B",
"5  c #5F7052",
"6  c #626E53",
"7  c #61675F",
"8  c #656E5B",
"9  c #647255",
"0  c #69755B",
"q  c #6C7B5C",
"w  c #646B63",
"e  c #686D67",
"r  c #6A6F69",
"t  c #6D7563",
"y  c #6F7C60",
"u  c #6D736B",
"i  c #727D64",
"p  c #70766E",
"a  c #728363",
"s  c #778865",
"d  c #7A8C66",
"f  c #77826B",
"g  c #788668",
"h  c #778B69",
"j  c #7A8E68",
"k  c #7E916D",
"l  c #81956E",
"z  c #81837F",
"x  c #849672",
"c  c #869974",
"v  c #899A75",
"b  c #859179",
"n  c #8D9D7A",
"m  c #919F7E",
"M  c #8DA27D",
"N  c #93A37F",
"B  c #919F81",
"V  c #94A382",
"C  c #99A787",
"Z  c #97A883",
"A  c #99AA85",
"S  c #97A488",
"D  c #99A689",
"F  c #9CAB8B",
"G  c #9DA492",
"H  c #9DAA91",
"J  c #A1B08E",
"K  c #A2AF93",
"L  c #A4B294",
"P  c #A8B797",
"I  c #A9B69A",
"U  c #AFB7A2",
"Y  c #B3BEA4",
"T  c #B5BFAD",
"R  c #BEBEBD",
"E  c #B7C3AB",
"W  c #B9C2AC",
"Q  c #BDC5B3",
"!  c #BFCAB6",
"~  c #BEC1BB",
"^  c #C0C7B5",
"/  c #C2CAB6",
"(  c #C3CBB9",
")  c #C8D1BB",
"_  c #C4C5C4",
"`  c #C9D3C1",
"'  c #CCD7CB",
"]  c #CDD9CB",
"[  c #D7DCD4",
"{  c #DDDFDB",
"}  c #DCE0D6",
"|  c #DDE0DA",
" . c #E3E6DE",
".. c #E4E8DE",
"X. c #E8F1DB",
"o. c #E5E5E5",
"O. c None",
/* pixels */
"O.O.O.O.O.O.O.O.O.O.O.O.O.O.O.O.O.O.O.O.O.O.O.O.O.O.O.O.O.O.O.O.",
"O.O.O.O.O.O.O.O.O.O.O.O.O.O.O.O.O.O.O.O.O.O.O.O.O.O.O.O.O.O.O.O.",
"O.O.O.O.O.O.O.O.O.O.O.O.O.O.O.O.O.O.O.O.O.O.O.O.O.O.O.O.O.O.O.O.",
"O.O.O.O.O.O.O.O.O.O.O.O.O.O.O.O.O.O.O.O.O.O.O.O.O.O.O.O.O.O.O.O.",
"O.O.3 3 5 6 5 5 5 5 5 5 5 9 O.O.O.O.O.O.O.O.O.O.O.O.O.O.O.O.O.O.",
"O.O.5 M V M M V V M V M V h 5 O.O.O.O.O.O.O.O.O.O.O.O.O.O.O.O.O.",
"O.O.3 c j j j j j j j j j k k 5 5 5 5 5 5 5 5 5 5 5 3 3 5 5 O.O.",
"O.O.1 c j j j j j j j k j j k v V M M M M M M M M M M M c 3 O.O.",
"O.O.1 x d d d d d j d d h h j j j j j j j j j j j j j j x 1 O.O.",
"O.O., l s s s s g u u u r u e w 7 7 4 w 4 : : : - ; 8 s l , O.O.",
"O.O., k a a a a u  .o.o.o.o.o.o.o.o.o.o.o.o.o.o.o...& a k , O.O.",
"O.O.> k a a a a u o.] ] ' ] ] ' ] ] ' ' ] ] ' ' ] o.& a k > O.O.",
"O.O.* h y q y y w o.[ [ [ [ { [ [ [ [ [ [ [ [ [ [ o.& q h * O.O.",
"O.O.% g q q q q 7 X... ._ R R R _ R _ R _  .......X.& q f % O.O.",
"O.O.% g q 9 q 9 4 o.o.o.o.o.o.o.o.o.o.o.o.o.o.o.o.o.& 0 a % O.O.",
"O.O.@ a 0 0 9 9 : ..| | _ R R R R R R R R R _ | {  .& 9 i @ O.O.",
"O.O.+ i 6 6 6 6 - } [ [ [ [ [ [ [ [ [ [ [ [ [ [ [ { & 3 t + O.O.",
"O.O.O 0 3 1 1 1 - } [ [ _ R R R R R R R R R _ [ [ } & , 8 O O.O.",
"O.O.O 0 < < < < $ R R R R R R T R R R R R T R R R R o = 6 O O.O.",
"O.O.o 6 < > * *   z t 2 * * > > % = * * > > % = * * = = > > > = ",
"* * * * * % * % * = t U Q Q ^ ^ ! ! / / / ! ^ / / ! Q Q Q Q I % ",
"* U ^ ^ ( ( ) ) ) ) ^ L n c v v v c v c c v c x x x b x l m G % ",
"@ T P A A A A A A N m n M n n n v v v c v c v c c c b c c V b + ",
"+ G Y Z Z Z Z Z N N N N V N N M V V V B B m B m m n n n n S 0 O.",
"O.t E F F A A A F A F D A S C D S S V C C V V V B V B B B B % O.",
"O.+ E L L L L L J J J F J F F F F F D F D F D D D S D S S S O O.",
"O.X I I P P P P I I I I I I I I I I I L L L K K K K H F H S X O.",
"O.. q N N N A N C A A A F F F J F F A C S S C M M m m n v 6 X O.",
"O.O.X X o o X X . . . X X X X X X X X X . . X . X X X X X X O.O.",
"O.O.O.O.O.O.O.O.O.O.O.O.O.O.O.O.O.O.O.O.O.O.O.O.O.O.O.O.O.O.O.O.",
"O.O.O.O.O.O.O.O.O.O.O.O.O.O.O.O.O.O.O.O.O.O.O.O.O.O.O.O.O.O.O.O.",
"O.O.O.O.O.O.O.O.O.O.O.O.O.O.O.O.O.O.O.O.O.O.O.O.O.O.O.O.O.O.O.O."
};
