/* XPM */
static char *maitreya_xpm[] = {
/* columns rows colors chars-per-pixel */
"24 24 244 2 ",
"   c #33322E",
".  c #3C3733",
"X  c #49473E",
"o  c #4C453E",
"O  c #3E4B4A",
"+  c #4B4641",
"@  c #494946",
"#  c #4C4C4D",
"$  c #514845",
"%  c #534C45",
"&  c #5C4C46",
"*  c #4F5148",
"=  c #57564C",
"-  c #585B4A",
";  c #455352",
":  c #5C5753",
">  c #595A56",
",  c #66544B",
"<  c #65564B",
"1  c #6C5A4D",
"2  c #775D4B",
"3  c #645C52",
"4  c #6E5A50",
"5  c #645E58",
"6  c #715D51",
"7  c #59694D",
"8  c #656A56",
"9  c #716453",
"0  c #786456",
"q  c #77695A",
"w  c #7D6A5B",
"e  c #6E7155",
"r  c #6D7A5C",
"t  c #79785D",
"y  c #6E6661",
"u  c #6A6963",
"i  c #756A67",
"p  c #6A7160",
"a  c #7D7262",
"s  c #797869",
"d  c #82634F",
"f  c #846657",
"g  c #82695C",
"h  c #847159",
"j  c #8C715E",
"k  c #93795D",
"l  c #A3715D",
"z  c #AB725D",
"x  c #B67E5F",
"c  c #876D64",
"v  c #986C65",
"b  c #857361",
"n  c #897669",
"m  c #997865",
"M  c #997F6B",
"N  c #867C72",
"B  c #957877",
"V  c #A97B65",
"C  c #B57B69",
"Z  c #BA7876",
"A  c #C67B67",
"S  c #C17C7F",
"D  c #6E836B",
"F  c #AF815C",
"G  c #8A856B",
"H  c #958368",
"J  c #869C6F",
"K  c #868671",
"L  c #868578",
"P  c #988679",
"I  c #85937F",
"U  c #9A9576",
"Y  c #A7876B",
"T  c #AC866C",
"R  c #B48460",
"E  c #B98769",
"W  c #A28A7A",
"Q  c #B88974",
"!  c #AE9370",
"~  c #B59C79",
"^  c #B89978",
"/  c #94A97B",
"(  c #BDA17E",
")  c #C8886A",
"_  c #D68869",
"`  c #C99368",
"'  c #D3926B",
"]  c #D6996F",
"[  c #D58B72",
"{  c #DD8E70",
"}  c #CA9771",
"|  c #D59777",
" . c #DC9B73",
".. c #E38869",
"X. c #E69567",
"o. c #EC9A66",
"O. c #E39A6D",
"+. c #EE9C6F",
"@. c #E69473",
"#. c #EF9772",
"$. c #E49C74",
"%. c #EC9E7A",
"&. c #C8A17A",
"*. c #D9A479",
"=. c #ECA174",
"-. c #EDAA75",
";. c #E5A179",
":. c #EEA679",
">. c #E7AC7A",
",. c #F2A274",
"<. c #F4AB74",
"1. c #F9AF72",
"2. c #F3AD7C",
"3. c #EDB376",
"4. c #F6B675",
"5. c #FBB273",
"6. c #F2B179",
"7. c #F7C07E",
"8. c #957882",
"9. c #B37D8E",
"0. c #CA7E95",
"q. c #698891",
"w. c #769E9D",
"e. c #719AA7",
"r. c #7EA4A6",
"t. c #71A3A8",
"y. c #6AA5B8",
"u. c #7AA5B0",
"i. c #7BABB3",
"p. c #77A8B8",
"a. c #7AACC1",
"s. c #7BB8CA",
"d. c #7EC5D9",
"f. c #7DCBEC",
"g. c #7FD0EF",
"h. c #7DD2F9",
"j. c #848B8B",
"k. c #879884",
"l. c #98938B",
"z. c #8A9995",
"x. c #979993",
"c. c #B3888A",
"v. c #A19D82",
"b. c #BD8A91",
"n. c #A09F9D",
"m. c #9AA198",
"M. c #BBA183",
"N. c #B8A687",
"B. c #A3A59E",
"V. c #B0B692",
"C. c #999FA1",
"Z. c #85ADA7",
"A. c #9CA5A6",
"S. c #90B9AC",
"D. c #81B1B6",
"F. c #87B6BB",
"G. c #A9A6A1",
"H. c #B5AEA1",
"J. c #A1B2AC",
"K. c #BEB4AA",
"L. c #A6B7B7",
"P. c #B8B7B3",
"I. c #C8808F",
"U. c #D88B86",
"Y. c #D9958B",
"T. c #CC8996",
"R. c #DA8B96",
"E. c #D99099",
"W. c #E48C94",
"Q. c #E8899A",
"!. c #EB8C9A",
"~. c #F18E9F",
"^. c #E7929A",
"/. c #F89393",
"(. c #C6AA8C",
"). c #CAAB8C",
"_. c #DBAB82",
"`. c #CDB285",
"'. c #D5B187",
"]. c #C4AD94",
"[. c #CFB792",
"{. c #D3B995",
"}. c #D7BB98",
"|. c #E4B384",
" X c #E3B48A",
".X c #E5B88A",
"XX c #E6AF95",
"oX c #E8B992",
"OX c #CA97A6",
"+X c #D592A3",
"@X c #DD9BAC",
"#X c #E587A3",
"$X c #E48AA4",
"%X c #EB8DA2",
"&X c #E68DA9",
"*X c #E794A8",
"=X c #E69BB1",
"-X c #C5BAAB",
";X c #E5A4A9",
":X c #B0CAA3",
">X c #A2CAB3",
",X c #BFC2BC",
"<X c #D3C09F",
"1X c #DBC09A",
"2X c #E8C28F",
"3X c #F9C486",
"4X c #F7C289",
"5X c #EDC59C",
"6X c #F9CE9E",
"7X c #CCC5AF",
"8X c #DAC5A6",
"9X c #C4C3B3",
"0X c #D7CBB6",
"qX c #E8C5A2",
"wX c #E6CEAC",
"eX c #F3CBA5",
"rX c #EED0AA",
"tX c #F7D5AB",
"yX c #F9D5AE",
"uX c #E5CDB1",
"iX c #E5D1B5",
"pX c #F2D5B4",
"aX c #84B9C4",
"sX c #8ABDD0",
"dX c #A2BDC9",
"fX c #B4BDC0",
"gX c #86C6DA",
"hX c #AFC3CC",
"jX c #A0D1C4",
"kX c #98D7EC",
"lX c #80D7FC",
"zX c #95DDFD",
"xX c #CECEC9",
"cX c #CFD3D2",
"vX c #E5D9C8",
"bX c #E5D7D1",
"nX c #F8E8CA",
"mX c #FCF4DF",
"MX c #CCE0EC",
"NX c #F9EDE6",
"BX c #FCF5E9",
"VX c #FEFAEA",
"CX c #FEFEF4",
"ZX c #FFFFF8",
/* pixels */
"S.J U h % % , j j v V T T m 4 + + > 0 q.u.e.S.:X",
"V./ k.t $ + & f l (.8XM.M.}.( f % % 4 e.F.u.gX>X",
"V.>XaXz.u X , k }.mX9X3 = -XnX'.w $ 3 u.F.r.lXjX",
"Z.i.aXw.q.+ 1 (.mXxX5 3 , 3 xXnX! & : p.D.r.f.kX",
"gXd.s.t.i.* 6 uXCXB.0 (.( 1 P.VX[.< > s.D.u.lXzX",
"zXh.d.t.p.; 1 uXZXbXM.[.&.T bXCX}.& u sXD.i.gXzX",
"zXh.g.t.y.O o ].BXBXrXoX>.XXNXmX^ & W -Xl.j.a.kX",
"zXh.f.t.a.; . j wXmXpX X .XXnX1Xf o N.[.^ m P G.",
"cXdXgXJ.9X=   9 `.tXpX5X;.@.:.[ 0 o ~ &.~ Y H 0 ",
"vX<X0X8X<X= 3 1XtXtXyXoX:.+.,.#.$.d H Y G t - & ",
"K.vXiX<XN.= W eXeXyX6X4X7.6.2.+.<.R w W H b a n ",
"L H.7XH.v.- ].5X| 2.4X3X4.2.2.+.,.` y A.B.x.W N ",
"A.C.hXcX,Xi iXqXA ..+.,.<.:.%.@.%. .i P.L.z.A.m.",
"L.F.hXMXA.n pXM.j A ..#.=.$.{ [ ;.>.M l.k.D I k.",
"m.z.z.P.j.b qX).h z A #.$.{ A C  .:.Q 7 r r r s ",
"A.p p 5 % $ &.qX{.Q [ $.$.) V  .3.:.R * * e u c.",
"P.8 7 X d F ` ;._._.*. X.X_.*.-.$.' E h + < c B ",
"K 8 7 2 O.5.3.$.) R &._..X2X'.} ` *.3.-.k q g t ",
"K t b C X.5.5.4.1.3.-.' }  X.X|.>.6.5.+.U.f q j ",
"K e Z W.[ X.o.o.o.o.) x R _ O.O.O.=.{ U.W.9.g u ",
"5 4 U./.^.Y.Q C z l z ]  .C ) ) Y.Y.$XQ.~.R.c i ",
"i , v R.!.~.%X^.+XOXb.;X;XOX@X+X@X%X%XW.W.P G G ",
"u p i B 9.T.$X$X#X&X&X&X*X%X&X$X&X$XT.c.W U s 8 ",
"> @ # y N i +X0.*X=X0.=X*XR.=XOXB P L N L K : * "
};
