/* XPM */
static char *maitreya_xpm[] = {
/* columns rows colors chars-per-pixel */
"24 24 238 2 ",
"   c #5D3A37",
".  c #5D3C38",
"X  c #633B37",
"o  c #663D3A",
"O  c #63413C",
"+  c #6C423D",
"@  c #6E493F",
"#  c #70423B",
"$  c #754B3D",
"%  c #7C493D",
"&  c #4B3C44",
"*  c #413B48",
"=  c #4A434C",
"-  c #594140",
";  c #584548",
":  c #614443",
">  c #6B4640",
",  c #6B4A45",
"<  c #6F4A48",
"1  c #734A41",
"2  c #734C4D",
"3  c #795246",
"4  c #74544F",
"5  c #7B554D",
"6  c #76594D",
"7  c #7C5454",
"8  c #79595C",
"9  c #7F6265",
"0  c #AD393C",
"q  c #BC343C",
"w  c #BA3A3D",
"e  c #CA383F",
"r  c #864A39",
"t  c #944D39",
"y  c #8B533F",
"u  c #9A523A",
"i  c #9E593C",
"p  c #A6473C",
"a  c #BA443E",
"s  c #B64C3C",
"d  c #A4533F",
"f  c #AC563B",
"g  c #A15B3C",
"h  c #AC5B3C",
"j  c #B6553B",
"k  c #BD503E",
"l  c #B75B3A",
"z  c #B85C39",
"x  c #B6633A",
"c  c #BF623E",
"v  c #B66D3B",
"b  c #BD6C3D",
"n  c #B5723C",
"m  c #BC753E",
"M  c #B47A3D",
"N  c #BA793E",
"B  c #C3443E",
"V  c #CA473F",
"C  c #C34A3F",
"Z  c #C2543E",
"A  c #C25C3E",
"S  c #C9583F",
"D  c #C4673E",
"F  c #884D47",
"G  c #954C4B",
"H  c #815644",
"J  c #895B47",
"K  c #84524E",
"L  c #8D544C",
"P  c #845D4E",
"I  c #935040",
"U  c #935D46",
"Y  c #9C5C43",
"T  c #955249",
"R  c #96594F",
"E  c #845453",
"W  c #875B56",
"Q  c #825B59",
"!  c #905551",
"~  c #9A5454",
"^  c #955853",
"/  c #9A5D54",
"(  c #9A5B5B",
")  c #AB4542",
"_  c #B44B43",
"`  c #A75047",
"'  c #AE5743",
"]  c #A15D41",
"[  c #A15E4C",
"{  c #A95B4C",
"}  c #B05F47",
"|  c #BD5D44",
" . c #B75F48",
".. c #A95555",
"X. c #AD5B54",
"o. c #B25B52",
"O. c #B05F5D",
"+. c #8D634D",
"@. c #9F6147",
"#. c #977046",
"$. c #95724D",
"%. c #846154",
"&. c #8D6A56",
"*. c #8B6B5A",
"=. c #9B6552",
"-. c #9B6B52",
";. c #946858",
":. c #9E7057",
">. c #AB6345",
",. c #AA6941",
"<. c #A56349",
"1. c #A36A4B",
"2. c #B86C48",
"3. c #A67547",
"4. c #BD7344",
"5. c #B57E43",
"6. c #BE7E43",
"7. c #AE6454",
"8. c #A66857",
"9. c #AC6852",
"0. c #AA645D",
"q. c #A96F5A",
"w. c #B26354",
"e. c #B16852",
"r. c #B6675F",
"t. c #A97158",
"y. c #AB7858",
"u. c #B37351",
"i. c #B1735C",
"p. c #A85567",
"a. c #B85D62",
"s. c #A85E72",
"d. c #8B6262",
"f. c #826A68",
"g. c #946363",
"h. c #956A60",
"j. c #946C6C",
"k. c #9D696A",
"l. c #8F756A",
"z. c #9A7363",
"x. c #9C746A",
"c. c #966E72",
"v. c #9D6D72",
"b. c #9D7473",
"n. c #997678",
"m. c #9C7B7A",
"M. c #A16261",
"N. c #AE6364",
"B. c #A66C62",
"V. c #AC6A64",
"C. c #AF686D",
"Z. c #B16663",
"A. c #B96864",
"S. c #B46E6C",
"D. c #BA6C6D",
"F. c #A37261",
"G. c #AB7363",
"H. c #AC7F63",
"J. c #A5726B",
"K. c #AD736C",
"L. c #AE786F",
"P. c #B2716C",
"I. c #B2796A",
"U. c #AD6A73",
"Y. c #AF677D",
"T. c #B56F70",
"R. c #A57473",
"E. c #AC7373",
"W. c #A57B73",
"Q. c #AB7973",
"!. c #A37D7C",
"~. c #AC7C7B",
"^. c #B57273",
"/. c #BA7375",
"(. c #B37B73",
"). c #B17D7A",
"_. c #CB4842",
"`. c #C54F48",
"'. c #C45246",
"]. c #C35C44",
"[. c #C36244",
"{. c #C36C43",
"}. c #C27A43",
"|. c #C27F48",
" X c #AF8044",
".X c #AE8E4F",
"XX c #B48444",
"oX c #BC8443",
"OX c #B6844C",
"+X c #BF8148",
"@X c #B88C49",
"#X c #A3865F",
"$X c #B38958",
"%X c #B29051",
"&X c #BD9453",
"*X c #B2935C",
"=X c #BA9A5C",
"-X c #968272",
";X c #AD8367",
":X c #B08469",
">X c #AD9365",
",X c #B49661",
"<X c #BD9D63",
"1X c #B49B6A",
"2X c #AC847C",
"3X c #AE897D",
"4X c #B58277",
"5X c #B1827C",
"6X c #AA9375",
"7X c #B39C74",
"8X c #B89B7B",
"9X c #BDA26C",
"0X c #B5A07B",
"qX c #C28148",
"wX c #C28B4D",
"eX c #C29456",
"rX c #AC5480",
"tX c #B05581",
"yX c #9C7D81",
"uX c #AC7F82",
"iX c #BA7C82",
"pX c #9A8A87",
"aX c #9B9087",
"sX c #A28384",
"dX c #AC8483",
"fX c #AC8A8A",
"gX c #B48581",
"hX c #B68887",
"jX c #A9958B",
"kX c #A78B90",
"lX c #A4959B",
"zX c #B39E9A",
"xX c #B3A286",
"cX c #BAA584",
"vX c #B8A88B",
"bX c #B4A793",
"nX c #B3A39C",
"mX c #A699A1",
/* pixels */
"B C Z c v N 3.+.6 & o 5 4 . ; 8 $.5.M n x l s a ",
"B Z A b 4.XX@.3 = & 1 *.*., = = %.3. XM v x j s ",
"C Z D m oX5.r - & + J +.P P O * , U .X@Xn x l s ",
"'.A b 6.@X#.+ - O H +.J H &.@   X $ >X.X Xn x j ",
"].D m oX&X$.# 1 $ +.+.&.&.+.$ 1 + O >X*XXXM x j ",
"].{.}.@X=X#XO > 3 +.+.%.+.+.1 @ O . 6X1X%X5.v z ",
"].{.+X&X<X7X> > 3 P n.m.2Xb.6 $ X 9 xX7X*XXXv z ",
"[.{.+X&X9XcXl.O < d.sXuXkXm.4 1 4 aXbX0X,XOXv z ",
"].D +XeX9XvXfX9 Q 7 j.C.b.8 7 < j.nXbX0X>XOX2.z ",
" .2.|.eX9XcXL.n.b.Q h.K.R.7 g.W R.zXbX0X,XOX2. .",
",.>.}.eX9XcX~.!.~.5X5XdXdX!.E.( 2XnXvX7X*XP.U.Y.",
"t Y }.wX<X8XE.c.U.P.4X~.~.U.N.~ 2XnXxX1X$Xs.rXtX",
"p | D qXeX8XT.p.~ M.L.).).V.~ ( !.jX0X,Xu.O.p.p.",
"a S D }.#.W./.k.E R.P.5X5Xb.2 d.uXn.*.y.6.h u K ",
"'.V S r : k.fXn.L B.P.gXQ.yX8 f.sXc.: 3 ,.i t K ",
"`.V k % r B.pXh.] 9.(.dXL.=.( W l./ % y g t T ( ",
"_.B I 1.2.(.g.~ <.e.(.5XG.1.@.! v.W.Y U ' p ) 0.",
"e s =.i.T.Z.x.;.8.7.^.5XV.t.z.pXpXdXq.=.{ w q ..",
"e 7.3XhX/.a.dXlXG.w.P.).P.e.L.mXkX~.).x.=.w q ) ",
"| q.3X4XiXD.^.lXW.} r.^.).P.~.dX).).dXz.U 0 _ Y ",
"i.y.H.L.hXD.Z.uXm.h { A.S.T.S.N.O.{ 8.B.y d >.g ",
"Z.:.1./ iX/.Z.! R ' >.e.w.o.~ ! G I ] f f f h h ",
"w.F.9.[ D.A...G ^ K.i.u.u.[ [ T G F 8.Y i h ,.1.",
"X.dX:X;XI.X.` J.pXH.G.:X;X-.-Xx.0.` 0.Q K B.J.J."
};
