/* XPM */
static char *mview_xpm[] = {
/* columns rows colors chars-per-pixel */
"24 24 169 2 ",
"   c #83848A",
".  c #8A8B92",
"X  c #8A8B93",
"o  c #8B8B93",
"O  c #8B8C94",
"+  c #8C8C94",
"@  c #8C8D95",
"#  c #9798A0",
"$  c #A4A4AA",
"%  c #A5A6AF",
"&  c #A9AAAF",
"*  c #AAAAAF",
"=  c #A7A8B1",
"-  c #ABABB1",
";  c #A9A9B2",
":  c #ACADB1",
">  c #ADADB2",
",  c #ADAEB3",
"<  c #AEAEB3",
"1  c #ACADB5",
"2  c #AEAFB7",
"3  c #AFB0B8",
"4  c #B0B0B4",
"5  c #B4B5B7",
"6  c #B7B7BA",
"7  c #B6B7BF",
"8  c #B8B9C2",
"9  c #BCBCC4",
"0  c #BEBFC6",
"q  c #C0C1C9",
"w  c #C3C4CA",
"e  c #C6C6CB",
"r  c #C6C6CD",
"t  c #C6C6CE",
"y  c #C8C8CF",
"u  c #CACAD1",
"i  c #CACBD3",
"p  c #CDCED3",
"a  c #CECED3",
"s  c #CDCDD4",
"d  c #CCCCD5",
"f  c #CDCDD5",
"g  c #CDCED4",
"h  c #CECFD4",
"j  c #CFCFD5",
"k  c #CFCFD7",
"l  c #D0CFD7",
"z  c #D0D0D5",
"x  c #D2D2D4",
"c  c #D0D0D6",
"v  c #D1D1D6",
"b  c #D0D1D7",
"n  c #D1D1D7",
"m  c #D2D2D7",
"M  c #D2D3D7",
"N  c #D2D2D9",
"B  c #D3D3DA",
"V  c #D7D6D8",
"C  c #D4D4DB",
"Z  c #D5D4DC",
"A  c #D6D5DC",
"S  c #D6D6DC",
"D  c #D9D8DA",
"F  c #D9D9DA",
"G  c #DAD9DA",
"H  c #DBDADC",
"J  c #DBDBDC",
"K  c #DBDBDD",
"L  c #D8D8DE",
"P  c #D9D9DF",
"I  c #DAD9DF",
"U  c #DADADE",
"Y  c #DADADF",
"T  c #DAD9E0",
"R  c #DADAE0",
"E  c #DBDBE0",
"W  c #DBDBE3",
"Q  c #DCDBE3",
"!  c #DCDCE1",
"~  c #DDDDE2",
"^  c #DEDFE3",
"/  c #DFDFE3",
"(  c #DFDEE5",
")  c #E0DFE6",
"_  c #E0E0E4",
"`  c #E1E0E7",
"'  c #E2E2E6",
"]  c #E3E3E7",
"[  c #E4E3E7",
"{  c #E4E4E6",
"}  c #E2E1E8",
"|  c #E4E3E9",
" . c #E5E5E8",
".. c #E4E4E9",
"X. c #E5E6E8",
"o. c #E7E7E9",
"O. c #E5E4EA",
"+. c #E5E5EB",
"@. c #E6E5EB",
"#. c #E6E6EB",
"$. c #E7E6EB",
"%. c #E6E6EC",
"&. c #E7E6EC",
"*. c #E7E7EC",
"=. c #E8E7ED",
"-. c #EBEBEB",
";. c #E9E8ED",
":. c #EAE9EE",
">. c #EAEAEE",
",. c #EAEAEF",
"<. c #EBEAEF",
"1. c #EBEBEF",
"2. c #ECEBEF",
"3. c #EBEBF0",
"4. c #ECEBF0",
"5. c #ECECF0",
"6. c #EDECF0",
"7. c #EDECF1",
"8. c #EDEDF1",
"9. c #EEEDF0",
"0. c #EEEDF1",
"q. c #EEEEF1",
"w. c #EEEDF2",
"e. c #EEEEF2",
"r. c #EFEFF3",
"t. c #F0EFF3",
"y. c #F0F0F3",
"u. c #F0F0F4",
"i. c #F1F0F4",
"p. c #F1F1F4",
"a. c #F1F1F5",
"s. c #F2F1F5",
"d. c #F2F2F4",
"f. c #F2F2F5",
"g. c #F3F2F5",
"h. c #F3F3F5",
"j. c #F2F2F6",
"k. c #F3F3F6",
"l. c #F3F3F7",
"z. c #F4F3F6",
"x. c #F4F4F6",
"c. c #F4F4F7",
"v. c #F5F5F7",
"b. c #F6F5F9",
"n. c #F6F6F8",
"m. c #F7F6F8",
"M. c #F7F6F9",
"N. c #F7F7F9",
"B. c #F8F7F9",
"V. c #F8F7FA",
"C. c #F8F8F9",
"Z. c #F8F8FA",
"A. c #F9F8FA",
"S. c #F9F9FA",
"D. c #F9F9FB",
"F. c #FAF9FB",
"G. c #FAFAFB",
"H. c #FAFAFC",
"J. c #FBFAFC",
"K. c #FBFBFC",
"L. c #FCFBFD",
"P. c #FCFCFD",
"I. c #FDFCFD",
"U. c #FDFDFE",
"Y. c #FEFDFE",
"T. c #FEFEFE",
"R. c #FFFEFF",
"E. c #FFFFFF",
"W. c None",
/* pixels */
"W.W.W.W.W.W.W.W.W.W.W.W.W.W.W.W.W.W.W.W.W.W.W.W.",
"W.+.e.e.e.e.e.e.e.T 0 W.W.W.W.W.W.W.W.W.W.W.W.W.",
"W.e.E.E.E.E.F.n.a.+.n = W.W.W.W.W.W.W.W.W.W.W.W.",
"W.e.E.E.E.J.F.z.e.%.3.y 1 W.W.W.W.W.W.W.W.W.W.W.",
"W.e.E.E.E.E.J.n.e.i j e 1 # W.W.W.W.W.W.W.W.W.W.",
"W.e.E.E.E.E.L.n.t.Q n i q @ W.W.W.W.W.W.W.W.W.W.",
"W.e.E.E.E.E.F.V.a.e.} Q j $ e %.%.=.n 8 W.W.W.W.",
"W.e.E.E.E.E.J.n.e.+.` ) b 1 J F.n.n.%.j % W.W.W.",
"W.e.E.E.E.K.F.y.>.+.O.O.B , D n.a.r.%...9 ; W.W.",
"W.9.E.E.E.F.a.e.e.>.>.>.S , G F.n.e.S ( z 3 W.W.",
"W.e.E.E.F.a.y.y.e.4.>.>.L , H F.n.e.j e q 8 o W.",
"W.e.E.E.c.c.c.y.e.e.>.>.H , H J.F.a.r.} T j o W.",
"W.e.E.F.F.c.a.y.t.e.e.>.T , H J.n.a.%.( ( k o W.",
"W.e.E.F.n.c.c.a.a.e.2.e.T , G V.a.3.%.+.} V o W.",
"W.e.E.F.n.c.a.a.e.e.2.2.H , V a.e.3.>.%.>.S o W.",
"W.e.E.J.J.F.V.n.n.a.a.y.~ - b y.r.e.3.>.3.S o W.",
"W.i M b M b b b b j p p w * x y.y.y.e.>.>.T o W.",
"W.W.W.W.W.W.W.W.W.  * 5 4 6 J d.y.y.e.9.>.H o W.",
"W.W.W.W.W.W.W.W.W.W.H >.` { 9.c.a.a.e.e.e.T o W.",
"W.W.W.W.W.W.W.W.W.W.e.E.F.c.c.c.a.y.e.9.2.T o W.",
"W.W.W.W.W.W.W.W.W.W.y.E.F.F.F.c.x.a.a.e.e.! o W.",
"W.W.W.W.W.W.W.W.W.W.H o.{ +.{ { ` ` ` ~ / b @ W.",
"W.W.W.W.W.W.W.W.W.W.# o o o + o o o o o o O W.W.",
"W.W.W.W.W.W.W.W.W.W.W.W.W.W.W.W.W.W.W.W.W.W.W.W."
};
