/* XPM */
static char *mview_xpm[] = {
/* columns rows colors chars-per-pixel */
"32 32 65 1 ",
"  c #9C9CA0",
". c #ADADAF",
"X c #A6A7B0",
"o c #AFAFB1",
"O c #B0B0B2",
"+ c #B2B1B3",
"@ c #B2B2B2",
"# c gray70",
"$ c gray71",
"% c #B4B4B6",
"& c #B7B7B7",
"* c #B0B1BA",
"= c #B2B3BA",
"- c #B7B7BF",
"; c #C1C0C2",
": c #C7C6CE",
"> c #D7D7DF",
", c #DCDCDE",
"< c #DDDDDF",
"1 c #D9D9E1",
"2 c #DCDBE3",
"3 c #DEDEE0",
"4 c #DFDFE1",
"5 c #DDDCE4",
"6 c #DEDDE5",
"7 c #E1E1E3",
"8 c #E2E2E4",
"9 c #E3E2E4",
"0 c #E3E3E5",
"q c #E0E0E6",
"w c #E1E0E6",
"e c #E2E1E7",
"r c #E4E3E5",
"t c #E4E3E7",
"y c #E5E4E6",
"u c #E4E3E9",
"i c #E6E6E8",
"p c #E5E4EA",
"a c #E6E5EB",
"s c #E7E6EC",
"d c #E8E7E9",
"f c #E8E7ED",
"g c #EAEAEA",
"h c #E9E9ED",
"j c #EAEAEE",
"k c #EBEBEF",
"l c #ECEBF1",
"z c #EEEDF1",
"x c #EFEFF1",
"c c #EEEEF2",
"v c #F0F0F4",
"b c #F2F1F5",
"n c #F3F3F5",
"m c #F4F4F6",
"M c #F5F5F7",
"N c #F7F6F8",
"B c #F7F7F9",
"V c #F8F7F9",
"C c #F9F9FB",
"Z c #FAFAFC",
"A c #FBFAFC",
"S c #FCFBFD",
"D c #FEFEFE",
"F c gray100",
"G c None",
/* pixels */
"GGGGGGGGGGGGGGGGGGGGGGGGGGGGGGGG",
"G555555555555XGGGGGGGGGGGGGGGGGG",
"G5FFFFFFFFFS5zXGGGGGGGGGGGGGGGGG",
"G5FFFFFABmlv5z*XGGGGGGGGGGGGGGGG",
"G2FFFFFCBBnb5z5=XGGGGGGGGGGGGGGG",
"G2FFFFFSABnb5Fba-XGGGGGGGGGGGGGG",
"G5FFFFFFSBMbXXXXXXGGGGGGGGGGGGGG",
"G5FFFFFFSCmbclq>>XGGGGGGGGGGGGGG",
"G5FFFFFFCCNnzu5>1X :55555XGGGGGG",
"G5FFFFFFFCVvfq555X&gFFFS5zXGGGGG",
"G5FFFFFFCNvjau0qaX$qNmlb5z*XGGGG",
"G5FFFFACCnzjfaauaX$qBNbv5b5=XGGG",
"G5FFFFFCnzllfjfajX$qABmb2Fna-XGG",
"G5FFFFCnvnzzljhfjX$yABNbXXXXXXGG",
"G5FFFCNnnvvzzljfzX$yACMbzlq>>XGG",
"G5FFFNNnnvvzzljfzX$dACNmzu5>1XGG",
"G2FFSBMNvbbbczhhzX$aFCBnfq55qXGG",
"G2FFZBMmmbbzcczlzX$yZBchau0qeXGG",
"G5FFCBNmmmbbczhhzX@8CmcjfaauaXGG",
"G5FFCMNmmbbnczhjcX@8mclhfffajXGG",
"G5FFBBNmvvbczlhjzX@,bcclljjajXGG",
"G5FFFFFSSSZCNNNmBX.<nbblzjjjlXGG",
"GXXXXXXXXXXXXXXXXX.<nbzlzzjjzXGG",
"GGGGGGGGGGGGG &&@o;0nbbbzzjjzXGG",
"GGGGGGGGGGGGG:gaq40cmnbbvzlhcXGG",
"GGGGGGGGGGGGG5FFCBNMmnbbzzlhcXGG",
"GGGGGGGGGGGGG5FFBBmMnbbczllhcXGG",
"GGGGGGGGGGGGG5FFBBmmnbnzvljfcXGG",
"GGGGGGGGGGGGG5FFFFFFFCCCBmNmBXGG",
"GGGGGGGGGGGGGXXXXXXXXXXXXXXXXXGG",
"GGGGGGGGGGGGGGGGGGGGGGGGGGGGGGGG",
"GGGGGGGGGGGGGGGGGGGGGGGGGGGGGGGG"
};
