/* XPM */
static char *new_xpm[] = {
/* columns rows colors chars-per-pixel */
"24 24 151 2 ",
"   c #444444",
".  c #454545",
"X  c #767676",
"o  c #787878",
"O  c #7F7F7F",
"+  c #BAB435",
"@  c #BEB735",
"#  c #B6B13C",
"$  c #F9EE17",
"%  c #F9EE18",
"&  c #FFF415",
"*  c #FDF21F",
"=  c #CEC73C",
"-  c #E7DE31",
";  c #E7DF33",
":  c #FDF32A",
">  c #A29E4F",
",  c #888769",
"<  c #9F9C67",
"1  c #C9C242",
"2  c #E7DF50",
"3  c #E5DE53",
"4  c #E5DE5B",
"5  c #F5ED4C",
"6  c #FCF346",
"7  c #FEF547",
"8  c #FBF348",
"9  c #FCF448",
"0  c #FDF549",
"q  c #FFF64B",
"w  c #FDF44D",
"e  c #FEF64E",
"r  c #F6EF5F",
"t  c #F8F052",
"y  c #F9F152",
"u  c #F9F157",
"i  c #FDF555",
"p  c #FAF259",
"a  c #F8F15F",
"s  c #E0DB76",
"d  c #F7F060",
"f  c #FAF365",
"g  c #F6F06D",
"h  c #F8F16B",
"j  c #FDF66B",
"k  c #FDF76C",
"l  c #FEF87F",
"z  c #808080",
"x  c #818181",
"c  c #828282",
"v  c #858582",
"b  c #848484",
"n  c #868686",
"m  c #898989",
"M  c #8D8D8D",
"N  c #909090",
"B  c #939393",
"V  c #969696",
"C  c #999999",
"Z  c #9D9D9D",
"A  c #A0A0A0",
"S  c #A3A3A3",
"D  c #A6A6A6",
"F  c #A9A9A9",
"G  c #ABABAB",
"H  c #AEAEAE",
"J  c #B1B1B1",
"K  c #B3B3B3",
"L  c #B4B4B4",
"P  c #DAD79B",
"I  c #F5EF82",
"U  c #F1EC8C",
"Y  c #F2ED8D",
"T  c #F5F087",
"R  c #FDF889",
"E  c #FDF88A",
"W  c #EEEA9A",
"Q  c #F1ED9D",
"!  c #F3EF9F",
"~  c #FEF896",
"^  c #FEF996",
"/  c #F7F3AB",
"(  c #F3F0AD",
")  c #EEEBB9",
"_  c #EFEDBB",
"`  c #F1EEB1",
"'  c #FEFBB4",
"]  c #FEFBB5",
"[  c #C9C9C9",
"{  c #CACACA",
"}  c #CBCBCB",
"|  c #CDCDCD",
" . c #D5D4C4",
".. c #D1D1D1",
"X. c #D6D6D6",
"o. c #D8D8D8",
"O. c #D9D9D9",
"+. c #DBDBDB",
"@. c #DCDCDC",
"#. c #DEDEDE",
"$. c #DFDFDF",
"%. c #E9E8CD",
"&. c #EAE9CE",
"*. c #F0EEC7",
"=. c #FEFBC8",
"-. c #FEFBC9",
";. c #E7E6D2",
":. c #EBEAD6",
">. c #EEEDDD",
",. c #E0E0E0",
"<. c #E1E1E1",
"1. c #E2E2E2",
"2. c #E3E3E3",
"3. c #E4E4E4",
"4. c #E4E4E5",
"5. c #E5E5E5",
"6. c #E6E6E6",
"7. c #E6E6E7",
"8. c #E7E7E7",
"9. c #E8E8E2",
"0. c #EEEEE0",
"q. c #EBEAE5",
"w. c #EFEFE6",
"e. c #E7E7E9",
"r. c #E8E8E8",
"t. c #E8E8E9",
"y. c #E9E9E9",
"u. c #EAEAEA",
"i. c #EBEBEB",
"p. c #ECECEC",
"a. c #EDEDED",
"s. c #EEEEED",
"d. c #EFEFED",
"f. c #EEEEEE",
"g. c #EFEFEF",
"h. c #F0EFE2",
"j. c #F4F4EA",
"k. c #F0F0F0",
"l. c #F0F0F1",
"z. c #F1F1F1",
"x. c #F2F2F2",
"c. c #F3F3F3",
"v. c #F3F3F4",
"b. c #F4F4F4",
"n. c #F5F5F5",
"m. c #F6F6F6",
"M. c #F7F7F7",
"N. c #F8F8F8",
"B. c #F9F9F9",
"V. c #FAFAFA",
"C. c None",
/* pixels */
"C.C.C.C.C.C.C.C.C.C.C.C.C.C.C.C.C.C.C.C.C.C.C.C.",
"C.C.C.C.C.C.C.C.C.C.C.C.C.C.C., > # @ + C.C.C.C.",
"C.C.C.J <.<.#.<.#.+.+.+.+.X. .P s 4 2 3 = C.C.C.",
"C.C.C.L k.<.<.r.8.8.8.8.8.9.) I p 0 w 0 ; % C.C.",
"C.C.C.L f.#.<.<.<.<.8.<.3.;.W r 8 j R l 5 * C.C.",
"C.C.C.J f.#.#.8.<.8.<.8.8.%.U t i ~ -.] g : & C.",
"C.C.C.G f.<.<.8.8.8.8.8.e.&.U t i ~ -.] g : & C.",
"C.C.C.G k.<.<.r.8.8.e.e.r.:.Q r 0 k E l 5 * C.C.",
"C.C.C.F f.| <.r.8.8.r.r.f.q._ I p 6 w 0 - $ C.C.",
"C.C.C.F f.<.8.r.8.8.r.i.r.f.>.` T h a f 1 C.C.C.",
"C.C.C.A k.8.8.r.e.r.f.r.f.f.f.0.*.( ! / < C.C.C.",
"C.C.C.A k.<.8.r.r.r.i.f.f.f.f.f.f.w.h.j.v C.C.C.",
"C.C.C.Z k.8.8.i.r.f.f.f.f.f.k.k.k.k.k.n.z C.C.C.",
"C.C.C.C k.8.8.i.i.r.f.f.f.k.k.k.v.k.k.n.z C.C.C.",
"C.C.C.V k.<.8.f.f.f.f.k.k.k.n.n.n.n.k.n.z C.C.C.",
"C.C.C.B k...<.f.r.f.k.k.n.k.b.n.n.n.n.n.z C.C.C.",
"C.C.C.B f.r.r.f.f.f.f.k.k.n.n.n.V.n.n.n.z C.C.C.",
"C.C.C.M k.8.q.f.f.f.k.k.n.n.n.n.n.V.n.n.z C.C.C.",
"C.C.C.m g.e.e.f.f.f.k.k.n.n.n.V.V.V.n.n.O C.C.C.",
"C.C.C.n k.8.e.f.f.k.k.k.k.n.V.n.V.n.n.V.O C.C.C.",
"C.C.C.n v.r.f.k.k.k.n.n.V.n.V.V.V.V.V.V.z C.C.C.",
"C.C.C.o { { { { { { { { { { { { { { { { X C.C.C.",
"C.C.C.C.. . . . . . . . .   . . . . . . C.C.C.C.",
"C.C.C.C.C.C.C.C.C.C.C.C.C.C.C.C.C.C.C.C.C.C.C.C."
};
