/* XPM */
static char *now_xpm[] = {
/* columns rows colors chars-per-pixel */
"24 24 182 2 ",
"   c #0180FE",
".  c #0181FF",
"X  c #0183FF",
"o  c #0185FE",
"O  c #0184FF",
"+  c #018BFD",
"@  c #0188FF",
"#  c #018AFF",
"$  c #018BFF",
"%  c #018CFF",
"&  c #018DFF",
"*  c #018FFE",
"=  c #018FFF",
"-  c #0090FD",
";  c #0192FD",
":  c #0192FF",
">  c #0193FF",
",  c #0194FE",
"<  c #0194FF",
"1  c #0195FF",
"2  c #0096FE",
"3  c #0196FE",
"4  c #0197FF",
"5  c #0098FB",
"6  c #009CFB",
"7  c #009FFB",
"8  c #009AFC",
"9  c #009AFD",
"0  c #0198FF",
"q  c #019BFF",
"w  c #019DFD",
"e  c #019DFE",
"r  c #019CFF",
"t  c #019EFE",
"y  c #019EFF",
"u  c #019FFF",
"i  c #00BDEB",
"p  c #00BEEB",
"a  c #00BDEC",
"s  c #00BDED",
"d  c #04BFED",
"f  c #00ABF6",
"g  c #00AFF5",
"h  c #00A7F9",
"j  c #00A1FC",
"k  c #00A0FD",
"l  c #01A3FE",
"z  c #01A3FF",
"x  c #00A4FC",
"c  c #00A5FC",
"v  c #01A5FD",
"b  c #00A7FC",
"n  c #01A7FC",
"m  c #01A5FE",
"M  c #00A8F8",
"N  c #00A9F9",
"B  c #00AAFB",
"V  c #00ACFA",
"C  c #00AEFA",
"Z  c #00AEFB",
"A  c #00A8FC",
"S  c #00AAFD",
"D  c #01A8FF",
"F  c #05AEFF",
"G  c #0AAFFF",
"H  c #00B3F3",
"J  c #00B4F3",
"K  c #00B7F3",
"L  c #00B1F5",
"P  c #00B2F5",
"I  c #00B5F4",
"U  c #00B4F6",
"Y  c #00B9F4",
"T  c #00B8F6",
"R  c #00BBF7",
"E  c #00BFF6",
"W  c #04BCF6",
"Q  c #00B5F8",
"!  c #00B5FA",
"~  c #00B7FA",
"^  c #01B1FD",
"/  c #04B0FE",
"(  c #0DB1FF",
")  c #00B8F9",
"_  c #0BBCF8",
"`  c #17B4FF",
"'  c #1BB5FF",
"]  c #14BDFE",
"[  c #21B7FF",
"{  c #25B8FF",
"}  c #22BFFE",
"|  c #29BAFF",
" . c #2ABAFF",
".. c #2CBAFF",
"X. c #2FBCFF",
"o. c #00C5E3",
"O. c #00C7E2",
"+. c #00C0E7",
"@. c #01C2E7",
"#. c #02C2E7",
"$. c #04C2E7",
"%. c #04C3E7",
"&. c #00C4E5",
"*. c #00C9E5",
"=. c #02C2E8",
"-. c #03C2E8",
";. c #05C1E9",
":. c #02C0ED",
">. c #05C3EC",
",. c #09C4EC",
"<. c #0AC6EF",
"1. c #04C9E8",
"2. c #08C8E9",
"3. c #0BC8E9",
"4. c #15CCEC",
"5. c #1CCCEF",
"6. c #1FCFEF",
"7. c #02C2F1",
"8. c #16C4F6",
"9. c #18C7F6",
"0. c #1DCCF0",
"q. c #1BCAFC",
"w. c #28C7F9",
"e. c #29C0FF",
"r. c #21C9F8",
"t. c #26CAF8",
"y. c #2FCFFC",
"u. c #3CC6FF",
"i. c #32CDFA",
"p. c #3DCCFE",
"a. c #23D4F0",
"s. c #3CD7F3",
"d. c #38D8F4",
"f. c #32D0FC",
"g. c #3AD2FC",
"h. c #3BD2FC",
"j. c #41C8FF",
"k. c #4ECCFF",
"l. c #51CCFF",
"z. c #53CDFF",
"x. c #54CDFF",
"c. c #55CDFF",
"v. c #49DAF5",
"b. c #43D6FA",
"n. c #44D6FA",
"m. c #41D3FC",
"M. c #41D3FD",
"N. c #42D3FD",
"B. c #4FD6FD",
"V. c #51D1FE",
"C. c #53D6FD",
"Z. c #5AD4FF",
"A. c #64D6FE",
"S. c #65D7FE",
"D. c #66D7FE",
"F. c #67D7FE",
"G. c #68D7FE",
"H. c #68D8FE",
"J. c #69D8FE",
"K. c #6AD8FE",
"L. c #71DCFE",
"P. c #72DEFE",
"I. c #78DDFE",
"U. c #78DEFE",
"Y. c #78DFFE",
"T. c #64E3FB",
"R. c #6AE3FC",
"E. c #70E3F8",
"W. c #78E0FE",
"Q. c #80E7FE",
"!. c #83E7FE",
"~. c #86E4FF",
"^. c #87E4FF",
"/. c #86E8FB",
"(. c #9AECFE",
"). c #9AECFF",
"_. c #9EEDFD",
"`. c #A7EFFE",
"'. c #ACF0FF",
"]. c #ADF0FF",
"[. c #B5F2FF",
"{. c None",
/* pixels */
"{.{.{.{.{.{.{.{.{.{.{.{.{.{.{.{.{.{.{.{.{.{.{.{.",
"{.{.{.{.{.{.{.{.{.{.{.*.O.{.{.{.{.{.{.{.{.{.{.{.",
"{.{.{.{.{.{.{.{.{.{.{.d.a.{.{.{.{.{.{.{.{.{.{.{.",
"{.{.{.{.{.{.{.{.{.{.1./.E.O.{.{.{.{.{.{.{.{.{.{.",
"{.{.{.{.{.{.{.{.{.{.6.`._.4.{.{.{.{.{.{.{.{.{.{.",
"{.{.{.{.{.{.{.{.{.*.v.[.'.s.{.{.{.{.{.{.{.{.{.{.",
"{.{.{.{.{.{.{.{.{.3.R.'.].T.2.{.{.{.{.{.{.{.{.{.",
"{.{.{.{.{.{.{.{.{.0.!.)._.W.0.{.{.{.{.{.{.{.{.{.",
"{.{.{.{.p #.#.$.,.n.^.^.^.~.b.,.:.>.;.%.#.%.#.{.",
"{.:.9.r.t.i.f.h.C.P.W.W.Y.Y.P.C.m.b.m.g.y.q.7.{.",
"{.d w.V.S.H.K.K.H.H.H.H.S.S.S.S.S.S.S.Z.p.8.p {.",
"{.{.i _ } u.k.x.x.x.x.x.x.x.z.l.k.j.e.] W p {.{.",
"{.{.{.i T / G ` [  . .X... .{ ' ( F ^ T p {.{.{.",
"{.{.{.{.{.I S S D D D D D D D D D S I {.{.{.{.{.",
"{.{.{.{.{.{.L D z z z z z z z z D g {.{.{.{.{.{.",
"{.{.{.{.{.{.H t q q q q q q q q t I {.{.{.{.{.{.",
"{.{.{.{.{.{.g 1 1 1 1 1 q 1 1 - 1 f {.{.{.{.{.{.",
"{.{.{.{.{.{.M % % % 1 t z 1 % % @ j {.{.{.{.{.{.",
"{.{.{.{.{.{.6 @ @ % q D D t - @ @ - I {.{.{.{.{.",
"{.{.{.{.{.I % X @ 1 M R E V t % o o M {.{.{.{.{.",
"{.{.{.{.{.h   X 1 M {.{.{.{.I z @ X q {.{.{.{.{.",
"{.{.{.{.{.q o 8 ) {.{.{.{.{.{.) M % - {.{.{.{.{.",
"{.{.{.{.{.D x ) {.{.{.{.{.{.{.{.{.Z S {.{.{.{.{.",
"{.{.{.{.{.{.{.{.{.{.{.{.{.{.{.{.{.{.{.{.{.{.{.{."
};
