/* XPM */
static char *now_xpm[] = {
/* columns rows colors chars-per-pixel */
"32 32 147 2 ",
"   c #0179FF",
".  c #017FFF",
"X  c #0184FF",
"o  c #0089FE",
"O  c #018AFF",
"+  c #008EFC",
"@  c #008FFE",
"#  c #0190FF",
"$  c #0094FC",
"%  c #0095FE",
"&  c #0196FF",
"*  c #009AFC",
"=  c #019CFF",
"-  c #00BFE2",
";  c #00BDE6",
":  c #00BBEA",
">  c #00BFE8",
",  c #00B9EE",
"<  c #00BDEC",
"1  c #00BEEE",
"2  c #00AEF6",
"3  c #00A5FA",
"4  c #00A0FC",
"5  c #00A1FE",
"6  c #01A2FF",
"7  c #00A6FC",
"8  c #00A7FE",
"9  c #00A9F8",
"0  c #00ABFA",
"q  c #01A8FF",
"w  c #00ACFC",
"e  c #00ADFE",
"r  c #01AEFF",
"t  c #00B3F6",
"y  c #00BAF0",
"u  c #00BCF2",
"i  c #00B9F6",
"p  c #00BDF4",
"a  c #00BFF6",
"s  c #00B0FA",
"d  c #00B5F8",
"f  c #00B6FA",
"g  c #00B2FC",
"h  c #00B3FE",
"j  c #01B4FF",
"k  c #05B5FF",
"l  c #0FB3FF",
"z  c #00BBF8",
"x  c #00BCFA",
"c  c #00B8FC",
"v  c #00B9FE",
"b  c #0DBDFF",
"n  c #13B4FF",
"m  c #1DBCFF",
"M  c #1FBDFF",
"N  c #21B8FF",
"B  c #23B9FF",
"V  c #29BBFF",
"C  c #2DBCFF",
"Z  c #35BFFF",
"A  c #37BFFF",
"S  c #00C1D8",
"D  c #00C3DA",
"F  c #00C0DC",
"G  c #00C1DE",
"H  c #00C5DC",
"J  c #00C6DE",
"K  c #00C3E0",
"L  c #00C5E2",
"P  c #00C1E4",
"I  c #00C1EA",
"U  c #00C2EC",
"Y  c #00CCEA",
"T  c #00C8EC",
"R  c #00CAEE",
"E  c #00C0F0",
"W  c #00C2F2",
"Q  c #00C6F0",
"!  c #00C7F2",
"~  c #00C3F4",
"^  c #00CDF2",
"/  c #00CFF4",
"(  c #00C1F8",
")  c #07C6FD",
"_  c #0EC0FA",
"`  c #17C5F7",
"'  c #1FCAFB",
"]  c #1DCCFF",
"[  c #1FCDFF",
"{  c #16D4F6",
"}  c #1AD1F8",
"|  c #27C4FF",
" . c #23CEFF",
".. c #37C4FF",
"X. c #39C0FF",
"o. c #39C5FF",
"O. c #35CDFF",
"+. c #3BCAFF",
"@. c #21D3F9",
"#. c #2DDAF9",
"$. c #39D3FF",
"%. c #3BD3FF",
"&. c #3DD3FF",
"*. c #39D6FD",
"=. c #3BD6FD",
"-. c #41C3FF",
";. c #51CCFF",
":. c #53CCFF",
">. c #55CDFF",
",. c #4BD7FF",
"<. c #4ADDFC",
"1. c #57D1FF",
"2. c #58D1FE",
"3. c #5ED3FE",
"4. c #5AD6FE",
"5. c #60D3FE",
"6. c #62D4FE",
"7. c #64D5FE",
"8. c #64D8FE",
"9. c #6ADAFE",
"0. c #6CDAFE",
"q. c #6EDBFE",
"w. c #70DBFE",
"e. c #72DCFE",
"r. c #78DDFE",
"t. c #7ADEFE",
"y. c #4FE0FF",
"u. c #57E1FF",
"i. c #5AE1FE",
"p. c #68E4FE",
"a. c #7AE1FE",
"s. c #7CE1FE",
"d. c #85E3FF",
"f. c #80E5FE",
"g. c #80E8FE",
"h. c #8BEAFF",
"j. c #91E9FF",
"k. c #93E9FF",
"l. c #A0EEFE",
"z. c #A2EEFE",
"x. c #ABF0FF",
"c. c #B5F2FF",
"v. c #B7F2FF",
"b. c #BAF2FE",
"n. c #C5F4FF",
"m. c #D1F7FF",
"M. c None",
/* pixels */
"M.M.M.M.M.M.M.M.M.M.M.M.M.M.M.M.M.M.M.M.M.M.M.M.M.M.M.M.M.M.M.M.",
"M.M.M.M.M.M.M.M.M.M.M.M.M.M.M.J D M.M.M.M.M.M.M.M.M.M.M.M.M.M.M.",
"M.M.M.M.M.M.M.M.M.M.M.M.M.M.D / Y M.M.M.M.M.M.M.M.M.M.M.M.M.M.M.",
"M.M.M.M.M.M.M.M.M.M.M.M.M.M.J p.#.D M.M.M.M.M.M.M.M.M.M.M.M.M.M.",
"M.M.M.M.M.M.M.M.M.M.M.M.M.M.Y c.h.L M.M.M.M.M.M.M.M.M.M.M.M.M.M.",
"M.M.M.M.M.M.M.M.M.M.M.M.M.F } m.n.^ F M.M.M.M.M.M.M.M.M.M.M.M.M.",
"M.M.M.M.M.M.M.M.M.M.M.M.M.L u.n.n.<.F M.M.M.M.M.M.M.M.M.M.M.M.M.",
"M.M.M.M.M.M.M.M.M.M.M.M.M.R z.b.c.g.R M.M.M.M.M.M.M.M.M.M.M.M.M.",
"M.M.M.M.M.M.M.M.M.M.M.M.K @.x.x.x.x.{ K M.M.M.M.M.M.M.M.M.M.M.M.",
"M.M.M.M.M.M.M.M.M.M.M.M.P i.z.z.z.z.<.K M.M.M.M.M.M.M.M.M.M.M.M.",
"M.M.M.M.M.M.M.M.M.M.M.- ! f.j.j.j.j.f.Q - M.M.M.M.M.M.M.M.M.M.M.",
"M.M.P P P P P P P P P U =.d.d.d.d.d.d.*.! I I I ; P P P P P P M.",
"M.; W ~ ( ( ` ' [ [ &.,.s.a.t.a.t.t.t.r.4.$.&.$.$.$. .[ [ ) I M.",
"M.> _ 8.e.w.w.w.w.w.w.q.q.q.q.q.q.q.q.9.9.q.q.9.9.9.9.8.O.p ; M.",
"M.M.> z | 2.7.7.6.6.6.6.6.6.6.6.3.6.3.6.3.3.3.3.3.1.+.b W ; M.M.",
"M.M.M.> i j m ..;.>.>.>.;.>.;.;.:.;.;.;.;.;.;.o.m k v y ; M.M.M.",
"M.M.M.M.> y j r r l N V A X.X.-.A A A C B n r r r j < I M.M.M.M.",
"M.M.M.M.M.: : r q q q q q q q q q q q q q q q q j > M.M.M.M.M.M.",
"M.M.M.M.M.M.M.< q q q q q q q q q q q q q q q 9 : M.M.M.M.M.M.M.",
"M.M.M.M.M.M.M.M.: q q 5 5 5 5 5 5 5 5 5 6 5 5 , M.M.M.M.M.M.M.M.",
"M.M.M.M.M.M.M.M.< 3 = = = = = = = = = = = = q < M.M.M.M.M.M.M.M.",
"M.M.M.M.M.M.M.M.y 5 & & & & & & & & & & & & & y M.M.M.M.M.M.M.M.",
"M.M.M.M.M.M.M.M.y # + # # # # = = & # # # # # t M.M.M.M.M.M.M.M.",
"M.M.M.M.M.M.M.M.t O O O O # = 5 5 5 # O O O O 3 u M.M.M.M.M.M.M.",
"M.M.M.M.M.M.M.M.3 O O O O = = = = = = + O O O + p M.M.M.M.M.M.M.",
"M.M.M.M.M.M.M.p # X X X # & q p ~ s & & O X X X t M.M.M.M.M.M.M.",
"M.M.M.M.M.M.M.z . . X + # s ~ M.M.p i 5 + O . . 3 M.M.M.M.M.M.M.",
"M.M.M.M.M.M.M.9   . O & d i M.M.M.M.M.~ 0 # X . + i M.M.M.M.M.M.",
"M.M.M.M.M.M.M.= . X 5 ~ M.M.M.M.M.M.M.M.z f & X X z M.M.M.M.M.M.",
"M.M.M.M.M.M.z + O s x M.M.M.M.M.M.M.M.M.M.M.z q O s M.M.M.M.M.M.",
"M.M.M.M.M.M.x j v M.M.M.M.M.M.M.M.M.M.M.M.M.M.x v z M.M.M.M.M.M.",
"M.M.M.M.M.M.M.M.M.M.M.M.M.M.M.M.M.M.M.M.M.M.M.M.M.M.M.M.M.M.M.M."
};
