/* XPM */
static char *open_xpm[] = {
/* columns rows colors chars-per-pixel */
"32 32 210 2 ",
"   c black",
".  c #456EA7",
"X  c #4770A1",
"o  c #587BA6",
"O  c #5E7FA7",
"+  c #2F74C9",
"@  c #3578CC",
"#  c #367ACD",
"$  c #6282A8",
"%  c #6785AA",
"&  c #6C89AB",
"*  c #728CAC",
"=  c #7790AD",
"-  c #7C93AE",
";  c #3F81D3",
":  c #4787D9",
">  c #508EDE",
",  c #5E95D6",
"<  c #5C92DF",
"1  c #6098DA",
"2  c #6C9DDA",
"3  c #76A4DD",
"4  c #7DA9DF",
"5  c #5895E2",
"6  c #5E95E3",
"7  c #5F99E6",
"8  c #6096E3",
"9  c #6299E3",
"0  c #629CE7",
"q  c #699DE5",
"w  c #639DEB",
"e  c #649DE8",
"r  c #659DE8",
"t  c #659DE9",
"y  c #659EE9",
"u  c #699FEA",
"i  c #69A0EA",
"p  c #6DA4EB",
"a  c #69A1ED",
"s  c #6BA3EF",
"d  c #6FA6EE",
"f  c #78A7E1",
"g  c #7FACE3",
"h  c #72A5EA",
"j  c #72A6EA",
"k  c #73A6EB",
"l  c #73A7EB",
"z  c #72A6ED",
"x  c #74A7EC",
"c  c #74AAEE",
"v  c #77ABEE",
"b  c #77AAEF",
"n  c #79ADEF",
"m  c #7DADED",
"M  c #7DAEEF",
"N  c #6CA4F0",
"B  c #6CA4F1",
"V  c #74A9F1",
"C  c #74AAF2",
"Z  c #75AAF3",
"A  c #75ABF3",
"S  c #77ACF5",
"D  c #78ABF0",
"F  c #79ABF1",
"G  c #79ACF1",
"H  c #7AACF2",
"J  c #7AADF2",
"K  c #7BADF3",
"L  c #7BAEF3",
"P  c #7DB0F0",
"I  c #7CB0F3",
"U  c #7EB0F2",
"Y  c #7EB1F2",
"T  c #7CB0F5",
"R  c #7FB1F4",
"E  c #7FB2F4",
"W  c #82ADE0",
"Q  c #85B0E4",
"!  c #89B1E1",
"~  c #8CB5E6",
"^  c #8AB7EE",
"/  c #90B6E3",
"(  c #97BAE4",
")  c #9EBFE6",
"_  c #93BAE8",
"`  c #95BFEF",
"'  c #9ABEE9",
"]  c #80B0F1",
"[  c #80B0F2",
"{  c #81B0F2",
"}  c #80B3F2",
"|  c #82B2F3",
" . c #80B2F5",
".. c #83B3F5",
"X. c #82B5F7",
"o. c #84B4F6",
"O. c #85B5F6",
"+. c #85B5F7",
"@. c #88B7F0",
"#. c #8AB7F3",
"$. c #89B9F2",
"%. c #8BB8F3",
"&. c #8ABAF5",
"*. c #8BBBF6",
"=. c #8DBAF6",
"-. c #8EBBF7",
";. c #8EBCF7",
":. c #8FBCF8",
">. c #8FBDF8",
",. c #8EBEF8",
"<. c #94BFF1",
"1. c #90BDF8",
"2. c #90BDF9",
"3. c #94C0F3",
"4. c #97C1F4",
"5. c #97C1F5",
"6. c #95C2F6",
"7. c #95C2F7",
"8. c #96C3F7",
"9. c #9FC6F1",
"0. c #9EC7F3",
"q. c #98C3F6",
"w. c #99C4F7",
"e. c #9AC8F7",
"r. c #9FC8F5",
"t. c #9AC4F8",
"y. c #9BC5F8",
"u. c #9BC5F9",
"i. c #9BC6F9",
"p. c #9CC6F9",
"a. c #9EC6F9",
"s. c #9EC7FA",
"d. c #9DCAF8",
"f. c #9FCAF8",
"g. c #A5C4E7",
"h. c #A1C3EB",
"j. c #A8C8EC",
"k. c #B5CFEF",
"l. c #A5CBF1",
"z. c #A5CBF3",
"x. c #A6CCF3",
"c. c #A2C9F6",
"v. c #A3CAF7",
"b. c #A5CDF5",
"n. c #A6CDF5",
"m. c #A6CEF7",
"M. c #A0CAF8",
"N. c #A0CBF9",
"B. c #A4CBF8",
"V. c #A5CCF9",
"C. c #A6CCF9",
"Z. c #A6CEF8",
"A. c #A6CFF9",
"S. c #A6CDFA",
"D. c #A7CDFB",
"F. c #A5CFFB",
"G. c #A6CFFA",
"H. c #A7CFFA",
"J. c #A7CEFB",
"K. c #A7D0FA",
"L. c #A8D0FA",
"P. c #ADD1F8",
"I. c #AFD3F9",
"U. c #ABD3FC",
"Y. c #ADD4FC",
"T. c #AED5FD",
"R. c #B7D0F2",
"E. c #B7D1F2",
"W. c #B8D1F2",
"Q. c #B9D2F2",
"!. c #B9D2F3",
"~. c #BCD4F3",
"^. c #BDD4F3",
"/. c #BDD5F3",
"(. c #B0D4FA",
"). c #B0D4FB",
"_. c #B1D5FC",
"`. c #B2D6FD",
"'. c #B5D8FB",
"]. c #B9D9F9",
"[. c #BEDBF8",
"{. c #BFDCF9",
"}. c #B8DAFD",
"|. c #B9DBFD",
" X c #B9DCFE",
".X c #BADCFE",
"XX c #BADCFF",
"oX c #BADDFF",
"OX c #F1F2F2",
"+X c gray95",
"@X c #F2F3F3",
"#X c #F3F3F3",
"$X c #F3F4F4",
"%X c #F4F4F4",
"&X c #F4F5F5",
"*X c gray96",
"=X c #F5F6F6",
"-X c #F6F6F6",
";X c #F6F7F7",
":X c gray97",
">X c #F7F8F8",
",X c #F8F8F8",
"<X c #F8F9F9",
"1X c #F9F9F9",
"2X c gray98",
"3X c #FBFBFB",
"4X c gray99",
"5X c #FDFDFD",
"6X c #FEFEFE",
"7X c None",
/* pixels */
"7X7X7X7X7X7X7X7X7X7X7X7X7X7X7X7X7X7X7X7X7X7X7X7X7X7X7X7X7X7X7X7X",
"7X7X7X7X7X7X7X7X7X7X7X7X7X7X7X7X7X7X7X7X7X7X7X7X7X7X7X7X7X7X7X7X",
"7X7X7X7X7X7X&X@X%X%X&X-X&X-X,X-X,X-X,X,X,X,X,X,X,X,X7X7X7X7X7X7X",
"7X7X7X7X7X7X@X@X@X%X%X%X&X&X-X,X-X,X,X,X,X,X,X,X,X3X7X7X7X7X7X7X",
"7X7X7X7X7X7X$X@X%X%X&X&X>X,X,X,X,X,X,X,X5X,X,X5X,X4X7X7X7X7X7X7X",
"7X7X8 6 < . &X@X&X&X&X-X>X,X,X,X,X,X,X5X,X5X5X,X4X,X7X7X7X7X7X7X",
"7X7X6 j.g.- &X%X&X-X,X,X,X,X,X,X5X,X5X,X5X5X,X,X4X4X7X7X7X7X7X7X",
"7X7X8 h.) = -X&X&X>X,X,X,X,X4X,X,X5X5X,X5X,X5X5X5X,X. < 6 u 7X7X",
"7X7X6 ' ( * >X&X,X>X,X,X4X,X4X5X,X5X,X5X5X5X5X5X4X4X* ( ' 6 7X7X",
"7X7X6 _ / & ,X>X,X,X,X,X,X5X4X,X5X5X5X5X,X5X5X5X5X4X& / _ 6 7X7X",
"7X7X6 ~ ! % ,X,X,X,X4X,X4X,X4X4X5X5X5X5X5X5X5X5X5X5X% ! ~ 6 7X7X",
"7X7X6 Q W $ ,X,X,X4X,X5X5X,X4X4X,X5X5X5X5X5X5X5X5X5X$ W Q 6 7X7X",
"7X7X6 W f $ ,X,X4X,X4X,X5X4X5X5X5X5X5X5X5X5X5X5X5X5X$ f W 6 7X7X",
"7X7X6 f 3 o ,X3X,X4X5X,X4X4X5X5X5X5X5X5X5X5X5X5X5X4Xo 3 f 6 7X7X",
"7X7X6 1 , X ,X,X4X4X4X4X4X5X5X5X5X5X5X5X4X,X4X,X,X,XX , 1 6 7X7X",
"@ + + + + + + + + + + + + + + + + + + + + + + + + + + + + + + @ ",
"@ R.!.R.R.k././././././././././././././.~.~.~.~.~.~.k.R.R.W.W.2 ",
": 7 w r r 9 x k x x x x x k k c b l l l l l l h h h 9 r r r 6 : ",
": w s s s u L L L L L L L L L L H H H H H H b H v v u s s s w : ",
"> a S Z Z k +.X.+.+.+.+.+.+.+.+.+.o.....[ [ U [ ] k V V V C a > ",
"5 d X.E E M :.7.2.:.:.2.2.2.2.:.:.;.-.-.#.;.-.%.n U E E E ..N 5 ",
"7 c :.&.&.@.t.t.t.s.t.s.t.s.f.t.t.t.w.q.4.w.5.^ %.&.&.*.&.&.c w ",
"p n t.7.5.3.J.L.J.L.K.D.F.J.K.D.D.D.D.v.v.v.` 3.8.5.5.7.5.8.n p ",
"v P F.f.N.r._._._.`.`._.`._._._._.).I.I.I.9.9.f.d.d.N.f.f.f.P v ",
"Y Y T.K.K.m.oX XoXoXoXoXoXoX}.oX}.}.}.'.x.m.K.K.L.K.K.K.K.K.U Y ",
"7XI T.K.K.b.l.l.l.l.l.l.l.l.l.l.l.l.l.l.m.K.D.K.K.K.K.D.K.K.U 7X",
"7XT U.F.A.A.D.D.D.m.K.K.K.m.K.A.K.K.K.A.K.D.D.K.K.D.K.K.K.D.T 7X",
"7Xf.f.e.e.e.e.e.e.e.e.e.e.e.e.e.e.e.e.e.e.e.e.e.e.e.e.e.e.e.f.7X",
"7X{.].].].].].].].].].].].].].].].].].].].].].].].].].].].].[.7X",
"7X7X                                                        7X7X",
"7X7X7X7X7X7X7X7X7X7X7X7X7X7X7X7X7X7X7X7X7X7X7X7X7X7X7X7X7X7X7X7X",
"7X7X7X7X7X7X7X7X7X7X7X7X7X7X7X7X7X7X7X7X7X7X7X7X7X7X7X7X7X7X7X7X"
};
