/* XPM */
static char *open_xpm[] = {
/* columns rows colors chars-per-pixel */
"24 24 217 2 ",
"   c #387ACD",
".  c #3E7ECE",
"X  c #4582CC",
"o  c #5686CA",
"O  c #5E8FC9",
"+  c #5A8ECE",
"@  c #4583D1",
"#  c #4986D2",
"$  c #4B8ADB",
"%  c #4C8BDB",
"&  c #528DD6",
"*  c #709ACE",
"=  c #709BCE",
"-  c #6B9DDC",
";  c #759DD2",
":  c #78A0CF",
">  c #73A1DA",
",  c #73A2DA",
"<  c #74A2DA",
"1  c #74A2DB",
"2  c #5592E1",
"3  c #5E95E3",
"4  c #5F96E3",
"5  c #609BE6",
"6  c #669BE5",
"7  c #689DE0",
"8  c #659EEB",
"9  c #679FEA",
"0  c #6BA3EA",
"q  c #6DA3EA",
"w  c #6CA3EB",
"e  c #6FA3EB",
"r  c #69A1EC",
"t  c #75A5E4",
"y  c #7BA9E5",
"u  c #7AA8E7",
"i  c #73A8EE",
"p  c #75A8ED",
"a  c #76A9ED",
"s  c #76A9EE",
"d  c #77A9EF",
"f  c #76ABEE",
"g  c #77AAEF",
"h  c #78AAEF",
"j  c #6EA5F0",
"k  c #71A7F0",
"l  c #73A8F2",
"z  c #74A9F2",
"x  c #74AAF3",
"c  c #78AAF0",
"v  c #78ABF0",
"b  c #7BADF0",
"n  c #7AACF1",
"m  c #79ADF2",
"M  c #7AAFF2",
"N  c #7DB1F2",
"B  c #7FB0F2",
"V  c #92ADC8",
"C  c #92ADC9",
"Z  c #92AEC9",
"A  c #93AEC9",
"S  c #81A6D1",
"D  c #81A6D2",
"F  c #83A7D3",
"G  c #8AABD3",
"H  c #95B3D6",
"J  c #9CB7D3",
"K  c #9DB8D3",
"L  c #A4B7CE",
"P  c #A4B8CF",
"I  c #AAB9CF",
"U  c #B2BBC6",
"Y  c #ABBBD0",
"T  c #ABBCD0",
"R  c #ADBDD0",
"E  c #ADBED2",
"W  c #B0BFD1",
"Q  c #82AEE7",
"!  c #84AFE7",
"~  c #88B2E8",
"^  c #91B8EA",
"/  c #94B9EB",
"(  c #94BAEB",
")  c #95BAEB",
"_  c #96BBEB",
"`  c #95BAEC",
"'  c #98BCEC",
"]  c #98BDEC",
"[  c #99BDEC",
"{  c #99BEEC",
"}  c #81B1F0",
"|  c #80B1F3",
" . c #80B2F3",
".. c #84B5F3",
"X. c #85B7F3",
"o. c #81B2F4",
"O. c #81B3F4",
"+. c #80B3F5",
"@. c #82B2F5",
"#. c #82B3F5",
"$. c #82B4F5",
"%. c #82B5F5",
"&. c #83B4F6",
"*. c #84B4F6",
"=. c #88B7F4",
"-. c #8AB8F2",
";. c #8EBBF5",
":. c #8EBDF4",
">. c #8FBDF4",
",. c #8FBCF6",
"<. c #8FBEF6",
"1. c #91BDF1",
"2. c #90BEF5",
"3. c #90BDF7",
"4. c #90BEF6",
"5. c #90BFF6",
"6. c #91BEF8",
"7. c #92BFF8",
"8. c #92BFF9",
"9. c #B0C0D3",
"0. c #B3C2D3",
"q. c #B4C1D1",
"w. c #B4C2D4",
"e. c #B8C4D2",
"r. c #91C0F7",
"t. c #93C0F6",
"y. c #92C0F7",
"u. c #95C2F7",
"i. c #9FC7F3",
"p. c #98C3F5",
"a. c #9AC3F4",
"s. c #9CC7F6",
"d. c #9EC6F6",
"f. c #9EC7F7",
"g. c #9DC8F6",
"h. c #94C1F8",
"j. c #9EC9F8",
"k. c #9FC9F8",
"l. c #9EC9FA",
"z. c #9FCAFB",
"x. c #A5CDF5",
"c. c #A5CDF6",
"v. c #A7CEF6",
"b. c #A8CDF6",
"n. c #A0C8F8",
"m. c #A0C9F9",
"M. c #A0CBF9",
"N. c #A1C9FA",
"B. c #A1CAFA",
"V. c #A2CAFA",
"C. c #A2CEFB",
"Z. c #A3CFFB",
"A. c #A6CDF8",
"S. c #A5CEF8",
"D. c #A6CEF8",
"F. c #A6CEF9",
"G. c #A6CFF9",
"H. c #A6CFFA",
"J. c #A7CFFA",
"K. c #A8D0FA",
"L. c #A9D1FB",
"P. c #AAD2FB",
"I. c #ADD2F8",
"U. c #ADD2F9",
"Y. c #AFD3FB",
"T. c #AFD4FC",
"R. c #B0D4F8",
"E. c #B3D6F9",
"W. c #B3D7FA",
"Q. c #B4D7FA",
"!. c #B4D7FB",
"~. c #B0D4FC",
"^. c #B0D5FD",
"/. c #B1D5FD",
"(. c #B4D8FB",
"). c #C4C3C2",
"_. c #C6C6C6",
"`. c #C7C7C7",
"'. c #D5D5D5",
"]. c #D6D6D6",
"[. c #D7D7D7",
"{. c #D8D7D7",
"}. c #D8D8D8",
"|. c #D8D9D9",
" X c #DADBDB",
".X c #F3F3F3",
"XX c #F3F4F4",
"oX c #F4F5F5",
"OX c #F5F5F5",
"+X c #F6F6F6",
"@X c #F6F7F7",
"#X c #F7F7F7",
"$X c #F8F7F6",
"%X c #F8F8F7",
"&X c #F7F8F8",
"*X c #F8F8F8",
"=X c #F8F9F9",
"-X c #F9F9F9",
";X c #FAF9F8",
":X c #FBFAF9",
">X c #FAFAFA",
",X c #FAFAFB",
"<X c #FBFBFB",
"1X c #FCFBFA",
"2X c #FDFCFB",
"3X c #FBFCFC",
"4X c #FCFCFC",
"5X c #FCFCFD",
"6X c #FDFDFD",
"7X c #FEFDFC",
"8X c #FEFDFD",
"9X c #FEFEFD",
"0X c #FDFEFE",
"qX c #FEFEFE",
"wX c #FFFFFE",
"eX c #FFFFFF",
"rX c None",
/* pixels */
"rXrXrXrXrXrXrXrXrXrXrXrXrXrXrXrXrXrXrXrXrXrXrXrX",
"rXrXrXrXrX].].].].].].].{.}.}.}.|.|. XrXrXrXrXrX",
"rXrXrXrX).XX.XXX@X@X@X:X&X&X:X:X:X,X5X`.rXrXrXrX",
"rXrXrXrXU @X.X.X@X@X@X@X&X:X&X:X:X:X:X`.rXrXrXrX",
"rXrXu ; Y $X@X@X#X#X:X:X:X,X,X,X1X:X5X`.rXrXrXrX",
"rX3 ^ H e.%X@X#X#X&X:X,X,X,X,X,X5X5X5XY o 6 rXrX",
"rXrX~ G q.:X@X#X:X,X:X,X,X,X5X5X5X5X5Xw.F ! 4 rX",
"rXrXQ D W :X&X:X,X,X:X3X5X5X5X5X5X5X5X9.D ! rXrX",
"rXrXy : E ,X:X,X,X,X5X5X5X5X5X5X5X5X5X9.: y rXrX",
"rXrXt = T ,X:X,X,X,X5X5X5X5X5X5X5X5X5X9.= t rXrX",
"rXrX7 O L 5X:X,X,X,X5X5X5X5X5X5X:X:X5XP O 7 rXrX",
"  @ # X + 1 > 1 1 1 1 1 1 1 1 1 1 1 1 + X # @ . ",
"& ) ) / { { { { { { { { { { { { [ [ [ / ) ) ^ - ",
"% 9 r 9 e v v v v v v v n n a a a a a q 9 r 9 $ ",
"2 j x k n &.&.&.&.&.*.*.@.@.@.| N | b i z z j 2 ",
"5 n &.| =.6.6.6.h.6.6.6.6.3.,.;.,.-.} N &.&.n 5 ",
"w X.r.,.p.C.B.B.B.B.B.l.n.n.d.d.a.1.>.,.5.r...w ",
"f 5.k.s.c././././././.W.T.Y.Y.b.i.d.l.l.j.j.>.f ",
"N h.P.K.I.W.W.(.Q.(.Q.Q.W.W.R.c.A.K.K.K.K.P.r.N ",
"N h.P.K.c.c.c.c.c.c.c.c.c.c.x.A.A.K.A.Z.K.P.r.N ",
"rXB.C.C.C.C.C.C.C.C.C.C.Z.Z.Z.Z.C.C.C.C.C.C.l.rX",
"rXK V V V V V V V V V V V V V V V V V V V V K rX",
"rXrXrXrXrXrXrXrXrXrXrXrXrXrXrXrXrXrXrXrXrXrXrXrX",
"rXrXrXrXrXrXrXrXrXrXrXrXrXrXrXrXrXrXrXrXrXrXrXrX"
};
