/* XPM */
static char *partner_xpm[] = {
/* columns rows colors chars-per-pixel */
"32 32 256 2 ",
"   c #7C5536",
".  c #506939",
"X  c #53444D",
"o  c #544B57",
"O  c #5B7E52",
"+  c #787253",
"@  c #565478",
"#  c #5F7377",
"$  c #7E7E7E",
"%  c #B83434",
"&  c #C53B3B",
"*  c #C93D3D",
"=  c #8A5727",
"-  c #95582B",
";  c #94502E",
":  c #9A6233",
">  c #AC7633",
",  c #B27734",
"<  c #A56C2F",
"1  c #C87E3E",
"2  c #973F77",
"3  c #895843",
"4  c #AB5655",
"5  c #AE4C42",
"6  c #977455",
"7  c #AB794C",
"8  c #A57543",
"9  c #A77D56",
"0  c #AD724E",
"q  c #974670",
"w  c #A85C73",
"e  c #AD726F",
"r  c #C74546",
"t  c #D05A5A",
"y  c #C25858",
"u  c #C3794B",
"i  c #C87879",
"p  c #C06464",
"a  c #319B4C",
"s  c #2FA64B",
"d  c #3EBE62",
"f  c #458C59",
"g  c #5C9A5D",
"h  c #62954B",
"j  c #47B25C",
"k  c #48AC5B",
"l  c #5C8C66",
"z  c #5A9272",
"x  c #74867D",
"c  c #53A567",
"v  c #57B86B",
"b  c #6BB87A",
"n  c #6CAF72",
"m  c #B58333",
"M  c #AD8031",
"N  c #B0AD34",
"B  c #C59638",
"V  c #C7A339",
"C  c #AD8345",
"Z  c #AE815A",
"A  c #B28358",
"S  c #AF925F",
"D  c #9DAA56",
"F  c #BAA156",
"G  c #989477",
"H  c #928A70",
"J  c #A78568",
"K  c #B18C67",
"L  c #B69569",
"P  c #B28D71",
"I  c #B69878",
"U  c #A88B72",
"Y  c #96AE7A",
"T  c #BAA674",
"R  c #C88547",
"E  c #C9964A",
"W  c #D09D5B",
"Q  c #CD9151",
"!  c #CCA649",
"~  c #D0A35C",
"^  c #D0AC5A",
"/  c #D0B35A",
"(  c #D0BC5A",
")  c #CBB050",
"_  c #C69C69",
"`  c #C49676",
"'  c #D19D76",
"]  c #C18C65",
"[  c #D3A767",
"{  c #D4B76A",
"}  c #DABB7D",
"|  c #D9B579",
" . c #CDA770",
".. c #D0C45A",
"X. c #D0CD5B",
"o. c #CFD05A",
"O. c #D9C978",
"+. c #D8D978",
"@. c #D3CD65",
"#. c #2B3799",
"$. c #2B409B",
"%. c #314EAD",
"&. c #3D6EBF",
"*. c #6A7499",
"=. c #7B7D89",
"-. c #5279B0",
";. c #6B7CA3",
":. c #617CC1",
">. c #9A358B",
",. c #BC3E97",
"<. c #9336BE",
"1. c #922DA1",
"2. c #9F44A8",
"3. c #AB50AA",
"4. c #B377B2",
"5. c #C47E80",
"6. c #9B3AC6",
"7. c #9B39C5",
"8. c #A139C7",
"9. c #9E4DC3",
"0. c #A556C4",
"q. c #AB6DC3",
"w. c #7AB784",
"e. c #74A485",
"r. c #588BBA",
"t. c #6587B9",
"y. c #769BBC",
"u. c #6B88AC",
"i. c #7999D1",
"p. c #7CA6C6",
"a. c #999A9B",
"s. c #BA9881",
"d. c #B5988F",
"f. c #8EB09C",
"g. c #B8A488",
"h. c #B9A798",
"j. c #A4BB9A",
"k. c #B2BA95",
"l. c #A3AA8F",
"z. c #828FAF",
"x. c #BC86BA",
"c. c #97A7B2",
"v. c #A9A6A7",
"b. c #B6B6B8",
"n. c #B5B4A8",
"m. c #C68188",
"M. c #C49E85",
"N. c #C99497",
"B. c #E09D90",
"V. c #C8A58B",
"C. c #D5AC8D",
"Z. c #DDBC8E",
"A. c #DDBA87",
"S. c #C9AB9C",
"D. c #D6A896",
"F. c #CAB498",
"G. c #D4B497",
"H. c #E2AB99",
"J. c #E1B898",
"K. c #D5A6A6",
"L. c #C5B5A8",
"P. c #D8BAA4",
"I. c #C9BCB9",
"U. c #D8BAB5",
"Y. c #C5ACA9",
"T. c #E4BBA2",
"R. c #91D398",
"E. c #8BD193",
"W. c #BEC09C",
"Q. c #AFCBB1",
"!. c #DECB8B",
"~. c #DCC382",
"^. c #DED48B",
"/. c #E1C698",
"(. c #E2D49B",
"). c #DFE092",
"_. c #E1E095",
"`. c #DEC3AA",
"'. c #DDC5A3",
"]. c #DBC7B3",
"[. c #CDC2B9",
"{. c #E6C8A9",
"}. c #E8CBAE",
"|. c #E3C4AA",
" X c #E5D6AD",
".X c #E9CEB1",
"XX c #E7C9B7",
"oX c #EBD2BC",
"OX c #E8D2B0",
"+X c #E4E5A6",
"@X c #EAE8B7",
"#X c #8193C1",
"$X c #BA84C8",
"%X c #BA89D7",
"&X c #87A3DD",
"*X c #87AAD9",
"=X c #8CBBD5",
"-X c #BBBFC1",
";X c #97BFE1",
":X c #C387D3",
">X c #C8A3E5",
",X c #D5AAE6",
"<X c #D4B2E9",
"1X c #DBB3E9",
"2X c #D5B8EA",
"3X c #DCB8EA",
"4X c #CCB0E8",
"5X c #E4BCEC",
"6X c #E4BAEB",
"7X c #9DCDE3",
"8X c #9AC5E2",
"9X c #9AD4E2",
"0X c #A2D5E4",
"qX c #A6DCE6",
"wX c #ACE3E7",
"eX c #D8C8C4",
"rX c #C7D8CD",
"tX c #D7D5D4",
"yX c #CACFCC",
"uX c #ECD5C3",
"iX c #EEDDC5",
"pX c #EADAC8",
"aX c #E4D9D5",
"sX c #EBD6CC",
"dX c #CAF0CA",
"fX c #EDEEC2",
"gX c #F2E5D3",
"hX c #F5E7DB",
"jX c #F4E9D9",
"kX c #F2F2D3",
"lX c #F4F5DC",
"zX c #F0E8D3",
"xX c #CACFEA",
"cX c #E5C5EE",
"vX c #ECC6EE",
"bX c #E4C5EA",
"nX c #EDCCF1",
"mX c #F1CDF0",
"MX c #F3D5F2",
"NX c #F4DBF4",
"BX c #EFD7EA",
"VX c #EBEBEB",
"CX c #E6E5E5",
"ZX c #F6EDE2",
"AX c #F0E6E6",
"SX c #F7F5E3",
"DX c #F9F4EB",
"FX c #F9F9EB",
"GX c #F6E2F6",
"HX c #F8EAF8",
"JX c #F5F4F4",
"KX c #F7FAFB",
"LX c #FEFEFE",
"PX c #FAF5F6",
"IX c #ECF0F2",
"UX c None",
/* pixels */
"UXUXUXUXUXUXUXUXUXUXUXUXUXUXUXUXUXUXUXUXUXUXUXUXUXUXUXUXUXUXUXUX",
"UXUXUXUXUXUXUX`  X X'.Z.| ' u UXUXUXUXUXUXUX~ [ [ UXUXUXUXUXUXUX",
"UXUXUXUXUXUX . X^./ / ^ Q u UXUXUXUXUXUXZ.zXFXFXlX(.W UXUXUXUXUX",
"UXUXUXUXUXUXQ { ].`.T. .1 UXUXUXUXUXZ.DXLXlXSXlXkXkX(.UXUXUXUXUX",
"UXUXUXUXUXUXR G.].HXhXT.E R UXUXUX[ LXfX( ( O.fX@X@X@XO.UXUXUXUX",
"UXUXUXUXd.UXM.eXS.P.D.V._ 1 UXUXUXUX/.^ ^ / ( @.+X+X+X_.~ UXUXUX",
"UXUXUX: jXJ uX#XxXZXb.v.' ; UXUXUXA.@X} /.[ ^ ( o.+.+.+.O.UXUXUX",
"UXUXUXUXI XXLXaXJXgXh.I.`.6 eXUXUX!.lX/.OXZXiX} / X.o.+._.~ UXUX",
"UXUXUXUX= DXLXgXJXoXF.LXZXF.`.UXUX[ @X^.k.rXDXZXn.D ~.T I UXUXUX",
"UXUXUXUX9 oXoXP.ZX`.V.ZXiXZ - UXUXUXO.O.k.j.DXgXiXoXXXS.g.UXUXUX",
"UXUXUXUXZ P.!.L J 7 E [ C.- UXUXUXUX8 L jXhXDXaXOXiXG.P , UXUXUX",
"UXUXUXUX- uX[ W , B / [ C.; UXUXUXUXh.].`.jXoXs.V.}.I w W UXUXUX",
"UXUXUXUXUX9 }.I pXI C.{.8 UXUXUXUXUXUXs.7 ].D.D.H.H., ` / UXUXUX",
"UXUXUXUXUX  9 I I s.M.: UXUXUXUXUXUXUX5._ m S.H.B.9 B ( ( / UXUX",
"UXUXUXUXUXa.I.6 : U J UXUXUX[ } [ W } oX/ / m 7 8 , ..( ( X.~ UX",
"UXUXUXv.VXCXv.i y tX-X=.UXUXW kXlXkXlX^./ ( ! P V.m ......o./ UX",
"UX$ b.LXLXLXI.* r v.tXv.UXUXUXA.kXkX+X( ( ( ) I OXA V o.o.X.( UX",
"a.VXLXLXLXLXPXe tXKXLXyXx UXUXUXF k.Y N ..X.V P./.` - < ) ..W UX",
"JXLXLXLXLXLXK.m.PXLXrXf.rXQ.c a n n w.v N ] q 2 2 >.3.$X$X3.>.UX",
"LXLXLXLXLXAXi e f.Q.e.dXdXR.b b v k v v @ :XnXcXnXMXGXHXGX6X2.= ",
"LXLXLXLXLXK.4 b R.R.c E.E.k s s f l.g s z HXHXHXHXNXNXNXNX6Xx.T.",
"LXLXLXLXLX5.3 d j h P H l l l f G kXF.O G U.BXNXMXMXMXMXmXvX4.{.",
"LXLXLXLXDXp 5 . + S.A.OXH.J.uXiXoX} { T.Z.M.Y.HXGXGXNXNXmXnX:Xm.",
"LXLXLXLXCX& t y h.P.].zXj.l..X{.{.T E /.I I U.LXKXHXGXNXmXnX<X>.",
"LXLXLXLXaX* t % eXP < aXQ.k.gXDX{.F.g.|.> 4 3XNXvXcXvXcX2X4X>X1.",
"LXLXKXKXVX& t % I.gXQ C uXgXL.F.I .X{.C R ,.%X,X,X<X>X%X%X%X9.UX",
"LXKXKXJXLXe & N.IXIXXXE - 9 C.F.C.Z < R UXUX0.1X3X3X1X1X,X%X7.UX",
"JXKXLXLXLXI.e IXIXVXCX*.-.# 6 K K + o UXUXUXUX8.6X5X5X5X6X<X7.UX",
"S L g.h.I.yXtXCXCXJXc.r.wX0Xy.Y.`.=.&.%.UXUXUX6.nXGXmX3X1X<X6.UX",
"M B m > G b.6 8 9 J ;.=X0XqX7Xy.t.t.8Xi.$.UXUX8.GXGXmX5X<X2Xq.UX",
"y.#Xu.;.*.u.@ X X X y.=X=XqX0X0X7X7X*X*Xt.UXUX0.HXNXvX6X<X<X%X<.",
"&X&X&Xi.:.%.%.#.#.#.p.=Xt.0X7X8X;X*X-.*X&XUXUXq.HXMXvX5X<X4X>X7."
};
