/* XPM */
static char *partner_xpm[] = {
/* columns rows colors chars-per-pixel */
"24 24 256 2 ",
"   c #33367E",
".  c #7A6155",
"X  c #776051",
"o  c #68777E",
"O  c #A0693D",
"+  c #96535D",
"@  c #B0584F",
"#  c #9C714E",
"$  c #8F6455",
"%  c #A5714C",
"&  c #B9794D",
"*  c #AF625B",
"=  c #A65F74",
"-  c #8F7D69",
";  c #887D78",
":  c #BD6F67",
">  c #AD7177",
",  c #B77B77",
"<  c #C54C4C",
"1  c #CC4A4B",
"2  c #C35353",
"3  c #C67054",
"4  c #C16666",
"5  c #C76F70",
"6  c #CA7D7E",
"7  c #389D52",
"8  c #5D8149",
"9  c #52934E",
"0  c #4A9752",
"q  c #679A5B",
"w  c #44A75D",
"e  c #7B9B6C",
"r  c #719E71",
"t  c #57AE6B",
"y  c #52AE67",
"u  c #5CB16C",
"i  c #7EAD7D",
"p  c #77B074",
"a  c #B88A49",
"s  c #BF9546",
"d  c #AF835F",
"f  c #BB8F58",
"g  c #B68F5D",
"h  c #B7985F",
"j  c #88B259",
"k  c #BCB34E",
"l  c #9C8C74",
"z  c #AC8165",
"x  c #B38E6C",
"c  c #BC8260",
"v  c #BC9267",
"b  c #AF8A70",
"n  c #B7847B",
"m  c #A5907E",
"M  c #B69273",
"N  c #BA9573",
"B  c #B4947A",
"V  c #BE977F",
"C  c #8AAA69",
"Z  c #ADA57B",
"A  c #B7A377",
"S  c #C4874B",
"D  c #C69A4B",
"F  c #C5825C",
"G  c #C68E56",
"H  c #C29455",
"J  c #CA9455",
"K  c #C3965D",
"L  c #C6AA48",
"P  c #CEBA4F",
"I  c #CDBC5F",
"U  c #D1B35D",
"Y  c #D1BC5D",
"T  c #D0BA56",
"R  c #C28F60",
"E  c #C1936B",
"W  c #CC976D",
"Q  c #D19E67",
"!  c #C38E70",
"~  c #C29D7A",
"^  c #C69E70",
"/  c #C7A563",
"(  c #D3AC6B",
")  c #D5BE6D",
"_  c #D6B46F",
"`  c #C8A27B",
"'  c #CAAE76",
"]  c #D2AC73",
"[  c #D7B979",
"{  c #CEC955",
"}  c #D0C35A",
"|  c #D0C85A",
" . c #CEC863",
".. c #D4C467",
"X. c #D5D473",
"o. c #35408B",
"O. c #3E57A6",
"+. c #727988",
"@. c #576DA1",
"#. c #4D70B7",
"$. c #5773B6",
"%. c #B87C88",
"&. c #A659BD",
"*. c #B45FBC",
"=. c #B268AD",
"-. c #9F57C4",
";. c #A85ECF",
":. c #B05CCC",
">. c #AC6BCC",
",. c #BA75C6",
"<. c #B368D3",
"1. c #BB7CD7",
"2. c #6EA882",
"3. c #75BB83",
"4. c #6881AC",
"5. c #7AC884",
"6. c #7798CA",
"7. c #7F9FD5",
"8. c #7FA2D2",
"9. c #81828A",
"0. c #848790",
"q. c #899E91",
"w. c #989497",
"e. c #A09F80",
"r. c #B49C88",
"t. c #A59F9F",
"y. c #9FAB8C",
"u. c #8EB783",
"i. c #93B289",
"p. c #9CB595",
"a. c #BFA789",
"s. c #BBA988",
"d. c #BBA49B",
"f. c #BBB89A",
"g. c #9CB4A5",
"h. c #A5A7AB",
"j. c #BDB4AF",
"k. c #B9B9B9",
"l. c #C08A8A",
"z. c #C1958A",
"x. c #CA9293",
"c. c #C6A68B",
"v. c #C9A784",
"b. c #D3AA87",
"n. c #C9BF80",
"m. c #C9B481",
"M. c #D7B787",
"N. c #C1A693",
"B. c #C9AA90",
"V. c #C6AC92",
"C. c #D6A797",
"Z. c #CCB395",
"A. c #C7BE9D",
"S. c #D2B295",
"D. c #DABB95",
"F. c #D7B59C",
"G. c #C282A4",
"H. c #C998A8",
"J. c #CBA8A4",
"K. c #C2B9AE",
"L. c #D7B8A2",
"P. c #C6BFB8",
"I. c #C1B8B9",
"U. c #DEB5B5",
"Y. c #D6BAB9",
"T. c #E2BCBC",
"R. c #BDC39F",
"E. c #A4CAAD",
"W. c #B8CBB8",
"Q. c #BBE4BD",
"!. c #DAC183",
"~. c #D8CD80",
"^. c #DBDA84",
"/. c #DDD08B",
"(. c #C7C39B",
"). c #DCCB95",
"_. c #DDC298",
"`. c #DEDF90",
"'. c #DFD597",
"]. c #E1CA97",
"[. c #E2D89A",
"{. c #DFC8A0",
"}. c #D7C0A5",
"|. c #C6CDB4",
" X c #D4C3B6",
".X c #D2CEB4",
"XX c #DBC8BB",
"oX c #DADFB1",
"OX c #E3C8A7",
"+X c #E6D3AA",
"@X c #E7DAAB",
"#X c #E4CBB4",
"$X c #E9D5B4",
"%X c #EBDABC",
"&X c #E7D7BB",
"*X c #F1D6BD",
"=X c #E9E6B8",
"-X c #839DD5",
";X c #BD83D9",
":X c #81ABCC",
">X c #87B3CA",
",X c #8BB5D3",
"<X c #B7BCC5",
"1X c #CD9CC5",
"2X c #C698D8",
"3X c #D2A3CE",
"4X c #D4A3D4",
"5X c #DDB2DE",
"6X c #C99CE1",
"7X c #CCABE5",
"8X c #CEA2E3",
"9X c #D5AEE8",
"0X c #D5B4EA",
"qX c #DBB4E9",
"wX c #DBB8EB",
"eX c #E4BCEC",
"rX c #9CCFDF",
"tX c #BBC5C0",
"yX c #9CC8E3",
"uX c #9AD3E0",
"iX c #A3D6E5",
"pX c #C5C3C4",
"aX c #D0C3C5",
"sX c #DCD1C5",
"dX c #D3D3D4",
"fX c #DAD7D9",
"gX c #E3CDCD",
"hX c #EBD9CA",
"jX c #E7D7C6",
"kX c #EDD6D7",
"lX c #D8E1D1",
"zX c #EEE3C4",
"xX c #EDE3DB",
"cX c #E3E3D4",
"vX c #F5E9DB",
"bX c #F1E5D0",
"nX c #F3F2D6",
"mX c #E3C2EC",
"MX c #E5C8ED",
"NX c #EFDCE6",
"BX c #EDCCF0",
"VX c #F1CEF1",
"CX c #F2D5F3",
"ZX c #F4DBF4",
"AX c #E9E5E5",
"SX c #ECEBEB",
"DX c #F7EEE7",
"FX c #F2EBEB",
"GX c #F2E5E8",
"HX c #F6F7E1",
"JX c #F5E2F4",
"KX c #F8E8F9",
"LX c #EFF2F3",
"PX c #F4F5F5",
"IX c #FEFEFE",
"UX c None",
/* pixels */
"UXUXUXUXUXUXb.UXUXW F UXUXUXUXUXUXUXUXUXUXUXUXUX",
"UXUXUXUXUXM.'.!.[ Q F UXUXUXUXUX%X%X+XUXUXUXUXUX",
"UXUXUXUXJ [ {._.] S UXUXUXUXzXbXnXHXnX@XUXUXUXUX",
"UXUXUXUX3 b.XXhXF.J UXUXUX$X%X..X.[.=X=X/.UXUXUX",
"UXUXUXN.V k.aX Xd.E UXUXUX].M._ U } ^.`.^.) UXUX",
"UXUXUXB.hXfXSXXXK.B.B UXUX@X@X+X$X!.I  .X.~.UXUX",
"UXUXUXM DXxXDX}.xXjXc.UXUX'.'.(.lXvX(.n.m.A UXUX",
"UXUXUXM OXZ.Z.^ _.S.O UXUXUX' .XcXvXhX#Xc.x UXUX",
"UXUXUXd _./ a D ( ! UXUXUXUXV.&XkXL.F.S.> G UXUX",
"UXUXUXUXN s.V.` ` % UXUXUXUXn E F.C.C.R K U UXUX",
"UXUXUXUXm b , b # UXUXUXUXUXC./ H ! & D T Y U UX",
"UXUXh.dX|., : j.w.UXUX+XzXzX[.Y L v v L | | } UX",
"UXk.FXIXAX5 6 dXtXUXUXM.=XoX .Y P ' D.a L { } UX",
"fXPXIXIXGXx.xXLXtXg.2.9 C u.j k f , %.= > r.6 UX",
"IXIXIXIXU.n W.E.E.Q.3.t t u y ; 1X3X3X5XMXeX,.+ ",
"IXIXIXGXn e 5.p i 3.w 7 r i.0 q.JXKXKXZXZXVX2XJ.",
"IXIXIXkX* 8 q Z s.e.y.p.(.).Z c.U.NXJXZXCXVX4XH.",
"IXIXIXT.< @ r.F.&Xf.}.%XOX/ b.~ d.GXKXJXZXVXqX=.",
"IXIXIXU.1 1 J.v S.|..XjXL.Z.m.& G.MXMXeXwX7X6X-.",
"IXIXIXgX2 4 fX#XH V A.Z.c.` f 3 *.6XqX9X8X2X>.UX",
"DXPXPXAXl.Y.LXSXw.o l b x . $ UXUX<.qXmXeXqX1.UX",
"h N a.K.P. XsX<X6.uX>Xh.t.4.#.UXUXUXBXCXeXwX;XUX",
"l l - 0.9.X . +.>XuXiX,X:X,X8.#.UX:.CXCXeX0X2X-.",
"-X-X6.$.O.o.  @.>X8.iXyXyX7.7.6.UX,.CXBXeX0X7X;."
};
