/* XPM */
static char *print_xpm[] = {
/* columns rows colors chars-per-pixel */
"24 24 107 2 ",
"   c #4A4A4C",
".  c #4F4F51",
"X  c #545456",
"o  c #565658",
"O  c #5F5F61",
"+  c #646467",
"@  c #66666B",
"#  c #6E6E71",
"$  c #77777E",
"%  c #7A7A7E",
"&  c #7C7C82",
"*  c #007EFE",
"=  c #1D92EF",
"-  c #0481FD",
";  c #1586F7",
":  c #0A97FF",
">  c #1099FF",
",  c #268FF9",
"<  c #30A7FF",
"1  c #4A9DDE",
"2  c #6196DF",
"3  c #6698DF",
"4  c #78A3DF",
"5  c #7FACDE",
"6  c #4C8EE7",
"7  c #458DEF",
"8  c #4A8EE9",
"9  c #5691E2",
"0  c #408EF6",
"q  c #41B1FD",
"w  c #5FB7F9",
"e  c #55B9FD",
"r  c #72C6FE",
"t  c #838386",
"y  c #89898C",
"u  c #8D8D91",
"i  c #8F8F99",
"p  c #919196",
"a  c #949499",
"s  c #98989E",
"d  c #9A9AA6",
"f  c #9B9BA8",
"g  c #9DA2AC",
"h  c #9CB6B5",
"j  c #A3A3AC",
"k  c #A9A9A9",
"l  c #A6A6B3",
"z  c #ABABB2",
"x  c #ADADBA",
"c  c #B2B2B6",
"v  c #B4B5BC",
"b  c #BDBDBC",
"n  c #81A8CA",
"m  c #9BB0C9",
"M  c #80A7DF",
"N  c #9EB8D2",
"B  c #A7B3C0",
"V  c #B4B4C4",
"C  c #BBBBC4",
"Z  c #B5B5C8",
"A  c #BBBBCB",
"S  c #AEBFDD",
"D  c #BAC8CC",
"F  c #B2C4DA",
"G  c #BFC7DA",
"H  c #9CC4E6",
"J  c #85C5F3",
"K  c #86CEFE",
"L  c #96D3FB",
"P  c #9AD4FB",
"I  c #A5D9FC",
"U  c #B1DEFC",
"Y  c #BEE3FD",
"T  c #C3C3CA",
"R  c #C4C5D4",
"E  c #C4CBD4",
"W  c #CACBD4",
"Q  c #CECFDA",
"!  c #CFD0D7",
"~  c #CBD1DD",
"^  c #D0D0D7",
"/  c #D2D2DC",
"(  c #CAD6E9",
")  c #C9D9ED",
"_  c #D1D7E3",
"`  c #DBDBE3",
"'  c #D4DDEA",
"]  c #DEDEE8",
"[  c #C0D8F1",
"{  c #CADFF3",
"}  c #DCE2EC",
"|  c #CEE2F4",
" . c #D3E3F3",
".. c #DEE6F0",
"X. c #DCE9F6",
"o. c #E1E1E7",
"O. c #E4E4EA",
"+. c #ECECEE",
"@. c #E4EBF3",
"#. c #ECEDF1",
"$. c #EAF1F7",
"%. c #EDF3F9",
"&. c #F2F2F5",
"*. c #F3F6F9",
"=. c #F5F9FC",
"-. c #FDFEFE",
";. c None",
/* pixels */
";.;.;.;.;.;.;.W / Q / / / / Q / D ;.;.;.;.;.;.;.",
";.;.;.;.;.;.;.&.-.-.-.-.-.-.=.-.] ;.;.;.;.;.;.;.",
";.;.;.;.;.;.;.&.-.-.-.-.-.=.=.=.` ;.;.;.;.;.;.;.",
";.;.;.;.;.;.;.#.-.-.-.-.=.=.*.=.` ;.;.;.;.;.;.;.",
";.;.;.;.;.;.;.#.-.-.-.=.=.*.%.*./ ;.;.;.;.;.;.;.",
";.;.;.;.;.;.;.+.-.-.-.=.=.*.$.$./ ;.;.;.;.;.;.;.",
";.;.;.;.;.;.;.+.-.=.=.*.%.$.@.$.! ;.;.;.;.;.;.;.",
";.;.;.;.;.;.a +.-.=.*.%.$.@.O.@.! % ;.;.;.;.;.;.",
";.;.;.p C v k O.=.%.$.@.@...} O.W z C v y ;.;.;.",
";.a W ` ] ` g ' X. .| { ) ( ( ' R V ` ` / T & ;.",
";.T O.O.O.] m {  . .X.X.X. .| | [ B W E D / g ;.",
"u O.+.+.O.` H Y Y Y U I L L L L L n ~ E h Q T $ ",
"y #.#.+.O.E J K r e q q q q q q q 1 _ ` / ` ` & ",
"u #.#.O.] N w < > : : : : : : : : = ~ o.o.] ` % ",
"& R ` O.+.5 , - * * * * * * * - - ; F O.o.Q V @ ",
"$ V Z Z R S 4 2 9 6 7 0 0 7 6 9 3 M R T Z Z l @ ",
"$ V A A l d d f k l z z z l k j f f d x A A l + ",
"% Z R A &   o o o o o o o o o o o X . p R R l O ",
"% V / W t + c b b b b b b b b b b k + a ~ / j ;.",
";.z ] ` T T +.+.+.+.+.#.#.+.+.+.#.O.c W ] ` a ;.",
";.p T ` ! #.-.-.-.-.-.-.-.-.-.-.-.-.] Q Q c # ;.",
";.;.;.;.c &.-.-.-.-.-.-.-.-.-.=.&.&.o.u ;.;.;.;.",
";.;.;.;.` -.-.-.-.-.-.-.-.-.-.=.&.&.&.c ;.;.;.;.",
";.;.;.;.W ` ` ] ` ` ] ` ` ` ` / ^ ! W f ;.;.;.;."
};
