/* XPM */
static char *print_xpm[] = {
/* columns rows colors chars-per-pixel */
"32 32 119 2 ",
"   c #3B3B3B",
".  c #434343",
"X  c #4B4B4B",
"o  c #525253",
"O  c #5D5D5D",
"+  c #5D5D61",
"@  c #5D5D6B",
"#  c #616162",
"$  c #6E6E72",
"%  c #767676",
"&  c #7C7C7E",
"*  c #7E7E86",
"=  c #1471ED",
"-  c #1C73E8",
";  c #0B6EF3",
":  c #046DFB",
">  c #007CFF",
",  c #2075E6",
"<  c #2C7AE1",
"1  c #7587A0",
"2  c #678EB5",
"3  c #3B81DF",
"4  c #198AE3",
"5  c #0186F5",
"6  c #008EFF",
"7  c #1687FF",
"8  c #1698FF",
"9  c #14A0FE",
"0  c #3FB2FE",
"q  c #428BCB",
"w  c #4E8DD6",
"e  c #4285DF",
"r  c #6C9AC7",
"t  c #538FE0",
"y  c #5B94E1",
"u  c #4BB5FD",
"i  c #6EA0E3",
"p  c #76A4E3",
"a  c #60B9FF",
"s  c #6CC3FE",
"d  c #7CC0F4",
"f  c #848489",
"g  c #8A8A8F",
"h  c #878791",
"j  c #8F8F91",
"k  c #949497",
"l  c #93939A",
"z  c #99999C",
"x  c #8A98A7",
"c  c #9696A2",
"v  c #9A9AA7",
"b  c #9E9EAA",
"n  c #9F9FB0",
"m  c #80A4A0",
"M  c #91B8AD",
"N  c #A5A5AC",
"B  c #A9A9AB",
"V  c #A6A6B1",
"C  c #A9A9B2",
"Z  c #ADADB9",
"A  c #A7B2BF",
"S  c #B3B3BC",
"D  c #BEBEBF",
"F  c #87A5C7",
"G  c #A2B3C9",
"H  c #B2B2C4",
"J  c #B4BDC7",
"K  c #BCBCC5",
"L  c #B5B5C8",
"P  c #BDBDCC",
"I  c #85B6E2",
"U  c #B7C5C9",
"Y  c #86CCFB",
"T  c #8ACEFD",
"R  c #94D3FD",
"E  c #ABC3E3",
"W  c #B7CDE9",
"Q  c #BACFE9",
"!  c #BED2EB",
"~  c #A4D9FC",
"^  c #B2DEFC",
"/  c #B6E0FD",
"(  c #C4C4C4",
")  c #C5C5CE",
"_  c #CBCBCD",
"`  c #C4C4D3",
"'  c #CACAD6",
"]  c #CDCDD9",
"[  c #D1D1D6",
"{  c #D3D3DC",
"}  c #DCDCDC",
"|  c #C5D2E7",
" . c #CCD5E5",
".. c #C3D5EB",
"X. c #C7D9EE",
"o. c #CBDBEF",
"O. c #D6D6E2",
"+. c #DCDCE4",
"@. c #DDDFE9",
"#. c #D1DEF0",
"$. c #DEE4EE",
"%. c #CCE7FA",
"&. c #CFE8FA",
"*. c #D3E1F1",
"=. c #DBE6F3",
"-. c #D3EAFB",
";. c #DCEEFB",
":. c #E1E1E5",
">. c #E3E3EA",
",. c #E9E9EE",
"<. c #E3EBF3",
"1. c #ECEDF1",
"2. c #EAF1F7",
"3. c #EEF4F9",
"4. c #F2F2F6",
"5. c #F3F6F9",
"6. c #F5F9FB",
"7. c #FEFEFE",
"8. c None",
/* pixels */
"8.8.8.8.8.8.8.8.8.H P P P P P P P P P P P P n 8.8.8.8.8.8.8.8.8.",
"8.8.8.8.8.8.8.8.8.:.7.7.7.7.7.7.7.7.7.7.7.7.P 8.8.8.8.8.8.8.8.8.",
"8.8.8.8.8.8.8.8.8.>.7.7.7.7.7.7.7.7.7.6.5.7.P 8.8.8.8.8.8.8.8.8.",
"8.8.8.8.8.8.8.8.8.>.7.7.7.7.7.7.7.7.6.6.5.7.K 8.8.8.8.8.8.8.8.8.",
"8.8.8.8.8.8.8.8.8.:.7.7.7.7.7.7.6.6.5.5.5.6.L 8.8.8.8.8.8.8.8.8.",
"8.8.8.8.8.8.8.8.8.+.7.7.7.7.7.7.6.6.5.5.2.6.H 8.8.8.8.8.8.8.8.8.",
"8.8.8.8.8.8.8.8.8.+.7.7.7.7.6.6.6.5.5.2.2.6.S 8.8.8.8.8.8.8.8.8.",
"8.8.8.8.8.8.8.8.8.O.7.7.7.7.6.6.5.3.2.2.<.6.Z 8.8.8.8.8.8.8.8.8.",
"8.8.8.8.8.8.8.8.8.{ 7.7.6.6.6.5.5.2.2.<.<.5.C 8.8.8.8.8.8.8.8.8.",
"8.8.8.8.8.8.8.8.+ { 7.7.6.5.5.3.2.2.<.<.$.5.V 8.8.8.8.8.8.8.8.8.",
"8.8.8.8.8.8.8.. g [ 6.6.6.5.5.2.2.<.<.$.$.4.V % . 8.8.8.8.8.8.8.",
"8.8.8.X * S ] O.z { 7.6.5.3.2.2.<.<.$.$.@.4.N _ { ) N $ . 8.8.8.",
"8.8.N @.:.>.>.>.f [ 5.<.=.*.X.W Q ! |  . .4.v D @.@.@.@.O.& 8.8.",
"8.$ >.>.>.>.>.,.1 W ! X.o.*.=.<.=.=.#.X...! E C { { { O.O.{ . 8.",
"8.{ >.,.>.>.,.,.F ;.;.;.;.;.;.;.;.-.-.-.&.%.%.x ] ] J M ] ' f 8.",
"X >.,.,.,.,.,.} I / / / / ^ ~ R T Y Y Y Y Y Y 2 O.O.U m O.O.( 8.",
"X 1.,.1.1.,.@._ d R R T s u u u u u u u u u u q >.O.O.O.O.O.{ 8.",
"# 1.1.1.,.@.+.A s s u 9 8 9 9 9 8 9 9 9 9 9 9 4 } @.:.:.:.:.+.  ",
"# ,.1.1.>.>.>.r a 8 6 6 6 6 6 6 6 6 6 6 6 6 6 5 [ >.>.>.>.,.) . ",
"O H P :.1.,.,.w 7 5 > > > > > > > > > > > > > > G ,.1.>.] L c . ",
"+ H H H H P  .E i t 3 < - = ; : : ; = , < e y p  .' L L H H v . ",
"o H L L L L L L L L P ' ] { O.+.+.{ [ ' ' P L L L L L L L L c 8.",
"o H P P P H * * * * * * * * * * f * * * * * * * * h P P P P l 8.",
"o Z ` ` ` C                                       o ` ` ` ` h 8.",
"8.V ] ] ] C X o ( ( ( ( ( ( ( ( ( ( ( ( ( ( ( B X + ` ] ] ] * 8.",
"8.h O.O.O.K j C } } } } } } } } } } } } } } } } * z [ O.O.{ O 8.",
"8.# @.>.@.>.] ,.7.7.7.7.7.7.7.7.7.7.7.7.7.7.7.7.` @.>.@.>.S . 8.",
"8.8.k [ >.>.P 7.7.7.7.7.7.7.7.7.7.7.7.7.7.7.5.6.,.) >.{ S $ 8.8.",
"8.8.8.8.X + ] 7.7.7.7.7.7.7.7.7.7.7.7.7.7.4.4.4.7.c X . 8.8.8.8.",
"8.8.8.8.8.8.4.7.7.7.7.7.7.7.7.7.7.7.7.7.7.4.4.4.5._ 8.8.8.8.8.8.",
"8.8.8.8.8.H 7.7.7.7.7.7.7.7.7.7.7.7.7.7.7.5.6.5.5.5.@ 8.8.8.8.8.",
"8.8.8.8.8.H ] ] ] ] ] ] ] ] ] ] ] ] ] ` ) P ( K S S $ 8.8.8.8.8."
};
