/* XPM */
static char *quickprint_xpm[] = {
/* columns rows colors chars-per-pixel */
"32 32 205 2 ",
"   c #3D3D3D",
".  c #7B5B37",
"X  c #434343",
"o  c #4B4B4B",
"O  c #515151",
"+  c #5B5B5C",
"@  c #636365",
"#  c #686869",
"$  c #646471",
"%  c #686873",
"&  c #75757E",
"*  c #905D1E",
"=  c #A5671D",
"-  c #D66D00",
";  c #DA7503",
":  c #DC7B03",
">  c #D9760B",
",  c #D97C08",
"<  c #E07E01",
"1  c #91775D",
"2  c #CF840B",
"3  c #DE8106",
"4  c #DE8905",
"5  c #DD8C0D",
"6  c #DD851D",
"7  c #E28302",
"8  c #E78901",
"9  c #EA8F03",
"0  c #E38D0A",
"q  c #EE9501",
"w  c #E3930A",
"e  c #EA930A",
"r  c #E7980A",
"t  c #E99D09",
"y  c #F09700",
"u  c #F29C01",
"i  c #E69111",
"p  c #EC9911",
"a  c #E49219",
"s  c #ECA40A",
"d  c #ECA809",
"f  c #F6A303",
"g  c #F9A600",
"h  c #FBA901",
"j  c #F4A508",
"k  c #F9A80A",
"l  c #EFB30C",
"z  c #F8B707",
"x  c #F1B40B",
"c  c #F2BA0D",
"v  c #FABF0C",
"b  c #E6A710",
"n  c #F2BA10",
"m  c #C4862F",
"M  c #DB8D2C",
"N  c #D58C33",
"B  c #DF9038",
"V  c #D89D3F",
"C  c #E39122",
"Z  c #E19237",
"A  c #FCB620",
"S  c #F0AE30",
"D  c #F4C10E",
"F  c #F8C30D",
"G  c #F6C610",
"H  c #F6CB11",
"J  c #F8CF12",
"K  c #F9D413",
"L  c #FADB15",
"P  c #FBE317",
"I  c #FBE718",
"U  c #FCEC19",
"Y  c #FDF31B",
"T  c #FFFB1D",
"R  c #A78145",
"E  c #9F9E75",
"W  c #F3B946",
"Q  c #E1AD52",
"!  c #C59A6D",
"~  c #DFB171",
"^  c #E0AA63",
"/  c #ECB87D",
"(  c #F7C45C",
")  c #577F9E",
"_  c #597E9C",
"`  c #7E7E82",
"'  c #377EDE",
"]  c #1270EE",
"[  c #1C74E9",
"{  c #076EF7",
"}  c #0A6EF4",
"|  c #007BFF",
" . c #1070F0",
".. c #2778E3",
"X. c #2A79E2",
"o. c #7B8A9F",
"O. c #418CB8",
"+. c #3A80DD",
"@. c #008DFF",
"#. c #1787FF",
"$. c #1A9EF3",
"%. c #1797FF",
"&. c #119FFE",
"*. c #13A0FE",
"=. c #3CB0FE",
"-. c #4C8ADD",
";. c #5790D2",
":. c #689BDF",
">. c #7CA0C5",
",. c #7EB0DC",
"<. c #48B4FD",
"1. c #7FA9E3",
"2. c #62BCFE",
"3. c #75BAF0",
"4. c #6AC2FD",
"5. c #848487",
"6. c #848488",
"7. c #8B8A8D",
"8. c #909093",
"9. c #90909A",
"0. c #9A9A9C",
"q. c #ACA29B",
"w. c #9696A3",
"e. c #9B9BA6",
"r. c #9B9BAA",
"t. c #819FBF",
"y. c #86A7A4",
"u. c #8FB8AB",
"i. c #A1A1A5",
"p. c #A5A5AF",
"a. c #A8A8AE",
"s. c #AAAAB4",
"d. c #ADADBD",
"f. c #B2B2BB",
"g. c #DBB98E",
"h. c #E9B882",
"j. c #C0B4B3",
"k. c #C0B6B9",
"l. c #D0BEB0",
"z. c #BEC2BD",
"x. c #EECE8F",
"c. c #D0C1A8",
"v. c #CCC2B0",
"b. c #C6C3BD",
"n. c #D3CABA",
"m. c #EEC9A4",
"M. c #F2D8A4",
"N. c #E5D7BB",
"B. c #F6DCBD",
"V. c #F7E3B8",
"C. c #B2B2C4",
"Z. c #B9BBC5",
"A. c #B5B5C8",
"S. c #BDBDCD",
"D. c #C0BDC5",
"F. c #8FC4DE",
"G. c #84CBFB",
"H. c #89CEFE",
"J. c #92D2FD",
"K. c #B5CAE5",
"L. c #B1CAE8",
"P. c #BFD3EC",
"I. c #A0D7FC",
"U. c #AFDDFC",
"Y. c #B5E0FD",
"T. c #C3C3CE",
"R. c #CBCBCC",
"E. c #DCD1C8",
"W. c #C5C5D4",
"Q. c #CBCBD4",
"!. c #CDCDDA",
"~. c #D1D1D7",
"^. c #D3D3DC",
"/. c #D8D8DF",
"(. c #E0DCD8",
"). c #F5E0C9",
"_. c #E6E0D2",
"`. c #F6E3D1",
"'. c #F1E5DA",
"]. c #C6D7ED",
"[. c #CADCEF",
"{. c #D6D6E1",
"}. c #DADAE3",
"|. c #D2DFF0",
" X c #CEE9FA",
".X c #D3E1F1",
"XX c #D9E3F2",
"oX c #DEE8F4",
"OX c #D1EBFB",
"+X c #DAEEFB",
"@X c #E0E0E0",
"#X c #E9E5E5",
"$X c #EDECE4",
"%X c #E3E3EA",
"&X c #EAEAEE",
"*X c #E5ECF5",
"=X c #EDEDF1",
"-X c #EAF1F7",
";X c #EDF3F9",
":X c #F2F2F4",
">X c #FDF9F5",
",X c #F2F6FA",
"<X c #F5F9FB",
"1X c #FEFEFF",
"2X c None",
/* pixels */
"2X2X2X2X2X2X2X2X2XC.S.S.S.D.S.S.D.S.S.S.S.D.q.2X2X2X2X2X2X2X2X2X",
"2X2X2X2X2X2X2X2X2X}.1X1X1X1X1X1X1X1X1X1X1XA h h h h h f 2X2X2X2X",
"2X2X2X2X2X2X2X2X2X}.1X1X1X1X1X1X1X1X1X<XV.h U Y Y U K h 2X2X2X2X",
"2X2X2X2X2X2X2X2X2X}.1X1X1X1X1X1X1X<X<X<X( v T T T T z h 2X2X2X2X",
"2X2X2X2X2X2X2X2X2X/.1X1X1X1X1X1X<X<X,X:Xk L T T T I u 2X2X2X2X2X",
"2X2X2X2X2X2X2X2X2X/.1X1X1X1X<X1X<X<X,XM.g Y Y T Y v f 2X2X2X2X2X",
"2X2X2X2X2X2X2X2X2X^.1X1X1X1X1X<X<X,X;XW F Y Y Y U f 2X2X2X2X2X2X",
"2X2X2X2X2X2X2X2X2X^.1X1X1X<X<X,X,X,X$Xf L Y Y Y F u 2X2X2X2X2X2X",
"2X2X2X2X2X2X2X2X2X~.1X1X1X<X,X,X,X-Xx.j Y U U U u 2X2X2X2X2X2X2X",
"2X2X2X2X2X2X2X2X2X~.1X<X<X,X,X,X-X-XS D U Y U P y y q q q y 2X2X",
"2X2X2X2X2X2X2XX 7.Q.1X<X,X,X;X-X-X_.y L U U U U P L L J q 2X2X2X",
"2X2X2Xo 6.f.!.{.i.Q.<X<X,X;X;X-X*XN.y y q q n U I I I s 2 2X2X2X",
"2X2Xi.%X%X%X%X%X8.T.-XoX.X[.].L.K.K.b.v.c.p x U I I c e E.6.2X2X",
"2X@ %X%X%X%X%X&Xo.P.].[..XXXoX*X*XoXXX.Xn.q K P I K 9 g.{.^.X 2X",
"2XR.%X%X%X%X&X=Xt.+X+X+X+X+X+X+X+XOXOX XQ d P P P r V u.!.!.7.2X",
"o %X&X&X&X&X&X}.,.Y.Y.Y.Y.U.I.J.G.G.G.F.9 H L L x i z.y.^.^.T.2X",
"o &X=X&X=X&X%XR.3.J.J.H.2.<.<.<.<.<.<.E r L L L 8 0 a a a ~ ~.2X",
"O =X=X=X&X%X}.Z.4.4.=.*.*.&.&.&.&.&.$.5 c L L L D n c l 7 ^ }.  ",
"O %X:X=X%X%X%X>.2.%.@.@.@.@.@.@.@.@.O.8 0 5 b L L L L t C #XT.X ",
"o C.A./.&X=X&X;.#.| | | | | | | | | | ) ) R w K K K l 7 l.C.e.X ",
"O C.C.C.C.A.Q.K.1.:.-.' ..[  .{ } ] [ X.+.m d K K G 7 ! C.C.r.  ",
"O d.A.A.A.A.A.A.A.A.S.W.Q.!.^.{./.!.!.W.T.7 n J J 0 N A.A.A.w.2X",
"O d.S.S.S.C.& & & & & & & & & & & & & & 1 7 H J s , f.S.S.S.9.2X",
"2Xp.W.W.W.d.                            * 7 H n : . W.W.W.W.7.2X",
"2Xe.!.!.!.f.o O R.R.R.R.R.R.R.R.R.R.R.R.M r G < = + T.!.!.!.` 2X",
"2X` }./.{.T.0.a.@X@X@X@X@X@X@X@X@X@X@X(.: l e 6 7.i.~./.}.^.+ 2X",
"2X+ ^.%X%X%X^.%X1X1X1X1X1X1X1X1X1X1X1XB.: s ; ).Q.}.%X%X%Xf.X 2X",
"2X2X5.T.~.%XZ.1X1X1X1X1X1X1X1X1X1X1X1Xh.: : h.,X:XZ.}.W.s.# 2X2X",
"2X2X2X2X2XO W.1X1X1X1X1X1X1X1X1X1X1X1XZ ; B :X:X1Xe.X 2X2X2X2X2X",
"2X2X2X2X2X2X=X1X1X1X1X1X1X1X1X1X1X1X>X; > '.:X:X:X~.2X2X2X2X2X2X",
"2X2X2X2X2Xd.1X1X1X1X1X1X1X1X1X1X1X1X`.- m.>X<X<X<X>X% 2X2X2X2X2X",
"2X2X2X2X2Xd.T.T.T.T.T.T.T.T.T.T.T.T.T.j.Z.C.f.d.s.p.% 2X2X2X2X2X"
};
