/* XPM */
static char *quickprint_xpm[] = {
/* columns rows colors chars-per-pixel */
"24 24 190 2 ",
"   c #48484A",
".  c #545457",
"X  c #595655",
"o  c #555658",
"O  c #5F5F62",
"+  c #626267",
"@  c #66666B",
"#  c #69696B",
"$  c #76767C",
"%  c #797A7E",
"&  c #966D3E",
"*  c #A36C26",
"=  c #C77B0B",
"-  c #DB7D15",
";  c #B38E3D",
":  c #DE800B",
">  c #D68E19",
",  c #DA9718",
"<  c #EE9600",
"1  c #E79807",
"2  c #E0910D",
"3  c #EB9F08",
"4  c #E28F16",
"5  c #E49A16",
"6  c #E69C19",
"7  c #EAA20A",
"8  c #EDAD0A",
"9  c #F2A303",
"0  c #F6AA04",
"q  c #F9AC02",
"w  c #F0A90C",
"e  c #F1B109",
"r  c #F3BB0D",
"t  c #FCBD0F",
"y  c #EFA610",
"u  c #E9A718",
"i  c #F0AE12",
"p  c #ECB011",
"a  c #EEBB11",
"s  c #CD8E20",
"d  c #D99027",
"f  c #D4933F",
"g  c #E19D22",
"h  c #E39B35",
"j  c #E39738",
"k  c #E4A525",
"l  c #F4B725",
"z  c #F9BC21",
"x  c #EAA730",
"c  c #F7C30D",
"v  c #FAC30B",
"b  c #FDCD0D",
"n  c #F4C611",
"m  c #F9C514",
"M  c #F6CB11",
"N  c #F7D213",
"B  c #F8D714",
"V  c #FADB14",
"C  c #FBE317",
"Z  c #FCE816",
"A  c #FBE518",
"S  c #FCEA19",
"D  c #FDF31B",
"F  c #FFFC1D",
"G  c #8A8066",
"H  c #B8936F",
"J  c #A9917D",
"K  c #E19443",
"L  c #D7A24E",
"P  c #F3BC4A",
"I  c #E1A45A",
"U  c #C99965",
"Y  c #DEB56D",
"T  c #CDAF7E",
"R  c #D9B37A",
"E  c #E7A860",
"W  c #E7B969",
"Q  c #E6AE73",
"!  c #F8C85D",
"~  c #EDC67E",
"^  c #5B7E98",
"/  c #7D7D84",
"(  c #087DF3",
")  c #007DFE",
"_  c #7F8188",
"`  c #7B8EAA",
"'  c #1B95EA",
"]  c #0781FD",
"[  c #0896FF",
"{  c #0E98FF",
"}  c #2A90F9",
"|  c #2FA6FF",
" . c #3EB0FD",
".. c #6D9CDE",
"X. c #478DEC",
"o. c #488DEB",
"O. c #5290E5",
"+. c #5D94E0",
"@. c #428DF2",
"#. c #41B2FD",
"$. c #5FB6F8",
"%. c #51B8FD",
"&. c #6FC5FE",
"*. c #818287",
"=. c #868688",
"-. c #8A8A8D",
";. c #8D8D95",
":. c #929295",
">. c #949499",
",. c #9A9A9F",
"<. c #94A083",
"1. c #A3B09F",
"2. c #9595A3",
"3. c #9898A1",
"4. c #9E9EA9",
"5. c #A3A3AC",
"6. c #A8A8AC",
"7. c #A5A5B4",
"8. c #ACACB3",
"9. c #B6B0B1",
"0. c #BDB3B7",
"q. c #B4B4BC",
"w. c #BABABA",
"e. c #C3B182",
"r. c #CAAD98",
"t. c #D0B295",
"y. c #CABCAD",
"u. c #C5BDB5",
"i. c #F2D18F",
"p. c #F2CA9D",
"a. c #D9C2A7",
"s. c #CAC0BE",
"d. c #D0C5B5",
"f. c #DACBBD",
"g. c #EBC9A6",
"h. c #FADFA7",
"j. c #EDDDBB",
"k. c #9CB0C7",
"l. c #85ACDD",
"z. c #B3B2C3",
"x. c #BDBDC4",
"c. c #B7B7C9",
"v. c #B9B9CC",
"b. c #A9BDD2",
"n. c #A2C8D6",
"m. c #B3C1DB",
"M. c #98C0E2",
"N. c #81C2F2",
"B. c #84CDFE",
"V. c #95D3FC",
"C. c #A2D8FC",
"Z. c #AEDDFC",
"A. c #BCE3FD",
"S. c #C3C3C4",
"D. c #C3C3CB",
"F. c #CDCACB",
"G. c #D2CCCA",
"H. c #C3C3D3",
"J. c #CBCBD3",
"K. c #CCCFDA",
"L. c #D3D0D6",
"P. c #D3D3DD",
"I. c #EBD8C4",
"U. c #F2E0D0",
"Y. c #F3E9D5",
"T. c #C4D6EB",
"R. c #C6D8ED",
"E. c #D1D9E5",
"W. c #DCDCE4",
"Q. c #CEDEF0",
"!. c #D1E2EF",
"~. c #DEE0E8",
"^. c #CEE1F3",
"/. c #D4E5F4",
"(. c #D6E8F7",
"). c #DCE9F6",
"_. c #DEECF8",
"`. c #E1E2E6",
"'. c #E4E5EB",
"]. c #EAEAEE",
"[. c #EEF0EF",
"{. c #E5EEF7",
"}. c #ECECF1",
"|. c #EDF3F9",
" X c #F2F2F2",
".X c #FCF6F0",
"XX c #F2F6FA",
"oX c #F5F9FC",
"OX c #FEFEFF",
"+X c None",
/* pixels */
"+X+X+X+X+X+X+XJ.P.P.P.P.P.P.P.G.e.+X+X+X+X+X+X+X",
"+X+X+X+X+X+X+X}.OXOXOXOXOXOXoXh.v b b v q +X+X+X",
"+X+X+X+X+X+X+X}.OXOXOXOXOXoX X! V F F V q +X+X+X",
"+X+X+X+X+X+X+X}.OXOXOXOXOXoXY.z S F D v +X+X+X+X",
"+X+X+X+X+X+X+X].OXOXOXoXoXXXi.m D F V 0 +X+X+X+X",
"+X+X+X+X+X+X+X].OXOXOXoXXX}.P V D S c +X+X+X+X+X",
"+X+X+X+X+X+X+X'.OXoXoXXX|.j.l Z D Z 9 +X+X+X+X+X",
"+X+X+X+X+X+X:.'.OXoXXX|.|.~ v Z S Z r r e < +X+X",
"+X+X+X>.x.q.6.`.oX|.|.{.~.W w p r C S A a > +X+X",
"+X:.K.W.~.W.5.E.).!.Q.R.T.J.d.R w B A M x y.*.+X",
"+Xx.'.'.'.~.k.^./.(.)._.).(./.Y r C B u e.P.5.+X",
":.'.].].].W.M.^.A.A.Z.C.V.V.n.k N C e L 1.F.D.% ",
"-.].}.].'.K.&.B.&.%.#. . . .<.p V B 3 6 g j a.*.",
"=.}.}.'.`.b.$.| { [ [ [ [ ' ; 7 a N M M 8 h f.% ",
"$ v.W.`.'.l.} ] ) ) ) ) ) ] ^ G s n V n 5 t.z.# ",
"$ z.c.c.D.m.l...+.O.X.@.X.o.O.` , M M 7 U z.7.@ ",
"$ z.v.c.7.2.2.2.4.4.5.5.5.5.4.H 7 M 8 f 0.v.8.+ ",
"% z.H.H./   o o o o . o o . X * w r = J H.H.7.O ",
"+Xq.P.J.-.# w.S.S.S.S.S.S.S.u.d 8 2 & ,.K.P.5.+X",
"+X6.W.W.D.D.}.}. X[.[. X[.[.I.4 1 I 9.K.~.W.>.+X",
"+X-.x.P.K.].OXOXOXOXOXOXOXOXp.: j U.~.J.J.8.# +X",
"+X+X+X+X8. XOXOXOXOXOXOXOXOXE - g.XX'.;.+X+X+X+X",
"+X+X+X+XW.OXOXOXOXOXOXOXOX.XK Q  XXX Xq.+X+X+X+X",
"+X+X+X+XD.P.P.P.P.P.P.P.P.L.r.s.J.D.D.3.+X+X+X+X"
};
