/* XPM */
static char *quit_xpm[] = {
/* columns rows colors chars-per-pixel */
"32 32 231 2 ",
"   c #A62212",
".  c #A92B17",
"X  c #AC3420",
"o  c #AE3622",
"O  c #B03A21",
"+  c #B03B22",
"@  c #B03B2A",
"#  c #B34529",
"$  c #B4482A",
"%  c #B54A2B",
"&  c #B54C2D",
"*  c #B64E2E",
"=  c #B84F2D",
"-  c #B85030",
";  c #B85231",
":  c #B95530",
">  c #B95432",
",  c #BA5632",
"<  c #B95535",
"1  c #BA5534",
"2  c #BA5736",
"3  c #BA5834",
"4  c #BB5A36",
"5  c #BB5D37",
"6  c #B9573A",
"7  c #BA5938",
"8  c #BB5C3A",
"9  c #BB5D3B",
"0  c #BC5F39",
"q  c #BB5A3F",
"w  c #BC5F3E",
"e  c #BD603A",
"r  c #BD623B",
"t  c #BE633E",
"y  c #BE653F",
"u  c #BB5D40",
"i  c #BC5F43",
"p  c #BC6040",
"a  c #BD6241",
"s  c #BE6241",
"d  c #BF6740",
"f  c #BD6443",
"g  c #BE6745",
"h  c #C06942",
"j  c #C06B44",
"k  c #C26D45",
"l  c #C06848",
"z  c #C26E48",
"x  c #C27149",
"c  c #C4734B",
"v  c #C4744D",
"b  c #C4754E",
"n  c #C36D57",
"m  c #C36E58",
"M  c #C57353",
"N  c #C57750",
"B  c #C67652",
"V  c #C47455",
"C  c #C47556",
"Z  c #C57657",
"A  c #C57952",
"S  c #C77853",
"D  c #C77B56",
"F  c #C67C54",
"G  c #C77D56",
"H  c #C77E56",
"J  c #C77E57",
"K  c #C57759",
"L  c #C6785A",
"P  c #C77E58",
"I  c #C77F58",
"U  c #C77F59",
"Y  c #C6795C",
"T  c #C77B5D",
"R  c #C77C5F",
"E  c #C97B58",
"W  c #C87D58",
"Q  c #C87F58",
"!  c #C87E59",
"~  c #C87F59",
"^  c #C87E5A",
"/  c #C87F5A",
"(  c #C87F5C",
")  c #C87E5D",
"_  c #C87F5D",
"`  c #C97F5D",
"'  c #C87E5E",
"]  c #C97E5E",
"[  c #C87F5E",
"{  c #C87D60",
"}  c #C87E61",
"|  c #C97F63",
" . c #C97F64",
".. c #C78058",
"X. c #C88059",
"o. c #C9805A",
"O. c #C8815A",
"+. c #C8805C",
"@. c #C9805C",
"#. c #C8815C",
"$. c #C9815C",
"%. c #C8825C",
"&. c #C8835D",
"*. c #C9855E",
"=. c #C9855F",
"-. c #CA8760",
";. c #CC8660",
":. c #C98165",
">. c #CE8364",
",. c #CA8861",
"<. c #CA8963",
"1. c #CC8962",
"2. c #CD8A65",
"3. c #CC8B65",
"4. c #CA8168",
"5. c #CA8269",
"6. c #CA836A",
"7. c #CC856C",
"8. c #CC866D",
"9. c #CD8869",
"0. c #CF8A68",
"q. c #CF8B69",
"w. c #CD8D69",
"e. c #D28D6D",
"r. c #CF906B",
"t. c #CE916C",
"y. c #CF936F",
"u. c #D48F73",
"i. c #D39172",
"p. c #D19471",
"a. c #D19573",
"s. c #D49174",
"d. c #D39675",
"f. c #D49777",
"g. c #D29976",
"h. c #D19478",
"j. c #D2977B",
"k. c #D39B79",
"l. c #D79B7B",
"z. c #D59D7C",
"x. c #D49D7D",
"c. c #D79C7C",
"v. c #D59E7D",
"b. c #D89A7D",
"n. c #D99C7F",
"m. c #D59F80",
"M. c #D99E81",
"N. c #D7A080",
"B. c #D5A183",
"V. c #D7A487",
"C. c #D9A182",
"Z. c #DAA082",
"A. c #DAA183",
"S. c #DBA286",
"D. c #D9A485",
"F. c #DBA587",
"G. c #D7A488",
"H. c #DBA588",
"J. c #DAA688",
"K. c #D8A78B",
"L. c #DCA789",
"P. c #DDA58A",
"I. c #DCA78A",
"U. c #DFA68D",
"Y. c #DBA88B",
"T. c #DCA88B",
"R. c #D9A98D",
"E. c #D9A98F",
"W. c #DDA98C",
"Q. c #DDAA8D",
"!. c #DEAB8F",
"~. c #DFB195",
"^. c #E2AC94",
"/. c #E2AF95",
"(. c #E2AF96",
"). c #E2B297",
"_. c #E2B399",
"`. c #E4B29A",
"'. c #E3B59B",
"]. c #E5B39E",
"[. c #E3B59C",
"{. c #E4B99F",
"}. c #E6BAA2",
"|. c #E6BDA5",
" X c #EBC3AC",
".X c #EDC2AF",
"XX c #EEC5B1",
"oX c #EEC6B2",
"OX c #EEC6B3",
"+X c #EEC7B4",
"@X c #EFC8B5",
"#X c #EFC9B5",
"$X c #EFCAB6",
"%X c #EFCEBA",
"&X c #F1C9B9",
"*X c #F0CAB8",
"=X c #F0CCB8",
"-X c #F0CEBA",
";X c #F2CDBC",
":X c #F1D0BD",
">X c #F1D1BE",
",X c #F2D1BE",
"<X c #F2D2BF",
"1X c #F2D3C0",
"2X c #F3D4C3",
"3X c #F5D4C3",
"4X c #F7D5C7",
"5X c #F7D7C8",
"6X c #F8D9C9",
"7X c #F9DACC",
"8X c #F9DBCC",
"9X c #F9DCCE",
"0X c #FADFD1",
"qX c #FBE3D4",
"wX c #FDE7DA",
"eX c #FFEBE2",
"rX c #FFECE2",
"tX c #FFECE3",
"yX c #FFEDE3",
"uX c #FFEEE3",
"iX c #FFF2E9",
"pX c #FFF5EB",
"aX c #FFF6EC",
"sX c #FFF6ED",
"dX c #FFF6EF",
"fX c #FFFAF3",
"gX c #FFFBF3",
"hX c #FFFDF7",
"jX c #FFFFFD",
"kX c gray100",
"lX c None",
/* pixels */
"lXlXlXlXlXlXlXlXlXlXlXlXlXlXlXlXlXlXlXlXlXlXlXlXlXlXlXlXlXlXlXlX",
"lXlXlXlXlX                                            lXlXlXlXlX",
"lXlXlX    @ n 8.7.5.5.5.:.:.| ] { ) ) Y D Y K B B p o     lXlXlX",
"lXlX    m R.j.9.) ] ] ] +.] ] ] ) +.o.] +.+.+.+.:.1.3.u     lXlX",
"lXlX  m G.l : : 3 4 0 0 0 r t d d d j k z x c v v N J -.u   lXlX",
"lX  @ R.l : : 3 3 5 0 0 r t a d j g k z x v v v N A F ( +.X   lX",
"lX  m j.: : 3 8 0 0 0 t E ].5XtXrX;X).D v v v A A F J I +.6   lX",
"lX  8.9., 3 4 5 0 0 >.tXjXjXjXjXjXjXjXjX7X( v A F J ....o.g   lX",
"lX  8.] 3 4 0 0 0 U.jXjXjXjXjXjXjXjXjXjXjXjXf.S J J ..*...f   lX",
"lX  5.] 3 5 0 0 U.jXjXjXjX.Xe.z x M.7XjXjXjXjXc...o...*...a   lX",
"lX  5.] 5 0 t u.jXjXjX5XB k z b.s.v v w.fXjXjXjX1.+.*.*.I u   lX",
"lX  5.+.0 0 r dXjXjX5Xj k z ^.jXjX9.N F :.fXjXjX-X*.1.1.I t   lX",
"lX  :.( 0 r s.jXjXjXj k z x OXjXjXZ.A J J c.jXjXjXt.1.<.I 9   lX",
"lX  :.] r t &XjXjX^.k z x v +XjXjXS.A J I ..0XjXjX[.<.3.I 8   lX",
"lX  | ( t y rXjXjXS z x c v OXjXjXS.J J ..*.).jXjX1X3.w.I 8   lX",
"lX  | ] y d jXjXjXz x v v v +XjXjXF.J o...:.Q.jXjX1X9.t.I 2   lX",
"lX  { +.d j jXjXjXx c v v M +XjXjXH.( +.*.,.R.jXjX1Xt.t.I 2   lX",
"lX  ) o.h j uXjXjX( v v A A *XjXjXY.+.*.,.,.[.jXjX2Xp.a.) :   lX",
"lX  ] ] j j 6XjXjX`.v A A F $XjXjXY.*.1.<.<.qXjXjX|.a.g.+.-   lX",
"lX  Y ] k z P.jXjXjXv A F J %XjXjXY.*.1.<.x.jXjXjXv.f.k.] -   lX",
"lX  D ] z x c jXjXjX0XS J I  XjXjXS.:.1.p.hXjXjXwXg.f.x.+.&   lX",
"lX  D +.x x v M.jXjXjX2XI o.+._.N.1.<.a.hXjXjXjXN.k.x.m.) &   lX",
"lX  K ) x b b A $XjXjXjXjX}.g.:.1.V.>XjXjXjXjX~.k.x.B.B.) %   lX",
"lX  K +.b b A S S &XjXjXjXjXjXjXjXjXjXjXjXjX}.f.x.B.N.V.] %   lX",
"lX  B :.b N A F J ..L.iXjXjXjXjXjXjXjXjXwXR.f.x.m.B.V.G.V #   lX",
"lX  i 1.N A F J ....o.*.Z.>XiXdXdXuX%XV.g.k.x.x.B.V.E.E.a +   lX",
"lX  X 3.H F J J ..%.*.-.1.<.3.w.t.y.h.g.k.x.m.V.V.K.E.h.= .   lX",
"lXlX  i 1.H ....%.*.-.:.<.<.w.t.y.h.k.f.x.N.N.V.K.E.h.: O   lXlX",
"lXlX    6 *.o...o.....I I I ..o.J I I ] +.+.] ] M a = O     lXlX",
"lXlXlX    X 8 g f a p t 6 8 8 3 2 ; - - & & % % # + .     lXlXlX",
"lXlXlXlXlX                                            lXlXlXlXlX",
"lXlXlXlXlXlXlXlXlXlXlXlXlXlXlXlXlXlXlXlXlXlXlXlXlXlXlXlXlXlXlXlX"
};
