/* XPM */
static char *quit_xpm[] = {
/* columns rows colors chars-per-pixel */
"24 24 80 1 ",
"  c #A72414",
". c #A82616",
"X c #A92A17",
"o c #AA2B1B",
"O c #AD351E",
"+ c #AD3521",
"@ c #AF3921",
"# c #B03D25",
"$ c #B13D2C",
"% c #B1422A",
"& c #B54C35",
"* c #B74F38",
"= c #B95535",
"- c #BB5A36",
"; c #B75039",
": c #B8523C",
"> c #BC5E39",
", c #BD633C",
"< c #BE6341",
"1 c #BF6942",
"2 c #BF644F",
"3 c #C16C45",
"4 c #C26B4C",
"5 c #C3734C",
"6 c #C57553",
"7 c #C67A54",
"8 c #C87A57",
"9 c #C77F58",
"0 c #C87F5D",
"q c #C87F60",
"w c #C9825C",
"e c #CB8461",
"r c #CB8A64",
"t c #CC876A",
"y c #CF8D6A",
"u c #D18D6C",
"i c #CE906C",
"p c #D1916F",
"a c #D29573",
"s c #D39876",
"d c #D69478",
"f c #D49C7B",
"g c #D99C7E",
"h c #D49C80",
"j c #D99E82",
"k c #D6A184",
"l c #DAA385",
"z c #DCA78C",
"x c #DCA98C",
"c c #DEAE93",
"v c #DEAF99",
"b c #DFB094",
"n c #DFB19C",
"m c #E0B397",
"M c #E1B59D",
"N c #E2B5A1",
"B c #E4B9A3",
"V c #E5BFAB",
"C c #E6C2AB",
"Z c #E7C3B0",
"A c #E8C7B4",
"S c #EBCAB7",
"D c #EACBBB",
"F c #EDD4C6",
"G c #EFD5C9",
"H c #EFD9CF",
"J c #F0D7CC",
"K c #EFDAD0",
"L c #F1DED3",
"P c #F2E0D6",
"I c #F5E4DB",
"U c #F6E7E0",
"Y c #F7EAE2",
"T c #F9ECE6",
"R c #FAEFE9",
"E c #FBF2ED",
"W c #FDF5F1",
"Q c #FEFAF6",
"! c #FFFEFD",
"~ c None",
/* pixels */
"~~~~~~~~~~~~~~~~~~~~~~~~",
"~~~.$;::::;;;;**&&&+.~~~",
"~~o2tteqqqqq0w00www7=o~~",
"~.2t3--><,,,<3335567w;.~",
"~$t<==->>6dxxd85556705@~",
"~:t-->>6BPW!!ELM077w99%~",
"~:e>->qJ!!YKKE!!Fy7ww7%~",
"~:q>>8J!RNuewdZQ!Frww7%~",
"~:q,,Z!Tg3eGD88MQ!nwr7%~",
"~;q,0I!v33gWYu7wS!Iir6%~",
"~:q>j!I035gWUi78lWExr6#~",
"~;0,n!J553jEUiwwsYWbr7#~",
"~;03M!H555lWYawwfYWbi6@~",
"~;83x!Ie55lWYawwxWWcp6#~",
"~*03pTQM77lWYswiD!Iks7@~",
"~*035D!Tl7sPFirCQ!Ssf6@~",
"~*055yI!TBasakAQ!Lkfk6O~",
"~&w557gI!!YPPR!!Pxfkk5O~",
"~&0677waSYQ!!QYSkfkkl4O~",
"~@69799wwfMCCBlffkkzh=X~",
"~.=ww9wwwrrripsfhjkh4@ ~",
"~~o;577777666666664=@.~~",
"~~~.+%%%%%@%@@@@+OOX ~~~",
"~~~~~~~~~~~~~~~~~~~~~~~~"
};
