/* XPM */
static char *save_xpm[] = {
/* columns rows colors chars-per-pixel */
"32 32 79 1 ",
"  c #090707",
". c #100E0E",
"X c #161516",
"o c #191718",
"O c #252424",
"+ c #292526",
"@ c #2D2A2B",
"# c #312D2E",
"$ c #342F31",
"% c #353233",
"& c #393637",
"* c #3A3738",
"= c #3D3A3B",
"- c #413E3F",
"; c #413F40",
": c #454243",
"> c #494647",
", c #484748",
"< c #4D4A4B",
"1 c #504D4E",
"2 c #524F50",
"3 c #555253",
"4 c #585657",
"5 c #5D5B5C",
"6 c #605E5F",
"7 c #615F60",
"8 c #646263",
"9 c #686667",
"0 c #6C6A6B",
"q c #706F6F",
"w c #737375",
"e c #787777",
"r c #7A7979",
"t c #818081",
"y c #8D8D8D",
"u c #878D94",
"i c #898E95",
"p c #8F969E",
"a c #949494",
"s c #92989F",
"d c #9B9B9B",
"f c #A4A4A4",
"g c #A6AAAD",
"h c #ACACAC",
"j c #B0AFAF",
"k c #A8AFB5",
"l c #ABB0B7",
"z c #ADB3B8",
"x c #B4B4B4",
"c c #B1B6BB",
"v c #B5B9BD",
"b c #BBBBBB",
"n c #BABEC1",
"m c #BEC0C3",
"M c #C5C5C5",
"N c #CECECE",
"B c #C8CED5",
"V c #CDD0D7",
"C c #CED1D8",
"Z c #D0D0D0",
"A c #D2D5DC",
"S c #D5D9DE",
"D c #D8DBDF",
"F c #C6D4E3",
"G c #C8D5E4",
"H c #CEDBE7",
"J c #CEDBE9",
"K c #D2DEE9",
"L c #D6E1EB",
"P c #D9E4ED",
"I c #E5ECF2",
"U c #E9EEF4",
"Y c #EDF2F6",
"T c #EDF1F9",
"R c #F0F4F7",
"E c #F2F6FA",
"W c #F6F8FC",
"Q c #FBFCFD",
"! c None",
/* pixels */
"!!!!!!!!!!!!!!!!!!!!!!!!!!!!!!!!",
"!!!!!!!!!!!!!!!!!!!!!!!!!!!!!!!!",
"!!qqqqgBVVVVVVVAAAASASDDAgqqqt!!",
"!!9=39nITTTTTTTTTETEEWWWYm999q!!",
"!!9:49nIJJJJJJJHJJJJJLKKTn8890!!",
"!!8358nTWWEEWEEWWWWQWWWQRM8889!!",
"!!8888mTQWQQWWQQWQQQQQQQRn7880!!",
"!!6857mTQQQQQQQQQQQQQQQQYn7779!!",
"!!5775mYLLLKLKKLKKKKKHKHUb6568!!",
"!!5555mITERRRRRRRRYYYYYYIv5557!!",
"!!5555vIYRRYYYYYYYIYYIIIPv5557!!",
"!!5544cIIUIIUIUUIIIIIIIPPv4557!!",
"!!5344cPGGGGGGGGGGGGGGFFLz4445!!",
"!!3334zLLPPPPLLLLLLLLLJLJz3345!!",
"!!3333lLLKKKLKKKKKHKJJHHHk3335!!",
"!!3333wsuiiiiiiiiiuuuuuupw2334!!",
"!!2<22222222323333332222222224!!",
"!!2111112<<12<2<11112222<2<222!!",
"!!111<11<<<1<<1<1111<<<<<<2<13!!",
"!!,<<<<<<<<<11<1,<1,<<<<<<<<<2!!",
"!!,1<<,<jZZZZZZNNNNZNb&&&%,,,1!!",
"!!>::::<bMMMMMMMMMNMMN-;;*>::,!!",
"!!:;;:;<xM<<,-MMMMMMmM-;;=:::>!!",
"!!---;;<xM&&*+MMMmbbxx--==;;=:!!",
"!!====--xM%&%@mbbxxjhh=-===:2=!!",
"!!&=&*&-xM$$$Ovxxxhhff===&&:,=!!",
"!!&%%%%-jb##@Oxjfffddd$%$$&>=,!!",
"!!$$$$$-fxOoXOfffdddaa###@$&<%!!",
"!!!#$$#*fhhhhhddaaaayy+@@+####!!",
"!!!!+@@%affdddayyyyyyyO+++@@@#!!",
"!!!! ..=90qweerrrrwwq5@......!!!",
"!!!!!!!!!!!!!!!!!!!!!!!!!!!!!!!!"
};
