/* XPM */
static char *saveas_xpm[] = {
/* columns rows colors chars-per-pixel */
"24 24 199 2 ",
"   c #161415",
".  c #1D1B14",
"X  c #161618",
"o  c #1E1C1C",
"O  c #231E12",
"+  c #201D1E",
"@  c #362E0F",
"#  c #2B2511",
"$  c #302C1F",
"%  c #3B3217",
"&  c #36301C",
"*  c #221F20",
"=  c #242323",
"-  c #282727",
";  c #2D2B25",
":  c #2B2728",
">  c #2C292A",
",  c #312E2E",
"<  c #343127",
"1  c #383127",
"2  c #3B362D",
"3  c #322F30",
"4  c #353334",
"5  c #393636",
"6  c #3A3738",
"7  c #3D3A3B",
"8  c #463912",
"9  c #6F2911",
"0  c #413E3E",
"q  c #52420E",
"w  c #624D0F",
"e  c #755D10",
"r  c #7A6113",
"t  c #5B4F25",
"y  c #444033",
"u  c #4B4534",
"i  c #474338",
"p  c #4B463B",
"a  c #594F33",
"s  c #6B5A24",
"d  c #6E5C2E",
"f  c #7A6625",
"g  c #786734",
"h  c #423F40",
"j  c #454243",
"k  c #484546",
"l  c #4F4B43",
"z  c #4A4748",
"x  c #4D4B4C",
"c  c #524C41",
"v  c #504E4E",
"b  c #5C5548",
"n  c #514F50",
"m  c #555354",
"M  c #585657",
"N  c #5A5758",
"B  c #5D5B5C",
"V  c #605E5F",
"C  c #6F6647",
"Z  c #66604A",
"A  c #69604A",
"S  c #61605C",
"D  c #706955",
"F  c #7E7453",
"G  c #615F60",
"H  c #646364",
"J  c #686667",
"K  c #686768",
"L  c #6B696A",
"P  c #706E6F",
"I  c #747474",
"U  c #7C7D7C",
"Y  c #BE0A0A",
"T  c #AC1D09",
"R  c #BA1414",
"E  c #863E2F",
"W  c #D22929",
"Q  c #82660D",
"!  c #92710C",
"~  c #8B6E10",
"^  c #8D7012",
"/  c #9C7B11",
"(  c #8B7530",
")  c #987F30",
"_  c #847343",
"`  c #8C7744",
"'  c #D64D42",
"]  c #C1595A",
"[  c #CD5C60",
"{  c #D27072",
"}  c #A4800D",
"|  c #AE880F",
" . c #B88E0A",
".. c #BF9309",
"X. c #A7851E",
"o. c #B38E18",
"O. c #978137",
"+. c #96813F",
"@. c #9B853D",
"#. c #9F883F",
"$. c #AB9139",
"%. c #C99B0A",
"&. c #C49A14",
"*. c #C49C1A",
"=. c #D1A20E",
"-. c #DDAC0D",
";. c #D6A917",
":. c #DDAE15",
">. c #D9AC1C",
",. c #CE9A3F",
"<. c #C9A022",
"1. c #DAAF23",
"2. c #DBB431",
"3. c #E3B627",
"4. c #E8BE37",
"5. c #93865A",
"6. c #BA9F4C",
"7. c #A5945F",
"8. c #B8A156",
"9. c #968A62",
"0. c #9C906F",
"q. c #9A947B",
"w. c #A39673",
"e. c #BCA86C",
"r. c #BFB27E",
"t. c #DFA059",
"y. c #C2AD6C",
"u. c #C2B069",
"i. c #D4BA6B",
"p. c #D4BC70",
"a. c #ECC64A",
"s. c #ECCA5B",
"d. c #F2CE59",
"f. c #D8C37F",
"g. c #E7CA67",
"h. c #E6C968",
"j. c #E3C975",
"k. c #EFD272",
"l. c #838383",
"z. c #81858A",
"x. c #82888F",
"c. c #8D8D8D",
"v. c #959595",
"b. c #91989F",
"n. c #9C9C9C",
"m. c #969DA5",
"M. c #989FA8",
"N. c #A3A3A3",
"B. c #ACACAC",
"V. c #AEB5BC",
"C. c #B3B3B3",
"Z. c #B1B7BD",
"A. c #B4BBBF",
"S. c #BBBBBB",
"D. c #DD8788",
"F. c #DB9CA0",
"G. c #DCB4B8",
"H. c #CBC196",
"J. c #D5C597",
"K. c #DECF99",
"L. c #E3CE84",
"P. c #E0CD8F",
"I. c #ECD481",
"U. c #E6D498",
"Y. c #D4C4A0",
"T. c #D5CFAF",
"R. c #D6D0AE",
"E. c #DACDB0",
"W. c #D4D1B7",
"Q. c #D8D5B9",
"!. c #B3BCC4",
"~. c #BABEC2",
"^. c #CABFC1",
"/. c #BDC0C5",
"(. c #C3C4C4",
"). c #C2C5C8",
"_. c #C0CBD5",
"`. c #C2CFDC",
"'. c #CED5DC",
"]. c #DCD4DD",
"[. c #DCDFDB",
"{. c #EEE8D1",
"}. c #CDD9E6",
"|. c #D3DEE7",
" X c #D1DDE8",
".X c #E6DDE2",
"XX c #DDE5EE",
"oX c #DBE5F0",
"OX c #E0E6ED",
"+X c #E4E9EE",
"@X c #EAEDEA",
"#X c #F5F1E1",
"$X c #E4EAF2",
"%X c #E8EEF4",
"&X c #EBF1F5",
"*X c #F1F5F9",
"=X c #F6F8FC",
"-X c #F8FAFC",
";X c None",
/* pixels */
";X;X;X;X;X;X;X;X;X;X;X;X;X;X;X;X;X;X;X;X;X;X;X;X",
";X;X;X;X;X;X;X;X;X;X;X;X;X;X;X;X;X;X;X;X;X;X;X;X",
";X;X;XV n L ~.XXOXXXOXOX$XOXG.{ F..X%X+X~.P L P ",
";X;X;XB v L /.$XoXoXoXoXoXW.t.' W [ ].%X).P H L ",
";X;X;XG B L ).*X=X=X-X-X{.a.<.E R Y D.=X(.L H K ",
";X;X;XH G J ).=X-X-X-X#Xd.1.t   9 T ] *X).J G H ",
";X;X;XB B H ).$XoX$X[.g.3.s X @ | ,.^.$X/.H B H ",
";X;X;XB B H /.&X*X@XL.4.f o # } 2.R.XX$X~.H B G ",
";X;X;XN N G /.$XOXK.a.( * O ! 1.H.'.XXXX!.G N B ",
";X;X;XM M B A.|.R.s.@.; . r :.r.!.`.}.}.Z.B M B ",
";X;X;XM m B V.Q.k.8.y o e ;.u.V._. X X XV.B m N ",
";X;X;Xm m m q.I.i.u = w =.$.U x.b.m.m.m.z.M n M ",
";X;X;Xn v Z p.f.D = q %.X.p j n m m m m n n n m ",
";X;X;Xv b e.P.Z = 8 ..o.u 6 k x x v n n n n x n ",
";X;X;Xc 7.U.C = %  .*.a 0 x m M M M z x z x x v ",
";X;X;X#.j.F = & | 1.9.l.n.S.(./.(.B.j 7 6 k z x ",
";X;X;Xg.5., $ / >.g m H C.).(.).(.S.z j 7 j j k ",
";X;Xi.#.< ; ~ :.+.- - 4 S.(.(.S.S.B.z j 7 i h j ",
";X;XE.0.2 r -.O.S - : 6 B.S.S.C.C.N.j 7 6 7 k j ",
";XY.J.u.O.&.! p I 3 > 4 B.B.B.N.N.v.i 4 4 7 j h ",
";Xw.y.6.#.d < K N.6 : 6 N.N.n.n.v.c.5 3 , 4 0 7 ",
";Xi _ ` 2 , , P B.N.n.n.n.v.v.v.c.l.3 > : , 3 3 ",
";X;X;X;X  + = M l.l.c.l.l.U l.U l.I > o * * * * ",
";X;X;X;X;X;X;X;X;X;X;X;X;X;X;X;X;X;X;X;X;X;X;X;X"
};
