/* XPM */
static char *saveas_xpm[] = {
/* columns rows colors chars-per-pixel */
"32 32 243 2 ",
"   c #040404",
".  c #0D0D0C",
"X  c #100F0F",
"o  c #12100A",
"O  c #1A1608",
"+  c #110F10",
"@  c #131313",
"#  c #191718",
"$  c #1B1B1B",
"%  c #201E1F",
"&  c #2E260D",
"*  c #3D310C",
"=  c #272316",
"-  c #2F2710",
";  c #22211B",
":  c #252424",
">  c #292626",
",  c #292826",
"<  c #2D2A2A",
"1  c #302D25",
"2  c #312D2E",
"3  c #383322",
"4  c #35332D",
"5  c #322F30",
"6  c #353233",
"7  c #393636",
"8  c #393738",
"9  c #3D3A3B",
"0  c #503E09",
"q  c #483B14",
"w  c #493D19",
"e  c #433D33",
"r  c #413E3F",
"t  c #584712",
"y  c #514318",
"u  c #6B540C",
"i  c #66551C",
"p  c #47412F",
"a  c #4A4228",
"s  c #544C2E",
"d  c #594D2D",
"f  c #544A33",
"g  c #5D5338",
"h  c #60552F",
"j  c #685828",
"k  c #695C34",
"l  c #7E6722",
"z  c #7F6D37",
"x  c #7F6F3A",
"c  c #413F40",
"v  c #454243",
"b  c #494645",
"n  c #4A4748",
"m  c #4D4B4C",
"M  c #504D4E",
"N  c #524F50",
"B  c #555253",
"V  c #585657",
"C  c #5C5B5B",
"Z  c #605E5F",
"A  c #6A634D",
"S  c #6E6A5F",
"D  c #615F60",
"F  c #646263",
"G  c #686667",
"H  c #6C6C67",
"J  c #6C6B6B",
"K  c #706E6F",
"L  c #6B7075",
"P  c #727272",
"I  c #74797F",
"U  c #7F7F7F",
"Y  c #9B0807",
"T  c #B30707",
"R  c #BE0303",
"E  c #A71515",
"W  c #862323",
"Q  c #C30101",
"!  c #C40D0D",
"~  c #C22020",
"^  c #DB2222",
"/  c #CF3939",
"(  c #DA3E3E",
")  c #86690B",
"_  c #9E7B0A",
"`  c #896B10",
"'  c #9F7E18",
"]  c #A84F20",
"[  c #826B21",
"{  c #8D7423",
"}  c #947A2A",
"|  c #837036",
" . c #BA5543",
".. c #857343",
"X. c #897D66",
"o. c #D24C4C",
"O. c #D55D5E",
"+. c #A88618",
"@. c #BB9314",
"#. c #B79528",
"$. c #A98D3A",
"%. c #AF943E",
"&. c #B29430",
"*. c #CC9E0F",
"=. c #C69B11",
"-. c #CFA00D",
";. c #D5A204",
":. c #D3A208",
">. c #DBA908",
",. c #D6A813",
"<. c #DEAD12",
"1. c #D7AC1E",
"2. c #E1AD07",
"3. c #E2AE09",
"4. c #E3B10C",
"5. c #E8B40F",
"6. c #EEB90D",
"7. c #F1BB0D",
"8. c #E2B114",
"9. c #E8B512",
"0. c #E1B31C",
"q. c #ECBC1B",
"w. c #F3BE11",
"e. c #CD8C24",
"r. c #C9A224",
"t. c #D5AB25",
"y. c #DEB126",
"u. c #C7A330",
"i. c #D8B436",
"p. c #DFBA3E",
"a. c #EBBB22",
"s. c #EABE32",
"d. c #F7C420",
"f. c #FAC724",
"g. c #FDCB2A",
"h. c #F9CC3B",
"j. c #9B8648",
"k. c #9F8D54",
"l. c #A6914D",
"z. c #BA9E41",
"x. c #AE9352",
"c. c #BDA147",
"v. c #BBAB7A",
"b. c #DF8C56",
"n. c #C7A844",
"m. c #D2B34A",
"M. c #C6AD5C",
"N. c #D7BB5D",
"B. c #C5AE62",
"V. c #C6B060",
"C. c #D8BE6F",
"Z. c #CAB97D",
"A. c #E7C145",
"S. c #F3CA44",
"D. c #F3CB4B",
"F. c #E1C25D",
"G. c #F1CC56",
"H. c #F5D056",
"J. c #EDCD61",
"K. c #F9D76B",
"L. c #FBDE7E",
"P. c #CF7F85",
"I. c #828081",
"U. c #81868D",
"Y. c #8C8C8C",
"T. c #878D94",
"R. c #8F969E",
"E. c #949494",
"W. c #9B9B9B",
"Q. c #B1A588",
"!. c #A4A4A4",
"~. c #A3A9AE",
"^. c #ABABAC",
"/. c #A8AFB5",
"(. c #ABB0B7",
"). c #A5B0BD",
"_. c #ACB4BB",
"`. c #B4B4B4",
"'. c #B1B6BB",
"]. c #B5B9BD",
"[. c #BCBCBC",
"{. c #CEBC82",
"}. c #CDBA98",
"|. c #E19DA1",
" X c #C0BDA5",
".X c #E8B0B1",
"XX c #D5C184",
"oX c #CAC199",
"OX c #D1C79C",
"+X c #F0DB96",
"@X c #FBE18A",
"#X c #FDE491",
"$X c #D7CAA2",
"%X c #D9CBA4",
"&X c #D7C8AC",
"*X c #CACBBC",
"=X c #D4D0B5",
"-X c #ECDAA0",
";X c #FAE5A0",
":X c #FFE8A0",
">X c #F7E5AA",
",X c #FDEAAC",
"<X c #BBBEC1",
"1X c #B1BECB",
"2X c #BEC0C3",
"3X c #B7C1CA",
"4X c #B9C4CE",
"5X c #BECCDA",
"6X c #C4C4C4",
"7X c #CECECE",
"8X c #CED0C4",
"9X c #C5CBD1",
"0X c #C8CED5",
"qX c #C4CED9",
"wX c #CDD1D6",
"eX c #CED1D8",
"rX c #D0D0D0",
"tX c #D2D5DC",
"yX c #D6D9DE",
"uX c #EAC6CA",
"iX c #E3DDCA",
"pX c #FBEDC0",
"aX c #FDF1CA",
"sX c #C5D3E3",
"dX c #C8D5E4",
"fX c #CEDAE6",
"gX c #CEDBE9",
"hX c #D3DBE3",
"jX c #D3DEEA",
"kX c #DDE3E7",
"lX c #D7E2EB",
"zX c #DDE6ED",
"xX c #EFEBE0",
"cX c #F7F6EF",
"vX c #E4EBF2",
"bX c #E9EEF3",
"nX c #EDF1F6",
"mX c #ECF1F9",
"MX c #F1F4F7",
"NX c #F3F6FA",
"BX c #F6F8FC",
"VX c #FBFCFD",
"CX c None",
/* pixels */
"CXCXCXCXCXCXCXCXCXCXCXCXCXCXCXCXCXCXCXCXCXCXCXCXCXCXCXCXCXCXCXCX",
"CXCXCXCXCXCXCXCXCXCXCXCXCXCXCXCXCXCXCXCXCXCXCXCXCXCXCXCXCXCXCXCX",
"CXCXCXCXP K K K ~.0XeX0XwXwXeXwXeXeXtXtXtXyXtXtXyXyXtX^.K K K I.",
"CXCXCXCXG 9 N G 3XvXmXmXmXmXmXmXmXmXmX|./ O.uXNXBXBXnX2XG G G K ",
"CXCXCXCXG v V G 2XvXgXgXgXgXgXgXjXgX Xb.o.( ! P.jXjXnX<XF G F J ",
"CXCXCXCXF B C F 2XnXNXNXNXNXNXNXBXiXq.d. .^ ! R .XVXMX6XF F F J ",
"CXCXCXCXF F F F 2XnXVXVXVXVXVXVXxXa.f.} : W Q T ~ VXnX2XD F F G ",
"CXCXCXCXC D D C 2XMXVXVXVXVXVXcXs.g.#.: @   ] Y E VXnX<XD D D G ",
"CXCXCXCXC D Z Z <XnXjXjXlXjXfXp.g.r.: #   [ ;.e.<XgXbX<XC D C F ",
"CXCXCXCXC C C C <XbXNXNXMXMXN.h.y.1 $ . i ;.8.=XkXbXvX].C C D D ",
"CXCXCXCXC C C C ].bXnXnXnXZ.h.s.3 : X q :.4.OXtXkXbXzX].C C C D ",
"CXCXCXCXV V C V '.zXbXbXoXS.D.a : @ & -.4.{.9XhXvXzXzX'.V C V D ",
"CXCXCXCXV V V V '.zXdX*XD.H.h : $ O =.4.V.).1XqXsXsXlX(.V V V Z ",
"CXCXCXCXV V V V _.lX8XH.K.x : ; o @.>.m._.1XqXjXjXjXjX(.B V V V ",
"CXCXCXCXB V B B /.wXJ.L.l.m : . +.3.i.~._.4XfXgXhXgXgX(.B B B V ",
"CXCXCXCXN N N B P F.#XM., : @ ` 3.1.H L I U.T.T.T.T.R.L B B B V ",
"CXCXCXCXN N N N n.:XC.K : # u >.<.f 9 v m B B M B M M B M M B B ",
"CXCXCXCXM M M $.,X-Xe : $ 0 2.5.d 9 9 v M M M M M M M M M M M B ",
"CXCXCXCXm M x ,X+Xp : : * >.6.j 6 8 c m M m m m m M m m m m m B ",
"CXCXCXCXm k ;X>Xs : : - :.7.l 2 8 9 n m m m m m m m m m m m m M ",
"CXCXCXCXg q.pXk : : = -.7.z.U Y.W.<XrXrXrXrXwX[.7 7 7 6 m n n M ",
"CXCXCXCXA.aXz : : ; @.7.u.P U Y.~.6X6X6X6X6X6X6X9 c c 9 v b n n ",
"CXCXCX8.@X{ v : : _ 7.t.< < 5 5 6X6X6X6X6X6X6X*Xr c c 9 c c c b ",
"CXCXCXXX' , : : ) 7.0.S % : < : *X6X6X<X2X[.`.`.c c c 9 c c c c ",
"CXCX}.iXQ.< : u 7.9.A G % : 6 < *X[.[.`.`.^.^.^.r r 9 8 9 v M c ",
"CXCX&X%X{.k.y 7.w.w C K % < 5 : `.`.`.`.^.^.^.!.8 9 8 7 8 b n 9 ",
"CXCX$X{.B.z.&.,.t ; P W.< < < : (.^.^.!.!.!.W.W.5 6 6 5 6 n 9 n ",
"CXX.v.V.c.%...e 2 r !.`.: # # : !.!.!.W.W.E.E.Y.2 5 5 < 5 7 n 6 ",
"CXb 4 j.x.e 2 2 2 9 !.^.`.^.^.!.W.W.E.E.E.Y.Y.Y.> > < > 2 2 2 2 ",
"CX1 f CXCXCX< < < 6 E.!.!.!.W.W.E.E.Y.Y.Y.Y.Y.Y.> > > > 2 < < 2 ",
"CXCXCXCXCXCX  + X 5 V Z F G K K P P P P P P K C < + + + + + + CX",
"CXCXCXCXCXCXCXCXCXCXCXCXCXCXCXCXCXCXCXCXCXCXCXCXCXCXCXCXCXCXCXCX"
};
