/* XPM */
static char *save_xpm[] = {
/* columns rows colors chars-per-pixel */
"24 24 72 1 ",
"  c #1F1C1D",
". c #211E1E",
"X c #221F20",
"o c #232121",
"O c #292627",
"+ c #2A2728",
"@ c #2D2A2B",
"# c #312D2E",
"$ c #322F30",
"% c #363233",
"& c #393636",
"* c #3B3738",
"= c #3D3A3B",
"- c #413E3F",
"; c #423F40",
": c #454243",
"> c #484546",
", c #4A4748",
"< c #4E4B4C",
"1 c #514E4F",
"2 c #524F50",
"3 c #555254",
"4 c #585657",
"5 c #595758",
"6 c #5D5B5B",
"7 c #605E5F",
"8 c #615F60",
"9 c #646263",
"0 c #686667",
"q c #6B6A6B",
"w c #757474",
"e c #7B7A7A",
"r c #807F7F",
"t c #838384",
"y c #858689",
"u c #87888B",
"i c #8B8B8C",
"p c #8F8F90",
"a c #8F9092",
"s c #919293",
"d c #9B9B9B",
"f c #969CA4",
"g c #989EA6",
"h c #99A0A7",
"j c #A4A4A4",
"k c #A8A7A7",
"l c #ABABAB",
"z c #B3B3B3",
"x c #BBBBBB",
"c c #C4C3C3",
"v c #C8C8C8",
"b c #CBD5DE",
"n c #CDDAE7",
"m c #CFDBE8",
"M c #D4DBE2",
"N c #DADFE4",
"B c #D2DEEA",
"V c #DCE1E7",
"C c #D5E1EB",
"Z c #DDE5ED",
"A c #DDE6F0",
"S c #DFE8F1",
"D c #E1E6ED",
"F c #E5E9EC",
"G c #E0E7F0",
"H c #E4EAF1",
"J c #E9EFF4",
"K c #EEF3F6",
"L c #EFF4F8",
"P c #F6F8FC",
"I c #F9FAFC",
"U c None",
/* pixels */
"UUUUUUUUUUUUUUUUUUUUUUUU",
"UUUUUUUUUUUUUUUUUUUUUUUU",
"UU36aMGZGZGGGFHHJJNs0qUU",
"U914sZAZZAZAAAAGAHFs90qU",
"UU66sDPPPPPPIIIIIIFs89UU",
"UU96sFIIPIIIIIIIIPFp69UU",
"UU66pZHGGGGGAAZZZZVi68UU",
"UU66iVLLLKLKKKKJJJBi66UU",
"UU64uBJHHHJHHHHHAAMy46UU",
"UU44yMmmmmmmmnnnnnnt44UU",
"UU41tbCCCCCCCCBBmmbt14UU",
"UU12qfhgggggfffffffq14UU",
"UU22233333434433443122UU",
"UU2<<<<11<<<<<<1<<<<<2UU",
"UU<<<<3444344344<,,<<<UU",
"UU,>,3kcvccccccce&*;><UU",
"UU:::3zkytjvvvvvt---::UU",
"UU--;2zr%$wvvxxxe----:UU",
"UU===>ze$#wcxzzlw*-*:,UU",
"UU&&&>ze+Oqzlkjj0%%%::UU",
"UU%$$;kw@+qljddd7@##*-*U",
"UU+##-dkddddsspp6O@@#$#U",
"UUU..*eiiiiytttr2  .ooUU",
"UUUUUUUUUUUUUUUUUUUUUUUU"
};
