/* XPM */
static char *sbc_xpm[] = {
/* columns rows colors chars-per-pixel */
"32 32 163 2 ",
"   c #2F2E3E",
".  c #523D27",
"X  c #333342",
"o  c #3D3B4B",
"O  c #3D3D50",
"+  c #3A415D",
"@  c #514E5A",
"#  c #5B5C64",
"$  c #50576F",
"%  c #4D5571",
"&  c #575F7B",
"*  c #5A617D",
"=  c #686A7F",
"-  c #91611F",
";  c #9B6A20",
":  c #906535",
">  c #A26F20",
",  c #A77321",
"<  c #B88024",
"1  c #D18514",
"2  c #DA8F1C",
"3  c #DC9018",
"4  c #E19418",
"5  c #DF9C2F",
"6  c #EEA82D",
"7  c #F0AA2D",
"8  c #E8A331",
"9  c #F3AE32",
"0  c #A4815A",
"q  c #BF9C78",
"w  c #DEA951",
"e  c #FFE07F",
"r  c #606682",
"t  c #606981",
"y  c #687089",
"u  c #707185",
"i  c #7B7A8B",
"p  c #707894",
"a  c #777F9F",
"s  c #7D849D",
"d  c #7780A1",
"f  c #96959C",
"g  c #848BA0",
"h  c #8C8DA4",
"j  c #838CAA",
"k  c #8F90A7",
"l  c #8890AE",
"z  c #9291A7",
"x  c #8790B2",
"c  c #8891B2",
"v  c #8997B8",
"b  c #979DB5",
"n  c #9C9CB1",
"m  c #95A0B8",
"M  c #A4A3B7",
"N  c #A5A5B8",
"B  c #A5A9BA",
"V  c #ABACBD",
"C  c #D8BA8F",
"Z  c #CBB59D",
"A  c #ECCA82",
"S  c #F6D384",
"D  c #FAD887",
"F  c #F2DB9E",
"G  c #FFE282",
"H  c #E5D0B4",
"J  c #E9D3B5",
"K  c #E4D0B9",
"L  c #F3DCBA",
"P  c #96A0C0",
"I  c #9BA6C3",
"U  c #9CA5C8",
"Y  c #A5ABC3",
"T  c #A6AECC",
"R  c #A9B1CE",
"E  c #B2B2C2",
"W  c #B3B9CF",
"Q  c #BBB8C8",
"!  c #A3ADD4",
"~  c #ABB3D0",
"^  c #A3BDD2",
"/  c #A7B2D8",
"(  c #ABB5DB",
")  c #B6BEDC",
"_  c #B2BCE3",
"`  c #B7C1CE",
"'  c #B4C3D3",
"]  c #BDC5D4",
"[  c #B5C5DE",
"{  c #BAC1DE",
"}  c #97CEF7",
"|  c #9BCBF5",
" . c #98CEFB",
".. c #9ED4F7",
"X. c #94D2FB",
"o. c #99D7FB",
"O. c #9DDAFB",
"+. c #A5C5E3",
"@. c #BEC6E0",
"#. c #BDD9E1",
"$. c #BCD3EC",
"%. c #BCDFEB",
"&. c #A2CEF3",
"*. c #ABD3F3",
"=. c #AEDBF4",
"-. c #AAD6FD",
";. c #A4DEFB",
":. c #B9E0EF",
">. c #A5E1FD",
",. c #ABE4FB",
"<. c #AFE8FD",
"1. c #B2E6FA",
"2. c #B3EBFD",
"3. c #B8EDFC",
"4. c #BCF3FE",
"5. c #C8C7D4",
"6. c #C2C9D6",
"7. c #CCCBD4",
"8. c #C4CDDC",
"9. c #CCCDDB",
"0. c #FFF6C3",
"q. c #C4CBE4",
"w. c #C9CEE4",
"e. c #CCD1E6",
"r. c #C9DDE4",
"t. c #CDD3EA",
"y. c #D2D5E2",
"u. c #D4DBE2",
"i. c #DBD9E3",
"p. c #D4D9EB",
"a. c #DBDEED",
"s. c #CDD7F0",
"d. c #D3DBF2",
"f. c #D8DEF0",
"g. c #E1DEE7",
"h. c #C5E1EA",
"j. c #CBEAEE",
"k. c #DEE1EE",
"l. c #C6E8F0",
"z. c #DFE3F3",
"x. c #D2ECF0",
"c. c #C2F6FE",
"v. c #C9F4FE",
"b. c #C4F9FE",
"n. c #CDFEFF",
"m. c #D4FFFF",
"M. c #DBFFFF",
"N. c #E3E3ED",
"B. c #E5E6F1",
"V. c #E5E9F3",
"C. c #ECECF4",
"Z. c #E1E6F8",
"A. c #E4E9FA",
"S. c #EFF0F7",
"D. c #EFF3FE",
"F. c #E2FFFF",
"G. c #EBFFFF",
"H. c #F1F1F6",
"J. c #F5F5FA",
"K. c #F8F7FB",
"L. c #F3FCFF",
"P. c #FDFDFE",
"I. c None",
/* pixels */
"I.I.I.I.I.I.I.I.I.I.I.I.I.I.I.I.I.I.I.I.I.I.I.I.I.I.I.I.I.I.I.I.",
"I.I.I.I.I.I.I.I.I.I.I.I.I.I.I.I.I.I.I.I.I.I.I.I.I.I.I.I.I.I.I.I.",
"I.I.I.I.I.I.I.I.I.I.I.I.I.I.t.Z.~ r I.I.I.I.I.I.I.I.I.I.I.I.I.I.",
"I.I.I.I.I.I.I.I.I.I.I.I.I./ f.P.P.K.t.j I.I.I.I.I.I.I.I.I.I.I.I.",
"I.I.I.I.I.I.I.I.I.I.s Y t.V.t.q.K.K.P.P.A.~ * I.I.I.I.I.I.I.I.I.",
"I.I.I.I.I.g W e.V.P.P.P.K.C.H.8.e.K.S.H.K.P.L.q.j I.I.I.I.I.I.I.",
"I.I.I D.P.P.J.S.B.N.g.N.C.C.B.H.{ e.C.H.C.C.H.P.P.Z.T & I.I.I.I.",
"I.I.I.H.C.$.&.} } ..*.$.y.N.C.S.S.! { q.N.C.C.B.C.K.P.L._ I.I.I.",
"I.I.I.t.| X.O.,.,.>.,.,.=.8.g.S.H.f.q.B.q.) e.B.N.N.P.K.d I.I.I.",
"I.I.]  .o.2.2.3.2.;.;.<.3.1.6.N.C.J.q.k.P.H.t.) q.V.K.c I.I.I.I.",
"I.f -.o.2.c.m.n.1.c.<.2.3.4.:.5.H.C.H.) B.K.P.K.a.q.( + I.I.I.I.",
"I.[ X.,.c.m.F.F.3.c.c.4.b.b.b.' i.H.J.k.) H.C.C.J.K.C.e.c I.I.I.",
"I.*.X.<.b.F.L.G.4.v.m.n.m.n.m.#.Q J.C.K.q.e.H.V.B.B.C.K.P.A.! I.",
"# -.O.<.4.m.F.v.b.m.m.m.m.m.M.j.V H.J.H.J.) N.C.C.V.N.N.P.P.c I.",
"# -.;.<.;.,.2.c.m.F.m.M.F.F.F.x.M H.J.H.K.N.) C.B.B.N.J.P.U I.I.",
"I.*.;.;.1.4.v.n.m.M.F.G.G.G.G.r.M K.J.J.J.K.e.w.C.B.H.P.{ I.I.I.",
"I.+.>.>.;.3.b.n.m.M.F.G.L.G.L.` E P.K.J.J.K.K.) N.C.P.A.% I.I.I.",
"I.m >.<.;.2.c.m.m.F.G.L.P.P.L.B N.P.P.P.L.J.V.) ) P.L.d I.I.I.I.",
"I.@ +.2.2.2.b.n.M.M.G.L.P.P.6.B J.B.p.e.@.{ @.e.V.P.P I.I.I.I.I.",
"I.I.u *.4.2.c.n.M.M.F.G.P.u.k n { s.d.k.C.H.H.K.P.) I.I.I.I.I.I.",
"I.I.I.t +.4.n.n.m.M.G.G.` h V E y.J L P.J.S.J.P.s.I.I.I.I.I.I.I.",
"I.I.I.I.o s ^ :.l.h.' b E 7.7.9.Z 5 3 J L.J.P.A.$ I.I.I.I.I.I.I.",
"I.I.I.I.I.I.I.X O   I.y e.L.P.C A S 7 3 H P.K.p I.I.I.I.I.I.I.I.",
"I.I.I.I.I.I.I.I.I.I.I.I.I.t V w G 0.S 7 3 K v I.I.I.I.I.I.I.I.I.",
"I.I.I.I.I.I.I.I.I.I.I.I.I.I.I.I.< D 0.S 7 2 . I.I.I.I.I.I.I.I.I.",
"I.I.I.I.I.I.I.I.I.I.I.I.I.I.I.I.I., G 0.S 9 1 I.I.I.I.I.I.I.I.I.",
"I.I.I.I.I.I.I.I.I.I.I.I.I.I.I.I.I.I.> G 0.S 9 1 I.I.I.I.I.I.I.I.",
"I.I.I.I.I.I.I.I.I.I.I.I.I.I.I.I.I.I.I.; G 0.D 8 : I.I.I.I.I.I.I.",
"I.I.I.I.I.I.I.I.I.I.I.I.I.I.I.I.I.I.I.I.; G F q i I.I.I.I.I.I.I.",
"I.I.I.I.I.I.I.I.I.I.I.I.I.I.I.I.I.I.I.I.I.- 0 z X I.I.I.I.I.I.I.",
"I.I.I.I.I.I.I.I.I.I.I.I.I.I.I.I.I.I.I.I.I.I.I.I.I.I.I.I.I.I.I.I.",
"I.I.I.I.I.I.I.I.I.I.I.I.I.I.I.I.I.I.I.I.I.I.I.I.I.I.I.I.I.I.I.I."
};
