/* XPM */
static char *sbc_xpm[] = {
/* columns rows colors chars-per-pixel */
"24 24 119 2 ",
"   c #766E73",
".  c #7C7378",
"X  c #BA7A17",
"o  c #8D6434",
"O  c #876438",
"+  c #BA812B",
"@  c #EBAC3D",
"#  c #B99142",
"$  c #C09643",
"%  c #C59A44",
"&  c #E0A441",
"*  c #EDAE40",
"=  c #E4B05D",
"-  c #D4B47E",
";  c #E1C47F",
":  c #6E768C",
">  c #778599",
",  c #7D849F",
"<  c #7D8FA4",
"1  c #7F92A8",
"2  c #BCA283",
"3  c #888FA8",
"4  c #8990A6",
"5  c #8998A6",
"6  c #8696AA",
"7  c #889DAC",
"8  c #8E96B1",
"9  c #939AB2",
"0  c #90A4B0",
"q  c #9EA5BB",
"w  c #A1A2B7",
"e  c #A8A9BA",
"r  c #DFBE84",
"t  c #F5D986",
"y  c #E7C693",
"u  c #F5DD91",
"i  c #FADD93",
"p  c #FDE092",
"a  c #99A2C1",
"s  c #95B1CC",
"d  c #99B8CD",
"f  c #A3AAC2",
"g  c #A9AFC5",
"h  c #ADB1C0",
"j  c #B3B7C5",
"k  c #B0B6CA",
"l  c #B5B9CA",
"z  c #BABECC",
"x  c #A6B9D0",
"c  c #B7BDD2",
"v  c #9FC4DD",
"b  c #BEC0CE",
"n  c #BDC4DD",
"m  c #9FDAFA",
"M  c #A3CBEB",
"N  c #B5C9E2",
"B  c #A2D3F7",
"V  c #ADD7F5",
"C  c #A2D3F8",
"Z  c #A5DBFB",
"A  c #B4DAF3",
"S  c #B6E2ED",
"D  c #BBE0EF",
"F  c #A6E1FC",
"G  c #ABE4FC",
"H  c #B6ECFD",
"J  c #BAEFFD",
"K  c #BDF2FD",
"L  c #CAC4C3",
"P  c #D0C6C0",
"I  c #D8CDC2",
"U  c #C1C5D5",
"Y  c #CACBD5",
"T  c #C5CBD8",
"R  c #CDCDD8",
"E  c #C0D4DF",
"W  c #EFE6DA",
"Q  c #F2E7D7",
"!  c #C4CAE2",
"~  c #C8CEE5",
"^  c #CDD2E6",
"/  c #CFD4E8",
"(  c #C4D9EC",
")  c #D2D5E1",
"_  c #D4D8E7",
"`  c #D9DCE6",
"'  c #D2D6E9",
"]  c #D5DAEC",
"[  c #DADDEC",
"{  c #C3DDF6",
"}  c #E0DFE8",
"|  c #C3E1E7",
" . c #CEE1E7",
".. c #CDE9EE",
"X. c #D4E4EB",
"o. c #DEE1EE",
"O. c #DEE1F0",
"+. c #C3F5FE",
"@. c #C9F6FA",
"#. c #CCFCFF",
"$. c #DAF5F8",
"%. c #D3FEFF",
"&. c #DAFFFF",
"*. c #E3E4EE",
"=. c #E8E7EF",
"-. c #E7E8EE",
";. c #E3E5F1",
":. c #E8E7F1",
">. c #E5EAF4",
",. c #ECECF4",
"<. c #EBEDF8",
"1. c #EEF1F6",
"2. c #E4FEFF",
"3. c #E9FFFF",
"4. c #F1F1F6",
"5. c #F4F4F9",
"6. c #F1FFFF",
"7. c #FAFAFD",
"8. c None",
/* pixels */
"8.8.8.8.8.8.8.8.8.8.8.8.8.8.8.8.8.8.8.8.8.8.8.8.",
"8.8.8.8.8.8.8.8.8.8.8.k 8.8.8.8.8.8.8.8.8.8.8.8.",
"8.8.8.8.8.8.8.8.8.8.n <.:.) f 8.8.8.8.8.8.8.8.8.",
"8.8.8.8.8.8.8.h U ] O.' 1.7.5.O.l 8.8.8.8.8.8.8.",
"8.8.c Y ) o.-.1.4.4.,.[ ~ :.4.5.5.>.T g 8.8.8.8.",
"8.8.` >.{ A V A ( ` =.1.] n ' o.:.,.4.,.` a 8.8.",
"8.8.N B m F F F G A / -.,./ ] ] / ' [ 5.;., 8.8.",
"8.x C G K +.H G G H D ) ,.:.' 1.,.[ ' ] 8 8.8.8.",
"8.M Z +.&.&.J +.+.+.+.E } 4.[ ] 4.4.,.;.n 8 8.8.",
"6 C G @.2.2.+.%.%.#.%.| Y 4.4./ [ ,.,.,.4.4.! 8.",
"6 C G H +.@.#.&.&.&.&...b 5.5.,.~ :.:.*.,.4.g 8.",
"< Z F G J @.%.&.2.2.3. .z 5.4.5.O.^ :.,.5.c 8.8.",
"8.M F G K #.&.2.3.6.6.T R 7.7.7.5.~ [ 7._ 8.8.8.",
"8.s G G J #.&.2.6.7.1.z -.1.:.[ ] ~ [ *.3 8.8.8.",
"8.8.v J K #.&.2.6.1.z w ^ ] [ o.;.,.1.q 8.8.8.8.",
"8.8.: d S @.%.$.X.l e l P y Q 5.5.5.k 8.8.8.8.8.",
"8.8.8.8.> 7 0 5 3 U *.I r @ = W 7.T 8.8.8.8.8.8.",
"8.8.8.8.8.8.8.8.8.8.j - t i @ = L 8.8.8.8.8.8.8.",
"8.8.8.8.8.8.8.8.8.8.8.8.% u i * + 8.8.8.8.8.8.8.",
"8.8.8.8.8.8.8.8.8.8.8.8.8.$ u i @ X 8.8.8.8.8.8.",
"8.8.8.8.8.8.8.8.8.8.8.8.8.8.# u p & o 8.8.8.8.8.",
"8.8.8.8.8.8.8.8.8.8.8.8.8.8.8.# r 2   8.8.8.8.8.",
"8.8.8.8.8.8.8.8.8.8.8.8.8.8.8.8.O . 8.8.8.8.8.8.",
"8.8.8.8.8.8.8.8.8.8.8.8.8.8.8.8.8.8.8.8.8.8.8.8."
};
