/* XPM */
static char *separator_xpm[] = {
/* columns rows colors chars-per-pixel */
"24 24 3 1 ",
"  c #575C5E",
". c #676B6D",
"X c None",
/* pixels */
"XXXXXXXXXXXXXXXXXXXXXXXX",
"XXXXXXXXXXXXXXXXXXXXXXXX",
"XXXXXXXXXXXXXXXXXXXXXXXX",
"XXXXXXXXXXXX.XXXXXXXXXXX",
"XXXXXXXXXXXX XXXXXXXXXXX",
"XXXXXXXXXXXX XXXXXXXXXXX",
"XXXXXXXXXXXX XXXXXXXXXXX",
"XXXXXXXXXXXX XXXXXXXXXXX",
"XXXXXXXXXXXX XXXXXXXXXXX",
"XXXXXXXXXXXX XXXXXXXXXXX",
"XXXXXXXXXXXX XXXXXXXXXXX",
"XXXXXXXXXXXX XXXXXXXXXXX",
"XXXXXXXXXXXX XXXXXXXXXXX",
"XXXXXXXXXXXX XXXXXXXXXXX",
"XXXXXXXXXXXX XXXXXXXXXXX",
"XXXXXXXXXXXX XXXXXXXXXXX",
"XXXXXXXXXXXX XXXXXXXXXXX",
"XXXXXXXXXXXX XXXXXXXXXXX",
"XXXXXXXXXXXX XXXXXXXXXXX",
"XXXXXXXXXXXX XXXXXXXXXXX",
"XXXXXXXXXXXX.XXXXXXXXXXX",
"XXXXXXXXXXXXXXXXXXXXXXXX",
"XXXXXXXXXXXXXXXXXXXXXXXX",
"XXXXXXXXXXXXXXXXXXXXXXXX"
};
