/* XPM */
static char *shadbala_xpm[] = {
/* columns rows colors chars-per-pixel */
"32 32 256 2 ",
"   c #070707",
".  c #131313",
"X  c #1B1B1B",
"o  c #252525",
"O  c #2B2B2B",
"+  c #313131",
"@  c #4D3055",
"#  c #5C5C5C",
"$  c gray33",
"%  c #484848",
"&  c #69447D",
"*  c #646464",
"=  c #6C6C6C",
"-  c #737373",
";  c #7C7C7C",
":  c #921300",
">  c #9F1111",
",  c #8F2E0C",
"<  c #912812",
"1  c #BC2F3E",
"2  c #CD0000",
"3  c #C10000",
"4  c #D30101",
"5  c #D00808",
"6  c #D61010",
"7  c #E31C1C",
"8  c #CE3D2D",
"9  c #C9343B",
"0  c #C7343B",
"q  c #D03E3D",
"w  c #DA2E32",
"e  c #EF282E",
"r  c #F43434",
"t  c #F63E3E",
"y  c #E83E34",
"u  c #BA400E",
"i  c #BA5D1B",
"p  c #A46431",
"a  c #F85C13",
"s  c #DC7808",
"d  c #CF6F1F",
"f  c #E07704",
"g  c #C1582F",
"h  c #FF413E",
"j  c #FF4330",
"k  c #FC5B39",
"l  c #CD7126",
"z  c #A54C4C",
"x  c #A84F4F",
"c  c #A85050",
"v  c #A37B5E",
"b  c #885E71",
"n  c #A05E7F",
"m  c #AA5164",
"M  c #967B71",
"N  c #A0716F",
"B  c #AA746D",
"V  c #C94F50",
"C  c #D05558",
"Z  c #FF4443",
"A  c #FF4849",
"S  c #E75559",
"D  c #FA5A5A",
"F  c #FF6148",
"G  c #FF765C",
"H  c #F65E65",
"J  c #DD6F6D",
"K  c #FF6967",
"L  c #FF7B7A",
"P  c #FF7171",
"I  c #64AA17",
"U  c #559127",
"Y  c #43A23E",
"T  c #47C02E",
"R  c #69D432",
"E  c #578258",
"W  c #7DAF44",
"Q  c #7ACC55",
"!  c #7CDE62",
"~  c #78CE65",
"^  c #94B62E",
"/  c #DF8303",
"(  c #E38602",
")  c #E58800",
"_  c #EC9E00",
"`  c #F09E00",
"'  c #F2A200",
"]  c #FFBE0F",
"[  c #FDBC14",
"{  c #DC8F2C",
"}  c #FF9D2F",
"|  c #E38B3C",
" . c #E88B37",
".. c #E29D29",
"X. c #EDAE22",
"o. c #F1A83F",
"O. c #FFD006",
"+. c #FDCA14",
"@. c #FFCB3F",
"#. c #FED532",
"$. c #FFE12B",
"%. c #FFE235",
"&. c #FFF130",
"*. c #9EA65B",
"=. c #9E8F66",
"-. c #8B8E72",
";. c #B99770",
":. c #CD9A42",
">. c #FEBC46",
",. c #C79E7D",
"<. c #DAA16F",
"1. c #C6A37F",
"2. c #B2C142",
"3. c #91DC77",
"4. c #FFCA42",
"5. c #FFDF42",
"6. c #FFD950",
"7. c #FCE949",
"8. c #FEE554",
"9. c #FFE859",
"0. c #DDD960",
"q. c #FDD97E",
"w. c #FCE968",
"e. c #FFEA75",
"r. c #FCEA7C",
"t. c #0438B1",
"y. c #0846BD",
"u. c #2C51B3",
"i. c #54528D",
"p. c #637B9F",
"a. c #5A5EA8",
"s. c #4E73B1",
"d. c #4962BE",
"f. c #194BC3",
"g. c #1A54CE",
"h. c #2D55C9",
"j. c #1D60D4",
"k. c #3877CA",
"l. c #256BD5",
"z. c #2D7ADC",
"x. c #3778DA",
"c. c #005EE7",
"v. c #006BFF",
"b. c #0063FF",
"n. c #0971FF",
"m. c #0371FF",
"M. c #3575E8",
"N. c #2D73ED",
"B. c #4A75CD",
"V. c #4979D9",
"C. c #5A7CCA",
"Z. c #6373C4",
"A. c #437DE3",
"S. c #81699C",
"D. c #C87089",
"F. c #3680D3",
"G. c #1885FF",
"H. c #3B82E8",
"J. c #3E86F3",
"K. c #5494D4",
"L. c #5699D6",
"P. c #4B92D6",
"I. c #7B92D7",
"U. c #7C8FD4",
"Y. c #4181EB",
"T. c #4E93FF",
"R. c #4F97F3",
"E. c #5599FF",
"W. c #5B9EFF",
"Q. c #5297F8",
"!. c #4F8EED",
"~. c #4DA5FF",
"^. c #4CAAFE",
"/. c #4DA2F4",
"(. c #5EA1FF",
"). c #55AAFD",
"_. c #59A4F9",
"`. c #54B2FF",
"'. c #5AB1FF",
"]. c #58B8FF",
"[. c #67A2EA",
"{. c #63A5FE",
"}. c #6BAAFE",
"|. c #71AFFE",
" X c #67B4FF",
".X c #6DBCFF",
"XX c #7ABBFF",
"oX c #77B8FD",
"OX c #858585",
"+X c #888888",
"@X c #858090",
"#X c #B29797",
"$X c #9899BE",
"%X c gray",
"&X c #FF8B88",
"*X c #E4838D",
"=X c #D1AC91",
"-X c #E5B88F",
";X c #C4BCB4",
":X c #C6A5A4",
">X c #91DA98",
",X c #A8F08E",
"<X c #B5F9AB",
"1X c #FDDB83",
"2X c #FDDD8C",
"3X c #FFEE95",
"4X c #FFF29B",
"5X c #FBEE8E",
"6X c #C7C3B9",
"7X c #DECCB4",
"8X c #D3C8B9",
"9X c #E3CCB6",
"0X c #E8CAB4",
"qX c #FFF4B4",
"wX c #F8EEA9",
"eX c #8E91C4",
"rX c #9698C6",
"tX c #8C9CD2",
"yX c #90A4D6",
"uX c #BBBAD3",
"iX c #A6A9D7",
"pX c #83BEFF",
"aX c #88C5FF",
"sX c #96CEFF",
"dX c #97D5FF",
"fX c #BDCCEA",
"gX c #BBE7FF",
"hX c #D0CECC",
"jX c #CFCBDC",
"kX c #DDDDDD",
"lX c #CDCAD1",
"zX c #E0DFDF",
"xX c #EDD7C6",
"cX c #FFF5C0",
"vX c #DCD8E4",
"bX c #E3E3E3",
"nX c #E5E7E9",
"mX c #E5ECED",
"MX c #ECECEC",
"NX c #E9E8E6",
"BX c #EFF0EA",
"VX c #F5F4EC",
"CX c #FFFDEB",
"ZX c #F7F2E9",
"AX c #EBEFF3",
"SX c #E4EEF1",
"DX c #E6F1F1",
"FX c #ECF0F4",
"GX c #ECF4FA",
"HX c #F2F2F2",
"JX c #FAFAF3",
"KX c #F4F7F9",
"LX c #F5F9FA",
"PX c #FDFEFE",
"IX c #F9F6F3",
"UX c None",
/* pixels */
"UXUXUXUXUXUXUXUXUXUXUXUXUXUXUXUXUXUXUXUXUXUXUXUXUXUXUXUXUXUXUXUX",
"UXUXUX* +XOXOXOXOXOXOXOXOXOXOXOXOXOXOXOXOXOXOXOXOX+X+XOX% UXUXUX",
"UXUX# MXPXPXPXPXPXPXPXPXPXPXPXPXPXPXPXPXPXPXPXPXPXPXPXPX%Xo UXUX",
"UXUX; PXPXPXPXPXPXPXPXPXPXIXKXIXKXIXHXIXHXHXHXFXHXBXBXHXBX+ UXUX",
"UXUX; PXPXPXPXPXPXPXLXLXKXPXKXKXKXJXVXJXJXHXHXHXHXMXMXHXMX+ UXUX",
"UXUX; PXPXPXPXLXLXLXLXLXKXKXKXKXJXvXU.I.vXCXFXFXGXHXMXHXnXO UXUX",
"UXUX- PXPXPX-X| | | | | | |  . .N I.aX).V.N  .| <.NXAXBXMXO UXUX",
"UXUX- PXPXxXf 4.2X1X1X1X1X1Xq.M iXgXdX.X`.H.@X6.( =XGXBXnXO UXUX",
"UXUX- PXPX0X) 5XPXCXCXCXCXCXZXV.dXgXdXoX~.G.N.wX' ,.GXHXnXO UXUX",
"UXUX- PXPX9X( w.cXqXqXqXqXqXwXB.^. XaX).n.b.N.r.` ,.FXAXnXo UXUX",
"UXUX- PXPX9X) 9.4X3X3X3X3X4X5XB.`.).~.n.b.v.x.w.` ,.AXMXNXo UXUX",
"UXUX= PXPX9X( 7.r.e.e.e.e.0.W k.`.'.~.n.v.v.z.7.` ,.AXMXnXo UXUX",
"UXUX= PXPX9X/ $.9.8.8.8.2.Q ~ k.'.'.~.n.v.c.& .._ =XAXMXbXo UXUX",
"UXUX= PXPX9X/ O.#.%.%.^ >X<X3.k.'.'.~.m.u.m K S u ;.GXMXnXo UXUX",
"UXUX= PXPX7Xs ] ] +.+.I ! ,X3.x.'.'./.i.J &XL P S V :XBXnXX UXUX",
"UXUX= PXLX7Xs +.[ X...U T R Q x.'.].K.q L &XL P H 7 z DXbXo UXUX",
"UXUX* PXPX7Xs :.B B ;.=.-.E Y F.'.`.L.9 t D L D 5 2 c DXbXX UXUX",
"UXUX* PXPXhXb D.S k @.5.@.p.z.l./.].K.9 t Z Z 5 2 2 c DXbXX UXUX",
"UXUX* PXHXiX*XG F j } &.-.J.W.J.l.^.L.9 Z Z r 2 2 2 c DXbXX UXUX",
"UXUX* PXfXd.S.n C y a *.M.).E.E.Y.z.L.9 Z A r 2 2 2 z SXbXX UXUX",
"UXUX* PXyX[.XX[.L.C.a.V.{.W.E.T.Q.l.P.1 h Z r 2 2 2 x SXbX. UXUX",
"UXUX# PXtX[.sXaXaXoX X{.{.W.E.T.T.d.s.1 Z A r 2 2 2 z SXzXX UXUX",
"UXUX# PXyXA.sXpXpX|.|.}.{.W.Q.W.J.i.o.g w A r 4 2 > #XmXzXX UXUX",
"UXUX# PXvXh.E.aXpXoX|.}.{.(.{.R.y.v @.>.{ 8 e 3 : -.SXbXzX. UXUX",
"UXUX# PXJXuXh.N.{.oX|.|.[.R.l.t.@ d l l l i < , p 8XbXbXkX. UXUX",
"UXUX# PXBXIXjXZ.f.g.j.j.f.t.u.$X8X;X;X;X;X;X;X6XlXbXkXbXkX. UXUX",
"UXUX# PXMXMXVXVXjXiXeXeXrXuXbXZXnXMXnXnXmXnXnXbXbXzXkXzXkX. UXUX",
"UXUX$ PXMXMXMXNXBXVXIXVXIXZXNXbXbXbXbXbXbXzXkXkXzXkXkXzXkX. UXUX",
"UXUX$ PXAXMXMXNXNXMXNXMXnXnXnXbXbXbXbXbXzXkXbXkXkXkXkXnXkX  UXUX",
"UXUXX %XLXHXBXHXHXBXMXMXMXMXMXBXMXMXMXMXMXMXMXMXMXMXNXHX;   UXUX",
"UXUXUX. o o o o o o o o o o o O o o o o o O o o o o O X   UXUXUX",
"UXUXUXUXUXUXUXUXUXUXUXUXUXUXUXUXUXUXUXUXUXUXUXUXUXUXUXUXUXUXUXUX"
};
