/* XPM */
static char *shadbala_xpm[] = {
/* columns rows colors chars-per-pixel */
"24 24 241 2 ",
"   c #070707",
".  c #0D0D0D",
"X  c #131313",
"o  c #181717",
"O  c #1B1B1B",
"+  c #222222",
"@  c #3F3F3F",
"#  c #7E636F",
"$  c #707070",
"%  c #A12616",
"&  c #B92626",
"*  c #BA2828",
"=  c #B03D3D",
"-  c #C70000",
";  c #CE0000",
":  c #C90B08",
">  c #D00000",
",  c #D90E0E",
"<  c #D71010",
"1  c #D91111",
"2  c #E1342D",
"3  c #EE3D3D",
"4  c #FA3E3E",
"5  c #A25139",
"6  c #FD403E",
"7  c #E75731",
"8  c #DA6230",
"9  c #BC5847",
"0  c #B26141",
"q  c #9F5C77",
"w  c #AC4E64",
"e  c #B04E61",
"r  c #AE5165",
"t  c #C44343",
"y  c #D35746",
"u  c #D45659",
"i  c #EE4A4A",
"p  c #FD4240",
"a  c #FE4845",
"s  c #F34D4F",
"d  c #F5574C",
"f  c #CC7D40",
"g  c #C4725C",
"h  c #D86E71",
"j  c #F56462",
"k  c #FE6363",
"l  c #EA7072",
"z  c #FC7371",
"x  c #7F9E2A",
"c  c #4D8F66",
"v  c #5EC341",
"b  c #7BD450",
"n  c #9EBF2A",
"m  c #F2A80B",
"M  c #F6B405",
"N  c #F2B51D",
"B  c #D58B23",
"V  c #FF8135",
"C  c #E7A622",
"Z  c #E9A526",
"A  c #E8AC27",
"S  c #F0A038",
"D  c #F0AD3B",
"F  c #F6C419",
"G  c #FFCE1D",
"H  c #FDD726",
"J  c #F7CB36",
"K  c #FBD939",
"L  c #8F9B58",
"P  c #B89E53",
"I  c #B9A657",
"U  c #BA926F",
"Y  c #B38B70",
"T  c #A8AC74",
"R  c #C98243",
"E  c #CA864B",
"W  c #CE8B4E",
"Q  c #C5914C",
"!  c #D08D55",
"~  c #E39E41",
"^  c #DEAB50",
"/  c #DEA45D",
"(  c #E0A75C",
")  c #E4A85B",
"_  c #D09D6C",
"`  c #C4BF68",
"'  c #E9B47D",
"]  c #86D06B",
"[  c #8EDF7E",
"{  c #ACCE62",
"}  c #BCCE63",
"|  c #F7CE4A",
" . c #E5DB4E",
".. c #F8D35F",
"X. c #FFE44D",
"o. c #FFE550",
"O. c #F6C675",
"+. c #F4E775",
"@. c #FFEB7B",
"#. c #3A5CAA",
"$. c #2F5BBA",
"%. c #6F738B",
"&. c #5C56A2",
"*. c #757EA2",
"=. c #6C7DBF",
"-. c #3979CF",
";. c #3C73D2",
":. c #3272D8",
">. c #0D62E6",
",. c #196CEB",
"<. c #036BFF",
"1. c #1B6CF1",
"2. c #167FFF",
"3. c #187DFF",
"4. c #2577F6",
"5. c #5976C5",
"6. c #5679CC",
"7. c #5D7CCE",
"8. c #4677DD",
"9. c #437EE2",
"0. c #8E628E",
"q. c #B26D84",
"w. c #8078B6",
"e. c #3787BA",
"r. c #558CAE",
"t. c #4D94B4",
"y. c #4F99B8",
"u. c #5298BB",
"i. c #3981E8",
"p. c #3495FF",
"a. c #3B94FF",
"s. c #4985DD",
"d. c #5B85D1",
"f. c #4591DD",
"g. c #5792D3",
"h. c #7687C3",
"j. c #768ACE",
"k. c #7998C5",
"l. c #6C95DC",
"z. c #4C8BEB",
"x. c #5186E5",
"c. c #4194EC",
"v. c #4E98EC",
"b. c #4486F1",
"n. c #468CF1",
"m. c #5596F2",
"M. c #5898F2",
"N. c #5095FD",
"B. c #5499FF",
"V. c #5A9DFF",
"C. c #54A5EB",
"Z. c #5DA0FD",
"A. c #53ABFD",
"S. c #70A0E8",
"D. c #72ABEF",
"F. c #63A4FF",
"G. c #6BACFF",
"H. c #76AFF3",
"J. c #64B5FF",
"K. c #74B3FF",
"L. c #78B6FD",
"P. c #72BDFF",
"I. c #7EBAFF",
"U. c #818181",
"Y. c #8E8E8E",
"T. c #919191",
"R. c #9B9B9B",
"E. c #BBA49E",
"W. c #BA94A7",
"Q. c #A5A5A5",
"!. c #ACACAC",
"~. c #B4B5B5",
"^. c #BBBBBB",
"/. c #FF8381",
"(. c #CCA09A",
"). c #E9BD96",
"_. c #DEBBA4",
"`. c #C9B7BA",
"'. c #9FE88A",
"]. c #C6C383",
"[. c #C6C79C",
"{. c #ECC29B",
"}. c #D8C7B9",
"|. c #D6CABC",
" X c #DAC8BA",
".X c #EEC8A6",
"XX c #FBEEA2",
"oX c #FFF1A5",
"OX c #FFF3A8",
"+X c #809CD2",
"@X c #899BD6",
"#X c #88A2DD",
"$X c #9FADD5",
"%X c #A2A9C4",
"&X c #B8BAD0",
"*X c #B7BBDB",
"=X c #8FABE0",
"-X c #94AEE1",
";X c #ACB8E1",
":X c #84C3FA",
">X c #8DC6FF",
",X c #9ED4FC",
"<X c #B2C1E8",
"1X c #C4C4C4",
"2X c #CACACA",
"3X c #D5C7C7",
"4X c #D7C9C9",
"5X c #D9CCCC",
"6X c #D5D2CF",
"7X c #CFCFD3",
"8X c #CFD0D4",
"9X c #D6D4D3",
"0X c #D9D3D1",
"qX c #D7D8D5",
"wX c #D6D7D8",
"eX c #DCDDDD",
"rX c #E7D2C0",
"tX c #E1D6CE",
"yX c #FBF4D3",
"uX c #FFFAD6",
"iX c #FFFBDA",
"pX c #DCDAE0",
"aX c #D8DBEA",
"sX c #E0DEE2",
"dX c #E4E5E5",
"fX c #E9E7E5",
"gX c #EAE9E7",
"hX c #E6E6EB",
"jX c #E6E8E9",
"kX c #EBEBEB",
"lX c #F6ECE2",
"zX c #F0EFEC",
"xX c #F1F1EF",
"cX c #ECEDF2",
"vX c #EFF2F5",
"bX c #EFF3F8",
"nX c #F3F4F3",
"mX c #FAF5F2",
"MX c #F6FBFE",
"NX c #FCFDFD",
"BX c None",
/* pixels */
"BXBXBXBXBXBXBXBXBXBXBXBXBXBXBXBXBXBXBXBXBXBXBXBX",
"BXBXQ.1X1X1X1X1X1X1X1X1X1X1X1X1X1X1X1X1X1XU.BXBX",
"BXBXeXNXNXNXNXNXNXNXNXNXNXNXNXNXNXmXmXmXmX^.BXBX",
"BXBXdXNXNXNXNXNXNXMXNXMXmXhXaXxXbXbXbXzXbX^.+ BX",
"BXBXeXNXlX.X{.{.{.{.{.{.`.-XS.$X_.).rXcXxX^.+ BX",
"BXBXeXNX' D O.O.O.O.O.U %X,XP.v.*.^ ~ tXbX^.+ BX",
"BXBXeXmX) ..iXuXiXiXyXk.:X,XP.p.4.[.Z  XbX^.+ BX",
"BXBXeXmX) | OXoXoXoXXXk.A.J.a.<.1.].Z  XvX~.+ BX",
"BXBXeXmX( J @.@.@.+.} r.A.A.3.<.,.` C }.vX~.O BX",
"BXBXeXmX( F X.X. .{ ] t.A.A.3.>.&.f B |.vX~.O BX",
"BXBXeXnX/ M G H n [ '.u.A.A.;.0.l j y (.kX~.o BX",
"BXBXeXnX/ m N A x v b y.A.C.q z /.z s t 5X^.o BX",
"BXBXeXnX_ R g W I L c e.A.C.e a k i < & 5X~.o BX",
"BXBXeXcXW.l d V K T s.i.c.C.w 6 4 1 ; * 5X~.X BX",
"BXBXwX<X=.q.u 7 P g.B.N.i.f.r 6 4 , - & 4X~.X BX",
"BXBX7X=XD.D.l.=.d.Z.V.N.b.-.w 6 4 , > & 3X~.X BX",
"BXBX7X#XH.>XI.K.G.F.B.B.9.%.9 3 4 , - = 0X~.. BX",
"BXBX9X;Xx.L.:XK.G.F.V.n.#.Q S 8 2 : % E.jX!.X BX",
"BXBXwXcX@X8.z.M.m.z.:.$.# E W E 0 5 Y qXdX!.. BX",
"BXBXwXxXhX*Xj.7.6.5.h.&X0X0X6X6X6X6XeXeXdX!.. BX",
"BXBX9XxXzXxXhXsXpXdXfXgXdXjXdXdXdXdXeXeXdX!.. BX",
"BXBX2XmXxXxXxXxXxXcXkXkXgXgXhXjXdXgXdXdXgXR.  BX",
"BXBX$ R.T.T.T.T.T.T.T.T.T.T.T.T.Y.T.Y.T.Y.@ BXBX",
"BXBXBXBXBXBXBXBXBXBXBXBXBXBXBXBXBXBXBXBXBXBXBXBX"
};
