/* XPM */
static char *solar_xpm[] = {
/* columns rows colors chars-per-pixel */
"32 32 231 2 ",
"   c #FCAF3E",
".  c #FBB03F",
"X  c #FAB13F",
"o  c #FBB13F",
"O  c #FBB23E",
"+  c #FBB23F",
"@  c #FBB33F",
"#  c #FCB03E",
"$  c #FDB03E",
"%  c #FCB13E",
"&  c #FDB13E",
"*  c #FCB03F",
"=  c #FCB13F",
"-  c #FDB13F",
";  c #FDB23E",
":  c #FCB23F",
">  c #FDB23F",
",  c #FCB33F",
"<  c #FDB33F",
"1  c #FCB43F",
"2  c #FBB340",
"3  c #FBB241",
"4  c #FCB140",
"5  c #FCB240",
"6  c #FCB340",
"7  c #FDB340",
"8  c #FDB341",
"9  c #FCB342",
"0  c #FCB440",
"q  c #FCB540",
"w  c #FCB441",
"e  c #FDB441",
"r  c #FCB344",
"t  c #FBB444",
"y  c #FAB446",
"u  c #FCB445",
"i  c #FCB546",
"p  c #FCB547",
"a  c #FDB647",
"s  c #FCBC42",
"d  c #FEBD42",
"f  c #FCBB47",
"g  c #FAB648",
"h  c #FAB54B",
"j  c #FDB848",
"k  c #FCB849",
"l  c #FBBA4E",
"z  c #FCBC4E",
"x  c #FDBE4F",
"c  c #FEBE4E",
"v  c #FCB752",
"b  c #FCB755",
"n  c #FBBC52",
"m  c #FCBD51",
"M  c #FCBC5F",
"N  c #FEBC5F",
"B  c #FEBF61",
"V  c #FEBF64",
"C  c #FECF4A",
"Z  c #FED04A",
"A  c #FED14A",
"S  c #FED24B",
"D  c #FED34B",
"F  c #FED44B",
"G  c #FED64B",
"H  c #FED34C",
"J  c #FED24E",
"K  c #FED64C",
"L  c #FED74C",
"P  c #FED84C",
"I  c #FEDA4D",
"U  c #FEDB4D",
"Y  c #FEDB4E",
"T  c #FEDD4E",
"R  c #FEDE4E",
"E  c #FEDF4F",
"W  c #FDC355",
"Q  c #FDC456",
"!  c #FCC756",
"~  c #FCC159",
"^  c #FDC159",
"/  c #FDCB59",
"(  c #FDCB5A",
")  c #FDD250",
"_  c #FED350",
"`  c #FED550",
"'  c #FED65E",
"]  c #FED75E",
"[  c #FEDA5F",
"{  c #FEE04F",
"}  c #FEE14F",
"|  c #FEE150",
" . c #FEE250",
".. c #FEE251",
"X. c #FEE053",
"o. c #FEE153",
"O. c #FEE252",
"+. c #FEE054",
"@. c #FEE155",
"#. c #FEE355",
"$. c #FEE156",
"%. c #FEE057",
"&. c #FEE058",
"*. c #FEE158",
"=. c #FEE059",
"-. c #FEE258",
";. c #FEE05A",
":. c #FEE15B",
">. c #FEE15C",
",. c #FEE15D",
"<. c #FEE15E",
"1. c #FEE15F",
"2. c #FEE25F",
"3. c #FEE45F",
"4. c #FEC069",
"5. c #FEC16B",
"6. c #FCC46E",
"7. c #FEC66F",
"8. c #FECA69",
"9. c #FFCB69",
"0. c #FED761",
"q. c #FED762",
"w. c #FEDC61",
"e. c #FEDE67",
"r. c #FDD36E",
"t. c #FED86E",
"y. c #FEDA6F",
"u. c #FDC670",
"i. c #FEC674",
"p. c #FEC675",
"a. c #FEC872",
"s. c #FECD71",
"d. c #FECD73",
"f. c #FCCB77",
"g. c #FEC97A",
"h. c #FCCD7B",
"j. c #FBCB7F",
"k. c #FED270",
"l. c #FEDB72",
"z. c #FEDF76",
"x. c #FDD67A",
"c. c #FEE160",
"v. c #FEE161",
"b. c #FEE262",
"n. c #FEE362",
"m. c #FEE365",
"M. c #FEE067",
"N. c #FEE366",
"B. c #FEE267",
"V. c #FEE367",
"C. c #FEE368",
"Z. c #FEE369",
"A. c #FEE36A",
"S. c #FEE46A",
"D. c #FEE56C",
"F. c #FEE56E",
"G. c #FEE56F",
"H. c #FEE570",
"J. c #FEE672",
"K. c #FFE074",
"L. c #FFE674",
"P. c #FFE675",
"I. c #FFE776",
"U. c #FEEC71",
"Y. c #FEEC73",
"T. c #FEE876",
"R. c #FEE877",
"E. c #FFE278",
"W. c #FFE478",
"Q. c #FFE479",
"!. c #FFE47B",
"~. c #FFE67B",
"^. c #FFE47D",
"/. c #FFE57E",
"(. c #FEE77E",
"). c #FEE878",
"_. c #FEE879",
"`. c #FEE97A",
"'. c #FEE97B",
"]. c #FEEC7B",
"[. c #FCCD80",
"{. c #FCCD82",
"}. c #FCCF85",
"|. c #FED080",
" X c #FCD088",
".X c #FFDA9E",
"XX c #FEDA9F",
"oX c #FFE780",
"OX c #FEE583",
"+X c #FFE981",
"@X c #FEEA81",
"#X c #FFE982",
"$X c #FFEC83",
"%X c #FFED83",
"&X c #FEEB84",
"*X c #FFEB84",
"=X c #FEEA87",
"-X c #FEEC85",
";X c #FEED85",
":X c #FEEB8B",
">X c #FFEF88",
",X c #FFEB8D",
"<X c #FEEC8D",
"1X c #FEEF8E",
"2X c #FEEC9C",
"3X c #FEF090",
"4X c #FFF19F",
"5X c #FED8A0",
"6X c #FEDAA0",
"7X c #FEEEA5",
"8X c #FEE1AA",
"9X c #FEE2AD",
"0X c #FFF0A1",
"qX c #FFF1A1",
"wX c #FFF2A0",
"eX c #FFF3AB",
"rX c #FFF1AD",
"tX c #FFF4AC",
"yX c #FFF4AD",
"uX c #FFF4AF",
"iX c #FFF2B0",
"pX c #FFF5B3",
"aX c #FFF6B9",
"sX c #FFF7BE",
"dX c #FEF6C6",
"fX c #FEF6C9",
"gX c #FEF5D8",
"hX c #FEFBD8",
"jX c #FEFBDA",
"kX c #FFFFFE",
"lX c None",
/* pixels */
"lXlXlXlXlXlXlXlXlXlXlXlXlXlXlXlXlXlXlXlXlXlXlXlXlXlXlXlXlXlXlXlX",
"lXlXlXlXlXlXlXlXlXlXlXlXlXlXlX& lXlXlXlXlXlXlXlXlXlXlXlXlXlXlXlX",
"lXlXlXlXlXlXlXlXlXlXlXlXlXlXlXg.lXlXlXlXlXlXlXlXlXlXlXlXlXlXlXlX",
"lXlXlXlXlXlXlXlXlXlXlXlXlXlXh kXu lXlXlXlXlXlXlXlXlXlXlXlXlXlXlX",
"lXlXlXlXlXlXlXlXlXlXlXlXlXlXj.jXf.lXlXlXlXlXlXlXlXlXlXlXlXlXlXlX",
"lXlXlXlXlX  e lXlXlXlXlXlXlX5.^ B lXlXlXlXlXlXlX&   lXlXlXlXlXlX",
"lXlXlXlXlX8 XX X3 lXlXlXlXlXlXlXlXlXlXlXlXlX3 }.6XX lXlXlXlXlXlX",
"lXlXlXlXlXlX[.kX9Xb lXlXlXe e & & q lXlXlX& s.dX[.lXlXlXlXlXlXlX",
"lXlXlXlXlXlX& 8Xu.lXlXu x.7XaXdXpX2Xr.& lXlX3 8.& lXlXlXlXlXlXlX",
"lXlXlXlXlXlXlXv lXlX~ iXrX=XD.c.<.T.qX0Xx lXlX& lXlXlXlXlXlXlXlX",
"lXlXlXlXlXlXlXlXlX~ aX<XJ.I.J.Z.c.*.@.I.qXx lXlXlXlXlXlXlXlXlXlX",
"lXlXlXlXlXlXlXlXe rX:XS.).-X@XI.N.<.O.O.D.,X& lXlXlXlXlXlXlXlXlX",
"lXlXlXlXlXlXlXlXr.rXc.D.).3X3X).S.<.@.} U @X( lXlXlXlXlXlXlXlXlX",
"lXlXlXlXlX& lXX 2X).<.Z.I.-X-X).S.<.@.O.U w.K.8 lXlXlXlXlXlXlXlX",
"lXlXlXh |.5.lXX yX3.*.b.D.I.I.J.b.<.@.} U ` @X8 lX  m y lXlXlXlX",
"lX  p.kXjXV lX& yX#.@.*.c.S.Z.b.c.*.O.} U F :X& lX  Y.gXp.  lXlX",
"lXlXlXu a.N lXX qX*.@.@.*.<.<.<.*.@.O.U U ) @X  lX  l r lXlXlXlX",
"lXlXlXlXlXlXlXe OXb.} O.%.@.@.@.@.O.} U A ] l.3 lXlXlXlXlXlXlXlX",
"lXlXlXlXlXlXlXlX( =XU E O.O.O.O.O.} U K C E.Q lXlXlXlXlXlXlXlXlX",
"lXlXlXlXlXlXlXlXe ^.b.P U U O.U U U F A 0.z.8 lXlXlXlXlXlXlXlXlX",
"lXlXlXlXlXlXlXlXlXf %Xb.K K K K P A C 0.^.u lXlXlXlXlXlXlXlXlXlX",
"lXlXlXlXlXlXlX  lXlXk !.).[ J A J ] E.z.j lXlX. lXlXlXlXlXlXlXlX",
"lXlXlXlXlXlX8 s.X lXlX8 Q y.!.oX^.y.W X lXlX8 d 8 lXlXlXlXlXlXlX",
"lXlXlXlXlXlX{.fX8.  lXlXlX1 X & X X lXlXlX& d ].7.lXlXlXlXlXlXlX",
"lXlXlXlXlX& XXj.& lXlXlXlXlXlXlXlXlXlXlXlXlXX 7.6X. lXlXlXlXlXlX",
"lXlXlXlXlX  & lXlXlXlXlXlXlX. &   lXlXlXlXlXlXlX&   lXlXlXlXlXlX",
"lXlXlXlXlXlXlXlXlXlXlXlXlXlXn Y.x lXlXlXlXlXlXlXlXlXlXlXlXlXlXlX",
"lXlXlXlXlXlXlXlXlXlXlXlXlXlXu gXu lXlXlXlXlXlXlXlXlXlXlXlXlXlXlX",
"lXlXlXlXlXlXlXlXlXlXlXlXlXlXlXp.lXlXlXlXlXlXlXlXlXlXlXlXlXlXlXlX",
"lXlXlXlXlXlXlXlXlXlXlXlXlXlXlX  lXlXlXlXlXlXlXlXlXlXlXlXlXlXlXlX",
"lXlXlXlXlXlXlXlXlXlXlXlXlXlXlXlXlXlXlXlXlXlXlXlXlXlXlXlXlXlXlXlX",
"lXlXlXlXlXlXlXlXlXlXlXlXlXlXlXlXlXlXlXlXlXlXlXlXlXlXlXlXlXlXlXlX"
};
