/* XPM */
static char *solar_xpm[] = {
/* columns rows colors chars-per-pixel */
"24 24 148 2 ",
"   c #FCB540",
".  c #FDB540",
"X  c #FBB344",
"o  c #FDB444",
"O  c #FDB647",
"+  c #FCB747",
"@  c #FDB747",
"#  c #FCBC4B",
"$  c #FCB94D",
"%  c #FCBA4C",
"&  c #FCBA4D",
"*  c #FCBD4D",
"=  c #FDBE4D",
"-  c #FCBC4F",
";  c #FCBE4E",
":  c #FCBB51",
">  c #FCBB52",
",  c #FCBB53",
"<  c #FCBC51",
"1  c #FDB954",
"2  c #FCBA56",
"3  c #FDBD5B",
"4  c #FDBF64",
"5  c #FED54A",
"6  c #FED54C",
"7  c #FED44D",
"8  c #FED64D",
"9  c #FED74E",
"0  c #FED84C",
"q  c #FED94C",
"w  c #FEDC4D",
"e  c #FEDD4E",
"r  c #FEDE4E",
"t  c #FEDF4E",
"y  c #FEDE4F",
"u  c #FEDF4F",
"i  c #FDC152",
"p  c #FDC252",
"a  c #FDC552",
"s  c #FDC553",
"d  c #FDC254",
"f  c #FDC354",
"g  c #FDC456",
"h  c #FDC758",
"j  c #FDC25C",
"k  c #FDC25D",
"l  c #FEC95A",
"z  c #FDCA5D",
"x  c #FED554",
"c  c #FEDB50",
"v  c #FEDC53",
"b  c #FEDA58",
"n  c #FEE04F",
"m  c #FEE150",
"M  c #FEE151",
"N  c #FEE152",
"B  c #FEE252",
"V  c #FEE154",
"C  c #FEE055",
"Z  c #FEE156",
"A  c #FEE057",
"S  c #FEE256",
"D  c #FEE257",
"F  c #FEE159",
"G  c #FEE15B",
"H  c #FEE35A",
"J  c #FEE05C",
"K  c #FEE15C",
"L  c #FEE15D",
"P  c #FEE15F",
"I  c #FDC560",
"U  c #FCC663",
"Y  c #FDC165",
"T  c #FDC166",
"R  c #FCC567",
"E  c #FDCF60",
"W  c #FECC62",
"Q  c #FDCB65",
"!  c #FEC668",
"~  c #FEC66E",
"^  c #FDD160",
"/  c #FED064",
"(  c #FED566",
")  c #FED667",
"_  c #FED767",
"`  c #FED964",
"'  c #FEDB65",
"]  c #FEDA66",
"[  c #FEDD68",
"{  c #FEDF6A",
"}  c #FEDA6D",
"|  c #FEDA6F",
" . c #FCC770",
".. c #FDC672",
"X. c #FDCF72",
"o. c #FED370",
"O. c #FEE262",
"+. c #FEE263",
"@. c #FEE364",
"#. c #FEE365",
"$. c #FEE366",
"%. c #FEE367",
"&. c #FEE368",
"*. c #FFE16A",
"=. c #FEE46B",
"-. c #FEE06C",
";. c #FEE26F",
":. c #FEE770",
">. c #FEE673",
",. c #FEE674",
"<. c #FEE776",
"1. c #FEE777",
"2. c #FEE877",
"3. c #FEE77B",
"4. c #FEE97C",
"5. c #FFE97D",
"6. c #FEEA7D",
"7. c #FEEA7E",
"8. c #FCCE82",
"9. c #FCCF84",
"0. c #FDD086",
"q. c #FEDC81",
"w. c #FDD089",
"e. c #FEDE89",
"r. c #FDDC8F",
"t. c #FDDC90",
"y. c #FDDD97",
"u. c #FDDD98",
"i. c #FEE681",
"p. c #FEE184",
"a. c #FEE981",
"s. c #FEEA80",
"d. c #FEEA86",
"f. c #FEE98B",
"g. c #FEE88D",
"h. c #FFEC8D",
"j. c #FEEE8C",
"k. c #FEE991",
"l. c #FEE997",
"z. c #FEEA98",
"x. c #FEEA99",
"c. c #FEEB99",
"v. c #FDDEA1",
"b. c #FEDFA3",
"n. c #FDDDA9",
"m. c #FDDEAA",
"M. c #FEE6BD",
"N. c None",
/* pixels */
"N.N.N.N.N.N.N.N.N.N.N.N.N.N.N.N.N.N.N.N.N.N.N.N.",
"N.N.N.N.N.N.N.N.N.N.N.2 N.N.N.N.N.N.N.N.N.N.N.N.",
"N.N.N.N.N.N.N.N.N.N.N.m.N.N.N.N.N.N.N.N.N.N.N.N.",
"N.N.N.N.N.N.N.N.N.N.N.v. .N.N.N.N.N.N.N.N.N.N.N.",
"N.N.N.N.3 N.N.N.N.N.N.N.N.N.N.N.N.N.Y N.N.N.N.N.",
"N.N.N.N.N.M.w.N.N.N.< : - N.N.N.: y.9.N.N.N.N.N.",
"N.N.N.N.N.0.N.N.U e.z.c.k.p.Q N.N.k N.N.N.N.N.N.",
"N.N.N.N.N.N.N.X.c.h.1.&.O.:.d.o.N.N.N.N.N.N.N.N.",
"N.N.N.N.N.N.U z.4.2.s.2.O.Z H 3.W N.N.N.N.N.N.N.",
"N.N.N.N.N.N.3.s.&.4.j.4.#.F M G } - N.N.N.N.N.N.",
"N.N.N.N.N.% g.#.O.1.4.2.$.F M c [ d N.@ N.N.N.N.",
"N.2 m.b.N.% f.D G #.&.&.G Z M 0 &.g N.s r.Y N.N.",
"N.N.N. .N.% i.Z Z F G G F B n 9 [ d N.@ N.N.N.N.",
"N.N.N.N.N.N.| O.n M Z Z M c 0 x _ - N.N.N.N.N.N.",
"N.N.N.N.N.N.h ;.c w w w w 0 9 ` z N.N.N.N.N.N.N.",
"N.N.N.N.N.N.N./ ;.b 9 5 9 x ` / O N.N.N.N.N.N.N.",
"N.N.N.N.N.: N.N.l ) ' ' ' ) z @ N.  N.N.N.N.N.N.",
"N.N.N.N.N.u.k N.N.- p p d % N.N.. / ! N.N.N.N.N.",
"N.N.N.N.Y 9.N.N.N.N.N.N.N.N.N.N.N.R  .N.N.N.N.N.",
"N.N.N.N.N.N.N.N.N.N.o s @ N.N.N.N.N.N.N.N.N.N.N.",
"N.N.N.N.N.N.N.N.N.N.N.t.N.N.N.N.N.N.N.N.N.N.N.N.",
"N.N.N.N.N.N.N.N.N.N.N.4 N.N.N.N.N.N.N.N.N.N.N.N.",
"N.N.N.N.N.N.N.N.N.N.N.N.N.N.N.N.N.N.N.N.N.N.N.N.",
"N.N.N.N.N.N.N.N.N.N.N.N.N.N.N.N.N.N.N.N.N.N.N.N."
};
