/* XPM */
static char *split_xpm[] = {
/* columns rows colors chars-per-pixel */
"24 24 117 2 ",
"   c #183390",
".  c #0037A0",
"X  c #083BA0",
"o  c #023DA8",
"O  c #30459D",
"+  c #0740A9",
"@  c #0A41A9",
"#  c #0D45B5",
"$  c #0446BD",
"%  c #0946B9",
"&  c #014BBF",
"*  c #1445B1",
"=  c #1F4DB0",
"-  c #2451B0",
";  c #255EBC",
":  c #2D61BD",
">  c #3B61B5",
",  c #3362BB",
"<  c #3B69BF",
"1  c #43478E",
"2  c #4C4D92",
"3  c #4B5097",
"4  c #4A559C",
"5  c #495CA4",
"6  c #4663AD",
"7  c #4961AB",
"8  c #5164AB",
"9  c #5C6BAA",
"0  c #4261B1",
"q  c #436DBF",
"w  c #4B72BF",
"e  c #5276BF",
"r  c #5779BF",
"t  c #5C7BBF",
"y  c #617EBF",
"u  c #0147C1",
"i  c #014BC6",
"p  c #0C64DF",
"a  c #1267DF",
"s  c #166ADF",
"d  c #1C6EDF",
"f  c #2C65C3",
"g  c #3667C0",
"h  c #2473DF",
"j  c #2B77DF",
"k  c #2F79DF",
"l  c #337CDF",
"z  c #0562E2",
"x  c #2C7CEB",
"c  c #347FE7",
"v  c #6580BF",
"b  c #6A83BF",
"n  c #7688BC",
"m  c #2E83EF",
"M  c #3D85E1",
"N  c #3381EA",
"B  c #3B86EB",
"V  c #3F88EB",
"C  c #598DDF",
"Z  c #6F87C0",
"A  c #6D96DC",
"S  c #7B9DDA",
"D  c #4380E1",
"F  c #438BEB",
"G  c #729DE3",
"H  c #4CA2FE",
"J  c #53A6FF",
"K  c #57A8FF",
"L  c #5DACFF",
"P  c #66A4EE",
"I  c #75A1E6",
"U  c #7AA3E3",
"Y  c #7CA6E8",
"T  c #7FA8E8",
"R  c #65B1FF",
"E  c #6CB5FF",
"W  c #74BAFF",
"Q  c #7BBFFF",
"!  c #7FC1FF",
"~  c #869BD2",
"^  c #85A4DC",
"/  c #89A7DE",
"(  c #8AA8DF",
")  c #95AADB",
"_  c #82A6E1",
"`  c #86A8E1",
"'  c #8CAAE0",
"]  c #92AEE1",
"[  c #97B3E4",
"{  c #9AB5E5",
"}  c #A0B6E5",
"|  c #A6BCE6",
" . c #A9BEE8",
".. c #85C5FF",
"X. c #8CC9FF",
"o. c #90CDFF",
"O. c #9FD4FB",
"+. c #CCCBDF",
"@. c #C7CFE4",
"#. c #C9CEE3",
"$. c #C8D0E3",
"%. c #DCDCE5",
"&. c #D6DAE9",
"*. c #DADEEB",
"=. c #E1DEE4",
"-. c #DEE1ED",
";. c #E3E0E6",
":. c #E4E4EC",
">. c #E9E7EB",
",. c #EAE9EE",
"<. c #EDEDF2",
"1. c #F1EFF1",
"2. c #F3F3F6",
"3. c #FAF7F7",
"4. c #F5F6FA",
"5. c #FDFDFD",
"6. c None",
/* pixels */
"6.6.6.6.6.6.6.6.6.6.6.6.6.6.6.6.6.6.6.6.6.6.6.6.",
"6.6.6.6.6.6.6.6.6.6.6.6.6.6.6.6.6.6.6.6.6.6.6.6.",
"6.1 n Z b v Z y t r r e e e w q q q g g g ,   6.",
"6.9 O.o.X...! ! Q Q W W E R R L L K K H H H - 6.",
"6.9 P F F F F V B B B c N N N N N x x x x m = 6.",
"6.8 A {  . .| | |  .~ O ) | | | | | | | | C * 6.",
"6.7 ' 4.5.5.5.5.5.5.#.2 :.5.5.5.5.5.5.3.3.T * 6.",
"6.7 ` 4.5.5.5.5.5.5.#.3 :.5.5.5.3.3.4.2.4.Y * 6.",
"6.6 _ 4.5.5.5.5.5.5.#.4 :.5.5.3.4.4.4.2.2.T # 6.",
"6.0 _ 4.5.5.5.5.5.5.#.4 :.5.5.4.4.2.2.<.2.U # 6.",
"6.0 _ 4.5.5.5.5.5.5.#.4 :.5.4.4.2.2.<.<.1.U # 6.",
"6.> _ 4.5.5.5.5.5.5.#.5 -.3.4.2.2.<.<.<.<.I % 6.",
"6.> T 4.5.5.5.5.5.5.#.5 -.3.4.2.<.<.<.,.<.I % 6.",
"6.> U 4.5.5.5.5.5.5.@.5 *.4.2.<.<.<.:.:.>.I $ 6.",
"6., U 4.5.5.5.5.5.5.#.7 *.2.<.<.,.:.:.:.>.G $ 6.",
"6., U 4.5.5.5.5.3.5.@.7 *.<.<.<.:.:.:.%.:.G $ 6.",
"6.: U 4.5.5.5.3.4.5.$.7 &.<.,.,.:.:.%.%.=.G $ 6.",
"6.: G 4.5.3.5.4.4.3.$.6 &.<.,.:.:.%.%.%.%.G u 6.",
"6.: G 4.5.5.5.3.3.5.#.6 &.1.>.>.:.;.;.%.;.G u 6.",
"6.f C [ { { { { { { S , ^ ] ( ] ( / / ^ / D i 6.",
"6.: M l l k k j h h h d d d s s a p p p p z & 6.",
"6.X @ @ @ @ @ @ @ @ + + o + o o o o o o o o . 6.",
"6.6.6.6.6.6.6.6.6.6.6.6.6.6.6.6.6.6.6.6.6.6.6.6.",
"6.6.6.6.6.6.6.6.6.6.6.6.6.6.6.6.6.6.6.6.6.6.6.6."
};
