/* XPM */
static char *split_xpm[] = {
/* columns rows colors chars-per-pixel */
"32 32 173 2 ",
"   c #040764",
".  c #070B66",
"X  c #0C0D65",
"o  c #100F65",
"O  c #07116F",
"+  c #121065",
"@  c #16156D",
"#  c #18166A",
"$  c #071172",
"%  c #081376",
"&  c #081679",
"*  c #071A7E",
"=  c #151772",
"-  c #151875",
";  c #1A1C74",
":  c #141C7A",
">  c #191E79",
",  c #12217E",
"<  c #19237C",
"1  c #061F83",
"2  c #062185",
"3  c #05258A",
"4  c #04288E",
"5  c #0F2C8C",
"6  c #112484",
"7  c #192680",
"8  c #192B85",
"9  c #102888",
"0  c #182F8A",
"q  c #18328E",
"w  c #032C93",
"e  c #0D2F91",
"r  c #023097",
"t  c #0C3295",
"y  c #03369D",
"u  c #0B3698",
"i  c #07389F",
"p  c #183691",
"a  c #183994",
"s  c #163D9A",
"d  c #18429D",
"f  c #0A52CC",
"g  c #1656C6",
"h  c #145BD2",
"j  c #1A62D6",
"k  c #1A65DA",
"l  c #2C69CF",
"z  c #356DC9",
"x  c #2670DF",
"c  c #3572D7",
"v  c #3A75D7",
"b  c #3A77D8",
"n  c #005DE9",
"m  c #0562E4",
"M  c #0B66E7",
"N  c #0263EB",
"B  c #046AEE",
"V  c #0D6FED",
"C  c #136AE6",
"Z  c #1B6EE5",
"A  c #1372ED",
"S  c #1A77ED",
"D  c #0368F2",
"F  c #2272E5",
"G  c #237DED",
"H  c #287FED",
"J  c #437BD6",
"K  c #497ED6",
"L  c #437BD8",
"P  c #7F82B4",
"I  c #3F85DB",
"U  c #2D83ED",
"Y  c #3385EC",
"T  c #3789ED",
"R  c #3A89EC",
"E  c #2680F0",
"W  c #3792FF",
"Q  c #3C95FF",
"!  c #3D99FF",
"~  c #4685DD",
"^  c #4B87DD",
"/  c #4588DE",
"(  c #4F8ADD",
")  c #538CDD",
"_  c #588EDD",
"`  c #5D91DD",
"'  c #698ACF",
"]  c #6B8CD1",
"[  c #6495DD",
"{  c #6997DD",
"}  c #6E9BDD",
"|  c #7396D7",
" . c #7E9BD5",
".. c #7497D8",
"X. c #759ADA",
"o. c #799BD9",
"O. c #7CA2DD",
"+. c #468DE7",
"@. c #4A8EE5",
"#. c #4E90E5",
"$. c #4090EF",
"%. c #5393E5",
"&. c #5A96E5",
"*. c #5F98E4",
"=. c #5199EE",
"-. c #4596F0",
";. c #439AFF",
":. c #499FFF",
">. c #659BE3",
",. c #6C9DE2",
"<. c #4DA1FF",
"1. c #4FA8FF",
"2. c #51A4FF",
"3. c #56A8FF",
"4. c #5BAAFF",
"5. c #72A1E2",
"6. c #7BA4E0",
"7. c #61AEFF",
"8. c #64B1FF",
"9. c #6BB4FF",
"0. c #6FB8FF",
"q. c #74BAFF",
"w. c #78BDFF",
"e. c #7DC2FF",
"r. c #8E98C4",
"t. c #8A9CC9",
"y. c #979CC5",
"u. c #9B9BC2",
"i. c #959FC8",
"p. c #8FA0CC",
"a. c #92A1CB",
"s. c #83A5DD",
"d. c #8BA4D9",
"f. c #86A8DD",
"g. c #8DAADE",
"h. c #90ADDD",
"j. c #9BB7DE",
"k. c #84A9E1",
"l. c #8FABE0",
"z. c #92ADE1",
"x. c #96B3E5",
"c. c #9AB8E3",
"v. c #84C5FF",
"b. c #8CCBFF",
"n. c #93CEFF",
"m. c #97D1FF",
"M. c #9EDBFF",
"N. c #A6C4E7",
"B. c #D4D4DF",
"V. c #D2D5E3",
"C. c #D8D6E1",
"Z. c #DCDCE5",
"A. c #D7DBEB",
"S. c #D8DCEB",
"D. c #E0DEE7",
"F. c #E2DFE8",
"G. c #DDE1EE",
"H. c #EAE5E7",
"J. c #E4E4EB",
"K. c #EBE7E9",
"L. c #EAE9EE",
"P. c #F3EEEF",
"I. c #EDEDF2",
"U. c #F0EFF1",
"Y. c #EFF0F6",
"T. c #F2F2F6",
"R. c #F9F5F3",
"E. c #FEFAF7",
"W. c #F6F6F9",
"Q. c #F8F7F9",
"!. c #F7F8FB",
"~. c #FEFEFE",
"^. c None",
/* pixels */
"^.^.^.^.^.^.^.^.^.^.^.^.^.^.^.^.^.^.^.^.^.^.^.^.^.^.^.^.^.^.^.^.",
"^.^.^.^.^.^.^.^.^.^.^.^.^.^.^.^.^.^.^.^.^.^.^.^.^.^.^.^.^.^.^.^.",
"^.^.X + + + + + + X + X X X + X X X X X X X X X X . . . .   ^.^.",
"^.X r.j.h.h.f.f.s.s.O.X.O.} } } } [ [ ` ` _ ) ) ( ^ / ~ / z . ^.",
"^.# N.M.m.m.n.b.b.v.v.v.e.e.w.q.q.0.9.9.8.8.4.4.4.3.2.2.1.$.O ^.",
"^.@ c.e.9.0.9.8.8.7.7.7.4.3.4.4.2.<.<.:.:.;.;.! ! ! Q W ! R $ ^.",
"^.@ x.x j j j j j j j j j j h f j j j j j j j j j j j j k Y $ ^.",
"^.= k.' D.A.A.A.A.A.S.S.S.G.P = V.S.A.A.A.A.A.A.A.A.S.S. .F % ^.",
"^.= k.o.~.~.~.~.~.~.~.~.~.~.u.; ~.~.~.~.~.~.~.~.~.~.~.~.x.Z % ^.",
"^.- 6.o.~.~.~.~.~.~.~.~.~.~.u.> !.~.~.~.~.E.!.!.W.W.T.~.x.Z & ^.",
"^.: 6.o.~.~.~.~.~.~.~.~.~.~.y.< !.~.~.!.!.!.!.!.W.T.T.E.z.Z * ^.",
"^.: 5.o.~.~.~.~.~.~.~.~.~.~.y.< W.~.~.~.E.!.W.W.W.T.I.E.z.Z * ^.",
"^.: 5.o.~.~.~.~.~.~.~.~.~.~.y.< W.~.!.~.E.T.W.T.T.Y.I.E.z.C 1 ^.",
"^.: ,.o.~.~.~.~.~.~.~.~.~.~.y.8 W.~.!.!.W.W.T.T.T.I.I.E.z.C 1 ^.",
"^., ,.o.~.~.~.~.~.~.~.~.~.~.i.8 T.~.!.Q.W.T.T.T.I.I.L.R.z.C 2 ^.",
"^.6 >.X.~.~.~.~.~.~.~.~.~.~.i.0 W.!.Q.W.T.W.I.I.I.I.L.R.z.M 2 ^.",
"^.6 >.X.~.~.~.~.~.~.~.~.~.~.y.0 T.!.Q.W.W.Y.I.I.I.L.L.R.g.M 3 ^.",
"^.6 *.X.~.~.~.~.~.~.~.~.~.~.a.q Y.W.T.T.Y.I.I.I.L.J.J.P.g.M 3 ^.",
"^.9 &...~.~.~.~.~.~.~.~.!.~.a.q I.W.T.T.Y.I.I.L.L.L.G.P.l.M 4 ^.",
"^.9 &.X.~.~.~.~.~.~.~.!.~.~.a.p I.W.Y.I.I.L.L.J.J.G.Z.P.l.m 4 ^.",
"^.5 %...~.~.~.~.~.~.!.~.!.~.p.a I.T.I.I.L.L.L.J.J.G.Z.P.l.N 4 ^.",
"^.e %...~.~.~.~.~.!.!.Q.W.~.a.a I.T.I.L.L.J.J.J.D.D.C.K.l.n w ^.",
"^.e #...~.~.!.~.~.!.!.!.W.~.p.s L.Y.I.L.L.J.J.J.D.Z.C.K.l.n w ^.",
"^.e @.| ~.~.~.~.!.!.R.W.W.E.p.d J.I.L.L.G.J.G.Z.Z.C.V.H.l.n r ^.",
"^.t +...~.~.~.~.E.~.E.Q.W.~.p.d L.U.I.K.J.J.J.Z.Z.Z.B.H.h.n r ^.",
"^.u +.] T.I.Y.Y.I.I.I.I.L.W.t.s J.J.J.J.F.J.F.Z.Z.Z.C.K.d.n r ^.",
"^.u =.b K ~ K J J L L L L L l g v v v v c v b c c c c c j D y ^.",
"^.u I -.R T Y Y U U U H H G G G S S A A A V V B B B N N B m y ^.",
"^.^.y i u y i i i y i i y i y i y y y y y y y y y y y y y y r ^.",
"^.^.^.^.^.^.^.^.^.^.^.^.^.^.^.^.^.^.^.^.^.^.^.^.^.^.^.^.^.^.^.^.",
"^.^.^.^.^.^.^.^.^.^.^.^.^.^.^.^.^.^.^.^.^.^.^.^.^.^.^.^.^.^.^.^.",
"^.^.^.^.^.^.^.^.^.^.^.^.^.^.^.^.^.^.^.^.^.^.^.^.^.^.^.^.^.^.^.^."
};
