/* XPM */
static char *sview_xpm[] = {
/* columns rows colors chars-per-pixel */
"24 24 78 1 ",
"  c #444444",
". c #454545",
"X c #767676",
"o c #787878",
"O c #7D7D7D",
"+ c #7E7E7D",
"@ c #7E7E7E",
"# c #7F7F7E",
"$ c #7F7F7F",
"% c #807F7F",
"& c #82817F",
"* c #83827E",
"= c #808080",
"- c #818181",
"; c #828282",
": c #848484",
"> c #868686",
", c #898886",
"< c #898989",
"1 c #8E8E8A",
"2 c #8F8E8B",
"3 c #8D8D8D",
"4 c #909090",
"5 c #939393",
"6 c #969696",
"7 c #999999",
"8 c #9D9D9D",
"9 c #A0A0A0",
"0 c #A3A3A3",
"q c #A6A6A6",
"w c #A9A9A9",
"e c #ABABAB",
"r c #AEAEAE",
"t c #B1B1B1",
"y c #B3B3B3",
"u c #B4B4B4",
"i c #C9C9C9",
"p c #CACACA",
"a c #CBCBCB",
"s c #CDCDCD",
"d c #D1D1D1",
"f c #D2D2D2",
"g c #D7D7D7",
"h c #D8D8D8",
"j c #D9D9D9",
"k c #DADADA",
"l c #DBDBDB",
"z c #DCDCDC",
"x c #DEDEDE",
"c c #DFDFDF",
"v c #E0E0E0",
"b c #E1E1E1",
"n c #E2E2E2",
"m c #E3E3E3",
"M c #E4E4E4",
"N c #E5E5E5",
"B c #E6E6E6",
"V c #E7E7E7",
"C c #E8E8E8",
"Z c #E9E9E9",
"A c #EAEAEA",
"S c #EBEBEB",
"D c #ECECEC",
"F c #EDEDED",
"G c #EEEEEE",
"H c #EFEFEF",
"J c gray94",
"K c #F1F1F1",
"L c #F2F2F2",
"P c #F3F3F3",
"I c #F4F4F4",
"U c #F5F5F5",
"Y c #F6F6F6",
"T c #F7F7F7",
"R c #F8F8F8",
"E c #F9F9F9",
"W c #FAFAFA",
"Q c None",
/* pixels */
"QQQQQQQQQQQQQQQQQQQQQQQQ",
"QQQQQQQQQQQQQQQQ11,&QQQQ",
"QQQtbbxbxlllggllllgd&QQQ",
"QQQuJbbCVVVVCVVVVCCG&QQQ",
"QQQuGxxbbbbbVVbVmVVG@QQQ",
"QQQtGxbVbVVVVbbVbVVC@QQQ",
"QQQeGbbVVVVVVVVVVVCC@QQQ",
"QQQeJbbCbVVVVVVVVVCG@QQQ",
"QQQeGsbCVVCCGCCVVVVC=QQQ",
"QQQqJbmCCCCCCCVVVCmC&QQQ",
"QQQ9JVVCCCGCGCCVCCVG@QQQ",
"QQQ9JbVCCCGGCCCVCCCJ@QQQ",
"QQQ8JVVGCCGGGGGCCGJI=QQQ",
"QQQ7JVVCGGGGJJJJJJJI=QQQ",
"QQQ6JbCCCGJJJIIIIIII=QQQ",
"QQQ5JdVGGGJJJJIIIIII=QQQ",
"QQQ5GCCGGGGJIIIIWIIW@QQQ",
"QQQ3JVVGGGJJIIIWIWII@QQQ",
"QQQ<JCCGGGJJIIIWWIIW@QQQ",
"QQQ>JCVGGJJJIIWIWWWI@QQQ",
"QQQ>JGGJJJIIIWWWWWWW=QQQ",
"QQQoapppppsppppppppsXQQQ",
"QQQQ                QQQQ",
"QQQQQQQQQQQQQQQQQQQQQQQQ"
};
