/* XPM */
static char *sview_xpm[] = {
/* columns rows colors chars-per-pixel */
"32 32 85 1 ",
"  c gray20",
". c #4C4C4C",
"X c gray30",
"o c #4E4E4E",
"O c gray31",
"+ c #505050",
"@ c #515151",
"# c gray32",
"$ c #535353",
"% c gray33",
"& c gray34",
"* c #585858",
"= c #5A5A5A",
"- c gray37",
"; c #62615D",
": c gray38",
"> c #646464",
", c #686761",
"< c #686868",
"1 c gray42",
"2 c gray43",
"3 c #727272",
"4 c gray46",
"5 c gray47",
"6 c #7B7B7B",
"7 c #7E7E7E",
"8 c #818181",
"9 c gray51",
"0 c #848484",
"q c gray53",
"w c #888888",
"e c #898989",
"r c gray54",
"t c gray55",
"y c #8D8D8D",
"u c gray56",
"i c #909090",
"p c gray57",
"a c #939393",
"s c gray58",
"d c #979797",
"f c #989898",
"g c #9A9A9A",
"h c #9B9B9B",
"j c #9D9D9D",
"k c #9F9F9F",
"l c #B1B1B1",
"z c #B2B2B2",
"x c gray86",
"c c gainsboro",
"v c #DDDDDD",
"b c gray87",
"n c #DFDFDF",
"m c gray88",
"M c #E1E1E1",
"N c #E2E2E2",
"B c gray89",
"V c #E4E4E4",
"C c gray90",
"Z c #E6E6E6",
"A c #E7E7E7",
"S c gray91",
"D c #E9E9E9",
"F c #EAEAEA",
"G c gray92",
"H c #ECECEC",
"J c gray93",
"K c #EEEEEE",
"L c #EFEFEF",
"P c gray94",
"I c #F1F1F1",
"U c gray95",
"Y c #F3F3F3",
"T c #F4F4F4",
"R c gray96",
"E c #F6F6F6",
"W c gray97",
"Q c #F8F8F8",
"! c #F9F9F9",
"~ c gray98",
"^ c #FBFBFB",
"/ c gray99",
"( c #FDFDFD",
") c #FEFEFE",
"_ c None",
/* pixels */
"________________________________",
"________________________________",
"_____hhjjjhhsuuw000wwuuuw86,____",
"____h)))~)))))~)))))~)~~~~U;____",
"____p)bbxZmmmZmmmZmZmmZmmmU.____",
"____p)bbxZmmmmZZmZZmZZmZFZU.____",
"____p)mmbZmZZZmZZZZmZmZZFZUO____",
"____u)mmbZZmZmZZZZZZZZZZZZUO____",
"____u)bmmFZmZZZFZZZZZZZFFZU.____",
"____w)mmmFZZZZZZFFZZZZZZFZU.____",
"____w)ZmbFZZZZZFFZZZZZZZZFU.____",
"____0)mlmFZZZFFFFFZZZZZZZZUO____",
"____8)ZZmHZFFZFFFFZZZZZZZZHO____",
"____6)mZmHZFFFFHHFZZZZZFZZUO____",
"____6)mZmHFZFFFHFZFFZZZFFZU.____",
"____6~ZZZHFFFFHHHFFFFZFFHFUO____",
"____4)ZZZHFFHHHHHFHHFFFHHUT#____",
"____3~ZFmHFHHHUHUHUUUHHUUU~O____",
"____2~ZZZHHHHHHUUHUUUUUTUU~O____",
"____<~ZFZHHHHHHUUUUUTTUTUUTO____",
"____<)ZlZUFHHUUUUUTTTTTTTTT.____",
"____:~ZHZHHHHHHUUUTTTTTTTU~.____",
"____:~ZFZHHHHUUHUTT~~~T~TT~O____",
"____-~FFZUHHUHUUTTTTT~~T~TTO____",
"____-~ZFZHHHUHUUTTTT~~~~~T~O____",
"____&~ZFZUHHHUUUTTT~T~T~~TT.____",
"____#~ZFZHHHUHUUTTTT~T~TTT~.____",
"____#~ZFZUHHHUUUTTT~T~~T~T~.____",
"____#~TTT~~TT~T~~T~TT~T~~T~#____",
"_____*****&&****&&*******&& ____",
"________________________________",
"________________________________"
};
