/* XPM */
static char *text_x_generic_xpm[] = {
/* columns rows colors chars-per-pixel */
"24 24 248 2 ",
"   c #4B4A4A",
".  c #5D5C5D",
"X  c #5C5D5E",
"o  c #646668",
"O  c #6A6A6A",
"+  c #6A6C6D",
"@  c #6C6C6C",
"#  c #6E6E6E",
"$  c #707070",
"%  c #717171",
"&  c #717172",
"*  c #717375",
"=  c #727477",
"-  c #767677",
";  c #787878",
":  c #797879",
">  c #797C7E",
",  c #7C7D7D",
"<  c #7D7D7E",
"1  c #7D7F81",
"2  c #808384",
"3  c #818486",
"4  c #8D8D8D",
"5  c #909090",
"6  c #959595",
"7  c #999698",
"8  c #969B9E",
"9  c #989898",
"0  c #999D9F",
"q  c #9C9D9E",
"w  c #9D9E9E",
"e  c #9F9F9F",
"r  c #A1A1A2",
"t  c #A2A2A2",
"y  c #A0A5A7",
"u  c #A4A5A6",
"i  c #A5A9AB",
"p  c #A8A8A8",
"a  c #AAAAAA",
"s  c #ABABAB",
"d  c #AEAEAE",
"f  c #B0B0B0",
"g  c #B2B2B2",
"h  c #B5B4B4",
"j  c #B6B6B6",
"k  c #B6B7B7",
"l  c #B1B7BC",
"z  c #B4BABF",
"x  c #BABABB",
"c  c #BABFC2",
"v  c #B8C0C4",
"b  c #BFC7CA",
"n  c #C0C1C2",
"m  c #C3C4C4",
"M  c #C5C4C4",
"N  c #C6C6C6",
"B  c #C8C7C7",
"V  c #C3C4CD",
"C  c #C3CACE",
"Z  c #C8C8C8",
"A  c #C9C9C8",
"S  c #C9C9C9",
"D  c #CBCACA",
"F  c #CBCBCB",
"G  c #CCCBCB",
"H  c #CBCCCC",
"J  c #CDCCCC",
"K  c #CDCDCD",
"L  c #CECDCD",
"P  c #CBCFD1",
"I  c #C8D0D4",
"U  c #CDD4D8",
"Y  c #CDD5D9",
"T  c #CED4D8",
"R  c #CED5D9",
"E  c #CFD7DB",
"W  c #D1D1D1",
"Q  c #D1D2D2",
"!  c #D2D2D2",
"~  c #D3D2D2",
"^  c #D3D3D4",
"/  c #D0D4D6",
"(  c #D3D5D6",
")  c #D4D4D4",
"_  c #D5D5D5",
"`  c #D6D4D4",
"'  c #D7D5D5",
"]  c #D6D6D6",
"[  c #D6D6D7",
"{  c #D7D7D7",
"}  c #D8D7D7",
"|  c #D5D7D8",
" . c #D2D8DB",
".. c #D1D8DC",
"X. c #D4DBDF",
"o. c #D8D8D8",
"O. c #DAD9D9",
"+. c #DADBDB",
"@. c #DEDCDC",
"#. c #DDDDDE",
"$. c #D7DEE2",
"%. c #D9D9E3",
"&. c #D8DFE3",
"*. c #DFE0E1",
"=. c #D9E0E5",
"-. c #DBE1E5",
";. c #DAE2E5",
":. c #DCE2E5",
">. c #DDE3E7",
",. c #E1E1E1",
"<. c #E2E1E1",
"1. c #E1E1E2",
"2. c #E2E2E2",
"3. c #E3E3E3",
"4. c #E4E4E4",
"5. c #E5E4E4",
"6. c #E6E5E5",
"7. c #E6E6E6",
"8. c #E9E7E7",
"9. c #E3E1EB",
"0. c #E6E9EB",
"q. c #E0E8EC",
"w. c #E1E8EC",
"e. c #E2E8ED",
"r. c #E3E8ED",
"t. c #E3E9ED",
"y. c #E3EAEE",
"u. c #E4EBEE",
"i. c #E4EBEF",
"p. c #E8E8E8",
"a. c #E9E8E8",
"s. c #E8E8E9",
"d. c #EAE8E8",
"f. c #E9E9EA",
"g. c #EAEAEB",
"h. c #E9ECEE",
"j. c #ECECEC",
"k. c #EEEDED",
"l. c #EDEDEE",
"z. c #EEEEEE",
"x. c #EFEEEE",
"c. c #EFEFEF",
"v. c #F0EFEF",
"b. c #E6E6F0",
"n. c #E8E4F0",
"m. c #E5ECF0",
"M. c #E5EDF1",
"N. c #E7ECF1",
"B. c #E6EDF1",
"V. c #E6EDF2",
"C. c #E6EEF2",
"Z. c #E7EEF2",
"A. c #E7EFF3",
"S. c #EAEEF0",
"D. c #EBEEF0",
"F. c #EBEFF1",
"G. c #E8EFF3",
"H. c #F3E9F1",
"J. c #F6EDF3",
"K. c #F5EBF4",
"L. c #F5EEF6",
"P. c #F7EEF6",
"I. c #F8EEF5",
"U. c #E8F0F3",
"Y. c #EEF0F1",
"T. c #EFF1F3",
"R. c #E8F0F4",
"E. c #E9F0F4",
"W. c #EAF0F4",
"Q. c #EAF0F5",
"!. c #EAF1F5",
"~. c #EAF2F6",
"^. c #EBF2F6",
"/. c #EBF2F7",
"(. c #ECF2F7",
"). c #ECF3F7",
"_. c #ECF3F8",
"`. c #F0F0F0",
"'. c #F1F0F0",
"]. c #F1F1F1",
"[. c #F1F1F2",
"{. c #F2F1F3",
"}. c #F0F2F3",
"|. c #F2F2F2",
" X c #F3F2F2",
".X c #F2F3F3",
"XX c #F3F3F3",
"oX c #F4F3F3",
"OX c #F0F3F4",
"+X c #F2F3F4",
"@X c #F3F3F4",
"#X c #F4F3F5",
"$X c #F3F4F4",
"%X c #F4F4F4",
"&X c #F5F4F4",
"*X c #F4F5F4",
"=X c #F4F4F5",
"-X c #F4F5F5",
";X c #F5F5F5",
":X c #F6F5F4",
">X c #F6F4F5",
",X c #F6F5F5",
"<X c #F4F5F6",
"1X c #F6F5F7",
"2X c #F4F6F6",
"3X c #F5F6F6",
"4X c #F5F6F7",
"5X c #F5F7F7",
"6X c #F6F6F6",
"7X c #F7F6F6",
"8X c #F7F7F7",
"9X c #FAF0F7",
"0X c #F8F3F6",
"qX c #F8F6F7",
"wX c #F8F7F7",
"eX c #F6F7F8",
"rX c #FBF4F9",
"tX c #F6F8F8",
"yX c #F7F8F8",
"uX c #F7F9F9",
"iX c #F8F8F8",
"pX c #F9F8F8",
"aX c #F8F8F9",
"sX c #F8F9F9",
"dX c #F9F9F9",
"fX c #FAF8F9",
"gX c #FAF9F9",
"hX c #F9F8FA",
"jX c #F8F9FA",
"kX c #F9F9FA",
"lX c #FBF9FA",
"zX c #F9FAFA",
"xX c #F9FAFB",
"cX c #FAFAFA",
"vX c #FBFAFA",
"bX c #FAFAFB",
"nX c #FBFBFB",
"mX c #FCFBFB",
"MX c #FBFBFC",
"NX c #FBFCFC",
"BX c #FCFCFC",
"VX c #FDFCFC",
"CX c #FCFCFD",
"ZX c #FDFDFD",
"AX c #FEFEFE",
"SX c #FFFEFE",
"DX c #FFFFFF",
"FX c None",
/* pixels */
"FXFXFXFXFXFXFXFXFXFXFXFXFXFXFXFXFXFXFXFXFXFXFXFX",
"FXFX4.`.dX9XdX9XiXcXiXiXcXiXiXcXiXiX`.cXdXFXFXFX",
"FXFX{ A y.9.y.Z.y.y.Z.Z.Z.Z.y.y.U.Z.y.y.~.FXFXFX",
"FXFX4.x.`.K.`.`.`.iX`.iX`.uX`.`.`.`.`.`.`.FXFXFX",
"FXFX4.`.`.9X`.rX`.uXcXcXcXeXeX9XuX`.cX`.iXFXFXFX",
"FXFXO.A b.b.Z.Z.~.U.~._.~.~.~.U.U.U.Z.Z.`.FXFXFX",
"FXFX4.`.dX`.cXeXcXcXcXcXcXcXuXiXiX`.iXuXiXFXFXFX",
"FXFX4.`.cX9XcXcXcXcXcXcXcXcXcXcXcXuXiXcX`.FXFXFX",
"FXFXO.A x.V Z._._._._._._._._.>.Y ~.U.U.~.FXFXFX",
"FXFX4.~.~.< x.cXcXcXcXcXcXcXcXm e cXuXuXiXFXFXFX",
"FXFX4.`.m . e A { g `.cXx.d { 4 $ f 4.iX`.FXFXFX",
"FXFX{ A { o l  .Y + i ~.8 * Y 8 < b ;.y.`.FXFXFX",
"FXFX4.v.`.< x.cXcXm * r $ A cXx 6 dXv.x.`.FXFXFX",
"FXFX8.`.`.< 4.cXcXcX9   r `.`.x 6 `.d.7.`.FXFXFX",
"FXFX{ A b.; ;.~.~.;.2 . 2  .;.y 3  .U U  .FXFXFX",
"FXFX4.`.`.* { cX`.e < A + q 4.x r %.O.{ FXFXFXFX",
"FXFX4.`.cXq + d g + A Y.p p cXcXcX`.O.FXFXFXFXFX",
"FXFXO.A ~.%.l V I C y.=.v P cX`.d.{ FXFXFXFXFXFX",
"FXFX4.`.iXK.dXdXcXiXx.*.m { `.d.{ FXFXFXFXFXFXFX",
"FXFX4.`.`.9XdX9X`.v.x.4.m O.v.O.FXFXFXFXFXFXFXFX",
"FXFXO.A Y.n.b.U.b.y.>. .c { O.FXFXFXFXFXFXFXFXFX",
"FXFX4.x.`.9X`.iX`.v.x.O.A { FXFXFXFXFXFXFXFXFXFX",
"FXFX4.cXcXcXcXcXcXcX`.4.V FXFXFXFXFXFXFXFXFXFXFX",
"FXFXFXFXFXFXFXFXFXFXFXFXFXFXFXFXFXFXFXFXFXFXFXFX"
};
