/* XPM */
static char *text_xpm[] = {
/* columns rows colors chars-per-pixel */
"24 24 237 2 ",
"   c #393939",
".  c #3A3A3A",
"X  c #3B3B3B",
"o  c #3C3C3C",
"O  c #3E3E3E",
"+  c #7A3C0D",
"@  c #7F4314",
"#  c #70521F",
"$  c #6F5424",
"%  c #515151",
"&  c #7F6D4A",
"*  c #616161",
"=  c #737373",
"-  c #797979",
";  c #897000",
":  c #8A7202",
">  c #917805",
",  c #907806",
"<  c #86621E",
"1  c #9F721B",
"2  c #A3751D",
"3  c #AA7A1E",
"4  c #844E20",
"5  c #836222",
"6  c #8E6A25",
"7  c #83662D",
"8  c #8D7A20",
"9  c #907C20",
"0  c #917E21",
"q  c #937F23",
"w  c #886D34",
"e  c #81693E",
"r  c #93763E",
"t  c #D64233",
"y  c #816F4D",
"u  c #966243",
"i  c #997B40",
"p  c #997C44",
"a  c #987C45",
"s  c #8A7650",
"d  c #887653",
"f  c #8D7A55",
"g  c #88785B",
"h  c #947F5B",
"j  c #907F5C",
"k  c #897B60",
"l  c #D87F6E",
"z  c #A08911",
"x  c #A38E1C",
"c  c #A89015",
"v  c #B19B1C",
"b  c #9C8823",
"n  c #9A872A",
"m  c #A59023",
"M  c #A69124",
"N  c #A69225",
"B  c #AD9823",
"V  c #AC9825",
"C  c #AD9825",
"Z  c #BCA521",
"A  c #BCA624",
"S  c #C49030",
"D  c #C49131",
"F  c #C69231",
"G  c #CC9736",
"H  c #C1AB26",
"J  c #D2BC2E",
"K  c #D3BE33",
"L  c #928547",
"P  c #93805A",
"I  c #B79046",
"U  c #B69049",
"Y  c #B89248",
"T  c #A78D52",
"R  c #A1955C",
"E  c #A8935E",
"W  c #B39154",
"Q  c #8D816A",
"!  c #9D8B66",
"~  c #9C8D6D",
"^  c #989060",
"/  c #9E947F",
"(  c #BC8F64",
")  c #B49C61",
"_  c #A39271",
"`  c #A99A7E",
"'  c #CC9E48",
"]  c #D0A047",
"[  c #D0A14A",
"{  c #C6927A",
"}  c #D5B875",
"|  c #828282",
" . c #8F8F85",
".. c #8C8C8C",
"X. c #949286",
"o. c #9E9787",
"O. c #949494",
"+. c #969696",
"@. c #979898",
"#. c #9A9A9A",
"$. c #9B9B9B",
"%. c #9E9F9D",
"&. c #A19B90",
"*. c #A29C90",
"=. c #A29D91",
"-. c #A8A79C",
";. c #9C9EA0",
":. c #A0A0A0",
">. c #A1A1A1",
",. c #A3A3A3",
"<. c #A3A4A3",
"1. c #A4A4A4",
"2. c #AEAAA3",
"3. c #AAAAAA",
"4. c #AAACA9",
"5. c #ACACAC",
"6. c #ADADAD",
"7. c #AEAFAD",
"8. c #B8B1A3",
"9. c #BDB3A0",
"0. c #B0B0B0",
"q. c #B0B3B0",
"w. c #B3B2B0",
"e. c #B2B2B2",
"r. c #B3B4B3",
"t. c #B4B4B4",
"y. c #B6B6B6",
"u. c #BBB9B6",
"i. c #BCBBBB",
"p. c #BBBCBA",
"a. c #BFBDB9",
"s. c #BCBCBD",
"d. c #BFBEBC",
"f. c #EC9A9A",
"g. c #CBC3B4",
"h. c #C9C3B6",
"j. c #CBC4B7",
"k. c #C3C0BA",
"l. c #C6C3BE",
"z. c #DFCAB7",
"x. c #D7D3BC",
"c. c #D8D3BA",
"v. c #D8D3BB",
"b. c #DAD5BC",
"n. c #DAD5BE",
"m. c #DBD6BF",
"M. c #BEC0C0",
"N. c #C1C1C1",
"B. c #C2C2C2",
"V. c #C3C3C3",
"C. c #C4C4C4",
"Z. c #C5C5C5",
"A. c #C6C6C6",
"S. c #C7C7C7",
"D. c #C8C8C8",
"F. c #C8C8C9",
"G. c #C9C9C9",
"H. c #C9CAC9",
"J. c #C9C9CA",
"K. c #CACACA",
"L. c #CBCBCB",
"P. c #CCCCCC",
"I. c #CDCDCD",
"U. c #CDCDCF",
"Y. c #CECECE",
"T. c #CECFCF",
"R. c #D1CEC9",
"E. c #D1CFCB",
"W. c #D7D3C1",
"Q. c #DBD7C3",
"!. c #D9D6C4",
"~. c #DBD8C6",
"^. c #D2D1CD",
"/. c #D1D0CF",
"(. c #DDDAC8",
"). c #CFCFD1",
"_. c #D0D0D0",
"`. c #D1D1D0",
"'. c #D1D1D1",
"]. c #D2D2D2",
"[. c #D3D3D3",
"{. c #D4D4D4",
"}. c #D5D5D5",
"|. c #D5D6D5",
" X c #D6D6D6",
".X c #D6D7D7",
"XX c #D7D7D7",
"oX c #D9D9D7",
"OX c #D9D9D9",
"+X c #DADADA",
"@X c #DCDCDC",
"#X c #DDDDDD",
"$X c #DFDFDF",
"%X c #E0DFD5",
"&X c #E1E1E1",
"*X c #E2E2E2",
"=X c #E3E3E3",
"-X c #E3E4E3",
";X c #E5E4E2",
":X c #E6E5E3",
">X c #E4E4E4",
",X c #E5E5E5",
"<X c #E4E4E6",
"1X c #E5E5E6",
"2X c #E5E5E7",
"3X c #E5E6E7",
"4X c #E6E6E6",
"5X c #E6E6E7",
"6X c #E6E7E7",
"7X c #E7E7E7",
"8X c #E6E6E8",
"9X c #E6E7E8",
"0X c #E7E7E8",
"qX c #E7E7E9",
"wX c #E7E8E9",
"eX c #E7E8EA",
"rX c #E8E8E8",
"tX c #E9E9E9",
"yX c #EAEAEA",
"uX c #EAEBEB",
"iX c #EBEBEB",
"pX c #EDECEA",
"aX c #EDECEB",
"sX c #EBEBEC",
"dX c #ECECEC",
"fX c #EDEDED",
"gX c #EEEEEE",
"hX c #EEEEEF",
"jX c #EFEFEF",
"kX c #F0F0F0",
"lX c #F1F1F1",
"zX c #F2F2F2",
"xX c #F2F3F3",
"cX c #F3F3F3",
"vX c #F4F4F4",
"bX c #F6F6F6",
"nX c None",
/* pixels */
"nXnXnXnXnXnXnXnXnXnXnXnXnXnXnXnXnXnXnXnXnXnXnXnX",
"nXnXnXnXnXnXnXnXnXnXnXnXnXnXnXnXnXnXnXnXnXnXnXnX",
"nXnXnX;.L Z , v z z v , A : A , v x X.@.nXnXnXnX",
"nXnXr.M.R J , H c c H , K ; K , H B -.5.%.nXnXnX",
"nXnXp.q.^ B q N b b N 9 C 8 V 9 m n  .3.1.nXnXnX",
"nXnXH.-X%Xb.(.b.Q.~.b.~.v.~.c.~.c.W.+XXX5.nXnXnX",
"nXnXXXbX0X0X0X0X0X0X0X0X<X<X<X<X<X<XuXfXy.nXnXnX",
"nXnX+XkXXXXXXX[.XX{.[.[.XXXX[.[.[.[.#XkXy.nXnXnX",
"nXnX@XfXT.P.P.P.P.P.P.L.L.H.H.H.H.H..XaX&.$ # nX",
"nXnX#XkX+X+X+XoXXX+X*XfXfXfXfXsXfX:Xh.` h { l 4 ",
"nX$.$XfX[.[.[.[.[._.*XvXvXkXvXaXg._ p W z.f.t @ ",
"nX1.*XcXfXfXfXfXuXsXuXuXsX:Xj.! p U ' G ( u + nX",
"nX5.<X7XS.S.S.S.Z.Z.Z.u.o.f r Y [ D 3 6 e nXnXnX",
"nXe.<XrXP.P.P.P.P.P.k.~ i I ] D 2 < s 9.k.nXnXnX",
"nXy.rXrX[.[.[.[.[.V.j E } S 2 5 h 8./.fX).nXnXnX",
"nXy.7X;XV.V.N.N.2.y w ) T 7 d &.q.d.H.uX[.nXnXnX",
"nXy.7X*XH.S.S.d./ y g g Q =.p.H.[.#X<XrX{.O.nXnX",
"nX0.uX*XXX[.XX/.R.E./.[.P.).[.+X#X=X<X<XXX..nXnX",
"nX5.uXuXrX7X<X<XrX<X<X<X<X*X<X*X>X*X*X*XXX| nXnX",
"nX3.kXfXjXjXjXjXjXfXfXfXfXfXfXfXfXfXfXfX#X= nXnX",
"nX+.P.N.l.N.N.N.N.N.N.N.N.N.N.N.N.N.N.N.H.* nXnX",
"nX- 1.:.;.:.:.:.:.:.:.:.:.:.:.:.:.:.:.:.#.% nXnX",
"nXnXo                             o o o o nXnXnX",
"nXnXnXnXnXnXnXnXnXnXnXnXnXnXnXnXnXnXnXnXnXnXnXnX"
};
