/* XPM */
static char *text_xpm[] = {
/* columns rows colors chars-per-pixel */
"32 32 114 2 ",
"   c #5E420C",
".  c #62450E",
"X  c #634712",
"o  c #654915",
"O  c #6B4E16",
"+  c #6B4F1A",
"@  c #6D511B",
"#  c #71541B",
"$  c #77591F",
"%  c #785819",
"&  c #6C5423",
"*  c #695428",
"=  c #725A29",
"-  c #735D32",
";  c #7C6435",
":  c #7F683B",
">  c #434343",
",  c #4B4B4B",
"<  c #555555",
"1  c #5D5D5D",
"2  c #6A6A6A",
"3  c gray45",
"4  c #7C7C7C",
"5  c #DF1E17",
"6  c #F83E3C",
"7  c #844411",
"8  c #886F00",
"9  c #897101",
"0  c #8C7408",
"q  c #917905",
"w  c #8B6417",
"e  c #86611A",
"r  c #916717",
"t  c #976C18",
"y  c #9D7019",
"u  c #82562B",
"i  c #826E45",
"p  c #8A754B",
"a  c #BC7857",
"s  c #877B62",
"d  c #887C63",
"f  c #FF6666",
"g  c #BC851F",
"h  c #8F823E",
"j  c #91833F",
"k  c #C48B21",
"l  c #C98F22",
"z  c #CC9226",
"x  c #CD942A",
"c  c #938641",
"v  c #958844",
"b  c #A98541",
"n  c #AC8844",
"m  c #B18D48",
"M  c #B5904C",
"N  c #AF875F",
"B  c #B99550",
"V  c #8D836F",
"C  c #96886B",
"Z  c #8B867C",
"A  c #938A79",
"S  c #9C9078",
"D  c #B98771",
"F  c #B09773",
"G  c #D4A246",
"H  c #D5A54C",
"J  c #D6A852",
"K  c #D8AA58",
"L  c #DCB56D",
"P  c #CCB172",
"I  c #C7B178",
"U  c #F0DC47",
"Y  c #FCE94F",
"T  c #858585",
"R  c #8A8B89",
"E  c #958E82",
"W  c #9E9380",
"Q  c #93908A",
"!  c #949594",
"~  c #9A9A9A",
"^  c #ACA087",
"/  c #B0A48C",
"(  c #A0A29D",
")  c #ACA69D",
"_  c #A5A5A5",
"`  c #A9AAA7",
"'  c #ACACAC",
"]  c #B0AEAB",
"[  c #BFB7A6",
"{  c #B2B3AF",
"}  c #B2B2B1",
"|  c #B7B8B6",
" . c #BBBCBB",
".. c #C4BCAD",
"X. c #DBB0B0",
"o. c #F5B9B7",
"O. c #D6C186",
"+. c #D2C28D",
"@. c #C9C1B3",
"#. c #CDC7BA",
"$. c #E4D6A4",
"%. c #C3C4C3",
"&. c #CCCCCC",
"*. c #D4CFC4",
"=. c #D5D5D4",
"-. c #D7D8D7",
";. c #DBDBDB",
":. c #E5CBC6",
">. c #E4E4E4",
",. c #EAE8E4",
"<. c #ECECEC",
"1. c #F4F4F4",
"2. c #F9F9F9",
"3. c None",
/* pixels */
"3.3.3.3.3.3.3.3.3.3.3.3.3.3.3.3.3.3.3.3.3.3.3.3.3.3.3.3.3.3.3.3.",
"3.3.3.3.3.3.3.3.3.3.3.3.3.3.3.3.3.3.3.3.3.3.3.3.3.3.3.3.3.3.3.3.",
"3.3.3.3.3.3.q 9 q q 0 q q 9 q q 9 q q 9 q q 9 0 3.3.3.3.3.3.3.3.",
"3.3.3.~ ! ! 9 U 9 8 U 8 9 U 9 9 U 9 9 U 8 8 U 8 ! Q ! 3.3.3.3.3.",
"3.3.3.| &.&.9 Y 8 8 Y 8 8 Y 8 8 Y 9 8 Y 8 8 Y 8  . .` 3.3.3.3.3.",
"3.3.3.%.{ ( 9 U 8 8 U 8 8 U 8 8 U 9 8 U 8 8 U 8 R _ } 3.3.3.3.3.",
"3.3.! %.{ ( v 0 v v 0 v v 0 v c 0 c j 0 h h 9 h R ( | ! 3.3.3.3.",
"3.3.~ =.2.2.2.1.1.1.1.1.1.1.1.1.1.1.1.1.1.1.1.1.1.1.-.~ 3.3.3.3.",
"3.3.~ ,.2.2.2.2.2.2.2.2.2.2.2.2.2.2.2.2.2.1.2.2.2.2.>.~ 3.3.3.3.",
"3.3.~ <.2.} | | | } } | | } } } } } } } } } } } { 1.<.~ 3.3.3.3.",
"3.3.~ <.2.2.2.2.2.2.2.2.1.1.2.1.1.2.1.2.1.1.1.2.1.2.<.! 3.3.3.3.",
"3.3.~ 1.2.} } } } } } } } } } } } } ' } } } ' ' ] 1.1.Z . . . 3.",
"3.3.! 2.2.1.1.1.1.1.1.1.1.1.1.1.1.1.1.1.1.1.1.1.1.*.p o N o.a X ",
"3.3.~ 2.1.} } ' ' } } ' ' } 1.1.1.1.1.<.1.1.<.#.i + F ,.o.f 6 . ",
"3.3.( 2.1.1.1.1.1.1.1.1.1.1.1.1.<.1.1.<.1.@.: + b L K :.X.5 7 . ",
"3.3.` 2.1.1.1.1.1.1.1.<.1.<.1.<.1.1.<...; # n L J x l D u   . 3.",
"3.3.' 2.1.' ' ' ' ' ' } ' ' ' ` ' A & # m L J x k y % o * 3.3.3.",
"3.3. .1.<.1.1.<.1.<.1.<.<.<.<...= $ M L G z k t # @ / } 3.3.3.3.",
"3.3. .1.<.' ' ' ` ` ' ` ' ' d o B L G z k r o & V >.1. .3.3.3.3.",
"3.3.&.1.1.<.<.<.<.<.<.<.<.^ @ +.$.z g w O - ..<.<.,.<.&.3.3.3.3.",
"3.R &.1.<.` ` _ ` ` ` ` s + I O.I e o - E ` _ _ _ <.<.&.! 3.3.3.",
"3.R =.<.<.<.<.<.<.>.;.C   o . X & i ) %.&.=.-.>.>.>.<.&.R 3.3.3.",
"3.4 -.<.<._ ` _ _ _ ! S S ) ' } ` ' }  .%.&.=.>.>.>.<.=.T 3.3.3.",
"3.4 ;.<.<.>.<.>.<.<.>.>.>.;.-.=.-.-.-.;.;.>.>.>.>.>.<.;.4 3.3.3.",
"3.3 >.>.<.>.<.>.,.>.>.<.>.>.>.>.>.>.>.>.>.>.>.>.>.>.>.;.3 3.3.3.",
"3.2 >.>.>.>.>.>.>.>.>.>.>.>.>.>.>.>.>.>.>.>.;.>.>.>.>.>.2 3.3.3.",
"3.1 1.2.2.2.2.2.2.1.2.1.2.2.2.1.1.2.1.1.1.2.1.2.1.1.2.2.1 3.3.3.",
"3.< &._ _ _ _ _ _ _ _ _ _ _ _ _ _ _ _ _ _ _ _ _ _ _ _ &.< 3.3.3.",
"3.> &.&.&.&.&.&.&.&.&.&.&.&.&.&.&.&.&.&.&.&.&.&.&.&.&.%.< 3.3.3.",
"3., > > > > > > > > > > > > > > > > > > > > > , > > > , > 3.3.3.",
"3.3.3.3.3.3.3.3.3.3.3.3.3.3.3.3.3.3.3.3.3.3.3.3.3.3.3.3.3.3.3.3.",
"3.3.3.3.3.3.3.3.3.3.3.3.3.3.3.3.3.3.3.3.3.3.3.3.3.3.3.3.3.3.3.3."
};
