/* XPM */
static char *text_x_generic_xpm[] = {
/* columns rows colors chars-per-pixel */
"32 32 251 2 ",
"   c #343434",
".  c #343435",
"X  c #353435",
"o  c #353535",
"O  c #363535",
"+  c #363536",
"@  c gray21",
"#  c #383837",
"$  c #373738",
"%  c #383738",
"&  c gray22",
"*  c #393838",
"=  c #383839",
"-  c #3B3A3A",
";  c gray23",
":  c #3C3C3C",
">  c #3C3C3D",
",  c gray24",
"<  c #414040",
"1  c #434242",
"2  c #434243",
"3  c #454647",
"4  c #484848",
"5  c gray29",
"6  c #4C4F4F",
"7  c #505050",
"8  c #565656",
"9  c gray34",
"0  c #5A5959",
"q  c #5A5A5A",
"w  c #5C5B5B",
"e  c #5C5C5B",
"r  c #5F5F5F",
"t  c #606060",
"y  c gray39",
"u  c #646463",
"i  c #676767",
"p  c #676B6D",
"a  c #6A6C70",
"s  c #717171",
"d  c #767575",
"f  c #818181",
"g  c gray53",
"h  c #909090",
"j  c #939292",
"k  c gray58",
"l  c #959595",
"z  c #989898",
"x  c #9A9A9A",
"c  c #9B9B9B",
"v  c #9D9D9D",
"b  c #999EA3",
"n  c #A0A0A0",
"m  c #A2A2A2",
"M  c #ACA4AA",
"N  c #A1A9AD",
"B  c #ADACAC",
"V  c #AFAEAE",
"C  c #A1A3B1",
"Z  c #A0ABB2",
"A  c #A2AEB4",
"S  c #ABB2B6",
"D  c #B2B1B1",
"F  c #B3B2B2",
"G  c #B4B4B4",
"H  c #BBBBBB",
"J  c #B4BCC1",
"K  c #B7BFC4",
"L  c #BDC8CF",
"P  c #C6C6C5",
"I  c #C7C6C6",
"U  c gray78",
"Y  c gray79",
"T  c #CAC9C9",
"R  c #CACACA",
"E  c #CCCBCB",
"W  c #CDCBCB",
"Q  c gray80",
"!  c #CDCDCC",
"~  c #CDCDCD",
"^  c #CECCCC",
"/  c #CFCECE",
"(  c #CFCFCE",
")  c #C0CCD2",
"_  c #C2CCD2",
"`  c #C5D0D7",
"'  c #C7D1D7",
"]  c #C7D2D7",
"[  c #C8D2D7",
"{  c #C8D3D9",
"}  c #C9D4DA",
"|  c #CBD6DC",
" . c #CDD9DF",
".. c #D0D0D0",
"X. c #D3D1D1",
"o. c #D3D2D2",
"O. c LightGray",
"+. c gray83",
"@. c #D7D5D5",
"#. c #D7D7D7",
"$. c #D8D7D7",
"%. c #D8D8D7",
"&. c #D9D8D8",
"*. c #DAD9D9",
"=. c #DBD9D9",
"-. c #DADADA",
";. c #DDDDDD",
":. c #E0DFDF",
">. c #E0E0DF",
",. c #E1E0DF",
"<. c #CFDAE0",
"1. c #D2DBE2",
"2. c #DCDBE9",
"3. c #DEDDED",
"4. c #E2DBEC",
"5. c #D5E1E7",
"6. c #D7E1E8",
"7. c #D9E2E9",
"8. c #D8E3E9",
"9. c #DAE4EB",
"0. c #DAE5EB",
"q. c #DAE5EC",
"w. c #DAE6EC",
"e. c #DBE6EC",
"r. c #DCE7ED",
"t. c #DCE7EE",
"y. c #DDE7EE",
"u. c #DCE8EE",
"i. c #DDE8EE",
"p. c #DCE8EF",
"a. c #DDE8EF",
"s. c #DDE9EF",
"d. c #DEE9EF",
"f. c #DEEAF0",
"g. c #DFEAF0",
"h. c #DFEAF1",
"j. c #DFEBF1",
"k. c gray88",
"l. c #E1E0E0",
"z. c #E1E1E1",
"x. c #E2E0E0",
"c. c #E2E1E1",
"v. c #E3E1E1",
"b. c gray89",
"n. c #E4E2E2",
"m. c #E4E3E3",
"M. c #E5E3E3",
"N. c #E5E4E4",
"B. c gray90",
"V. c #E6E5E5",
"C. c #E7E5E5",
"Z. c #E7E7E7",
"A. c #E8E7E7",
"S. c #E9E7E7",
"D. c #E9E8E7",
"F. c gray91",
"G. c #E9E9E9",
"H. c #EBE9E9",
"J. c #EAEAEA",
"K. c #EBEAEA",
"L. c gray92",
"P. c #ECEBEB",
"I. c #EDEBEB",
"U. c #ECECEC",
"Y. c #EDECEC",
"T. c gray93",
"R. c #EEEDED",
"E. c #EFEDED",
"W. c #EEEEEE",
"Q. c #EFEEEE",
"!. c #EFEFEF",
"~. c #F3E2EE",
"^. c #F0EFEE",
"/. c #F0EFEF",
"(. c #F1EFEF",
"). c #E1E0F0",
"_. c #E0EAF1",
"`. c #E1EBF1",
"'. c #E0EBF2",
"]. c #E0ECF1",
"[. c #E0ECF2",
"{. c #E1ECF2",
"}. c #E1ECF3",
"|. c #E2EDF4",
" X c #E3EEF5",
".X c #E3EFF5",
"XX c #E4EFF6",
"oX c #E5EFF6",
"OX c #F6E5F0",
"+X c #F6E6F2",
"@X c #F8E7F3",
"#X c #F8E9F3",
"$X c #F8E8F4",
"%X c #F8E9F4",
"&X c #F8EAF5",
"*X c #F9EAF6",
"=X c #F8EBF6",
"-X c #FBECF6",
";X c #E4F0F6",
":X c #E9F4FB",
">X c gray94",
",X c #F1F0F0",
"<X c #F1F1F1",
"1X c #F2F0F0",
"2X c #F2F1F1",
"3X c #F2F2F1",
"4X c #F3F2F1",
"5X c gray95",
"6X c #F3F2F2",
"7X c #F3F3F3",
"8X c #F4F3F2",
"9X c #F4F3F3",
"0X c #F4F4F3",
"qX c #F5F4F3",
"wX c #F4F4F4",
"eX c #F5F4F4",
"rX c #F4F5F4",
"tX c gray96",
"yX c #F6F5F4",
"uX c #F6F5F5",
"iX c #F7F5F5",
"pX c #F5F6F5",
"aX c #F6F6F5",
"sX c #F6F6F6",
"dX c #F7F6F6",
"fX c #F6F7F6",
"gX c #F7F7F6",
"hX c gray97",
"jX c #F8F7F7",
"kX c #F9F7F7",
"lX c #F8F8F8",
"zX c #F9F8F8",
"xX c #F9F9F9",
"cX c #FAF9F9",
"vX c #FBF9F9",
"bX c gray98",
"nX c #FBFAFA",
"mX c #FBFBFA",
"MX c #FBFBFB",
"NX c #FCFBFB",
"BX c #FDFCFB",
"VX c gray99",
"CX c #FDFCFC",
"ZX c #FDFDFD",
"AX c #FEFDFD",
"SX c #FFFCFF",
"DX c #FEFEFE",
"FX c #FFFEFE",
"GX c #FFFFFE",
"HX c gray100",
"JX c None",
/* pixels */
"JXJXJXJXJXJXJXJXJXJXJXJXJXJXJXJXJXJXJXJXJXJXJXJXJXJXJXJXJXJXJXJX",
"JXJXJXHXHXHXHXHXHXHXHXHXHXHXHXHXHXHXHXHXHXHXHXHXHXHXHXHXJXJXJXJX",
"JXJXJXHXO.Q./.~.1X1X6X6X6X6X6X9X6X6X6X6X9X6X9X/.6XQ./.HXJXJXJXJX",
"JXJXJXsXv D.0.2.e.0.e.e.u.u.u.e.e.u.u.u.e.e.e.e.7.0.7.HXJXJXJXJX",
"JXJXJXHX/.9X9XOXrXrX9XsXsXsXsXjXsXsXsXsXsX9XrX9XrX9X6XHXJXJXJXJX",
"JXJXJXHX6X9XrX+XsXsXsXsXjXjXjXlXkXkXhXsXsXsXeXsX9X9X6XHXJXJXJXJX",
"JXJXJXHX;.sXsX#XsXsXsXlXjXjXlXlXlXlXlXlXjXkXjXsXjXrXsXHXJXJXJXJX",
"JXJXJX7Xc L.u.3.u.j.j.j.`.`.}.}.|.|.`.j.g.u.u.j.u.e.e.HXJXJXJXJX",
"JXJXJXHXQ.lXsX=XlXlXlXHXNXNXNXlXNXNXNXlXlXlXlXlXlXjXsXHXJXJXJXJX",
"JXJXJXHXsXsXlX=XlXlXMXlXNXNXNXHXVXVXVXVXHXmXmXlXlXlXsXHXJXJXJXJX",
"JXJXJXHXQ.lXlX-XNXlXlXHXNXNXNXHXHXNXHXlXlXHXlXlXlXlXsXHXJXJXJXJX",
"JXJXJXsXk Q.u.C XX}.|.|.XX}.}.XX}.}.|.|.}.Z }.}.`.j.j.HXJXJXJXJX",
"JXJXJXHXL.lXQ.  HXlXNXNXVXVXHXNXHXNXVXVXsX  lXNXlXlXlXHXJXJXJXJX",
"JXJXJXHXlXlXL.$ HXlXVXHXHXHXlXHXVXHXHXHXrX$ lXlXlXlXsXHXJXJXJXJX",
"JXJXJXHXV.k.w & r w +.m # W HXNXHXs 4 O.w @ e 9 ( gXsXHXJXJXJXJX",
"JXJXJX6Xc 6Xq.$ :XXX|.;Xp 6 e.XXN * J }.u.$ }.}.u.u.q.HXJXJXJXJX",
"JXJXJXHX>XlX>X@ HXNXNXVXQ.5 g L.1 j lXjX6X@ 6X6X1X1XQ.HXJXJXJXJX",
"JXJXJXHXlXlX!.  HXNXlXVXlXT * w y sXsX9XP.  Q.Q.P.L.L.HXJXJXJXJX",
"JXJXJXHXQ.lX6X  VXlXlXlXlXHXt > F sX/.Q.V.@ L.S.V.k.k.HXJXJXJXJX",
"JXJXJXQ.z 6X7.@ XX`.j.`.}.b > a 3 '  .| ' @ ] { ' ) _ +.JXJXJXJX",
"JXJXJXHXJ.lX6X@ lXNXlXVX+., m U.7 u O.W P @ U / O.:.k.JXJXJXJXJX",
"JXJXJXHXgXlXmX1 h =.V.sX8 i 7XQ.H @ HXHXHXHXHXHXjX&.JXJXJXJXJXJX",
"JXJXJXHXZ.lXmXM - $ D f < ,.6XS.%.d HXlXsX6XP.k.W JXJXJXJXJXJXJX",
"JXJXJXsXl J.f.).f.}.}.}.j.q.6. .L Z HXsX6XP.k.o.JXJXJXJXJXJXJXJX",
"JXJXJXHXQ.jXsX=XkXlXkXsXeX6XP.,.( V HX6XP.n.+.JXJXJXJXJXJXJXJXJX",
"JXJXJXHXsXsXjX=XkXkXsXsX9X/.P.:.( V HXQ.n.=.JXJXJXJXJXJXJXJXJXJX",
"JXJXJXHXP.jXsX@XlXkXjXjX9X/.P.:.W D HXn.=.JXJXJXJXJXJXJXJXJXJXJX",
"JXJXJXsXz Y.e.4.u.e.e.e.0.6.1.' J S lX@.JXJXJXJXJXJXJXJXJXJXJXJX",
"JXJXJXHXS.sXsX$XsXjXsXiX6XQ.S.;.U ..n.JXJXJXJXJXJXJXJXJXJXJXJXJX",
"JXJXJXHXsXeXsX@XjXsX9X9X/.Q.V.$.T V.JXJXJXJXJXJXJXJXJXJXJXJXJXJX",
"JXJXJXHXHXHXHXSXHXHXHXHXHXHXlX6XT JXJXJXJXJXJXJXJXJXJXJXJXJXJXJX",
"JXJXJXJXJXJXJXJXJXJXJXJXJXJXJXJXJXJXJXJXJXJXJXJXJXJXJXJXJXJXJXJX"
};
