/* XPM */
static char *tip_xpm[] = {
/* columns rows colors chars-per-pixel */
"32 32 127 2 ",
"   c #1E0D0E",
".  c #151313",
"X  c #191617",
"o  c #240E0E",
"O  c #291413",
"+  c #1F1F20",
"@  c #2A2524",
"#  c #332C2B",
"$  c #333131",
"%  c #3B3535",
"&  c #323339",
"*  c #423C3B",
"=  c #4B3D3B",
"-  c #665434",
";  c #4B4D4D",
":  c #565656",
">  c #6C5F5B",
",  c #686867",
"<  c #6A6868",
"1  c #706765",
"2  c #776E6B",
"3  c #7E7877",
"4  c #A76C00",
"5  c #A96D00",
"6  c #AE7202",
"7  c #AF760A",
"8  c #B27503",
"9  c #B67A05",
"0  c #BA7F07",
"q  c #B27C14",
"w  c #817C7B",
"e  c #BC8007",
"r  c #BC8209",
"t  c #B38018",
"y  c #BD8A1F",
"u  c #B98825",
"i  c #B68728",
"p  c #BE8F30",
"a  c #C38303",
"s  c #C28509",
"d  c #C68C0C",
"f  c #C88E0E",
"g  c #CB920F",
"h  c #D2980D",
"j  c #C68F14",
"k  c #C28D1A",
"l  c #CE9510",
"z  c #C6931D",
"x  c #C99319",
"c  c #D49C13",
"v  c #D99E11",
"b  c #DBA316",
"n  c #DEA718",
"m  c #DFA818",
"M  c #E3AC1A",
"N  c #E7B01C",
"B  c #EAB31D",
"V  c #C3942D",
"C  c #CC9C2C",
"Z  c #C99E3D",
"A  c #E5B325",
"S  c #EDB720",
"D  c #EDBA24",
"F  c #EDBC2A",
"G  c #EBBE32",
"H  c #ECC134",
"J  c #EAC23A",
"K  c #BD9844",
"L  c #BA9E57",
"P  c #C79F41",
"I  c #CFA742",
"U  c #CAA64D",
"Y  c #D1AE4F",
"T  c #CCAB59",
"R  c #D0AD54",
"E  c #D6B55D",
"W  c #D7B85E",
"Q  c #C8AE60",
"!  c #DABF6A",
"~  c #CFB97E",
"^  c #D0BC76",
"/  c #EAC644",
"(  c #E8C749",
")  c #E9C94C",
"_  c #E7CD56",
"`  c #E8CC54",
"'  c #E7CE5A",
"]  c #DCC06F",
"[  c #DCC372",
"{  c #DCC67A",
"}  c #E6D264",
"|  c #E5D56B",
" . c #E0C471",
".. c #E3D977",
"X. c #E4DA7C",
"o. c #8E8782",
"O. c #8C8B89",
"+. c #928D8B",
"@. c #969593",
"#. c #999393",
"$. c #9E9C9C",
"%. c #A09D98",
"&. c #BFB080",
"*. c #A5A5A5",
"=. c gray66",
"-. c #B6B2A7",
";. c #E2DD82",
":. c #EBD980",
">. c #E5DF8D",
",. c #E3E08B",
"<. c #E6E494",
"1. c #E8E59A",
"2. c #CDC4A9",
"3. c #DACDA2",
"4. c #EAE7A0",
"5. c #ECEAA5",
"6. c #EDEDAF",
"7. c #F3E6AA",
"8. c #EFEEB2",
"9. c #F3F3BF",
"0. c #C0C2C3",
"q. c #CBCAC9",
"w. c #E8E9E7",
"e. c #EEEEED",
"r. c #F7F7F6",
"t. c gray100",
"y. c None",
/* pixels */
"y.y.y.y.y.y.y.y.y.y.y.y.y.y.y.y.y.y.y.y.y.y.y.y.y.y.y.y.y.y.y.y.",
"y.y.y.y.y.y.y.y.y.y.y.y.y.y.y.y.y.y.9 9 y.y.y.y.y.y.y.y.y.y.y.y.",
"y.y.y.y.y.y.y.y.y.y.y.y.y.y.y.8 e g c b m v d y.y.y.y.y.y.y.y.y.",
"y.y.y.y.y.y.y.y.y.y.y.y.y.6 0 f v M S G / ) / A a y.y.y.y.y.y.y.",
"y.y.y.y.y.y.y.y.y.y.y.y.7 r g b B F J ` } ..,.1.` a y.y.y.y.y.y.",
"y.y.y.y.y.y.y.y.y.y.y.t r f c M D J ` } ..,.5.9.9.G y.y.y.y.y.y.",
"y.y.y.y.y.y.y.y.y.y.y.y r l m S H / ' | ;.<.4.8.6.| h y.y.y.y.y.",
"y.y.y.y.y.y.y.y.y.y.V y d b M D H ) ' | X.>.1.4.<.| B y.y.y.y.y.",
"y.y.y.y.y.y.y.y.y.y.Z k g b N D J ) ' | ..;.,.,.,.X.D s y.y.y.y.",
"y.y.y.y.y.y.y.y.y.y.U j l b N D J / _ } | ..X.X.X.7.D a y.y.y.y.",
"y.y.y.y.y.y.y.y.y.y.R z l b B D G / ) ' } | | } ' / B d y.y.y.y.",
"y.y.y.y.y.y.y.y.y.y.E C g b M D F J ( ) _ ' ' ` ) H M a y.y.y.y.",
"y.y.y.y.y.y.y.y.y.y.E I g v m B F G J / ) ( ) / G S v s y.y.y.y.",
"y.y.y.y.y.y.y.y.y.y.E W x h b M B F G H J J H G D M g y.y.y.y.y.",
"y.y.y.y.y.y.y.y.y.y.y.[ C l v n N B S F F F F S M c s y.y.y.y.y.",
"y.y.y.y.y.y.y.y.y.y.y.! R j l v n M N B B B N M c d y.y.y.y.y.y.",
"y.y.y.y.y.y.y.y.y.y.y.W ! z d l c b b n m n b c f r y.y.y.y.y.y.",
"y.y.y.y.y.y.y.y.y.y.y.y.{ V r f g l h c c l g d s y.y.y.y.y.y.y.",
"y.y.y.y.y.y.y.y.y.y.y.y.[ P 9 r s d f f d d r 0 y.y.y.y.y.y.y.y.",
"y.y.y.y.y.y.y.y.y.y.y.y.[ U 8 8 9 0 r 0 r 9 8 y.y.y.y.y.y.y.y.y.",
"y.y.y.y.y.y.y.y.y.y.y.y.[ T 5 4 6 6 6 6 6 5 y.y.y.y.y.y.y.y.y.y.",
"y.y.y.y.y.y.y.y.y.y.y.y.[ { u 7 5 4 4 4 5 6 y.y.y.y.y.y.y.y.y.y.",
"y.y.y.y.y.y.y.y.y.y.y.y.- &.^ Q K i t q 8 y.y.y.y.y.y.y.y.y.y.y.",
"y.y.y.y.y.y.y.y.y.y.y.y.o w #.-.2.3.~ L p y.y.y.y.y.y.y.y.y.y.y.",
"y.y.y.y.y.y.y.y.y.y.y.y.O > +.%.; 0.t.& y.y.y.y.y.y.y.y.y.y.y.y.",
"y.y.y.y.y.y.y.y.y.y.y.y.o 1 %.# +.r.q.$ y.y.y.y.y.y.y.y.y.y.y.y.",
"y.y.y.y.y.y.y.y.y.y.y.y.O 2 +.# #.e.@.X y.y.y.y.y.y.y.y.y.y.y.y.",
"y.y.y.y.y.y.y.y.y.y.y.y.= o.3 * e.w.< . y.y.y.y.y.y.y.y.y.y.y.y.",
"y.y.y.y.y.y.y.y.y.y.y.y.y.$ * % 3 +.@ y.y.y.y.y.y.y.y.y.y.y.y.y.",
"y.y.y.y.y.y.y.y.y.y.y.y.y.O.O.< : + y.y.y.y.y.y.y.y.y.y.y.y.y.y.",
"y.y.y.y.y.y.y.y.y.y.y.y.y.y.y.=.*.y.y.y.y.y.y.y.y.y.y.y.y.y.y.y.",
"y.y.y.y.y.y.y.y.y.y.y.y.y.y.y.y.y.y.y.y.y.y.y.y.y.y.y.y.y.y.y.y."
};
