/* XPM */
static char *tip_xpm[] = {
/* columns rows colors chars-per-pixel */
"24 24 195 2 ",
"   c #3A2828",
".  c #3C2A29",
"X  c #383535",
"o  c #50423A",
"O  c #524543",
"+  c #514D4C",
"@  c #574F4D",
"#  c #535151",
"$  c #545150",
"%  c #5B5352",
"&  c #5C5757",
"*  c #666666",
"=  c #757370",
"-  c #7A7676",
";  c #7D7774",
":  c #AA6E02",
">  c #AC6F00",
",  c #AD7001",
"<  c #AD7101",
"1  c #AD7201",
"2  c #AD7103",
"3  c #AD7202",
"4  c #AC7309",
"5  c #B37703",
"6  c #B67A05",
"7  c #B77C06",
"8  c #B97E07",
"9  c #B57C0A",
"0  c #AE7710",
"q  c #827A78",
"w  c #867F7C",
"e  c #BC8107",
"r  c #BB8108",
"t  c #BC8208",
"y  c #BD8309",
"u  c #BF8509",
"i  c #B9851A",
"p  c #B38220",
"a  c #BC8C28",
"s  c #BF9335",
"d  c #BD9439",
"f  c #C2870A",
"g  c #C0870E",
"h  c #C2880A",
"j  c #C58A0B",
"k  c #C68B0B",
"l  c #C48A0C",
"z  c #C78C0C",
"x  c #C78D0D",
"c  c #C78E0E",
"v  c #C9900F",
"b  c #CB920E",
"n  c #CB920F",
"m  c #CD920D",
"M  c #CD930E",
"N  c #CF950E",
"B  c #D0950D",
"V  c #D3980F",
"C  c #C58E15",
"Z  c #C08D1F",
"A  c #C18D1F",
"S  c #CC9310",
"D  c #CC9311",
"F  c #CD9410",
"G  c #CE9510",
"H  c #CD9716",
"J  c #D09712",
"K  c #D09811",
"L  c #D19811",
"P  c #D19812",
"I  c #D29A12",
"U  c #D39B13",
"Y  c #D49B12",
"T  c #D59C13",
"R  c #D69E14",
"E  c #D8A015",
"W  c #D9A115",
"Q  c #D9A116",
"!  c #DAA216",
"~  c #DCA416",
"^  c #DCA517",
"/  c #DDA517",
"(  c #DFA718",
")  c #DFA819",
"_  c #E0A818",
"`  c #E1A918",
"'  c #E2AA19",
"]  c #E0A91A",
"[  c #E3AC1A",
"{  c #E2AC1C",
"}  c #E6AF1C",
"|  c #E6B01C",
" . c #E7B11C",
".. c #E6B01D",
"X. c #E9B31E",
"o. c #EAB31E",
"O. c #EAB41E",
"+. c #C59222",
"@. c #CD9B24",
"#. c #C89828",
"$. c #C99F3E",
"%. c #CCA035",
"&. c #CFA63D",
"*. c #DCB233",
"=. c #E9B521",
"-. c #EBB620",
";. c #EBB621",
":. c #EBB722",
">. c #E8B625",
",. c #ECB924",
"<. c #ECB925",
"1. c #EDBA26",
"2. c #EDBA27",
"3. c #E8B82A",
"4. c #ECBB29",
"5. c #ECBE2E",
"6. c #ECBE2F",
"7. c #E0B430",
"8. c #EBBF32",
"9. c #ECBE30",
"0. c #ECBF31",
"q. c #E7BF39",
"w. c #E4BE3E",
"e. c #EBC035",
"r. c #ECC136",
"t. c #EBC238",
"y. c #EBC239",
"u. c #EBC33C",
"i. c #EAC43F",
"p. c #B6954C",
"a. c #B4A065",
"s. c #CCA64A",
"d. c #D1AB49",
"f. c #D2AF55",
"g. c #D3B256",
"h. c #D7B85E",
"j. c #C9AE66",
"k. c #D6B964",
"l. c #D6BA68",
"z. c #DABD68",
"x. c #CDB57A",
"c. c #E4C144",
"v. c #EAC541",
"b. c #E9C542",
"n. c #E9C746",
"m. c #E9C747",
"M. c #EDC64A",
"N. c #E9C84A",
"B. c #E8C94C",
"V. c #E8CA4F",
"C. c #E8CB51",
"Z. c #E9CB51",
"A. c #E8CB52",
"S. c #E5C95B",
"D. c #E7CD59",
"F. c #E7CE59",
"G. c #E7CF5C",
"H. c #E7CF5D",
"J. c #ECCB58",
"K. c #DCC06F",
"L. c #E6D164",
"P. c #E5D266",
"I. c #E5D469",
"U. c #E5D46A",
"Y. c #E5D56C",
"T. c #E4D670",
"R. c #E4D772",
"E. c #E9D570",
"W. c #E3D977",
"Q. c #E3DB7E",
"!. c #838382",
"~. c #858282",
"^. c #848382",
"/. c #878785",
"(. c #9A9384",
"). c #B6AE94",
"_. c #A7A2A2",
"`. c #A8A7A6",
"'. c #C2B288",
"]. c #E3DC80",
"[. c #E3DD84",
"{. c #E6DF85",
"}. c #E3DF88",
"|. c #E7DF8D",
" X c #E7E392",
".X c #E6E394",
"XX c #EAE391",
"oX c #E8E69A",
"OX c #EEE79B",
"+X c #EAE8A2",
"@X c #F0EFB6",
"#X c #C9C7C6",
"$X c #D1D1D0",
"%X c #E0DFDC",
"&X c None",
/* pixels */
"&X&X&X&X&X&X&X&X&X&X&X&X&X&X&X&X&X&X&X&X&X&X&X&X",
"&X&X&X&X&X&X&X&X&X&X&X&Xe j M V &X&X&X&X&X&X&X&X",
"&X&X&X&X&X&X&X&X&X&X6 h I { 3.q.w.7.&X&X&X&X&X&X",
"&X&X&X&X&X&X&X&X&X9 l E =.r.Z.Y.{.XXS.&X&X&X&X&X",
"&X&X&X&X&X&X&X&Xi g I ..9.N.L.Q.oX@XOX*.&X&X&X&X",
"&X&X&X&X&X&X&X&XA v ^ =.y.Z.U.]..X+X Xc.&X&X&X&X",
"&X&X&X&X&X&X&X$.+.G ` <.u.Z.L.W.[.}.|.J.B &X&X&X",
"&X&X&X&X&X&X&Xs.#.K ` ,.y.B.G.Y.T.T.E.M.B &X&X&X",
"&X&X&X&X&X&X&Xf.%.K ` ;.9.b.Z.D.G.D.n.>.M &X&X&X",
"&X&X&X&X&X&X&X&Xd.H E ..4.8.i.n.n.b.9.` l &X&X&X",
"&X&X&X&X&X&X&X&Xh.@.U ` O.<.5.9.9.4.} K &X&X&X&X",
"&X&X&X&X&X&X&X&Xz.&.D R ` ..O.=.o.[ T c &X&X&X&X",
"&X&X&X&X&X&X&X&X&Xg.C n U E ^ ^ E I c &X&X&X&X&X",
"&X&X&X&X&X&X&X&X&Xk.A u c n G D c h &X&X&X&X&X&X",
"&X&X&X&X&X&X&X&X&Xl.a 5 8 y y y 6 &X&X&X&X&X&X&X",
"&X&X&X&X&X&X&X&X&XK.s : > < < > < &X&X&X&X&X&X&X",
"&X&X&X&X&X&X&X&X&Xa.j.d p 0 4 2 &X&X&X&X&X&X&X&X",
"&X&X&X&X&X&X&X&X&Xo (.).'.x.p.&X&X&X&X&X&X&X&X&X",
"&X&X&X&X&X&X&X&X&X  q ^./.%X= &X&X&X&X&X&X&X&X&X",
"&X&X&X&X&X&X&X&X&X. w @ _.$X$ &X&X&X&X&X&X&X&X&X",
"&X&X&X&X&X&X&X&X&XO ; % #X`.X &X&X&X&X&X&X&X&X&X",
"&X&X&X&X&X&X&X&X&X&X$ + - & &X&X&X&X&X&X&X&X&X&X",
"&X&X&X&X&X&X&X&X&X&X^.!.* &X&X&X&X&X&X&X&X&X&X&X",
"&X&X&X&X&X&X&X&X&X&X&X&X&X&X&X&X&X&X&X&X&X&X&X&X"
};
