/* XPM */
static char *transit_xpm[] = {
/* columns rows colors chars-per-pixel */
"32 32 256 2 ",
"   c #2F2D29",
".  c #322E2B",
"X  c #34312F",
"o  c #343333",
"O  c #34373A",
"+  c #0E550E",
"@  c #135A0F",
"#  c #155C10",
"$  c #1B5D1A",
"%  c #1A620F",
"&  c #1C6014",
"*  c #226B11",
"=  c #2F7913",
"-  c #22593C",
";  c #266426",
":  c #2D6A29",
">  c #346D2E",
",  c #3F7E27",
"<  c #397233",
"1  c #113855",
"2  c #333A40",
"3  c #36424D",
"4  c #374958",
"5  c #3B6E4A",
"6  c #3F7058",
"7  c #354D61",
"8  c #3B5265",
"9  c #2F597B",
"0  c #325B7D",
"q  c #46464F",
"w  c #4A7D49",
"e  c #47774A",
"r  c #59795B",
"t  c #41627C",
"y  c #617D65",
"u  c #AF6969",
"i  c #AD7171",
"p  c #B67372",
"a  c #3A8314",
"s  c #44871C",
"d  c #529A1A",
"f  c #5CA51D",
"g  c #438632",
"h  c #558D3D",
"j  c #65AD27",
"k  c #6CB528",
"l  c #79BE31",
"z  c #428446",
"x  c #538642",
"c  c #5A8B58",
"v  c #74A654",
"b  c #648F63",
"n  c #679368",
"m  c #749867",
"M  c #6F8475",
"N  c #778B7B",
"B  c #769D76",
"V  c #7AA574",
"C  c #8ACC3D",
"Z  c #83AF67",
"A  c #87B466",
"S  c #8ECD49",
"D  c #8EC853",
"F  c #18368F",
"G  c #203B8D",
"H  c #1C2AA4",
"J  c #1E3AAD",
"K  c #243AAC",
"L  c #2E589E",
"P  c #3C6383",
"I  c #376580",
"U  c #1D4CA5",
"Y  c #1F4BB7",
"T  c #1F55B7",
"R  c #2652AC",
"E  c #274FB8",
"W  c #2346B3",
"Q  c #2857BC",
"!  c #3259B8",
"~  c #3977AC",
"^  c #2263BC",
"/  c #3164B8",
"(  c #3E7ABB",
")  c #496B87",
"_  c #4C7697",
"`  c #547B9B",
"'  c #485EBB",
"]  c #4461A0",
"[  c #5D68BE",
"{  c #4F71B1",
"}  c #637CB0",
"|  c #205AC0",
" . c #276AC7",
".. c #236DCA",
"X. c #2667C3",
"o. c #3A6AC3",
"O. c #2471CB",
"+. c #2972CC",
"@. c #2370C5",
"#. c #3473CB",
"$. c #3479C8",
"%. c #257CD3",
"&. c #2B7BD1",
"*. c #2477D0",
"=. c #406AC4",
"-. c #4D7DCD",
";. c #557FCA",
":. c #6A76C4",
">. c #76869D",
",. c #6E8BBD",
"<. c #7087B1",
"1. c #2583D7",
"2. c #2585D9",
"3. c #2D8CDB",
"4. c #2A85D8",
"5. c #318FDC",
"6. c #398BD9",
"7. c #3692DD",
"8. c #3B94DD",
"9. c #428BC6",
"0. c #598BCA",
"q. c #5795C6",
"w. c #4587D4",
"e. c #538DD6",
"r. c #4299DF",
"t. c #579EDF",
"y. c #5E99DD",
"u. c #6A89CF",
"i. c #6588C5",
"p. c #7C8FC8",
"a. c #7594CE",
"s. c #7F95CC",
"d. c #6A94D6",
"f. c #699ADA",
"g. c #6491D5",
"h. c #7F98D1",
"j. c #7897D6",
"k. c #69A5DE",
"l. c #75A0DC",
"z. c #73ACD9",
"x. c #4C9EE1",
"c. c #479BE0",
"v. c #599DE0",
"b. c #4FA0E1",
"n. c #53A2E1",
"m. c #5CA6E3",
"M. c #5FA9E4",
"N. c #66ABE5",
"B. c #6AADE5",
"V. c #65B0E4",
"C. c #6FB1E6",
"Z. c #72B3E7",
"A. c #72B8E7",
"S. c #7DB9E9",
"D. c #819C84",
"F. c #86AC82",
"G. c #87A886",
"H. c #93B58D",
"J. c #9AA39B",
"K. c #95A098",
"L. c #98B7A2",
"P. c #A9AEAA",
"I. c #A7BAA7",
"U. c #A2B0A4",
"Y. c #ACBCB4",
"T. c #B0B0B1",
"R. c #C59190",
"E. c #CDA9A9",
"W. c #D6BCBC",
"Q. c #ADC5AB",
"!. c #BFCFBF",
"~. c #B5C7B7",
"^. c #BFD2BA",
"/. c #8396CC",
"(. c #849CD7",
"). c #8C9DD7",
"_. c #83A4DC",
"`. c #93A3D9",
"'. c #98A8DB",
"]. c #93B1DC",
"[. c #A3ACDC",
"{. c #A8B9DA",
"}. c #B0B6DF",
"|. c #83BCEA",
" X c #8ABAEA",
".X c #96BEE8",
"XX c #A5BAE4",
"oX c #B1B7E0",
"OX c #B3BBE3",
"+X c #8CC1EC",
"@X c #96C6ED",
"#X c #9CCDEE",
"$X c #A2CDEF",
"%X c #BDC2E5",
"&X c #B9C8E8",
"*X c #A3D0EF",
"=X c #BAD0E7",
"-X c #BED0ED",
";X c #A5D1F0",
":X c #ACD3F1",
">X c #B8D7F1",
",X c #BBDBF3",
"<X c #BFE2F4",
"1X c #CACACA",
"2X c #C1C5C2",
"3X c #C6D3C6",
"4X c #CFDCCF",
"5X c #CFD0D1",
"6X c #D4D5D4",
"7X c #D5DFD5",
"8X c #D6D7DC",
"9X c #E4D9DC",
"0X c #CFE2C1",
"qX c #D0E0DC",
"wX c #C2C7E7",
"eX c #C5CAE9",
"rX c #CFD4ED",
"tX c #CDDBEE",
"yX c #C5D5EF",
"uX c #DCDEE6",
"iX c #D4D9EF",
"pX c #D0DAE6",
"aX c #C2DFF4",
"sX c #CEDCF2",
"dX c #D8DCF0",
"fX c #D7E5E1",
"gX c #C5E1F5",
"hX c #CAE3F6",
"jX c #CCE9F6",
"kX c #DBE2F2",
"lX c #D4E8F7",
"zX c #DAE8F6",
"xX c #D5EAF8",
"cX c #DCECF9",
"vX c #E4E4E4",
"bX c #E3E4EB",
"nX c #E8E6E8",
"mX c #ECECEC",
"MX c #EBE1E0",
"NX c #EDF1ED",
"BX c #E0E3F2",
"VX c #E2EEF9",
"CX c #ECEEFB",
"ZX c #EBECF0",
"AX c #F2EEF2",
"SX c #ECF5FB",
"DX c #EFF8FC",
"FX c #E7F1F5",
"GX c #F4F4F4",
"HX c #F8F7F7",
"JX c #F7F8F7",
"KX c #F3F4FA",
"LX c #F9F7F9",
"PX c #F3FAFD",
"IX c #FCFCFD",
"UX c None",
/* pixels */
"UXUXUXUXUXUXUXUXUXUXUXUXUXUXUXUXUXUXUXUXUXC S C UXUXUXUXUXUXUXUX",
"UXUXUXUXUXUXUXUXUXUXUXUXUXUXUXUXUXUXUXS A m m m Z D UXUXUXUXUXUX",
"UXUXUXUXUXUXUXUXUXUXUXUXUXUXUXUXUXk v c M K.J.J.N r v l UXUXUXUX",
"UXUXUXUXUXUXUXUXUXUXUXUXUXUXUXUXf x y 1XKXIX&XKXLX6XM x j UXUXUX",
"UXUXUXUXUXUXUXUXUXUXUXUXUXUXUXz s y nXHXGXGXh.bXGXJXAXN , d UXUX",
"UXUXUXUXUXUXUXUXUXUX! u.'.&X{.g > 8XGXmXmXmXs.uXmXmXAXnXe a UXUX",
"UXUXUXUXUXUXUXUXo.$XCXIXIXIX0X* D.9XW.nXmXvXp.8XvXvXvXZXU.* UXUX",
"UXUXUXUXUXUXUXd.DXIXIXCXKXIXH.# 2X9Xi u E.MX/.uXmXvX9XnX6X: = UX",
"UXUXUXUXUXUXl.IXPXCXkXBXkXCXV & P.2XNXvXR.p q 5XJXGXmX1XT.< * UX",
"UXUXUXUXUX! cXCXdXkXdXrXdXIXF.@ 2XvXGXJXIX].>.NXJXGXGXnX6X> * UX",
"UXUXUXUX| [ dXeXwXeXwXeXiXPXL.+ I.LXGXIXeXa.IXIXJXHXGXIX3X& % UX",
"UXUXUXUXd.'.OX}.oXoXOXkXrXDXqX$ b IXJXGXa.bXIXJXIXHXHXIXG.# UXUX",
"UXUXUX#.0.'.[.[.[.[.[.sXPXPXIXn ; !.IXKXZXIXIXIXIXJXIX7Xw + UXUX",
"UXUXUXE K :.`.`.`.`.XXcXsXsXVXfX: c 7XIXIXIXmXIXIXIXvXB $ UXUXUX",
"UXUXUXJ H ' ).(.(.h.XXSXSXyX-XzX~.; n 3XNXHX6XJXGX4XG.; UXUXUXUX",
"UXUXO.K J W u.(.j._.xXPXDXPXPXSXkXY.w x F.Q.^.~.H.c $ UXUXUXUXUX",
"UXUX+.! W Y o.d.g.XXPXDXDXDXDXPXsXpX{.I 6 e - 5 5 1 UXUXUXUXUXUX",
"UXUX&.l.o.Y | #.e.k.zXDXSXDXDXDXVX=X0.0.i.,.F ] <.F UXUXUXUXUXUX",
"UXUXUX#X,Xf. ...%.6.v.B. XPXDXDXFX+Xw.$.^ / U { } L UXUXUXUXUXUX",
"UXUXUX|.aXgX>Xw.%.2.5.8.x.jXDXPX;X1.1.*.O.^ T R ,.{ UXUXUXUXUXUX",
"UXUXUXm.aXhX:X4.4.7.c.b.m.hXDXDX;XZ.7.1.%.O.X./ ! @.UXUXUXUXUXUX",
"UXUXUX3.:XaXv.1.7.b.M.B.Z.hXDXzX|.;X8.3.1.*.+.-. .UXUXUXUXUXUXUX",
"UXUXUXUXB. X7.5.c.M.Z.|. X;XVX$XZ.N.n.8.1.%.e.w.1.UXUXUXUXUXUXUX",
"UXUXUXUXUX8.N.m.n.B.|.@X;X*X@X@X+XZ.m.r.7.t.y.4.UXUXUXUXUXUXUXUX",
"UXUXUXUXUX~ b.+X|.S.+X;X,XgX,X:X@XS.N.M.Z.B.7.0 UXUXUXUXUXUXUXUX",
"UXUXUXUXUXUX~ V.#X:X:X,XjXcXjX,X*X@X@X@XZ.8.0 UXUXUXUXUXUXUXUXUX",
"UXUXUXUXUXUXUXP M.#XgXxXVXSXVXxXhX,X*XA.9.7 UXUXUXUXUXUXUXUXUXUX",
"UXUXUXUXUXUXUX. 3 _ z.*X<XjXjX<X;X|.q.t O X o UXUXUXUXUXUXUXUXUX",
"UXUXUXUXUXUXUXo X . 2 8 ) ` ` _ t 4 o . X o UXUXUXUXUXUXUXUXUXUX",
"UXUXUXUXUXUXUXUXUXUXo . . . .   . X o UXUXUXUXUXUXUXUXUXUXUXUXUX",
"UXUXUXUXUXUXUXUXUXUXUXUXUXUXUXUXUXUXUXUXUXUXUXUXUXUXUXUXUXUXUXUX",
"UXUXUXUXUXUXUXUXUXUXUXUXUXUXUXUXUXUXUXUXUXUXUXUXUXUXUXUXUXUXUXUX"
};
