/* XPM */
static char *transit_xpm[] = {
/* columns rows colors chars-per-pixel */
"24 24 219 2 ",
"   c #33312E",
".  c #333333",
"X  c #165B10",
"o  c #1C5D1C",
"O  c #24671C",
"+  c #2C6F1B",
"@  c #307913",
"#  c #2F7024",
"$  c #3C7736",
"%  c #3C753B",
"&  c #40773F",
"*  c #353D44",
"=  c #16405E",
"-  c #394853",
";  c #374E60",
":  c #3F6B63",
">  c #425665",
",  c #416D66",
"<  c #406969",
"1  c #476175",
"2  c #4F7B77",
"3  c #579B26",
"4  c #4A8432",
"5  c #46803E",
"6  c #4F8538",
"7  c #5DA227",
"8  c #72B13B",
"9  c #4D814E",
"0  c #4A8655",
"q  c #578F52",
"w  c #588759",
"e  c #64934D",
"r  c #669153",
"t  c #72A44F",
"y  c #7FB54F",
"u  c #74A353",
"i  c #659165",
"p  c #6D9266",
"a  c #669169",
"s  c #69946D",
"d  c #6E986E",
"f  c #7A9C6B",
"g  c #719676",
"h  c #789774",
"j  c #7D9D70",
"k  c #7A9F78",
"l  c #80B64F",
"z  c #82BD49",
"x  c #203AAD",
"c  c #254D9A",
"v  c #37658A",
"b  c #326A9B",
"n  c #2F41AE",
"m  c #355CA9",
"M  c #2144B2",
"N  c #264CB6",
"B  c #215CB7",
"V  c #2956BB",
"C  c #325DB0",
"Z  c #3F60A5",
"A  c #3266BD",
"S  c #4A6C86",
"D  c #526E83",
"F  c #55748B",
"G  c #5A7990",
"H  c #527C98",
"J  c #5570A8",
"K  c #4877BE",
"L  c #5579B6",
"P  c #236BC6",
"I  c #296DC9",
"U  c #3167C5",
"Y  c #3B67C2",
"T  c #346BC6",
"R  c #2C76CD",
"E  c #267CD2",
"W  c #327DD2",
"Q  c #4E6CC3",
"!  c #427DC8",
"~  c #5D7BCB",
"^  c #457ED0",
"/  c #837482",
"(  c #5280A3",
")  c #5189B3",
"_  c #2682D6",
"`  c #2887D8",
"'  c #2C8BDA",
"]  c #3F87D4",
"[  c #318CDB",
"{  c #398FDB",
"}  c #3591DD",
"|  c #3B92DC",
" . c #448BC2",
".. c #5280CE",
"X. c #4790CF",
"o. c #579BCF",
"O. c #4186D4",
"+. c #4C94DA",
"@. c #4298DF",
"#. c #5397DD",
"$. c #7685CC",
"%. c #618BD2",
"&. c #6790D5",
"*. c #6B98D8",
"=. c #7B96D5",
"-. c #7A9AD7",
";. c #729AD8",
":. c #74A1C3",
">. c #79A9DC",
",. c #7CB0D6",
"<. c #469BE0",
"1. c #549EE0",
"2. c #54A2E2",
"3. c #5CA5E2",
"4. c #5EA8E4",
"5. c #65ABE5",
"6. c #6AAFE7",
"7. c #76ADE3",
"8. c #79ADE3",
"9. c #6EB1E6",
"0. c #72B3E7",
"q. c #7AB7E8",
"w. c #869D80",
"e. c #8BA98A",
"r. c #99A999",
"t. c #94B498",
"y. c #9AB399",
"u. c #9FBA9D",
"i. c #A1AFA1",
"p. c #A2B4A1",
"a. c #AAB4AA",
"s. c #ABBAAB",
"d. c #AFBCB1",
"f. c #B6B9BD",
"g. c #C09393",
"h. c #D0ACAE",
"j. c #CFB3B4",
"k. c #D9BFBD",
"l. c #B3C2B3",
"z. c #B7CAB5",
"x. c #B9CCB7",
"c. c #B7CDB9",
"v. c #8BA0D8",
"b. c #90A1D8",
"n. c #99A3D8",
"m. c #96ADDE",
"M. c #9FAADC",
"N. c #9EB2D0",
"B. c #B0B2CA",
"V. c #A2ACDC",
"C. c #A6B9DD",
"Z. c #B3BEDA",
"A. c #86BDE6",
"S. c #83BBE9",
"D. c #88BFEB",
"F. c #B5BBE2",
"G. c #B8BEE3",
"H. c #ABC0D4",
"J. c #BEC5DA",
"K. c #87C0EA",
"L. c #8DC2EC",
"P. c #93C5EC",
"I. c #9CC9EE",
"U. c #A9C1E7",
"Y. c #A2CAE6",
"T. c #A0C6EA",
"R. c #A2CDEE",
"E. c #B4C4E7",
"W. c #BCC7E3",
"Q. c #BFDDEF",
"!. c #A5CFF0",
"~. c #ABD2F0",
"^. c #B3D6F2",
"/. c #BFD6F0",
"(. c #BBDBF3",
"). c #C4D5C6",
"_. c #CCDACC",
"`. c #D0DFCA",
"'. c #C6CDDA",
"]. c #C2D1D2",
"[. c #CDD2DD",
"{. c #D1D4D2",
"}. c #D3DCD3",
"|. c #DBDADB",
" X c #E3DADB",
".X c #CBCFEB",
"XX c #C9D4E4",
"oX c #C7D5EC",
"OX c #CCD3ED",
"+X c #C2DFEF",
"@X c #D0DFE6",
"#X c #C4DFF5",
"$X c #CBDAF1",
"%X c #DBE8E6",
"&X c #C4E0F5",
"*X c #CBE4F5",
"=X c #D4E2F2",
"-X c #DBE3F3",
";X c #DAEAF6",
":X c #DCEEF9",
">X c #E3E2E4",
",X c #E8E4E5",
"<X c #E7E8E8",
"1X c #ECEBEB",
"2X c #E0E3F5",
"3X c #E4E8F4",
"4X c #EDEEF3",
"5X c #E7E7F8",
"6X c #E5EFF9",
"7X c #EDF0F5",
"8X c #E5F2FA",
"9X c #EDF5FB",
"0X c #EFF8FC",
"qX c #F4F4F4",
"wX c #F8F6F5",
"eX c #F3F6FB",
"rX c #F1F9FD",
"tX c #FAFAFA",
"yX c None",
/* pixels */
"yXyXyXyXyXyXyXyXyXyXyXyXyXyXyXz l l z yXyXyXyXyX",
"yXyXyXyXyXyXyXyXyXyXyXyXyX8 u j w.w.f t yXyXyXyX",
"yXyXyXyXyXyXyXyXyXyXyXyX3 r i.|.'.[.{.r.e 7 yXyX",
"yXyXyXyXyXyXyXyXyXyXyX0 6 d.4XqXW.XXqX1Xi.4 yXyX",
"yXyXyXyXyXyXyXm.E.$XXXq h  X,X1XZ.J.<X1X>Xp @ yX",
"yXyXyXyXyX;.$X7XeXtX`.5 s.j.g.k.B.J.<X,X>Xy.+ yX",
"yXyXyXyX&.=X9X5X-X5Xc.$ a.|. Xh./ f.tX4X|.r.# yX",
"yXyXyXV b.-XOXOX.X2X).$ l.qXtXoXN.>XtXwXwXp.O yX",
"yXyXyX&.V.G.F.G..X2X%X9 e.tX4XC.3XtXtXtXwXk X yX",
"yXyXU ~ n.M.M.V.OX6X9Xt.9 }.tX4XtXtXtXtX).% yXyX",
"yXyXM x $.b.v.m.=X-X$X@Xs d }.tX1XqXwX_.i o yXyX",
"yXyXM x Q =.-.U.8X9X8X8X].g i u.z.x.y.w yXyXyXyX",
"yXyXQ N V ..*./.rX0X0X0X=XH.H 2 , , < = yXyXyXyX",
"yXyX7.*.T I ] 7.!.*X0X0X;X>.! K m Z J c yXyXyXyX",
"yXyXS.(.T.+.E [ @.q.6X0XR.{ E P B C L yXyXyXyXyX",
"yXyX3.(.^.+.' @.2.q.:X9XI.2.` E P A A yXyXyXyXyX",
"yXyXyXP.8.[ <.4.0.L.*X&XA.5.} _ W O.R yXyXyXyXyX",
"yXyXyXX.1.2.3.0.L.I.~.I.q.5.<.| #.] yXyXyXyXyXyX",
"yXyXyXyX .0.D.L.!.#X&X^.P.q.6.6.+.b yXyXyXyXyXyX",
"yXyXyXyXyX) A.~.&X;X:X*X(.!.K.o.v yXyXyXyXyXyXyX",
"yXyXyXyXyX* S :.Y.+X*XQ.R.,.( ; . yXyXyXyXyXyXyX",
"yXyXyXyXyXyX. * > D G F 1 - .   yXyXyXyXyXyXyXyX",
"yXyXyXyXyXyXyXyXyXyXyXyXyXyXyXyXyXyXyXyXyXyXyXyX",
"yXyXyXyXyXyXyXyXyXyXyXyXyXyXyXyXyXyXyXyXyXyXyXyX"
};
