/* XPM */
static char *uranian_xpm[] = {
/* columns rows colors chars-per-pixel */
"24 24 256 2 ",
"   c #040404",
".  c #0C0C0C",
"X  c #161616",
"o  c #212123",
"O  c #222222",
"+  c #282828",
"@  c #2A2A2A",
"#  c #313131",
"$  c #343434",
"%  c #3D3D3D",
"&  c #404247",
"*  c #51535A",
"=  c #565759",
"-  c #5B5C5E",
";  c #5C5C5C",
":  c #5D5D5D",
">  c #5C5D5E",
",  c #5E5E5E",
"<  c #656565",
"1  c #656668",
"2  c #6F727B",
"3  c #717377",
"4  c #777777",
"5  c #777778",
"6  c #797979",
"7  c #7A7A7B",
"8  c #7A7B7C",
"9  c #7F7F7F",
"0  c #7A7D83",
"q  c #7E8084",
"w  c #7D808A",
"e  c #868686",
"r  c #888889",
"t  c #89898A",
"y  c #8B8B8B",
"u  c #8B8B8D",
"i  c #8B8C8C",
"p  c #8D8D8D",
"a  c #8F8F8F",
"s  c #838791",
"d  c #8D8E91",
"f  c #8A8E9A",
"g  c #949494",
"h  c #97979A",
"j  c #97989A",
"k  c #9A9A9A",
"l  c #9A9A9B",
"z  c #9C9C9D",
"x  c #9397A3",
"c  c #9EA2AF",
"v  c #A3A3A4",
"b  c #A7A7A7",
"n  c #A2A3A9",
"m  c #A3A4A8",
"M  c #AAAAAA",
"N  c #A7AAB3",
"B  c #AFB0B6",
"V  c #B0B0B2",
"C  c #B3B3B3",
"Z  c #B6B6B6",
"A  c #B7B7B7",
"S  c #B2B4B9",
"D  c #B2B5BF",
"F  c #B7B9BE",
"G  c #BABABF",
"H  c #BFBFBF",
"J  c #F9B6B7",
"K  c #F0B9BB",
"L  c #BBBCC0",
"P  c #BCBDC2",
"I  c #BBBEC7",
"U  c #BEBFC4",
"Y  c #BABEC8",
"T  c #BBBEC9",
"R  c #BCBFC9",
"E  c #C0BCC0",
"W  c #BFC1C5",
"Q  c #BDC0CB",
"!  c #BEC1CB",
"~  c #C1C2C5",
"^  c #C2C3C5",
"/  c #C0C1C6",
"(  c #C5C2C7",
")  c #C4C4C4",
"_  c #C5C5C5",
"`  c #CBC3C6",
"'  c #C5C6CB",
"]  c #C0C2CC",
"[  c #C0C3CC",
"{  c #C0C3CD",
"}  c #C0C4CD",
"|  c #C1C4CD",
" . c #C1C4CE",
".. c #C2C5CE",
"X. c #C3C5CE",
"o. c #C3C6CE",
"O. c #C6C6CC",
"+. c #C6C7CC",
"@. c #C4C7CF",
"#. c #C7C8CD",
"$. c #C9C9C8",
"%. c #C8C9CD",
"&. c #CCCCCC",
"*. c #D6C6C6",
"=. c #DDC7C6",
"-. c #C4C7D0",
";. c #C7CAD3",
":. c #CDCBD0",
">. c #CBCCD0",
",. c #CCCDD2",
"<. c #CCCED3",
"1. c #CDCED3",
"2. c #C9CCD7",
"3. c #CACEDC",
"4. c #CFD0D3",
"5. c #CDD0DC",
"6. c #D1D1D1",
"7. c #D2D2D2",
"8. c #D1D1D6",
"9. c #D7D7D7",
"0. c #DBD4D4",
"q. c #D4D6DD",
"w. c #D5D6DD",
"e. c #D5D7DD",
"r. c #D5D7DF",
"t. c #D7D9DE",
"y. c #D8D8D8",
"u. c #DBD8D8",
"i. c #DBDBDB",
"p. c #D9D9DC",
"a. c #DCDCDC",
"s. c #DFDCDC",
"d. c #DFDFDF",
"f. c #E0CECE",
"g. c #E4CFCD",
"h. c #E8D0CE",
"j. c #E3D1D1",
"k. c #E2D8D8",
"l. c #E4DAD8",
"z. c #E7DEDC",
"x. c #CED3E1",
"c. c #D2D5E1",
"v. c #D1D5E2",
"b. c #D6D9E2",
"n. c #D6D9E3",
"m. c #D3D8E5",
"M. c #D8DAE0",
"N. c #D8DAE1",
"B. c #D9DAE1",
"V. c #D9DBE1",
"C. c #DADCE4",
"Z. c #DCDFE5",
"A. c #D9DDEA",
"S. c #D9DEEA",
"D. c #DFE0E5",
"F. c #DFE1E5",
"G. c #DFE1E6",
"H. c #DFE1E7",
"J. c #DFE1E8",
"K. c #DEE1E9",
"L. c #DDE0EA",
"P. c #DFE2EC",
"I. c #DEE2ED",
"U. c #E0E0E0",
"Y. c #E2E2E2",
"T. c #E3E3E3",
"R. c #E1E1E4",
"E. c #E0E1E6",
"W. c #E0E2E7",
"Q. c #E4E4E4",
"!. c #E5E5E5",
"~. c #E6E6E6",
"^. c #E7E6E6",
"/. c #E6E7E7",
"(. c #E7E7E7",
"). c #ECE1E1",
"_. c #EBE6E6",
"`. c #E1E2E8",
"'. c #E1E3E8",
"]. c #E1E3EB",
"[. c #E3E5EA",
"{. c #E4E5EA",
"}. c #E4E6EB",
"|. c #E5E7EB",
" X c #E0E3EE",
".X c #E2E5EC",
"XX c #E2E5EF",
"oX c #E3E6EE",
"OX c #E3E6EF",
"+X c #E5E7EC",
"@X c #E5E7ED",
"#X c #E6E8ED",
"$X c #E7E9EE",
"%X c #E8E8E8",
"&X c #E9E9E9",
"*X c #EAE9E9",
"=X c #EAEAEA",
"-X c #EBEBEB",
";X c #ECEAEA",
":X c #EEEBEB",
">X c #E8E9ED",
",X c #EAEBEE",
"<X c #EBEDEF",
"1X c #EDECEC",
"2X c #EDEDED",
"3X c #EEEEEE",
"4X c #EFEFEF",
"5X c #F5E7E8",
"6X c #F3EEEE",
"7X c #E4E7F0",
"8X c #E6E8F0",
"9X c #E7EAF1",
"0X c #E7E9F2",
"qX c #E8EAF0",
"wX c #E9EBF1",
"eX c #EBEDF0",
"rX c #E9ECF3",
"tX c #EBEDF2",
"yX c #ECEDF0",
"uX c #EDEEF0",
"iX c #EDEEF1",
"pX c #EDEFF2",
"aX c #ECEEF3",
"sX c #EEEFF2",
"dX c #EDEFF5",
"fX c #EEF0F2",
"gX c #EFF0F3",
"hX c #EFF0F5",
"jX c #EFF1F8",
"kX c #F0F0F0",
"lX c #F1F0F1",
"zX c #F1F1F1",
"xX c #F2F2F2",
"cX c #F3F3F3",
"vX c #F1F2F4",
"bX c #F1F2F5",
"nX c #F0F2F6",
"mX c #F1F2F6",
"MX c #F5F5F5",
"NX c #F4F5F7",
"BX c #F6F6F6",
"VX c #F7F7F7",
"CX c #F1F3F9",
"ZX c #F5F5F8",
"AX c #F6F7FB",
"SX c #F8F8F8",
"DX c #F8F8F9",
"FX c #F9F9F9",
"GX c #F8F9FB",
"HX c #FAFAFA",
"JX c #FBFBFB",
"KX c #F8F9FD",
"LX c #FCFCFC",
"PX c #FDFDFD",
"IX c #FEFEFE",
"UX c None",
/* pixels */
"UXUXUXUXUXUXUXUXUXUXUXUXUXUXUXUXUXUXUXUXUXUXUXUX",
"UXUXUXUXUXUXUXUXUXUXUXUXUXUXUXUXUXUXUXUXUXUXUXUX",
"UXUXUXUXUXUXUXUXUXUXUXUXUXUXUXUXUXUXUXUXUXUXUXUX",
"UXUXUXUXUXUXUXUXUXUXUXUXUXUXUXUXUXUXUXUXUXUXUXUX",
"UXUXUXL L P ' O.O.' O.O.O.' O.O.O.O.O.O./ B UXUX",
"UXUXF W P / ,.1.1.1.1.,.1.1.1.1.,.1.1.1.O.F UXUX",
"UXUXD Q ....T [ -...T ......R ..;...T ..;.I UXUX",
"UXUXQ H.yXvXe.[.gXyXB.{.vX,XM.`.yXyXe.{.zXW.UXUX",
"UXUXQ W.tXzXe.[.gX<XB.[.p.C h h z v S W.zXW.UXUX",
"UXUXE =.g.l.:.B.W.H.;.n i C 6.i.i._ k d #.e.UXUX",
"UXUX` K J 5Xs.$XvXyXm r 6.DXLXzXDXLX,XM i 1.UXUX",
"UXUX( f.h.z.8.Z.@X/ 6 &.LXLXLXBXJXLXDX/.g 0 UXUX",
"UXUX2.{.hXvXC.$X,Xr k VXLXDXJXDXDXBX=XzXi.1 UXUX",
"UXUX5.qXvXZXK.tXY.< H DXVX3XzXDXkXY.1X6X=X6 UXUX",
"UXUX3.K.@X8Xn.].#.> &.3XzXzX/.i.*.j.).(./.p + UX",
"UXUXc.qXvXZX.XyX8.> _ i.Y.=X=X0.k.;X=Xz.y.p + UX",
"UXUXv.XXqXtXI.7Xt.> Z =X(.(.(.(.(.(.(.(.Y.4 UXUX",
"UXUXn.8XjXhXI.qX$X8 r /.(.(.(./.(.(.(.(.$.; UXUX",
"UXUXS.jXAXKX8XCXKX/ , Z =X/./.Y./.(.=Xa.9 3 UXUX",
"UXUXv.I.XXXXS..X8Xn.0 > C Y./.i.Y.(.6.e = N UXUX",
"UXUXUXUXc x f s w 2 * o % 6 b A C g > + & UXUXUX",
"UXUXUXUXUXUXUXUXUXUXUXUX  X @ $ # O . UXUXUXUXUX",
"UXUXUXUXUXUXUXUXUXUXUXUXUXUXUXUXUXUXUXUXUXUXUXUX",
"UXUXUXUXUXUXUXUXUXUXUXUXUXUXUXUXUXUXUXUXUXUXUXUX"
};
