/* XPM */
static char *uranian_xpm[] = {
/* columns rows colors chars-per-pixel */
"32 32 104 2 ",
"   c black",
".  c #0B0B0B",
"X  c #0F1010",
"o  c #1B1B1B",
"O  c #232323",
"+  c #2D2D2D",
"@  c #2E2F33",
"#  c #333333",
"$  c #36373C",
"%  c #3B3C3D",
"&  c #414244",
"*  c #4A4B4D",
"=  c #4B4C52",
"-  c #4F5158",
";  c #525353",
":  c #54565C",
">  c #5B5B5B",
",  c #5F6269",
"<  c #646566",
"1  c #656668",
"2  c gray43",
"3  c #696C75",
"4  c #727273",
"5  c #797979",
"6  c #848586",
"7  c #878788",
"8  c #8A8A8A",
"9  c #8E8E90",
"0  c #94969F",
"q  c #9F9F9F",
"w  c #9599A6",
"e  c #9B9DA2",
"r  c #9B9EAC",
"t  c #9DA1AF",
"y  c #A3A3A3",
"u  c #A3A4AC",
"i  c #AAAAAA",
"p  c #A2A5B3",
"a  c #ACADB2",
"s  c #A6ABB9",
"d  c #A9ADBB",
"f  c #AFB2BF",
"g  c #B3B3B3",
"h  c #B3B5BC",
"j  c #BCBCBC",
"k  c #C3BBBD",
"l  c #D5B7B7",
"z  c #D5BDBD",
"x  c #FBA2A3",
"c  c #F9ACAD",
"v  c #F2B5B8",
"b  c #FABBBC",
"n  c #AEB3C0",
"m  c #B1B5C1",
"M  c #B3B9C7",
"N  c #BDBEC2",
"B  c #B5BACA",
"V  c #B9BECD",
"C  c #BEC0C3",
"Z  c #BAC0CF",
"A  c #BEC4D4",
"S  c #C7C4C7",
"D  c #C3C5CB",
"F  c #CACACC",
"G  c #D2CCCA",
"H  c #DACECC",
"J  c #DBD1CE",
"K  c #C0C4D0",
"L  c #C6C9D3",
"P  c #CDCFD3",
"I  c #C6CCDC",
"U  c #CACFDE",
"Y  c #CDD1DC",
"T  c #D3D3D3",
"R  c #DCD5D2",
"E  c #D4D5DA",
"W  c #D6D8DA",
"Q  c #DCDCDC",
"!  c #E7CECE",
"~  c #EEC8CB",
"^  c #F6CED0",
"/  c #E6D2D2",
"(  c #E2DBD6",
")  c #E9DDDD",
"_  c #CED4E4",
"`  c #D1D5E4",
"'  c #D6D9E2",
"]  c #DBDDE3",
"[  c #DADEE9",
"{  c #DEE0E6",
"}  c #DEE1EB",
"|  c #E6E6E6",
" . c #EEE5E5",
".. c #E2E4EA",
"X. c #E7E8ED",
"o. c #EAEBEC",
"O. c #ECEDF2",
"+. c #EFF0F6",
"@. c #F3F3F4",
"#. c #F4F5F9",
"$. c #F8F7F9",
"%. c #F7F8FA",
"&. c #FBFBFB",
"*. c None",
/* pixels */
"*.*.*.*.*.*.*.*.*.*.*.*.*.*.*.*.*.*.*.*.*.*.*.*.*.*.*.*.*.*.*.*.",
"*.*.*.*.*.*.*.*.*.*.*.*.*.*.*.*.*.*.*.*.*.*.*.*.*.*.*.*.*.*.*.*.",
"*.*.*.*.*.*.*.*.*.*.*.*.*.*.*.*.*.*.*.*.*.*.*.*.*.*.*.*.*.*.*.*.",
"*.*.*.*.*.*.*.*.*.*.*.*.*.*.*.*.*.*.*.*.*.*.*.*.*.*.*.*.*.*.*.*.",
"*.*.*.*.*.*.*.*.*.*.*.*.*.*.*.*.*.*.*.*.*.*.*.*.*.*.*.*.*.*.*.*.",
"*.*.*.*.*.*.*.*.*.*.*.*.*.*.*.*.*.*.*.*.*.*.*.*.*.*.*.*.*.*.*.*.",
"*.*.*.h F D F F W R W E E E E E E E E E E E E W E E E P N 0 *.*.",
"*.*.e D C N N N P P P P P P P P P P P P P P P P P P P D N g *.*.",
"*.*.e m m m m f m f h m m m n m m m f f m m m h f h h m m p *.*.",
"*.*.w K ] X.+.#.L { X.O.#.T ] ..O.@.] E ..o.@.o.P ..o.@.@.p *.*.",
"*.*.r L { o.@.$.E ..o.+.$.] { X.O.$...' { X.@.@.Y ..o.+.&.s *.*.",
"*.*.t L ..o.@.&.P ..o.@.$.E { X.O.g 6 2 4 4 5 7 e ..O.@.$.d *.*.",
"*.*.t N G J R J N Y E ] ] K Y a 1 8 g T ) Q W g 7 < a Q W d *.*.",
"*.*.p G v x ^ $.J ..o.+.&.] y 1 i | &.&.@.$.&.&.| i < a &.f *.*.",
"*.*.s G ~ c b &.R ..O.@.$.h > i &.&.&.&.o.@.&.&.&.$.i : D m *.*.",
"*.*.d S H R ( ( D ` ' { { ; 8 @.&.&.&.&.$.&.&.&.&.@.| 8 ; d *.*.",
"*.*.d Y X.O.#.%.` X.O.@.q ; T &.&.&.&.&.&.&.&.&.| | &.R ; 2 *.*.",
"*.*.f ` X.O.@.&.{ o.O.#.> 4 &.&.&.o.#.&.&.%.&.Q Q &.&.$.2 & *.*.",
"*.*.n ` O.O.#.%.W X.@.O.# q @.@.%.%.| | %.%.R Q &. .) @.q + *.*.",
"*.*.M _ ' } } X._ ' { F + g o.o.o.@.@.) R k l ! /  .o.o.g + *.*.",
"*.*.B ' O.+.+.%.{ X.+.W @ g W T Q o.o.@.R z @.@.O.| G T g + *.*.",
"*.*.V } +.+.%.%.} O.+.O.+ q | | | | | | o.| o.| | | | o.q + *.*.",
"*.*.Z _ [ } ..} _ [ } X.* 2 | | | | |  .| | | | | o.| | 2 % *.*.",
"*.*.Z } +.+.%.%.} +.+.#.9 & G | | o.| | | | | | | | | F & 3 *.*.",
"*.*.A } #.#.#.%.X.+.#.%.X.% 4 { | | o. .| | | | | | | 4 % Z *.*.",
"*.*.A } +.#.%.&.} +.#.%.&.e $ 8 | | | | W Q o.| | | 8 # y I *.*.",
"*.*.*.I _ ` _ _ _ _ ` ` U Z , # 5 G | | W Q o.| T 4 # , M f *.*.",
"*.*.*.*.*.*.*.*.*.: - = & $ @ X O & 5 i j j i 5 & O X & *.*.*.*.",
"*.*.*.*.*.*.*.*.*.*.*.*.*.*.*.*.  . o O + + O o . *.*.*.*.*.*.*.",
"*.*.*.*.*.*.*.*.*.*.*.*.*.*.*.*.*.*.*.*.*.*.*.*.*.*.*.*.*.*.*.*.",
"*.*.*.*.*.*.*.*.*.*.*.*.*.*.*.*.*.*.*.*.*.*.*.*.*.*.*.*.*.*.*.*.",
"*.*.*.*.*.*.*.*.*.*.*.*.*.*.*.*.*.*.*.*.*.*.*.*.*.*.*.*.*.*.*.*."
};
