/* XPM */
static char *varga_xpm[] = {
/* columns rows colors chars-per-pixel */
"32 32 184 2 ",
"   c #222222",
".  c #333334",
"X  c #3B3B3B",
"o  c #3E454A",
"O  c #454545",
"+  c #4D4D4E",
"@  c #4F5759",
"#  c #535353",
"$  c #54555A",
"%  c #5A5A5A",
"&  c #505362",
"*  c #565A6F",
"=  c #585B72",
"-  c #536E79",
";  c #4F717C",
":  c gray39",
">  c gray42",
",  c #676977",
"<  c #686D71",
"1  c #6C6E7C",
"2  c #747474",
"3  c #70717F",
"4  c gray49",
"5  c #1D638D",
"6  c #3C7A9F",
"7  c #156CA3",
"8  c #156FA8",
"9  c #147FBE",
"0  c #2A7DAB",
"q  c #387EA5",
"w  c #426E94",
"e  c #4A6E90",
"r  c #527494",
"t  c #567A96",
"y  c #7F7F82",
"u  c #657991",
"i  c #3582AD",
"p  c #2880B4",
"a  c #2188BF",
"s  c #388FBD",
"d  c #3392BE",
"f  c #5E839F",
"g  c #6E8C97",
"h  c #618E9F",
"j  c #7E8696",
"k  c #7D819A",
"l  c #6F909D",
"z  c #7D9097",
"x  c #5687A9",
"c  c #4790B3",
"v  c #4796BD",
"b  c #4B95BB",
"n  c #4C99B9",
"m  c #5297B5",
"M  c #5699B6",
"N  c #5E9ABA",
"B  c #658DA2",
"V  c #6889A6",
"C  c #678FAB",
"Z  c #7593A2",
"A  c #7990AA",
"S  c #649EBD",
"D  c #7597B5",
"F  c #5FA0B9",
"G  c #65A3BE",
"H  c #198BC6",
"J  c #1C89CC",
"K  c #0E8BDC",
"L  c #2590CF",
"P  c #2A97CF",
"I  c #2B98D2",
"U  c #339EDA",
"Y  c #26A0DF",
"T  c #3AA2DE",
"R  c #3FAEDE",
"E  c #0C8DE3",
"W  c #0795E3",
"Q  c #0E92E3",
"!  c #05A2F3",
"~  c #08A3F6",
"^  c #17AAF4",
"/  c #1AAAF5",
"(  c #15B2FD",
")  c #3CB4E8",
"_  c #26B2F4",
"`  c #2AB7FE",
"'  c #24BAFF",
"]  c #5CA4CE",
"[  c #51AED4",
"{  c #4DB3DC",
"}  c #61A5CB",
"|  c #63ADC9",
" . c #76ACC7",
".. c #76B6D7",
"X. c #77BFDD",
"o. c #53B6E1",
"O. c #5DBDE6",
"+. c #59D1FF",
"@. c #69D0F6",
"#. c #77D2F4",
"$. c #7ED5F6",
"%. c #74DBFF",
"&. c #838484",
"*. c #868788",
"=. c #888889",
"-. c #808392",
";. c #8F919E",
":. c #939494",
">. c #939C9F",
",. c #8186A1",
"<. c #8589A3",
"1. c #8A8EA5",
"2. c #869AA1",
"3. c #8595AD",
"4. c #9195AC",
"5. c #9599AF",
"6. c #979AB1",
"7. c #999DB2",
"8. c #89A1AA",
"9. c #9EA3A5",
"0. c #9EA2B6",
"q. c #9FB5BD",
"w. c #A4A6AC",
"e. c #ABABAC",
"r. c #A2A5B7",
"t. c #A2A6B9",
"y. c #A6AABD",
"u. c #B4B4B4",
"i. c #BBBCBC",
"p. c #84ADC5",
"a. c #8CBFD2",
"s. c #ACB1C3",
"d. c #B3B5C6",
"f. c #B5B7C8",
"g. c #B5B9C9",
"h. c #B9BCCB",
"j. c #8DC4D9",
"k. c #9AC0D2",
"l. c #9BC7DC",
"z. c #9AC8D8",
"x. c #BEC1CF",
"c. c #BEC1D0",
"v. c #87CBE4",
"b. c #82DEFE",
"n. c #ADD2E3",
"m. c #B9DBE6",
"M. c #B1D6E8",
"N. c #A5DDF2",
"B. c #93E3FF",
"V. c #99E5FF",
"C. c #A6E7FF",
"Z. c #ACEAFF",
"A. c #B3E6F9",
"S. c #B7EBFF",
"D. c #BBEDFF",
"F. c #C3C3C3",
"G. c #C6C9CA",
"H. c gray79",
"J. c #C2C4D1",
"K. c #C5C8D5",
"L. c #CACDD8",
"P. c #CFD6D7",
"I. c #C3D1DC",
"U. c #CFD2DD",
"Y. c #C8E2ED",
"T. c #DAE8ED",
"R. c #CAE5F1",
"E. c #C8E8F0",
"W. c #C0EEFF",
"Q. c #DAEFF7",
"!. c #C5F1FE",
"~. c #CAF0FE",
"^. c #D4F2FC",
"/. c #DBF5FD",
"(. c gray89",
"). c #E9EDEE",
"_. c #E7EEF0",
"`. c #E0F7FE",
"'. c #EBF6F9",
"]. c #E5F8FE",
"[. c #EDFAFD",
"{. c #F2FBFD",
"}. c #FCFCFC",
"|. c None",
/* pixels */
"|.|.|.|.|.|.|.|.|.|.|.|.|.|.|.|.|.|.|.|.|.|.|.|.|.|.|.|.|.|.|.|.",
"|.|.|.|.|.|.|.|.|.|.|.|.|.|.|.|.|.|.|.|.|.|.|.|.|.|.|.|.|.|.|.|.",
"|.|.|.|.|.|.|.|.|.|.|.|.|.|.|.|.|.|.|.|.|.|.|.|.|.|.|.|.|.|.|.|.",
"|.|.|.|.|.|.|.|.|.|.|.|.|.|.|.|.|.|.|.|.|.|.|.|.|.|.|.|.|.|.|.|.",
"|.|.|.|.|.|.|.|.|.|.|.|.|.|.|.|.|.|.|.|.|.|.|.|.|.|.|.|.|.|.|.|.",
"|.|.|.|.|.|.|.|.|.|.M m m m |.|.|.|.|.|.|.|.|.|.|.|.|.|.|.|.|.|.",
"|.|.|.|.|.|.|.|.N  .l.n.M.v.[ n q t.7.|.|.|.|.|.|.|.|.|.|.|.|.|.",
"|.|.|.|.|.|.|.G ..T E Q Q K U R q x g.y.|.|.|.|.|.|.|.|.|.|.|.|.",
"|.|.|.|.|.|.F ] 8 9 H ^ / L P d Y 0 p.U.r.|.|.|.|.|.|.|.|.|.|.|.",
"|.|.|.|.|.|.v Q X O + { { > 2 4 ) I i I.U.t.|.|.|.|.|.|.|.|.|.|.",
"|.|.|.|.|.S J ~ O ; | #.$.j.2.*.b.O.q A t.<.|.|.|.|.|.|.|.|.|.|.",
"|.|.|.|.|.v W ( @ h b.V.C.S.q.:.!.N.M r 7.,.|.|.|.|.|.|.|.|.|.|.",
"|.|.|.|.|.s ! ' +.%.B.Z.D.~.^./.`.^.] w g.7.= |.|.|.|.|.|.|.|.|.",
"|.|.|.|.|.s ~ ` G j.D./.{.}.(.P.[.Q.S e c.t.= |.|.|.|.|.|.|.|.|.",
"|.|.|.|.|.0 ! ` > 8.W.`.{.}.H.e.{.E.l u x.t.= |.|.|.|.|.|.|.|.|.",
"|.|.|.|.|.5 Q ` 2 *.>.T._.u.u.i.'.z.- j c.t.= |.|.|.|.|.|.|.|.|.",
"|.|.|.|.|.|.7 _ z >.9.T._.i.F.G.m.g # ;.h.t.= |.|.|.|.|.|.|.|.|.",
"|.|.|.|.|.|.|.a @.D.^.].{.{.[.Y.Z < :.&.w.7.= |.|.|.|.|.|.|.|.|.",
"|.|.|.|.|.|.|.|.c X.A.^.Q.E.k.B o # &.e.&.j * |.|.|.|.|.|.|.|.|.",
"|.|.|.|.|.|.|.|.3.D C V f f t u 1 X # &.u.y $ |.|.|.|.|.|.|.|.|.",
"|.|.|.|.|.|.|.|.f.h.s.y.t.t.t.t.r.1 X + =.e.y |.|.|.|.|.|.|.|.|.",
"|.|.|.|.|.|.|.|.K.U.L.K.J.c.c.x.d.r., X # =.e.&.|.|.|.|.|.|.|.|.",
"|.|.|.|.|.|.|.|.c.h.d.s.y.0.7.5.4.1.k & X $ =.e.y |.|.|.|.|.|.|.",
"|.|.|.|.|.|.|.|.|.|.|.|.|.|.|.|.|.|.|.|.  X # =.e.: |.|.|.|.|.|.",
"|.|.|.|.|.|.|.|.|.|.|.|.|.|.|.|.|.|.|.|.|.  X # 2 % |.|.|.|.|.|.",
"|.|.|.|.|.|.|.|.|.|.|.|.|.|.|.|.|.|.|.|.|.|.  . + |.|.|.|.|.|.|.",
"|.|.|.|.|.|.|.|.|.|.|.|.|.|.|.|.|.|.|.|.|.|.|.|.|.|.|.|.|.|.|.|.",
"|.|.|.|.|.|.|.|.|.|.|.|.|.|.|.|.|.|.|.|.|.|.|.|.|.|.|.|.|.|.|.|.",
"|.|.|.|.|.|.|.|.|.|.|.|.|.|.|.|.|.|.|.|.|.|.|.|.|.|.|.|.|.|.|.|.",
"|.|.|.|.|.|.|.|.|.|.|.|.|.|.|.|.|.|.|.|.|.|.|.|.|.|.|.|.|.|.|.|.",
"|.|.|.|.|.|.|.|.|.|.|.|.|.|.|.|.|.|.|.|.|.|.|.|.|.|.|.|.|.|.|.|.",
"|.|.|.|.|.|.|.|.|.|.|.|.|.|.|.|.|.|.|.|.|.|.|.|.|.|.|.|.|.|.|.|."
};
