/* XPM */
static char *varga_xpm[] = {
/* columns rows colors chars-per-pixel */
"24 24 165 2 ",
"   c #252526",
".  c #2E2E2E",
"X  c #323233",
"o  c #3D4E56",
"O  c #4B4B4C",
"+  c #4D4D4F",
"@  c #4F4F4F",
"#  c #4F4F50",
"$  c #494C5C",
"%  c #504F50",
"&  c #50525D",
"*  c #5A5D67",
"=  c #516B75",
"-  c #5D6D76",
";  c #4C707F",
":  c #676767",
">  c #60616B",
",  c #606377",
"<  c #65687C",
"1  c #686C7F",
"2  c #6A787D",
"3  c #737373",
"4  c #747576",
"5  c #74767C",
"6  c #787878",
"7  c #246D93",
"8  c #296F99",
"9  c #2374A2",
"0  c #6C7184",
"q  c #727F85",
"w  c #73788A",
"e  c #7C7F92",
"r  c #787C95",
"t  c #3887B4",
"y  c #7D888C",
"u  c #63819C",
"i  c #688299",
"p  c #758392",
"a  c #7E8192",
"s  c #7C8D94",
"d  c #5381A4",
"f  c #5B81A1",
"g  c #4087B0",
"h  c #4291B6",
"j  c #499ABD",
"k  c #5195BE",
"l  c #6C96A9",
"z  c #7597AF",
"x  c #7596B1",
"c  c #7EA0AC",
"v  c #7AA6B7",
"b  c #1482C2",
"n  c #188FD1",
"m  c #1B95D6",
"M  c #1F99D9",
"N  c #2C95CE",
"B  c #3E96C3",
"V  c #299AD3",
"C  c #2C98D0",
"Z  c #219CDA",
"A  c #279FDF",
"S  c #3CA3D2",
"D  c #34A1DD",
"F  c #3CA0DD",
"G  c #139FE6",
"H  c #1DB4FB",
"J  c #27A7EB",
"K  c #39A4E6",
"L  c #39A5E6",
"P  c #22AEF4",
"I  c #4395C2",
"U  c #4899C6",
"Y  c #5EA8D0",
"T  c #68A6C1",
"R  c #7CA6C1",
"E  c #63B0CF",
"W  c #6CB1C9",
"Q  c #7DB2CB",
"!  c #60B2D2",
"~  c #65B6D8",
"^  c #6DBAD9",
"/  c #73B4D2",
"(  c #5BBBE4",
")  c #5EC1E7",
"_  c #828282",
"`  c #838384",
"'  c #84858C",
"]  c #8F8F8F",
"[  c #83879D",
"{  c #84879C",
"}  c #888B9A",
"|  c #969696",
" . c #969697",
".. c #93959E",
"X. c #99999B",
"o. c #888CA0",
"O. c #898DA1",
"+. c #8A8DA1",
"@. c #8B8EA4",
"#. c #929FA3",
"$. c #9095AD",
"%. c #9A9CAE",
"&. c #9BA7AB",
"*. c #84A2B9",
"=. c #86A5BC",
"-. c #88A0B9",
";. c #88A7BF",
":. c #A0A3B8",
">. c #A2AABC",
",. c #A3AABE",
"<. c #A4AABD",
"1. c #A6ABBE",
"2. c #A8ACBE",
"3. c #A5B3B8",
"4. c #BBBBBB",
"5. c #9EBBC6",
"6. c #9CBAC8",
"7. c #8ABCD2",
"8. c #88BED5",
"9. c #A8AEC2",
"0. c #ACB0C0",
"q. c #AEB1C0",
"w. c #ADB1C2",
"e. c #AFB2C4",
"r. c #AEB3C4",
"t. c #B2B4C3",
"y. c #B2B6C5",
"u. c #B3B6C6",
"i. c #B3B9C9",
"p. c #B6BAC9",
"a. c #BABDCC",
"s. c #9DC2D1",
"d. c #A4CBD9",
"f. c #B3C4D3",
"g. c #99C9E0",
"h. c #8BDBF7",
"j. c #8DDFFB",
"k. c #A4D0E0",
"l. c #ADE1F3",
"z. c #AEE1F5",
"x. c #A1E4FC",
"c. c #B2ECFF",
"v. c #C1C1C1",
"b. c #C8CBCB",
"n. c #CCCECE",
"m. c #C1C4D1",
"M. c #C2C6D2",
"N. c #C9D2D5",
"B. c #CEDEE3",
"V. c #D3DFE4",
"C. c #D2E7ED",
"Z. c #D1E6EE",
"A. c #D5E9EF",
"S. c #D4EFF8",
"D. c #CCF1FF",
"F. c #D7F6FF",
"G. c #DFF5FB",
"H. c #DAF3FC",
"J. c #E3E7E8",
"K. c #E1E8EA",
"L. c #E9E9E9",
"P. c #E4F3F6",
"I. c #E3F4FA",
"U. c #F5FCFE",
"Y. c None",
/* pixels */
"Y.Y.Y.Y.Y.Y.Y.Y.Y.Y.Y.Y.Y.Y.Y.Y.Y.Y.Y.Y.Y.Y.Y.Y.",
"Y.Y.Y.Y.Y.Y.Y.Y.Y.Y.Y.Y.Y.Y.Y.Y.Y.Y.Y.Y.Y.Y.Y.Y.",
"Y.Y.Y.Y.Y.Y.Y.Y.Y.Y.Y.Y.Y.Y.Y.Y.Y.Y.Y.Y.Y.Y.Y.Y.",
"Y.Y.Y.Y.Y.Y.Y.Y.Y.Y.Y.Y.Y.Y.Y.Y.Y.Y.Y.Y.Y.Y.Y.Y.",
"Y.Y.Y.Y.Y.Y.Y.Q 7.8.E j Y.Y.Y.Y.Y.Y.Y.Y.Y.Y.Y.Y.",
"Y.Y.Y.Y.Y.T Y F L L D S g -.0.Y.Y.Y.Y.Y.Y.Y.Y.Y.",
"Y.Y.Y.Y.Y.U 8 9 Z A t h C k f.t.Y.Y.Y.Y.Y.Y.Y.Y.",
"Y.Y.Y.Y.I n o = ! ^ s y ( B =.e.@.Y.Y.Y.Y.Y.Y.Y.",
"Y.Y.Y.Y.N G ; W j.x.d.&.l./ f $.r Y.Y.Y.Y.Y.Y.Y.",
"Y.Y.Y.Y.M H ) h.c.D.S.A.G.g.d <.[ Y.Y.Y.Y.Y.Y.Y.",
"Y.Y.Y.Y.m P l k.F.U.L.b.P.s.u e.o.Y.Y.Y.Y.Y.Y.Y.",
"Y.Y.Y.Y.b J q #.B.J.v.4.C.c p y.o.Y.Y.Y.Y.Y.Y.Y.",
"Y.Y.Y.Y.Y.V v 3.V.K.n.N.5.2 ' 0.o.Y.Y.Y.Y.Y.Y.Y.",
"Y.Y.Y.Y.Y.7 ~ z.H.I.C.6.- 4  ...e Y.Y.Y.Y.Y.Y.Y.",
"Y.Y.Y.Y.Y.Y.x R ;.*.z i * % _ X.5 Y.Y.Y.Y.Y.Y.Y.",
"Y.Y.Y.Y.Y.Y.p.i.9.>.>.1.%.> + `  .3 Y.Y.Y.Y.Y.Y.",
"Y.Y.Y.Y.Y.Y.M.M.a.u.0.<.:.{ & # `  .6 Y.Y.Y.Y.Y.",
"Y.Y.Y.Y.Y.Y.Y.} a w 0 0 < , $ X # ` ] Y.Y.Y.Y.Y.",
"Y.Y.Y.Y.Y.Y.Y.Y.Y.Y.Y.Y.Y.Y.Y.Y.. O : Y.Y.Y.Y.Y.",
"Y.Y.Y.Y.Y.Y.Y.Y.Y.Y.Y.Y.Y.Y.Y.Y.Y.  Y.Y.Y.Y.Y.Y.",
"Y.Y.Y.Y.Y.Y.Y.Y.Y.Y.Y.Y.Y.Y.Y.Y.Y.Y.Y.Y.Y.Y.Y.Y.",
"Y.Y.Y.Y.Y.Y.Y.Y.Y.Y.Y.Y.Y.Y.Y.Y.Y.Y.Y.Y.Y.Y.Y.Y.",
"Y.Y.Y.Y.Y.Y.Y.Y.Y.Y.Y.Y.Y.Y.Y.Y.Y.Y.Y.Y.Y.Y.Y.Y.",
"Y.Y.Y.Y.Y.Y.Y.Y.Y.Y.Y.Y.Y.Y.Y.Y.Y.Y.Y.Y.Y.Y.Y.Y."
};
