/* XPM */
static char *wchart_xpm[] = {
/* columns rows colors chars-per-pixel */
"24 24 219 2 ",
"   c #2B3C35",
".  c #3C4A15",
"X  c #4C5A0F",
"o  c #576513",
"O  c #596712",
"+  c #5D6A15",
"@  c #56601F",
"#  c #5D6A1C",
"$  c #646D14",
"%  c #626E1B",
"&  c #65721D",
"*  c #707516",
"=  c #5D6A22",
"-  c #5E682D",
";  c #606C24",
":  c #646E2E",
">  c #667220",
",  c #6B7321",
"<  c #6D7825",
"1  c #707B28",
"2  c #626B36",
"3  c #6E7935",
"4  c #6A753D",
"5  c #7E7B3B",
"6  c #1D3345",
"7  c #1F3252",
"8  c #273B46",
"9  c #243948",
"0  c #2B3C57",
"q  c #23335D",
"w  c #233364",
"e  c #27356E",
"r  c #293868",
"t  c #364759",
"y  c #3E4D6D",
"u  c #384473",
"i  c #414E53",
"p  c #57624E",
"a  c #5A6448",
"s  c #677040",
"d  c #6C7542",
"f  c #6F7851",
"g  c #737A55",
"h  c #7D7F5B",
"j  c #445560",
"k  c #57616E",
"l  c #5F6878",
"z  c #6C7378",
"x  c #737B7F",
"c  c #817F19",
"v  c #7B8535",
"b  c #7A815E",
"n  c #7C8075",
"m  c #8E861F",
"M  c #92851D",
"N  c #818221",
"B  c #9A8A20",
"V  c #8D8231",
"C  c #808B3E",
"Z  c #978536",
"A  c #A28B24",
"S  c #A98F23",
"D  c #AF9023",
"F  c #BD9424",
"G  c #B79528",
"H  c #BE9236",
"J  c #C28D2A",
"K  c #C49225",
"L  c #C3922C",
"P  c #C8952C",
"I  c #C79235",
"U  c #CE9837",
"Y  c #84894B",
"T  c #978549",
"R  c #839041",
"E  c #8A954B",
"W  c #8D984B",
"Q  c #91944A",
"!  c #929F53",
"~  c #969D59",
"^  c #9A985B",
"/  c #AD8D4E",
"(  c #BE9755",
")  c #B79859",
"_  c #AAA84F",
"`  c #A1A258",
"'  c #A9A45C",
"]  c #BAAE55",
"[  c #BFA75F",
"{  c #B3A95E",
"}  c #BAA85F",
"|  c #ADB35E",
" . c #9F916E",
".. c #8B8E7B",
"X. c #B4AB60",
"o. c #AAB76B",
"O. c #B8AE71",
"+. c #B7AF7B",
"@. c #AFBD74",
"#. c #B0BD76",
"$. c #BBB874",
"%. c #B8BB7F",
"&. c #C39C4E",
"*. c #D09B40",
"=. c #CFA24E",
"-. c #D3B350",
";. c #C2A668",
":. c #C8A368",
">. c #D7AD63",
",. c #D3AB68",
"<. c #DAAD69",
"1. c #D3B667",
"2. c #DCB36A",
"3. c #CBAD7E",
"4. c #C1B373",
"5. c #D7B272",
"6. c #DBB373",
"7. c #D0B17B",
"8. c #D8BF7D",
"9. c #E1B97D",
"0. c #B6C377",
"q. c #B3C07A",
"w. c #BDC37E",
"e. c #D9C169",
"r. c #D9C27B",
"t. c #363E82",
"y. c #494F99",
"u. c #4B5197",
"i. c #646B82",
"p. c #616894",
"a. c #555AA6",
"s. c #6669A2",
"d. c #6063AA",
"f. c #7C8285",
"g. c #82888A",
"h. c #8C9094",
"j. c #C4AE8D",
"k. c #DBB480",
"l. c #D5BC83",
"z. c #D7BA92",
"x. c #E3B484",
"c. c #E2BC86",
"v. c #E8B68C",
"b. c #E2B790",
"n. c #EAB693",
"m. c #EABA97",
"M. c #E5BE9B",
"N. c #EBBC9C",
"B. c #ECBEA1",
"V. c #D1C583",
"C. c #DCC083",
"Z. c #CBD78F",
"A. c #D4D18C",
"S. c #CDC69E",
"D. c #DFC99A",
"F. c #C4D693",
"G. c #CAD794",
"H. c #CFDC91",
"J. c #DBD694",
"K. c #D3DD93",
"L. c #DAD891",
"P. c #E5C286",
"I. c #E1C880",
"U. c #E9CF95",
"Y. c #E2CC9D",
"T. c #E9C99D",
"R. c #E4D195",
"E. c #E8D096",
"W. c #E3D79B",
"Q. c #CFE39E",
"!. c #D6CDA0",
"~. c #CFD3A4",
"^. c #DDD0AE",
"/. c #DBCCB1",
"(. c #D2DDB6",
"). c #D1D6B8",
"_. c #E5C7A5",
"`. c #EDC1A5",
"'. c #E2CBA2",
"]. c #EEC4AB",
"[. c #EACEAC",
"{. c #E4D0A9",
"}. c #ECD0AF",
"|. c #EFC7B1",
" X c #EBCEB4",
".X c #F0CAB6",
"XX c #F1CFBD",
"oX c #EBD2B2",
"OX c #E5D3BB",
"+X c #EFD4BA",
"@X c #F1D0BE",
"#X c #DDE5A5",
"$X c #D2E7A9",
"%X c #D6E9A9",
"&X c #D9EAAB",
"*X c #DEE5B4",
"=X c #D6E9B2",
"-X c #D9ECB2",
";X c #E3E3BB",
":X c #E5D7C1",
">X c #EED7C1",
",X c #ECDAC3",
"<X c #ECDCCC",
"1X c #F3D5C5",
"2X c #F4D6C9",
"3X c #F4DACC",
"4X c #F3DED3",
"5X c #EBE1D5",
"6X c #ECE3DB",
"7X c #F3E0D4",
"8X c #F3E4DB",
"9X c #EEE7E3",
"0X c #EDE9E6",
"qX c #ECECEC",
"wX c #F3E7E1",
"eX c #F0E9E4",
"rX c #F3ECE9",
"tX c #EDEEF0",
"yX c None",
/* pixels */
"yXyXyXyXyXyXyXyXyXj.5.2.2.3.j.yXyXyXyXyXyXyXyXyX",
"yXyXyXyXyXyX:.z._.<XwX0X0X4X_.,.( ) yXyXyXyXyXyX",
"yXyXyXyXyX2._.5X4X,X>X+X[.[.5X6Xc.I P yXyXyXyXyX",
"yXyXyXyX1.oX<X}.>X8X0X0X6X}.9.}.9X6.L L yXyXyXyX",
"yXyXyX*.D.,XT.5XqXqXqXqXqXqX:X<.}.,XU J / yXyXyX",
"yXyX&.c.;XP.5XqXqXqXqXqXqXqXtX/.<.<X2.K H yXyXyX",
"yXyX=.*Xr.[.qXqXqXqXqXqXqXqXqX6X>.{.Y.F L  .yXyX",
"yXyXr.K.1.6XqXqXqXqXqXqXqXqXqX6X5.C.^.D G T yXyX",
"yX[ L.e.l.tXqXqXqXqXqXqXtXqX8X2X9.8./.B S Z yXyX",
"yX} K.-.Y.tXqXrX0X0X0X0X0X4XXX.X7.V.!.m B V yXyX",
"yXX.H.] ^.tXrXwX8X4X3X2X@X.X|.B.;.~.w.N m 5 yXyX",
"yX' H._ S.rXwX7X3X2X@X.X|.|.B.b.{ ).Q * N h yXyX",
"yX^ Z.| +.wX3X2X1X@X.X].`.B.N.:.%.~., $ , ..yXyX",
"yXY 0.F.` OX2X@X.X].].B.N.n.k.$.(.~ o + 2 yXyXyX",
"yXyXW $X#.O..X.X|.B.N.m.n.x.V.=X%.% O ; yXyXyXyX",
"yXyX3 o.=Xw.$.M.N.m.n.v.c.J.=X#.# X + g yXyXyXyX",
"yXyXd 1 @.=XG.A.R.U.E.W.#X$Xo.@   i a x yXyXyXyX",
"yXyXyX: > ! F.$X%X&X%XQ.q.R % . 0 a.s.i.h.yXyXyX",
"yXyXyXyX4 # & v E E R < + o o = p u y.d.p.l yXyX",
"yXyXyXyXyXd 4 = o o o O + # 4 g yXk r t.u.y j g.",
"yXyXyXyXyXyXyXf s - - 2 g b yXyXyXyXt q q e w z ",
"yXyXyXyXyXyXyXyXyXyXyXyXyXyXyXyXyXyXx 8 7 r 0 f.",
"yXyXyXyXyXyXyXyXyXyXyXyXyXyXyXyXyXyXyXyX6 9 i yX",
"yXyXyXyXyXyXyXyXyXyXyXyXyXyXyXyXyXyXyXyXyXyXyXyX"
};
