/* XPM */
static char *wchart_xpm[] = {
/* columns rows colors chars-per-pixel */
"32 32 256 2 ",
"   c #152916",
".  c #1C333D",
"X  c #1A3231",
"o  c #26373E",
"O  c #384115",
"+  c #414C0F",
"@  c #495210",
"#  c #4E5F13",
"$  c #515F12",
"%  c #536313",
"&  c #596613",
"*  c #5D6A15",
"=  c #5A661A",
"-  c #626D15",
";  c #6A6F16",
":  c #637216",
">  c #6C7416",
",  c #72781A",
"<  c #7A7B17",
"1  c #5A6623",
"2  c #5C6825",
"3  c #5C6635",
"4  c #5E6834",
"5  c #5E673B",
"6  c #636E26",
"7  c #797D22",
"8  c #777C22",
"9  c #1F3641",
"0  c #1F3843",
"q  c #1F324D",
"w  c #203644",
"e  c #24384E",
"r  c #223653",
"t  c #22335E",
"y  c #243369",
"u  c #273374",
"i  c #293577",
"p  c #303C7C",
"a  c #36464E",
"s  c #2E4058",
"d  c #384B50",
"f  c #3D4C75",
"g  c #404C4C",
"h  c #4C5558",
"j  c #646C4A",
"k  c #6A7249",
"l  c #767648",
"z  c #6C715F",
"x  c #6C7654",
"c  c #4A5772",
"v  c #576165",
"b  c #596164",
"n  c #707662",
"m  c #787E6A",
"M  c #7A7D67",
"N  c #686E72",
"B  c #777A7B",
"V  c #857F27",
"C  c #817D37",
"Z  c #7E8428",
"A  c #83821A",
"S  c #8E871B",
"D  c #93841C",
"F  c #9F8E1F",
"G  c #96891C",
"H  c #A18D1F",
"J  c #838029",
"K  c #84892D",
"L  c #8C8B3C",
"P  c #888734",
"I  c #988838",
"U  c #8A913F",
"Y  c #AF8C21",
"T  c #A08828",
"R  c #A88B28",
"E  c #AC9021",
"W  c #BC9424",
"Q  c #B99823",
"!  c #BF982F",
"~  c #B59123",
"^  c #A69F36",
"/  c #A79E3D",
"(  c #BE9536",
")  c #BD9339",
"_  c #BBA83D",
"`  c #C48526",
"'  c #C48C26",
"]  c #CE8E28",
"[  c #C49326",
"{  c #C59A26",
"}  c #C3932B",
"|  c #CC952B",
" . c #CA992C",
".. c #D6992E",
"X. c #D79733",
"o. c #D69934",
"O. c #D89238",
"+. c #D89D3A",
"@. c #D9AF3F",
"#. c #D8B438",
"$. c #918141",
"%. c #8B9143",
"&. c #919846",
"*. c #93994D",
"=. c #918359",
"-. c #AB9D4C",
";. c #B9984A",
":. c #AB9359",
">. c #BF9751",
",. c #B99D56",
"<. c #9DA452",
"1. c #A5A243",
"2. c #A1A754",
"3. c #B9A253",
"4. c #B5BB5F",
"5. c #9D8D67",
"6. c #888E7A",
"7. c #888B75",
"8. c #8F9175",
"9. c #8D907A",
"0. c #929074",
"q. c #A8AE64",
"w. c #B5A961",
"e. c #AEB76F",
"r. c #AEBB65",
"t. c #BCB060",
"y. c #B2BD69",
"u. c #BBBE72",
"i. c #C79F41",
"p. c #C89A58",
"a. c #DCA14D",
"s. c #D7A54A",
"d. c #C4B640",
"f. c #C6A25C",
"g. c #DDA855",
"h. c #D9BF59",
"j. c #CFAD65",
"k. c #DFAE61",
"l. c #C7B56D",
"z. c #D9B36B",
"x. c #D4AF7E",
"c. c #D8B976",
"v. c #E0AC62",
"b. c #E1B36B",
"n. c #E5BB7E",
"m. c #E3B479",
"M. c #BBC77A",
"N. c #B9C575",
"B. c #D7C44A",
"V. c #C5C57C",
"C. c #E2C670",
"Z. c #2C358C",
"A. c #383F84",
"S. c #384280",
"D. c #3F4987",
"F. c #4D5299",
"G. c #52559E",
"H. c #5B658C",
"J. c #6068A2",
"K. c #6060BC",
"L. c #6868BD",
"P. c #7072BA",
"I. c #7573C7",
"U. c #7F8081",
"Y. c #8A8B89",
"T. c #999686",
"R. c #949690",
"E. c #999B94",
"W. c #9C9D9D",
"Q. c #A79F85",
"!. c #ABA693",
"~. c #A6A6A6",
"^. c #A6A9A1",
"/. c #AEAEAE",
"(. c #B2ACA0",
"). c #B8B8AC",
"_. c #CDBB8F",
"`. c #C2B89C",
"'. c #DEBE90",
"]. c #E6B186",
"[. c #E6BB84",
"{. c #E7B58B",
"}. c #E8B88A",
"|. c #E9B08D",
" X c #E9B591",
".X c #EBBA96",
"XX c #EBBD9D",
"oX c #EAB49A",
"OX c #ECBEA2",
"+X c #DEC886",
"@X c #D5CA8F",
"#X c #C7D58C",
"$X c #D5C69F",
"%X c #D2DB9F",
"&X c #E6C186",
"*X c #E5C28D",
"=X c #E8C88A",
"-X c #E1C88D",
";X c #E1D187",
":X c #EAC395",
">X c #EBCE9D",
",X c #E6C69C",
"<X c #EBD497",
"1X c #D6E59C",
"2X c #DAE195",
"3X c #EBE79B",
"4X c #E1E496",
"5X c #DCD2A6",
"6X c #C1C0B9",
"7X c #EDC1A6",
"8X c #ECC9A2",
"9X c #EDC4AB",
"0X c #EECFAD",
"qX c #ECD4A6",
"wX c #EFC7B3",
"eX c #EFC9B3",
"rX c #F0C9B6",
"tX c #F1CCBA",
"yX c #EFD3B1",
"uX c #E5D5B3",
"iX c #F1D1BF",
"pX c #F0DEBE",
"aX c #D7E5A9",
"sX c #DBEDAB",
"dX c #D6EBA5",
"fX c #D6EFB5",
"gX c #DCEFB2",
"hX c #DFE8B8",
"jX c #D5F1BB",
"kX c #DAF1BA",
"lX c #E7EDA3",
"zX c #E9EFAF",
"xX c #ECE4A6",
"cX c #EAE7B8",
"vX c #E5EABB",
"bX c #E5F1BB",
"nX c #F2D3C3",
"mX c #F4D9CB",
"MX c #F3DAC5",
"NX c #F5DED1",
"BX c #CFF3C7",
"VX c #C7F3CE",
"CX c #DBF2C3",
"ZX c #DBF4C8",
"AX c #D6F2C2",
"SX c #DAF6DF",
"DX c #E9F3C8",
"FX c #F5E1D6",
"GX c #F6E5DC",
"HX c #F6E9DC",
"JX c #DCF6E4",
"KX c #ECECEC",
"LX c #F5E9E1",
"PX c #E6F2E9",
"IX c #E9E6F2",
"UX c None",
/* pixels */
"UXUXUXUXUXUXUXUXUXUXUXUX!.f.+.X.o.s.Q.6XUXUXUXUXUXUXUXUXUXUXUXUX",
"UXUXUXUXUXUXUXUXUX`.p.k.XXNXKXKXKXNXoXa.( :.(.UXUXUXUXUXUXUXUXUX",
"UXUXUXUXUXUXUXUX;.m.GXKXKXKXLXGXKXKXKXKX9XO.' ;.UXUXUXUXUXUXUXUX",
"UXUXUXUXUXUX$X+.nXKXKXmX0X0X0X8X:Xn.,XKXKXIXa.`  .UXUXUXUXUXUXUX",
"UXUXUXUXUX_.+.GXKXyX:XyXNXKXKXKXKXMXn.g.nXKXKXX.[ } UXUXUXUXUXUX",
"UXUXUXUXUX` pXKX8X[.KXKXKXKXKXKXKXKXKX'.+.mXKX8X[ ' ) UXUXUXUXUX",
"UXUXUXUX| >XJX=X[.KXKXKXKXKXKXKXKXKXKXKXx...GXKXX.[ ` 5.UXUXUXUX",
"UXUXUX,.m.JX<Xv.KXKXKXKXKXKXKXKXKXKXKXKXIXp.b.KXn.{ [  .UXUXUXUX",
"UXUXUX] DXDXs.mXKXKXKXKXKXKXKXKXKXKXKXKXKX,X| KXpXW [ [ T.UXUXUX",
"UXUX,.b.VXh.z.KXKXKXKXKXKXKXKXKXKXKXKXKXKX0XW qXLXY Q { =.UXUXUX",
"UXUX! xXzX~ uXKXKXKXKXKXKXKXKXKXKXKXKXKXFXiX( -XKXR E Q $.UXUXUX",
"UX).{ ZXC.! KXKXKXKXKXKXKXKXKXKXKXKXKXHXiXiXi.+XKXT H E I UXUXUX",
"UXT.#.BX@.s.KXKXKXKXKXKXKXKXKXKXKXKXmXtXrXrX;.@XGXD G F C UXUXUX",
"UX0.B.jX_ c.KXKXKXKXLXGXGXGXNXNXMXiXrXwX9X7XI vXcXA D G C UXUXUX",
"UX8.B.jX/ l.KXKXKXGXFXNXmXmXnXtXrXwXwX7XOX*XI PXM.> A G l UXUXUX",
"UX8.d.AX1.1.KXLXGXNXNXmXnXnXtXrXwX9X7X,XOX3.q.KXL - < A M UXUXUX",
"UX9.^ CX4.V GXGXNXmXmXnXiXrXeX9X9XOXXXXX}.J hXvX- - ; > R.UXUXUX",
"UX^.A sX1X; 5XGXmXnXnXtXeXwX9X7XXXXX.XoX-.e.KX2.% & - 1 UXUXUXUX",
"UXUX6 V.ZXr.L NXnXtXrXeX9X7XOXXX.X X Xj.u.SX%X* % & - z UXUXUXUX",
"UXUXx K kXkX&.w.nXrX9X9XOX,X.X.X X|.m.V.CXbX7 # & - 2 UXUXUXUXUX",
"UXUXE.* r.kXgX2.w.9XOXOXXX.X X X].n.2XAXdXZ % & * = W.UXUXUXUXUX",
"UXUXUX1 ; #XkXkXy.t.*X.X X X{.&X;XsXBXsXZ +   O & n UXUXUXUXUXUX",
"UXUXUX7.* - N.kXCXsX1X4X3X3XlXgXfXkXM., + . f J.d Y.UXUXUXUXUXUX",
"UXUXUXUXk - % %.#XfXkXjXkXkXfXdXM.Z = & @ X D.K.I.H.v /.UXUXUXUX",
"UXUXUXUXUXk - % & 8 %.<.2.*.K - % % & & : $ o p F.L.P.c N UXUXUX",
"UXUXUXUXUXUX6.2 & % # # # # % % % & * - 5 E.~.e u A.G.L.H.d W.UX",
"UXUXUXUXUXUXUXUX6.j : * * * * - - - 4 Y.UXUXUXB r y i p s q w W.",
"UXUXUXUXUXUXUXUXUXUXm j 5 4 3 j n R.UXUXUXUXUXUXa r t r u Z.q Y.",
"UXUXUXUXUXUXUXUXUXUXUXUXUXUXUXUXUXUXUXUXUXUXUXUX~.w . t u y w /.",
"UXUXUXUXUXUXUXUXUXUXUXUXUXUXUXUXUXUXUXUXUXUXUXUXUXb . q q w b UX",
"UXUXUXUXUXUXUXUXUXUXUXUXUXUXUXUXUXUXUXUXUXUXUXUXUXUXUX0 . h UXUX",
"UXUXUXUXUXUXUXUXUXUXUXUXUXUXUXUXUXUXUXUXUXUXUXUXUXUXUXUXUXUXUXUX"
};
