/* XPM */
static char *yoga_xpm[] = {
/* columns rows colors chars-per-pixel */
"24 24 230 2 ",
"   c #0A152B",
".  c #00113B",
"X  c #4A3E37",
"o  c #453B3B",
"O  c #423B3E",
"+  c #57402F",
"@  c #4D4239",
"#  c #53413A",
"$  c #5B4C3D",
"%  c #624836",
"&  c #634936",
"*  c #634937",
"=  c #644937",
"-  c #644A37",
";  c #60493B",
":  c #664B3B",
">  c #674D3B",
",  c #684E3B",
"<  c #041B5C",
"1  c #14244F",
"2  c #09215D",
"3  c #182B5C",
"4  c #0B305A",
"5  c #31344A",
"6  c #33384E",
"7  c #343A55",
"8  c #373D56",
"9  c #03236D",
"0  c #0C3564",
"q  c #1C3363",
"w  c #07267C",
"e  c #07267D",
"r  c #09277A",
"t  c #08287D",
"y  c #1E3672",
"u  c #153178",
"i  c #163279",
"p  c #10307C",
"a  c #25366C",
"s  c #473F41",
"d  c #13407A",
"f  c #354A62",
"g  c #3B597B",
"h  c #454043",
"j  c #474142",
"k  c #494242",
"l  c #5D5043",
"z  c #655244",
"x  c #615447",
"c  c #6F5442",
"v  c #645649",
"b  c #64564A",
"n  c #64574A",
"m  c #65574A",
"M  c #6C5A48",
"N  c #6F5F4F",
"B  c #715848",
"V  c #605B58",
"C  c #776553",
"Z  c #7E6355",
"A  c #786758",
"S  c #7E6E5F",
"D  c #87674E",
"F  c #896951",
"G  c #9B7D66",
"H  c #9C7D67",
"J  c #9D7F68",
"K  c #8A7A70",
"L  c #8C7A75",
"P  c #927F7A",
"I  c #9D816B",
"U  c #9E806A",
"Y  c #9F806A",
"T  c #9C816E",
"R  c #928678",
"E  c #91877E",
"W  c #A58770",
"Q  c #A28774",
"!  c #AC8D74",
"~  c #A58B79",
"^  c #B1957D",
"/  c #B3957D",
"(  c #B3957E",
")  c #B3977F",
"_  c #145F98",
"`  c #385B85",
"'  c #1E6DAE",
"]  c #2069A3",
"[  c #226CA1",
"{  c #2264AF",
"}  c #2071A9",
"|  c #2271A8",
" . c #2072AA",
".. c #3C78B3",
"X. c #3472B8",
"o. c #3472B9",
"O. c #3473BA",
"+. c #3574BC",
"@. c #3976B9",
"#. c #436389",
"$. c #447FB9",
"%. c #2B81C0",
"&. c #518DC1",
"*. c #A69085",
"=. c #A49487",
"-. c #A6978A",
";. c #A5928D",
":. c #A5948C",
">. c #A7948F",
",. c #B59680",
"<. c #B49880",
"1. c #B79A81",
"2. c #B79A82",
"3. c #B19885",
"4. c #B39986",
"5. c #B79B84",
"6. c #BDA99E",
"7. c #BBAE9E",
"8. c #BFABA1",
"9. c #BBAEA0",
"0. c #C2A68E",
"q. c #C0ACA1",
"w. c #C0ACA2",
"e. c #C1ADA3",
"r. c #C5B2A8",
"t. c #CBB8A9",
"y. c #CAB8AE",
"u. c #D0BCAF",
"i. c #C6B8B2",
"p. c #CBBFB4",
"a. c #CCBEB7",
"s. c #CDBFB8",
"d. c #CCC1B6",
"f. c #CEC2B8",
"g. c #CCC0BC",
"h. c #D0C3BD",
"j. c #D0C4BD",
"k. c #D1C6BD",
"l. c #D2C6BE",
"z. c #D3C7BF",
"x. c #D6C6BE",
"c. c #D6C6BF",
"v. c #D7C6BF",
"b. c #D8C7BC",
"n. c #BBC8D2",
"m. c #C6C3C3",
"M. c #D2C5C0",
"N. c #D3C7C2",
"B. c #D4C8C0",
"V. c #D5C9C1",
"C. c #D7C8C0",
"Z. c #D4C9C3",
"A. c #D7CBC5",
"S. c #D6CCC6",
"D. c #D8CDC6",
"F. c #D9CDC6",
"G. c #DACFC8",
"H. c #DACFC9",
"J. c #DBD0C9",
"K. c #DDD0C8",
"L. c #DCD1CA",
"P. c #DCD1CB",
"I. c #DDD4C9",
"U. c #DBD3CE",
"Y. c #DCD1CD",
"T. c #DDD3CD",
"R. c #DCD4CF",
"E. c #C1C1D0",
"W. c #DFD7D5",
"Q. c #D5D7DC",
"!. c #D6D8DD",
"~. c #D7D9DE",
"^. c #D6D9DF",
"/. c #D7DADF",
"(. c #E0D2C7",
"). c #E1D4C9",
"_. c #E2D6CB",
"`. c #E0D8D2",
"'. c #E3DBD5",
"]. c #E3DBD6",
"[. c #E4DBD6",
"{. c #E4DCD4",
"}. c #E4DCD5",
"|. c #E4DCD6",
" X c #E4DDD7",
".X c #E5DDD7",
"XX c #E6DDD6",
"oX c #E6DFD7",
"OX c #E9DCD5",
"+X c #E6DED8",
"@X c #E6DED9",
"#X c #E6DFD9",
"$X c #E5DEDA",
"%X c #E4DDDC",
"&X c #E5DEDC",
"*X c #E5DFDC",
"=X c #E7E0D9",
"-X c #E7E0DA",
";X c #E6E0DE",
":X c #E7E0DF",
">X c #E7E2DF",
",X c #EBE4DB",
"<X c #E8E1DC",
"1X c #E9E3DD",
"2X c #E9E3DF",
"3X c #E9E5DE",
"4X c #EAE4DF",
"5X c #ECE6DF",
"6X c #ECE7DF",
"7X c #D7DAE0",
"8X c #DADCE2",
"9X c #E9E3E1",
"0X c #ECE7E5",
"qX c #EFEBE4",
"wX c #ECE9E6",
"eX c #EFEBE7",
"rX c #F0ECE7",
"tX c #F1ECE7",
"yX c #F0ECE8",
"uX c #F1EDE8",
"iX c #F5F3F0",
"pX c #F7F5F0",
"aX c #F6F4F1",
"sX c #F7F6F1",
"dX c #F8F6F1",
"fX c #F8F7F1",
"gX c #FAF9F7",
"hX c #FBF9F8",
"jX c #FCFBFA",
"kX c None",
/* pixels */
"kXkXkXkXkXkXkXkXkXkXkXkXkXkXkXkXkXkXkXkXkXkXkXkX",
"kXkXkXkXkXkXkXkXkXkXkXkXkXkXkXkXkXkXkXkXkXkXkXkX",
"kXkXkXkXkXkXkXkXkXkXkXkXkXkXfXpXkXkXkXkXkXkXkXkX",
"kXkXkXkXkXkXkXkXkXkXkXkXkXtXpXgXuXkXkXkXkXkXkXkX",
"kXkXkXkXkXkXkXkXZ.4.kXkXt.,XfXhXuXkXkXkXkXkXkXkX",
"kXkXkXkXkXkXoX5X9Xu.! kX4._.R.*X`.j.kXkXkXkXkXkX",
"kXkXkXkXU.oXqXyXtX(.0.B ~ r.Z.0X2XK.n.%.kXkXkXkX",
"kXkXkXE.wXoXP.$X;XC.2.c Q w.N.9X$XJ.p.V ] kXkXkX",
"kXkX+.8X-Xx.P.].*Xx.2., T w.l.*X{.D.p.b | kXkXkX",
"kXkXX.7XoXB.D.$X9Xx.( - T w.C.0X<XP.p.b | kXkXkX",
"kXkXX.^.|.N.G.oX*Xx.,.* I 8.N.9X$XD.p.b | kXkXkX",
"kXkXX.7XoXl.P.].*Xx.,.* G 8.h.W.U.D.p.b | kXkXkX",
"kXkXo.7XoXN.D.$X9Xx.^ = I 6.S.iX9XD.d.b  .kXkXkX",
"kXkXX.^.oXN.G.oX*Xx.,.= H y.rX`.i.s.d.b  .kXkXkX",
"kXkXX.^.|.N.].pXjXOX5.= Q ).a.;.>.d.f.m  .kXkXkX",
"kXkX@.Q.,X-X9X,X2Xv.( = J *.L R -.k.k.m  .kXkXkX",
"kXkX$.^.tXI.7.R K Z D , F : z N A =.7.m  .kXkXkX",
"kXkX&.m.-.S l j j O # + $ o s k X $ C n [ kXkXkX",
"kXkX..E M @ 7 u r w u 8 y t t p a 5 6 f ' kXkXkX",
"kXkX{ #.g ` q   kXkX. 1 < kXkXkX3 2 9 i _ kXkXkX",
"kXkXkXkX0 4 kXkXkXkXkXkXkXkXkXkXkXkXkXkXkXkXkXkX",
"kXkXkXkXkXkXkXkXkXkXkXkXkXkXkXkXkXkXkXkXkXkXkXkX",
"kXkXkXkXkXkXkXkXkXkXkXkXkXkXkXkXkXkXkXkXkXkXkXkX",
"kXkXkXkXkXkXkXkXkXkXkXkXkXkXkXkXkXkXkXkXkXkXkXkX"
};
