/* XPM */
static char *yogaeditor_xpm[] = {
/* columns rows colors chars-per-pixel */
"32 32 201 2 ",
"   c #040A13",
".  c #000822",
"X  c #3C2D22",
"o  c #322D2B",
"O  c #36302C",
"+  c #322F30",
"@  c #323135",
"#  c #41372E",
"$  c #4E3B31",
"%  c #574034",
"&  c #55493D",
"*  c #5C4C3D",
"=  c #1F3459",
"-  c #2D2D46",
";  c #212E4F",
":  c #273A5D",
">  c #313956",
",  c #032760",
"<  c #052E71",
"1  c #02277D",
"2  c #022B7B",
"3  c #063178",
"4  c #1C3573",
"5  c #3B4254",
"6  c #334856",
"7  c #2E4A67",
"8  c #2E4774",
"9  c #2C487D",
"0  c #66574C",
"q  c #6D5D4F",
"w  c #6D6055",
"e  c #706154",
"r  c #7D6D5D",
"t  c #4F5464",
"y  c #545F77",
"u  c #525E7A",
"i  c #596177",
"p  c #7F7064",
"a  c #957258",
"s  c #A27F5F",
"d  c #867464",
"f  c #8A7666",
"g  c #9C8173",
"h  c #A68267",
"j  c #A2856F",
"k  c #A68A77",
"l  c #B9997C",
"z  c #19388E",
"x  c #032B96",
"c  c #012B9B",
"v  c #083496",
"b  c #26428B",
"n  c #2D4F8B",
"m  c #3A5281",
"M  c #33538E",
"N  c #2E5495",
"B  c #29559D",
"V  c #385B96",
"C  c #345B9F",
"Z  c #3D5F9A",
"A  c #3D619F",
"S  c #1047A3",
"D  c #2F5EAC",
"F  c #305DA7",
"G  c #335FA9",
"H  c #1E67B9",
"J  c #3F65A7",
"K  c #3562AD",
"L  c #256BB2",
"P  c #226ABB",
"I  c #2B6CBF",
"U  c #3B69B5",
"Y  c #396BBD",
"T  c #2D73BA",
"R  c #357CBE",
"E  c #445986",
"W  c #5A6581",
"Q  c #576F9B",
"!  c #71778D",
"~  c #707D9E",
"^  c #5671A4",
"/  c #4E75B9",
"(  c #5A7BB4",
")  c #1671C5",
"_  c #3A6DC2",
"`  c #3D71C9",
"'  c #4676C6",
"]  c #4071CC",
"[  c #4779CE",
"{  c #537DC4",
"}  c #547FC9",
"|  c #487BD0",
" . c #827D86",
".. c #7B8499",
"X. c #6381B6",
"o. c #6182BA",
"O. c #768DBF",
"+. c #1B8CDB",
"@. c #188BE3",
"#. c #1791E6",
"$. c #448BC7",
"%. c #5C83C4",
"&. c #5580CE",
"*. c #4F81D4",
"=. c #5585D4",
"-. c #5987D6",
";. c #5988D7",
":. c #5687D8",
">. c #5A8BDB",
",. c #668ACA",
"<. c #718FC2",
"1. c #7192C6",
"2. c #7890C0",
"3. c #668ED1",
"4. c #608FDC",
"5. c #6B91D3",
"6. c #6492DE",
"7. c #6995DF",
"8. c #7195D6",
"9. c #7C9DD7",
"0. c #769BDB",
"q. c #6694E0",
"w. c #6A94E2",
"e. c #6D99E3",
"r. c #739EE4",
"t. c #76A0E6",
"y. c #7BA3E6",
"u. c #7DA4E8",
"i. c #8B8E9D",
"p. c #9E9494",
"a. c #A39384",
"s. c #A89483",
"d. c #B29887",
"f. c #AE9A91",
"g. c #B09F91",
"h. c #BCA393",
"j. c #928FB0",
"k. c #8391B0",
"l. c #939DB3",
"z. c #9A9FB3",
"x. c #9DA0B1",
"c. c #ABABAE",
"v. c #B9A6A2",
"b. c #BFAEAA",
"n. c #B7B2AE",
"m. c #BEB7BC",
"M. c #CAB099",
"N. c #C1B3AB",
"B. c #D2BAA5",
"V. c #D3BEAE",
"C. c #C7B9B0",
"Z. c #C8B9B3",
"A. c #C2BBBE",
"S. c #CDBFB8",
"D. c #CFC1BA",
"F. c #D9C4B3",
"G. c #D1C4BC",
"H. c #DBCBBC",
"J. c #9CAAC3",
"K. c #A5ADC6",
"L. c #B1B7C4",
"P. c #B2BED3",
"I. c #85AAEA",
"U. c #91AEE9",
"Y. c #8FB3EB",
"T. c #97B9EA",
"R. c #9CBCE9",
"E. c #A6BBEE",
"W. c #B4B6E0",
"Q. c #A4C0E6",
"!. c #A7C0E9",
"~. c #BECEEA",
"^. c #C9C0C2",
"/. c #C5C0C8",
"(. c #D5C8C0",
"). c #DACDC6",
"_. c #D5CDCB",
"`. c #DCD2CC",
"'. c #DFD8CB",
"]. c #DDD4D3",
"[. c #D9D5DA",
"{. c #E0D6CF",
"}. c #E0D7D3",
"|. c #E4DCD4",
" X c #E6DEDA",
".X c #E6E1DE",
"XX c #EBE5DE",
"oX c #C0D0E9",
"OX c #E2E1E2",
"+X c #EBE7E2",
"@X c #EEEAE7",
"#X c #EEECEE",
"$X c #F0ECE7",
"%X c #F1EDE8",
"&X c #F3F1ED",
"*X c #E5E9F0",
"=X c #F5F3F1",
"-X c #F8F7F1",
";X c #F9F8F4",
":X c gray100",
">X c None",
/* pixels */
">X>X>X>X>X>X>X>X>X>X>X>X>X>X>X>X>X>X>X>X>X>X>X>X>X>X>X>X>X>X>X>X",
">X>X>X>X>X>X>X>X>X>X>X>X>X>X>X>X>X>X>X>X>X>X>X>X>X>X>X>X>X>X>X>X",
">X>X>X>X>X>X>X>X>X>X>X>X>X>X>X>X>X>X>X>X>X>X>X>X>X>X>X>X>X>X>X>X",
">X>X>X>X>X>X>X>X>X>X>X>X>X>X>X>X>X>X>X;X-X%X>X>X>X>X>X>X>X>X>X>X",
">X>X>X>X>X>X>X>X>X>X>X>X>X>X>X>X>X>X%X-X:X$X%X>X>X>X>X>X>X>X>X>X",
">X>X>X>X>X>X>X>X>X>X>X>X>X>X>X>X>XXX&X-X:X%X%X>X>X>X>X>X>X>X>X>X",
">X>X>X>X>X>X>X>X>X>X{.).h.a >X>Xd.H.%X;X:X%X%X>X>X>X>X>X>X>X>X>X",
">X>X>X>X>X>X>X>X|. X&X$X).M.a >Xj F.%XN.|.S. XC.G.>X>X>X>X>X>X>X",
">X>X>X>X>X>X(.{.&X=X-X-X|.B.l $ k V.v.|.:X%X%XD.$X@.#.>X>X>X>X>X",
">X>X>X>Xj.[.=XXXXX|.].].(.F.h % k g ).b. XD. XD. Xd 7 ) >X>X>X>X",
">X>X>XH  X=XXX).Z. X%X=X).h.s $ i.X.,.8.3.J..XD.|.d # +.>X>X>X>X",
">X>X>XH XX=XD.G. X{.`.].G.F.f E 9.R.T.r.%.i.).D.|.d # #.>X>X>X>X",
">X>X>XH .X%X`.).C. X%X&X).f.~ r.W.!.0.o.J._.+XD. Xd # #.>X>X>X>X",
">X>X>XH .X=XS.G. X{.`.].^.z.9.E.Q.U.&.! A.Z..XD.|.d # #.>X>X>X>X",
">X>X>XH  X$X`.).C.|.%X=X^.2.E.!.R.t.^ n.;X%X%XD.L.i # #.>X>X>X>X",
">X>X>XH +X=XS.G. X{.{.].A.9.!.R.U.t.X.p._.b.).x.( Z # #.>X>X>X>X",
">X>X>XH .X%X`.).C. X#X&X/.8.T.Y.I.u.&.2.*XOXP.( ` A # #.>X>X>X>X",
">X>X>XH .X=XD.D. X{.`.].m.8.Y.I.u.t.3.%.1.<./ ` ` V # #.>X>X>X>X",
">X>X>XH .X$X`.).Z. X%X#XK.5.I.u.r.e.6.>.*.| | ] U 9 $ #.>X>X>X>X",
">X>X>XH  X=XD.G.|.=X;XoX0.6.r.t.e.6.>.=.*.| ` Y G t # #.>X>X>X>X",
">X>X>XP  X@X`.XX+X&XoX0.4.-.:.4.6.>.:.*.| ` Y D ^ e # #.>X>X>X>X",
">X>X>XT  X=X+XXX{.z.,.>.6.r.4.4.*.[ | ` _ K B Q c.r # #.>X>X>X>X",
">X>X>XR |.=XXXN...%.q.r.r.0.w.*.K 9 M N n 8 5 0 a.d # #.>X>X>X>X",
">X>X>X$.{.s.e u { q.e.r.e.r.-.C > o @ @ + O X & * f # +.>X>X>X>X",
">X>X>XR g.p y %.r.r.r.e.r.:.K : = x c c v z - # # # 6 ) >X>X>X>X",
">X>X>XH q W %.t.t.r.e.t.>.F 2 ; x . >X>X  4 b 2 v S L #.>X>X>X>X",
">X>X>XH I >.y.y.r.r.t.>.G , >X>X>X>X>X>X>X>X>X>X>X>X>X>X>X>X>X>X",
">X>X>X>X{ u.y.r.t.u.4.K < >X>X>X>X>X>X>X>X>X>X>X>X>X>X>X>X>X>X>X",
">X>X>X>X=.u.u.y.y.>.K 3 >X>X>X>X>X>X>X>X>X>X>X>X>X>X>X>X>X>X>X>X",
">X>X>X>X' 6.t.0.>.K >X>X>X>X>X>X>X>X>X>X>X>X>X>X>X>X>X>X>X>X>X>X",
">X>X>X>X>X_ [ ` D >X>X>X>X>X>X>X>X>X>X>X>X>X>X>X>X>X>X>X>X>X>X>X",
">X>X>X>X>X>X>X>X>X>X>X>X>X>X>X>X>X>X>X>X>X>X>X>X>X>X>X>X>X>X>X>X"
};
