/* XPM */
static char *yoga_xpm[] = {
/* columns rows colors chars-per-pixel */
"32 32 218 2 ",
"   c #040A13",
".  c #050D1C",
"X  c #000923",
"o  c #000B25",
"O  c #031120",
"+  c #433226",
"@  c #463125",
"#  c #473226",
"$  c #4B3525",
"%  c #41362C",
"&  c #41372E",
"*  c #493428",
"=  c #543829",
"-  c #523B2D",
";  c #5A3D29",
":  c #5D3E2A",
">  c #4D3A30",
",  c #4F4134",
"<  c #4B423C",
"1  c #574034",
"2  c #5C4B3F",
"3  c #5D4D3E",
"4  c #61412E",
"5  c #624A3F",
"6  c #192E5E",
"7  c #2E2E47",
"8  c #29385E",
"9  c #002175",
"0  c #02277D",
"q  c #1C3573",
"w  c #273F6C",
"e  c #334856",
"r  c #2E4A67",
"t  c #594D40",
"y  c #5E4F41",
"u  c #635242",
"i  c #6F5340",
"p  c #695044",
"a  c #685749",
"s  c #6B564C",
"d  c #695848",
"f  c #6D5E4C",
"g  c #6F5E4E",
"h  c #6F5E52",
"j  c #695F56",
"k  c #6D5F58",
"l  c #72624F",
"z  c #726253",
"x  c #736358",
"c  c #71665A",
"v  c #606267",
"b  c #806C5B",
"n  c #957258",
"m  c #947359",
"M  c #9B7A5C",
"N  c #9E795D",
"B  c #9E7C5D",
"V  c #9F7D5E",
"C  c #A27F5F",
"Z  c #847261",
"A  c #877464",
"S  c #887665",
"D  c #9D7F66",
"F  c #977668",
"G  c #997C6E",
"H  c #A17F64",
"J  c #968373",
"K  c #9C8173",
"L  c #95827C",
"P  c #A68363",
"I  c #A68267",
"U  c #A1846E",
"Y  c #A2856F",
"T  c #A68973",
"R  c #A68A77",
"E  c #A1917A",
"W  c #B9997C",
"Q  c #022D9B",
"!  c #022B9F",
"~  c #0C3697",
"^  c #06309B",
"/  c #06319D",
"(  c #09369A",
")  c #1A3991",
"_  c #264281",
"`  c #26428B",
"'  c #1047A3",
"]  c #1E67B9",
"[  c #256BB2",
"{  c #226ABB",
"}  c #2D73BA",
"|  c #337BBE",
" . c #367CBD",
".. c #1771C4",
"X. c #1671C5",
"o. c #1B8BDA",
"O. c #1B8CDC",
"+. c #188BE3",
"@. c #1791E6",
"#. c #448BC7",
"$. c #998884",
"%. c #9A8989",
"&. c #9F8C88",
"*. c #A08A83",
"=. c #A89483",
"-. c #A79788",
";. c #A8948D",
":. c #B29887",
">. c #AA9991",
",. c #AC9895",
"<. c #AE9C95",
"1. c #AF9B98",
"2. c #B09F91",
"3. c #B19F98",
"4. c #B1A090",
"5. c #BCA291",
"6. c #BDA392",
"7. c #BBA494",
"8. c #928FB0",
"9. c #B8A7A1",
"0. c #B9A6A2",
"q. c #B9A9A2",
"w. c #BFAEAA",
"e. c #CAB099",
"r. c #C0B1AB",
"t. c #C8BAAB",
"y. c #CABCAD",
"u. c #D2BAA5",
"i. c #D2BCAB",
"p. c #D3BEAE",
"a. c #C7B9B0",
"s. c #C8B9B3",
"d. c #C9BAB4",
"f. c #CBBBB4",
"g. c #CDBFB8",
"h. c #CEC0B9",
"j. c #CFC1BA",
"k. c #D9C4B2",
"l. c #D8C4B3",
"z. c #DAC5B3",
"x. c #DBC5B4",
"c. c #D0C2BB",
"v. c #D1C4BC",
"b. c #D3C4BE",
"n. c #D2C6BF",
"m. c #DBCBBC",
"M. c #D5C8C0",
"N. c #D4C8C1",
"B. c #D5C9C2",
"V. c #D8CAC3",
"C. c #D8CDC5",
"Z. c #DACCC7",
"A. c #D9CEC6",
"S. c #DACEC7",
"D. c #DDCDC4",
"F. c #D7CBC8",
"G. c #DCD2CB",
"H. c #DED3CD",
"J. c #DDD3CE",
"K. c #DAD1D1",
"L. c #DBD3D0",
"P. c #DED5D3",
"I. c #DDD4D4",
"U. c #D9D5DA",
"Y. c #E0D6CF",
"T. c #E4DBCD",
"R. c #E0D7D3",
"E. c #E1D8D0",
"W. c #E3DAD2",
"Q. c #E4DAD1",
"!. c #E4DBD3",
"~. c #E3DAD4",
"^. c #E2DAD7",
"/. c #E2DCD7",
"(. c #E5DDD4",
"). c #E6DED5",
"_. c #E6DDD7",
"`. c #E7DED6",
"'. c #E7DFD6",
"]. c #E0D9D9",
"[. c #E1DADA",
"{. c #E2DCD9",
"}. c #E7DFD8",
"|. c #E4DEDB",
" X c #E7DFDA",
".X c #E6DFDD",
"XX c #E6DFDF",
"oX c #E7E0DE",
"OX c #E8E1D9",
"+X c #E8E2DF",
"@X c #ECE4DF",
"#X c #EDE6DE",
"$X c #ECE6DF",
"%X c #ECE7DF",
"&X c #EBE7E2",
"*X c #EFE7E0",
"=X c #EEEAE7",
"-X c #F0E7E1",
";X c #F0EBE7",
":X c #F0ECE7",
">X c #F1EDE8",
",X c #F0EDE9",
"<X c #F1EEE8",
"1X c #F2EFE9",
"2X c #F1EEEA",
"3X c #F3F0EA",
"4X c #F3F0EC",
"5X c #F6F3EF",
"6X c #F6F5EF",
"7X c #F3F0F0",
"8X c #F6F4F1",
"9X c #F6F5F1",
"0X c #F7F6F2",
"qX c #F8F7F1",
"wX c #F9F8F4",
"eX c #FAFAF7",
"rX c gray100",
"tX c None",
/* pixels */
"tXtXtXtXtXtXtXtXtXtXtXtXtXtXtXtXtXtXtXtXtXtXtXtXtXtXtXtXtXtXtXtX",
"tXtXtXtXtXtXtXtXtXtXtXtXtXtXtXtXtXtXtXtXtXtXtXtXtXtXtXtXtXtXtXtX",
"tXtXtXtXtXtXtXtXtXtXtXtXtXtXtXtXtXtXtXtXtXtXtXtXtXtXtXtXtXtXtXtX",
"tXtXtXtXtXtXtXtXtXtXtXtXtXtXtXtXtXtXtXqXqX1XtXtXtXtXtXtXtXtXtXtX",
"tXtXtXtXtXtXtXtXtXtXtXtXtXtXtXtXtXtX1XqXrX:X:XtXtXtXtXtXtXtXtXtX",
"tXtXtXtXtXtXtXtXtXtXtXtXtXtXtXtXtX%X4XqXrX1X1XtXtXtXtXtXtXtXtXtX",
"tXtXtXtXtXtXtXtXtXtXY.F.7.n tXtX:.m.1XqXrX;X1XtXtXtXtXtXtXtXtXtX",
"tXtXtXtXtXtXtXtXW.`.1X,XD.e.n tXY l.:Xr.].c._.s.c.tXtXtXtXtXtXtX",
"tXtXtXtXtXtXN.Y.1X8XqXwXT.u.W > R p.0.W.rX1X1Xj.;X+.@.tXtXtXtXtX",
"tXtXtXtX8.U.8X%X%X~.P.L.Z.l.I 1 R K S.r.].j._.j._.A r ..tXtXtXtX",
"tXtXtX] .X8X%XA.s.^.1X7XA.5.P - T p.0.~.rX1X1Xg.(.A & O.tXtXtXtX",
"tXtXtX] %X8Xg.v.}.E.L.P.v.l.B * U K S.r.].g._.j.(.A & @.tXtXtXtX",
"tXtXtX] +X:XG.A.s._.,X7XZ.5.N @ D i.0.W.rX1X:Xg._.A & @.tXtXtXtX",
"tXtXtX] oX8Xg.v.}.Y.J.I.b.z.N @ H K D.r.].j.}.j.(.A & @.tXtXtXtX",
"tXtXtX] .X:XG.A.s._.1X7XZ.5.N @ I i.0.~.rX:X:Xh.(.A & @.tXtXtXtX",
"tXtXtX] +X8Xg.v.}.Y.J.I.b.l.N @ D K S.r.L.w.H.h.(.A & @.tXtXtXtX",
"tXtXtX] oX=XG.A.s.~.,X7XS.6.M @ H i.9.n.rX:X1Xj.(.A & @.tXtXtXtX",
"tXtXtX] oX8Xg.b.}.P.J.I.v.x.M @ H G s.6X8X1Xc.g.(.A & @.tXtXtXtX",
"tXtXtX] .X:XG.A.s.`.1X7XS.6.M @ H i.:XqXd.3.;.j._.A & @.tXtXtXtX",
"tXtXtX] }.8Xg.c.}.8XeXrX-Xx.M @ H i.1X3.L $.<.N._.A & @.tXtXtXtX",
"tXtXtX{ }.1XG.%X&X8XeXrX-Xx.N @ H i.*.%.&.,.q.A.OXS & @.tXtXtXtX",
"tXtXtX} ].8X&X%XT.t.-.>.F m M @ H p 5 t h x J N.%XS & @.tXtXtXtX",
"tXtXtX .].qXOXy.E c j k s = M @ P : i a l g a b 4.S & @.tXtXtXtX",
"tXtXtX#.R.=.z u , & & % & % ; $ 4 % % & % & @ t 3 S & o.tXtXtXtX",
"tXtXtX| 2.Z y % & ) ~ ! ! / _ < w / ! ! ( ) 7 & % % e ..tXtXtXtX",
"tXtXtX] g g & v ` 6 . tXtXX 9 8 ! X tXtX  q ` 0 Q ' [ @.tXtXtXtX",
"tXtXtX] ] ] ] ] O tXtXtXtXtXtXtXtXtXtXtXtXtXtXtXtXtXtXtXtXtXtXtX",
"tXtXtXtXtXtXtXtXtXtXtXtXtXtXtXtXtXtXtXtXtXtXtXtXtXtXtXtXtXtXtXtX",
"tXtXtXtXtXtXtXtXtXtXtXtXtXtXtXtXtXtXtXtXtXtXtXtXtXtXtXtXtXtXtXtX",
"tXtXtXtXtXtXtXtXtXtXtXtXtXtXtXtXtXtXtXtXtXtXtXtXtXtXtXtXtXtXtXtX",
"tXtXtXtXtXtXtXtXtXtXtXtXtXtXtXtXtXtXtXtXtXtXtXtXtXtXtXtXtXtXtXtX",
"tXtXtXtXtXtXtXtXtXtXtXtXtXtXtXtXtXtXtXtXtXtXtXtXtXtXtXtXtXtXtXtX"
};
