/* XPM */
static char *yogaeditor_xpm[] = {
/* columns rows colors chars-per-pixel */
"24 24 174 2 ",
"   c #36343B",
".  c #534539",
"X  c #0F1F44",
"o  c #031856",
"O  c #09215D",
"+  c #182B5C",
"@  c #2D364F",
"#  c #30344A",
"$  c #33384E",
"%  c #2D3750",
"&  c #2C3958",
"*  c #03236D",
"=  c #152E6A",
"-  c #072577",
";  c #062479",
":  c #102E79",
">  c #103370",
",  c #143975",
"<  c #25356A",
"1  c #253F70",
"2  c #3D475D",
"3  c #13407A",
"4  c #314165",
"5  c #354A62",
"6  c #3E4C66",
"7  c #46464D",
"8  c #584D44",
"9  c #57514F",
"0  c #615447",
"q  c #6D5444",
"w  c #635549",
"e  c #715847",
"r  c #605B58",
"t  c #746251",
"y  c #424B61",
"u  c #5F6277",
"i  c #596278",
"p  c #676978",
"a  c #897C7D",
"s  c #AC8D74",
"d  c #A68B79",
"f  c #183F80",
"g  c #145F98",
"h  c #315085",
"j  c #3D609D",
"k  c #2252A5",
"l  c #335CA2",
"z  c #1E6DAE",
"x  c #216AA2",
"c  c #2264AE",
"v  c #3B65AD",
"b  c #2172A9",
"n  c #3A68B5",
"m  c #3C6BBC",
"M  c #3C78B3",
"N  c #3472B9",
"B  c #3976B9",
"V  c #4A6995",
"C  c #757989",
"Z  c #697793",
"A  c #426AAF",
"S  c #416FB9",
"D  c #4471BD",
"F  c #447FB9",
"G  c #5C7EB8",
"H  c #3B6DC4",
"J  c #4776C2",
"K  c #4375CB",
"L  c #547EC7",
"P  c #4D7FD3",
"I  c #6581B2",
"U  c #6485BE",
"Y  c #6A89BE",
"T  c #768FBF",
"R  c #2B81C0",
"E  c #518DC1",
"W  c #5082CD",
"Q  c #5F89CD",
"!  c #5A87D7",
"~  c #5C8AD5",
"^  c #5586D8",
"/  c #5B8BDA",
"(  c #6386C1",
")  c #6E8CC0",
"_  c #6D8FCA",
"`  c #6C90CF",
"'  c #7E97C5",
"]  c #608FDD",
"[  c #6492DD",
"{  c #6894DD",
"}  c #6B98DF",
"|  c #7E99D2",
" . c #739BDE",
".. c #7E9FD8",
"X. c #7BA1DF",
"o. c #6A97E1",
"O. c #6D99E1",
"+. c #729DE4",
"@. c #75A0E5",
"#. c #79A2E6",
"$. c #8D8681",
"%. c #9A9088",
"&. c #AE9787",
"*. c #A4978B",
"=. c #B49984",
"-. c #8791A8",
";. c #9091A3",
":. c #9799A8",
">. c #9499B1",
",. c #A2A8B5",
"<. c #A6ACBB",
"1. c #B2AFB1",
"2. c #B1B2BE",
"3. c #B8B9BF",
"4. c #C2A68E",
"5. c #C8B3A7",
"6. c #CBB8A9",
"7. c #D0BCAF",
"8. c #CBBFB4",
"9. c #CCC0B4",
"0. c #CFC1BC",
"q. c #D3C6BE",
"w. c #8BA2CC",
"e. c #9BA8C7",
"r. c #80A3DF",
"t. c #90ACDD",
"y. c #A3ADC8",
"u. c #A5B2CD",
"i. c #AEB9CF",
"p. c #B1B5C7",
"a. c #BDB8C0",
"s. c #B0B5CB",
"d. c #86A7E0",
"f. c #87ABE4",
"g. c #8BADE1",
"h. c #83A9EA",
"j. c #8DB0EA",
"k. c #92B1EA",
"l. c #9CBBEB",
"z. c #A6B8E6",
"x. c #A1BBE9",
"c. c #BBC8D2",
"v. c #BFC8D9",
"b. c #C6C3C2",
"n. c #CCCBCE",
"m. c #D5C9C2",
"M. c #D8CCC5",
"N. c #DACFC9",
"B. c #DBD2CC",
"V. c #C1C1D0",
"C. c #D7D2D0",
"Z. c #DBD3D0",
"A. c #D5D7DC",
"S. c #D6D9DE",
"D. c #E0D2C7",
"F. c #E2D6CB",
"G. c #E4DCD6",
"H. c #E5DEDB",
"J. c #E7E0DC",
"K. c #EAE4DD",
"L. c #C3CEE0",
"P. c #CCD7EB",
"I. c #D7DAE0",
"U. c #DADCE2",
"Y. c #E9E2E1",
"T. c #EEEAE6",
"R. c #F0ECE6",
"E. c #F1EDE8",
"W. c #F3F1EE",
"Q. c #F7F5F0",
"!. c #F8F7F1",
"~. c #FAF9F7",
"^. c #FBF9F8",
"/. c None",
/* pixels */
"/./././././././././././././././././././././././.",
"/./././././././././././././././././././././././.",
"/./././././././././././././.!.!././././././././.",
"/././././././././././././.R.!.~.E./././././././.",
"/./././././././.M.=././.6.K.!.~.R./././././././.",
"/./././././.G.K.K.7.s /.=.F.Z.J.G.0././././././.",
"/./././.Z.G.T.R.T.D.4.e d 5.M.R.K.B.c.R /./././.",
"/././.V.T.G.B.J.H.m.=.q a >.e.u.n.N.9.r x /././.",
"/./.B U.J.q.B.G.H.m.&.u ' g. .) 3.M.9.w b /././.",
"/./.N S.G.m.M.G.Y.0.;.| z.f.Y <.B.N.9.0 b /././.",
"/./.N S.G.m.N.G.Y.a.w.x.l.` -.C.G.N.1.9 b /././.",
"/./.N U.G.q.B.G.H.p.t.x.j._ :.Z.N.2.I y b /././.",
"/./.N S.H.m.M.J.Y.p.f.k.h.{ T V.s.Y m 6 b /././.",
"/./.N I.G.q.N.G.H.y.#.h.+.o.~ ~ W K n 2 b /././.",
"/./.N A.G.q.G.W.P...O.@.O.] / P K H j 7 b /././.",
"/./.B A.J.J.K.L.r.] / ] / ^ P K H v Z 8 b /././.",
"/./.F S.R.N.,._ [ O.O./ S v v l h i %.0 b /././.",
"/./.E b.*.C U { +.+.[ A 4 # & %   . t 0 x /././.",
"/./.M $.p G O.+.+.{ m 1 = - ; : < # $ 5 z /././.",
"/./.c V ( +.@.+.{ S > X o /././.+ O * 3 g /././.",
"/././.W #.#.@.} D , /./././././././././././././.",
"/././.~ #.#. .D f /././././././././././././././.",
"/././.J ! ! J /././././././././././././././././.",
"/././././.k /./././././././././././././././././."
};
