/* XPM */
static char *zoom_original_xpm[] = {
/* columns rows colors chars-per-pixel */
"24 24 138 2 ",
"   c #5F6261",
".  c #5C6266",
"X  c #5F656A",
"o  c #5F6B76",
"O  c #636A6F",
"+  c #676E73",
"@  c #6E7375",
"#  c #6D757A",
"$  c #6A747D",
"%  c #7B7C78",
"&  c #7B7C79",
"*  c #61768E",
"=  c #677990",
"-  c #687F99",
";  c #587EA4",
":  c #79868F",
">  c #6F8395",
",  c #7D8793",
"<  c #75889F",
"1  c #6D8FB2",
"2  c #7692B8",
"3  c #7292BD",
"4  c #7292BE",
"5  c #7BA6DB",
"6  c #78A9E4",
"7  c #7AAEE8",
"8  c #838686",
"9  c #868684",
"0  c #8A8B88",
"q  c #8B8C89",
"w  c #90928F",
"e  c #9C9D9B",
"r  c #9E9E9E",
"t  c #869CAD",
"y  c #8D9DA8",
"u  c #9B9EA1",
"i  c #959EAA",
"p  c #8499B3",
"a  c #839BBC",
"s  c #96A0AE",
"d  c #99A1AC",
"f  c #8FA0B6",
"g  c #94A9B6",
"h  c #9DABB9",
"j  c #A2A2A0",
"k  c #A4A5A3",
"l  c #A1A3A4",
"z  c #A8A9A7",
"x  c #A0A5AA",
"c  c #A9AAA9",
"v  c #AAACA9",
"b  c #ABABAC",
"n  c #ACADAC",
"m  c #AEB0AF",
"M  c #A4ACB5",
"N  c #AEB2B7",
"B  c #B2B4B4",
"V  c #B7B7B7",
"C  c #B0B5BB",
"Z  c #B3B6BA",
"A  c #B3B8BF",
"S  c #B9BAB8",
"D  c #B9BAB9",
"F  c #86A7C0",
"G  c #8DA6C0",
"H  c #80A0C8",
"J  c #98AEC3",
"K  c #9EAFC4",
"L  c #94AECA",
"P  c #84AED7",
"I  c #86AADA",
"U  c #96B0D3",
"Y  c #ACB6C3",
"T  c #AFBAC6",
"R  c #AABDC7",
"E  c #A1B6CA",
"W  c #A8B7CF",
"Q  c #A6B8CC",
"!  c #B7BCC1",
"~  c #B3BAC4",
"^  c #B8BFC6",
"/  c #B5BEC9",
"(  c #B7BFCC",
")  c #98BBE7",
"_  c #91BBE9",
"`  c #BDC1C7",
"'  c #BFC3C8",
"]  c #A7C4D6",
"[  c #AFC2D4",
"{  c #B4C1D4",
"}  c #BECDDD",
"|  c #ABC7E9",
" . c #BECEE3",
".. c #BACFEC",
"X. c #BCD1E1",
"o. c #B0D7F7",
"O. c #C0C2C0",
"+. c #C2C2C1",
"@. c #C6C7C6",
"#. c #C7C7C6",
"$. c #CBCCCA",
"%. c #C8D4DB",
"&. c #CBD3DE",
"*. c #CED6DF",
"=. c #CCD9DF",
"-. c #D3D4D3",
";. c #D3D6D7",
":. c #D6D6D5",
">. c #D6D7D6",
",. c #D9D9D8",
"<. c #DADBDA",
"1. c #DBDCDB",
"2. c #CFD7E1",
"3. c #CAD6E6",
"4. c #D0D8E1",
"5. c #D6E3E8",
"6. c #D7E5EF",
"7. c #D5E7EE",
"8. c #CBE0F1",
"9. c #CCE6F9",
"0. c #D8E7F7",
"q. c #DBEDF3",
"w. c #DFEAF7",
"e. c #D4E5F9",
"r. c #DDFBFE",
"t. c #E3E3E3",
"y. c #E3EEFA",
"u. c #E2EFFA",
"i. c #E3EFFA",
"p. c #E4EFFB",
"a. c #E1EEFD",
"s. c #E6F0FB",
"d. c #E7F1FB",
"f. c #E7F7FE",
"g. c #E8F3FC",
"h. c #EDF8F9",
"j. c #EAFAFF",
"k. c None",
/* pixels */
"k.k.k.k.k.k.k.k.k.k.k.k.k.k.k.k.k.k.k.k.k.k.k.k.",
"k.k.k.k.k.k.k.k.;.A ` ' C C k.k.k.k.k.k.k.k.k.k.",
"k.k.k.k.k.k.k.^ Y &.2.4.*.( d V k.k.k.k.k.k.k.k.",
"k.k.k.k.k.k.~ { w.p.s.s.p.y.3.s l k.k.k.k.k.k.k.",
"k.k.k.k.k.! W 0.h 6.y.i.g.T }  .i k.k.k.k.k.k.k.",
"k.k.k.k.k.f ..Q * 7.f.j.=.= [ e.K N k.k.k.k.k.k.",
"k.k.k.k.V 2 ) 8.G q.%.5.h.E X.y.U M k.k.k.k.k.k.",
"k.k.k.k.x 4 6 k.1 k.R k.k.k.] 9.I , k.k.k.k.k.k.",
"k.k.k.k.u 4 7 k.; k.k.k.k.k.k.k.5 $ k.k.k.k.k.k.",
"k.k.k.k.k.a _ k.F k.k.k.k.k.k.k.H O k.k.k.k.k.k.",
"k.k.k.k.k.( | k.k.k.k.k.k.k.r.o.< k.k.k.k.k.k.k.",
"k.k.k.k.k.n p k.k.k.k.k.k.k.k.L + k.k.k.k.k.k.k.",
"k.k.k.k.k.k.@ > P k.k.k.k.k.J # k.k.k.k.k.k.k.k.",
"k.k.k.k.k.k.k.  o > t g y : 8 & k.k.k.k.k.k.k.k.",
"k.k.k.k.k.k.k.k.k.k.. X k.k.j +.0 k.k.k.k.k.k.k.",
"k.k.k.k.k.k.k.k.k.k.k.k.k.k.b t.n k.k.k.k.k.k.k.",
"k.k.k.k.k.k.k.k.k.k.k.k.k.k.k.#.>.w k.k.k.k.k.k.",
"k.k.k.k.k.k.k.k.k.k.k.k.k.k.k.r 1.D & k.k.k.k.k.",
"k.k.k.k.k.k.k.k.k.k.k.k.k.k.k.k.D ,.e k.k.k.k.k.",
"k.k.k.k.k.k.k.k.k.k.k.k.k.k.k.k.k.;.O.9 k.k.k.k.",
"k.k.k.k.k.k.k.k.k.k.k.k.k.k.k.k.k.n <.k k.k.k.k.",
"k.k.k.k.k.k.k.k.k.k.k.k.k.k.k.k.k.k.@.$.q k.k.k.",
"k.k.k.k.k.k.k.k.k.k.k.k.k.k.k.k.k.k.b :.z k.k.k.",
"k.k.k.k.k.k.k.k.k.k.k.k.k.k.k.k.k.k.k.k.k.k.k.k."
};
