/* XPM */
static char *zoom_out_xpm[] = {
/* columns rows colors chars-per-pixel */
"24 24 136 2 ",
"   c #2C415B",
".  c #39516F",
"X  c #3D5675",
"o  c #3E5776",
"O  c #3F5878",
"+  c #445668",
"@  c #5F6261",
"#  c #5B6266",
"$  c #5E656A",
"%  c #5F6B76",
"&  c #636A6F",
"*  c #676E73",
"=  c #6E7374",
"-  c #6D757A",
";  c #6A747D",
":  c #7B7C78",
">  c #7B7C79",
",  c #687F98",
"<  c #78858F",
"1  c #6F8394",
"2  c #7D8893",
"3  c #75889F",
"4  c #7592B8",
"5  c #7291BD",
"6  c #7292BE",
"7  c #7BA6DB",
"8  c #75A8E4",
"9  c #78ADE7",
"0  c #828686",
"q  c #858784",
"w  c #8B8B89",
"e  c #8B8C8A",
"r  c #90928F",
"t  c #9C9D9B",
"y  c #9F9F9F",
"u  c #869CAD",
"i  c #8C9DA8",
"p  c #9C9FA1",
"a  c #959EA9",
"s  c #8499B3",
"d  c #829BBC",
"f  c #96A1AE",
"g  c #99A1AC",
"h  c #8EA0B5",
"j  c #93A9B6",
"k  c #9EABB4",
"l  c #A2A3A1",
"z  c #A4A5A3",
"x  c #A1A4A4",
"c  c #A1A6AA",
"v  c #A9AAA8",
"b  c #A9AAA9",
"n  c #AAACAA",
"m  c #ACACAC",
"M  c #ACADAC",
"N  c #A5ADB6",
"B  c #AFB1B0",
"V  c #A8B2B9",
"C  c #AFB3B8",
"Z  c #ACB5BD",
"A  c #ADB5BD",
"S  c #AEB5BD",
"D  c #AFB6BE",
"F  c #B3B5B5",
"G  c #B8B9B7",
"H  c #B0B5BB",
"J  c #B3B6BA",
"K  c #B3B8BF",
"L  c #B9BAB8",
"P  c #BABBBA",
"I  c #80A1C9",
"U  c #97AEC3",
"Y  c #9EAEC4",
"T  c #94AECB",
"R  c #84AED6",
"E  c #85ABDB",
"W  c #96AFD3",
"Q  c #ACB5C3",
"!  c #AFBFC8",
"~  c #A8B8CE",
"^  c #B3BBC4",
"/  c #B8BCC1",
"(  c #B9BEC6",
")  c #B6BFC9",
"_  c #B7BFCC",
"`  c #99BCE7",
"'  c #91BBE9",
"]  c #BDC1C7",
"[  c #B4C1D4",
"{  c #ABC7E9",
"}  c #BCCBE0",
"|  c #B6CCE8",
" . c #C1C1C0",
".. c #C3C3C2",
"X. c #C6C7C6",
"o. c #C0C3C9",
"O. c #C8C8C8",
"+. c #CBCCCA",
"@. c #CCD3DE",
"#. c #CFD6DF",
"$. c #D4D5D4",
"%. c #D6D7D6",
"&. c #D7D8D6",
"*. c #D4D7D8",
"=. c #D9DAD9",
"-. c #DBDCDB",
";. c #CFD6E0",
":. c #C8D4E4",
">. c #D0D7E2",
",. c #CBDEF4",
"<. c #D3E1E8",
"1. c #C6E1F6",
"2. c #CFE1F6",
"3. c #CFE9FD",
"4. c #D3E2F5",
"5. c #D9E4F2",
"6. c #D8E6F7",
"7. c #D9E7F7",
"8. c #DFE9F7",
"9. c #D7E9F9",
"0. c #DDEAF9",
"q. c #DEECF9",
"w. c #DBEDFC",
"e. c #DFEDFC",
"r. c #E4E4E4",
"t. c #E1EEFA",
"y. c #E3EFFA",
"u. c #E4EFFA",
"i. c #E7F0FB",
"p. c #E7F1FB",
"a. c #E7F0FC",
"s. c #E4F5FF",
"d. c #E6F5FF",
"f. c #EAF9FF",
"g. c #EBFBFF",
"h. c None",
/* pixels */
"h.h.h.h.h.h.h.h.h.h.h.h.h.h.h.h.h.h.h.h.h.h.h.h.",
"h.h.h.h.h.h.h.h.*.K ] o.H H h.h.h.h.h.h.h.h.h.h.",
"h.h.h.h.h.h.h.( Q @.;.>.#._ g F h.h.h.h.h.h.h.h.",
"h.h.h.h.h.h.^ [ 5.u.i.i.u.t.:.g x h.h.h.h.h.h.h.",
"h.h.h.h.h./ ~ 4.7.q.t.t.t.0.6.} a h.h.h.h.h.h.h.",
"h.h.h.h.h.h | ,.w.d.f.f.f.s.9.2.Y C h.h.h.h.h.h.",
"h.h.h.h.G 4 ` 1.! D D A D V <.t.W N h.h.h.h.h.h.",
"h.h.h.h.c 6 8 h.+ . X X O   k 3.E 2 h.h.h.h.h.h.",
"h.h.h.h.p 6 9 h.h.h.h.h.h.h.h.h.7 ; h.h.h.h.h.h.",
"h.h.h.h.h.d ' h.h.h.h.h.h.h.h.h.I & h.h.h.h.h.h.",
"h.h.h.h.h.) { h.h.h.h.h.h.h.h.h.3 h.h.h.h.h.h.h.",
"h.h.h.h.h.B s h.h.h.h.h.h.h.h.T * h.h.h.h.h.h.h.",
"h.h.h.h.h.h.= , R h.h.h.h.h.U - h.h.h.h.h.h.h.h.",
"h.h.h.h.h.h.h.@ % 1 u j i < 0 : h.h.h.h.h.h.h.h.",
"h.h.h.h.h.h.h.h.h.h.# $ h.h.l ..e h.h.h.h.h.h.h.",
"h.h.h.h.h.h.h.h.h.h.h.h.h.h.m r.n h.h.h.h.h.h.h.",
"h.h.h.h.h.h.h.h.h.h.h.h.h.h.h.O.&.r h.h.h.h.h.h.",
"h.h.h.h.h.h.h.h.h.h.h.h.h.h.h.y -.L : h.h.h.h.h.",
"h.h.h.h.h.h.h.h.h.h.h.h.h.h.h.h.L =.y h.h.h.h.h.",
"h.h.h.h.h.h.h.h.h.h.h.h.h.h.h.h.h.$. .q h.h.h.h.",
"h.h.h.h.h.h.h.h.h.h.h.h.h.h.h.h.h.m -.z h.h.h.h.",
"h.h.h.h.h.h.h.h.h.h.h.h.h.h.h.h.h.h.X.+.e h.h.h.",
"h.h.h.h.h.h.h.h.h.h.h.h.h.h.h.h.h.h.v &.v h.h.h.",
"h.h.h.h.h.h.h.h.h.h.h.h.h.h.h.h.h.h.h.h.h.h.h.h."
};
