/* XPM */
static char *zoom_original_xpm[] = {
/* columns rows colors chars-per-pixel */
"32 32 239 2 ",
"   c #1D2D45",
".  c #1D2E45",
"X  c #4D4F48",
"o  c #50514D",
"O  c #535450",
"+  c #545650",
"@  c #565650",
"#  c #555652",
"$  c #5A5E5B",
"%  c #5E5F59",
"&  c #62625A",
"*  c #63635E",
"=  c #44556D",
"-  c #495971",
";  c #5F6568",
":  c #54647B",
">  c #54657C",
",  c #626360",
"<  c #666764",
"1  c #686967",
"2  c #6A6B67",
"3  c #6C6C66",
"4  c #6C6E6B",
"5  c #72736D",
"6  c #71726E",
"7  c #66717E",
"8  c #747572",
"9  c #767773",
"0  c #757475",
"q  c #777777",
"w  c #72787C",
"e  c #7F807D",
"r  c #385A8A",
"t  c #3C5D8C",
"y  c #466894",
"u  c #466995",
"i  c #496B96",
"p  c #496B97",
"a  c #5E7797",
"s  c #657588",
"d  c #66758C",
"f  c #6A788B",
"g  c #707982",
"h  c #727D8C",
"j  c #757F8C",
"k  c #717E90",
"l  c #707F91",
"z  c #5C7BA1",
"x  c #5C7CA2",
"c  c #5B7CAB",
"v  c #4370B0",
"b  c #607DA5",
"n  c #7C848A",
"m  c #768797",
"M  c #7B8694",
"N  c #73839B",
"B  c #70819C",
"V  c #79869A",
"C  c #7C8A9C",
"Z  c #6380A7",
"A  c #6381A8",
"S  c #798BA5",
"D  c #6B8AB3",
"F  c #6E8DB6",
"G  c #5783C4",
"H  c #5584C5",
"J  c #5989CC",
"K  c #5C8BCD",
"L  c #6189C3",
"P  c #618ECC",
"I  c #6692CF",
"U  c #73A4E0",
"Y  c #70A4E7",
"T  c #7BABE6",
"R  c #7CAEE7",
"E  c #74A9EB",
"W  c #808180",
"Q  c #858783",
"!  c #868886",
"~  c #8B8C8A",
"^  c #8F908F",
"/  c #90918F",
"(  c #828B98",
")  c #868F9D",
"_  c #88919F",
"`  c #939492",
"'  c #979897",
"]  c #989997",
"[  c #979B9E",
"{  c #9A9B9A",
"}  c #9C9C99",
"|  c #9F9F9D",
" . c #9FA09E",
".. c #8F98A5",
"X. c #969DA5",
"o. c #8B9AB0",
"O. c #9DA2A5",
"+. c #9FA5AB",
"@. c #9CA4AF",
"#. c #92A4BE",
"$. c #9AA6BA",
"%. c #A3A3A0",
"&. c #A3A4A0",
"*. c #A3A5A2",
"=. c #A9A8A4",
"-. c #A9A9A8",
";. c #A9A8A9",
":. c #ABACA9",
">. c #ABAEAB",
",. c #ACADAC",
"<. c #B2B2AE",
"1. c #B1B2B0",
"2. c #B3B4B2",
"3. c #BDBBB9",
"4. c #BBBDBB",
"5. c #C2C2BE",
"6. c #C3C3BF",
"7. c #97ADC9",
"8. c #84A9DC",
"9. c #A4B8D4",
"0. c #85B2E8",
"q. c #9CBBE6",
"w. c #92BEED",
"e. c #98BEEB",
"r. c #93C0EE",
"t. c #9CC5EF",
"y. c #9BC2F3",
"u. c #90C4FD",
"i. c #A4C3EA",
"p. c #A0C6EE",
"a. c #B0C3E0",
"s. c #A0C6F3",
"d. c #B9D2F1",
"f. c #BFD5F1",
"g. c #BEDEF6",
"h. c #B0D6FB",
"j. c #C0C1C0",
"k. c #C3C4C3",
"l. c #C5C5C5",
"z. c #C6C7C5",
"x. c #C8C7C2",
"c. c #CACAC5",
"v. c #C8C9C7",
"b. c #CACBCA",
"n. c #CDCDCC",
"m. c #CDCECC",
"M. c #CDCECD",
"N. c #CFD0CE",
"B. c #CCD0D1",
"V. c #D3D2D0",
"C. c #D3D4D2",
"Z. c #D7D5D2",
"A. c #D6D7D5",
"S. c #D4D6D6",
"D. c #D7D7D7",
"F. c #DADADA",
"G. c #DBDCDB",
"H. c #DDDDDD",
"J. c #E1E2DF",
"K. c #D4DEEE",
"L. c #C2D6F1",
"P. c #C1D8F3",
"I. c #CCDCF3",
"U. c #CDDDF3",
"Y. c #C9DCF4",
"T. c #D1DFF0",
"R. c #D1E2F5",
"E. c #D4E3F7",
"W. c #D7E4F5",
"Q. c #D8E5F6",
"!. c #D8E5F7",
"~. c #DFE9F7",
"^. c #D0E4FD",
"/. c #DBEBF9",
"(. c #DEEAF9",
"). c #DFEBF9",
"_. c #DEF5FE",
"`. c #E0E1E0",
"'. c #E2E1E0",
"]. c #E2E3E1",
"[. c #E9E9E6",
"{. c #E8E9E8",
"}. c #EAEBEA",
"|. c #EDEDEA",
" X c #EDEEEC",
".X c #EFF0EF",
"XX c #F1F0EE",
"oX c #E0EAF7",
"OX c #E1ECF7",
"+X c #E2EBF8",
"@X c #E0ECF9",
"#X c #E2ECF8",
"$X c #E3EDF9",
"%X c #E1ECFA",
"&X c #E1EDFA",
"*X c #E1EFFA",
"=X c #E2EEFA",
"-X c #E3EEFA",
";X c #E4EDF8",
":X c #E4EEF8",
">X c #E5EEF8",
",X c #E2F0FB",
"<X c #E3F1FB",
"1X c #E3F4FB",
"2X c #E3F2FF",
"3X c #E2F3FF",
"4X c #E5F6FC",
"5X c #E6F7FC",
"6X c #EDF4FB",
"7X c #EAF7FF",
"8X c #EBF7FF",
"9X c #EDF4FC",
"0X c #EEF4FE",
"qX c #EFF6FF",
"wX c #E2F9FF",
"eX c #E2FBFF",
"rX c #E7FAFD",
"tX c #E9FBFE",
"yX c #EBFBFF",
"uX c #E9FFFF",
"iX c #EAFFFF",
"pX c #EBFFFF",
"aX c #ECFCFF",
"sX c #ECFDFF",
"dX c #EDFEFF",
"fX c #ECFFFF",
"gX c #EDFFFF",
"hX c #EEFFFF",
"jX c #F2F1F0",
"kX c #F2F3F2",
"lX c #F4F4F4",
"zX c #F0F7FF",
"xX c #F1F7FF",
"cX c #F3FFFF",
"vX c #F4FFFF",
"bX c #FBFBFA",
"nX c #FCFFFF",
"mX c gray100",
"MX c None",
/* pixels */
"MXMXMXMXMXMXMXMXMXMXMXMXMXMXMXMXMXMXMXMXMXMXMXMXMXMXMXMXMXMXMXMX",
"MXMXMXMXMXMXMXMXMXMXMXMX XjXXX|.[.'.MXMXMXMXMXMXMXMXMXMXMXMXMXMX",
"MXMXMXMXMXMXMXMXMXMX[.B.M ) _ ..( j z.m.MXMXMXMXMXMXMXMXMXMXMXMX",
"MXMXMXMXMXMXMXMXMXJ.V $.xXqX6XqXxX0Xo.h 6.MXMXMXMXMXMXMXMXMXMXMX",
"MXMXMXMXMXMXMXMXS.B oXoX#X$X$X$X$XoX$XK.d <.MXMXMXMXMXMXMXMXMXMX",
"MXMXMXMXMXMXMXZ.S !.W.8X).$X$X$X$X@XqX!.T.k &.MXMXMXMXMXMXMXMXMX",
"MXMXMXMXMXMXm.@.a.I.aX  gX$X<X<X,XnX  3XI.9.O.MXMXMXMXMXMXMXMXMX",
"MXMXMXMXMXMXc.b L.^.> a iX1X4XrXcX: a 3XR.Y.B V.MXMXMXMXMXMXMXMX",
"MXMXMXMXMXMX3.v i.P.cXA gXrXMXrXMXvXA rX$XE.c x.MXMXMXMXMXMXMXMX",
"MXMXMXMXMXMX+.H U MXMXx MXMX- MXMXMXz gX/.d.L } MXMXMXMXMXMXMXMX",
"MXMXMXMXMXMXX.K T MXMXi MXMXiXMXMXMXy MXMXp.P 8 MXMXMXMXMXMXMXMX",
"MXMXMXMXMXMX[ J R MXMXi MXMXMXMXMXMXy MXMXw.I 3 MXMXMXMXMXMXMXMX",
"MXMXMXMXMXMX=.G 0.MXMXt MXMX= MXMXMXr MXMXt.F & MXMXMXMXMXMXMXMX",
"MXMXMXMXMXMX6.#.f.MXMXiXwXMXgXMXMXMXiXeXMXe.f # MXMXMXMXMXMXMXMX",
"MXMXMXMXMXMXMXS.q.r.MXMXMXMXMXMXMXMXMXMXg.8.% MXMXMXMXMXMXMXMXMX",
"MXMXMXMXMXMXMX&.C Y MXMXMXMXMXMXMXMXMXMXy.w O MXMXMXMXMXMXMXMXMX",
"MXMXMXMXMXMXMXMX5 d E MXMXMXMXMXMXMX_.s.n # MXMXMXMXMXMXMXMXMXMX",
"MXMXMXMXMXMXMXMXMX* ; D u.MXMXMXMXh.7.4 o MXMXMXMXMXMXMXMXMXMXMX",
"MXMXMXMXMXMXMXMXMXMXMX# $ 7 m m g 2 X :.] MXMXMXMXMXMXMXMXMXMXMX",
"MXMXMXMXMXMXMXMXMXMXMXMXMXMXo # MXMXMX{ F.| < MXMXMXMXMXMXMXMXMX",
"MXMXMXMXMXMXMXMXMXMXMXMXMXMXMXMXMXMXMX;.nXj.Q MXMXMXMXMXMXMXMXMX",
"MXMXMXMXMXMXMXMXMXMXMXMXMXMXMXMXMXMXMX0 H.{.,.4 MXMXMXMXMXMXMXMX",
"MXMXMXMXMXMXMXMXMXMXMXMXMXMXMXMXMXMXMXMX/ bXb.` MXMXMXMXMXMXMXMX",
"MXMXMXMXMXMXMXMXMXMXMXMXMXMXMXMXMXMXMXMXMXz.XX2.8 MXMXMXMXMXMXMX",
"MXMXMXMXMXMXMXMXMXMXMXMXMXMXMXMXMXMXMXMXMXn .XC. ., MXMXMXMXMXMX",
"MXMXMXMXMXMXMXMXMXMXMXMXMXMXMXMXMXMXMXMXMXMX,.lX4.e MXMXMXMXMXMX",
"MXMXMXMXMXMXMXMXMXMXMXMXMXMXMXMXMXMXMXMXMXMXq '.H.=.1 MXMXMXMXMX",
"MXMXMXMXMXMXMXMXMXMXMXMXMXMXMXMXMXMXMXMXMXMXMX] kXk.~ MXMXMXMXMX",
"MXMXMXMXMXMXMXMXMXMXMXMXMXMXMXMXMXMXMXMXMXMXMXMXm.'.2.5 MXMXMXMX",
"MXMXMXMXMXMXMXMXMXMXMXMXMXMXMXMXMXMXMXMXMXMXMXMX! {.c./ MXMXMXMX",
"MXMXMXMXMXMXMXMXMXMXMXMXMXMXMXMXMXMXMXMXMXMXMXMXMXD.B.*.MXMXMXMX",
"MXMXMXMXMXMXMXMXMXMXMXMXMXMXMXMXMXMXMXMXMXMXMXMXMXMXMXMXMXMXMXMX"
};
