/* XPM */
static char *zoom_in_xpm[] = {
/* columns rows colors chars-per-pixel */
"24 24 144 2 ",
"   c #2E415C",
".  c #354E6D",
"X  c #46596A",
"o  c #445C7C",
"O  c #5F6261",
"+  c #5B6266",
"@  c #5E656A",
"#  c #5F6B77",
"$  c #636A6F",
"%  c #676E73",
"&  c #6E7374",
"*  c #6D757A",
"=  c #6A747D",
"-  c #7A7C78",
";  c #7B7C79",
":  c #3B5D8C",
">  c #526884",
",  c #637A98",
"<  c #687F98",
"1  c #79858F",
"2  c #6F8395",
"3  c #7D8893",
"4  c #7588A0",
"5  c #758FAE",
"6  c #748EB0",
"7  c #7592B8",
"8  c #7292BD",
"9  c #7292BE",
"0  c #7BA6DB",
"q  c #75A8E4",
"w  c #77ADE7",
"e  c #828687",
"r  c #868784",
"t  c #8A8B88",
"y  c #8B8C8A",
"u  c #90918F",
"i  c #9C9D9B",
"p  c #9F9F9E",
"a  c #8996A2",
"s  c #869CAD",
"d  c #8C9EA8",
"f  c #9B9FA1",
"g  c #959FA9",
"h  c #8095B1",
"j  c #8499B3",
"k  c #8C9DB3",
"l  c #839BBC",
"z  c #96A1AE",
"x  c #99A1AB",
"c  c #8FA0B6",
"v  c #93A4B6",
"b  c #93A9B6",
"n  c #A2A2A0",
"m  c #A4A5A3",
"M  c #A1A4A4",
"N  c #A8AAA7",
"B  c #A0A5AA",
"V  c #A9AAA9",
"C  c #AAABA9",
"Z  c #ACABAC",
"A  c #ACADAC",
"S  c #AFB1AF",
"D  c #A1ADB6",
"F  c #A4ACB5",
"G  c #A7B1BB",
"H  c #A8B2BA",
"J  c #AEB3B8",
"K  c #ADB4BC",
"L  c #B3B4B4",
"P  c #B7B8B7",
"I  c #B2B6B9",
"U  c #B0B5BB",
"Y  c #B3B8BF",
"T  c #B9BAB8",
"R  c #BABBBA",
"E  c #8EA4C0",
"W  c #80A1C8",
"Q  c #97AEC3",
"!  c #9EAFC5",
"~  c #94AECA",
"^  c #84AED7",
"/  c #85ABDA",
"(  c #97B0D2",
")  c #ACB6C3",
"_  c #A1B8CD",
"`  c #AFBECB",
"'  c #A8B8CF",
"]  c #B7BCC2",
"[  c #B3BBC4",
"{  c #B9BEC6",
"}  c #B3BFCA",
"|  c #B6BEC9",
" . c #99BCE7",
".. c #91BBE9",
"X. c #AFC0C8",
"o. c #BDC1C7",
"O. c #B7C0CC",
"+. c #B5C6CE",
"@. c #BFC3C8",
"#. c #B5C1D4",
"$. c #ABC7E9",
"%. c #BCCCE0",
"&. c #B6CCE8",
"*. c #C1C2C0",
"=. c #C2C2C1",
"-. c #C6C7C6",
";. c #C7C8C7",
":. c #CBCCCA",
">. c #CCD4DE",
",. c #CFD6DF",
"<. c #D4D4D4",
"1. c #D6D7D5",
"2. c #D4D6D7",
"3. c #D6D7D6",
"4. c #D9DAD9",
"5. c #DBDCDB",
"6. c #CED6E1",
"7. c #CFD7E2",
"8. c #C8D4E4",
"9. c #CBDEF4",
"0. c #D3E1E9",
"q. c #C7E1F6",
"w. c #CFE0F6",
"e. c #CFE9FD",
"r. c #D3E2F5",
"t. c #D9E4F3",
"y. c #D8E6F7",
"u. c #D9E6F7",
"i. c #DCE9F2",
"p. c #DFEEF3",
"a. c #DFE9F7",
"s. c #D8E9F9",
"d. c #DDEBF9",
"f. c #DAECFC",
"g. c #DFEDFC",
"h. c #E3E3E3",
"j. c #E4EEFA",
"k. c #E3F1FC",
"l. c #E5F5FF",
"z. c #E8F1FC",
"x. c #ECF5FF",
"c. c #F1FAFF",
"v. c #F0FEFF",
"b. c None",
/* pixels */
"b.b.b.b.b.b.b.b.b.b.b.b.b.b.b.b.b.b.b.b.b.b.b.b.",
"b.b.b.b.b.b.b.b.2.Y @.=.U U b.b.b.b.b.b.b.b.b.b.",
"b.b.b.b.b.b.b.{ ) >.6.6.6.| x I b.b.b.b.b.b.b.b.",
"b.b.b.b.b.b.[ #.t.j.x.c.z.a.8.x M b.b.b.b.b.b.b.",
"b.b.b.b.b.] ' r.u.k.O.a a.a.s.%.g b.b.b.b.b.b.b.",
"b.b.b.b.b.c &.9.f.v.v > p.l.s.w.! J b.b.b.b.b.b.",
"b.b.b.b.P 7  .q.X.K k 5 G G 0.g.( F b.b.b.b.b.b.",
"b.b.b.b.B 9 q b.X . < 5 o   D e./ 3 b.b.b.b.b.b.",
"b.b.b.b.f 9 w b.+.b.E 6 b.` b.b.0 = b.b.b.b.b.b.",
"b.b.b.b.b.l ..b.b.b.b.: b.b.b.b.W $ b.b.b.b.b.b.",
"b.b.b.b.b.| $.b.b.b.b._ b.b.b.b.4 b.b.b.b.b.b.b.",
"b.b.b.b.b.S j b.b.b.b.b.b.b.b.~ % b.b.b.b.b.b.b.",
"b.b.b.b.b.b.& < ^ b.b.b.b.b.Q * b.b.b.b.b.b.b.b.",
"b.b.b.b.b.b.b.O # 2 s b d 1 e - b.b.b.b.b.b.b.b.",
"b.b.b.b.b.b.b.b.b.b.+ @ b.b.n =.y b.b.b.b.b.b.b.",
"b.b.b.b.b.b.b.b.b.b.b.b.b.b.A h.C b.b.b.b.b.b.b.",
"b.b.b.b.b.b.b.b.b.b.b.b.b.b.b.;.2.u b.b.b.b.b.b.",
"b.b.b.b.b.b.b.b.b.b.b.b.b.b.b.p 5.T ; b.b.b.b.b.",
"b.b.b.b.b.b.b.b.b.b.b.b.b.b.b.b.R 4.i b.b.b.b.b.",
"b.b.b.b.b.b.b.b.b.b.b.b.b.b.b.b.b.<.=.r b.b.b.b.",
"b.b.b.b.b.b.b.b.b.b.b.b.b.b.b.b.b.A 5.m b.b.b.b.",
"b.b.b.b.b.b.b.b.b.b.b.b.b.b.b.b.b.b.;.:.y b.b.b.",
"b.b.b.b.b.b.b.b.b.b.b.b.b.b.b.b.b.b.V 2.N b.b.b.",
"b.b.b.b.b.b.b.b.b.b.b.b.b.b.b.b.b.b.b.b.b.b.b.b."
};
