/* XPM */
static char *zoom_in_xpm[] = {
/* columns rows colors chars-per-pixel */
"32 32 247 2 ",
"   c #1E2A3C",
".  c #1F2C3D",
"X  c #1F324B",
"o  c #1F334B",
"O  c #27364D",
"+  c #28374E",
"@  c #334358",
"#  c #334458",
"$  c #38495F",
"%  c #4D4E47",
"&  c #4F514C",
"*  c #535450",
"=  c #545650",
"-  c #565650",
";  c #555752",
":  c #5A5D5B",
">  c #5E5F59",
",  c #62625A",
"<  c #63635E",
"1  c #5F6568",
"2  c #626360",
"3  c #666764",
"4  c #686A67",
"5  c #6A6B67",
"6  c #6C6C66",
"7  c #6B6D6B",
"8  c #6B6E6B",
"9  c #73736C",
"0  c #71726F",
"q  c #65717E",
"w  c #747672",
"e  c #757475",
"r  c #757774",
"t  c #777777",
"y  c #72787C",
"u  c #7F807D",
"i  c #315284",
"p  c #325485",
"a  c #406390",
"s  c #416390",
"d  c #416594",
"f  c #416695",
"g  c #476B99",
"h  c #486D9A",
"j  c #657487",
"k  c #6F7982",
"l  c #65758C",
"z  c #6A788B",
"x  c #717D8B",
"c  c #747E8B",
"v  c #717E8F",
"b  c #607896",
"n  c #6F7F91",
"m  c #617998",
"M  c #5F7CA5",
"N  c #5B7BAA",
"B  c #426FB0",
"V  c #7C848A",
"C  c #6F809B",
"Z  c #758797",
"A  c #7A8593",
"S  c #72839B",
"D  c #798599",
"F  c #7C8A9C",
"G  c #6A87AA",
"H  c #6B87AA",
"J  c #6D8AAF",
"K  c #6F8BAF",
"L  c #798AA4",
"P  c #7F93AD",
"I  c #7F94AD",
"U  c #6B8AB3",
"Y  c #6F8DB6",
"T  c #5683C4",
"R  c #5484C5",
"E  c #5989CC",
"W  c #5B8BCD",
"Q  c #6189C3",
"!  c #618ECC",
"~  c #6692CF",
"^  c #73A4E0",
"/  c #7BABE6",
"(  c #7CAEE7",
")  c #70A4E8",
"_  c #74A9EB",
"`  c #808180",
"'  c #858783",
"]  c #868786",
"[  c #8C8D8B",
"{  c #8F918F",
"}  c #90918F",
"|  c #818A98",
" . c #858E9C",
".. c #87909E",
"X. c #939492",
"o. c #979897",
"O. c #989997",
"+. c #9A9B9A",
"@. c #9C9C9A",
"#. c #989B9E",
"$. c #9F9F9D",
"%. c #9FA09E",
"&. c #8F97A5",
"*. c #8B9AAF",
"=. c #969DA5",
"-. c #879EBC",
";. c #9DA2A5",
":. c #9BA4AF",
">. c #92A4BE",
",. c #99A6BA",
"<. c #A3A4A0",
"1. c #A3A5A2",
"2. c #A4A5A0",
"3. c #AAA9A4",
"4. c #A0A5AB",
"5. c #A9A9A9",
"6. c #A9AAA8",
"7. c #ABACAA",
"8. c #ABADAB",
"9. c #ACADAC",
"0. c #B3B2AF",
"q. c #B1B2B0",
"w. c #B3B4B2",
"e. c #BDBCB9",
"r. c #BCBDBB",
"t. c #BFC0BF",
"y. c #C3C2BE",
"u. c #97ADCA",
"i. c #84A9DD",
"p. c #A4B8D4",
"a. c #84B2E8",
"s. c #9CBBE6",
"d. c #92BFED",
"f. c #98BEEC",
"g. c #93C0EE",
"h. c #9BC3F3",
"j. c #9CC5F0",
"k. c #90C4FE",
"l. c #A4C4EB",
"z. c #A0C6EE",
"x. c #B0C4E0",
"c. c #A0C7F3",
"v. c #B9D3F1",
"b. c #BFD5F1",
"n. c #BFDFF7",
"m. c #B0D6FC",
"M. c #C4C3C0",
"N. c #C3C4C3",
"B. c #C6C7C5",
"V. c #C6C6C6",
"C. c #C9C8C3",
"Z. c #C9CAC7",
"A. c #CBCBC6",
"S. c #CACBCA",
"D. c #CECECC",
"F. c #CECECD",
"G. c #CECFCE",
"H. c #D0D1CF",
"J. c #CDD0D1",
"K. c #D4D3D1",
"L. c #D4D5D3",
"P. c #D7D6D3",
"I. c #D5D6D6",
"U. c #D7D8D6",
"Y. c #D7D8D7",
"T. c #DADBDA",
"R. c #DBDCDB",
"E. c #DDDDDD",
"W. c #E2E2DF",
"Q. c #D5DFEF",
"!. c #C2D7F1",
"~. c #C5DAF2",
"^. c #C3DBF4",
"/. c #CBDCF2",
"(. c #CDDDF3",
"). c #C9DCF5",
"_. c #CEE2F7",
"`. c #CEE6F8",
"'. c #D2E0F1",
"]. c #D1E2F5",
"[. c #D2E2F5",
"{. c #D3E3F6",
"}. c #D7E4F5",
"|. c #D5E4F7",
" X c #D8E5F5",
".X c #DBE7F6",
"XX c #DCE8F7",
"oX c #D5E6F8",
"OX c #D9E5F8",
"+X c #D8E7F8",
"@X c #DAE9F9",
"#X c #D8EAF9",
"$X c #DBEBF9",
"%X c #DEEAF8",
"&X c #DFEBF9",
"*X c #DBEDF9",
"=X c #DDEDF9",
"-X c #DFEDFA",
";X c #DEEFFA",
":X c #DEF6FE",
">X c #DCFAFD",
",X c #E0E1E0",
"<X c #E3E2E0",
"1X c #E2E3E1",
"2X c #EAE9E7",
"3X c #EAEAE7",
"4X c #E8E9E8",
"5X c #EAEBEA",
"6X c #EEEEEB",
"7X c #EEEFED",
"8X c #E2EDF7",
"9X c #E0EAF8",
"0X c #E1EBF8",
"qX c #E2ECF8",
"wX c #E3EDF8",
"eX c #E3ECF9",
"rX c #E3EDF9",
"tX c #E1EDFA",
"yX c #E1EDFB",
"uX c #E3EDFA",
"iX c #E4EDF8",
"pX c #E5EDF8",
"aX c #E0F1FB",
"sX c #E0F3FB",
"dX c #EDF4FC",
"fX c #EDF4FD",
"gX c #EFF5FF",
"hX c #E8FFFF",
"jX c #EEFDFF",
"kX c #EFFFFF",
"lX c #F0F1F0",
"zX c #F3F1F0",
"xX c #F4F2F1",
"cX c #F2F4F2",
"vX c #F4F4F4",
"bX c #F0F6FF",
"nX c #F1F7FF",
"mX c #F2F8FF",
"MX c #F1FFFF",
"NX c #F3FFFF",
"BX c #F5FFFF",
"VX c #F6FFFF",
"CX c #FCFCFB",
"ZX c #F9FFFF",
"AX c #FAFFFF",
"SX c gray100",
"DX c None",
/* pixels */
"DXDXDXDXDXDXDXDXDXDXDXDXDXDXDXDXDXDXDXDXDXDXDXDXDXDXDXDXDXDXDXDX",
"DXDXDXDXDXDXDXDXDXDXDXDX7XxXzX7X2X<XDXDXDXDXDXDXDXDXDXDXDXDXDXDX",
"DXDXDXDXDXDXDXDXDXDX2XJ.A  ...&.| c B.F.DXDXDXDXDXDXDXDXDXDXDXDX",
"DXDXDXDXDXDXDXDXDXW.D ,.mXbXdXdXmXdX*.x y.DXDXDXDXDXDXDXDXDXDXDX",
"DXDXDXDXDXDXDXDXI.S 9X9XwXwXpXwXpXwXwXQ.l 0.DXDXDXDXDXDXDXDXDXDX",
"DXDXDXDXDXDXDXP.L OX}..X$XwXBXBXpX$XOX.X'.v <.DXDXDXDXDXDXDXDXDX",
"DXDXDXDXDXDXF.:.x./.[.#X=XMXO O kXwX#X{.(.p.;.DXDXDXDXDXDXDXDXDX",
"DXDXDXDXDXDXA.M !.~._.#X=XBXm b MXaX*XoX[.).S K.DXDXDXDXDXDXDXDX",
"DXDXDXDXDXDXe.B l.^.`.MXAXDXK K DXDXBXaXwX|.N C.DXDXDXDXDXDXDXDX",
"DXDXDXDXDXDX4.R ^ DXhX. $ # P I @ $   BX#Xv.Q @.DXDXDXDXDXDXDXDX",
"DXDXDXDXDXDX=.E / DXDXo h f -.-.f g O DXDXc.! w DXDXDXDXDXDXDXDX",
"DXDXDXDXDXDX#.E ( DX>XAXDXDXG G DXDXDXDXDXd.~ 6 DXDXDXDXDXDXDXDX",
"DXDXDXDXDXDX3.T a.DXDXDXDXDXs s DXDXDXDXDXj.Y , DXDXDXDXDXDXDXDX",
"DXDXDXDXDXDXM.>.b.DXDXDXDXDXp i DXDXDXDXDXf.z ; DXDXDXDXDXDXDXDX",
"DXDXDXDXDXDXDXI.s.g.DXDXDXDXkXkXDXDXDXDXn.i.> DXDXDXDXDXDXDXDXDX",
"DXDXDXDXDXDXDX2.F ) DXDXDXDXDXDXDXDXDXDXh.y * DXDXDXDXDXDXDXDXDX",
"DXDXDXDXDXDXDXDX9 j _ DXDXDXDXDXDXDX:Xc.V ; DXDXDXDXDXDXDXDXDXDX",
"DXDXDXDXDXDXDXDXDX< 1 U k.DXDXDXDXm.u.8 & DXDXDXDXDXDXDXDXDXDXDX",
"DXDXDXDXDXDXDXDXDXDXDX; : q n Z k 5 % 7.+.DXDXDXDXDXDXDXDXDXDXDX",
"DXDXDXDXDXDXDXDXDXDXDXDXDXDX* * DXDXDX+.T.$.3 DXDXDXDXDXDXDXDXDX",
"DXDXDXDXDXDXDXDXDXDXDXDXDXDXDXDXDXDXDX5.SXt.' DXDXDXDXDXDXDXDXDX",
"DXDXDXDXDXDXDXDXDXDXDXDXDXDXDXDXDXDXDXe E.4X8.7 DXDXDXDXDXDXDXDX",
"DXDXDXDXDXDXDXDXDXDXDXDXDXDXDXDXDXDXDXDX{ CXS.X.DXDXDXDXDXDXDXDX",
"DXDXDXDXDXDXDXDXDXDXDXDXDXDXDXDXDXDXDXDXDXB.zXw.e DXDXDXDXDXDXDX",
"DXDXDXDXDXDXDXDXDXDXDXDXDXDXDXDXDXDXDXDXDX` lXL.%.< DXDXDXDXDXDX",
"DXDXDXDXDXDXDXDXDXDXDXDXDXDXDXDXDXDXDXDXDXDX8.vXr.u DXDXDXDXDXDX",
"DXDXDXDXDXDXDXDXDXDXDXDXDXDXDXDXDXDXDXDXDXDXt <XR.7.4 DXDXDXDXDX",
"DXDXDXDXDXDXDXDXDXDXDXDXDXDXDXDXDXDXDXDXDXDXDXo.cXN.[ DXDXDXDXDX",
"DXDXDXDXDXDXDXDXDXDXDXDXDXDXDXDXDXDXDXDXDXDXDXDXG.1Xq.0 DXDXDXDX",
"DXDXDXDXDXDXDXDXDXDXDXDXDXDXDXDXDXDXDXDXDXDXDXDX] 4XZ.X.DXDXDXDX",
"DXDXDXDXDXDXDXDXDXDXDXDXDXDXDXDXDXDXDXDXDXDXDXDXDXY.H.<.DXDXDXDX",
"DXDXDXDXDXDXDXDXDXDXDXDXDXDXDXDXDXDXDXDXDXDXDXDXDXDXDXDXDXDXDXDX"
};
