/* XPM */
static char *zoom_out_xpm[] = {
/* columns rows colors chars-per-pixel */
"32 32 239 2 ",
"   c #1C2A3A",
".  c #1E2A3C",
"X  c #1D304A",
"o  c #1F324B",
"O  c #36475B",
"+  c #36465C",
"@  c #37475C",
"#  c #37485E",
"$  c #4C4E47",
"%  c #4F514C",
"&  c #56564F",
"*  c #535450",
"=  c #535550",
"-  c #555650",
";  c #555752",
":  c #5A5D5A",
">  c #5E5F58",
",  c #62625A",
"<  c #63635E",
"1  c #5F6567",
"2  c #626360",
"3  c #666764",
"4  c #676967",
"5  c #6A6A66",
"6  c #6D6C66",
"7  c #6B6D6A",
"8  c #6B6E6A",
"9  c #73736C",
"0  c #71726F",
"q  c #65707D",
"w  c #737571",
"e  c #767773",
"r  c #757475",
"t  c #777777",
"y  c #72787C",
"u  c #7F807D",
"i  c #456A97",
"p  c #466A97",
"a  c #466B98",
"s  c #476B98",
"d  c #476C9A",
"f  c #486D99",
"g  c #657487",
"h  c #6F7982",
"j  c #64748B",
"k  c #69788B",
"l  c #717C8B",
"z  c #747D8A",
"x  c #707D8F",
"c  c #6F7F91",
"v  c #6E7F9B",
"b  c #5E7CA4",
"n  c #5A7AAA",
"m  c #416FB0",
"M  c #7C848A",
"N  c #758697",
"B  c #798492",
"V  c #72829A",
"C  c #788499",
"Z  c #7C8A9C",
"A  c #788AA4",
"S  c #6B8AB3",
"D  c #6E8DB7",
"F  c #5582C3",
"G  c #5483C5",
"H  c #5889CC",
"J  c #5B8ACD",
"K  c #6089C3",
"L  c #618ECD",
"P  c #6692D0",
"I  c #73A5E0",
"U  c #7BABE6",
"Y  c #7CAEE7",
"T  c #70A4E8",
"R  c #74A9EB",
"E  c #808180",
"W  c #858783",
"Q  c #868786",
"!  c #8C8D8B",
"~  c #90918F",
"^  c #808997",
"/  c #848D9B",
"(  c #868F9D",
")  c #909190",
"_  c #939492",
"`  c #979897",
"'  c #999A98",
"]  c #9A9B9A",
"[  c #9D9D9A",
"{  c #989B9E",
"}  c #9FA09E",
"|  c #A0A09E",
" . c #8E96A4",
".. c #8A99AF",
"X. c #969DA5",
"o. c #9DA2A5",
"O. c #9BA4AE",
"+. c #92A4BE",
"@. c #99A5B9",
"#. c #A3A4A0",
"$. c #A5A5A1",
"%. c #A4A6A3",
"&. c #AAA9A4",
"*. c #A0A6AB",
"=. c #A9AAA8",
"-. c #AAAAAA",
";. c #ABADAB",
":. c #ACADAA",
">. c #ACAEAC",
",. c #B3B3AF",
"<. c #B1B2B0",
"1. c #B3B4B2",
"2. c #BBBCBB",
"3. c #BEBDB9",
"4. c #C3C3BF",
"5. c #96ADCA",
"6. c #84A9DD",
"7. c #A4B8D4",
"8. c #84B2E8",
"9. c #9CBAE6",
"0. c #92BFED",
"q. c #98BFEC",
"w. c #93C0EE",
"e. c #9CC6F0",
"r. c #9BC3F4",
"t. c #90C4FE",
"y. c #A4C4EB",
"u. c #A0C6EE",
"i. c #B0C3E0",
"p. c #A0C7F4",
"a. c #B9D3F2",
"s. c #BFDFF7",
"d. c #B0D7FD",
"f. c #C0C1C0",
"g. c #C3C4C3",
"h. c #C4C4C0",
"j. c #C6C6C6",
"k. c #C7C7C6",
"l. c #CAC9C4",
"z. c #CCCBC6",
"x. c #C9CAC8",
"c. c #CACBCA",
"v. c #CECECD",
"b. c #CFCFCD",
"n. c #CECFCE",
"m. c #D0D1CF",
"M. c #CDD0D2",
"N. c #D4D5D3",
"B. c #D6D4D2",
"V. c #D6D7D6",
"C. c #D8D6D3",
"Z. c #D7D8D6",
"A. c #D7D8D7",
"S. c #DBDCDB",
"D. c #DBDCDC",
"F. c gray87",
"G. c #D5DFEF",
"H. c #C2D7F1",
"J. c #C0D6F2",
"K. c #C5DAF2",
"L. c #C3DBF4",
"P. c #CBDCF2",
"I. c #CDDDF3",
"U. c #CADDF5",
"Y. c #CEE2F7",
"T. c #CEE6F8",
"R. c #D2E0F1",
"E. c #D1E2F5",
"W. c #D2E2F5",
"Q. c #D3E3F6",
"!. c #D7E4F5",
"~. c #D5E4F7",
"^. c #D8E5F5",
"/. c #DBE7F6",
"(. c #DCE8F7",
"). c #D4E6F8",
"_. c #D9E6F8",
"`. c #D8E7F8",
"'. c #DAE9F9",
"]. c #D8EAF9",
"[. c #DEEAF8",
"{. c #DFEBF9",
"}. c #DBECF9",
"|. c #DAEDF9",
" X c #DDEDF9",
".X c #DFEDFA",
"XX c #DFF0FA",
"oX c #DEF6FF",
"OX c #E1E1E1",
"+X c #E2E3E0",
"@X c #E2E3E1",
"#X c #E4E3E2",
"$X c #EAEAE7",
"%X c #E9EAE9",
"&X c #ECEBE9",
"*X c #EBECEB",
"=X c #F0EFED",
"-X c #EFF0EE",
";X c #E2EDF7",
":X c #E0EAF8",
">X c #E1EBF8",
",X c #E0ECF9",
"<X c #E3ECF8",
"1X c #E3ECF9",
"2X c #E3EDF9",
"3X c #E1EDFA",
"4X c #E1EFFA",
"5X c #E2EEFA",
"6X c #E3EEFA",
"7X c #E4EDF8",
"8X c #E4EEF8",
"9X c #E5EEF8",
"0X c #E2F0FB",
"qX c #E3F1FB",
"wX c #E0F2FB",
"eX c #E0F3FB",
"rX c #E2F4FB",
"tX c #E4F6FC",
"yX c #E5F6FC",
"uX c #E5F7FC",
"iX c #EEF4FC",
"pX c #EEF4FD",
"aX c #E6FFFF",
"sX c #F0F1F0",
"dX c #F4F2F1",
"fX c #F3F4F3",
"gX c #F5F4F2",
"hX c gray96",
"jX c #F0F5FF",
"kX c #F0F7FF",
"lX c #F1F8FF",
"zX c #F3F8FF",
"xX c azure",
"cX c #F6FFFF",
"vX c #F9FFFF",
"bX c #FAFFFF",
"nX c #FDFDFC",
"mX c gray100",
"MX c None",
/* pixels */
"MXMXMXMXMXMXMXMXMXMXMXMXMXMXMXMXMXMXMXMXMXMXMXMXMXMXMXMXMXMXMXMX",
"MXMXMXMXMXMXMXMXMXMXMXMX-XgXdX=X&X#XMXMXMXMXMXMXMXMXMXMXMXMXMXMX",
"MXMXMXMXMXMXMXMXMXMX$XM.B / (  .^ z k.b.MXMXMXMXMXMXMXMXMXMXMXMX",
"MXMXMXMXMXMXMXMXMX+XC @.zXkXiXiXkXkX..l 4.MXMXMXMXMXMXMXMXMXMXMX",
"MXMXMXMXMXMXMXMXZ.v :X:X;X6X8X8X8X:X6XG.j ,.MXMXMXMXMXMXMXMXMXMX",
"MXMXMXMXMXMXMXC.A `.!./.(.6X6X6X6X:X'.!.R.l #.MXMXMXMXMXMXMXMXMX",
"MXMXMXMXMXMXb.O.i.P.E.`. X6X0X0X0X X'.Q.I.7.o.MXMXMXMXMXMXMXMXMX",
"MXMXMXMXMXMXz.b H.K.Y.].XXrXuXuXuX0X|.`.E.U.V V.MXMXMXMXMXMXMXMX",
"MXMXMXMXMXMX3.m y.L.T.xXvXMXMXMXMXMXcX0X6X!.n l.MXMXMXMXMXMXMXMX",
"MXMXMXMXMXMX*.G I MXaX. # @ O @ # #   vX'.a.K [ MXMXMXMXMXMXMXMX",
"MXMXMXMXMXMXX.H U MXMXo f s s s i d X MXMXu.L w MXMXMXMXMXMXMXMX",
"MXMXMXMXMXMX{ H Y MXMXMXMXMXMXMXMXMXMXMXMXw.P 6 MXMXMXMXMXMXMXMX",
"MXMXMXMXMXMX&.F 8.MXMXMXMXMXMXMXMXMXMXMXMXe.D , MXMXMXMXMXMXMXMX",
"MXMXMXMXMXMXh.+.H.MXMXMXMXMXMXMXMXMXMXMXMXq.k ; MXMXMXMXMXMXMXMX",
"MXMXMXMXMXMXMXV.9.w.MXMXMXMXMXMXMXMXMXMXs.6.> MXMXMXMXMXMXMXMXMX",
"MXMXMXMXMXMXMX$.Z T MXMXMXMXMXMXMXMXMXMXr.y * MXMXMXMXMXMXMXMXMX",
"MXMXMXMXMXMXMXMX9 g R MXMXMXMXMXMXMXoXp.M ; MXMXMXMXMXMXMXMXMXMX",
"MXMXMXMXMXMXMXMXMX< 1 S t.MXMXMXMXd.5.7 % MXMXMXMXMXMXMXMXMXMXMX",
"MXMXMXMXMXMXMXMXMXMXMX& : q V N h 5 $ :.] MXMXMXMXMXMXMXMXMXMXMX",
"MXMXMXMXMXMXMXMXMXMXMXMXMXMX* * MXMXMX] D.| 3 MXMXMXMXMXMXMXMXMX",
"MXMXMXMXMXMXMXMXMXMXMXMXMXMXMXMXMXMXMX-.mXf.W MXMXMXMXMXMXMXMXMX",
"MXMXMXMXMXMXMXMXMXMXMXMXMXMXMXMXMXMXMXr F.%X;.7 MXMXMXMXMXMXMXMX",
"MXMXMXMXMXMXMXMXMXMXMXMXMXMXMXMXMXMXMXMX) mXx._ MXMXMXMXMXMXMXMX",
"MXMXMXMXMXMXMXMXMXMXMXMXMXMXMXMXMXMXMXMXMXk.-X1.e MXMXMXMXMXMXMX",
"MXMXMXMXMXMXMXMXMXMXMXMXMXMXMXMXMXMXMXMXMXE sXN.} 2 MXMXMXMXMXMX",
"MXMXMXMXMXMXMXMXMXMXMXMXMXMXMXMXMXMXMXMXMXMX;.hX2.u MXMXMXMXMXMX",
"MXMXMXMXMXMXMXMXMXMXMXMXMXMXMXMXMXMXMXMXMXMXt +XD.-.4 MXMXMXMXMX",
"MXMXMXMXMXMXMXMXMXMXMXMXMXMXMXMXMXMXMXMXMXMXMX` fXg.! MXMXMXMXMX",
"MXMXMXMXMXMXMXMXMXMXMXMXMXMXMXMXMXMXMXMXMXMXMXMXn.@X<.0 MXMXMXMX",
"MXMXMXMXMXMXMXMXMXMXMXMXMXMXMXMXMXMXMXMXMXMXMXMXQ *Xx.) MXMXMXMX",
"MXMXMXMXMXMXMXMXMXMXMXMXMXMXMXMXMXMXMXMXMXMXMXMXMXA.m.$.MXMXMXMX",
"MXMXMXMXMXMXMXMXMXMXMXMXMXMXMXMXMXMXMXMXMXMXMXMXMXMXMXMXMXMXMXMX"
};
